<svg width="100" height="152" viewBox="0 0 100 152" fill="none" xmlns="http://www.w3.org/2000/svg">
<path d="M43.0293 71.2283C42.8362 70.6289 42.3925 69.5515 41.6981 67.9959C41.0738 66.5403 40.3048 65.1499 39.4026 63.8455C39.2258 63.5484 38.9826 63.2956 38.6916 63.1066C38.4007 62.9176 38.0698 62.7974 37.7246 62.7554C37.4088 62.7578 37.103 62.8656 36.8566 63.0613C36.5994 63.2399 36.388 63.4757 36.2393 63.7499C35.971 64.3194 35.8266 64.9385 35.8154 65.5669C35.6385 68.016 35.7096 70.4765 36.0276 72.9116C36.1176 73.6767 36.2911 74.8243 36.5481 76.3543C37.1011 79.6568 37.5834 82.1496 37.9949 83.8327C38.578 86.2896 39.4316 88.6755 40.5404 90.9475C41.1689 92.2876 42.0683 93.4855 43.183 94.4667C44.5076 95.4241 46.0405 96.0596 47.6581 96.322C47.6405 96.6185 47.6732 96.9159 47.7548 97.2018C47.8138 97.3481 47.9143 97.4744 48.0442 97.5652C48.0994 97.6129 48.1636 97.6494 48.2331 97.6723C48.3027 97.6953 48.3761 97.7044 48.4492 97.699C48.5818 97.681 48.706 97.6241 48.8057 97.5354C48.9054 97.4468 48.9761 97.3306 49.0085 97.2018C49.1012 96.9181 49.1276 96.6173 49.0856 96.322C48.867 93.9377 48.4748 91.2919 47.909 88.3846C47.5362 86.5229 46.9512 83.9026 46.1538 80.5238C45.905 79.395 45.5828 78.2834 45.1893 77.1958C45.0737 76.8898 44.8616 76.4052 44.553 75.7422C44.2572 75.1046 44.045 74.6137 43.9164 74.2695C43.7878 73.9125 43.6399 73.4088 43.4727 72.7585C43.2799 72.0444 43.1321 71.5343 43.0293 71.2283Z" fill="#FFC700"/>
<path d="M48.4422 9.29883C48.2685 9.36216 48.1092 9.459 47.9734 9.58375C47.8377 9.7085 47.7282 9.85868 47.6513 10.0256C47.4733 10.3785 47.3373 10.7508 47.2462 11.1349C45.8703 16.8345 44.8994 21.1571 44.3336 24.1025C43.4801 28.4383 42.9451 32.8297 42.7327 37.2423C42.5958 41.5266 42.7634 45.8151 43.2341 50.076C43.5298 52.945 44.1085 57.2037 44.9701 62.8523L47.4005 78.7654C47.8893 81.9018 48.2751 84.1906 48.5579 85.6317C48.9921 87.8957 49.5655 90.1312 50.2747 92.3259C51.0333 94.57 52.3514 97.9043 54.229 102.329C55.695 106.269 56.3315 109.686 56.1386 112.581C56.0966 112.981 56.0773 113.383 56.0807 113.785C56.0787 114.184 56.1713 114.577 56.3508 114.933C56.4359 115.119 56.5612 115.284 56.7179 115.416C56.8746 115.548 57.0588 115.644 57.2574 115.698C57.4363 115.774 57.6347 115.793 57.8249 115.752C58.0151 115.711 58.1875 115.612 58.3182 115.469C58.4707 115.258 58.5755 115.018 58.6255 114.764C58.6754 114.509 58.6693 114.248 58.6076 113.996L51.1812 30.3377C50.7826 25.7346 50.4355 22.209 50.14 19.7609C49.6771 15.8719 49.1109 12.3846 48.4422 9.29883ZM57.1223 109.865C57.1294 109.519 57.1101 109.174 57.0645 108.832C56.9488 108.373 56.8653 108.022 56.8138 107.78C56.7346 107.439 56.7411 107.085 56.8329 106.747C56.9358 106.824 56.9873 107.028 56.9873 107.359C57.0233 107.721 57.1144 108.076 57.2574 108.411C57.3974 108.747 57.5134 109.092 57.6046 109.444C57.6642 109.888 57.6772 110.336 57.6431 110.783C57.6016 111.625 57.634 112.47 57.7398 113.307C57.7771 113.614 57.7575 113.925 57.6819 114.225L57.4504 114.13C57.5516 113.313 57.5125 112.485 57.3347 111.681L57.1804 110.897C57.1348 110.555 57.1153 110.21 57.1223 109.865Z" fill="#34986E"/>
<path d="M18.189 77.1643C18.6182 79.6347 19.2307 82.0703 20.0214 84.4514C21.6546 89.182 24.7216 94.4034 29.2224 100.116C30.1482 101.276 32.1157 103.66 35.1248 107.269C37.5939 110.214 39.5164 112.618 40.8923 114.479C47.0503 122.738 51.6748 132.019 54.5491 141.887L56.0536 140.759C56.2268 136.728 55.6982 132.697 54.4911 128.843C53.2514 125.026 51.7893 121.284 50.1122 117.635C43.6054 102.87 38.3524 91.8725 34.3533 84.6426C27.7949 72.7844 20.7351 62.9854 13.1738 55.2456C14.7813 58.5481 16.0607 63.3615 17.0123 69.686C17.6296 73.7916 18.0218 76.2844 18.189 77.1643Z" fill="#34986E"/>
<path d="M42.8875 81.003C41.8335 78.6385 40.6486 76.3334 39.3383 74.0984C36.3679 69.1256 32.8766 65.3322 28.8643 62.7183C29.5413 67.6139 31.3624 72.285 34.1821 76.3594C37.0019 80.4338 40.7424 83.7988 45.1057 86.1862C44.181 83.9493 43.4416 82.2215 42.8875 81.003Z" fill="#34986E"/>
<path d="M47.7723 38.7032C44.0856 35.0476 42.1399 33.0168 41.935 32.6107C40.2965 29.9707 37.5315 27.7368 33.64 25.9088C32.8208 25.5027 28.5198 24.1827 20.7368 21.9489L18.5865 21.644L17.9719 21.9487C17.5623 22.3548 17.4599 22.6595 17.6647 22.8625L17.9719 23.7764C18.1768 24.1826 19.8154 26.2135 22.8878 29.869L40.0923 50.2791C45.6586 57.2367 49.5467 65.3641 51.4595 74.0401C52.074 76.8833 53.0981 85.6159 54.5317 100.238L54.839 113.337L54.5317 112.728L53.6102 109.682C51.5621 100.949 50.0259 95.1609 49.0018 92.3177C48.5921 91.0992 47.2609 88.9668 45.0081 85.9206C41.3215 79.6249 37.1228 75.157 32.4121 72.517C27.9059 69.877 21.8638 68.557 14.2858 68.557C10.834 68.0013 7.33392 67.7972 3.84023 67.9478L1.3825 68.2524L0.153611 69.4709C-0.0512036 69.8771 -0.0512036 70.1817 0.153611 70.3849L0.767942 71.6034C2.81226 73.772 5.33631 75.4405 8.14137 76.4777C14.081 80.1332 18.1773 82.3672 20.4303 83.1795L31.7976 86.2258C35.2795 87.6474 37.1228 88.5613 37.3276 88.9674C42.0384 92.623 46.2371 99.0202 49.9238 108.159C50.6484 109.982 51.5758 111.719 52.6888 113.338L54.2249 118.516L54.532 119.126L55.4538 119.43H55.7609L56.6827 119.126L56.9899 118.821L55.7609 91.0998C55.8861 91.1176 56.0138 91.1062 56.1338 91.0665C56.2537 91.0269 56.3628 90.9601 56.4522 90.8714C56.5417 90.7827 56.609 90.6746 56.649 90.5556C56.689 90.4367 56.7006 90.3101 56.6827 90.1859C57.2972 81.6565 57.3996 75.1578 56.9899 70.6898C56.6299 63.9046 55.6009 57.1707 53.9176 50.5843C52.0737 44.8975 50.0252 40.9372 47.7723 38.7032Z" fill="#95D37F"/>
<path d="M99.6932 68.8616C100.103 68.4555 100.103 67.9478 99.6932 67.3385C99.6932 67.1354 99.0787 66.4246 97.8498 65.2061C95.5969 63.3784 92.8319 62.7691 89.5547 63.3784C86.0728 64.3938 82.3862 66.4246 78.4947 69.4709C72.5551 73.5326 68.4587 78.1021 66.2058 83.1794C64.5673 86.2257 62.8263 92.0136 60.9829 100.543C60.4529 102.198 59.8377 103.825 59.1396 105.418C58.573 106.983 58.2619 108.629 58.2179 110.292C58.194 110.457 58.2093 110.626 58.2626 110.785C58.3159 110.943 58.4057 111.088 58.525 111.206C58.6442 111.324 58.7896 111.413 58.9497 111.466C59.1097 111.519 59.2799 111.534 59.4468 111.51L59.754 111.206L59.1396 114.252L57.9107 116.994L57.6035 119.431C58.0131 120.243 58.4227 120.446 58.8323 120.04C59.4468 120.04 59.754 119.634 59.754 118.821C59.5492 118.618 59.6517 118.111 60.0613 117.298L60.9829 114.557C61.8023 109.886 63.0312 106.433 64.6697 104.199C67.5371 99.7314 75.5249 92.0142 88.6331 81.0476C94.9823 75.3606 98.669 71.2986 99.6932 68.8616Z" fill="#95D37F"/>
<path d="M66.6517 66.4667C66.6692 65.8458 66.4564 65.2402 66.0538 64.7644C65.7595 64.4972 65.3723 64.3532 64.9734 64.3627C64.5586 64.3597 64.1536 64.4869 63.8161 64.7262C63.1622 65.2055 62.6277 65.8271 62.2537 66.5431C59.7544 70.6391 57.9006 75.0894 56.7563 79.7403C56.2285 82.3823 55.8486 85.0513 55.6184 87.735C55.0654 93.0776 54.6925 97.1005 54.4997 99.8037C54.1782 104.292 54.0497 108.334 54.1139 111.93C54.1397 113.167 54.2104 115.015 54.3261 117.476C54.4419 119.95 54.5126 121.799 54.5382 123.023C54.6154 126.351 54.5061 130.782 54.2104 136.316C53.8633 142.946 53.6704 147.377 53.6317 149.608C53.5389 150.281 53.7041 150.964 54.0946 151.521C54.3874 151.812 54.78 151.983 55.1941 151.999C55.6296 152.008 56.0625 151.93 56.4671 151.77C57.4717 151.354 58.321 150.639 58.8976 149.723C59.4944 148.798 59.9009 147.764 60.0935 146.682C60.2783 145.615 60.3623 144.533 60.3444 143.45C60.3188 141.996 60.3123 140.906 60.325 140.179C60.3379 139.503 60.4151 138.305 60.5565 136.583C60.6831 135.389 60.7411 134.189 60.7301 132.988C60.7002 131.925 60.61 130.865 60.46 129.813C60.2543 128.397 60.1064 127.333 60.0164 126.619C59.7724 124.409 59.6694 122.186 59.7079 119.963C59.7206 118.547 59.7978 116.322 59.9393 113.288L61.0966 89.7624C61.1737 88.1942 61.2509 86.9765 61.3282 86.1093C61.4476 84.8939 61.6407 83.6868 61.9067 82.4945C62.1253 81.6019 63.1219 78.9497 64.8964 74.5377C66.1823 71.3375 66.7674 68.6471 66.6517 66.4667Z" fill="#34986E"/>
<path d="M94.7178 28.3678C93.0833 26.7487 92.1638 25.837 91.9593 25.6327C89.9147 24.4213 87.2529 24.3193 83.9736 25.3267C82.1346 25.9387 78.9583 28.1765 74.4448 32.04C68.7223 37.7269 65.4496 47.9785 64.6266 62.795C64.4208 64.6311 63.9064 67.3725 63.0835 71.0193C63.0654 71.144 63.077 71.2712 63.1171 71.3907C63.1573 71.5103 63.2249 71.6189 63.3148 71.708C63.4046 71.797 63.5142 71.8641 63.6347 71.904C63.7553 71.9438 63.8835 71.9552 64.0093 71.9373L64.6266 72.5494H65.5524L66.1504 71.3253L67.0761 67.6722C68.3119 64.4204 70.9931 58.7398 75.1198 50.6305C79.2568 42.5219 83.9633 37.1857 89.2395 34.6219C94.5285 32.0709 96.3546 29.9862 94.7178 28.3678Z" fill="#34986E"/>
<path d="M84.5907 8.87805C83.2259 5.48728 80.583 2.75687 77.2221 1.26579C73.12 -0.761605 69.8408 -0.353568 67.3846 2.4899C64.9284 4.92529 62.9867 8.5784 61.5594 13.4492L59.3024 26.5889C58.0683 33.0114 57.282 39.5106 56.9491 46.0404C56.5376 53.9586 56.7369 58.9378 57.547 60.978C57.9586 62.1893 58.1643 66.7541 58.1643 74.6723L58.7816 78.3447L59.3989 79.2436L60.0161 79.5496H60.942L61.8486 77.4266C62.8774 65.6448 63.5976 58.9442 64.009 57.3247C69.5385 35.7885 72.3033 20.1496 72.3033 10.408C74.8396 10.6316 77.3254 11.2446 79.6718 12.225L83.6646 13.4491C83.6646 13.8571 84.2819 14.0611 85.5164 14.0611H86.4424L86.7509 13.143L86.1336 11.02L84.5907 8.87805Z" fill="#34986E"/>
<path d="M72.3027 10.8672V10.4081C74.8389 10.6318 77.3248 11.2447 79.6712 12.2251L83.664 13.4492C83.664 13.8573 84.2813 14.0613 85.5158 14.0613H86.4418L86.7503 13.1432L86.133 11.0202L84.5899 8.87805C83.2252 5.48727 80.5821 2.75687 77.2213 1.26579C73.1192 -0.761605 69.8401 -0.353568 67.3839 2.4899C64.9276 4.92529 62.9858 8.5784 61.5585 13.4492L61.25 17.7143L61.2692 17.8674C62.6889 16.1973 64.4185 14.2145 66.458 11.9192C66.8695 10.7078 68.8048 10.338 72.264 10.8098C72.2744 10.8304 72.2874 10.8497 72.3027 10.8672Z" fill="#95D37F"/>
<path d="M63.193 122.187C63.1453 122.223 63.1065 122.269 63.0799 122.322C63.0532 122.374 63.0393 122.433 63.0393 122.492C63.0393 122.551 63.0532 122.609 63.0799 122.662C63.1065 122.715 63.1453 122.761 63.193 122.796L62.8857 123.406C62.8857 125.64 64.217 127.366 66.8794 128.584C68.518 129.6 69.9517 129.498 71.1805 128.28C75.0719 124.421 78.5537 118.329 81.6262 110.002C82.855 107.565 83.4695 105.534 83.4694 103.91C83.5078 103.415 83.446 102.917 83.2877 102.446C83.1294 101.976 82.8779 101.541 82.5478 101.168C82.1381 100.762 81.4213 100.66 80.3972 100.863L77.0177 102.386C73.7405 104.214 70.361 108.58 66.8794 115.485L64.4215 119.751C64.4215 120.157 64.0119 120.766 63.1926 121.578L63.193 122.187Z" fill="#FFC700"/>
<path d="M77.6167 113.747C73.9667 116.596 70.5744 119.756 67.4784 123.19L64.0989 128.369C63.6893 128.775 63.6893 128.978 64.0989 128.978V129.588L63.7917 130.502L62.87 135.985C62.8192 136.583 62.9356 137.184 63.2066 137.722C63.4776 138.259 63.8926 138.712 64.4062 139.031C65.4303 139.437 66.7615 139.234 68.3998 138.422C73.7247 135.985 78.3332 129.892 82.2252 120.144L84.6829 112.224L84.3758 111.005L82.5324 110.701L77.6167 113.747Z" fill="#95D37F"/>
<path d="M64.4065 106.175L61.9486 112.268C59.2862 119.782 57.8525 124.656 57.6475 126.89C57.6475 131.358 59.3884 134.1 62.8703 135.115H63.1774L63.792 135.42C63.9172 135.437 64.0448 135.426 64.1648 135.386C64.2848 135.347 64.3938 135.28 64.4832 135.191C64.5727 135.103 64.64 134.994 64.68 134.876C64.72 134.757 64.7316 134.63 64.7137 134.506L65.6354 132.069C66.2499 131.257 66.7619 129.733 67.1715 127.499C67.9907 119.376 68.8099 113.385 69.6292 109.526L69.9365 104.348L69.322 102.215L68.0931 101.911L67.1715 102.52C66.0214 103.551 65.0826 104.792 64.4065 106.175Z" fill="#34986E"/>
<path d="M52.8599 76.8914C53.2766 76.6033 53.561 76.163 53.6508 75.6673C53.7241 75.2865 53.6556 74.8924 53.4579 74.558C53.2738 74.1929 53.0102 73.8728 52.6863 73.6208C52.0068 73.1027 51.1711 72.8264 50.3139 72.8366C49.4404 72.8043 48.5762 73.0235 47.8257 73.4678C47.0776 73.902 46.4433 74.5048 45.9739 75.2274C45.4862 75.9427 45.1333 76.7397 44.9323 77.5797C44.5805 79.2677 44.5477 81.0058 44.8356 82.7056C45.1813 85.0002 45.7962 87.2468 46.668 89.3998C47.1169 90.5187 47.7348 91.5635 48.5005 92.4982C48.23 91.1328 48.0436 90.1 47.9413 89.3998C47.729 87.9884 47.6708 86.5584 47.7677 85.1346C47.8552 83.7137 48.2221 82.3233 48.8477 81.042C49.439 79.7545 50.3642 78.6457 51.529 77.8288C51.8248 77.6246 52.2684 77.3121 52.8599 76.8914Z" fill="#95D37F"/>
<path d="M53.1963 142.496C53.1983 142.74 53.2241 142.983 53.2734 143.223C53.3119 143.427 53.357 143.726 53.4085 144.122C53.4344 144.276 53.4944 144.423 53.5844 144.552C53.6744 144.681 53.7921 144.789 53.929 144.867C54.2506 145.008 54.6815 144.893 55.2215 144.523C55.7686 144.143 56.2845 143.721 56.7646 143.261C57.6005 142.458 58.0634 142.024 58.1534 141.96C58.4363 141.718 58.8801 141.367 59.4846 140.908C59.766 140.652 60.0302 140.377 60.2754 140.086L62.204 137.906C62.2222 138.006 62.2691 138.099 62.339 138.174C62.4 138.264 62.4712 138.348 62.5513 138.422C62.7159 138.635 62.7918 138.902 62.7634 139.168C62.7451 139.451 62.7064 139.732 62.6478 140.01C62.5335 140.878 62.5076 141.756 62.5704 142.63C62.5563 142.799 62.5801 142.969 62.6401 143.128C62.7001 143.286 62.7949 143.43 62.9176 143.548C62.9782 143.592 63.047 143.623 63.12 143.639C63.1929 143.655 63.2685 143.657 63.3421 143.644C63.499 143.635 63.6484 143.575 63.7663 143.472C63.9962 143.266 64.1858 143.019 64.3257 142.745L64.8659 141.808C65.1288 141.336 65.3671 140.851 65.5798 140.354C65.7809 139.733 65.9103 139.092 65.9655 138.442C66.1149 137.711 66.141 136.962 66.0428 136.223C66.0116 135.848 65.888 135.486 65.6829 135.169C65.4777 134.852 65.1972 134.59 64.8661 134.406C64.5289 134.255 64.1717 134.152 63.8052 134.1C63.3762 133.995 62.9354 133.943 62.4935 133.947C62.0506 133.944 61.6231 134.108 61.2976 134.406C61.1209 134.594 60.9832 134.815 60.8925 135.056C60.7833 135.287 60.6867 135.523 60.6032 135.764C60.2077 136.677 59.6074 137.488 58.848 138.136C58.0747 138.777 57.2631 139.371 56.4176 139.915L54.0643 141.483C53.5243 141.827 53.235 142.164 53.1963 142.496Z" fill="#34986E"/>
<path d="M37.8333 115.507C36.983 115.938 36.0729 116.24 35.1328 116.406L40.7849 126.026C43.8969 131.343 46.366 135.277 48.1921 137.827C50.4614 141.071 53.088 144.054 56.0233 146.721C55.3397 141.425 54.276 136.184 52.8403 131.037C51.9272 128.041 50.4484 123.642 48.4038 117.84C48.1674 117.082 47.864 116.346 47.4971 115.641C47.1341 114.944 46.596 114.351 45.9348 113.919C45.1064 113.446 44.1433 113.258 43.1957 113.384C42.2236 113.501 41.2783 113.779 40.3988 114.206C39.2545 114.805 38.3994 115.239 37.8333 115.507Z" fill="#1A692C"/>
<path d="M24.2727 137.234C24.7871 137.387 25.3529 137.132 25.9702 136.469C27.1403 135.22 28.5034 133.62 30.0595 131.669C30.947 130.573 32.2651 128.921 34.0137 126.715C37.2286 122.801 40.2184 119.913 42.9833 118.051C43.9442 117.464 44.854 116.799 45.7031 116.062C46.1124 115.723 46.4494 115.306 46.6945 114.837C46.9396 114.367 47.0878 113.854 47.1304 113.327C44.8799 112.46 42.5652 111.472 40.1864 110.362C38.7292 110.376 37.2882 110.668 35.9427 111.223C33.3451 112.256 30.8569 114.232 28.4779 117.152C26.3349 119.788 24.7356 122.816 23.7712 126.065C22.7648 129.249 22.6251 132.64 23.3662 135.896C23.5459 136.661 23.8481 137.107 24.2727 137.234Z" fill="#95D37F"/>
</svg>
