<svg width="60" height="97" viewBox="0 0 60 97" fill="none" xmlns="http://www.w3.org/2000/svg">
<path d="M22.04 94.288C22.04 94.288 1.81634 52.0717 4.41831 30.456C7.05182 8.84144 29.653 58.1882 22.04 94.288Z" fill="#74A348"/>
<path d="M20.8467 94.9106C20.8467 94.9106 54.6433 61.1278 58.7753 39.9595C62.9073 18.7911 24.4581 58.5838 20.8467 94.9106Z" fill="#74A348"/>
<path d="M23.5242 95.8554C23.5242 95.8554 18.1547 34.4789 30.5951 6.67119C43.0669 -21.1321 48.1424 50.3285 23.5242 95.8554Z" fill="#74A348"/>
<path d="M23.5001 95.6519L7.97516 29.027" stroke="#A9E594" stroke-width="0.883184" stroke-miterlimit="10"/>
<path d="M36.1521 9.9767C38.9228 58.4987 20.3623 96.791 20.3623 96.791" stroke="#A9E594" stroke-width="0.883184" stroke-miterlimit="10"/>
<path d="M53.2102 40.167C53.2102 40.167 36.8127 60.0539 24.2373 88.0869" stroke="#A9E594" stroke-width="0.883184" stroke-miterlimit="10"/>
<path d="M23.2615 95.3487C23.2615 95.3487 13.0056 69.7857 3.50075 63.2331C-6.03564 56.6792 6.31568 86.0429 23.2615 95.3487Z" fill="#74A348"/>
</svg>
