<svg width="69" height="96" viewBox="0 0 69 96" fill="none" xmlns="http://www.w3.org/2000/svg">
<path d="M32.0131 94.7082C32.0131 94.7082 2.82567 58.108 0.534517 36.4552C-1.75676 14.8054 31.3516 57.8187 32.0131 94.7082Z" fill="#74A348"/>
<path d="M31.8516 94.0081C31.8516 94.0081 63.7711 59.7645 67.7229 38.3556C71.7064 16.9447 35.3523 57.2759 31.8516 94.0081Z" fill="#74A348"/>
<path d="M31.1667 93.6739C31.1667 93.6739 58.8053 38.6101 57.4844 8.17492C56.1636 -22.2634 25.0649 42.2761 31.1667 93.6739Z" fill="#74A348"/>
<path d="M33.7731 95.7144L3.68073 34.2717" stroke="#A9E594" stroke-width="0.883184" stroke-miterlimit="10"/>
<path d="M51.131 9.20386C30.6425 53.2764 33.774 95.7147 33.774 95.7147" stroke="#A9E594" stroke-width="0.883184" stroke-miterlimit="10"/>
<path d="M62.158 38.4964C62.158 38.4964 45.7599 58.3833 33.1846 86.4131" stroke="#A9E594" stroke-width="0.883184" stroke-miterlimit="10"/>
</svg>
