<svg width="69" height="102" viewBox="0 0 69 102" fill="none" xmlns="http://www.w3.org/2000/svg">
<path d="M31.227 100.027C31.227 100.027 17.026 -14.8392 27.1462 2.77681C37.2665 20.3928 38.0744 67.4056 35.0654 77.4671C32.088 87.5298 30.4778 32.658 48.7902 11.4397C67.134 -9.77423 34.3718 95.4492 31.227 100.027Z" fill="#74A348"/>
<path d="M32.3949 100.063C32.3949 100.063 3.20751 63.4625 0.916352 41.8097C-1.37493 20.1599 31.7335 63.17 32.3949 100.063Z" fill="#74A348"/>
<path d="M32.2334 99.3577C32.2334 99.3577 64.1531 65.1172 68.1049 43.7083C72.057 22.293 35.734 62.6287 32.2334 99.3577Z" fill="#74A348"/>
<path d="M34.1237 101.066L4.03143 39.6202" stroke="#A9E594" stroke-width="0.883184" stroke-miterlimit="10"/>
<path d="M51.4833 14.5552C31.0264 58.6289 34.1263 101.066 34.1263 101.066" stroke="#A9E594" stroke-width="0.883184" stroke-miterlimit="10"/>
<path d="M62.5406 43.8477C62.5406 43.8477 46.1113 63.7334 33.5674 91.7676" stroke="#A9E594" stroke-width="0.883184" stroke-miterlimit="10"/>
</svg>
