<svg width="476" height="312" viewBox="0 0 476 312" fill="none" xmlns="http://www.w3.org/2000/svg">
<path d="M58.9336 136.793C59.1996 137.275 59.4602 137.726 59.7353 138.136C60.4213 139.203 61.2437 140.176 62.1816 141.03L305.524 133.389L310.353 133.24L334.122 132.496L339.299 132.335L397.389 130.506C447.418 131.914 452.122 167.103 463.673 154.307C466.956 150.669 468.341 145.776 468.639 140.64C468.678 140.144 468.69 139.64 468.702 139.135C468.953 126.585 463.332 113.145 463.332 113.145L460.687 113.088L459.244 113.061L397.054 111.808L391.819 111.919L387.063 112.034L345.854 112.938L343.166 113L283.798 114.323L280.736 114.388L259.446 114.862L250.527 115.06L208.002 116.002L205.723 116.057L151.563 117.255L147.701 117.338L89.8748 118.618L88.3319 118.662L62.7246 119.226C62.1753 119.812 61.6614 120.379 61.2109 120.941C60.8915 121.337 60.6042 121.731 60.3298 122.129C56.0674 128.182 57.1492 133.383 58.9336 136.793Z" fill="#C46B17"/>
<path d="M349.833 126.672C344.711 128.915 339.465 130.861 334.12 132.501L339.297 132.34C343.053 131.021 346.737 129.483 350.38 127.974C357.707 124.927 365.292 121.776 373.102 120.53C390.439 117.757 406.682 124.048 423.856 130.711C434.316 134.752 445.122 138.944 456.149 140.847C459.822 141.475 464.423 141.979 468.648 140.645C468.686 140.149 468.699 139.645 468.711 139.14C464.652 140.593 460.026 140.079 456.38 139.46C445.509 137.581 434.767 133.413 424.362 129.391C407.765 122.961 390.604 116.302 372.882 119.135C364.907 120.41 357.245 123.595 349.833 126.672Z" fill="#9F4207"/>
<path d="M60.3296 122.129C68.0161 124.75 75.9521 126.573 84.012 127.569C84.5609 127.627 85.1098 127.684 85.6505 127.724C87.2476 127.865 88.8286 127.969 90.387 128.007C96.8028 128.034 103.213 127.64 109.578 126.827C115.502 126.093 121.463 125.698 127.432 125.642C136.084 125.74 144.791 127.339 153.204 128.881C158.232 129.789 163.424 130.74 168.576 131.378C192.026 134.231 215.812 130.694 237.417 121.141L239.127 120.364C241.584 119.188 244.118 118.18 246.712 117.347C260.315 113.354 273.286 119.368 287.028 125.742C293.021 128.686 299.198 131.241 305.519 133.391L310.348 133.242C302.605 131.411 295.03 127.903 287.624 124.469C278.431 120.197 269.023 115.823 259.443 114.861C256.474 114.55 253.477 114.617 250.524 115.059C249.097 115.269 247.687 115.581 246.305 115.992C243.657 116.843 241.07 117.872 238.561 119.073L236.834 119.844C215.468 129.298 191.943 132.798 168.75 129.972C163.638 129.348 158.459 128.402 153.45 127.485C144.979 125.938 136.225 124.338 127.442 124.238C121.42 124.284 115.406 124.681 109.43 125.43C103.129 126.236 96.7809 126.622 90.4282 126.585C89.1105 126.545 87.7843 126.482 86.4458 126.373C85.9366 126.328 85.4096 126.293 84.8791 126.228C76.8212 125.315 68.8841 123.542 61.2034 120.94C60.8902 121.341 60.604 121.731 60.3296 122.129Z" fill="#9F4207"/>
<path d="M391.822 111.92L387.066 112.034C389.101 112.596 391.146 113.21 393.171 113.799C394.634 114.237 396.102 114.662 397.557 115.083C415.396 120.205 433.806 123.076 452.358 123.628C454.053 123.835 455.77 123.491 457.254 122.648C458.966 121.437 459.5 119.317 459.893 117.255L460.695 113.089L459.251 113.062L458.503 116.992C458.163 118.774 457.728 120.583 456.431 121.491C455.2 122.151 453.791 122.402 452.408 122.207C433.97 121.661 415.674 118.81 397.944 113.72C396.503 113.305 395.038 112.882 393.571 112.443L391.822 111.92Z" fill="#9F4207"/>
<path d="M280.739 114.39C284.872 116.438 289.105 118.461 293.418 120.165C304.208 124.457 319.869 128.089 333.24 121.213C335.873 119.776 338.402 118.155 340.808 116.364C342.444 115.2 344.12 114.006 345.857 112.937L343.17 112.999C342.083 113.711 341.025 114.462 339.986 115.207C337.638 116.966 335.169 118.557 332.598 119.969C319.691 126.587 304.454 123.028 293.94 118.849C290.529 117.488 287.129 115.937 283.803 114.317L280.739 114.39Z" fill="#9F4207"/>
<path d="M147.701 117.337C151.011 118.576 154.402 119.791 157.766 120.875C171.952 125.428 191.88 128.549 206.208 117.488C206.823 117.015 207.42 116.506 208.005 115.991L205.725 116.046C205.612 116.156 205.473 116.256 205.345 116.362C191.506 127.054 172.068 123.985 158.193 119.526C155.989 118.809 153.775 118.037 151.565 117.248L147.701 117.337Z" fill="#9F4207"/>
<path d="M58.9327 136.794C59.1987 137.277 59.4593 137.727 59.7344 138.138C69.0043 137.453 79.3677 136.08 84.9684 128.684C85.1966 128.375 85.4292 128.054 85.6498 127.726C85.9373 127.288 86.1996 126.84 86.4554 126.376C87.4083 124.577 88.2485 122.721 88.971 120.818C89.2778 120.072 89.5659 119.335 89.8769 118.62L88.334 118.664C88.0977 119.21 87.8752 119.761 87.6563 120.298C86.8968 122.348 85.9713 124.332 84.8888 126.231C84.6224 126.694 84.3304 127.141 84.0143 127.571L83.8363 127.824C78.59 134.76 68.5962 136.063 59.6266 136.738L58.9327 136.794Z" fill="#9F4207"/>
<path d="M1.24325 190.2L66.52 213.078C67.492 210.304 68.4062 207.61 69.2627 204.995C93.3224 131.224 69.8794 119.07 69.8794 119.07C44.4764 110.122 15.2218 162.278 4.99981 182.473C2.59306 187.213 1.24325 190.2 1.24325 190.2Z" fill="#5B3D39"/>
<path d="M1.24341 190.201L66.5202 213.079C67.4921 210.306 68.4063 207.611 69.2629 204.997L5.00099 182.475C2.59323 187.215 1.24341 190.201 1.24341 190.201Z" fill="#D3A479"/>
</svg>
