<svg width="896" height="257" viewBox="0 0 896 257" fill="none" xmlns="http://www.w3.org/2000/svg">
<path d="M180 10.8294C51.9814 35.9037 32 55.5 -45 55.5L-5.31486 264H1058.18L1087 165.318C1059.84 165.318 950.662 104.728 891.924 89.2859C802.699 65.8293 726.5 10.8294 564.5 32C429.022 49.7047 373.892 -27.1471 180 10.8294Z" fill="#D7A87B"/>
<path d="M322.624 134.667C310.708 135.502 298.897 136.472 287.038 137.525C267.211 139.327 262.022 138.925 248.077 134.108C246.958 133.723 245.918 133.332 244.772 132.955C236.56 130.263 229.505 129.64 216.678 130.726C210.864 131.22 205.233 131.847 199.723 132.529C185.031 134.349 169.422 135.465 152.553 135.572C147.036 135.606 142.708 136.067 138.543 136.879C133.468 137.869 128.565 138.936 123.262 139.888C119.611 140.544 115.534 141.174 111.384 141.562C102.948 142.346 95.1393 142.519 90.1395 140.799C89.2238 140.481 87.6497 140.291 85.9453 139.962C78.0594 140.816 71.2922 142.281 64.2677 143.625C57.9607 144.831 51.5898 145.568 44.5049 145.857C36.5865 146.179 28.4228 146.904 20.6529 147.221C11.1859 147.606 3.70955 149.148 -3.39832 151.175C-9.80795 153.006 -15.9168 154.937 -22.4593 156.801C-27.9461 158.368 -33.6007 160.005 -39.6998 161.364C-50.6286 163.803 -57.048 164.037 -64.1449 162.546C-65.4665 162.271 -66.9813 162.05 -68.0975 161.867C-76.0678 163.069 -79.0733 164.943 -82.9885 166.675C-84.9116 167.53 -87.109 168.476 -89.6772 169.149C-91.4046 169.596 -94.6143 169.886 -96.0494 169.776C-97.4204 169.671 -98.5233 168.97 -97.7381 168.487C-91.3188 164.518 -81.6536 161.006 -68.606 158.336C-63.4877 157.29 -58.9807 157.066 -55.8931 157.755C-53.2198 158.348 -50.6769 158.99 -47.9891 159.641C-41.0154 158.488 -35.9418 157.076 -30.9467 155.61C-21.9338 152.965 -12.6673 150.455 -3.64717 147.949C3.66605 145.922 11.2366 144.423 20.5587 144.004C27.8176 143.674 35.5029 142.951 42.5999 142.855C49.8563 142.762 55.953 142.032 62.2214 140.809C69.3377 139.419 76.413 138.028 83.8603 136.862C93.401 135.371 96.0188 135.53 102.215 137.377C106.251 138.586 110.341 138.788 115.949 137.788C121.82 136.738 127.347 135.567 132.603 134.385C139.688 132.793 146.987 131.787 156.849 132.175C166.44 132.556 175.515 131.926 184.357 130.86C195.595 129.505 207.191 128.375 218.956 127.455C232.899 126.369 243.167 127.218 253.164 130.092C258.179 131.54 262.503 133.108 267.661 134.824C280.908 134.471 291.475 133.188 302.756 132.306C308.211 131.884 313.475 131.384 319.182 131.132C325.334 130.857 331.588 131.289 336.879 132.912C338.214 133.322 339.61 133.73 341.138 134.105C346.254 135.358 351.693 135.954 357.266 135.678C367.114 135.194 376.919 134.76 386.789 134.425C391.176 134.274 395.578 134.148 399.978 134.03C407.378 133.835 414.731 134.822 421.873 136.623C424.612 137.312 427.503 138.036 429.611 138.81C437.241 141.607 445.053 142.375 453.48 142.204C457.684 142.122 462.179 142.18 466.56 142.212C470.941 142.237 475.141 142.162 479.779 142.384C491.944 142.974 503.758 142.677 517.433 145.553C529.742 148.138 543.042 150.256 554.337 153.98C563.735 157.08 572.529 157.799 581.324 158.619C592.751 159.688 604.421 161.018 615.945 162.378C625.198 163.47 633.207 165.841 640.515 168.917C640.999 169.116 641.578 169.33 641.965 169.528C652.028 174.695 663.927 177.288 677.589 179.687C697.678 183.217 718.009 187.3 738.496 192.178C751.736 195.33 764.577 199.465 776.476 205.461C790.887 212.72 808.717 218.717 826.475 223.9C839.376 227.657 852.181 231.501 864.949 235.546C876.74 239.281 888.53 243.733 899.957 248.97C912.678 254.799 924.999 260.228 937.212 263.734C937.683 263.867 938.384 264.158 938.891 264.415C939.93 264.939 941.645 265.757 941.778 265.978C942.08 266.487 942.189 267.147 941.343 266.971C930.471 264.717 917.787 260.752 904.306 254.222C885.026 244.883 866.29 238.515 847.421 233.397C829.543 228.552 811.423 222.726 792.699 215.813C782.576 212.073 771.861 208.28 764.734 204.233C758.38 200.621 751.108 198.427 743.099 196.258C740.079 195.443 737.107 194.845 734.147 194.201C714.614 189.961 694.9 185.95 675.39 182.519C660.411 179.886 647.256 176.3 635.2 171.164C632.386 169.962 629.209 168.785 625.717 167.418C615.075 165.407 605.23 164.191 595.82 163.419C592.51 163.149 589.188 162.881 586.023 162.705C573.894 162.026 561.971 159.972 548.526 155.937C523.388 148.408 499.18 145.516 476.59 145.78C469.818 145.856 462.766 145.849 455.714 145.867C444.264 145.895 433.187 144.729 422.353 141.244C418.64 140.051 414.121 138.968 409.314 137.68C404.697 137.689 400.101 137.649 395.829 137.771C384.87 138.09 373.753 138.435 363.383 139.168C353.057 139.895 343.255 138.948 332.962 136.857C329.657 136.184 326.495 135.474 322.624 134.667Z" fill="#B38B66"/>
<path d="M644.198 296.667C669.489 298.28 693.709 299.326 716.256 299.533C718.311 297.955 720.393 312.417 722.429 310.815C699.445 310.755 674.602 293.765 648.56 292.154C660.201 280.66 676.037 268.391 683.14 254.642C695.828 255.093 708.15 271.362 719.943 271.364C735.442 271.372 751.751 295.121 768.482 294.687C770.147 293.075 771.705 291.36 773.348 289.733C754.904 290.245 736.939 266.549 719.946 266.543C708.798 266.54 697.183 250.304 685.228 249.895C685.553 248.957 685.85 248.017 686.083 247.063C692.643 220.361 448.463 207.304 446.663 229.074C439.698 228.295 432.741 227.511 425.801 226.73C377.901 221.32 329.042 215.821 281.985 211.421C276.452 202.204 263.357 191.163 249.917 188.322C248.873 188.102 247.828 187.927 246.783 187.812C245.571 187.674 244.36 187.624 243.155 187.644C242.405 187.656 241.655 187.658 240.911 187.734C240.604 187.766 240.306 187.802 239.999 187.833C239.332 187.904 238.665 187.975 238.008 188.053C236.934 188.18 235.878 188.316 234.837 188.465C233.065 188.715 231.353 189.006 229.685 189.33C228.544 189.552 227.421 189.788 226.336 190.053C216.262 192.495 208.788 196.839 206.472 205.373C200.905 205.019 195.377 204.688 189.924 204.391C101.231 199.566 11.3693 227.982 -54.2362 256.576C-52.9682 257.792 -51.7107 259.018 -50.4358 260.219C14.4243 232.239 102.794 204.557 189.655 209.203C262.093 213.142 345.052 222.481 425.267 231.531C433.571 232.464 441.901 233.4 450.236 234.335C456.422 238.997 470.943 244.748 496.384 251.705C530.485 261.028 203.369 228.1 203.369 228.1C159.926 230.249 154.867 238.112 162.107 248.409C97.5503 250.404 34.044 267.872 -18.6498 288.105C-17.1879 289.299 -15.7847 290.558 -14.3129 291.736C38.5061 271.726 101.992 254.564 166.028 253.12C177.666 265.477 200.079 280.315 195.815 292.921C135.972 290.199 75.7353 302.402 22.878 319.389C24.6701 320.611 26.5439 321.714 28.3509 322.915C79.0022 306.977 136.109 295.552 192.773 297.629C188.275 302.23 179.154 306.409 163.213 309.903C144.831 313.93 116.155 310.654 109.146 347.262C105.985 363.764 124.075 360.33 146.36 355.828L146.929 350.758C146.929 350.758 202.61 281.919 260.709 302.95C318.805 323.986 345.644 346.774 382.303 331.201C409.782 319.527 434.739 326.479 445.517 330.692L466.251 328.576C472.971 321.578 491.22 315.223 513.198 312.979C535.176 310.736 554.333 313.271 562.332 318.766L635.179 311.329C636.271 306.535 639.643 301.666 644.198 296.667Z" fill="#B38B66"/>
<path d="M-82 217.538C-78.1464 212.864 -66.6793 208.482 -52.7227 204.51C-47.6087 203.053 -41.9295 202.414 -37.0619 202.688C-32.1767 202.959 -27.4978 203.345 -22.8077 203.739C-16.916 204.231 -10.4491 203.726 -4.16723 201.908C5.27928 199.177 14.862 196.509 23.5433 193.782C34.2377 190.417 46.0737 187.469 59.1938 185.001C71.5536 182.691 77.2028 182.723 85.4215 184.657C86.5843 184.93 87.5346 185.262 88.5586 185.568C94.1465 187.259 102.231 187.326 111.737 186.242C119.648 185.343 127.399 184.348 135.149 183.404C139.318 182.894 143.781 182.41 147.243 181.703C161.869 178.708 178.597 178.731 195.22 179.203C200.721 179.357 206.243 179.992 211.027 180.686C222.029 182.287 232.932 182.317 244.129 181.312C258.632 180.011 273.737 179.099 287.544 177.812C307.299 175.968 325.728 177.319 344.081 181.322C346.213 181.795 348.5 182.22 350.723 182.674C359.135 183.297 365.676 182.884 372.037 182.392C385.242 181.386 398.353 180.448 411.813 179.775C417.174 179.512 422.925 179.392 428.859 179.449C437.952 179.532 447.061 180.72 454.344 183.166C460.252 185.151 467.244 186.506 474.928 187.977C485.147 189.935 493.883 190.727 503.017 191.014C521.535 191.598 540.416 192.639 559.221 193.901C568.099 194.495 577.264 195.384 587.217 197.258C596.282 198.96 603.872 200.968 606.36 203.711C606.76 204.161 608.573 204.796 609.611 205.291C616.938 207.062 622.427 207.254 628.179 207.889C644.159 209.655 665.965 221.39 683.333 227.637C686.859 228.106 690.547 230.687 694.286 231.389C704.376 233.3 709.14 235.019 714.354 238.412C714.667 238.612 714.667 238.776 714.967 238.97C719.731 242.088 722.182 242.833 731.859 244.447C742.475 246.226 753.153 248.163 763.856 250.245C777.385 252.878 790.927 256.545 804.106 261.817C807.444 263.157 811.433 264.595 813.783 265.895C818.61 268.551 824.399 270.541 830.663 272.408C844.255 276.462 856.933 279.983 869.35 282.486C900.171 288.921 893.257 287.097 925.191 301.401C930.755 303.938 936.344 306.731 940.808 309.365C946.847 312.913 952.524 316.301 960.564 319.749C963.602 321.061 966.053 322.788 964.54 322.98C963.465 323.118 960.439 322.523 958.1 321.663C954.825 320.459 950.999 318.748 948.048 317.2C943.421 314.789 939.095 312.32 935.019 309.929C928.98 306.386 921.952 303.04 914.675 299.697C901.559 293.676 889.38 289.523 877.052 287.431C861.547 284.792 843.067 279.27 824.637 274.023C816.522 271.709 808.794 269.01 803.418 265.619C798.079 262.248 789.701 259.597 781.574 257.766C768.245 254.763 755.141 252.215 741.95 249.721C738.961 249.156 736.261 248.881 733.297 248.355C721.907 246.335 712.279 243.325 704.727 239.322C702.051 237.907 699.8 236.518 696.699 234.766C677.318 232.016 650.998 213.578 632.28 211.521C625.816 210.815 619.739 210.403 613.262 209.749C602.922 208.703 596.245 206.783 592.106 203.647C590.968 202.79 590.18 201.968 589.518 201.385C582.653 199.173 576.939 198.638 571.75 198.241C556.433 197.075 541.341 196.225 526.249 195.534C523.361 195.397 520.66 195.379 517.872 195.326C491.883 194.817 467.343 190.827 443.247 184.391C442.183 184.108 441.051 183.832 439.904 183.571C439.339 183.444 438.662 183.344 436.804 183.016C423.757 182.359 412.077 182.932 400.906 183.833C391.764 184.57 382.542 185.339 373.365 186.175C361.842 187.231 350.119 186.746 337.824 183.891C335.771 183.419 333.305 183.038 331.205 182.574C319.22 179.945 307.519 179.524 294.889 180.546C279.681 181.779 263.821 182.895 248.287 184.314C233.344 185.683 219.244 185.45 204.324 183.516C189.198 181.553 172.623 181.558 156.459 183.775C150.149 184.639 143.606 185.436 137.554 186.448C125.382 188.476 112.178 189.13 98.8167 189.9C91.1919 190.34 85.434 189.947 80.7951 188.927C79.2022 188.579 78.0493 188.119 76.4401 187.775C70.5209 186.515 66.6047 186.51 58.4711 188.347C48.4294 190.624 39.0029 193.154 29.7064 195.754C23.3533 197.535 17.5978 199.462 11.5086 201.354C9.17413 202.079 6.59216 202.779 4.01015 203.46C-7.70953 206.567 -18.9953 208.053 -29.886 207.074C-31.2614 206.955 -32.7731 206.878 -34.2485 206.805C-45.4681 206.206 -53.2641 207.519 -62.1755 211.582C-65.2189 212.968 -67.492 214.407 -70.5504 215.81C-73.7714 217.287 -77.6062 217.957 -82 217.538Z" fill="#B38B66"/>
<path d="M775.562 137.545C770.841 136.365 766.201 135.235 761.549 134.112C758.051 133.272 754.516 132.607 751.033 131.578C728.042 124.783 705.231 119.408 682.319 114.597C671.626 112.349 661.613 109.358 654.008 105.55C652.432 104.758 650.532 103.964 649.254 103.385C642.17 101.401 638.057 101.524 633.454 101.14C625.785 100.507 617.707 99.2776 608.757 97.3994C600.408 95.6448 592.639 93.7458 586.547 91.1655C577.345 87.2731 567.142 85.6024 555.419 84.1918C536.447 81.9137 518.913 81.0275 501.57 80.3061C476.435 79.2733 451.197 76.4703 424.859 72.6005C412.857 70.8403 403.293 62.1517 393.584 63.1173C386.527 63.8188 377.466 63.8731 369.185 64.2274C362.946 64.4975 356.453 64.2866 349.28 63.4028C342.154 62.5275 339.882 61.0862 336.715 59.6881C336.114 59.4235 334.948 59.2037 333.19 58.7339C330.305 58.7688 326.891 58.8515 323.417 58.8881C318.655 58.9389 313.763 59.2755 309.104 58.9922C296.993 58.2607 287.345 59.0155 277.891 60.2732C273.394 60.8677 268.075 61.2894 262.8 61.5358C256.813 61.8158 250.384 61.7547 244.692 60.9351C237.295 59.8687 230.473 60.1793 223.743 61.2004C222.717 61.3563 221.405 61.41 220.335 61.5547C207.049 63.3622 193.667 64.0159 179.762 62.6625C178.166 62.5116 176.259 62.5018 173.083 62.3772C163.901 63.9525 153.894 65.7342 144.089 67.6715C134.86 69.4884 125.075 70.6886 114.453 70.8147C109.236 70.8783 104.16 70.7574 99.2022 70.6419C95.902 70.5597 92.9087 70.2938 90.119 70.1356C79.6438 71.3615 71.1084 81.2422 63.3336 83.4504C57.5693 85.0895 52.0044 86.8043 46.1227 88.4724C42.2284 89.5778 38.0483 90.6608 33.7236 91.6476C24.1937 93.832 18.4423 94.1961 11.9325 93.0227C8.96 92.4868 6.42004 91.8154 3.45788 91.289C0.998276 90.8515 -2.62534 91.0713 -6.11615 91.9502C-10.9534 93.1739 -15.7978 94.5027 -19.9374 95.9523C-26.0123 98.0691 -31.4327 100.343 -37.1169 102.6C-39.9858 103.742 -43.2206 104.427 -46.8452 104.72C-50.3712 105.007 -52.0347 104.156 -49.7808 103.026C-48.3311 102.302 -46.7849 101.554 -44.9491 100.88C-36.5435 97.7931 -28.0996 94.7736 -19.2523 91.9176C-15.8851 90.8348 -11.6912 89.9316 -7.78767 89.0167C0.612849 87.0428 7.38442 86.8606 12.738 87.8117C15.3547 88.2804 17.3782 88.9519 19.9367 89.4439C24.2334 90.2802 27.4901 90.057 33.7903 88.4288C37.9343 87.364 41.7207 86.188 45.674 85.0887C55.0786 82.4729 64.3543 79.8833 74.1365 77.5251C84.8641 74.9408 95.8034 65.9667 106.428 67.1982C116.784 68.3877 127.914 67.5494 138.916 65.4571C146.844 63.9456 154.801 62.4637 162.208 60.8923C170.053 59.224 178.251 58.5837 186.15 59.6965C194.569 60.8878 202.546 60.2087 210.855 59.5246C213.766 59.2878 216.4 58.845 219.161 58.4998C237.672 56.2707 237.828 56.2648 258.023 58.7476C265.458 58.4995 271.956 57.5246 278.949 56.8077C288.145 55.8621 297.395 54.9452 308.932 55.9821C314.865 56.5186 319.66 55.8827 324.674 55.5636C329.686 55.2499 334.69 54.932 339.919 54.7847C343.213 54.6885 348.132 55.6007 349.131 56.4427C350.507 57.5996 351.315 58.7679 352.224 59.7697C359.294 61.2924 365.216 61.2858 370.749 60.9814C380.484 60.4434 390.36 60.0269 399.562 59.4141C406.446 58.954 413.237 67.3607 420.764 68.7508C438.868 72.0972 456.882 73.7362 474.375 74.8681C491.085 75.9487 507.15 76.663 523.652 77.9752C537.814 79.1003 552.097 80.4692 566.503 82.1471C569.764 82.5256 574.059 83.463 577.278 84.3734C582.989 85.9945 588.976 87.7549 593.492 89.5789C605.599 94.4562 617.307 96.1635 629.313 97.1851C633.604 97.5489 637.47 97.6716 641.761 98.0646C648.249 98.6642 653.073 99.8972 658.576 102.381C661.247 103.589 663.57 104.82 665.616 106.018C669.673 108.378 675.419 109.987 681.828 111.352C690.27 113.151 698.631 114.821 707.081 116.865C717.955 119.495 728.916 122.575 739.706 125.384C748.073 127.564 756.328 129.494 764.569 131.566C768.701 132.604 772.708 133.439 776.839 134.569C783.37 136.343 788.933 138.677 792.191 141.076C799.142 146.197 810.061 149.823 821.665 153.31C828.678 155.411 835.589 157.38 842.51 159.444C854.772 163.104 866.943 167.472 879.023 172.672C883.538 174.611 888.167 176.593 892.741 178.373C903.237 182.463 911.121 187.099 919.11 191.722C920.523 192.539 921.423 193.746 921.025 194.063C920.335 194.617 917.221 193.62 914.262 192.295C911.545 191.078 908.806 189.724 906.334 188.412C887.001 178.141 866.21 169.613 844.202 162.944C836.716 160.672 829.161 158.406 821.741 156.378C806.545 152.233 793.768 147.212 782.916 141.083C781.697 140.392 780.293 139.684 778.936 138.992C778.487 138.764 777.877 138.535 775.562 137.545Z" fill="#B38B66"/>
<path d="M459.818 167.662C459.136 167.538 458.663 167.455 458.139 167.367C458.531 167.682 458.82 168.039 458.792 168.454C458.796 168.516 458.76 168.567 458.75 168.618C459.952 168.971 460.979 169.268 462.099 169.595C461.971 170.519 461.816 171.361 461.599 172.519C459.281 171.662 457.472 171.026 455.512 170.334C455.842 170.155 456.065 170.025 456.378 169.872C455.426 169.792 454.418 169.66 453.77 169.379C450.371 168.03 450.287 167.157 453.192 166.113C452.699 165.814 452.48 165.457 452.969 165.075C453.568 164.595 455.173 164.227 456.372 164.309C457.668 164.398 459.531 164.963 460.206 165.546C460.785 166.023 460.063 166.77 459.818 167.662ZM380.023 136.809C380.274 137.15 380.525 137.523 380.781 137.857C378.318 138.304 376.655 138.325 375.836 137.095C375.419 136.46 375.263 135.861 375.834 135.349C375.281 134.562 375.418 133.678 376.332 132.619C378.345 132.702 380.57 132.805 382.912 132.947C383.368 134.746 382.614 136.024 380.023 136.809ZM414.837 136.373C413.606 136.344 412.445 136.105 411.311 135.866C411.476 136.021 411.804 136.098 411.881 136.274C412.131 136.325 412.332 136.329 412.576 136.378C413.536 136.607 414.784 137.29 414.872 137.754C415.099 138.606 414.006 139.113 412.062 138.877C411.576 138.823 411.105 138.767 410.624 138.713C410.021 138.844 409.286 138.938 408.322 138.913C407.576 138.877 406.886 138.828 406.217 138.749C406.038 139.042 405.839 139.36 405.559 139.788C404.872 139.421 404.284 139.124 403.71 138.804C404.76 139.941 405.636 141.246 401.738 141.922C399.803 140.686 397.998 139.533 395.986 138.315C398.864 137.718 400.898 137.667 402.286 138.055C401.964 137.89 401.666 137.722 401.307 137.543C401.604 137.304 402.003 137.143 402.327 136.961C402.092 136.662 401.845 136.382 401.677 135.996C403.623 135.657 405.671 135.191 407.86 135.027C407.952 135.026 408.021 135.051 408.102 135.04C407.203 134.762 406.361 134.531 405.341 134.174C407.768 133.43 409.864 132.803 412.126 133.374C414.038 133.873 416.24 134.854 414.837 136.373ZM408.251 128.012C409.774 128.509 411.252 129.018 413.003 129.611C412.582 130.336 412.171 131.004 411.611 131.944C406.309 130.085 406.253 130.029 408.251 128.012ZM464.391 155.46C461.28 154.867 457.578 154.796 456.746 152.39C458.151 152.1 459.522 151.813 461.213 151.471C465.795 152.916 465.814 152.94 464.391 155.46ZM392.308 126.617C390.489 125.834 388.726 125.214 387.322 124.422C386.871 124.15 387.44 123.423 387.518 122.879C388.35 122.987 389.312 123.013 390.024 123.259C392.285 124.019 392.932 125.116 392.308 126.617ZM441.679 143.187C440.966 143.683 440.587 144.222 439.779 144.464C438.108 144.994 436.528 144.327 435.401 143.612C434.76 143.232 434.777 142.587 434.501 142.058C435.837 142.012 437.177 141.819 438.487 141.979C439.475 142.108 440.41 142.673 441.679 143.187ZM459.087 160.242C458.257 160.836 453.827 160.35 451.656 159.205C451.782 158.752 451.555 157.893 452.215 157.379C452.708 156.979 453.681 156.826 454.774 156.849C449.542 155.94 449.144 155.33 452.038 152.925C457.234 154.212 458.067 155.14 455.939 156.994C456.77 157.126 457.583 157.332 458.219 157.674C459.74 158.527 460.153 159.459 459.087 160.242ZM444.63 170.27C445.863 170.62 446.672 171.384 447.783 172.042C443.386 172.839 443.415 172.841 439.333 170.408C440.676 169.35 442.862 169.748 444.63 170.27ZM307.362 124.37C305.755 123.145 303.323 122.136 304.307 119.766C305.665 119.458 307.352 119.122 309.153 118.736C309.862 120.081 310.392 121.106 311.005 122.247C310.271 122.82 309.454 123.482 308.624 124.092C308.424 124.229 307.989 124.252 307.362 124.37ZM346.086 131.623C346.694 131.266 347.307 131.138 347.902 130.928C344.552 130 344.497 129.202 347.299 127.159C348.043 127.486 348.43 127.686 348.981 127.933C349.986 127.588 350.957 127.798 353.215 128.547C354.899 129.072 356.574 129.603 358.238 130.144C358.224 130.193 358.237 130.233 358.227 130.279C360.293 131.096 359.302 132.418 359.05 133.748C358.367 133.561 357.966 133.419 357.471 133.25C354.8 133.888 353.544 132.597 351.908 131.906C351.854 131.892 351.783 131.862 351.735 131.849C351.456 132.139 351.214 132.418 350.894 132.766C349.185 132.358 347.863 132.056 346.086 131.623ZM372.035 146.342C370.582 145.716 369.309 145.171 368.003 144.63C368.126 144.404 368.254 144.188 368.361 143.966C370.375 143.878 372.394 143.809 375.037 143.711C373.859 144.755 373.161 145.367 372.035 146.342ZM357.505 142.427C356.849 142.044 356.51 141.328 356.652 140.802C356.736 140.519 358.103 140.183 358.915 140.148C359.857 140.084 360.837 140.316 362.926 140.575C361.706 141.561 361.202 142.29 360.223 142.656C359.664 142.88 358.063 142.714 357.505 142.427ZM376.221 120.732C372.886 120.398 370.839 119.335 368.99 117.687C372.793 116.748 375.616 118.021 376.221 120.732ZM359.177 124.874C359.177 124.874 359.191 124.898 359.179 124.912C359.19 124.931 359.246 124.946 359.249 124.946C359.257 124.915 359.214 124.905 359.177 124.874ZM355.361 120.889C355.348 120.905 355.328 120.93 355.313 120.947C355.356 120.977 355.394 121.003 355.415 121.028C355.433 120.959 355.378 120.943 355.361 120.889ZM349.813 124.848C350.236 124.712 350.616 124.685 351.032 124.604C350.365 124.527 349.792 124.447 349.223 124.352C347.984 124.157 346.708 123.786 345.446 123.732C340.943 123.529 339.988 122.602 342.143 119.977C343.468 120.502 344.777 120.987 345.415 121.27C346.326 121.153 347.149 121.045 347.979 120.961C346.937 120.658 345.842 120.371 344.829 120.03C343.107 119.46 343.891 117.308 345.783 117.413C348.509 117.538 351.451 117.974 353.874 118.727C354.813 119.024 355.26 119.425 355.484 119.861C355.761 119.474 356.912 119.115 358.043 118.57C359.193 119.778 360.225 120.613 360.688 121.504C360.875 121.939 360.158 122.815 359.516 122.904C359.221 122.944 358.816 122.903 358.41 122.898C358.708 123.102 359.103 123.312 359.321 123.544C359.489 123.715 359.501 123.925 359.483 124.14C362.868 123.104 363.335 123.168 366.639 124.257C363.772 126.725 362.06 126.872 359.493 125.084C359.004 125.869 358.541 126.63 358.057 127.397C354.032 127.767 351.699 126.852 349.813 124.848ZM390.191 142.548C390.472 143.08 389.848 143.709 389.62 144.299C388.694 144.163 387.486 144.168 386.846 143.865C386.059 143.478 385.304 142.977 384.549 142.547C384.059 142.665 383.455 142.734 382.572 142.696C382.566 141.964 380.09 141.154 382.818 140.514C383.196 140.423 384.024 140.653 384.642 140.924C387.687 140.851 389.517 141.38 390.191 142.548ZM370.441 138.635C367.4 137.857 363.536 137.948 363.902 135.354C365.476 135.058 366.345 134.919 367.333 134.912C366.635 134.656 366.011 134.254 365.309 133.862C363.269 132.65 363.882 131.649 365.38 130.595C369.034 131.21 370.083 131.546 370.362 133.013C370.532 133.066 370.676 133.052 370.829 133.118C371.611 133.45 371.785 134.197 372.564 135.17C371.93 135.214 371.438 135.256 370.907 135.309C371.663 135.445 372.422 135.586 373.531 135.793C372.41 136.824 371.491 137.658 370.441 138.635ZM123.726 141.6C125.98 142.955 123.916 143.773 123.285 145.368C121.732 144.053 120.78 143.256 119.784 142.432C120.552 140.913 122.058 140.612 123.726 141.6ZM117.472 154.014C116.253 155.022 115.148 155.932 113.406 154.031C115.565 151.566 115.602 151.572 117.472 154.014ZM169.628 151.936C167.041 152.156 165.438 152.314 163.729 152.498C163.804 151.269 163.845 150.397 163.957 148.693C165.976 149.837 167.4 150.634 169.628 151.936ZM105.496 147.351C104.947 148.93 104.454 150.336 101.251 148.974C101.625 146.748 102.832 146.087 105.496 147.351ZM44.4751 150.932C42.5652 150.229 42.5918 149.542 43.9 148.4C45.6848 146.834 47.673 146.974 50.4291 148.559C50.1168 148.936 49.8536 149.153 49.5775 149.468C49.7229 149.586 49.8769 149.652 50.0447 149.82C48.5633 151.109 47.7591 151.52 46.802 151.224C46.0993 151.324 45.3897 151.264 44.4751 150.932ZM-46.3705 145.826C-47.6573 143.777 -43.8913 140.828 -40.6579 141.458C-39.7138 141.647 -38.8699 142.454 -37.6338 143.196C-39.5765 144.438 -41.102 145.669 -42.9901 146.654C-44.0362 147.208 -45.6375 147.013 -46.3705 145.826ZM62.8502 150.413C63.0007 151.456 62.3932 152.245 60.6654 152.039C58.6753 151.79 58.1259 150.986 58.2011 148.21C60.897 147.787 62.5643 148.433 62.8502 150.413ZM-84.2973 144.311C-82.791 143.755 -81.2387 143.236 -79.8019 142.628C-75.7289 140.968 -75.2542 141.077 -71.5129 144.34C-71.6203 144.537 -71.8146 144.633 -71.9609 144.815C-71.7521 144.895 -71.515 144.92 -71.3247 145.027C-71.8837 145.292 -72.3561 145.541 -72.8684 145.775C-74.1715 146.957 -75.8349 147.724 -77.848 148.162C-78.3628 148.434 -78.8908 148.71 -79.4332 148.967C-79.6123 148.796 -79.7005 148.719 -79.8565 148.569C-81.3199 148.799 -82.8396 148.999 -84.381 149.168C-88.1489 146.003 -88.11 145.737 -84.2973 144.311ZM-61.4331 141.185C-61.0049 142.134 -62.381 143.177 -63.0482 144.518C-69.1457 141.648 -69.1936 141.653 -67.5612 139.039C-65.0283 139.086 -62.2412 139.324 -61.4331 141.185ZM26.5618 151.04C25.1583 151.993 23.8842 152.898 22.6089 153.802C18.846 153.357 18.8622 151.612 18.8562 149.575C21.4032 150.012 23.8209 148.279 26.5618 151.04ZM41.8061 125.422C41.1947 124.927 40.7922 123.974 41.1106 123.519C41.3646 123.053 42.7151 122.567 43.4027 122.733C44.7029 123.061 46.015 123.601 47.3487 124.122C46.4257 121.868 46.8953 121.641 51.2973 120.713C52.1192 121.819 52.7507 122.702 53.4091 123.631C51.9928 124.644 50.8118 125.663 48.5947 125.211C45.716 127.285 44.1781 127.335 41.8061 125.422ZM63.7353 122.049C63.2518 121.542 63.8558 120.01 64.6347 119.774C66.1574 119.335 66.8441 117.068 69.4954 118.686C70.3393 119.198 71.3446 120.455 71.0607 120.83C70.3804 121.779 68.9333 122.382 67.5538 123.339C66.0648 122.868 64.302 122.685 63.7353 122.049ZM41.455 132.006C41.9827 131.123 42.5326 130.122 43.1943 129.034C46.2355 129.973 46.6618 131.121 45.7969 132.265C44.9734 133.349 43.5079 133.314 41.455 132.006ZM-18.8759 136.358C-16.975 137.071 -15.2592 137.755 -12.8863 138.69C-14.9167 139.602 -16.4571 140.345 -18.1474 141.142C-19.4611 139.802 -20.3772 138.864 -21.3503 137.877C-20.4465 137.327 -19.6983 136.864 -18.8759 136.358ZM105.87 120.85C108.326 120.43 110.361 120.059 112.96 119.646C113.441 120.936 113.853 122.012 114.263 123.148C110.395 124.002 108.088 123.367 105.87 120.85ZM-9.84837 136.85C-11.5778 135.588 -10.3576 134.024 -6.58241 132.839C-7.2801 132.491 -7.85793 132.009 -8.18065 131.278C-9.10914 129.173 -8.25087 128.346 -3.94914 127.343C-2.52447 128.252 -1.09486 129.147 0.445342 130.134C-0.276422 130.782 -0.964201 131.421 -1.73785 132.033C-2.17957 132.381 -2.72915 132.692 -3.33354 132.898C-3.58479 133.008 -3.85385 133.01 -4.09118 133.072C-3.67352 133.194 -3.20044 133.324 -2.90126 133.555C-1.5105 134.601 -3.40348 137.281 -5.96815 137.7C-7.00413 137.871 -9.05322 137.423 -9.84837 136.85ZM-25.6197 139.034C-26.5854 139.765 -28.073 140.271 -29.4681 139.193C-30.3926 138.477 -30.9473 137.183 -30.6034 136.465C-30.251 135.681 -28.8181 134.866 -27.529 134.823C-26.4473 134.766 -24.994 135.751 -23.1721 136.52C-24.3183 137.719 -24.8554 138.442 -25.6197 139.034ZM61.8038 130.976C64.8999 128.571 65.2235 128.528 67.3971 130.482C69.1385 129.75 70.844 129.033 73.7155 130.656C73.3617 133.478 71.1286 134.412 67.4131 134.418C66.7556 133.614 66.0679 132.779 65.3371 131.858C64.2971 131.924 63.1275 131.624 61.8038 130.976ZM-44.2104 130.743C-42.2143 130.336 -40.2141 130.701 -38.7154 131.927C-37.5888 132.872 -39.2246 135.413 -41.9507 136.036C-42.9002 135.652 -44.7288 135.211 -45.7128 134.432C-47.3868 133.14 -46.4372 131.204 -44.2104 130.743ZM61.0011 113.378C59.8492 114.018 58.3992 114.374 57.3381 113.286C56.6474 112.586 56.3054 111.361 56.7405 110.701C57.3413 109.842 58.8476 109.31 59.99 108.648C62.9572 111.658 63.0479 112.211 61.0011 113.378ZM68.0468 113.116C66.7837 114.558 65.0653 113.717 62.6898 113.038C62.9116 111.88 63.153 110.668 63.386 109.472C64.7346 109.697 66.2616 109.713 67.348 110.217C69.0919 110.987 68.9676 112.127 68.0468 113.116ZM74.2919 113.457C73.2254 115.365 70.898 114.145 68.5173 113.708C68.9427 112.024 69.4952 110.652 72.1238 111.304C73.1015 111.545 74.5275 113.006 74.2919 113.457ZM87.7352 103.029C90.0471 99.1882 90.9224 99.0241 94.8731 101.334C92.4962 104.463 92.3599 104.531 87.7352 103.029ZM114.266 95.7762C116.441 95.8498 117.955 97.9352 117.914 100.885C115.891 101.09 113.816 101.32 111.743 101.527C112.016 101.987 112.296 102.4 112.576 102.889C114.524 102.855 116.728 102.829 118.851 102.801C120.641 104.24 120.341 105.645 119.141 106.551C117.259 108.048 114.672 107.05 111.937 106.631C111.662 105.59 111.466 104.905 111.255 104.141C108.714 104.214 106.283 104.297 103.596 104.41C103.535 102.036 105.075 101.008 107.268 100.275C107.327 96.7898 109.228 95.5804 114.266 95.7762ZM92.7057 106.232C93.3844 106.088 94.1141 105.933 94.796 105.81C94.8259 105.747 94.8448 105.673 94.8709 105.608C95.2184 105.185 96.8138 104.908 97.5665 105.132C97.8915 105.219 98.2548 105.55 98.4978 105.906C98.8211 106.066 99.1735 106.231 99.4712 106.422C102.453 108.233 102.362 109.269 99.4626 110.567C97.2484 111.568 94.8945 111.895 92.0398 111.177C91.686 110.817 91.265 110.417 90.9056 110C88.7922 107.681 89.0789 106.975 92.7057 106.232ZM234.179 137.113C234.527 136.967 234.877 136.826 235.242 136.67C236.371 137.51 237.517 138.356 238.878 139.363C239.381 139.139 239.89 138.912 240.39 138.702C240.668 138.88 240.942 139.047 241.221 139.245C240.404 140.513 239.606 141.777 238.492 143.594C237.286 142.687 236.491 142.061 235.524 141.339C235.273 141.469 235.074 141.559 234.789 141.685C234.533 139.803 234.37 138.461 234.179 137.113ZM108.563 114.469C107.247 115.734 105.738 115.314 103.668 114.148C104.869 113.013 106.113 111.913 107.45 110.709C110.374 112.209 109.709 113.357 108.563 114.469ZM-3.09874 111.603C1.76355 113.598 2.11014 115.025 -1.83534 116.695C-3.69932 117.481 -5.67086 117.963 -8.43734 117.002C-8.62726 114.295 -7.93622 112.059 -3.09874 111.603ZM10.6639 109.774C18.4577 108.289 18.4292 108.02 21.5512 111.515C19.1807 113.03 16.263 113.572 12.4878 113.282C11.8595 112.086 11.3017 111.029 10.6639 109.774ZM96.9312 112.755C97.2426 113.638 97.535 114.53 97.909 115.586C93.5638 114.934 95.4981 113.811 96.9312 112.755ZM-34.2862 127.585C-32.731 129.894 -34.8202 130.339 -36.6411 130.89C-37.2805 131.055 -38.0354 131.091 -38.8058 131.224C-39.7404 130.312 -40.5083 129.547 -42.0875 128.003C-38.8116 127.828 -36.5195 127.709 -34.2862 127.585ZM-105.497 174.492C-108.217 175.925 -109.351 178.482 -115.005 176.527C-115.31 173.75 -115.315 173.734 -110.836 170.62C-108.906 172.028 -107.32 173.163 -105.497 174.492ZM-162.927 204.851C-162.702 205.071 -162.865 205.366 -162.893 205.851C-166.433 206.1 -169.927 207.04 -174.807 204.864C-174.844 203.786 -174.802 202.471 -174.811 201.043C-171.446 201.457 -168.843 201.768 -165.989 202.113C-165.034 202.965 -163.921 203.916 -162.927 204.851ZM-139.987 172.673C-139.834 172.628 -139.768 172.57 -139.615 172.524C-137.994 173.365 -136.404 174.196 -134.823 175.029C-135.464 177.878 -138.396 178.778 -143.6 178.674C-144.076 177.554 -144.123 176.598 -143.905 175.764C-146.58 175.562 -149.488 175.043 -152.025 172.842C-148.477 172.345 -145.824 171.643 -142.976 171.676C-142.076 171.694 -141.034 172.155 -139.987 172.673ZM-109.911 154.408C-108.468 154.783 -107.065 155.592 -105.601 155.74C-106.352 159.669 -106.295 159.656 -112.029 160.013C-112.452 159.717 -112.445 159.458 -112.759 159.169C-112.83 159.198 -112.901 159.228 -112.972 159.259C-116.894 155.223 -116.144 153.919 -110.323 153.606C-110.137 153.952 -110.051 154.129 -109.911 154.408ZM-129.827 185.533C-131.906 183.295 -131.865 181.738 -129.915 180.25C-128.575 181.114 -127.309 181.952 -125.445 183.191C-126.984 184.012 -128.17 184.677 -129.827 185.533ZM-135.027 153.036C-134.525 152.568 -134.177 151.968 -133.435 151.676C-131.077 150.719 -128.485 151.032 -125.338 152.421C-127.579 153.065 -129.502 153.806 -131.692 154.189C-132.409 154.294 -133.874 153.453 -135.027 153.036ZM-117.822 143.053C-116.351 142.417 -114.868 141.794 -113.118 141.058C-111.643 141.812 -110.3 142.529 -108.407 143.52C-113.798 145.694 -113.976 145.704 -117.822 143.053ZM-143.372 158.905C-145.223 160.844 -148.295 161.465 -152.619 161.586C-153.37 158.496 -149.588 157.51 -143.372 158.905ZM-55.679 134.065C-54.9401 134.005 -54.2724 134.043 -54.0977 134.181C-53.6513 134.536 -53.355 134.968 -53.0152 135.402C-52.7553 135.548 -52.5977 135.598 -52.3232 135.755C-52.3956 135.828 -52.4716 135.876 -52.5424 135.926C-52.0492 136.636 -51.5669 137.453 -50.8985 138.37C-53.5021 138.566 -54.995 138.685 -56.7567 138.846C-56.9059 138.639 -57.0872 138.472 -57.2899 138.262C-58.7672 138.58 -60.4538 138.645 -62.7164 138.069C-63.2573 136.98 -63.7904 135.871 -64.333 134.74C-59.913 133.215 -58.4988 132.873 -55.679 134.065ZM-97.9761 144.403C-98.9027 146.474 -101.47 147.608 -105.13 149.047C-106.139 146.99 -106.956 145.223 -105.161 144.144C-103.58 143.233 -100.908 142.473 -97.9761 144.403ZM19.7198 134.061C20.6425 137.377 20.6807 137.361 14.9973 136.847C14.7839 133.68 14.8225 133.668 19.7198 134.061ZM7.92427 138.546C8.00947 139.542 8.0947 140.448 8.21422 141.697C6.99402 141.336 5.48794 141.138 5.29818 140.793C4.52634 139.269 5.79635 138.668 7.92427 138.546ZM-131.814 169.474C-134.693 168.606 -135.136 166.907 -133.55 165.071C-131.471 164.99 -129.508 164.941 -127.291 164.899C-125.337 166.282 -123.532 167.744 -126.073 168.899C-127.446 169.5 -130.273 169.929 -131.814 169.474ZM-47.9552 125.226C-49.6146 126.842 -50.3235 129.201 -55.5103 128.112C-55.903 127.003 -56.2962 125.915 -56.778 124.591C-53.0666 122.593 -53.0342 122.595 -47.9552 125.226ZM-75.1791 133.732C-74.3583 135.16 -76.0859 135.739 -77.8324 135.981C-78.7752 136.139 -80.1586 135.697 -81.3365 135.517C-81.1838 134.632 -81.3475 133.632 -80.7328 132.892C-80.2627 132.337 -78.8656 132.113 -77.5447 131.642C-76.6176 132.436 -75.542 133.048 -75.1791 133.732ZM-106.119 168.182C-109.932 169.562 -113.22 169.061 -116.963 166.702C-116.153 165.466 -115.205 164.098 -114.196 162.688C-109.391 163.755 -106.511 165.301 -106.119 168.182ZM-28.6403 119.449C-27.8758 118.562 -27.6455 117.466 -27.056 116.234C-25.2773 116.902 -23.8553 117.451 -22.175 118.077C-22.3189 119.257 -22.3124 120.004 -22.5443 120.699C-22.9897 122.318 -25.4963 123.349 -27.3928 122.67C-29.8522 121.766 -29.7062 120.683 -28.6403 119.449ZM32.7094 114.209C36.3695 114.528 38.5697 115.127 39.269 115.877C39.5069 115.5 39.8337 115.145 40.2998 114.819C40.9512 114.341 42.7184 114.107 43.5515 114.418C44.3769 114.713 45.1465 115.907 45.0875 116.58C44.9489 118.188 43.5064 119.084 40.9033 118.965C39.7872 118.346 39.2793 117.728 39.1245 117.128C38.3997 118.053 37.0734 118.944 35.6476 119.139C33.397 119.431 32.314 117.743 32.7094 114.209ZM-17.6478 128.692C-19.5792 128.306 -21.7606 127.235 -21.6776 125.539C-17.6615 124.227 -16.897 124.201 -14.1541 125.842C-13.4254 123.739 -12.1475 123.053 -10.0622 123.722C-8.10835 124.379 -6.68151 125.323 -7.36074 126.821C-8.07323 128.565 -9.43077 128.723 -13.5943 127.446C-14.4275 128.545 -15.8448 129.047 -17.6478 128.692ZM60.4973 133.149C60.6094 133.448 60.7136 133.73 60.838 134.054C59.0705 134.733 57.2867 135.436 55.5349 136.137C55.1727 135.907 54.8376 135.677 54.4428 135.406C54.6964 134.423 54.9734 133.437 55.3247 132.103C57.1198 132.453 58.8151 132.811 60.4973 133.149ZM35.2778 136.062C35.081 136.093 34.9141 136.099 34.7334 136.143C33.9283 133.389 34.2604 131.87 38.2709 131.923C38.3397 132.16 38.5017 132.449 38.6473 132.722C38.765 132.669 38.8391 132.613 38.9739 132.583C39.8988 132.379 41.5158 132.429 42.2939 132.851C43.105 133.293 43.6221 134.405 43.6359 135.15C43.6684 136.949 41.5677 138.226 39.3182 138.054C36.8603 137.858 36.0719 137.598 35.2778 136.062ZM-104.101 191.436C-101.124 192.806 -102.797 193.777 -103.248 194.93C-103.156 194.947 -103.092 194.966 -102.991 194.983C-104.424 197.564 -106.182 198.393 -108.827 197.616C-110.206 197.2 -112.019 195.991 -112.101 195.316C-112.132 194.674 -110.435 193.88 -109.157 193.859C-109.067 193.857 -108.935 193.919 -108.843 193.889C-108.418 192.81 -108.081 191.939 -107.402 191.35C-106.995 191.028 -104.914 191.088 -104.101 191.436ZM-15.2944 145.795C-14.7955 144.627 -14.3577 143.649 -13.5889 141.96C-10.1359 145.476 -10.346 145.768 -15.2944 145.795ZM-101.412 185.329C-102.49 185.488 -104.219 185.241 -105.344 184.798C-105.96 184.554 -106.215 183.451 -106.019 182.911C-105.817 182.255 -104.97 181.788 -103.692 180.62C-101.885 182.051 -100.448 182.873 -99.9597 183.736C-99.6436 184.244 -100.567 185.157 -101.412 185.329ZM-104.886 215.389C-105.996 216.064 -106.734 217.219 -108.221 217.266C-109.957 217.346 -112.295 216.501 -114.441 216.035C-114.172 215.077 -114.338 213.415 -113.463 213.379C-110.872 213.259 -107.688 212.9 -104.886 215.389ZM275.421 133.005C275.284 130.499 275.343 130.363 276.723 129.928C278.495 129.355 279.971 129.724 280.825 130.629C281.278 131.137 281.63 132.1 281.194 132.485C279.674 133.795 277.657 133.625 275.421 133.005ZM291.906 135.642C289.061 135.156 286.075 135.197 285.484 132.813C288.427 131.196 290.988 131.486 293.948 132.96C293.242 133.879 292.633 134.683 291.906 135.642ZM229.369 127.912C231.346 127.407 231.662 125.491 233.702 126.309C236.14 127.296 234.153 128.604 233.361 130.299C231.94 129.452 230.922 128.83 229.369 127.912ZM339.549 143.538C338.68 143.254 338.239 142.863 338.248 142.306C338.268 141.689 339.164 140.726 340.01 140.542C340.845 140.385 342.542 140.837 343.074 141.324C343.122 141.359 343.108 141.424 343.16 141.449C344.771 141.371 346.054 141.303 347.082 141.426C347.672 141.507 348.369 142.283 348.266 142.653C348.369 142.576 348.376 142.496 348.542 142.414C349.388 141.999 351.29 141.978 352.559 142.143C353.541 142.254 354.241 142.912 355.345 143.45C352.864 145.316 351.114 145.641 349.233 144.594C348.5 144.179 347.795 143.639 347.902 143.105C347.372 143.652 346.551 143.786 345.622 143.788C345.89 144.114 346.166 144.437 346.543 144.822C343.012 144.783 340.413 146.261 337.951 144.852C338.417 144.337 338.95 143.9 339.549 143.538ZM258.659 132.099C256.663 131.788 255.581 131.024 256.001 130.079C256.41 129.138 258.888 128.322 260.726 128.763C261.385 128.923 262.014 129.856 261.858 130.376C261.567 131.414 260.826 132.438 258.659 132.099ZM164.756 114.99C167.679 114.509 169.704 114.214 172.615 113.808C172.556 114.588 172.488 115.232 172.458 115.861C174.139 115.758 175.651 115.863 175.724 117.45C175.771 117.819 174.4 118.506 173.66 118.501C172.573 118.522 171.911 118.301 171.574 117.88C168.67 118.351 167.121 117.026 164.756 114.99ZM147.918 108.691C150.524 109.533 151.675 110.49 150.613 111.951C149.292 113.76 147.012 113.957 143.058 113.211C145 111.347 146.482 109.981 147.918 108.691ZM139.445 109.677C141.456 113.233 140.735 113.804 134.675 113.986C133.337 111.198 133.308 111.18 139.445 109.677ZM218.336 125.409C218.429 124.862 219.482 124.022 220.19 123.966C222.192 123.811 224.184 124.988 224.132 126.002C224.092 126.986 222.687 127.607 220.632 127.622C218.342 127.643 218.12 126.504 218.336 125.409ZM125.715 110.398C126.139 109.285 126.553 108.19 127.021 106.92C128.824 106.696 130.657 106.469 132.47 106.235C136.662 105.707 136.678 105.721 138.509 109.015C136.159 109.512 134.136 109.972 132.122 110.419C131.254 110.606 130.389 110.96 129.523 111.199C130.923 113.57 130.193 114.185 125.559 114.549C125.894 113.198 125.654 111.725 126.873 110.987C126.503 110.845 126.146 110.738 125.715 110.398ZM142.832 120.433C146.962 118.821 146.99 118.827 149.625 119.301C149.789 120.512 150.591 121.86 148.339 122.472C145.779 123.16 144.56 121.698 142.832 120.433ZM187.811 110.564C188.269 110.353 188.706 110.247 189.148 110.156C189.001 109.028 190.773 107.279 192.24 107.322C193.847 107.37 195.094 107.965 195.367 109.128C195.559 110.087 195.653 111.053 195.782 112.031C195.712 112.051 195.655 112.048 195.578 112.049C195.725 112.517 195.758 113.051 195.646 113.464C195.572 113.811 193.544 114.195 192.513 114.072C189.841 113.791 188.236 112.611 187.811 110.564ZM391.995 139.927C391.498 140.165 390.939 140.383 390.478 140.559C389.51 140.557 388.758 140.347 387.959 140.193C387.489 140.252 386.901 140.25 385.892 140.174C386.019 140.057 386.125 139.966 386.235 139.865C385.21 139.516 384.309 139.091 383.492 138.554C381.173 136.956 381.478 136.156 385.05 135.399C385.83 135.253 386.725 135.15 387.537 135.024C389.007 135.634 390.324 136.155 391.642 136.71C394.841 138.062 394.883 138.645 391.995 139.927ZM176.047 95.0417C172.125 97.472 167.836 98.5404 162.625 97.9287C162.348 100.34 160.49 101.731 156.311 102.052C155.008 101.153 153.79 100.323 152.643 99.528C154.536 96.6752 155.751 96.1051 159.51 96.9814C159.401 96.3471 159.301 95.7183 159.152 94.8982C160.045 94.7931 160.546 94.7285 161.052 94.6648C163.792 94.3029 166.62 94.8874 169.413 93.8781C171.116 93.2323 174.306 92.8766 176.047 95.0417ZM113.812 107.341C115.841 106.91 116.712 108.186 117.097 109.167C117.132 109.285 116.891 109.54 116.707 109.75C117.569 109.321 118.846 109.284 121.144 109.39C122.057 110.966 122.159 112.277 119.733 113.216C117.958 113.875 116.442 114.887 114.555 113.107C115.103 111.594 115.563 110.771 116.148 110.206C115.844 110.414 115.516 110.619 115.269 110.618C114.2 110.623 113.03 109.924 111.23 109.312C112.429 108.355 112.927 107.514 113.812 107.341ZM218.209 96.8327C215.291 98.51 213.139 99.105 210.88 98.8413C212.034 101.098 210.915 101.67 205.705 101.827C205.354 99.4726 205.438 99.0044 208.122 98.2116C207.623 98.0267 207.164 97.8988 206.611 97.656C205.353 97.0634 205.197 95.7343 206.599 95.4413C209.007 94.9442 211.631 94.4485 214.158 94.5488C215.436 94.6111 216.68 95.9167 218.209 96.8327ZM400.408 132.969C398.761 132.987 397.674 132.971 396.875 132.862C396.516 132.984 396.285 133.067 395.97 133.152C396.067 133.803 395.536 134.506 395.944 135.121C394.475 135.202 393.414 135.295 392.56 135.311C392.51 135.52 392.51 135.715 392.478 135.933C388.961 136.003 388.671 135.006 388.464 134.041C388.142 133.823 387.865 133.626 387.434 133.308C387.652 133.085 388.031 133.05 388.271 132.859C388.205 132.837 388.141 132.817 388.076 132.796C389.037 132.25 389.858 131.844 390.622 131.553C390.57 131.534 390.477 131.527 390.435 131.493C389.267 130.78 390.379 130.336 391.538 129.99C392.119 129.79 392.529 129.503 393.234 129.14C394.146 129.349 395.069 129.56 396.005 129.789C398.921 129.448 399.721 130.119 400.408 132.969ZM135.539 127.997C137.382 127.743 139.302 129.652 139.926 132.003C137.028 133.196 135.3 130.939 132.028 130.27C133.538 129.237 134.372 128.157 135.539 127.997ZM156.142 124.123C155.273 123.842 154.328 123.351 152.872 122.382C156.297 118.952 157.447 119.076 160.363 122.959C159.111 123.805 158.283 124.205 157.422 124.287C157.531 125.417 157.642 126.36 157.805 127.783C155.716 126.978 154.278 126.415 152.057 125.556C153.541 125.016 154.759 124.579 156.142 124.123ZM255.995 144.17C257.568 143.13 259.206 142.6 260.95 142.727C261.77 142.34 262.574 142.002 263.506 141.62C264.269 142.542 264.777 143.109 265.174 143.698C265.324 143.942 265.258 144.278 265.322 144.66C264.969 144.828 264.628 144.893 264.289 144.989C264.061 145.453 263.607 145.899 262.718 146.287C259.275 147.797 257.496 147.276 255.995 144.17ZM166.93 129.976C166.496 128.861 167.736 128.194 169.023 128.319C170.236 128.416 171.648 128.86 172.435 129.504C172.966 129.923 172.584 130.974 172.645 132.142C171.091 132.047 169.904 132.209 169.059 131.851C168.162 131.479 167.238 130.722 166.93 129.976ZM123.644 136.353C124.38 134.717 125.774 134.212 127.533 135.144C128.117 135.457 127.988 136.616 128.321 137.938C126.254 137.222 124.992 136.795 123.644 136.353ZM215.186 136.431C217.094 135.869 218.98 135.309 221.03 134.712C221.899 136.392 221.882 137.621 219.875 138.409C218.146 139.09 216.442 138.353 215.186 136.431ZM401.429 144.561C400.398 145.541 398.357 145.766 396.436 145.152C393.396 144.149 391.815 142.317 393.033 141.149C393.991 140.255 396.372 140.137 398.831 140.883C401.034 141.537 402.463 143.587 401.429 144.561ZM193.813 136.454C194.016 135.489 194.611 134.524 195.379 133.744C195.804 133.328 197.114 132.949 197.667 133.154C198.467 133.4 198.949 134.224 199.668 134.909C198.792 135.865 198.167 136.756 197.271 137.439C196.761 137.837 195.598 138.146 195.04 137.973C194.426 137.77 193.711 136.928 193.813 136.454ZM254.517 117.116C254.644 116.505 255.011 115.755 255.694 114.87C259.362 115.801 259.706 116.324 258.711 117.988C258.109 118.987 257.017 119.033 255.943 118.869C255.099 118.974 254.194 119.035 253.368 119.128C253.179 118.956 253.016 118.759 252.835 118.569C253.398 118.102 253.935 117.579 254.517 117.116ZM311.593 127.832C311.99 126.851 312.427 125.851 313.026 124.406C315.689 125.272 317.557 125.89 320.246 126.786C316.769 128.2 314.622 129.194 311.593 127.832ZM244.598 118.914C245.305 119.846 246.034 120.789 246.958 122.065C244.89 122.261 243.575 122.421 242.18 122.564C241.565 120.855 240.44 119.308 244.598 118.914ZM272.017 120.3C268.994 119.975 269.636 118.567 270.114 117.192C272.532 117.104 274.442 117.398 274.192 119.08C274.13 119.52 272.622 120.354 272.017 120.3ZM289.082 123.175C289.223 122.438 290.062 121.381 291.063 121.13C293.437 120.511 295.979 120.577 297.927 121.976C296.625 123.68 294.549 124.45 291.847 124.252C291.364 124.207 290.73 124.043 290.185 123.852C290.82 124.503 291.481 125.159 292.356 126.072C290.041 126.424 288.707 126.626 287.279 126.873C286.485 125.285 286.571 124.182 289.254 123.358C289.178 123.297 289.073 123.227 289.082 123.175ZM251.037 127.84C249.091 128.497 247.811 128.924 246.031 129.542C246.046 127.82 244.717 126.252 247.547 125.699C249.919 125.225 249.332 127.091 251.037 127.84ZM441.395 169.232C439.639 168.491 437.488 167.996 437.227 167.415C436.95 166.789 438.494 166.077 439.149 165.461C443.098 166.413 442.969 167.554 441.395 169.232ZM366.958 142.586C367.799 141.781 368.587 141.062 369.564 140.158C371.947 140.993 373.87 141.67 376.124 142.496C373.008 143.955 370.482 143.984 366.958 142.586ZM198.519 105.05C196.796 105.474 194.561 105.279 192.654 105.025C192.339 104.985 192.038 104.756 191.746 104.515C190.943 104.752 189.995 104.791 188.896 104.538C188.121 104.365 187.375 104.1 186.509 103.869C186.559 103.318 186.421 102.811 186.706 102.468C187.905 101.042 189.603 100.828 192.276 101.85C192.29 101.867 192.301 101.869 192.301 101.869C192.335 101.869 192.347 101.868 192.361 101.852C194.23 101.399 196.276 101.216 198.725 100.858C198.817 101.474 198.926 101.714 198.888 101.912C198.7 102.991 201.092 104.423 198.519 105.05ZM258.742 104.386C260.831 103.716 263.167 103.321 265.557 102.831C265.545 102.818 265.538 102.795 265.545 102.767C265.656 102.254 266.992 101.572 267.916 101.477C270.722 101.254 273.271 101.743 274.88 103.66C274.069 103.947 273.078 104.121 273.059 104.349C272.89 106.105 270.933 105.835 269.275 105.479C268.419 105.3 267.582 105.031 266.915 104.703C266.477 105.458 265.207 105.855 264.284 106.134C264.451 107.572 264.608 108.825 264.713 109.921C261.78 110.294 259.872 110.562 257.415 110.917C257.459 110.043 257.506 109.246 257.524 108.413C256.823 109.977 256.599 110.843 256.039 111.641C255.371 112.581 254.149 113.231 252.427 112.887C251.775 112.749 250.779 112.155 250.87 111.882C251.151 110.892 251.498 109.791 252.475 109.09C253.14 108.597 254.89 108.689 257.534 108.379C257.544 107.907 257.557 107.38 257.584 106.949C258.485 106.731 259.143 106.569 259.76 106.43C259.498 106.398 259.186 106.431 258.948 106.385C257.415 106.125 257.188 104.893 258.742 104.386ZM249.201 100.845C250.155 100.645 251.18 100.437 252.159 100.243C252.42 101.454 252.618 102.459 252.827 103.478C248.259 105.146 245.6 104.869 242.926 102.152C242.99 102.139 243.01 102.14 243.06 102.126C242.007 101.8 240.913 101.308 239.706 100.484C240.392 99.5336 241.049 98.6156 241.867 97.5135C244.326 98.6136 246.669 99.6665 249.201 100.845ZM169.956 99.5902C172.461 99.0341 174.661 98.5709 176.919 98.1044C177.182 98.7783 177.367 99.3345 177.461 99.7941C179.739 99.7027 180.436 100.63 181.724 103.557C177.195 104.288 175.96 104.22 174.972 102.111C174.354 102.11 173.74 102.137 173.113 102.067C172.639 102.011 171.991 101.898 171.723 101.669C171.123 101.135 170.724 100.515 169.956 99.5902ZM156.085 103.296C152.425 105.244 150.63 104.835 148.79 101.528C151.875 100.831 154.504 101.022 156.085 103.296ZM239.659 120.2C243.454 121.26 241.679 122.536 240.289 124.094C239.025 123.74 237.834 123.403 235.963 122.858C237.427 121.787 238.567 120.976 239.659 120.2ZM203.865 105.277C202.92 104.447 202.512 103.657 203.921 102.969C205.486 102.199 206.981 102.711 207.881 103.562C208.585 104.25 208.693 105.172 209.047 105.98C206.446 106.934 205.569 106.779 203.865 105.277ZM267.316 124.709C266.995 124.392 266.659 124.037 266.181 123.624C268.066 123.294 269.269 122.902 270.308 123.022C270.769 123.062 271.39 124.248 271.076 124.654C270.981 124.746 270.74 124.822 270.585 124.92C270.941 125.332 271.186 125.856 271.479 126.398C269.153 127.123 267.231 127.744 266.151 126.228C265.958 125.964 266.61 125.18 267.316 124.709ZM331.629 121.602C334.101 120.028 336.73 120.372 339.393 121.564C336.263 123.896 334.357 123.895 331.629 121.602ZM325.722 136.212C326.6 136.678 327.444 137.136 328.424 137.676C327.601 137.784 326.957 137.863 326.266 137.958C322.12 139.173 321.201 139.051 319.278 137.038C322.813 134.884 324.299 134.594 325.722 136.212ZM195.077 116.919C197.622 118.335 197.094 119.541 195.535 121.131C194.301 120.628 193.164 120.199 191.144 119.428C192.784 118.358 193.893 117.667 195.077 116.919ZM214.894 121.781C215.617 122.14 216.194 123.634 215.768 123.953C214.038 125.313 212.513 124.387 210.632 123.293C211.903 122.08 212.856 120.786 214.894 121.781ZM186.333 122.947C189.866 121.869 192.444 122.019 194.483 124.185C192.784 126.63 189.954 126.103 187 126.175C186.745 125.007 186.566 124.055 186.333 122.947ZM306.506 137.676C307.583 137.25 309.152 137.106 310.413 137.192C311.734 137.304 312.694 138.042 311.801 138.909C311.188 139.47 309.939 139.979 308.892 140.146C307.895 140.308 306.78 140.015 305.18 139.867C305.723 138.895 305.798 137.959 306.506 137.676ZM183.613 106.024C183.69 107.629 184.998 109.007 182.36 109.239C181.683 109.294 180.226 108.432 180.054 107.861C179.518 106.136 181.675 106.413 183.613 106.024ZM198.616 128.025C198.401 127.565 199.166 126.6 199.838 126.16C201.093 125.324 202.619 125.189 204.039 126.061C205.127 126.727 205.126 126.877 203.815 129.455C201.414 129.783 199.43 129.639 198.616 128.025ZM211.532 115.35C212.088 113.618 214.017 113.643 216.256 114.16C216.118 115.298 216.008 116.456 214.628 116.838C215.393 117.064 216.219 117.445 217.387 117.906C215.874 118.676 215.052 119.414 214.276 119.395C213.531 119.38 212.323 118.659 212.191 118.119C212.13 117.826 212.547 117.304 212.986 116.953C212.383 116.885 211.388 115.813 211.532 115.35ZM225.067 106.621C224.673 107.184 222.964 107.649 221.827 107.63C220.441 107.603 219.073 107.066 217.521 106.693C217.679 105.685 217.787 104.844 218.012 103.288C220.322 103.779 222.21 103.952 223.642 104.559C224.543 104.941 225.411 106.15 225.067 106.621ZM213.044 106.072C215.176 106.411 217.221 107.032 216.866 108.905C213.97 109.784 214.02 109.779 208.151 107.701C208.904 105.669 211.05 105.759 213.044 106.072ZM237.443 105.967C238.05 106.829 237.866 107.974 237.675 108.972C237.614 109.265 236.378 109.645 235.696 109.66C233.866 109.69 232.997 108.849 232.795 107.81C232.729 107.43 232.757 107.045 232.771 106.598C232.287 107.737 231.728 108.981 231.212 110.201C229.058 109.413 227.369 108.817 224.78 107.901C225.422 106.826 226.159 105.595 226.99 104.179C228.246 104.471 229.214 104.616 230.049 104.929C230.872 105.204 231.613 105.628 232.786 106.213C232.807 105.701 232.871 105.126 232.902 104.348C235.269 105.152 237.014 105.363 237.443 105.967ZM204.601 108.636C205.478 110.05 205.039 111.093 202.861 111.768C200.548 109.323 200.738 108.902 204.601 108.636ZM238.04 110.079C239.33 108.361 241.278 108.181 243.402 108.128C243.674 107.485 243.922 106.88 244.209 106.199C247.084 106.915 250.251 107.003 250.871 109.551C248.938 110.655 247.35 110.433 245.813 110.024C245.759 110.441 245.75 110.821 245.711 111.274C243.034 111.185 240.199 112.354 238.04 110.079ZM228.218 114.387C227.636 114.014 227.956 113.063 227.86 112.365C228.929 112.375 230.492 112.135 230.945 112.486C231.846 113.199 232.107 114.229 232.633 115.15C232.359 115.309 232.124 115.449 231.849 115.604C231.621 115.536 231.395 115.472 231.134 115.413C231.325 117.159 230.717 118.231 229.314 118.28C228.052 118.345 226.802 118.165 226.707 116.935C226.565 115.548 226.893 114.953 228.822 114.62C228.622 114.538 228.358 114.481 228.218 114.387ZM129.448 100.304C125.22 102.513 123.629 102.102 121.906 98.1159C125.883 97.6307 125.912 97.6416 129.448 100.304ZM65.4097 101.344C67.5565 101.634 69.8834 102.246 70.7633 104.439C68.6606 105.823 66.1792 105.86 63.717 104.797C62.7297 104.343 61.6626 102.961 61.9419 102.345C62.2178 101.745 64.288 101.181 65.4097 101.344ZM1.30467 120.94C1.51825 120.517 1.91414 120.158 2.52076 119.872C3.62838 119.377 5.42532 119.477 6.86706 119.318C7.99708 120.517 8.85444 121.425 9.63776 122.273C6.94967 124.174 3.88596 124.618 2.00468 123.429C1.56148 123.146 1.31182 122.81 1.1515 122.41C0.983259 122.544 0.886205 122.683 0.630904 122.789C-1.14731 123.589 -4.37247 123.301 -5.66485 122.207C-7.37449 120.752 -6.38517 119.521 -1.89585 117.892C-0.126718 119.308 0.82194 120.235 1.30467 120.94ZM53.7742 106.353C52.6123 106.8 51.4319 107.274 50.155 107.777C51.0688 107.729 51.9838 107.681 53.3588 107.665C53.5754 108.698 53.7312 109.436 53.9307 110.407C52.1102 111.616 50.4421 113.131 46.8381 111.48C46.4227 110.509 46.2667 109.846 46.3379 109.299C46.2175 109.337 46.118 109.374 46.0006 109.418C45.4828 107.362 45.1643 106.02 44.7958 104.521C51.001 103.731 51.0118 103.753 53.7742 106.353ZM16.2821 121.364C14.3312 121.79 12.3701 121.327 11.3804 119.938C10.4373 118.605 11.8638 117.942 13.429 117.481C16.8787 116.421 18.2842 116.875 20.3077 120.086C18.7857 120.558 17.6008 121.062 16.2821 121.364ZM-27.8108 124.969C-23.8039 125.153 -23.9369 127.422 -22.403 129.678C-25.0696 129.903 -27.2068 130.083 -29.3914 130.262C-30.9088 126.342 -30.436 124.853 -27.8108 124.969ZM94.7112 96.8125C95.2126 97.415 95.4634 97.8904 95.9124 98.2587C96.8212 98.9804 97.6692 99.8308 96.2301 100.351C95.4476 100.64 94.0205 100.411 92.975 100.162C90.6447 99.6561 89.7773 98.5038 90.134 96.7891C91.6854 96.8015 93.2395 96.8036 94.7112 96.8125ZM31.4138 111.606C33.2582 115.93 32.6208 116.399 26.1755 115.527C24.8294 112.288 25.9853 111.431 31.4138 111.606ZM78.3123 99.6688C80.3009 100.518 81.9788 101.645 83.6491 102.591C82.7692 103.798 81.7115 104.347 80.5464 104.581C82.602 105.353 84.0639 106.532 84.8813 108.283C83.1907 108.783 81.8499 109.203 79.9769 109.806C79.856 108.864 79.7963 108.234 79.7324 107.651C77.9583 107.364 76.1734 107.092 74.3744 106.831C72.4708 106.539 71.7028 105.581 72.2533 104.625C72.5133 104.131 73.7031 103.766 74.6663 103.703C73.1359 102.984 72.6544 101.972 73.4382 100.579C74.1861 99.2781 76.1577 98.7836 78.3123 99.6688ZM278.422 140.25C279.04 140.171 280.156 140.678 280.382 141.101C280.804 141.875 280.946 142.812 280.735 143.669C280.624 144.091 279.538 144.775 278.852 144.866C278.213 144.957 277.237 144.521 276.902 144.117C276.341 143.398 276.137 142.515 275.671 141.554C276.708 141.036 277.524 140.392 278.422 140.25ZM94.6347 120.332C94.4367 121.263 94.2013 122.204 94.024 123.143C93.6398 123.071 93.285 123.008 92.8995 122.937C92.5603 121.278 92.5563 121.275 94.6347 120.332ZM136.326 116.986C137.76 118.769 137.337 120.406 135.674 121.535C133.387 123.102 131.316 120.641 128.622 121.222C129.896 117.904 133.373 117.751 136.326 116.986ZM80.6618 125.827C80.1474 122.05 80.1837 122.014 84.1692 121.937C85.4595 125.358 85.1629 125.705 80.6618 125.827ZM126.702 122.192C127.97 122.272 129.721 122.678 130.326 123.364C131.337 124.524 129.917 125.302 128.652 125.789C126.422 126.635 124.925 125.889 123.474 123.137C124.744 122.723 125.724 122.098 126.702 122.192ZM88.6921 130.648C90.7609 132.66 90.1467 133.714 87.8654 134.202C86.6646 134.465 84.9595 134.571 84.6253 133.271C84.0977 131.18 86.3998 130.932 88.6921 130.648ZM16.2323 125.481C16.714 123.75 19.0457 123.643 21.654 123.52C25.0063 126.56 24.7505 127.739 20.5761 128.441C19.4761 128.63 17.6624 128.294 16.6529 127.763C16.025 127.444 16.0294 126.206 16.2323 125.481ZM31.1861 127.137C29.8535 127.411 27.3366 127.503 26.6529 126.966C24.1203 124.997 27.1119 123.961 27.7089 122.55C30.5263 122.357 33.058 122.635 34.0553 124.643C34.7874 126.181 32.7404 126.794 31.1861 127.137ZM9.50916 125.587C11.2154 125.377 12.9326 125.577 13.7846 127.007C14.4089 128.045 12.5991 129.712 9.79356 130.221C9.20031 129.964 7.90079 129.605 7.24173 128.989C6.05493 127.935 7.4961 125.845 9.50916 125.587ZM80.8959 119.138C79.5867 118.076 80.1295 117.233 81.7313 116.329C81.6861 114.9 83.593 113.16 85.6865 112.989C88.2769 112.771 90.4369 113.57 90.9122 114.904C91.4211 116.277 90.0322 117.688 87.8389 118.418C88.2066 118.549 88.4792 118.66 88.8813 118.801C85.1143 120.276 82.3399 120.298 80.8959 119.138ZM98.0252 117.018C98.4103 116.65 100.157 116.524 100.604 116.815C102.811 118.248 100.182 118.606 99.86 119.512C97.547 118.992 96.8973 118.087 98.0252 117.018ZM146.786 117.925C145.646 118.065 144.427 118.214 143.046 118.379C142.74 117.136 142.498 116.174 142.257 115.198C145.696 114.58 146.893 115.6 146.786 117.925ZM50.2852 118.822C49.656 118.515 49.1352 117.737 49.1892 117.231C49.2315 116.757 49.945 116.204 50.6086 116.058C53.2354 115.422 54.4447 115.977 56.9039 118.829C54.7035 120.192 52.4825 119.917 50.2852 118.822ZM120.446 129.917C117.566 129.551 115.112 129.229 112.299 128.887C113.583 125.829 117.517 128.207 119.336 125.868C119.853 127.766 120.097 128.645 120.446 129.917ZM256.081 135.415C257.826 136.243 259.419 136.991 261.033 137.781C258.936 139.386 256.903 139.861 255.511 139.01C253.895 138.038 254.456 136.854 256.081 135.415ZM136.515 95.0038C139.155 94.7149 142.132 94.9576 144.747 95.4461C146.57 95.7892 146.297 98.3563 144.413 98.6044C141.298 98.9926 138.102 99.0637 135.136 99.2626C135.215 99.4162 135.394 99.5749 135.381 99.6965C135.14 100.64 134.424 101.685 133.401 102.305C132.871 102.646 131.011 102.35 130.113 101.967C129.576 101.737 129.308 100.544 129.693 100.115C130.502 99.1988 131.866 98.4964 133.504 97.4179C133.818 97.7844 134.149 98.0995 134.474 98.383C133.533 96.4851 134.14 95.2261 136.515 95.0038ZM147.581 102.784C148.357 106.172 147.05 107.019 142.794 106.198C141.574 105.977 140.256 106.125 138.99 106.064C137.797 105.997 136.62 105.852 134.416 105.672C135.366 103.832 136.117 102.473 137.144 100.629C139.526 101.615 141.546 102.442 143.943 103.447C144.68 103.298 146.099 103.049 147.581 102.784ZM156.655 108.004C158.284 107.692 159.869 107.357 161.642 107.03C162.061 108.538 162.326 109.554 162.607 110.536C158.778 111.188 158.805 111.203 156.655 108.004ZM170.982 107.593C171.618 107.238 172.213 106.918 172.935 106.52C173.995 108.212 174.738 109.438 175.434 110.593C172.399 112.196 172.09 112.222 167.981 110.186C167.872 110.2 167.772 110.259 167.649 110.284C166.206 110.425 164.09 110.195 163.15 109.532C162.398 108.994 162.962 107.573 162.956 106.052C166.079 106.628 168.595 107.126 170.982 107.593ZM194.874 95.0641C195.931 95.5235 196.451 96.4938 197.17 97.2426C196.933 97.4527 196.688 97.6413 196.457 97.8534C195.202 97.5854 193.784 97.4535 192.72 96.9911C192.087 96.7238 191.969 95.9156 191.63 95.3631C192.754 95.2259 194.223 94.7601 194.874 95.0641ZM182.603 100.813C183.029 97.4984 188.136 98.4787 191.014 96.7854C192.109 101.058 190.413 101.71 182.603 100.813ZM233.607 100.219C234.867 101.019 234.067 102.153 232.479 102.118C230.79 102.071 228.683 101.6 227.479 100.854C227.432 100.817 227.349 100.768 227.297 100.735C226.809 102.246 224.616 102.591 222.551 102.615C220.841 102.649 218.849 102.53 219.512 100.754C219.61 100.522 218.741 100.153 218.143 99.7257C220.502 98.1298 223.118 98.1632 225.632 98.9268C225.589 98.4065 225.848 97.775 227.124 97.0229C229.404 98.1142 231.73 99.0361 233.607 100.219ZM369.097 129.244C367.89 128.76 366.657 127.986 366.671 127.389C366.685 126.3 368.184 125.795 370.459 125.782C371.672 124.437 373.292 123.753 374.911 124.053C376.922 124.44 378.174 124.918 379.089 125.495C379.276 125.381 379.469 125.245 379.704 125.121C383.065 126.623 385.849 127.85 384.461 130.459C382.821 130.016 381.306 129.634 379.766 129.25C379.565 129.623 379.505 129.952 379.207 130.388C378.229 130.068 377.265 129.761 376.308 129.453C376.054 129.731 375.808 130.019 375.475 130.376C373.016 130.144 370.543 130.218 369.097 129.244ZM266.243 110.282C267.875 109.982 269.771 110.155 272.2 110.148C271.725 111.598 271.454 112.378 271.13 113.345C269.476 113.391 267.918 113.646 266.584 113.428C265.511 113.242 264.065 112.51 263.943 111.936C263.836 111.415 265.229 110.448 266.243 110.282ZM280.943 112.752C274.299 113.558 274.347 113.592 271.929 112.266C272.425 110.516 274.684 110.311 276.934 110.388C279.002 110.471 281.124 110.796 280.943 112.752ZM308.463 117.558C308.415 117.701 308.431 117.829 308.266 118.021C307.866 118.465 306.05 118.947 305.402 118.78C302.926 118.102 304.806 117.154 305.584 115.778C306.258 116.041 306.924 116.231 307.529 116.432C310.316 114.008 311.33 113.931 315.469 115.573C312.889 118.322 311.908 118.676 308.463 117.558ZM302.511 115.167C302.628 115.513 302.304 115.923 302.12 116.408C301.176 116.46 300.336 116.54 299.519 116.553C298.908 116.561 298.532 116.392 298.052 116.297C298.592 117.007 298.812 117.932 298.337 118.464C297.448 119.468 296.298 120.112 294.259 119.48C293.393 119.214 292.399 119.087 291.062 118.805C291.63 117.96 292.13 117.127 292.756 116.332C293.447 115.448 294.754 115.195 296.165 115.314C295.984 115.098 295.68 114.962 295.604 114.689C295.526 114.359 296.696 113.689 297.462 113.586C300.456 113.206 301.98 113.701 302.511 115.167ZM279.545 114.211C280.246 113.551 280.78 112.728 281.77 112.245C282.985 111.648 284.66 111.452 285.817 112.428C286.845 113.318 286.096 113.942 284.833 114.495C287.417 115.251 287.287 115.75 284.264 117.348C282.919 116.626 282.609 115.886 283.122 115.095C281.908 115.384 281.011 115.136 279.545 114.211ZM412.686 142.711C415.472 142.853 415.558 143.97 415.376 145.311C412.901 145.076 410.199 145.436 409.805 143.79C409.743 143.412 411.669 142.655 412.686 142.711ZM443.297 159.378C443.886 159.687 444.348 160.013 444.473 160.342C444.665 160.793 443.878 161.237 443.387 161.858C440.721 161.143 438.242 160.607 435.973 159.905C434.708 159.517 434.265 158.807 435.629 158.351C436.932 157.888 439.317 158.131 441.318 158.688C440.293 158.078 439.431 157.317 439.245 156.638C438.937 155.59 441.513 155.506 446.52 156.46C445.929 158.522 444.785 159.46 443.297 159.378ZM440.562 155.727C437.993 155.163 436.87 154.168 437.234 153.003C437.416 152.495 438.521 151.857 439.429 151.839C439.708 151.826 440.116 151.961 440.496 152.069C439.863 151.603 439.386 151.074 439.238 150.362C440.539 149.999 441.878 149.637 443.243 149.267C447.413 151 448.564 151.593 448.133 152.951C448.545 153.259 448.821 153.566 448.706 153.662C448.397 153.895 447.922 154.07 447.46 154.269C447.372 154.398 447.355 154.475 447.275 154.612C447.137 154.591 447.015 154.558 446.914 154.529C446.128 154.831 445.186 155.13 444.178 155.521C443.76 155.179 443.444 154.959 443.084 154.695C442.836 155.176 442.053 155.55 440.562 155.727ZM340.139 133.834C339.845 134.155 339.514 134.568 339.213 134.896C339.391 134.989 339.478 135.036 339.672 135.148C339.336 135.255 339.034 135.348 338.742 135.455C338.528 135.722 338.331 135.941 338.08 136.237C337.718 136.13 337.453 136.053 337.118 135.959C335.919 136.275 334.728 136.401 333.393 135.806C331.398 134.927 332.731 133.968 333.388 133.033C334.877 133.072 335.588 133.135 336.457 133.441C337.345 133.168 338.537 133.26 340.139 133.834ZM308.201 131.161C307.481 131.046 306.446 130.243 306.63 129.949C307.518 128.393 309.381 128.843 311.209 129.3C311.3 130.86 310.348 131.563 308.201 131.161ZM451.963 164.941C451.112 165.129 448.73 164.418 447.512 163.89C446.105 163.263 444.277 162.335 445.488 161.444C447.027 160.287 449.558 160.731 452.239 161.6C452.4 162.737 454.982 164.227 451.963 164.941ZM347.466 133.603C350.08 134.757 353.451 135.547 353.432 138.376C351.003 137.412 347.988 138.987 346.313 137.327C345.12 136.122 345.344 134.753 347.466 133.603ZM75.0372 141.355C75.9045 142.467 76.8116 143.607 78.3188 145.574C74.699 144.8 72.2427 144.299 69.1971 143.698C70.4497 141.635 72.3869 141.325 75.0372 141.355ZM60.8371 146.013C61.3181 145.739 61.9459 145.081 62.4945 145.185C64.2223 145.518 66.0709 145.933 67.5819 146.683C69.6369 147.705 69.3841 148.953 68.0868 150.247C65.7694 148.719 62.2681 148.887 60.8371 146.013ZM90.6506 146.916C89.4938 146.89 88.194 146.078 86.0234 145.247C87.5635 144.346 88.2582 143.689 89.0941 143.541C89.2674 143.228 89.4372 142.944 89.6196 142.622C90.8299 143.162 91.6757 143.579 92.5029 143.957C92.7346 144.017 92.9691 144.068 93.1765 144.133C93.5437 144.259 93.9998 145.509 93.7943 145.643C92.8741 146.216 91.7739 146.929 90.6506 146.916ZM77.4938 140.1C75.7033 139.567 74.5158 139.21 72.646 138.652C75.3615 137.085 75.3808 137.093 77.4938 140.1ZM158.325 134.959C159.398 134.781 160.454 134.528 161.567 134.319C165.181 136.419 165.132 136.417 163.656 139.119C161.17 139.341 158.701 139.551 155.85 139.808C155.357 138.343 154.92 137.065 154.427 135.587C156.04 135.326 157.184 135.156 158.325 134.959ZM210.983 138.273C213.91 137.567 215.985 138.411 217.445 140.172C215.957 141.675 214.723 142.496 213.532 142.705C213.349 143.019 213.084 143.334 212.845 143.405C211.121 143.869 209.334 144.189 207.872 142.957C208.111 142.568 208.203 142.228 208.454 141.983C208.793 141.713 209.146 141.438 209.551 141.123C208.478 140.009 208.938 138.765 210.983 138.273ZM182.446 141.719C183.541 141.965 184.799 142.724 185.189 143.516C185.457 144.031 184.596 145.34 183.809 145.697C182.607 146.249 181.041 146.294 178.879 146.706C179.238 145.123 179.464 144.196 179.646 143.248C179.894 141.925 181.18 141.426 182.446 141.719ZM163.164 141.216C164.712 140.449 166.684 139.428 168.251 140.713C169.735 141.902 168.37 143.201 167.042 144.48C165.423 144.12 163.704 143.763 161.269 143.259C162.165 142.243 162.504 141.543 163.164 141.216ZM102.663 133.33C104.457 133.314 106.939 135.154 107.059 136.808C107.098 137.273 106.234 137.992 105.59 138.085C103.218 138.439 100.341 137.297 99.9807 135.987C99.6441 134.753 101.04 133.353 102.663 133.33ZM286.605 105.208C286.784 105.415 286.893 105.656 286.905 105.864C286.961 106.063 287.048 106.22 286.876 106.418C286.703 106.828 286.394 107.299 285.945 107.939C285.054 107.751 284.522 107.562 283.88 107.378C280.028 107.854 277.685 107.105 274.928 104.207C276.798 103.671 278.543 102.733 279.803 102.94C280.889 103.117 281.913 103.413 282.926 103.752C283.143 103.601 283.239 103.488 283.503 103.307C285.259 104.199 286.127 104.722 286.605 105.208ZM317.52 114.383C316.674 114.277 315.73 114.177 314.998 113.923C313.035 113.247 313.144 112.488 315.528 110.266C315.832 110.38 316.143 110.53 316.433 110.639C318.916 109.497 321.542 110.316 322.813 111.134C324.766 112.355 327.236 112.593 329.453 113.193C329.489 113.081 329.46 112.984 329.503 112.877C336.726 112.524 337.707 112.922 338.541 116.313C337.11 116.718 335.577 117.174 333.941 117.642C332.356 117.214 331.352 116.701 330.575 116.119C326.12 116.09 322.781 115.25 320.067 113.805C319.726 113.991 319.415 114.163 319.055 114.32C318.687 114.469 318.023 114.433 317.52 114.383ZM299.823 112.078C299.355 112.602 298.032 113.285 297.217 113.232C295.232 113.099 292.994 112.846 291.504 112.17C289.26 111.13 292.231 110.319 292.521 109.325C292.581 109.128 292.778 108.953 293.148 108.408C293.908 108.69 294.438 108.898 295.117 109.115C295.001 108.96 294.903 108.786 294.797 108.633C295.822 108.111 296.755 107.337 297.96 107.146C298.71 107.01 299.907 107.713 300.923 108.033C300.35 108.449 299.892 109.144 299.179 109.25C298.056 109.432 296.816 109.323 295.597 109.301C296.707 109.679 297.948 110.072 298.888 110.513C299.557 110.818 300.136 111.7 299.823 112.078ZM308.833 111.466C300.834 110.76 299.479 109.867 302.419 106.344C304.468 108.389 309.838 108.54 308.833 111.466ZM21.8333 146.94C21.354 143.217 25.3343 144.075 28.9879 143.801C29.5255 144.932 30.5239 146.04 30.3801 146.902C30.1358 148.354 28.0055 148.106 26.2708 147.867C24.8029 147.678 23.313 147.263 21.8333 146.94ZM56.1759 139.606C57.6435 142.819 56.4698 143.631 49.8395 143.491C51.1827 139.965 51.7496 140.168 56.1759 139.606ZM335.432 126.865C334.991 125.478 336.494 124.923 339.394 124.718C340.257 126.059 341.169 127.457 342.335 129.318C338.144 129.171 335.99 128.618 335.432 126.865ZM324.238 123.491C324.908 122.703 325.6 121.926 326.634 120.74C328.251 121.364 329.654 121.916 331.12 122.487C327.691 124.737 327.716 124.738 324.238 123.491ZM313.572 123.14C313.696 122.978 313.812 122.799 313.94 122.629C313.209 122.412 312.595 121.999 311.624 121.191C312.81 120.32 314.055 119.432 315.805 118.175C317.508 119.693 318.761 120.813 320.099 122.013C319.091 122.204 318.456 122.317 317.754 122.452C319.614 122.479 321.551 122.521 323.865 122.581C323.201 123.854 323.155 125.152 322.192 125.447C321.003 125.831 318.856 125.654 317.514 125.265C315.979 124.821 314.893 123.86 313.572 123.14Z" fill="#B38B66"/>
<path d="M839.656 155.722C839.867 156.105 840.082 156.523 840.295 156.898C838.795 157.421 837.739 157.457 837.034 156.075C836.673 155.361 836.485 154.687 836.771 154.106C836.302 153.222 836.257 152.224 836.68 151.022C837.973 151.101 839.405 151.201 840.916 151.343C841.476 153.369 841.187 154.817 839.656 155.722ZM861.746 154.973C860.959 154.948 860.184 154.687 859.427 154.427C859.555 154.6 859.775 154.684 859.85 154.882C860.017 154.938 860.145 154.941 860.308 154.994C860.954 155.246 861.85 156.007 861.975 156.53C862.247 157.489 861.628 158.07 860.355 157.818C860.038 157.76 859.73 157.7 859.415 157.643C859.051 157.796 858.598 157.907 857.98 157.886C857.5 157.851 857.054 157.8 856.616 157.716C856.546 158.049 856.467 158.409 856.353 158.893C855.861 158.484 855.442 158.154 855.029 157.797C855.867 159.072 856.62 160.538 854.241 161.329C852.824 159.949 851.503 158.661 850.04 157.302C851.782 156.607 853.069 156.535 854.011 156.963C853.781 156.779 853.566 156.591 853.311 156.393C853.464 156.12 853.694 155.935 853.873 155.728C853.678 155.392 853.479 155.078 853.315 154.644C854.502 154.247 855.736 153.706 857.105 153.505C857.163 153.503 857.211 153.531 857.261 153.518C856.647 153.211 856.076 152.957 855.374 152.561C856.807 151.705 858.047 150.982 859.572 151.609C860.863 152.157 862.412 153.248 861.746 154.973ZM856.303 145.588C857.347 146.138 858.363 146.7 859.567 147.357C859.407 148.178 859.246 148.935 859.03 149.999C855.377 147.941 855.334 147.879 856.303 145.588ZM845.948 144.132C844.673 143.263 843.459 142.576 842.446 141.693C842.118 141.389 842.372 140.565 842.34 139.951C842.886 140.067 843.502 140.089 843.992 140.361C845.544 141.202 846.12 142.434 845.948 144.132ZM791.552 142.226C790.345 140.856 788.647 139.735 788.918 137.055C789.736 136.697 790.76 136.305 791.848 135.856C792.5 137.369 792.991 138.521 793.552 139.804C793.171 140.456 792.75 141.208 792.313 141.903C792.206 142.059 791.933 142.088 791.552 142.226ZM817.282 150.122C817.615 149.714 817.986 149.566 818.333 149.325C816.062 148.302 815.908 147.402 817.385 145.076C817.908 145.44 818.184 145.664 818.572 145.938C819.159 145.541 819.809 145.771 821.358 146.599C822.508 147.179 823.654 147.766 824.794 148.363C824.793 148.419 824.807 148.464 824.807 148.516C826.244 149.422 825.812 150.921 825.85 152.423C825.387 152.218 825.111 152.06 824.771 151.873C823.166 152.612 822.174 151.165 821.029 150.398C820.993 150.383 820.943 150.349 820.91 150.335C820.776 150.664 820.664 150.981 820.512 151.376C819.364 150.928 818.478 150.598 817.282 150.122ZM835.999 166.536C834.981 165.84 834.089 165.235 833.177 164.634C833.222 164.378 833.271 164.134 833.305 163.882C834.574 163.768 835.849 163.675 837.516 163.545C836.922 164.731 836.569 165.427 835.999 166.536ZM826.166 162.226C825.691 161.799 825.369 160.994 825.38 160.4C825.391 160.079 826.211 159.69 826.722 159.645C827.312 159.566 827.971 159.819 829.339 160.096C828.71 161.218 828.499 162.044 827.931 162.465C827.608 162.722 826.564 162.546 826.166 162.226ZM834.829 137.613C832.657 137.26 831.195 136.076 829.771 134.231C832.051 133.143 834.038 134.558 834.829 137.613ZM824.602 142.411C824.602 142.411 824.615 142.439 824.61 142.454C824.619 142.475 824.659 142.492 824.659 142.492C824.659 142.457 824.63 142.446 824.602 142.411ZM821.577 137.944C821.571 137.962 821.562 137.99 821.556 138.01C821.587 138.042 821.616 138.072 821.633 138.1C821.634 138.022 821.597 138.005 821.577 137.944ZM818.64 142.451C818.888 142.294 819.126 142.261 819.379 142.167C818.942 142.085 818.566 141.999 818.19 141.896C817.372 141.685 816.505 141.276 815.693 141.224C812.797 141.029 812.051 139.99 813.029 137.013C813.95 137.595 814.856 138.133 815.305 138.447C815.867 138.309 816.375 138.181 816.89 138.08C816.182 137.745 815.442 137.429 814.746 137.052C813.565 136.422 813.742 133.989 814.961 134.093C816.715 134.214 818.653 134.684 820.308 135.515C820.949 135.844 821.294 136.292 821.501 136.783C821.62 136.345 822.299 135.931 822.937 135.308C823.85 136.662 824.631 137.597 825.059 138.598C825.244 139.088 824.919 140.081 824.523 140.186C824.342 140.233 824.078 140.191 823.818 140.188C824.039 140.416 824.321 140.65 824.495 140.91C824.628 141.101 824.666 141.338 824.687 141.58C826.687 140.387 826.993 140.456 829.259 141.66C827.804 144.466 826.736 144.644 824.835 142.645C824.641 143.535 824.461 144.397 824.268 145.266C821.761 145.713 820.14 144.698 818.64 142.451ZM846.986 162.121C847.245 162.719 846.941 163.433 846.884 164.1C846.275 163.953 845.507 163.968 845.054 163.632C844.495 163.2 843.94 162.64 843.395 162.162C843.101 162.299 842.727 162.38 842.159 162.345C842.046 161.519 840.348 160.622 841.989 159.881C842.216 159.775 842.777 160.028 843.211 160.33C845.138 160.225 846.382 160.808 846.986 162.121ZM833.831 157.852C831.779 156.997 829.334 157.128 829.179 154.2C830.136 153.854 830.668 153.691 831.296 153.675C830.813 153.392 830.356 152.942 829.85 152.505C828.371 151.154 828.611 150.019 829.407 148.819C831.824 149.486 832.542 149.857 832.939 151.511C833.055 151.569 833.145 151.552 833.252 151.626C833.799 151.995 834.022 152.836 834.663 153.927C834.266 153.982 833.959 154.033 833.629 154.097C834.131 154.245 834.635 154.399 835.372 154.623C834.813 155.795 834.353 156.742 833.831 157.852ZM648.585 119.775C649.482 115.425 650.014 115.233 652.874 117.81C651.83 121.357 651.753 121.435 648.585 119.775ZM664.384 111.396C665.779 111.463 667.055 113.805 667.471 117.133C666.214 117.379 664.927 117.654 663.639 117.903C663.882 118.419 664.122 118.883 664.373 119.432C665.608 119.38 667.007 119.335 668.353 119.287C669.708 120.897 669.727 122.485 669.1 123.516C668.126 125.218 666.33 124.112 664.527 123.659C664.196 122.486 663.969 121.716 663.72 120.855C662.114 120.957 660.579 121.068 658.886 121.215C658.492 118.538 659.318 117.366 660.604 116.523C660.12 112.591 661.148 111.213 664.384 111.396ZM592.062 130.12C595.455 132.334 595.889 133.942 593.628 135.855C592.56 136.755 591.377 137.314 589.473 136.25C588.946 133.197 589.052 130.67 592.062 130.12ZM600.547 127.954C605.284 126.222 605.226 125.918 607.736 129.838C606.454 131.565 604.678 132.197 602.233 131.899C601.654 130.553 601.14 129.365 600.547 127.954ZM565.554 145.82C564.74 147.656 564.642 150.322 561.178 149.132C560.762 147.883 560.349 146.659 559.845 145.17C561.907 142.888 561.928 142.889 565.554 145.82ZM576.982 139.16C577.336 138.154 577.318 136.916 577.509 135.521C578.741 136.262 579.728 136.87 580.891 137.564C580.976 138.897 581.092 139.74 581.048 140.525C581.007 142.355 579.566 143.537 578.258 142.784C576.557 141.782 576.488 140.56 576.982 139.16ZM615.24 132.794C617.618 133.127 619.107 133.787 619.665 134.628C619.76 134.201 619.915 133.798 620.162 133.426C620.505 132.883 621.595 132.606 622.172 132.951C622.741 133.277 623.41 134.618 623.473 135.378C623.625 137.193 622.842 138.214 621.167 138.099C620.364 137.41 619.948 136.716 619.76 136.041C619.437 137.089 618.727 138.104 617.848 138.334C616.46 138.681 615.518 136.784 615.24 132.794ZM585.361 149.506C584.074 149.085 582.526 147.893 582.325 145.979C584.684 144.469 585.167 144.434 587.158 146.265C587.307 143.887 588.017 143.104 589.445 143.843C590.786 144.57 591.836 145.625 591.628 147.32C591.435 149.292 590.595 149.48 587.754 148.071C587.389 149.317 586.562 149.893 585.361 149.506ZM814.905 163.613C814.31 163.298 813.97 162.86 813.893 162.232C813.813 161.536 814.239 160.443 814.75 160.23C815.258 160.045 816.406 160.543 816.817 161.088C816.853 161.127 816.853 161.202 816.89 161.229C817.904 161.13 818.71 161.043 819.383 161.174C819.771 161.261 820.33 162.131 820.32 162.549C820.374 162.462 820.367 162.371 820.46 162.278C820.936 161.803 822.144 161.766 822.976 161.942C823.617 162.06 824.161 162.797 824.945 163.396C823.645 165.52 822.58 165.899 821.226 164.732C820.698 164.269 820.168 163.666 820.156 163.062C819.901 163.683 819.398 163.84 818.808 163.849C819.027 164.215 819.251 164.577 819.548 165.009C817.295 164.991 815.863 166.678 814.085 165.107C814.305 164.522 814.578 164.025 814.905 163.613ZM847.742 159.151C847.461 159.423 847.138 159.673 846.871 159.875C846.254 159.88 845.744 159.649 845.213 159.48C844.923 159.55 844.548 159.553 843.894 159.475C843.958 159.341 844.011 159.238 844.067 159.123C843.362 158.737 842.725 158.265 842.125 157.665C840.409 155.878 840.484 154.974 842.644 154.093C843.118 153.923 843.672 153.8 844.17 153.653C845.197 154.329 846.113 154.907 847.035 155.524C849.274 157.026 849.387 157.683 847.742 159.151ZM703.592 110.11C701.46 112.881 698.89 114.118 695.482 113.467C695.667 116.189 694.693 117.772 692.081 118.165C691.117 117.161 690.218 116.234 689.369 115.345C690.147 112.112 690.834 111.46 693.358 112.421C693.194 111.706 693.035 110.998 692.818 110.073C693.371 109.948 693.68 109.872 693.992 109.796C695.682 109.368 697.569 110.006 699.196 108.847C700.182 108.106 702.159 107.681 703.592 110.11ZM730.692 111.819C729.086 113.733 727.806 114.42 726.328 114.139C727.4 116.677 726.774 117.33 723.482 117.546C722.906 114.892 722.889 114.364 724.479 113.449C724.134 113.244 723.822 113.103 723.434 112.834C722.545 112.174 722.247 110.676 723.095 110.335C724.553 109.757 726.149 109.178 727.772 109.272C728.595 109.333 729.581 110.797 730.692 111.819ZM852.054 151.239C851.009 151.271 850.314 151.261 849.789 151.144C849.579 151.284 849.445 151.38 849.257 151.478C849.416 152.212 849.183 153.008 849.535 153.7C848.612 153.802 847.951 153.915 847.41 153.939C847.409 154.175 847.439 154.395 847.451 154.641C845.223 154.746 844.889 153.624 844.613 152.536C844.375 152.292 844.17 152.073 843.848 151.717C843.953 151.464 844.189 151.421 844.313 151.204C844.268 151.18 844.225 151.158 844.18 151.135C844.71 150.512 845.171 150.047 845.614 149.713C845.578 149.693 845.518 149.685 845.486 149.647C844.636 148.851 845.277 148.343 845.963 147.943C846.303 147.713 846.521 147.387 846.915 146.972C847.527 147.201 848.146 147.432 848.776 147.684C850.581 147.277 851.19 148.029 852.054 151.239ZM794.763 146.1C794.868 144.991 794.997 143.86 795.161 142.225C796.986 143.182 798.267 143.865 800.113 144.857C798.112 146.477 796.894 147.615 794.763 146.1ZM832.206 162.336C832.621 161.421 833.015 160.605 833.501 159.577C835.142 160.501 836.468 161.251 838.025 162.166C836.261 163.836 834.658 163.887 832.206 162.336ZM719.391 121.236C718.358 121.726 716.907 121.523 715.655 121.25C715.448 121.207 715.223 120.951 715.001 120.682C714.525 120.955 713.928 121.006 713.19 120.729C712.671 120.539 712.157 120.246 711.571 119.991C711.52 119.37 711.357 118.798 711.487 118.41C712.036 116.792 713.085 116.538 714.939 117.671C714.951 117.691 714.958 117.692 714.958 117.692C714.98 117.692 714.987 117.691 714.993 117.673C716.115 117.148 717.39 116.927 718.895 116.504C719.045 117.199 719.151 117.468 719.156 117.693C719.198 118.91 720.935 120.509 719.391 121.236ZM751.016 116.116C751.593 115.883 752.214 115.641 752.808 115.415C753.156 116.779 753.432 117.912 753.718 119.06C751.061 120.975 749.327 120.682 747.218 117.637C747.257 117.622 747.27 117.623 747.299 117.607C746.58 117.247 745.811 116.7 744.919 115.779C745.214 114.702 745.494 113.661 745.85 112.412C747.579 113.635 749.228 114.805 751.016 116.116ZM700.396 115.287C701.907 114.641 703.238 114.102 704.605 113.559C704.873 114.318 705.074 114.944 705.203 115.461C706.639 115.341 707.222 116.382 708.479 119.675C705.706 120.533 704.911 120.465 703.966 118.093C703.572 118.097 703.185 118.132 702.777 118.058C702.466 117.999 702.037 117.875 701.832 117.619C701.37 117.021 701.024 116.325 700.396 115.287ZM692.124 119.57C690.086 121.795 688.883 121.347 687.216 117.629C689.075 116.821 690.777 117.016 692.124 119.57ZM722.828 121.452C722.102 120.523 721.724 119.634 722.518 118.847C723.398 117.967 724.426 118.534 725.126 119.487C725.678 120.258 725.884 121.298 726.23 122.206C724.718 123.302 724.137 123.133 722.828 121.452ZM806.581 138.923C807.918 137.13 809.643 137.498 811.516 138.823C809.874 141.478 808.66 141.49 806.581 138.923ZM805.009 155.45C805.637 155.969 806.243 156.479 806.948 157.081C806.44 157.209 806.042 157.304 805.616 157.415C803.16 158.817 802.557 158.687 801.032 156.429C802.959 153.973 803.861 153.635 805.009 155.45ZM792.999 157.243C793.621 156.755 794.598 156.581 795.413 156.669C796.27 156.785 796.992 157.61 796.554 158.596C796.247 159.232 795.528 159.816 794.887 160.012C794.277 160.202 793.523 159.88 792.483 159.726C792.683 158.624 792.59 157.568 792.999 157.243ZM710.051 122.444C710.34 124.255 711.379 125.799 709.735 126.08C709.312 126.148 708.256 125.186 708.061 124.543C707.462 122.601 708.876 122.898 710.051 122.444ZM736.522 122.811C736.355 123.449 735.337 123.986 734.611 123.973C733.725 123.953 732.773 123.357 731.73 122.948C731.68 121.81 731.622 120.86 731.533 119.104C733.077 119.64 734.304 119.822 735.306 120.495C735.937 120.919 736.67 122.277 736.522 122.811ZM728.788 122.28C730.196 122.647 731.59 123.332 731.645 125.448C729.933 126.461 729.964 126.455 725.918 124.154C726.093 121.856 727.472 121.942 728.788 122.28ZM744.3 121.981C744.815 122.95 744.87 124.243 744.897 125.37C744.902 125.701 744.173 126.138 743.741 126.161C742.581 126.209 741.902 125.266 741.618 124.095C741.519 123.667 741.479 123.232 741.421 122.729C741.283 124.016 741.114 125.424 740.968 126.805C739.479 125.931 738.316 125.272 736.53 124.257C736.778 123.04 737.063 121.646 737.38 120.042C738.223 120.362 738.861 120.519 739.439 120.865C740.004 121.169 740.539 121.642 741.373 122.293C741.31 121.716 741.264 121.066 741.168 120.188C742.794 121.078 743.937 121.304 744.3 121.981ZM723.799 125.235C724.568 126.824 724.445 128.004 723.16 128.781C721.322 126.041 721.38 125.564 723.799 125.235ZM674.724 116.392C672.364 118.916 671.289 118.463 669.596 113.979C672.055 113.402 672.074 113.414 674.724 116.392ZM634.125 118.039C635.535 118.351 637.107 119.024 637.996 121.491C636.865 123.068 635.291 123.127 633.565 121.947C632.869 121.442 631.983 119.891 632.068 119.194C632.154 118.515 633.387 117.863 634.125 118.039ZM596.262 140.62C596.335 140.142 596.533 139.734 596.876 139.407C597.507 138.84 598.665 138.94 599.559 138.749C600.458 140.094 601.139 141.111 601.765 142.062C600.339 144.228 598.455 144.751 597.08 143.423C596.756 143.107 596.547 142.73 596.385 142.28C596.298 142.433 596.257 142.59 596.11 142.712C595.098 143.627 593.002 143.326 592.016 142.101C590.71 140.472 591.156 139.077 593.769 137.205C595.107 138.79 595.849 139.829 596.262 140.62ZM605.857 140.989C604.679 141.483 603.362 140.976 602.524 139.415C601.725 137.919 602.533 137.16 603.46 136.629C605.497 135.407 606.459 135.909 608.228 139.516C607.33 140.06 606.651 140.638 605.857 140.989ZM578.336 145.382C580.914 145.56 581.169 148.12 582.482 150.653C580.819 150.928 579.486 151.146 578.123 151.364C576.57 146.953 576.648 145.269 578.336 145.382ZM652.094 112.71C652.504 113.386 652.734 113.92 653.075 114.333C653.762 115.14 654.429 116.093 653.591 116.69C653.136 117.022 652.193 116.774 651.491 116.502C649.932 115.948 649.208 114.654 649.178 112.717C650.167 112.72 651.156 112.711 652.094 112.71ZM614.026 129.868C615.847 134.732 615.512 135.265 611.28 134.33C609.938 130.686 610.545 129.71 614.026 129.868ZM606.442 145.633C606.489 143.677 607.957 143.538 609.599 143.381C612.187 146.786 612.201 148.118 609.649 148.94C608.978 149.162 607.773 148.796 607.051 148.204C606.604 147.849 606.421 146.453 606.442 145.633ZM616.206 147.39C615.399 147.709 613.811 147.832 613.296 147.232C611.389 145.028 613.138 143.838 613.307 142.242C615.071 142.003 616.724 142.298 617.659 144.556C618.355 146.285 617.144 146.992 616.206 147.39ZM602.179 145.802C603.234 145.553 604.356 145.766 605.113 147.373C605.665 148.54 604.763 150.434 603.054 151.028C602.638 150.743 601.757 150.347 601.245 149.658C600.332 148.477 600.937 146.108 602.179 145.802ZM678.428 110.36C680.064 110.015 681.996 110.266 683.733 110.798C684.945 111.172 685.155 114.07 683.993 114.364C682.068 114.825 680.046 114.929 678.188 115.175C678.261 115.348 678.398 115.525 678.408 115.663C678.397 116.729 678.097 117.913 677.539 118.62C677.253 119.009 676.025 118.688 675.396 118.263C675.02 118.008 674.67 116.664 674.851 116.177C675.229 115.137 675.992 114.335 676.873 113.106C677.128 113.517 677.385 113.87 677.635 114.188C676.752 112.053 676.95 110.628 678.428 110.36ZM686.635 119.056C687.636 122.872 686.931 123.837 684.1 122.943C683.29 122.702 682.473 122.879 681.659 122.82C680.89 122.753 680.119 122.598 678.689 122.411C679.018 120.328 679.293 118.79 679.67 116.702C681.333 117.797 682.743 118.714 684.419 119.831C684.866 119.657 685.731 119.366 686.635 119.056ZM702.247 124.308C702.599 123.902 702.929 123.538 703.329 123.083C704.257 124.983 704.914 126.361 705.53 127.66C703.838 129.49 703.646 129.522 700.726 127.255C700.658 127.272 700.604 127.34 700.529 127.368C699.631 127.538 698.251 127.295 697.554 126.554C696.994 125.952 697.14 124.344 696.909 122.628C698.983 123.255 700.658 123.798 702.247 124.308ZM715.577 109.996C716.318 110.507 716.794 111.598 717.364 112.437C717.245 112.676 717.117 112.89 717.002 113.131C716.163 112.838 715.241 112.7 714.494 112.186C714.051 111.889 713.855 110.978 713.557 110.358C714.251 110.195 715.117 109.658 715.577 109.996ZM708.628 116.573C708.403 112.83 711.8 113.898 713.378 111.967C714.714 116.779 713.733 117.527 708.628 116.573ZM740.998 115.525C741.92 116.419 741.581 117.704 740.565 117.676C739.483 117.635 738.071 117.12 737.193 116.287C737.158 116.246 737.098 116.191 737.06 116.154C736.976 117.863 735.631 118.268 734.32 118.31C733.238 118.361 731.952 118.242 732.108 116.233C732.136 115.971 731.528 115.561 731.083 115.083C732.345 113.265 734.015 113.284 735.729 114.127C735.624 113.54 735.694 112.826 736.394 111.968C738.009 113.182 739.627 114.205 740.998 115.525ZM831.57 147.268C830.729 146.731 829.829 145.867 829.748 145.193C829.594 143.964 830.473 143.384 831.918 143.352C832.489 141.826 833.418 141.043 834.493 141.369C835.831 141.79 836.699 142.32 837.367 142.965C837.469 142.834 837.572 142.68 837.703 142.538C840.067 144.208 842.022 145.571 841.53 148.525C840.42 148.037 839.398 147.618 838.36 147.196C838.288 147.618 838.299 147.99 838.175 148.484C837.505 148.13 836.845 147.791 836.19 147.451C836.07 147.766 835.956 148.092 835.798 148.498C834.198 148.254 832.636 148.356 831.57 147.268ZM791.233 134.532C791.224 134.695 791.253 134.838 791.177 135.056C790.988 135.56 789.905 136.117 789.467 135.934C787.79 135.187 788.845 134.104 789.134 132.546C789.602 132.838 790.054 133.047 790.47 133.269C791.88 130.514 792.514 130.42 795.394 132.241C794.164 135.362 793.592 135.769 791.233 134.532ZM813.828 152.66C813.689 153.025 813.54 153.493 813.398 153.865C813.525 153.969 813.588 154.022 813.727 154.146C813.529 154.269 813.352 154.377 813.181 154.499C813.086 154.802 812.993 155.051 812.878 155.386C812.631 155.269 812.451 155.184 812.223 155.08C811.508 155.445 810.768 155.597 809.83 154.935C808.429 153.958 809.134 152.866 809.411 151.806C810.365 151.84 810.827 151.905 811.426 152.245C811.95 151.93 812.723 152.025 813.828 152.66ZM793.102 149.881C792.627 149.756 791.848 148.858 791.921 148.525C792.254 146.764 793.506 147.257 794.738 147.759C795.03 149.518 794.529 150.319 793.102 149.881ZM818.456 152.345C820.292 153.628 822.556 154.494 822.968 157.686C821.277 156.616 819.594 158.416 818.28 156.556C817.341 155.205 817.278 153.658 818.456 152.345ZM796.521 130.883C795.967 130.771 795.351 130.665 794.847 130.384C793.497 129.635 793.452 128.779 794.637 126.254C794.847 126.38 795.068 126.548 795.269 126.668C796.678 125.361 798.472 126.265 799.403 127.179C800.829 128.542 802.437 128.793 803.937 129.453C803.943 129.326 803.91 129.218 803.922 129.096C808.466 128.645 809.15 129.086 810.188 132.906C809.338 133.373 808.431 133.899 807.459 134.439C806.387 133.968 805.671 133.396 805.089 132.746C802.25 132.746 799.999 131.823 798.055 130.213C797.866 130.425 797.694 130.622 797.489 130.801C797.277 130.972 796.849 130.936 796.521 130.883ZM809.789 144.833C809.301 143.271 810.174 142.634 811.989 142.382C812.739 143.888 813.529 145.458 814.549 147.549C811.86 147.415 810.407 146.807 809.789 144.833ZM802.16 141.11C802.468 140.216 802.792 139.334 803.273 137.988C804.396 138.681 805.371 139.292 806.39 139.926C804.544 142.489 804.56 142.491 802.16 141.11ZM795.32 140.793C795.374 140.609 795.421 140.405 795.477 140.213C794.979 139.973 794.527 139.512 793.788 138.608C794.413 137.617 795.072 136.606 795.998 135.175C797.309 136.875 798.274 138.129 799.304 139.473C798.691 139.695 798.305 139.828 797.878 139.985C799.066 140.002 800.305 140.035 801.786 140.086C801.554 141.527 801.72 142.991 801.151 143.332C800.452 143.774 799.059 143.589 798.146 143.161C797.103 142.671 796.268 141.594 795.32 140.793Z" fill="#B38B66"/>
</svg>
