<svg width="207" height="207" viewBox="0 0 207 207" fill="none" xmlns="http://www.w3.org/2000/svg">
<g clip-path="url(#clip0_40_528)">
<path d="M152.888 101.008L54.8679 96.6195L56.993 83.3348L155.298 81.7096L152.888 101.008Z" fill="#9F5B3F" stroke="#874D35" stroke-width="3" stroke-linejoin="round"/>
<path fill-rule="evenodd" clip-rule="evenodd" d="M56.7388 84.9225L56.9928 83.335L155.298 81.7098L154.349 89.3074L56.7388 84.9225Z" fill="#874D35"/>
<path d="M94.8502 84.0925C95.0993 83.4708 95.0206 82.7656 94.6407 82.2141C94.2607 81.6625 93.6299 81.3378 92.9602 81.349L56.1809 81.9637C55.2678 81.979 54.4811 82.6108 54.269 83.499C51.6481 94.4772 50.3742 108.874 55.267 124.053C60.1717 139.27 71.21 155.075 92.8683 168.933C93.6944 169.461 94.7819 169.313 95.4361 168.582C96.0903 167.851 96.1183 166.754 95.5021 165.991C72.2372 137.184 84.4371 108.6 92.4222 89.8917C93.3 87.835 94.1269 85.8977 94.8502 84.0925Z" fill="#B6B6B2" stroke="#989791" stroke-width="4" stroke-linejoin="round"/>
<path fill-rule="evenodd" clip-rule="evenodd" d="M85.6132 83.4711C76.6149 99.86 65.7892 137.961 92.4991 165.395C70.4077 136.219 82.7832 107.314 90.5986 89.0594C91.4728 87.0173 92.29 85.1086 92.9955 83.3477L85.6132 83.4711Z" fill="#D9D9D9"/>
</g>
<defs>
<clipPath id="clip0_40_528">
<rect width="148" height="148" fill="white" transform="translate(121.484 206.373) rotate(-145)"/>
</clipPath>
</defs>
</svg>
