<!-- sample rectangle -->
<svg width="830" height="282" viewBox="0 0 830 282" fill="none" xmlns="http://www.w3.org/2000/svg">
<path d="M27.2808 109.301C21.7489 113.038 22.5606 126.418 25.5411 131.394C29.1529 137.461 38.6542 136.413 43.7991 132.584C48.2409 129.276 57.5652 114.633 52.1586 109.382C45.1446 102.423 36.8352 122.835 36.3168 127.913C37.5926 123.162 35.6897 103.604 27.2808 109.301Z" fill="#61630D"/>
<path d="M42.2381 163.418C23.744 173.364 -0.491754 142.811 22.1047 130.519C45.7098 117.729 64.2385 151.592 42.2381 163.418Z" fill="#D4291D"/>
<path d="M40.384 132.057C41.048 132.598 41.6137 133.248 42.0564 133.979C42.4039 134.661 42.6823 135.375 42.8877 136.112L42.9518 136.236L43.0277 136.601C43.2459 137.933 43.0447 139.301 42.4516 140.518C42.4427 140.757 42.4062 140.995 42.3428 141.226C41.8773 142.906 40.811 144.361 39.3456 145.315C37.8905 146.167 36.1713 146.446 34.526 146.099C33.3612 145.845 32.2885 145.281 31.4209 144.469C30.6529 143.758 29.9885 142.945 29.4468 142.051C28.9724 141.318 28.6703 140.488 28.5628 139.621C28.4554 138.755 28.5454 137.874 28.8261 137.045C28.8458 136.206 29.0371 135.378 29.3882 134.613C29.7393 133.848 30.2428 133.161 30.8681 132.595C31.4566 131.931 32.1712 131.39 32.9705 131.002C33.7697 130.615 34.6375 130.39 35.5232 130.34C36.409 130.29 37.2949 130.416 38.1295 130.711C38.964 131.006 39.7304 131.463 40.384 132.057Z" fill="#FF8753"/>
<path d="M52.8444 220.741C48.6804 225.959 53.4494 238.487 57.7796 242.347C63.0376 247.058 71.793 243.222 75.5602 238.032C78.8119 233.548 83.3397 216.789 76.6122 213.392C67.8406 208.844 66.0034 230.806 67.0245 235.807C66.8241 230.892 59.1693 212.794 52.8444 220.741Z" fill="#61630D"/>
<path d="M83.2752 267.926C68.5932 282.939 36.3418 261.014 54.2387 242.537C72.9491 223.283 100.742 250.072 83.2752 267.926Z" fill="#D4291D"/>
<path d="M72.1434 238.548C72.9385 238.865 73.6724 239.317 74.3134 239.883C74.8484 240.43 75.3273 241.028 75.7433 241.67L75.8416 241.77L76.023 242.096C76.6287 243.301 76.8451 244.667 76.6424 246.005C76.7053 246.236 76.7414 246.474 76.7499 246.714C76.8071 248.456 76.2238 250.163 75.1102 251.512C73.9756 252.758 72.4182 253.538 70.7444 253.699C69.5566 253.803 68.3647 253.586 67.294 253.069C66.3491 252.621 65.472 252.042 64.6881 251.351C64.0168 250.793 63.4805 250.091 63.1193 249.296C62.7581 248.501 62.5811 247.634 62.6015 246.759C62.3697 245.952 62.3052 245.105 62.4119 244.27C62.5186 243.435 62.7942 242.629 63.222 241.902C63.5854 241.093 64.1058 240.363 64.753 239.754C65.4002 239.146 66.1612 238.672 66.9916 238.36C67.822 238.048 68.7052 237.904 69.5897 237.936C70.4742 237.968 71.3423 238.176 72.1434 238.548Z" fill="#FF8753"/>
<path d="M151.844 15.7409C147.68 20.959 152.449 33.4867 156.78 37.3466C162.038 42.058 170.793 38.222 174.56 33.0316C177.812 28.5483 182.34 11.7891 175.612 8.39212C166.841 3.84427 165.003 25.8057 166.025 30.8067C165.824 25.8922 158.169 7.79364 151.844 15.7409Z" fill="#61630D"/>
<path d="M182.275 62.9258C167.593 77.9386 135.342 56.0137 153.239 37.5372C171.949 18.2832 199.742 45.0716 182.275 62.9258Z" fill="#D4291D"/>
<path d="M171.143 33.5481C171.938 33.8655 172.672 34.3171 173.313 34.8833C173.848 35.4298 174.327 36.0284 174.743 36.6703L174.842 36.7696L175.023 37.0957C175.629 38.3011 175.845 39.6669 175.642 41.0055C175.705 41.2365 175.741 41.4741 175.75 41.7137C175.807 43.4559 175.224 45.1628 174.11 46.5116C172.976 47.7583 171.418 48.5385 169.744 48.6986C168.557 48.8031 167.365 48.5856 166.294 48.0692C165.349 47.6206 164.472 47.0423 163.688 46.3508C163.017 45.7934 162.481 45.0911 162.119 44.2961C161.758 43.5011 161.581 42.6338 161.601 41.7586C161.37 40.9515 161.305 40.1046 161.412 39.2697C161.519 38.4347 161.794 37.6292 162.222 36.9022C162.585 36.0927 163.106 35.3625 163.753 34.7544C164.4 34.1462 165.161 33.6722 165.992 33.36C166.822 33.0478 167.705 32.9037 168.59 32.936C169.474 32.9683 170.342 33.1764 171.143 33.5481Z" fill="#FF8753"/>
<path d="M774.845 92.7409C770.681 97.959 775.45 110.487 779.78 114.347C785.038 119.058 793.793 115.222 797.561 110.032C800.812 105.548 805.34 88.7891 798.613 85.3921C789.841 80.8443 788.004 102.806 789.025 107.807C788.825 102.892 781.17 84.7936 774.845 92.7409Z" fill="#61630D"/>
<path d="M805.276 139.926C790.594 154.939 758.342 133.014 776.239 114.537C794.95 95.2832 822.743 122.072 805.276 139.926Z" fill="#D4291D"/>
<path d="M794.144 110.548C794.939 110.865 795.673 111.317 796.314 111.883C796.849 112.43 797.328 113.028 797.744 113.67L797.842 113.77L798.024 114.096C798.629 115.301 798.846 116.667 798.643 118.005C798.706 118.236 798.742 118.474 798.75 118.714C798.808 120.456 798.224 122.163 797.111 123.512C795.976 124.758 794.419 125.538 792.745 125.699C791.557 125.803 790.365 125.586 789.295 125.069C788.35 124.621 787.473 124.042 786.689 123.351C786.017 122.793 785.481 122.091 785.12 121.296C784.759 120.501 784.582 119.634 784.602 118.759C784.37 117.952 784.306 117.105 784.412 116.27C784.519 115.435 784.795 114.629 785.222 113.902C785.586 113.093 786.106 112.363 786.753 111.754C787.401 111.146 788.162 110.672 788.992 110.36C789.822 110.048 790.706 109.904 791.59 109.936C792.475 109.968 793.343 110.176 794.144 110.548Z" fill="#FF8753"/>
<path d="M651.281 145.301C645.749 149.038 646.561 162.418 649.541 167.394C653.153 173.461 662.654 172.413 667.799 168.584C672.241 165.276 681.565 150.633 676.159 145.382C669.145 138.423 660.835 158.835 660.317 163.913C661.593 159.162 659.69 139.604 651.281 145.301Z" fill="#61630D"/>
<path d="M666.238 199.418C647.744 209.364 623.508 178.811 646.105 166.519C669.71 153.729 688.238 187.592 666.238 199.418Z" fill="#D4291D"/>
<path d="M664.384 168.057C665.048 168.598 665.614 169.248 666.056 169.979C666.404 170.661 666.682 171.375 666.888 172.112L666.952 172.236L667.028 172.601C667.246 173.933 667.045 175.301 666.452 176.518C666.443 176.757 666.406 176.995 666.343 177.226C665.877 178.906 664.811 180.361 663.346 181.315C661.891 182.167 660.171 182.446 658.526 182.099C657.361 181.845 656.289 181.281 655.421 180.469C654.653 179.758 653.988 178.945 653.447 178.051C652.972 177.318 652.67 176.488 652.563 175.621C652.455 174.755 652.545 173.874 652.826 173.045C652.846 172.206 653.037 171.378 653.388 170.613C653.739 169.848 654.243 169.161 654.868 168.595C655.457 167.931 656.171 167.39 656.97 167.002C657.77 166.615 658.637 166.39 659.523 166.34C660.409 166.29 661.295 166.416 662.129 166.711C662.964 167.006 663.73 167.463 664.384 168.057Z" fill="#FF8753"/>
</svg>

