<svg width="18" height="67" viewBox="0 0 18 67" fill="none" xmlns="http://www.w3.org/2000/svg">
<path d="M13.548 55.1719L13.8413 56.7849C13.8413 56.7849 14.9934 57.4292 15.4343 58.3896C15.8752 59.3499 16.1625 60.4515 16.5236 61.1389C16.8848 61.8263 17.2314 62.1628 16.9079 62.303C16.5845 62.4433 16.0891 62.1 15.8518 61.6789C15.6146 61.2578 15.1343 60.2081 14.9385 60.2436C14.7427 60.2791 14.8168 61.0509 15.131 61.8431C15.4451 62.6352 16.2511 64.7625 16.305 65.4258C16.359 66.089 15.5795 66.1513 15.0492 64.5334C14.5188 62.9156 13.9818 61.3477 13.7706 61.3871C13.5594 61.4264 13.6527 62.1291 13.7711 63.1489C13.8895 64.1688 14.2932 65.9836 14.1973 66.4661C14.1015 66.9486 13.251 66.9907 13.0662 65.4229C12.8815 63.8552 12.4076 61.7135 12.3164 61.8586C12.2253 62.0037 12.5257 65.0402 12.5172 65.7313C12.5088 66.4224 11.6814 66.6846 11.5302 65.2062C11.3791 63.7278 11.2288 61.7045 11.104 61.6641C10.9792 61.6237 10.9121 61.987 10.9017 62.6781C10.8914 63.3692 10.8908 64.6505 10.7843 64.8936C10.6778 65.1368 10.1738 65.054 10.1457 64.161C10.1176 63.268 10.0488 60.9275 10.0535 60.6045C10.0582 60.2816 10.1163 58.735 10.1489 58.3602C10.1814 57.9853 10.4827 57.5144 10.426 57.2068L10.1683 55.7909L13.548 55.1719ZM2.35688 34.1531C2.35688 34.1531 -0.200898 22.2643 0.0171067 12.5322C0.235112 2.80018 2.56302 -0.317271 6.71772 0.027064C10.8724 0.3714 12.5793 4.24455 12.3957 9.95689C12.2121 15.6692 11.7177 32.3689 10.9628 34.6592C10.208 36.9495 3.69926 38.8749 2.35688 34.1531Z" fill="#FDB082"/>
<path d="M13.8416 56.7849C13.8416 56.7849 11.5388 36.9836 11.1769 33.5789C10.815 30.1743 2.29539 29.622 2.35716 34.1531C2.41893 38.6842 10.5416 57.8413 10.5416 57.8413L13.8416 56.7849Z" fill="#FDB082"/>
</svg>
