<svg width="97" height="73" viewBox="0 0 97 73" fill="none" xmlns="http://www.w3.org/2000/svg">
<path d="M6.71679 44.2385C13.0121 34.6903 12.2827 19.8545 11.1312 13.6302C34.0347 12.6035 81.4925 12.2056 88.0949 18.8278C88.0949 27.1055 96.1559 54.0563 96.9236 61.3715C97.6914 68.6867 92.5093 73.6919 88.0949 72.9218C83.6805 72.1518 16.6971 73.3069 6.71679 70.8043C-3.26354 68.3017 -1.15232 56.1739 6.71679 44.2385Z" fill="#DC7C23"/>
<path opacity="0.65" fill-rule="evenodd" clip-rule="evenodd" d="M56.605 72.55L56.5039 72.5372C56.5039 72.5372 83.6547 68.2656 86.6392 65.6463C89.7159 50.1471 87.9034 35.3836 80.6101 23.6408C50.5876 27.714 23.3394 21.802 11.6769 17.7812C11.5719 16.5863 11.4376 15.5014 11.29 14.5604L59.3145 13.5183C73.3196 14.2132 85.0509 15.7742 88.0953 18.8278C88.0953 23.6649 90.848 34.8786 93.2894 44.8243C95.0259 51.8984 96.605 58.331 96.9241 61.3715C97.6918 68.6867 92.5097 73.6918 88.0953 72.9218C86.5232 72.6476 77.0147 72.6175 64.9716 72.5794C62.2886 72.5709 59.4799 72.562 56.605 72.55Z" fill="#A65224"/>
<path d="M21.4951 0.347157C9.97936 -1.19289 5.37317 2.46908 5.37305 9.77993C5.37295 15.3628 13.7412 17.8264 28.7884 19.9825C47.5975 22.6776 86.7511 20.945 90.7817 19.9825C94.8122 19.02 98.2669 7.08462 92.3171 2.8495C86.3673 -1.38562 76.387 3.04201 59.3052 7.08462C42.2235 11.1272 35.8898 2.27221 21.4951 0.347157Z" fill="#E79152"/>
</svg>
