<svg width="84" height="120" viewBox="0 0 84 120" fill="none" xmlns="http://www.w3.org/2000/svg">
<path d="M13.6831 114.268C39.831 124.838 64.3099 117.884 73.2113 109.817L77.1056 80.6091L79.0528 66.0052L5.06287 68.2642C7.77622 83.1789 10.433 97.6107 13.6831 114.268Z" fill="#8EDEFF"/>
<path d="M73.2113 109.817L81 51.4015H2C5.89437 72.8205 9.23239 91.4578 13.6831 114.268C39.831 124.838 64.3098 117.884 73.2113 109.817Z" fill="#ED801C"/>
<path d="M17.0211 109.453C25.8186 113.572 48.4829 118.855 68.7606 107.035" stroke="#CFCFD1" stroke-width="3" stroke-linecap="round"/>
<path d="M9.78873 65.5018C21.6132 69.6207 52.076 74.9036 79.331 63.0842" stroke="#CFCFD1" stroke-width="3" stroke-linecap="round"/>
<path d="M81 51.4009C81 57.8533 63.3152 63.084 41.5 63.084C19.6847 63.084 2 57.8533 2 51.4009C2 44.9485 2.00014 46.3941 2.0001 43.3342C13.3315 43.3342 71.8204 43.3344 81 43.3347C81 47.7854 81 48.3 81 51.4009Z" fill="#C24A24"/>
<ellipse cx="41.5" cy="43.6124" rx="39.5" ry="11.6831" fill="#ED801C"/>
<ellipse cx="41.5" cy="43.6128" rx="33.3803" ry="7.78873" fill="#414042"/>
<path fill-rule="evenodd" clip-rule="evenodd" d="M69.9117 47.7033C64.03 49.9228 53.5051 51.4015 41.5 51.4015C29.1119 51.4015 18.2999 49.8269 12.5397 47.4886C24.0654 43.984 49.7861 39.6314 69.9117 47.7033Z" fill="#8EDEFF"/>
<path d="M3.11269 43.3465C4.22536 30.1799 13.6275 3.67964 42.3345 3.01203C71.0415 2.34443 80.0728 29.6235 81 43.3465" stroke="#414042" stroke-width="6" stroke-linecap="round"/>
</svg>
