<?xml version="1.0" encoding="UTF-8"?>
<svg width="142" height="128" fill="none" viewBox="0 0 142 128" xmlns="http://www.w3.org/2000/svg">
 <g clip-path="url(#clip0_54_10912)">
  <path d="m0 11.704c0-6.2854 5.0953-11.381 11.381-11.381h130.62v127.46h-130.62c-6.2854 0-11.381-5.095-11.381-11.38v-104.7z" fill="#FFE6B5"/>
  <path d="m30.91 36.754c-32.73-11.105-87.998-1.9971-110.26 3.8241l-6.6285 85.854 169.54 8.668 89.358-20.523-8.923-50.799c-30.338-15.934-90.25-12.492-133.08-27.024z" fill="#D7A87B"/>
  <path d="m110.01 114.72c6.372 1.064 12.488 1.957 18.201 2.593 0.562-0.347 1.13-0.683 1.688-1.037-5.828-0.61-12.103-1.504-18.666-2.587 3.25-2.614 7.584-5.316 9.742-8.619 3.206 0.443 6.324 0.83 9.315 1.136 3.931 0.404 8.074 0.762 12.328 1.085 0.464-0.365 0.904-0.76 1.363-1.13-4.691-0.348-9.256-0.736-13.565-1.177-2.828-0.29-5.767-0.65-8.789-1.064 0.107-0.229 0.207-0.46 0.29-0.696 2.356-6.6022-59.236-16.237-60.257-10.762-1.7463-0.378-3.4905-0.7567-5.2303-1.1347-12.009-2.6122-24.258-5.2721-36.079-7.6065-1.1647-2.4809-4.1998-5.6205-7.5352-6.6889-0.259-0.083-0.5195-0.1544-0.7815-0.2106-0.3038-0.0664-0.6098-0.1104-0.9157-0.1364-0.1905-0.0166-0.381-0.0353-0.5716-0.0353-0.0786 0-0.1551 0.0014-0.2338 0.0014-0.171 7e-4 -0.34201 0.0015-0.51087 0.0043-0.27566 0.0044-0.54699 0.0116-0.81472 0.0224-0.45606 0.0173-0.8977 0.0469-1.3292 0.0858-0.29515 0.0267-0.58595 0.0578-0.86811 0.0967-2.618 0.3586-4.6263 1.2668-5.4346 3.3711-1.4028-0.2337-2.7963-0.4609-4.1717-0.6774-22.37-3.5204-45.897 1.3599-63.276 6.9133 0.2901 0.3412 0.5773 0.6846 0.8696 1.0222 17.175-5.417 40.304-10.149 62.214-6.7221 18.27 2.8748 39.069 7.3916 59.179 11.764 2.0819 0.4516 4.1703 0.9046 6.2601 1.3577 1.4483 1.3425 4.9821 3.1771 11.254 5.6003 8.4076 3.2476-73.705-13.574-73.705-13.574-11.074-0.58-12.561 1.2834-10.991 4.0824-16.425-1.1658-32.984 1.6203-46.872 5.3875 0.3399 0.3405 0.6632 0.6961 1.006 1.033 13.914-3.7073 30.46-6.4161 46.739-5.1241 2.6317 3.4353 7.9321 7.7789 6.5242 10.866-15.107-2.24-30.701-0.705-44.547 2.235 0.4228 0.356 0.8695 0.685 1.2967 1.036 13.259-2.731 28.039-4.15 42.357-2.156-1.26 1.051-3.6817 1.875-7.8152 2.348-4.7663 0.545-11.954-1.028-14.68 8.075-1.2289 4.104 3.4479 3.701 9.2166 3.136l0.2757-1.271s15.905-16.017 30.095-9.179c14.19 6.839 20.407 13.314 30.108 10.314 7.2719-2.25 13.422 0.16 16.046 1.507h5.3133c1.8856-1.6 6.6786-2.739 12.311-2.739s10.425 1.139 12.312 2.739h18.669c0.401-1.187 1.382-2.335 2.667-3.485z" fill="#B38B66"/>
  <path d="m198.07 108.69h-117.23-23.624-5.0978c-2.518-1.288-8.4182-3.59-15.395-1.441-9.3072 2.867-15.272-3.32-28.886-9.8563-13.615-6.5349-28.874 8.7723-28.874 8.7723l-0.2645 1.214-0.2852 1.311h-73.624c-5.4662 0-9.8982 4.412-9.8982 9.856 0 5.443 4.432 9.856 9.8982 9.856h293.28c5.466 0 9.897-4.413 9.897-9.856 0-5.444-4.431-9.856-9.897-9.856z" fill="#395036"/>
  <path d="m9.2714 61.781c-3.0378 0.213-6.0489 0.4603-9.0722 0.7287-5.0547 0.4593-6.3778 0.3569-9.933-0.8712-0.28521-0.098-0.55031-0.1977-0.84261-0.294-2.0936-0.6862-3.8921-0.8451-7.1622-0.5681-1.4822 0.1258-2.918 0.2858-4.3227 0.4596-3.7455 0.4641-7.7251 0.7485-12.026 0.7757-1.4065 0.0088-2.51 0.1262-3.5719 0.3334-1.2938 0.2524-2.5438 0.5242-3.8958 0.7672-0.9307 0.167-1.9701 0.3276-3.028 0.4266-2.1509 0.2-4.1416 0.2439-5.4163-0.1946-0.2334-0.081-0.6347-0.1293-1.0693-0.2133-2.0104 0.2177-3.7357 0.5913-5.5265 0.9338-1.608 0.3076-3.2322 0.4954-5.0384 0.5692-2.0188 0.082-4.1001 0.2667-6.0809 0.3477-2.4136 0.098-4.3197 0.4913-6.1318 1.0081-1.6341 0.4667-3.1915 0.959-4.8594 1.4343-1.3989 0.3994-2.8405 0.8168-4.3954 1.1632-2.7862 0.6219-4.4228 0.6814-6.2321 0.3014-0.337-0.0701-0.7231-0.1266-1.0077-0.1732-2.032 0.3065-2.7982 0.7842-3.7964 1.2258-0.4903 0.2181-1.0505 0.4593-1.7052 0.6307-0.4404 0.114-1.2587 0.1878-1.6246 0.1599-0.3495-0.0268-0.6307-0.2054-0.4305-0.3286 1.6366-1.0118 4.1006-1.9072 7.427-2.588 1.3049-0.2667 2.4539-0.3239 3.2411-0.148 0.6816 0.1511 1.3298 0.3147 2.0151 0.4807 1.7779-0.2939 3.0714-0.6538 4.3449-1.0277 2.2977-0.6743 4.6602-1.3143 6.9598-1.9532 1.8645-0.5167 3.7945-0.8988 6.1711-1.0056 1.8506-0.0841 3.81-0.2685 5.6193-0.293 1.85-0.0238 3.4043-0.2099 5.0024-0.5215 1.8142-0.3545 3.618-0.709 5.5167-1.0063 2.4323-0.38 3.0997-0.3396 4.6793 0.1313 1.0289 0.3082 2.0717 0.3596 3.5016 0.1048 1.4967-0.2678 2.9057-0.5661 4.2457-0.8676 1.8063-0.4058 3.667-0.6623 6.1813-0.5633 2.4453 0.0969 4.7588-0.0637 7.0131-0.3355 2.8651-0.3453 5.8213-0.6335 8.8206-0.8679 3.555-0.2769 6.1727-0.0605 8.7212 0.6723 1.2787 0.3691 2.3809 0.7689 3.696 1.2064 3.3772-0.0902 6.0713-0.4171 8.9472-0.642 1.3908-0.1075 2.733-0.2351 4.1878-0.2994 1.5685-0.0701 3.1629 0.0402 4.5118 0.4538 0.3403 0.1045 0.6963 0.2086 1.0859 0.3042 1.3043 0.3195 2.6908 0.4715 4.1117 0.4011 2.5106-0.1235 5.0104-0.2341 7.5266-0.3195 1.1185-0.0384 2.2408-0.0707 3.3624-0.1007 1.8866-0.0496 3.7612 0.2018 5.582 0.6611 0.6985 0.1755 1.4354 0.3602 1.9729 0.5576 1.9451 0.713 3.9368 0.9087 6.0852 0.8651 1.0717-0.0207 2.2176-0.0061 3.3347 0.0021 1.117 0.0064 2.1875-0.0126 3.3701 0.0438 3.1013 0.1504 6.1133 0.0749 9.5995 0.808 3.1382 0.659 6.529 1.199 9.4085 2.1485 2.396 0.7903 4.6381 0.9737 6.8801 1.1825 2.9134 0.2726 5.8884 0.6117 8.8265 0.9584 2.359 0.2783 4.4009 0.8829 6.2641 1.667 0.1232 0.0507 0.271 0.1055 0.3696 0.1559 2.5654 1.3173 5.5989 1.9783 9.082 2.59 5.1214 0.8998 10.304 1.9409 15.528 3.1843 3.375 0.8036 6.649 1.8579 9.682 3.3865 3.674 1.8507 8.22 3.3796 12.747 4.701 3.289 0.9577 6.554 1.9379 9.809 2.969 3.006 0.9523 6.012 2.0872 8.925 3.4225 3.243 1.4861 6.384 2.8701 9.498 3.7638 0.12 0.034 0.299 0.1082 0.428 0.1738 0.265 0.1334 0.702 0.3419 0.736 0.3984 0.077 0.1296 0.105 0.298-0.111 0.2531-2.772-0.5746-6.005-1.5853-9.442-3.2503-4.915-2.3808-9.692-4.0043-14.503-5.309-4.558-1.2353-9.177-2.7207-13.951-4.483-2.581-0.9536-5.312-1.9204-7.129-2.9523-1.62-0.9209-3.474-1.4803-5.516-2.0331-0.77-0.2079-1.528-0.3603-2.282-0.5246-4.98-1.0808-10.006-2.1035-14.98-2.9782-3.8188-0.6712-7.1726-1.5854-10.246-2.8948-0.7176-0.3066-1.5275-0.6066-2.4176-0.955-2.7132-0.5127-5.2232-0.8226-7.6223-1.0196-0.8438-0.0687-1.6907-0.1371-2.4976-0.182-3.092-0.1732-6.1317-0.6968-9.5594-1.7256-6.4089-1.9194-12.581-2.6567-18.34-2.5893-1.7265 0.0194-3.5245 0.0177-5.3224 0.0221-2.9189 0.0071-5.743-0.2902-8.5049-1.1785-0.9467-0.3041-2.0989-0.5804-3.3243-0.9087-1.1771 0.0024-2.3489-0.0078-3.4379 0.0231-2.7939 0.0814-5.6281 0.1695-8.2721 0.3562-2.6325 0.1855-5.1314-0.0561-7.7556-0.5892-0.8426-0.1715-1.6486-0.3525-2.6356-0.5583z" fill="#B38B66"/>
  <path d="m-93.885 80.869c0.9825-1.1917 3.906-2.3088 7.4641-3.3215 1.3038-0.3713 2.7516-0.5343 3.9926-0.4644 1.2455 0.0692 2.4383 0.1674 3.634 0.268 1.5021 0.1255 3.1508-0.0034 4.7523-0.4668 2.4083-0.6963 4.8514-1.3766 7.0646-2.0719 2.7265-0.8579 5.744-1.6094 9.0889-2.2385 3.1511-0.5889 4.5913-0.5807 6.6866-0.0876 0.2965 0.0695 0.5387 0.1541 0.7998 0.2322 1.4246 0.431 3.4858 0.448 5.9091 0.1718 2.0169-0.2291 3.9929-0.4828 5.9687-0.7235 1.0631-0.13 2.2008-0.2534 3.0835-0.4338 3.7287-0.7634 7.9935-0.7576 12.231-0.6373 1.4026 0.0392 2.8103 0.2012 4.0299 0.3782 2.8049 0.4081 5.5846 0.4156 8.4392 0.1596 3.6975-0.3318 7.5482-0.5644 11.068-0.8924 5.0363-0.4702 9.7347-0.1258 14.414 0.8947 0.5435 0.1208 1.1265 0.2292 1.6933 0.3448 2.1447 0.1589 3.8122 0.0535 5.4338-0.072 3.3666-0.2564 6.7092-0.4954 10.141-0.6669 1.3666-0.0672 2.833-0.0979 4.3459-0.0832 2.3181 0.0211 4.6403 0.3239 6.4972 0.9476 1.5062 0.506 3.2888 0.8514 5.2476 1.2265 2.6053 0.4992 4.8326 0.701 7.1613 0.7744 4.721 0.1486 9.5345 0.4143 14.329 0.7358 2.2633 0.1514 4.5999 0.3782 7.1373 0.8559 2.3111 0.434 4.2461 0.9459 4.8804 1.6452 0.1021 0.1146 0.5643 0.2766 0.8289 0.4027 1.868 0.4515 3.2674 0.5006 4.7337 0.6626 4.0739 0.4501 9.6333 3.4417 14.061 5.0346 0.899 0.1193 1.839 0.7774 2.792 0.9564 2.573 0.4873 3.788 0.9255 5.117 1.7905 0.079 0.0508 0.079 0.0928 0.156 0.1422 1.214 0.7949 1.839 0.9848 4.307 1.3964 2.706 0.4535 5.428 0.9472 8.157 1.4781 3.449 0.6714 6.901 1.6061 10.261 2.9502 0.851 0.3417 1.868 0.7082 2.468 1.0397 1.23 0.6772 2.706 1.1846 4.303 1.6606 3.465 1.0335 6.697 1.931 9.863 2.5693 7.858 1.6405 6.095 1.1753 14.236 4.8218 1.419 0.647 2.844 1.359 3.982 2.031 1.539 0.904 2.987 1.768 5.036 2.647 0.775 0.334 1.4 0.775 1.014 0.824-0.274 0.035-1.046-0.117-1.642-0.336-0.835-0.307-1.81-0.743-2.563-1.138-1.179-0.614-2.282-1.244-3.321-1.854-1.54-0.903-3.331-1.756-5.187-2.608-3.344-1.535-6.448-2.5939-9.592-3.1272-3.952-0.6728-8.664-2.0807-13.362-3.4184-2.069-0.5899-4.039-1.278-5.41-2.1424-1.361-0.8596-3.497-1.5354-5.569-2.0022-3.398-0.7655-6.739-1.4151-10.102-2.051-0.762-0.1439-1.45-0.2142-2.206-0.3482-2.904-0.5149-5.358-1.2824-7.284-2.303-0.682-0.3607-1.256-0.7147-2.046-1.1614-4.9413-0.701-11.652-5.4018-16.424-5.9263-1.6481-0.18-3.1973-0.285-4.8485-0.4518-2.6363-0.2666-4.3385-0.7559-5.3937-1.5556-0.2901-0.2185-0.4909-0.4279-0.6598-0.5766-1.7501-0.5639-3.2069-0.7003-4.5298-0.8016-3.9049-0.2973-7.7526-0.5139-11.6-0.6902-0.7364-0.0347-1.425-0.0395-2.1358-0.0528-6.6257-0.1299-12.882-1.1471-19.025-2.7879-0.2713-0.0723-0.5601-0.1425-0.8524-0.209-0.1441-0.0324-0.3166-0.058-0.7903-0.1415-3.3264-0.1675-6.304-0.0215-9.1519 0.2083-2.3309 0.1879-4.6818 0.384-7.0216 0.5971-2.9375 0.269-5.9264 0.1456-9.0608-0.5824-0.5235-0.1204-1.1521-0.2176-1.6876-0.3359-3.0555-0.67-6.0385-0.7774-9.2585-0.5169-3.8772 0.3144-7.9206 0.5987-11.881 0.9605-3.8096 0.3492-7.4041 0.2899-11.208-0.2032-3.8562-0.5006-8.0819-0.4992-12.203 0.0658-1.6085 0.2203-3.2766 0.4235-4.8195 0.6816-3.1032 0.517-6.4695 0.6837-9.8759 0.8801-1.9439 0.1122-3.4118 0.012-4.5945-0.2482-0.4061-0.0887-0.7-0.206-1.1103-0.2936-1.509-0.3212-2.5074-0.3226-4.581 0.1459-2.5601 0.5804-4.9633 1.2255-7.3334 1.8884-1.6197 0.4538-3.087 0.9452-4.6394 1.4277-0.5952 0.1848-1.2534 0.3631-1.9117 0.5367-2.9879 0.7921-5.8651 1.1709-8.6416 0.9213-0.3507-0.0303-0.7361-0.0497-1.1122-0.0685-2.8604-0.1527-4.8479 0.1821-7.1198 1.218-0.7759 0.3533-1.3554 0.7202-2.1352 1.0779-0.8211 0.3764-1.7988 0.5472-2.919 0.4405z" fill="#B38B66"/>
  <path d="m124.79 67.522c-1.207-0.2854-2.394-0.5582-3.584-0.8293-0.894-0.2029-1.797-0.3606-2.689-0.6117-5.883-1.6571-11.715-2.9528-17.572-4.1043-2.7331-0.5382-5.2953-1.268-7.2464-2.2139-0.4044-0.1968-0.8914-0.3929-1.2191-0.5364-1.8124-0.4825-2.8603-0.4377-4.0351-0.5205-1.957-0.1364-4.0204-0.4234-6.308-0.873-2.1342-0.42-4.1207-0.8787-5.6822-1.5166-2.3585-0.9622-4.9649-1.3547-7.9581-1.6761-4.8439-0.5187-9.3164-0.6874-13.74-0.8146-6.4107-0.1812-12.854-0.8133-19.58-1.7137-3.0654-0.4095-5.5319-2.5932-8.0037-2.3153-1.7968 0.2019-4.1063 0.2453-6.2163 0.3627-1.5895 0.0892-3.2454 0.0566-5.0767-0.1452-1.8195-0.1999-2.4034-0.5599-3.2154-0.9059-0.1541-0.0655-0.452-0.1178-0.9018-0.2318-0.7353 0.0184-1.6052 0.0506-2.4908 0.0713-1.2138 0.0285-2.4597 0.1303-3.6484 0.0733-3.0896-0.1469-5.5467 0.077-7.9527 0.4285-1.1444 0.1662-2.499 0.2911-3.8429 0.3712-1.5252 0.0909-3.1643 0.0963-4.618-0.094-1.8892-0.2477-3.6272-0.1462-5.3395 0.136-0.261 0.0431-0.5954 0.0611-0.8676 0.1015-3.381 0.5042-6.7903 0.7145-10.339 0.4149-0.4074-0.0332-0.8936-0.0295-1.7038-0.0509-2.3355 0.4316-4.8805 0.9185-7.3739 1.4444-2.3467 0.4933-4.8371 0.8312-7.5445 0.8981-1.3298 0.0332-2.6242 0.019-3.8884 0.0058-0.8416-0.0102-1.6055-0.0682-2.3172-0.0995-2.6663 0.3468-4.8099 2.8935-6.7847 3.4818-1.4641 0.4367-2.8771 0.892-4.371 1.3365-0.9892 0.2945-2.0512 0.5842-3.1505 0.8499-2.4222 0.588-3.8872 0.6996-5.5505 0.4217-0.7595-0.1269-1.4092-0.2897-2.1661-0.4143-0.6284-0.1034-1.5514-0.0356-2.4384 0.1999-1.2292 0.3277-2.4598 0.6823-3.5103 1.0653-1.5417 0.5595-2.9161 1.157-4.3578 1.7508-0.7276 0.3006-1.55 0.4858-2.473 0.5723-0.8979 0.0845-1.3248-0.1269-0.7539-0.4224 0.3672-0.1893 0.7589-0.3851 1.2247-0.5629 2.1327-0.8142 4.2754-1.6116 6.5214-2.3685 0.8549-0.2871 1.9211-0.531 2.9132-0.777 2.135-0.5306 3.8606-0.5992 5.2285-0.3742 0.6686 0.1109 1.1866 0.2755 1.8404 0.3925 1.0981 0.1992 1.9276 0.1317 3.5283-0.304 1.0529-0.285 2.0143-0.5971 3.0185-0.8903 2.3889-0.6975 4.745-1.388 7.2311-2.0211 2.7262-0.6938 5.4856-3.0173 8.198-2.738 2.6439 0.2694 5.4785 0.0193 8.2762-0.55 2.0161-0.4112 4.0399-0.815 5.9228-1.2398 1.9945-0.4509 4.0824-0.6409 6.0996-0.383 2.1501 0.2761 4.1812 0.077 6.2971-0.1246 0.7415-0.0698 1.4115-0.1913 2.1141-0.2883 4.7116-0.6287 4.7515-0.6308 9.9077-0.0638 1.8945-0.0876 3.5478-0.3573 5.3283-0.5629 2.3411-0.2711 4.696-0.5351 7.6404-0.3084 1.5143 0.1174 2.7346-0.0604 4.0118-0.1581 1.2767-0.0964 2.5512-0.1938 3.8837-0.2484 0.8395-0.0353 2.0963 0.1812 2.3537 0.3926 0.3545 0.2904 0.5644 0.5856 0.7994 0.838 1.8074 0.3651 3.3169 0.3441 4.7264 0.2484 2.4798-0.169 4.9962-0.3074 7.34-0.4937 1.7533-0.1398 3.512 1.9811 5.4354 2.3109 4.6261 0.7939 9.2235 1.1529 13.687 1.3843 4.2633 0.2209 8.361 0.3505 12.572 0.6311 3.6139 0.2405 7.2594 0.5428 10.937 0.9235 0.8324 0.0858 1.9305 0.3108 2.754 0.5323 1.4612 0.3946 2.9931 0.8238 4.1502 1.2741 3.1024 1.2038 6.0926 1.6007 9.1565 1.8219 1.0952 0.0787 2.0811 0.0974 3.1762 0.1836 1.6559 0.1316 2.8898 0.4302 4.3007 1.0453 0.6849 0.2993 1.2811 0.6057 1.8065 0.9042 1.042 0.5884 2.512 0.9799 4.1498 1.307 2.158 0.4309 4.295 0.8292 6.456 1.3228 2.781 0.6348 5.585 1.3843 8.345 2.0649 2.14 0.5287 4.25 0.9935 6.358 1.4949 1.057 0.2511 2.081 0.451 3.138 0.7254 1.67 0.4309 3.096 1.0077 3.934 1.6086 1.789 1.2828 4.585 2.1714 7.554 3.0224 1.795 0.5126 3.563 0.992 5.334 1.4955 3.138 0.8931 6.255 1.9669 9.351 3.2531 1.157 0.4794 2.344 0.9697 3.516 1.4084 2.689 1.0084 4.714 2.1643 6.765 3.3169 0.364 0.2036 0.597 0.5082 0.496 0.5903-0.174 0.1436-0.971-0.1004-1.729-0.4285-0.697-0.3013-1.4-0.6375-2.034-0.9639-4.962-2.5552-10.29-4.6611-15.922-6.2894-1.916-0.5547-3.849-1.1077-5.747-1.6004-3.888-1.007-7.161-2.2454-9.948-3.7722-0.313-0.1723-0.673-0.3481-1.021-0.5201-0.115-0.0567-0.272-0.113-0.865-0.3579z" fill="#B38B66"/>
  <path d="m62.77 106.06c-0.457 0.019-7.6272-0.912-3.356 3.194 4.2713 4.105 15.102 4.409 17.848 1.065 2.7454-3.347-2.899-4.714-14.492-4.259z" fill="#B38B66"/>
  <path d="m94.411 78.509c-0.3855 0.0157-6.4331-0.7716-2.8306 2.7024 3.6025 3.4737 12.738 3.7307 15.054 0.9008 2.316-2.8315-2.445-3.9887-12.223-3.6032z" fill="#B38B66"/>
  <path d="m7.1432 77.376s-3.8002-6.6585-3.635-11.92c0.16518-5.2611 4.6263 0 4.6263 0s-0.16521-12.166 3.3044-12.002c3.4697 0.1644 2.8088 14.468 2.8088 14.468s0.8261-3.372 3.1393-2.5081-2.3132 11.962-2.3132 11.962h-7.9306z" fill="#4B764A"/>
  <path d="m14.62 75.036c-5.3285-2.5987-9.9313 0.5128-10.676 5.6404 0 0 2.6017 1.5851 6.995 1.5851 4.3933 0 7.0969-0.6738 7.0969-0.6738 0-1.5163 0-4.8858-3.4158-6.5517z" fill="#FC7812"/>
  <path d="m82.791 90.564c0.0168 0.1229 0.0321 0.2703 0.0474 0.4174 6.1767-1.6414 12.19 1.2233 13.72 1.9881v-0.3824c-1.2747-0.6373-7.6405-3.6431-13.767-2.0231z" fill="#fff"/>
  <path d="m82.791 89.108c0 0.1639-0.0153 0.2829 0 0.43 6.1767-1.6414 12.365 1.391 13.894 2.1558v-0.5099c-1.2747-0.6373-7.7679-3.6959-13.894-2.0759z" fill="#fff"/>
  <path d="m63.705 76.507c-0.3467 0.3231-0.5445 0.6721-0.5445 1.038 0 1.6194 3.71 2.9322 8.2859 2.9322 4.5763 0 8.2854-1.3128 8.2854-2.9322 0-0.3659-0.1978-0.7149-0.5441-1.038-1.1857-1.1063-4.2001-1.8936-7.7413-1.8936-3.5417 0-6.5562 0.7873-7.7414 1.8936z" fill="#B38B66"/>
  <g opacity=".4">
   <path d="m94.823 46.038c-0.9581-1.3532-2.1502-2.7671-2.8535-3.5486-1.1898-1.3172-2.8554-4.9204-1e-4 -8.7955 1.0301 2.4169 2.9321 8.0404 2.8536 12.344z" clip-rule="evenodd" fill="#CE502C" fill-rule="evenodd" opacity=".3"/>
   <path d="m110.58 60.209c7.955 0.102 12.918-6.5011 14.405-9.8153l-12.11-7.011c-3.654 3.5267-9.229 11.829-2.295 16.826z" fill="#BEB2AE"/>
   <path d="m96.558 68.622c-3.8242-1.402-8.2857-5.0987-8.923-12.11 12.492-1.2746 12.365 7.6485 8.923 12.11z" fill="#BEB2AE"/>
   <path d="m86.233 59.699 2.0396-2.8044 3.4417-0.255 4.9714 8.5407c-0.2974 0.3824-1.5552 1.6061-4.2066 3.4417-3.3142 2.2945-10.453 4.4615-16.189 6.2461-3.0648 0.9535-7.011 4.844-8.1582 5.4813-2.6514-1.2237-5.6512-6.3736-6.3736-7.5208-0.4798-0.5065 2.2946-2.0396 3.4635-2.5495-1.6333-1.9116-2.7403-3.6491-1.9338-3.9516 1.0198-0.3824 5.7362 5.4813 8.5406 3.9516 3.0593-2.2435 10.623-8.7955 14.404-10.58z" fill="#F9B691"/>
   <path d="m86.36 59.826c0.7648 0.2549 1.5296 1.2744 1.7846 1.7846" stroke="#CE502C" stroke-linecap="round" stroke-linejoin="round" stroke-width=".38242"/>
   <path d="m66.602 71.809c-0.8967-0.9466-1.7546-1.9321-2.406-2.8044" stroke="#CE502C" stroke-linecap="round" stroke-linejoin="round" stroke-width=".38242"/>
   <path d="m87.635 56.512c1.1217-4.385 4.7589-8.6681 7.0109-10.708l10.325 8.1582c-1.105 3.6117-4.334 11.6-8.4132 14.659 0-4.2066-3.0593-8.2857-8.923-12.11z" fill="#fff"/>
   <path d="m101.08 62.973c-1.3036 2.2863-2.8417 4.387-4.5244 5.649 0-0.0748-9e-4 -0.1496-0.0029-0.2243 0.119-1.2221-0.0021-3.5434-1.3992-7.4241-0.3656-1.0156-0.717-1.9031-1.0452-2.7321-1.042-2.6317-1.8508-4.6743-2.1415-8.3579 5.9416 0.2582 8.6732 11.146 9.1132 13.089z" clip-rule="evenodd" fill="#D9D9D9" fill-rule="evenodd"/>
   <path d="m96.176 48.354c-0.6118-1.6316-3.0593-4.589-4.2065-5.8637-1.1898-1.3172-2.8554-4.9204 0-8.7956 2.8553 2.3455 7.6483 4.7165 9.6878 5.6088 0 2.2945-2.6769 6.8835-5.4813 9.0505z" fill="#F9B691"/>
   <path d="m89.292 45.422c-1.8356-0.3059-5.2688-4.3765-6.756-6.3735 1.7846-2.8894 5.6343-8.6681 6.756-8.6681 1.1218 0 2.337 1.9545 2.8044 2.9318 0.6374 1.6147 1.7591 5.4048 1.1473 7.6483-0.7649 2.8044-1.6572 4.844-3.9517 4.4615z" fill="#F9B691"/>
   <path d="m83.3 42.745c-0.2039-0.5099-0.6798-2.8469-0.8923-3.9516l4.589-8.1582c0.3399 0.1699 0.9943 0.9178 0.8923 2.5494s-2.252 6.0337-3.3143 8.0307l0.6374 1.0198c-0.6799 0.3824-1.7081 1.0198-1.9121 0.5099z" fill="#EC9773"/>
   <path d="m88.145 38.666c0-1.9376-1.7846-3.8667-2.6769-4.589l1.9121-2.167c0.3399 1.7421 0.6374 3.5692 2.6769 4.0791 1.2238-0.8159 2.252-0.7224 2.6769-0.6374-1.2747 0.1275-1.1472 0.5099-1.7846 0.8923 0.8158 0.3059 1.6996-0.1275 2.0396-0.3824 1.2747 3.8241 0.2549 7.5208-0.7649 9.4329-0.7134 1.3377-1.7421 1.8696-2.2945 1.9121-0.4249-0.5949-1.3257-1.8611-1.5296-2.167 0 0.8923 1.1472 1.7846 1.1472 2.167-1.4277-1.3257-2.4644-2.6769-2.8043-3.1868l1.4021-1.4022c0.5099-0.5099-0.2549-1.4022-0.5098-0.5099-0.204 0.7138-1.0198 1.3172-1.4022 1.5297l-1.0198-1.2748c0.085-0.1274 0.4079-0.5353 1.0198-1.1472 0.7648-0.7648 1.912-0.1275 1.912-2.5494z" fill="#551815"/>
   <path d="m87.126 77.035c2.8553-2.7534 16.528-6.0762 23.072-6.756l6.756 0.8923-2.932 13.13-17.719 4.2066v2.2945l-12.365-2.9319c-0.17-2.8893 0.3314-8.0817 3.1868-10.835z" fill="#425A3F"/>
   <path d="m132.38 74.613c-0.204-3.3652-2.635-7.2659-3.825-8.7955l-15.424 7.5208c-2.337 10.538-7.266 32.734-8.285 37.221-1.275 5.609 1.147 7.776 6.118 7.521 3.977-0.204 9.731-0.764 12.11-1.019-0.255-2.847-0.994-9.765-1.912-14.66 6.629-10.962 11.472-23.582 11.218-27.789z" fill="#425A3F"/>
   <path d="m76.545 39.304c0-2.0395 1.6147-3.3992 2.422-3.8241l2.9318 1.6571c-0.5098 1.4022-1.9375 4.7419-3.5692 6.8835-1.1472-0.8923-1.7846-2.167-1.7846-4.7165z" fill="#F2AD56"/>
   <path d="m76.928 33.057c0.2039 1.4277 2.3794 4.2491 3.4417 5.4813l9.0505-13.257c-0.8073-0.7648-3.4418-1.9839-5.3538-1.4022-2.9319 0.8923-7.3934 7.3934-7.1384 9.178z" fill="#F2BC62"/>
   <path d="m81.899 32.165c-0.4677 4.0534-2.5069 9.6028-3.6967 11.855 1.8696-2.0821 4.4624-3.8112 7.6484-8.4131 2.2945-3.3143 4.7589-4.8865 5.9911-5.6088 0.085 0.2549 0.5099 0.9688 1.5297 1.7846 2.5494-1.5297 5.4813-6.6286 1.0198-8.0308s-11.727 1.7847-12.492 8.4132z" fill="#DC9742"/>
   <path d="m106.5 71.044c-10.452-7.1385-14.574-16.231-14.404-21.288l6.756-4.844 4.4611-5.8637 13.64 2.9319 12.11 23.837c-4.462 2.6769-7.394 3.9517-15.934 7.7758-0.765 0-2.55-0.8923-6.629-2.5494z" fill="#fff"/>
   <path d="m119.24 46.486 9.821 19.331c-3.034 1.8204-5.361 2.9924-9.225 4.7586-0.422-1.9147-2.561-5.1956-9.004-8.5825-7.954-4.181-8.413-11.345-7.648-14.404l16.056-1.1031z" clip-rule="evenodd" fill="#D9D9D9" fill-rule="evenodd"/>
   <path d="m124.35 58.297c-1.224-3.4673-2.974-6.2887-3.697-7.2659l-7.393 1.2747-2.677 7.6483 4.462 4.589c1.657 3.1868 3.696 12.365 5.863 16.826 3.124 6.4313 5.864 11.09 7.776 11.09 0.714 0 0.977-0.3399 1.02-0.5099 0.68 0.5524 1.784 0.1275 2.039-0.6373 1.02 0.3824 1.658-0.4249 1.53-0.7649 0.51 0 0.678-0.0672 0.892-0.2549 1.02-0.8923 0.754-2.6051 0-3.9516-0.517-0.9235-1.402-1.4022-2.039-1.7846-0.383-1.1473-2.805-2.5495-3.314-4.844-0.255-4.4615-2.932-17.081-4.462-21.415z" fill="#F9B691"/>
   <path d="m115.04 64.543c0.584-0.4249 2.091-1.4022 2.932-1.4022" stroke="#CE502C" stroke-linecap="round" stroke-linejoin="round" stroke-width=".38242"/>
   <path d="m132.25 86.34c0.254-0.1545 0.128-1.4022-0.255-1.9121" stroke="#CE502C" stroke-linecap="round" stroke-linejoin="round" stroke-width=".38242"/>
   <path d="m89.165 87.743c-2.6607-0.3193-5.6655-0.2896-6.4121-1e-4 0 0.91 0.1223 4.8834 0.4209 7.2658 0.3733 2.9779 0.9479 8.7557 1.0723 10.617s-0.9368 3.477-3.1118 3.788c-3.9817 0-9.0505 0.765-6.9669 6.387 4.7283 0.496 12.443-0.745 15.056-1.489 2.0904-0.596 5.1419-0.754 6.4063-0.759 0.9295-2.167 0.7925-3.881-0.0605-6.19-0.1991-2.382 0.7466-12.49 1.2443-17.247-1.5297-0.9704-4.4615-1.99-7.6483-2.3725z" fill="#F2BC62"/>
   <path d="m95.298 117.09 0.4954-3.687c-1.5273-0.317-5.5228-0.642-8.2966 0.595s-10.454 1.146-13.756 1.027c0 0 0.3824 1.946 1.1254 2.422 4.0864 0 20.432-0.357 20.432-0.357z" fill="#395036"/>
   <path d="m102.29 39.431c-1.275 1.9123-1.02 4.3578-0.51 6.2464 2.167 8.031 5.736 12.288 8.795 14.532 2.55-7.0365 10.666-9.4756 14.405-9.8156-8.668-12.11-15.424-16.316-22.69-10.963z" fill="#fff"/>
   <path d="m93.693 96.073c0.7474-0.0499 1.3031-0.8411 1.2415-1.7681-0.0616-0.9266-0.7175-1.6377-1.4649-1.5878s-1.3028 0.8411-1.2412 1.7681 0.7171 1.6377 1.4646 1.5878z" fill="#fff"/>
   <path d="m119.87 111.69c-0.242-3.454 0.336-8.279 1.406-9.511 4.38 7e-3 13.42 0.033 14.541 0.079 1.401 0.056 3.485-1.007 5.702-2.193 1.272-0.6808 4.121-0.9392 5.518-0.7975 0.872 1.5665 2.957 5.7335 4.321 9.8705 1.363 4.138-0.943 7.532-2.267 8.711-1.427 0.58-3.108 1.15-6.664 0.751-2.252-1.112-2.047-3.017-0.558-5.126-0.219-0.902-1.568-0.963-3.418-0.648-5.53 0.94-12.559 3.488-16.785 4.933-0.642 0.102-1.661-4.161-1.796-6.069z" fill="#F2BC62"/>
   <path d="m128.02 102.56c-0.98-9e-3 -1.78 0.623-1.788 1.413-8e-3 0.791 0.78 1.439 1.76 1.448 0.979 0.01 1.779-0.623 1.787-1.413s-0.78-1.438-1.759-1.448z" fill="#fff"/>
   <path d="m124.74 102.24-0.43 0.028h-9e-3c-0.267 1.195-1.637 7.811 0.129 14.461l0.415-0.082c-1.835-6.807-0.301-13.595-0.105-14.407z" fill="#fff"/>
   <path d="m122.91 102.19h-0.013-0.399c-0.428 1.972-1.555 8.405 0.241 15.106 0.13-0.019 0.286-0.036 0.441-0.052-1.82-6.755-0.631-13.397-0.27-15.054z" fill="#fff"/>
   <path d="m99.872 41.088c0.2454-0.7328 0.2554-1.2747 0.3824-2.4223 0.892 0 2.422-0.2546 4.079-0.5096 0 1.9121-1.487 5.7537-3.697 7.7758-1.2482 1.1426-2.0391 1.7846-3.9512 2.167-0.7718 0.1543-1.7846-0.2552-2.167-0.6374-0.3252-0.325-0.7649-0.8925-0.7649-0.8925l0.7649-0.7646s2.7268-0.8774 3.8241-2.167l0.0081-0.0096c0.5082-0.5971 1.1064-1.3001 1.5216-2.5398z" fill="#fff"/>
   <path d="m133.27 90.547c-0.51-0.5099-0.764-1.0198-1.402-2.0396" stroke="#CE502C" stroke-linecap="round" stroke-linejoin="round" stroke-width=".38242"/>
   <path d="m131.74 91.312c-0.51-0.3824-0.893-1.0198-1.275-1.6571" stroke="#CE502C" stroke-linecap="round" stroke-linejoin="round" stroke-width=".38242"/>
   <path d="m129.7 91.949c-0.51-0.3824-1.147-0.7648-1.147-1.6571" stroke="#CE502C" stroke-linecap="round" stroke-linejoin="round" stroke-width=".38242"/>
  </g>
  <path d="m35.263 60.664c-0.3855 0.0157-6.4331-0.7716-2.8306 2.7024 3.6026 3.4737 12.738 3.7307 15.054 0.9008 2.3155-2.8315-2.4451-3.9887-12.223-3.6032z" fill="#B38B66"/>
  <path d="m36.207 59.275s-3.8002-6.6585-3.6351-11.92c0.1652-5.2611 4.6263 0 4.6263 0s-0.1652-12.166 3.3045-12.002c3.4697 0.1644 2.8088 14.468 2.8088 14.468s0.8261-3.372 3.1393-2.5081-2.3133 11.962-2.3133 11.962h-7.9305z" fill="#4B764A"/>
  <path d="m43.683 56.935c-5.3285-2.5987-9.9313 0.5128-10.676 5.6405 0 0 2.6018 1.585 6.9951 1.585s7.0969-0.6738 7.0969-0.6738c0-1.5163 0-4.8857-3.4158-6.5517z" fill="#FC7812"/>
  <path d="m67.565 73.551s-3.8002-6.6585-3.6351-11.92c0.1652-5.261 4.6263 0 4.6263 0s-0.1652-12.166 3.3045-12.002c3.4696 0.1643 2.8088 14.468 2.8088 14.468s0.826-3.372 3.1393-2.5081c2.3132 0.8639-2.3133 11.962-2.3133 11.962h-7.9305z" fill="#4B764A"/>
  <g opacity=".45">
   <path d="m64.365 76.852c-0.5895 4.058 1.4145 35.6 5.0931 51.772 0.071 0.313 0.3471 0.523 0.6672 0.523 0.2718 0 0.517-0.155 0.6253-0.405 4.9298-11.338 7.2699-30.295 7.2699-46.762 0-2.6147 2.2345-7.9479-2.9794-10.768s-9.9313 0.5128-10.676 5.6404z" fill="#FC7812"/>
   <path d="m67.492 79.386c0.0816 0.0359 1.4014 0.5997 3.3718 0.5997 1.0134 0 2.1985-0.1469 3.4737-0.5907 0.1203-0.0418 0.1838-0.1739 0.1446-0.2943-0.045-0.1195-0.1775-0.1734-0.2951-0.1438-3.5877 1.2535-6.4787 0.018-6.5084 9e-3 -0.1203-0.0597-0.2555 0-0.3037 0.1168-0.051 0.1173 0 0.2525 0.1171 0.3033z" fill="#E86500"/>
   <path d="m67.679 83.311c-0.1203-0.0602-0.2555 0-0.3037 0.1173-0.051 0.1168 0 0.2516 0.1171 0.3028 0.0816 0.0359 1.4014 0.5998 3.3718 0.5998 0.3664 0 0.7561-0.0203 1.1635-0.0661-0.0284-0.0126-0.0654-0.0278-0.0897-0.0391-0.1144-0.0539-0.1654-0.1891-0.1144-0.3064 0.0031-0.0063 0.0094-0.0107 0.0135-0.0175-0.0365-0.0238-0.069-0.0503-0.1014-0.0759-2.367 0.2022-4.0338-0.5054-4.0567-0.5149z" fill="#E86500"/>
   <path d="m70.865 88.676c1.0134 0 2.1984-0.1501 3.4736-0.5966 0.1203-0.0423 0.1834-0.1712 0.1411-0.2912-0.0415-0.1199-0.174-0.1859-0.2916-0.1406-2.417 0.8442-4.5136 0.5576-5.636 0.2781 0.1018 0.1905 0.1752 0.3671 0.2253 0.5324 0.5537 0.1181 1.2625 0.2179 2.0876 0.2179z" fill="#E86500"/>
   <path d="m69.034 93.094c2.1967 0 4.3668-0.2232 5.642-0.6666 0.1203-0.0423 0.1834-0.1743 0.1442-0.2943-0.0446-0.1199-0.1771-0.1765-0.2947-0.1438-1.8492 0.6456-6.5503 0.6295-7.7327 0.4619-0.2185 0.1375-0.4668 0.2516-0.7281 0.3482 0.5546 0.1181 2.1397 0.2946 2.9693 0.2946z" fill="#E86500"/>
   <path d="m67.679 96.343c-0.1203-0.0597-0.2555 0-0.3037 0.1173-0.051 0.1168 0 0.2516 0.1171 0.3028 0.0789 0.035 3.2313 1.0479 5.8821 0.5966 0.3591-0.173 0.7421-0.3428 1.136-0.5099-3.6178 0.2873-6.8086-0.4996-6.8315-0.5068z" fill="#E86500"/>
   <path d="m67.679 100.69c-0.1203-0.06-0.2555 0-0.3037 0.117-0.051 0.117 0 0.252 0.1171 0.303 0.0595 0.026 0.785 0.335 1.9412 0.498 0.1992-0.315 0.5272-0.381 0.5272-0.381s-9e-3 0-0.0316-9e-3c-0.018-6e-3 -0.0464-0.016-0.0811-0.032-1.3166-0.138-2.1529-0.49-2.1691-0.496z" fill="#E86500"/>
   <path d="m67.321 105.03c-0.1176-0.054-0.2555 0.015-0.2979 0.129-0.0482 0.117 0.0091 0.252 0.1294 0.297 0.0901 0.036 1.555 0.597 3.621 0.597 1.0647 0 2.2858-0.147 3.5642-0.591 0.0099-4e-3 0.0167-0.011 0.0257-0.015-0.0289 3e-3 -0.0573 6e-3 -0.0861 9e-3 -0.5042 0.044-0.9444-3e-3 -1.3153-0.096-3.0731 0.64-5.6122-0.322-5.641-0.33z" fill="#E86500"/>
   <path d="m67.664 109.37c-0.1203-0.039-0.2528 0.018-0.2947 0.139-0.0451 0.119 0.018 0.251 0.1383 0.293 0.0991 0.036 1.6992 0.594 3.8526 0.594 1.113 0 2.3702-0.147 3.6485-0.591 0.1203-0.042 0.1834-0.174 0.1442-0.294-0.0446-0.12-0.1802-0.177-0.2942-0.144-3.6003 1.254-7.1587 0.01-7.1947 3e-3z" fill="#E86500"/>
   <path d="m74.187 113.71c-3.5606 1.245-5.5486 0.036-5.5671 0.024-0.1086-0.066-0.2496-0.036-0.319 0.072-0.0658 0.108-0.0361 0.249 0.0725 0.318 0.0573 0.036 0.9981 0.615 2.7307 0.615 0.8782 0 1.9614-0.15 3.2334-0.591 0.1204-0.042 0.1834-0.174 0.1442-0.294-0.0446-0.12-0.177-0.174-0.2947-0.144z" fill="#E86500"/>
   <path d="m73.396 118.05c-2.0394 0.681-3.9793 9e-3 -3.9973 4e-3 -0.1207-0.039-0.2501 0.02-0.2947 0.137-0.0423 0.12 0.018 0.252 0.1379 0.294 0.0572 0.021 0.9598 0.333 2.1958 0.333 0.6344 0 1.3594-0.084 2.1025-0.329 0.1234-0.043 0.1861-0.172 0.1473-0.292-0.0419-0.12-0.1744-0.192-0.2915-0.147z" fill="#E86500"/>
  </g>
  <path d="m75.04 71.212c-5.3285-2.5987-9.9313 0.5128-10.676 5.6404 0 0 2.6017 1.5851 6.995 1.5851s7.0969-0.6739 7.0969-0.6739c0-1.5162 0-4.8857-3.4158-6.5516z" fill="#FC7812"/>
  <path d="m60.893 73.512c-0.179 1.1635 0.5967 1.6035 1.0069 1.6781-0.6509 0.5592-0.141 2.0997 1.3425 2.0136 0 1.8708 1.066 2.2532 1.7899 1.6781-0.469 1.8498 1.0069 2.1047 2.1256 1.5662 0.895-0.2237 1.79-1.7899 1.5663-2.2374-0.2063-0.4126-0.2238-0.6713-1.6781-0.5594 0.4475-0.3356 1.0068-1.3425 0.6712-1.9019-0.2685-0.4475-1.2306-0.261-1.6781-0.1118 0.4475-0.2611 1.2306-0.9398 0.7831-1.5663s-1.3425-0.5966-1.79-0.3356c0.5967-0.4848 1.5215-1.5661 0.4475-2.0136-1.3425-0.5594-4.3631 0.3356-4.5868 1.79z" fill="#F9B691"/>
  <path d="m61.886 75.251c0.373-0.4102 1.4231-1.4253 3.0341-1.5148" stroke="#CE502C" stroke-linecap="round" stroke-linejoin="round" stroke-width=".38242"/>
  <path d="m63.16 77.29c0.3729-0.4102 1.5092-1.2611 2.7398-1.4848" stroke="#CE502C" stroke-linecap="round" stroke-linejoin="round" stroke-width=".38242"/>
  <path d="m65.073 78.947c0.3825-0.6374 1.4022-1.1472 2.0848-1.2956" stroke="#CE502C" stroke-linecap="round" stroke-linejoin="round" stroke-width=".38242"/>
  <path d="m36.995 85.388s3.0318 8.0009 4.4067 23.126c1.3749 15.124 0.3693 33.464 0.3693 33.464l-30.296 3.869s0.8456-26.602 0.4247-36.357c-0.421-9.7552 1.9867-26.957 5.6474-32.788 5.9121-3.9278 15.713-0.3373 19.448 8.6866z" fill="#fff"/>
  <path d="m25.641 66.3v5.0234h4.8954l0.4579-5.0234h-5.3533z" fill="#FDB082"/>
  <path d="m25.641 66.301v5.0234h-5.6769l1.4844-10.593 4.1925 5.5698z" fill="#FDB082"/>
  <path d="m25.641 66.3v5.0234h4.8954l0.4579-5.0234h-5.3533z" fill="#FFBD96"/>
  <path d="m25.641 66.301v5.0234h-5.6769l1.4844-10.593 4.1925 5.5698z" fill="#FFBD96"/>
  <path d="m37.149 53.352s0.2954 1.8784 0.8173 2.5677 1.2605 0.7755 1.4648 1.1078c0.2043 0.3324 0.5318 0.9417-0.3237 1.7713-0.8555 0.8297-2.1984 0.5133-2.1984 0.5133s-0.6955-5.3988 0.24-5.9601z" fill="#FFBD96"/>
  <path d="m36.48 45.946c-1.4512-5.1477-7.6759-5.837-9.478-5.9342-4.4202-0.2462-10.859 1.0303-12.802 6.0118-1.6383 4.1851-2.436 10.491 4.9631 16.987 7.399 6.4955 17.257 6.0315 17.257 6.0315s1.6457-0.3016 1.7639-6.0106c0.0849-4.0952-0.9355-5.9342-1.0291-9.4953-0.0825-3.0662 0.2868-4.1715-0.6758-7.5898z" fill="#FFBD96"/>
  <path d="m39.451 57.224c0.0148 0.2955-0.2732 0.549-0.6425 0.5663-0.3693 0.0172-0.6795-0.2081-0.693-0.5035s0.2745-0.5477 0.6425-0.5662c0.3681-0.0185 0.6795 0.208 0.693 0.5034z" fill="#FFC7AB"/>
  <path d="m39.431 57.034c0.1455 0.1836 0.247 0.3981 0.2967 0.627 0.0498 0.229 0.0464 0.4663-0.0099 0.6937-0.1822 0.8063-0.837 1.2851-2.2599 1.3959-0.4481-0.5256-0.0973-0.5601-0.0973-0.5601s2.9333-0.4013 2.0704-2.1565zm-14.1-1.6162s-0.3754-1.8107-1.69-1.9006c-1.3147-0.0898-2.3314 1.3614-2.1775 2.9542 0.1538 1.5928 1.1324 3.939 2.3658 4.6393 1.2334 0.7004 1.9694-0.6216 1.9694-0.6216l-0.4677-5.0713z" fill="#E98146"/>
  <path d="m25.332 55.418s-0.837-2.1196-2.1504-1.4771c-1.3134 0.6426-1.8698 2.1504-0.906 4.5987s2.7437 3.8158 3.8159 1.4094c1.0721-2.4064-0.7595-4.531-0.7595-4.531z" fill="#FFBD96"/>
  <path d="m22.571 57.124s-0.6758-1.6002 0.4087-2.1812c1.0844-0.581 1.9177 1.7467 1.418 4.4313 0.1034-1.7331-0.2622-3.3875-0.7804-4.03-0.5182-0.6426-1.4513 0.0369-1.0463 1.7799z" fill="#E98146"/>
  <path d="m23.203 57.757c-0.1261-0.4724-0.0865-0.9737 0.112-1.4205 0.3361-0.7127 0.6955-0.4702 0.6955-0.4702l0.1022 0.2634s-0.7817-0.3015-0.9097 1.6273z" fill="#E98146"/>
  <path d="m34.776 43c-0.8714-0.2656-1.7787-0.3948-2.6896-0.3828-1.4487 0.0345-3.8441 0.8875-4.9101 4.6701-1.0659 3.7826 0.6426 8.0379 0.6044 8.3579-0.0382 0.3201-1.9559 0.5121-1.9559 0.5121s-0.2794-2.1984-1.631-2.8053c-1.3515-0.6068-3.0994 0.8863-3.0096 2.788 0.0899 1.9018 1.2396 5.1034 3.0946 5.3865-0.9417 2.1394-3.923 2.9111-3.923 2.9111s-4.1038-2.4052-6.8832-4.6848c-2.8693-2.3535-3.5057-4.6307-3.6029-6.1804-0.02954-0.4567-1.5079-3.6928-0.66469-6.7701 0.84322-3.0772 2.5591-3.9807 2.5591-3.9807s1.0179-5.128 8.1831-6.6051c5.6351-1.1595 8.7395 1.2223 9.201 1.306 0.4616 0.0837 6.2617 2.4766 5.6278 5.4775z" fill="#755142"/>
  <path d="m30.672 39.891s-2.0618-4.6602-7.8422-4.8756c-5.7803-0.2154-5.816 0.7078-8.4957 1.4463s-4.078-1.0217-4.078-1.0217-0.1441 2.9542 2.9012 3.1019c-1.1078 0.6697-2.5738-0.5637-2.5738-0.5637s0.7902 1.3023 1.53 1.6199c0.7398 0.3175 1.1989 0.2929 1.1989 0.2929l-1.3565 0.2634 0.5195 0.3976-0.8616 2.7499 19.058-3.4109z" fill="#755142"/>
  <path d="m17.545 76.702c-0.2007 0.2376 4.2934-1.3946 9.2995-0.4074s10.151 9.094 10.151 9.094-1.4341-3.7691-3.1364-7.3314c-1.7024-3.5622-3.4712-5.0984-3.3235-6.7331h-10.572s-1.0734 3.7752-2.4187 5.3779z" fill="#FFBD96"/>
  <path d="m60.34 97.355s-15.224 3.2756-27.687 2.9926-16.456-3.2696-16.017-8.597 5.3988-7.5147 12.714-7.2771 28.701 0.8777 31.634 1.8464c2.9332 0.9687 5.4012 9.3155-0.645 11.035z" fill="#FDB082"/>
  <path d="m34.776 79.284s19.372 14.996 22.782 17.751c3.4101 2.7557 11.633-4.4711 7.4748-8.5193-4.1578-4.0482-26.196-12.924-26.196-12.924s-2.215-0.7384-3.3225 1.1075c-1.1075 1.8458-0.7383 2.5842-0.7383 2.5842z" fill="#FDB082" fill-opacity=".5"/>
  <path d="m60.328 97.355s-15.224 3.2756-27.687 2.9926-16.456-3.2696-16.017-8.597 5.3988-7.5147 12.714-7.2771 28.701 0.8777 31.634 1.8464 5.4012 9.3155-0.645 11.035z" fill="#FDB082"/>
  <path d="m85.675 90.819s-25.255-3.7176-29.586-4.399c-4.3311-0.6813-7.8386 9.6886-2.2138 11.115 5.6249 1.4269 32.013-2.2783 32.013-2.2783l-0.2126-4.4381z" fill="#FDB082"/>
  <path d="m83.109 90.494c0.0896 0.0115 0.174 0.0187 0.2672 0.0267 0.9208 0.0698 1.8628 0.3472 2.7825 0.2386 1.1873-0.1398 2.3059-0.5731 3.2498-1.2589 0.2525-0.1864 0.5334-0.4006 0.8476-0.3539 0.1374 0.0324 0.2646 0.1005 0.3676 0.1967 0.1031 0.0962 0.1781 0.217 0.2169 0.3492 0.2506 0.6969-0.1459 0.9738-0.4284 1.5482-0.0567 0.0927-0.0755 0.2038-0.0528 0.3121 0.035 0.0851 0.0973 0.1578 0.1775 0.207 0.7146 0.5165 1.6519 0.5126 2.5191 0.5905 0.8671 0.078 1.8473 0.3413 2.2568 1.1244 0.3267 0.618 0.1759 1.4028-0.2373 1.9487s-1.032 0.8934-1.6735 1.132c-1.6148 0.5908-3.2822 0.5067-4.9197 0.1897-1.1678-0.233-2.3643-0.5517-3.5546-0.7541-0.5771-0.1035-1.1597-0.1646-1.7429-0.1828-0.5772-0.012-1.1595 0.0746-1.7335-0.0544-0.574-0.1289-0.8985-0.718-1.1276-1.2595-0.4886-1.1434-0.3379-2.4986-0.073-3.6486 0.0196-0.1352 0.0724-0.2626 0.1539-0.3716 0.1405-0.1263 0.3266-0.1953 0.5219-0.1935 0.7311-0.0649 1.4598 0.129 2.1825 0.2135z" fill="#FDB082"/>
  <path d="m34.494 79.016c-0.0719-0.0548-0.1414-0.1033-0.2181-0.1568-0.7625-0.5208-1.4395-1.2321-2.2904-1.5979-1.0981-0.4725-2.2835-0.6566-3.4439-0.5347-0.3118 0.0353-0.6621 0.0803-0.9109-0.1173-0.1028-0.0968-0.1789-0.2193-0.2201-0.3541-0.0411-0.1349-0.0457-0.277-0.0132-0.4108 0.1314-0.729 0.6133-0.7705 1.1451-1.1267 0.0955-0.0519 0.1673-0.1387 0.2018-0.2438 0.0122-0.0912-0.0054-0.1854-0.0502-0.2681-0.3606-0.8046-1.1743-1.2698-1.8864-1.7709-0.712-0.5011-1.4292-1.2193-1.3922-2.1022 0.0261-0.6985 0.549-1.3028 1.1798-1.569 0.6308-0.2661 1.3405-0.2577 2.0153-0.1435 1.694 0.2957 3.0958 1.2023 4.3555 2.2956 0.8948 0.7856 1.7716 1.6599 2.7013 2.4303 0.448 0.3782 0.922 0.7224 1.418 1.0298 0.4938 0.299 1.3883 0.8178 1.8209 1.2164 0.4326 0.3987 0.5093 1.0433 0.2984 1.4767-0.4398 0.9042-1.2551 2.2081-2.0596 3.0716-0.0845 0.1072-0.1939 0.1912-0.3191 0.2448-0.1847 0.0392-0.3804 0.0059-0.5487-0.0933-0.6655-0.3094-1.1997-0.8416-1.7833-1.2761z" fill="#FDB082" fill-opacity=".5"/>
  <mask id="path-90-outside-1_54_10912" x="102.037" y="17.1494" width="28" height="93" fill="black" maskUnits="userSpaceOnUse">
   <rect x="102.04" y="17.149" width="28" height="93" fill="#fff"/>
   <path d="m105.01 18.26c7.227 5.0604 13.153 11.759 17.295 19.549s6.382 16.449 6.536 25.27c0.154 8.8211-1.782 17.553-5.65 25.483-3.867 7.9296-9.557 14.832-16.603 20.141l-2.249-2.985c6.575-4.954 11.884-11.395 15.493-18.794s5.415-15.548 5.272-23.779c-0.144-8.2314-2.234-16.312-6.099-23.581s-9.395-13.52-16.139-18.242l2.144-3.0616z"/>
  </mask>
  <path d="m105.01 18.26c7.227 5.0604 13.153 11.759 17.295 19.549s6.382 16.449 6.536 25.27c0.154 8.8211-1.782 17.553-5.65 25.483-3.867 7.9296-9.557 14.832-16.603 20.141l-2.249-2.985c6.575-4.954 11.884-11.395 15.493-18.794s5.415-15.548 5.272-23.779c-0.144-8.2314-2.234-16.312-6.099-23.581s-9.395-13.52-16.139-18.242l2.144-3.0616z" fill="#7F2221"/>
  <path d="m105.01 18.26c7.227 5.0604 13.153 11.759 17.295 19.549s6.382 16.449 6.536 25.27c0.154 8.8211-1.782 17.553-5.65 25.483-3.867 7.9296-9.557 14.832-16.603 20.141l-2.249-2.985c6.575-4.954 11.884-11.395 15.493-18.794s5.415-15.548 5.272-23.779c-0.144-8.2314-2.234-16.312-6.099-23.581s-9.395-13.52-16.139-18.242l2.144-3.0616z" mask="url(#path-90-outside-1_54_10912)" stroke="#7F2221" stroke-width="1.0198"/>
  <mask id="path-91-inside-2_54_10912" fill="white">
   <path d="m107.51 20.119c6.455 5.0787 11.711 11.517 15.396 18.858 3.684 7.3405 5.706 15.403 5.921 23.613 0.215 8.2105-1.381 16.368-4.676 23.891-3.294 7.5235-8.206 14.228-14.386 19.638l-2.305-2.633c5.793-5.071 10.398-11.356 13.486-18.409s4.585-14.699 4.383-22.396c-0.202-7.6966-2.097-15.254-5.551-22.135-3.453-6.881-8.381-12.917-14.432-17.677l2.164-2.75z"/>
  </mask>
  <path d="m107.51 20.119c6.455 5.0787 11.711 11.517 15.396 18.858 3.684 7.3405 5.706 15.403 5.921 23.613 0.215 8.2105-1.381 16.368-4.676 23.891-3.294 7.5235-8.206 14.228-14.386 19.638l-2.305-2.633c5.793-5.071 10.398-11.356 13.486-18.409s4.585-14.699 4.383-22.396c-0.202-7.6966-2.097-15.254-5.551-22.135-3.453-6.881-8.381-12.917-14.432-17.677l2.164-2.75z" fill="#FFEDCA" mask="url(#path-91-inside-2_54_10912)" stroke="#B2828B" stroke-width="1.0198"/>
  <path d="m112.47 24.524c10.484 10.484 16.374 24.704 16.374 39.531h-3.499c0-13.899-5.521-27.229-15.349-37.057l2.474-2.4742z" fill="#FF4343"/>
  <path d="m128.85 64.055c0 13.443-4.843 26.435-13.643 36.597l-2.645-2.2907c8.249-9.5259 12.789-21.705 12.789-34.306h3.499z" fill="#FF4343"/>
 </g>
 <defs>
  <clipPath id="clip0_54_10912">
   <path d="m0 11.704c0-6.2854 5.0953-11.381 11.381-11.381h130.62v127.46h-130.62c-6.2854 0-11.381-5.095-11.381-11.38v-104.7z" fill="#fff"/>
  </clipPath>
 </defs>
</svg>
