<svg xmlns="http://www.w3.org/2000/svg" xmlns:xlink="http://www.w3.org/1999/xlink" fill="none" viewBox="0 0 142 128" xmlns:v="https://vecta.io/nano"><style><![CDATA[.B{fill:#fff}.C{fill:#b38b66}.D{fill:#fc7812}.E{fill:#f9b691}.F{stroke:#ce502c}.G{stroke-linecap:round}.H{stroke-linejoin:round}.I{stroke-width:.382}.J{fill:#4b764a}.K{fill-rule:evenodd}.L{fill:#f2bc62}.M{fill:#ffbd96}.N{stroke-width:1.02}]]></style><g clip-path="url(#C)"><path d="M0 11.704C0 5.419 5.095.323 11.381.323h130.62v127.46H11.381C5.096 127.783 0 122.688 0 116.403v-104.7z" fill="#ffe6b5"/><path d="M30.91 36.754c-32.73-11.105-87.998-1.997-110.26 3.824l-6.629 85.854 169.54 8.668 89.358-20.523-8.923-50.799c-30.338-15.934-90.25-12.492-133.08-27.024z" fill="#d7a87b"/><path d="M110.01 114.72c6.372 1.064 12.488 1.957 18.201 2.593l1.688-1.037c-5.828-.61-12.103-1.504-18.666-2.587 3.25-2.614 7.584-5.316 9.742-8.619 3.206.443 6.324.83 9.315 1.136l12.328 1.085c.464-.365.904-.76 1.363-1.13l-13.565-1.177a261.76 261.76 0 0 1-8.789-1.064 7.63 7.63 0 0 0 .29-.696c2.356-6.602-59.236-16.237-60.257-10.762l-5.23-1.135-36.079-7.606c-1.165-2.481-4.2-5.62-7.535-6.689-.259-.083-.52-.154-.781-.211-.304-.066-.61-.11-.916-.136-.191-.017-.381-.035-.572-.035l-.234.001-.511.004-.815.022a25.56 25.56 0 0 0-1.329.086 18.75 18.75 0 0 0-.868.097c-2.618.359-4.626 1.267-5.435 3.371l-4.172-.677c-22.37-3.52-45.897 1.36-63.276 6.913l.87 1.022c17.175-5.417 40.304-10.149 62.214-6.722 18.27 2.875 39.069 7.392 59.179 11.764l6.26 1.358c1.448 1.343 4.982 3.177 11.254 5.6C82.092 102.737-.021 85.915-.021 85.915c-11.074-.58-12.561 1.283-10.991 4.082-16.425-1.166-32.984 1.62-46.872 5.388l1.006 1.033c13.914-3.707 30.46-6.416 46.739-5.124 2.632 3.435 7.932 7.779 6.524 10.866-15.107-2.24-30.701-.705-44.547 2.235.423.356.87.685 1.297 1.036 13.259-2.731 28.039-4.15 42.357-2.156-1.26 1.051-3.682 1.875-7.815 2.348-4.766.545-11.954-1.028-14.68 8.075-1.229 4.104 3.448 3.701 9.217 3.136l.276-1.271s15.905-16.017 30.095-9.179 20.407 13.314 30.108 10.314c7.272-2.25 13.422.16 16.046 1.507h5.313c1.886-1.6 6.679-2.739 12.311-2.739s10.425 1.139 12.312 2.739h18.669c.401-1.187 1.382-2.335 2.667-3.485z" class="C"/><path d="M198.07 108.69H52.12c-2.518-1.288-8.418-3.59-15.395-1.441-9.307 2.867-15.272-3.32-28.886-9.856s-28.874 8.772-28.874 8.772l-.265 1.214-.285 1.311h-73.624c-5.466 0-9.898 4.412-9.898 9.856s4.432 9.856 9.898 9.856h293.28c5.466 0 9.897-4.413 9.897-9.856s-4.431-9.856-9.897-9.856z" fill="#395036"/><g class="C"><path d="M9.271 61.781l-9.072.729c-5.055.459-6.378.357-9.933-.871l-.843-.294c-2.094-.686-3.892-.845-7.162-.568l-4.323.46c-3.745.464-7.725.749-12.026.776-1.407.009-2.51.126-3.572.333l-3.896.767c-.931.167-1.97.328-3.028.427-2.151.2-4.142.244-5.416-.195-.233-.081-.635-.129-1.069-.213-2.01.218-3.736.591-5.526.934a33.69 33.69 0 0 1-5.038.569c-2.019.082-4.1.267-6.081.348a25.18 25.18 0 0 0-6.132 1.008l-4.859 1.434c-1.399.399-2.841.817-4.395 1.163-2.786.622-4.423.681-6.232.301-.337-.07-.723-.127-1.008-.173-2.032.306-2.798.784-3.796 1.226-.49.218-1.05.459-1.705.631a6.65 6.65 0 0 1-1.625.16c-.35-.027-.631-.205-.43-.329 1.637-1.012 4.101-1.907 7.427-2.588 1.305-.267 2.454-.324 3.241-.148.682.151 1.33.315 2.015.481 1.778-.294 3.071-.654 4.345-1.028l6.96-1.953c1.865-.517 3.794-.899 6.171-1.006 1.851-.084 3.81-.269 5.619-.293a27 27 0 0 0 5.002-.522l5.517-1.006c2.432-.38 3.1-.34 4.679.131 1.029.308 2.072.36 3.502.105a96.63 96.63 0 0 0 4.246-.868 22.61 22.61 0 0 1 6.181-.563c2.445.097 4.759-.064 7.013-.336 2.865-.345 5.821-.633 8.821-.868 3.555-.277 6.173-.06 8.721.672 1.279.369 2.381.769 3.696 1.206 3.377-.09 6.071-.417 8.947-.642 1.391-.108 2.733-.235 4.188-.299 1.569-.07 3.163.04 4.512.454a19.37 19.37 0 0 0 1.086.304 14.35 14.35 0 0 0 4.112.401l7.527-.319 3.362-.101c1.887-.05 3.761.202 5.582.661.699.175 1.435.36 1.973.558 1.945.713 3.937.909 6.085.865 1.072-.021 2.218-.006 3.335.002s2.188-.013 3.37.044c3.101.15 6.113.075 9.599.808 3.138.659 6.529 1.199 9.408 2.148 2.396.79 4.638.974 6.88 1.183 2.913.273 5.888.612 8.826.958 2.359.278 4.401.883 6.264 1.667.123.051.271.106.37.156 2.565 1.317 5.599 1.978 9.082 2.59 5.121.9 10.304 1.941 15.528 3.184 3.375.804 6.649 1.858 9.682 3.386 3.674 1.851 8.22 3.38 12.747 4.701l9.809 2.969c3.006.952 6.012 2.087 8.925 3.422 3.243 1.486 6.384 2.87 9.498 3.764a2.75 2.75 0 0 1 .428.174c.265.133.702.342.736.398.077.13.105.298-.111.253-2.772-.575-6.005-1.585-9.442-3.25-4.915-2.381-9.692-4.004-14.503-5.309-4.558-1.235-9.177-2.721-13.951-4.483-2.581-.954-5.312-1.92-7.129-2.952-1.62-.921-3.474-1.48-5.516-2.033-.77-.208-1.528-.36-2.282-.525-4.98-1.081-10.006-2.103-14.98-2.978-3.819-.671-7.173-1.585-10.246-2.895-.718-.307-1.528-.607-2.418-.955-2.713-.513-5.223-.823-7.622-1.02l-2.498-.182c-3.092-.173-6.132-.697-9.559-1.726a61.21 61.21 0 0 0-18.34-2.589l-5.322.022c-2.919.007-5.743-.29-8.505-1.178-.947-.304-2.099-.58-3.324-.909-1.177.002-2.349-.008-3.438.023l-8.272.356c-2.633.185-5.131-.056-7.756-.589l-2.636-.558zM-93.885 80.869c.983-1.192 3.906-2.309 7.464-3.322a12.58 12.58 0 0 1 3.993-.464l3.634.268a13.26 13.26 0 0 0 4.752-.467l7.065-2.072c2.727-.858 5.744-1.609 9.089-2.239 3.151-.589 4.591-.581 6.687-.088.297.07.539.154.8.232 1.425.431 3.486.448 5.909.172l5.969-.724 3.084-.434c3.729-.763 7.994-.758 12.231-.637 1.403.039 2.81.201 4.03.378 2.805.408 5.585.416 8.439.16L.329 70.74c5.036-.47 9.735-.126 14.414.895.543.121 1.127.229 1.693.345 2.145.159 3.812.053 5.434-.072l10.141-.667a74.34 74.34 0 0 1 4.346-.083c2.318.021 4.64.324 6.497.948 1.506.506 3.289.851 5.248 1.227a43.94 43.94 0 0 0 7.161.774c4.721.149 9.535.414 14.329.736 2.263.151 4.6.378 7.137.856 2.311.434 4.246.946 4.88 1.645.102.115.564.277.829.403 1.868.451 3.267.501 4.734.663 4.074.45 9.633 3.442 14.061 5.035.899.119 1.839.777 2.792.956 2.573.487 3.788.925 5.117 1.79.079.051.079.093.156.142 1.214.795 1.839.985 4.307 1.396l8.157 1.478c3.449.671 6.901 1.606 10.261 2.95.851.342 1.868.708 2.468 1.04 1.23.677 2.706 1.185 4.303 1.661 3.465 1.034 6.697 1.931 9.863 2.569 7.858 1.641 6.095 1.175 14.236 4.822 1.419.647 2.844 1.359 3.982 2.031 1.539.904 2.987 1.768 5.036 2.647.775.334 1.4.775 1.014.824-.274.035-1.046-.117-1.642-.336-.835-.307-1.81-.743-2.563-1.138a74.44 74.44 0 0 1-3.321-1.854c-1.54-.903-3.331-1.756-5.187-2.608-3.344-1.535-6.448-2.594-9.592-3.127-3.952-.673-8.664-2.081-13.362-3.418-2.069-.59-4.039-1.278-5.41-2.142-1.361-.86-3.497-1.535-5.569-2.002-3.398-.766-6.739-1.415-10.102-2.051-.762-.144-1.45-.214-2.206-.348-2.904-.515-5.358-1.282-7.284-2.303-.682-.361-1.256-.715-2.046-1.161-4.941-.701-11.652-5.402-16.424-5.926-1.648-.18-3.197-.285-4.849-.452-2.636-.267-4.338-.756-5.394-1.556-.29-.219-.491-.428-.66-.577-1.75-.564-3.207-.7-4.53-.802a383.61 383.61 0 0 0-11.6-.69c-.736-.035-1.425-.04-2.136-.053-6.626-.13-12.882-1.147-19.025-2.788a24.14 24.14 0 0 0-.852-.209c-.144-.032-.317-.058-.79-.141-3.326-.168-6.304-.022-9.152.208l-7.022.597c-2.937.269-5.926.146-9.061-.582-.524-.12-1.152-.218-1.688-.336-3.056-.67-6.038-.777-9.258-.517l-11.881.96c-3.81.349-7.404.29-11.208-.203-3.856-.501-8.082-.499-12.203.066l-4.819.682c-3.103.517-6.47.684-9.876.88-1.944.112-3.412.012-4.595-.248-.406-.089-.7-.206-1.11-.294-1.509-.321-2.507-.323-4.581.146-2.56.58-4.963 1.225-7.333 1.888-1.62.454-3.087.945-4.639 1.428a47.19 47.19 0 0 1-1.912.537c-2.988.792-5.865 1.171-8.642.921-.351-.03-.736-.05-1.112-.069-2.86-.153-4.848.182-7.12 1.218-.776.353-1.355.72-2.135 1.078-.821.376-1.799.547-2.919.441zM124.79 67.522l-3.584-.829-2.689-.612c-5.883-1.657-11.715-2.953-17.572-4.104-2.733-.538-5.295-1.268-7.246-2.214-.404-.197-.891-.393-1.219-.536-1.812-.483-2.86-.438-4.035-.52-1.957-.136-4.02-.423-6.308-.873-2.134-.42-4.121-.879-5.682-1.517-2.359-.962-4.965-1.355-7.958-1.676-4.844-.519-9.316-.687-13.74-.815-6.411-.181-12.854-.813-19.58-1.714-3.065-.41-5.532-2.593-8.004-2.315-1.797.202-4.106.245-6.216.363a30.29 30.29 0 0 1-5.077-.145c-1.819-.2-2.403-.56-3.215-.906-.154-.066-.452-.118-.902-.232l-2.491.071c-1.214.029-2.46.13-3.648.073-3.09-.147-5.547.077-7.953.428-1.144.166-2.499.291-3.843.371-1.525.091-3.164.096-4.618-.094-1.889-.248-3.627-.146-5.339.136-.261.043-.595.061-.868.102-3.381.504-6.79.715-10.339.415-.407-.033-.894-.029-1.704-.051l-7.374 1.444c-2.347.493-4.837.831-7.544.898-1.33.033-2.624.019-3.888.006-.842-.01-1.605-.068-2.317-.099-2.666.347-4.81 2.894-6.785 3.482l-4.371 1.337a62.82 62.82 0 0 1-3.15.85c-2.422.588-3.887.7-5.55.422-.76-.127-1.409-.29-2.166-.414-.628-.103-1.551-.036-2.438.2-1.229.328-2.46.682-3.51 1.065-1.542.559-2.916 1.157-4.358 1.751-.728.301-1.55.486-2.473.572-.898.084-1.325-.127-.754-.422.367-.189.759-.385 1.225-.563 2.133-.814 4.275-1.612 6.521-2.368.855-.287 1.921-.531 2.913-.777 2.135-.531 3.861-.599 5.228-.374.669.111 1.187.276 1.84.392 1.098.199 1.928.132 3.528-.304 1.053-.285 2.014-.597 3.019-.89l7.231-2.021c2.726-.694 5.486-3.017 8.198-2.738 2.644.269 5.479.019 8.276-.55l5.923-1.24c1.994-.451 4.082-.641 6.1-.383 2.15.276 4.181.077 6.297-.125.741-.07 1.412-.191 2.114-.288 4.712-.629 4.752-.631 9.908-.064 1.894-.088 3.548-.357 5.328-.563 2.341-.271 4.696-.535 7.64-.308 1.514.117 2.735-.06 4.012-.158l3.884-.248c.839-.035 2.096.181 2.354.393.355.29.564.586.799.838 1.807.365 3.317.344 4.726.248l7.34-.494c1.753-.14 3.512 1.981 5.435 2.311 4.626.794 9.224 1.153 13.687 1.384l12.572.631a298.93 298.93 0 0 1 10.937.923c.832.086 1.93.311 2.754.532 1.461.395 2.993.824 4.15 1.274 3.102 1.204 6.093 1.601 9.156 1.822l3.176.184c1.656.132 2.89.43 4.301 1.045.685.299 1.281.606 1.806.904 1.042.588 2.512.98 4.15 1.307l6.456 1.323c2.781.635 5.585 1.384 8.345 2.065l6.358 1.495 3.138.725c1.67.431 3.096 1.008 3.934 1.609 1.789 1.283 4.585 2.171 7.554 3.022l5.334 1.496a84.92 84.92 0 0 1 9.351 3.253l3.516 1.408c2.689 1.008 4.714 2.164 6.765 3.317.364.204.597.508.496.59-.174.144-.971-.1-1.729-.428a34.07 34.07 0 0 1-2.034-.964c-4.962-2.555-10.29-4.661-15.922-6.289l-5.747-1.6c-3.888-1.007-7.161-2.245-9.948-3.772-.313-.172-.673-.348-1.021-.52-.115-.057-.272-.113-.865-.358zM62.77 106.06c-.457.019-7.627-.912-3.356 3.194s15.102 4.409 17.848 1.065-2.899-4.714-14.492-4.259z"/><path d="M94.411 78.509c-.385.016-6.433-.772-2.831 2.702s12.738 3.731 15.054.901-2.445-3.989-12.223-3.603z"/></g><path d="M7.143 77.376s-3.8-6.659-3.635-11.92 4.626 0 4.626 0-.165-12.166 3.304-12.002 2.809 14.468 2.809 14.468.826-3.372 3.139-2.508-2.313 11.962-2.313 11.962H7.143z" class="J"/><path d="M14.62 75.036c-5.328-2.599-9.931.513-10.676 5.64 0 0 2.602 1.585 6.995 1.585s7.097-.674 7.097-.674c0-1.516 0-4.886-3.416-6.552z" class="D"/><g class="B"><path d="M82.791 90.564l.047.417c6.177-1.641 12.19 1.223 13.72 1.988v-.382c-1.275-.637-7.641-3.643-13.767-2.023zm0-1.456c0 .164-.015.283 0 .43 6.177-1.641 12.365 1.391 13.894 2.156v-.51c-1.275-.637-7.768-3.696-13.894-2.076z"/></g><path d="M63.705 76.507c-.347.323-.544.672-.544 1.038 0 1.619 3.71 2.932 8.286 2.932s8.285-1.313 8.285-2.932c0-.366-.198-.715-.544-1.038-1.186-1.106-4.2-1.894-7.741-1.894s-6.556.787-7.741 1.894z" class="C"/><g opacity=".4"><path d="M94.823 46.038c-.958-1.353-2.15-2.767-2.853-3.549-1.19-1.317-2.855-4.92 0-8.795 1.03 2.417 2.932 8.04 2.854 12.344z" fill="#ce502c" opacity=".3" class="K"/><g fill="#beb2ae"><path d="M110.58 60.209c7.955.102 12.918-6.501 14.405-9.815l-12.11-7.011c-3.654 3.527-9.229 11.829-2.295 16.826zm-14.022 8.413c-3.824-1.402-8.286-5.099-8.923-12.11 12.492-1.275 12.365 7.648 8.923 12.11z"/></g><path d="M86.233 59.699l2.04-2.804 3.442-.255 4.971 8.541c-.297.382-1.555 1.606-4.207 3.442-3.314 2.294-10.453 4.462-16.189 6.246-3.065.954-7.011 4.844-8.158 5.481-2.651-1.224-5.651-6.374-6.374-7.521-.48-.507 2.295-2.04 3.463-2.549-1.633-1.912-2.74-3.649-1.934-3.952 1.02-.382 5.736 5.481 8.541 3.952 3.059-2.243 10.623-8.796 14.404-10.58z" class="E"/><g class="F G H I"><path d="M86.36 59.826c.765.255 1.53 1.274 1.785 1.785M66.602 71.809l-2.406-2.804"/></g><path d="M87.635 56.512c1.122-4.385 4.759-8.668 7.011-10.708l10.325 8.158c-1.105 3.612-4.334 11.6-8.413 14.659 0-4.207-3.059-8.286-8.923-12.11z" class="B"/><path d="M101.08 62.973c-1.304 2.286-2.842 4.387-4.524 5.649l-.003-.224c.119-1.222-.002-3.543-1.399-7.424l-1.045-2.732c-1.042-2.632-1.851-4.674-2.141-8.358 5.942.258 8.673 11.146 9.113 13.089z" fill="#d9d9d9" class="K"/><g class="E"><path d="M96.176 48.354c-.612-1.632-3.059-4.589-4.207-5.864-1.19-1.317-2.855-4.92 0-8.796 2.855 2.346 7.648 4.716 9.688 5.609 0 2.294-2.677 6.883-5.481 9.051z"/><path d="M89.292 45.422c-1.836-.306-5.269-4.376-6.756-6.373 1.785-2.889 5.634-8.668 6.756-8.668s2.337 1.955 2.804 2.932c.637 1.615 1.759 5.405 1.147 7.648-.765 2.804-1.657 4.844-3.952 4.462z"/></g><path d="M83.3 42.745c-.204-.51-.68-2.847-.892-3.952l4.589-8.158c.34.17.994.918.892 2.549s-2.252 6.034-3.314 8.031l.637 1.02c-.68.382-1.708 1.02-1.912.51z" fill="#ec9773"/><path d="M88.145 38.666c0-1.938-1.785-3.867-2.677-4.589l1.912-2.167c.34 1.742.637 3.569 2.677 4.079 1.224-.816 2.252-.722 2.677-.637-1.275.127-1.147.51-1.785.892.816.306 1.7-.127 2.04-.382 1.275 3.824.255 7.521-.765 9.433-.713 1.338-1.742 1.87-2.294 1.912L88.4 45.04c0 .892 1.147 1.785 1.147 2.167-1.428-1.326-2.464-2.677-2.804-3.187l1.402-1.402c.51-.51-.255-1.402-.51-.51-.204.714-1.02 1.317-1.402 1.53l-1.02-1.275c.085-.127.408-.535 1.02-1.147.765-.765 1.912-.127 1.912-2.549z" fill="#551815"/><g fill="#425a3f"><path d="M87.126 77.035c2.855-2.753 16.528-6.076 23.072-6.756l6.756.892-2.932 13.13-17.719 4.207v2.294l-12.365-2.932c-.17-2.889.331-8.082 3.187-10.835z"/><path d="M132.38 74.613c-.204-3.365-2.635-7.266-3.825-8.796l-15.424 7.521-8.285 37.221c-1.275 5.609 1.147 7.776 6.118 7.521 3.977-.204 9.731-.764 12.11-1.019-.255-2.847-.994-9.765-1.912-14.66 6.629-10.962 11.472-23.582 11.218-27.789z"/></g><path d="M76.545 39.304c0-2.039 1.615-3.399 2.422-3.824l2.932 1.657c-.51 1.402-1.937 4.742-3.569 6.883-1.147-.892-1.785-2.167-1.785-4.716z" fill="#f2ad56"/><path d="M76.928 33.057c.204 1.428 2.379 4.249 3.442 5.481l9.051-13.257c-.807-.765-3.442-1.984-5.354-1.402-2.932.892-7.393 7.393-7.138 9.178z" class="L"/><path d="M81.899 32.165c-.468 4.053-2.507 9.603-3.697 11.855 1.87-2.082 4.462-3.811 7.648-8.413 2.294-3.314 4.759-4.886 5.991-5.609.085.255.51.969 1.53 1.785 2.549-1.53 5.481-6.629 1.02-8.031s-11.727 1.785-12.492 8.413z" fill="#dc9742"/><path d="M106.5 71.044c-10.452-7.139-14.574-16.231-14.404-21.288l6.756-4.844 4.461-5.864 13.64 2.932 12.11 23.837c-4.462 2.677-7.394 3.952-15.934 7.776-.765 0-2.55-.892-6.629-2.549z" class="B"/><path d="M119.24 46.486l9.821 19.331c-3.034 1.82-5.361 2.992-9.225 4.759-.422-1.915-2.561-5.196-9.004-8.582-7.954-4.181-8.413-11.345-7.648-14.404l16.056-1.103z" fill="#d9d9d9" class="K"/><path d="M124.35 58.297c-1.224-3.467-2.974-6.289-3.697-7.266l-7.393 1.275-2.677 7.648 4.462 4.589c1.657 3.187 3.696 12.365 5.863 16.826 3.124 6.431 5.864 11.09 7.776 11.09.714 0 .977-.34 1.02-.51.68.552 1.784.127 2.039-.637 1.02.382 1.658-.425 1.53-.765.51 0 .678-.067.892-.255 1.02-.892.754-2.605 0-3.952-.517-.924-1.402-1.402-2.039-1.785-.383-1.147-2.805-2.549-3.314-4.844-.255-4.462-2.932-17.081-4.462-21.415z" class="E"/><g class="F G H I"><path d="M115.04 64.543c.584-.425 2.091-1.402 2.932-1.402M132.25 86.34c.254-.154.128-1.402-.255-1.912"/></g><path d="M89.165 87.743c-2.661-.319-5.665-.29-6.412 0 0 .91.122 4.883.421 7.266.373 2.978.948 8.756 1.072 10.617s-.937 3.477-3.112 3.788c-3.982 0-9.05.765-6.967 6.387 4.728.496 12.443-.745 15.056-1.489 2.09-.596 5.142-.754 6.406-.759.93-2.167.793-3.881-.061-6.19-.199-2.382.747-12.49 1.244-17.247-1.53-.97-4.462-1.99-7.648-2.373z" class="L"/><path d="M95.298 117.09l.495-3.687c-1.527-.317-5.523-.642-8.297.595s-10.454 1.146-13.756 1.027c0 0 .382 1.946 1.125 2.422 4.086 0 20.432-.357 20.432-.357z" fill="#395036"/><g class="B"><path d="M102.29 39.431c-1.275 1.912-1.02 4.358-.51 6.246 2.167 8.031 5.736 12.288 8.795 14.532 2.55-7.037 10.666-9.476 14.405-9.816-8.668-12.11-15.424-16.316-22.69-10.963zm-8.597 56.642c.747-.05 1.303-.841 1.242-1.768s-.718-1.638-1.465-1.588-1.303.841-1.241 1.768.717 1.638 1.465 1.588z"/></g><path d="M119.87 111.69c-.242-3.454.336-8.279 1.406-9.511l14.541.079c1.401.056 3.485-1.007 5.702-2.193 1.272-.681 4.121-.939 5.518-.797.872 1.567 2.957 5.734 4.321 9.871s-.943 7.532-2.267 8.711c-1.427.58-3.108 1.15-6.664.751-2.252-1.112-2.047-3.017-.558-5.126-.219-.902-1.568-.963-3.418-.648-5.53.94-12.559 3.488-16.785 4.933-.642.102-1.661-4.161-1.796-6.069z" class="L"/><g class="B"><path d="M128.02 102.56c-.98-.009-1.78.623-1.788 1.413s.78 1.439 1.76 1.448 1.779-.623 1.787-1.413-.78-1.438-1.759-1.448zm-3.28-.32l-.43.028h-.009c-.267 1.195-1.637 7.811.129 14.461l.415-.082c-1.835-6.807-.301-13.595-.105-14.407zm-1.83-.05h-.412c-.428 1.972-1.555 8.405.241 15.106a11.11 11.11 0 0 1 .441-.052c-1.82-6.755-.631-13.397-.27-15.054zM99.872 41.088c.245-.733.255-1.275.382-2.422.892 0 2.422-.255 4.079-.51 0 1.912-1.487 5.754-3.697 7.776-1.248 1.143-2.039 1.785-3.951 2.167-.772.154-1.785-.255-2.167-.637-.325-.325-.765-.892-.765-.892l.765-.765s2.727-.877 3.824-2.167l.008-.01c.508-.597 1.106-1.3 1.522-2.54z"/></g><g class="F G H I"><path d="M133.27 90.547c-.51-.51-.764-1.02-1.402-2.04m-.128 2.805c-.51-.382-.893-1.02-1.275-1.657m-.765 2.294c-.51-.382-1.147-.765-1.147-1.657"/></g></g><path d="M35.263 60.664c-.386.016-6.433-.772-2.831 2.702s12.738 3.731 15.054.901-2.445-3.989-12.223-3.603z" class="C"/><path d="M36.207 59.275s-3.8-6.658-3.635-11.92 4.626 0 4.626 0-.165-12.166 3.304-12.002 2.809 14.468 2.809 14.468.826-3.372 3.139-2.508-2.313 11.962-2.313 11.962h-7.931z" class="J"/><path d="M43.683 56.935c-5.328-2.599-9.931.513-10.676 5.641 0 0 2.602 1.585 6.995 1.585s7.097-.674 7.097-.674c0-1.516 0-4.886-3.416-6.552z" class="D"/><path d="M67.565 73.551s-3.8-6.659-3.635-11.92 4.626 0 4.626 0-.165-12.166 3.305-12.002 2.809 14.468 2.809 14.468.826-3.372 3.139-2.508-2.313 11.962-2.313 11.962h-7.93z" class="J"/><g opacity=".45"><path d="M64.365 76.852c-.59 4.058 1.415 35.6 5.093 51.772.071.313.347.523.667.523.272 0 .517-.155.625-.405 4.93-11.338 7.27-30.295 7.27-46.762 0-2.615 2.234-7.948-2.979-10.768s-9.931.513-10.676 5.64z" class="D"/><g fill="#e86500"><path d="M67.492 79.386c.082.036 1.401.6 3.372.6a10.54 10.54 0 0 0 3.474-.591c.12-.042.184-.174.145-.294-.045-.12-.177-.173-.295-.144-3.588 1.254-6.479.018-6.508.009-.12-.06-.255 0-.304.117a.23.23 0 0 0 .117.303zm.187 3.925a.22.22 0 0 0-.304.117c-.051.117 0 .252.117.303.082.036 1.401.6 3.372.6a10.43 10.43 0 0 0 1.163-.066l-.09-.039c-.114-.054-.165-.189-.114-.306.003-.006.009-.011.013-.017-.037-.024-.069-.05-.101-.076-2.367.202-4.034-.505-4.057-.515zm3.186 5.365a10.48 10.48 0 0 0 3.474-.597c.12-.042.183-.171.141-.291s-.174-.186-.292-.141c-2.417.844-4.514.558-5.636.278.102.191.175.367.225.532a10.04 10.04 0 0 0 2.088.218zm-1.831 4.418c2.197 0 4.367-.223 5.642-.667.12-.042.183-.174.144-.294-.045-.12-.177-.177-.295-.144-1.849.646-6.55.629-7.733.462a3.93 3.93 0 0 1-.728.348c.555.118 2.14.295 2.969.295zm-1.355 3.249c-.12-.06-.255 0-.304.117a.23.23 0 0 0 .117.303c.079.035 3.231 1.048 5.882.597l1.136-.51a23.84 23.84 0 0 1-6.832-.507zm0 4.347a.22.22 0 0 0-.304.117c-.051.117 0 .252.117.303.059.026.785.335 1.941.498.199-.315.527-.381.527-.381s-.009 0-.032-.009l-.081-.032c-1.317-.138-2.153-.49-2.169-.496zm-.358 4.34c-.118-.054-.255.015-.298.129s.009.252.129.297c.09.036 1.555.597 3.621.597a10.83 10.83 0 0 0 3.564-.591c.01-.004.017-.011.026-.015l-.086.009a3.97 3.97 0 0 1-1.315-.096c-3.073.64-5.612-.322-5.641-.33zm.343 4.34c-.12-.039-.253.018-.295.139s.018.251.138.293c.099.036 1.699.594 3.853.594 1.113 0 2.37-.147 3.648-.591.12-.042.183-.174.144-.294-.045-.12-.18-.177-.294-.144-3.6 1.254-7.159.01-7.195.003zm6.523 4.34c-3.561 1.245-5.549.036-5.567.024-.109-.066-.25-.036-.319.072s-.036.249.073.318c.057.036.998.615 2.731.615.878 0 1.961-.15 3.233-.591.12-.042.183-.174.144-.294-.045-.12-.177-.174-.295-.144zm-.791 4.34c-2.039.681-3.979.009-3.997.004-.121-.039-.25.02-.295.137s.018.252.138.294c.057.021.96.333 2.196.333.634 0 1.359-.084 2.103-.329.123-.043.186-.172.147-.292s-.174-.192-.291-.147z"/></g></g><path d="M75.04 71.212c-5.329-2.599-9.931.513-10.676 5.64 0 0 2.602 1.585 6.995 1.585s7.097-.674 7.097-.674c0-1.516 0-4.886-3.416-6.552z" class="D"/><path d="M60.893 73.512c-.179 1.163.597 1.603 1.007 1.678-.651.559-.141 2.1 1.343 2.014 0 1.871 1.066 2.253 1.79 1.678-.469 1.85 1.007 2.105 2.126 1.566.895-.224 1.79-1.79 1.566-2.237-.206-.413-.224-.671-1.678-.559.448-.336 1.007-1.343.671-1.902-.269-.448-1.231-.261-1.678-.112.448-.261 1.231-.94.783-1.566s-1.343-.597-1.79-.336c.597-.485 1.522-1.566.448-2.014-1.343-.559-4.363.336-4.587 1.79z" class="E"/><g class="F G H I"><path d="M61.886 75.251c.373-.41 1.423-1.425 3.034-1.515m-1.76 3.554c.373-.41 1.509-1.261 2.74-1.485m-.827 3.142c.382-.637 1.402-1.147 2.085-1.296"/></g><path d="M36.995 85.388s3.032 8.001 4.407 23.126.369 33.464.369 33.464l-30.296 3.869s.846-26.602.425-36.357 1.987-26.957 5.647-32.788c5.912-3.928 15.713-.337 19.448 8.687z" class="B"/><g fill="#fdb082"><path d="M25.641 66.3v5.023h4.895l.458-5.023h-5.353z"/><path d="M25.641 66.301v5.023h-5.677l1.484-10.593 4.192 5.57z"/></g><g class="M"><path d="M25.641 66.3v5.023h4.895l.458-5.023h-5.353z"/><path d="M25.641 66.301v5.023h-5.677l1.484-10.593 4.192 5.57zm11.508-12.949s.295 1.878.817 2.568 1.261.776 1.465 1.108.532.942-.324 1.771-2.198.513-2.198.513-.696-5.399.24-5.96z"/><path d="M36.48 45.946c-1.451-5.148-7.676-5.837-9.478-5.934-4.42-.246-10.859 1.03-12.802 6.012-1.638 4.185-2.436 10.491 4.963 16.987s17.257 6.031 17.257 6.031 1.646-.302 1.764-6.011c.085-4.095-.935-5.934-1.029-9.495-.083-3.066.287-4.172-.676-7.59z"/></g><path d="M39.451 57.224c.015.295-.273.549-.642.566s-.679-.208-.693-.504.275-.548.642-.566.679.208.693.503z" fill="#ffc7ab"/><path d="M39.431 57.034c.145.184.247.398.297.627a1.53 1.53 0 0 1-.01.694c-.182.806-.837 1.285-2.26 1.396-.448-.526-.097-.56-.097-.56s2.933-.401 2.07-2.157zm-14.1-1.616s-.375-1.811-1.69-1.901-2.331 1.361-2.177 2.954 1.132 3.939 2.366 4.639 1.969-.622 1.969-.622l-.468-5.071z" fill="#e98146"/><path d="M25.332 55.418s-.837-2.12-2.15-1.477-1.87 2.15-.906 4.599 2.744 3.816 3.816 1.409-.759-4.531-.759-4.531z" class="M"/><g fill="#e98146"><path d="M22.571 57.124s-.676-1.6.409-2.181 1.918 1.747 1.418 4.431c.103-1.733-.262-3.388-.78-4.03s-1.451.037-1.046 1.78z"/><path d="M23.203 57.757a2.14 2.14 0 0 1 .112-1.42c.336-.713.695-.47.695-.47l.102.263s-.782-.301-.91 1.627z"/></g><g fill="#755142"><path d="M34.776 43c-.871-.266-1.779-.395-2.69-.383-1.449.035-3.844.888-4.91 4.67s.643 8.038.604 8.358-1.956.512-1.956.512-.279-2.198-1.631-2.805-3.099.886-3.01 2.788 1.24 5.103 3.095 5.386c-.942 2.139-3.923 2.911-3.923 2.911s-4.104-2.405-6.883-4.685c-2.869-2.353-3.506-4.631-3.603-6.18-.03-.457-1.508-3.693-.665-6.77s2.559-3.981 2.559-3.981 1.018-5.128 8.183-6.605c5.635-1.16 8.74 1.222 9.201 1.306S35.41 39.999 34.776 43z"/><path d="M30.672 39.891s-2.062-4.66-7.842-4.876-5.816.708-8.496 1.446-4.078-1.022-4.078-1.022-.144 2.954 2.901 3.102c-1.108.67-2.574-.564-2.574-.564s.79 1.302 1.53 1.62 1.199.293 1.199.293l-1.357.263.52.398-.862 2.75 19.058-3.411z"/></g><path d="M17.545 76.702c-.201.238 4.293-1.395 9.3-.407s10.151 9.094 10.151 9.094-1.434-3.769-3.136-7.331-3.471-5.098-3.323-6.733H19.964s-1.073 3.775-2.419 5.378z" class="M"/><g fill="#fdb082"><use xlink:href="#D"/><path d="M34.776 79.284l22.782 17.751c3.41 2.756 11.633-4.471 7.475-8.519S38.837 75.592 38.837 75.592s-2.215-.738-3.322 1.108-.738 2.584-.738 2.584z" fill-opacity=".5"/><path d="M60.328 97.355s-15.224 3.276-27.687 2.993-16.456-3.27-16.017-8.597 5.399-7.515 12.714-7.277 28.701.878 31.634 1.846 5.401 9.316-.645 11.035z"/><path d="M85.675 90.819L56.089 86.42c-4.331-.681-7.839 9.689-2.214 11.115s32.013-2.278 32.013-2.278l-.213-4.438z"/><path d="M83.109 90.494l.267.027c.921.07 1.863.347 2.782.239 1.187-.14 2.306-.573 3.25-1.259.252-.186.533-.401.848-.354.137.032.265.1.368.197a.78.78 0 0 1 .217.349c.251.697-.146.974-.428 1.548a.43.43 0 0 0-.053.312.44.44 0 0 0 .177.207c.715.516 1.652.513 2.519.591s1.847.341 2.257 1.124c.327.618.176 1.403-.237 1.949s-1.032.893-1.674 1.132c-1.615.591-3.282.507-4.92.19l-3.555-.754c-.577-.103-1.16-.165-1.743-.183-.577-.012-1.159.075-1.734-.054s-.898-.718-1.128-1.26c-.489-1.143-.338-2.499-.073-3.649.02-.135.072-.263.154-.372a.77.77 0 0 1 .522-.194c.731-.065 1.46.129 2.183.213z"/><path d="M34.494 79.016l-.218-.157c-.763-.521-1.44-1.232-2.29-1.598-1.098-.472-2.283-.657-3.444-.535-.312.035-.662.08-.911-.117-.103-.097-.179-.219-.22-.354a.78.78 0 0 1-.013-.411c.131-.729.613-.77 1.145-1.127.096-.052.167-.139.202-.244a.44.44 0 0 0-.05-.268c-.361-.805-1.174-1.27-1.886-1.771s-1.429-1.219-1.392-2.102c.026-.698.549-1.303 1.18-1.569s1.34-.258 2.015-.144c1.694.296 3.096 1.202 4.355 2.296l2.701 2.43a11.99 11.99 0 0 0 1.418 1.03c.494.299 1.388.818 1.821 1.216s.509 1.043.298 1.477c-.44.904-1.255 2.208-2.06 3.072-.084.107-.194.191-.319.245a.77.77 0 0 1-.549-.093c-.666-.309-1.2-.842-1.783-1.276z" fill-opacity=".5"/></g><mask id="A" x="102.037" y="17.149" width="28" height="93" fill="#000" maskUnits="userSpaceOnUse"><path d="M102.04 17.149h28v93h-28z" class="B"/><path d="M105.01 18.26c7.227 5.06 13.153 11.759 17.295 19.549s6.382 16.449 6.536 25.27a55.9 55.9 0 0 1-5.65 25.483c-3.867 7.93-9.557 14.832-16.603 20.141l-2.249-2.985c6.575-4.954 11.884-11.395 15.493-18.794s5.415-15.548 5.272-23.779-2.234-16.312-6.099-23.581-9.395-13.52-16.139-18.242l2.144-3.062z"/></mask><path d="M105.01 18.26c7.227 5.06 13.153 11.759 17.295 19.549s6.382 16.449 6.536 25.27a55.9 55.9 0 0 1-5.65 25.483c-3.867 7.93-9.557 14.832-16.603 20.141l-2.249-2.985c6.575-4.954 11.884-11.395 15.493-18.794s5.415-15.548 5.272-23.779-2.234-16.312-6.099-23.581-9.395-13.52-16.139-18.242l2.144-3.062z" fill="#7f2221"/><path d="M105.01 18.26c7.227 5.06 13.153 11.759 17.295 19.549s6.382 16.449 6.536 25.27a55.9 55.9 0 0 1-5.65 25.483c-3.867 7.93-9.557 14.832-16.603 20.141l-2.249-2.985c6.575-4.954 11.884-11.395 15.493-18.794s5.415-15.548 5.272-23.779-2.234-16.312-6.099-23.581-9.395-13.52-16.139-18.242l2.144-3.062z" mask="url(#A)" stroke="#7f2221" class="N"/><mask id="B" class="B"><path d="M107.51 20.119a55.91 55.91 0 0 1 15.396 18.858c3.684 7.34 5.706 15.403 5.921 23.613s-1.381 16.368-4.676 23.891-8.206 14.228-14.386 19.638l-2.305-2.633c5.793-5.071 10.398-11.356 13.486-18.409a52.41 52.41 0 0 0 4.383-22.396c-.202-7.697-2.097-15.254-5.551-22.135s-8.381-12.917-14.432-17.677l2.164-2.75z"/></mask><path d="M107.51 20.119a55.91 55.91 0 0 1 15.396 18.858c3.684 7.34 5.706 15.403 5.921 23.613s-1.381 16.368-4.676 23.891-8.206 14.228-14.386 19.638l-2.305-2.633c5.793-5.071 10.398-11.356 13.486-18.409a52.41 52.41 0 0 0 4.383-22.396c-.202-7.697-2.097-15.254-5.551-22.135s-8.381-12.917-14.432-17.677l2.164-2.75z" fill="#ffedca" mask="url(#B)" stroke="#b2828b" class="N"/><g fill="#ff4343"><path d="M112.47 24.524c10.484 10.484 16.374 24.704 16.374 39.531h-3.499c0-13.899-5.521-27.229-15.349-37.057l2.474-2.474z"/><path d="M128.85 64.055c0 13.443-4.843 26.435-13.643 36.597l-2.645-2.291c8.249-9.526 12.789-21.705 12.789-34.306h3.499z"/></g></g><defs><clipPath id="C"><path d="M0 11.704C0 5.419 5.095.323 11.381.323h130.62v127.46H11.381C5.096 127.783 0 122.688 0 116.403v-104.7z" class="B"/></clipPath><path id="D" d="M60.34 97.355s-15.224 3.276-27.687 2.993-16.456-3.27-16.017-8.597 5.399-7.515 12.714-7.277 28.701.878 31.634 1.846 5.401 9.316-.645 11.035z"/></defs></svg>