<?xml version="1.0" encoding="UTF-8"?>
<svg width="142" height="128" fill="none" viewBox="0 0 142 128" xmlns="http://www.w3.org/2000/svg">
 <g clip-path="url(#clip0_54_11503)">
  <path d="m0 11.491c0-6.2854 5.0953-11.381 11.381-11.381h130.62v127.46h-130.62c-6.2854 0-11.381-5.095-11.381-11.381v-104.7z" fill="#FFE6B5"/>
  <g opacity=".8">
   <path d="m21.253 69.455c-14.011-6.8977-38.589-7.9059-52.415-0.2213-6.1477 3.4243-11.594 7.451-17.951 10.66-8.5207 4.3033-11.994 12.793-10.58 22.131 0.8115 5.38 3.0739 10.279 7.8137 13.212 3.2214 1.992 12.258 5.201 15.172 1.66 2.7234 12.793 19.734 17.625 28.808 7.66-1.6291 1.789 7.1743 4.149 8.1272 4.229 4.0636 0.344 9.1293 0 12.338-2.748 3.8546-3.289 3.9837-7.236 5.4837-11.533 5.1088 1.42 11.066-1.229 14.509-5.238 12.074-14.084 3.9222-32.324-11.306-39.812z" fill="#61630D"/>
   <path d="m16.482 101.55c-0.2919-2.9488-1.31-5.7791-2.9631-8.2381-5.1948-7.451-15.326-10.943-24.13-10.23-9.9531 0.8053-18.197 7.3772-20.754 17.011-1.5677 5.926 1.1373 17.053 6.2214 20.742 5.7174 4.162 13.648 2.459 17.638-3.215-1.1926 1.703 6.7624 4.303 7.7399 4.5 3.0431 0.645 5.4591 0.418 8.158-1.303 6.0001-3.843 8.9141-11.964 8.0903-19.267z" fill="#5B7119"/>
   <path d="m46.212 71.183c-2.8034-6.1477-8.2441-13.162-15.461-14.189-5.1088-0.7254-12.597 0.1414-17.65 1.0267-12.812 2.2439-23.509 12.91-23.933 26.214-0.3013 9.4428 2.7357 20.902 9.91 27.579 6.0555 5.631 16.599 2.575 21-3.763 1.8443-2.699 4.1558-7.955 2.1025-10.684 8.7666 4.7335 18.634 6.7625 23.939-4.3033 3.0677-6.3813 2.9817-15.517 0.0923-21.88z" fill="#2D3C01"/>
   <path d="m-4.8203 116.29c1.4351-2.249 3.0468-4.381 4.8198-6.375 1.5425-1.745 3.1846-3.399 4.9181-4.955-0.15706-0.523-0.41615-1.01-0.76231-1.432-2.0041 1.192-3.6394 3.178-5.41 4.703-2.1148 1.844-4.2542 3.608-6.3628 5.44-2.1086 1.832-3.4919 2.318-3.5964 5.103-0.1414 3.873-0.6701 8.416 1.3341 11.97-0.61477-1.039 0.56559-4.458 0.86683-5.57 0.54656-1.996 1.3287-3.919 2.33-5.73 0.60862-1.113 1.2234-2.152 1.8628-3.154z" fill="#825931"/>
   <path d="m-13.384 65.815c-1.7091 3.83-1.5677 8.1027-1.4078 12.203 0.0983 2.459-0.6148 4.2296-3.5103 2.7541-2.121-1.082-4.3034-2.8464-5.4592-4.9796-1.6844 1.6599 2.9878 5.41 3.9407 6.5596 3.1168 3.7501 5.3792 6.6272 5.7481 11.631 0.3135 4.3034-0.4181 8.6069-0.4181 12.91v30.855c0 6.486-0.1045 12.91-0.4119 19.316-0.1906 4.076-1.5799 9.173-0.873 13.242 4.6354 1.66 12 0.615 16.814 0.339-6.7624-13.771-8.3178-29.577-9.8363-44.651-0.79044-7.351-1.2008-14.738-1.2296-22.132 0-3.645 0.35044-7.1125 0.09838-10.764 0-0.2766-0.03688-0.5533-0.06762-0.8361-0.45496-4.8751-1.3402-9.8363-1.6046-14.662-0.2274-3.5595 0.7992-8.7912-1.7828-11.785z" fill="#825931"/>
   <path d="m39.535 43.18c-4.9981-4.0451-14.545-7.3157-20.287-2.9324 3.6394-11.742-8.9142-23.742-19.488-25.279-8.4592-1.2296-23.859 0.8729-25.304 11.613-6.2522-5.4837-13.691-5.5329-19.949-2.4591 0.0935-0.7381 0.1408-1.4814 0.1414-2.2254 0-1.0636 0-3.996-1.2295-4.58-2.1394-1.0328-2.8833 6.5288-3.0001 7.6108-0.6148-1.3341-1.3709-2.6435-2.8833-3.0431-1.2295-0.332-2.9017 0.0984-3.0246 1.5922-0.0799 0.9529 1.1435 2.6067 1.709 3.289 0.5768 0.7094 1.2541 1.3307 2.0103 1.8443-5.2624 5.2256-8.3055 12.855-6.5534 20.349-11.853 4.8074-17.152 18.578-8.9141 29.57 5.9878 7.992 19.918 8.951 27.019 1.6967-3.6886 8.2687 2.6497 22.458 10.58 26.158 9.0862 4.242 20.127-0.701 26.742-7.0761 2.5697-2.459 4.4878-5.2501 5.1948-7.992 6.7133 2.7112 12.633 4.1128 19.851 2.1456 11.386-3.0739 20.607-13.525 24.314-24.314 2.994-8.6743 0.3566-20.078-6.9284-25.968zm-65.079-16.599s-0.0123 0.0185 0 0.0185v-0.0185z" fill="#739A20"/>
   <path d="m39.535 43.18c-4.9981-4.0451-14.545-7.3157-20.287-2.9324 3.6394-11.742-8.9142-23.742-19.488-25.279-8.4592-1.2296-23.859 0.8729-25.304 11.613-6.2522-5.4837-13.691-5.5329-19.949-2.4591 0.0935-0.7381 0.1408-1.4814 0.1414-2.2254 0-1.0636 0-3.996-1.2295-4.58-2.1394-1.0328-2.8833 6.5288-3.0001 7.6108-0.6148-1.3341-1.3709-2.6435-2.8833-3.0431-1.2295-0.332-2.9017 0.0984-3.0246 1.5922-0.0799 0.9529 1.1435 2.6067 1.709 3.289 0.5768 0.7094 1.2541 1.3307 2.0103 1.8443-5.2624 5.2256-8.3055 12.855-6.5534 20.349-11.853 4.8074-17.152 18.578-8.9141 29.57 5.9878 7.992 19.918 8.951 27.019 1.6967-3.6886 8.2687 2.6497 22.458 10.58 26.158 9.0862 4.242 20.127-0.701 26.742-7.0761 2.5697-2.459 4.4878-5.2501 5.1948-7.992 6.7133 2.7112 12.633 4.1128 19.851 2.1456 11.386-3.0739 20.607-13.525 24.314-24.314 2.994-8.6743 0.3566-20.078-6.9284-25.968zm-0.498 20.527c-2.7418 17.164-24.757 25.9-39.29 16.82-1.6391 2.4356-3.8188 4.4596-6.369 5.914-7.0945 4.0575-17.115 4.3587-23.976-0.461-3.9882-2.6868-7.0683-6.5193-8.8342-10.992-3.3812 0.8422-7.0083 1.4509-10.328 1.0144-3.4857-0.4611-7.0637-1.1004-9.5842-3.8608-2.7911-3.0738-4.4017-7.5554-2.9447-11.68 1.2295-3.5411 3.5472-7.451 7.1497-9.0248 0.664-0.289 1.3218-0.5472 1.9796-0.7931-0.6611-2.8772-0.6737-5.8654-0.0369-8.7481 1.4877-6.7625 6.2153-12.91 12.793-15.295 4.9181-1.7767 12.258-0.3443 15.744 3.7377 4.248-9.0616 11.447-14.017 21.793-12.338 3.9591 0.6147 7.7952 2.9816 10.795 5.8095 3.6456 3.4366 5.4653 7.9121 7.0821 12.547 0.4427 1.2664 0.7746 5.0841 1.7091 5.951 1.2787 1.1803 5.6313 0.418 7.4571 0.8852 6.2768 1.5923 11.373 7.2174 14.078 12.966 1.0108 2.3814 1.2828 5.0115 0.7807 7.5493z" fill="#000" opacity=".1"/>
   <path d="m0.84817 20.095c-11.926-4.3894-21.043 5.0042-23.57 15.818-4.0267-6.9223-18.179-5.9879-23.361-1.7582-5.1825 4.2296-7.1313 18.474-1.6599 23.023 7.6785 6.3751 16.488 1.6414 22.611-4.4448 2.416 8.4838 17.73 9.8363 24.339 6.953 8.8404-3.873 10.045-13.968 4.6968-21.136 7.7952-3.1045 2.8402-16.285-3.0554-18.455zm-35.613 25.206c-5.4899 3.3136-10.666-2.8464-5.2747-6.9161 5.5329-4.1805 12.148 2.5574 5.4284 6.8177l-0.1537 0.0984z" fill="#BCD84D" opacity=".3"/>
   <path d="m18.351 69.037c4.9182 3.0739 11.625 2.9817 15.295-2.7849 5.4653-8.6067-0.7377-17.545-10.396-17.213-5.705 0.209-9.6211 1.8443-10.691 7.9919-0.8853 5.1333 1.8689 9.5658 5.7911 12.006z" fill="#B3C31A" opacity=".3"/>
   <path d="m28.101 125.46c-1.4386-5.834-9.2216-0.965-5.908 3.313 2.3177 2.994 6.7994 0.302 5.908-3.313z" fill="#7F8211"/>
   <path d="m32.005 31.868c-1.4386-5.8342-9.2216-0.9652-5.908 3.3135 2.3239 2.994 6.7994 0.3013 5.908-3.3135z" fill="#AECC44"/>
   <path d="m20.636 63.562c15.99-7.8724 44.042-9.0231 59.822-0.2526 7.0164 3.9081 13.233 8.5038 20.488 12.166 9.725 4.9115 13.689 14.601 12.076 25.259-0.927 6.14-3.509 11.732-8.918 15.079-3.677 2.273-13.991 5.936-17.317 1.894-3.1083 14.601-22.523 20.116-32.879 8.743 1.8593 2.041-8.1882 4.736-9.2757 4.827-4.6378 0.393-10.419 0-14.082-3.137-4.3993-3.753-4.5466-8.258-6.2586-13.162-5.8307 1.621-12.63-1.404-16.559-5.978-13.78-16.075-4.4765-36.892 12.903-45.438z" fill="#2D3C01"/>
   <path d="m26.08 100.19c0.3333-3.365 1.4952-6.5952 3.3819-9.4017 5.9289-8.5038 17.492-12.489 27.539-11.675 11.36 0.9192 20.768 8.4197 23.687 19.414 1.7892 6.7636-1.298 19.464-7.1006 23.674-6.5252 4.75-15.576 2.806-20.13-3.67 1.3612 1.944-7.718 4.912-8.8336 5.136-3.4731 0.737-6.2306 0.477-9.3108-1.487-6.848-4.386-10.174-13.654-9.2336-21.99z" fill="#5B7119"/>
   <path d="m-7.851 65.533c3.1995-7.0164 9.409-15.022 17.646-16.194 5.8306-0.8279 14.377 0.1614 20.144 1.1717 14.622 2.561 26.831 14.734 27.315 29.918 0.3438 10.777-3.1223 23.856-11.31 31.476-6.9111 6.427-18.944 2.94-23.968-4.294-2.1049-3.08-4.7431-9.0795-2.3996-12.195-10.005 5.4027-21.267 7.7177-27.322-4.9115-3.5012-7.283-3.403-17.709-0.10525-24.971z" fill="#61630D"/>
   <path d="m69.757 138.43c-0.7858-0.751-1.0033-3.087-1.0454-4.098-0.0783-1.702 0.2538-3.399 0.9682-4.946 1.3121-2.807 4.0485-3.347 6.2095-0.934 1.1577 1.292 2.5751 2.316 3.7117 3.628 0.7929 0.919 3.0451 3.396 2.4557 4.813-1.0454 2.526-7.4373-3.34-8.3705-4.21 0.5052 1.593 0.842 3.298-0.1403 4.786-0.8139 1.248-2.547 2.14-3.7889 0.961z" fill="#61630D"/>
   <path d="m50.392 117.02c-1.6379-2.567-3.4774-5-5.5009-7.276-1.7605-1.992-3.6346-3.88-5.6131-5.655 0.1793-0.597 0.475-1.153 0.87-1.635 2.2874 1.361 4.1537 3.628 6.1745 5.368 2.4136 2.105 4.8553 4.118 7.2619 6.209s3.9853 2.645 4.1046 5.824c0.1614 4.42 0.7648 9.605-1.5225 13.661 0.7016-1.186-0.6455-5.087-0.9893-6.357-0.6238-2.278-1.5165-4.473-2.6593-6.539-0.6946-1.27-1.3962-2.456-2.1259-3.6z" fill="#825931"/>
   <path d="m60.165 59.408c1.9506 4.3712 1.7892 9.2476 1.6068 13.928-0.1123 2.8066 0.7016 4.8273 4.0064 3.1434 2.4206-1.2349 4.9114-3.2486 6.2305-5.6833 1.9225 1.8944-3.4099 6.1744-4.4975 7.4865-3.5573 4.28-6.1393 7.5637-6.5603 13.275-0.3578 4.9115 0.4771 9.8227 0.4771 14.735v35.215c0 7.402 0.1193 14.734 0.4701 22.046 0.2175 4.651 1.8032 10.468 0.9963 15.113-5.2903 1.894-13.696 0.702-19.19 0.386 7.718-15.717 9.4932-33.756 11.226-50.96 0.9021-8.39 1.3705-16.821 1.4033-25.259 0-4.161-0.3999-8.1183-0.1123-12.286 0-0.3158 0.0421-0.6315 0.0772-0.9543 0.5192-5.564 1.5296-11.226 1.8313-16.734 0.2596-4.0625-0.9121-10.033 2.0347-13.45z" fill="#825931"/>
   <path d="m67.505 78.282c-3.5573 4.28-6.1394 7.5637-6.5603 13.275-0.3579 4.9114 0.4771 9.8234 0.4771 14.734v14.257c-1.9787 0.428-3.9292 1.039-5.9149 1.502 0.5333-6.392 0.8841-12.889 0.8631-19.204 0-4.1608-0.4-8.118-0.1123-12.286 0-0.3157 0.0421-0.6314 0.0772-0.9542 0.5192-5.564 1.5295-11.226 1.8313-16.734 0.2245-4.1046-0.9473-10.076 1.9926-13.492 1.9506 4.3712 1.7892 9.2476 1.6068 13.928-0.1123 2.8066 0.7016 4.8273 4.0063 3.1434 2.4207-1.2349 4.9115-3.2486 6.2306-5.6833 1.9225 1.9225-3.417 6.2025-4.4975 7.5145z" fill="#825931"/>
   <path d="m67.505 78.282c-3.5573 4.28-6.1394 7.5637-6.5604 13.275-0.3578 4.9114 0.4772 9.8234 0.4772 14.734v6.195c-1.7682 0.33-3.5574 0.702-5.3395 1.13 0.1894-3.613 0.3017-7.22 0.2877-10.77 0-4.1608-0.4-8.118-0.1123-12.286 0-0.3157 0.0421-0.6314 0.0772-0.9542 0.5192-5.564 1.5295-11.226 1.8313-16.734 0.2245-4.1046-0.9473-10.076 1.9926-13.492 1.9506 4.3712 1.7892 9.2476 1.6068 13.928-0.1123 2.8066 0.7016 4.8273 4.0063 3.1434 2.4207-1.2349 4.9115-3.2486 6.2306-5.6833 1.9225 1.9225-3.417 6.2025-4.4975 7.5145z" fill="#603813"/>
   <path d="m64.179 97.163c-1.6995-6.8225-1.2685-14.002 1.2348-20.572 2.0488-5.1921 2.2453-10.525 3.6415-15.885 7.5848-29.209 53.036-26.782 58.236 2.4136 1.185 6.6025 0.505 13.906-2.639 19.906-3.83 7.3181-9.31 8.2373-16.734 10.026-0.081 3.5763-0.893 7.0978-2.385 10.349-5.143 11.43-25.533 15.794-34.317 6.54-2.9469-3.179-6.0552-8.567-7.0374-12.777z" fill="#819D2E"/>
   <path d="m-0.23117 33.574c5.7043-4.6168 16.601-8.3496 23.154-3.3469-4.1537-13.401 10.174-27.097 22.242-28.851 9.6546-1.4033 27.231 0.99633 28.88 13.254 7.1357-6.2586 15.626-6.3148 22.768-2.8066-0.1067-0.8424-0.1606-1.6907-0.1614-2.5399 0-1.2138 0-4.5607 1.4033-5.2272 2.4415-1.1788 3.2905 7.4514 3.4245 8.6863 0.701-1.5226 1.564-3.0171 3.29-3.4731 1.403-0.37889 3.312 0.11226 3.452 1.8172 0.091 1.0876-1.305 2.975-1.95 3.7538-0.659 0.8095-1.432 1.5186-2.295 2.1049 6.006 5.9639 9.48 14.671 7.48 23.224 13.527 5.4868 19.576 21.204 10.174 33.749-6.834 9.1214-22.734 10.216-30.838 1.9366 4.2099 9.437-3.024 25.63-12.075 29.854-10.37 4.842-22.972-0.8-30.521-8.0756-2.9329-2.8066-5.122-5.992-5.9289-9.1214-7.6619 3.0943-14.419 4.694-22.656 2.4488-12.994-3.5082-23.519-15.436-27.75-27.75-3.417-9.9001-0.40695-22.916 7.9075-29.637zm74.276-18.944s0.014 0.021 0 0.021v-0.021z" fill="#739A20"/>
   <path d="m-0.23117 33.574c5.7043-4.6168 16.601-8.3496 23.154-3.3469-4.1537-13.401 10.174-27.097 22.242-28.851 9.6546-1.4033 27.231 0.99633 28.88 13.254 7.1357-6.2586 15.626-6.3148 22.768-2.8066-0.1067-0.8424-0.1606-1.6907-0.1614-2.5399 0-1.2138 0-4.5607 1.4033-5.2272 2.4415-1.1788 3.2905 7.4514 3.4245 8.6863 0.701-1.5226 1.564-3.0171 3.29-3.4731 1.403-0.37889 3.312 0.11226 3.452 1.8172 0.091 1.0876-1.305 2.975-1.95 3.7538-0.659 0.8095-1.432 1.5186-2.295 2.1049 6.006 5.9639 9.48 14.671 7.48 23.224 13.527 5.4868 19.576 21.204 10.174 33.749-6.834 9.1214-22.734 10.216-30.838 1.9366 4.2099 9.437-3.024 25.63-12.075 29.854-10.37 4.842-22.972-0.8-30.521-8.0756-2.9329-2.8066-5.122-5.992-5.9289-9.1214-7.6619 3.0943-14.419 4.694-22.656 2.4488-12.994-3.5082-23.519-15.436-27.75-27.75-3.417-9.9001-0.40695-22.916 7.9075-29.637zm0.56833 23.428c3.1293 19.59 28.255 29.56 44.842 19.197 1.8707 2.7798 4.3584 5.0897 7.2689 6.7497 8.097 4.6309 19.534 4.9747 27.364-0.5262 4.5517-3.0664 8.0671-7.4405 10.082-12.545 3.8591 0.9612 7.9987 1.6559 11.788 1.1577 3.978-0.5262 8.062-1.2559 10.939-4.4063 3.185-3.5082 5.023-8.6231 3.36-13.331-1.403-4.0415-4.048-8.5039-8.16-10.3-0.757-0.3298-1.508-0.6245-2.259-0.9051 0.755-3.2838 0.769-6.6943 0.042-9.9844-1.698-7.718-7.0934-14.734-14.601-17.457-5.6131-2.0277-13.991-0.3929-17.969 4.266-4.8483-10.342-13.064-15.997-24.873-14.082-4.5185 0.70164-8.8968 3.403-12.321 6.6305-4.1607 3.9222-6.2376 9.0301-8.0829 14.32-0.5051 1.4453-0.884 5.8025-1.9505 6.7918-1.4594 1.3472-6.427 0.4771-8.5109 1.0104-7.1638 1.8172-12.98 8.2372-16.068 14.798-1.1536 2.7179-1.464 5.7197-0.89108 8.6161z" fill="#000" opacity=".1"/>
   <path d="m43.923 7.227c13.612-5.0097 24.017 5.7113 26.901 18.053 4.5957-7.9005 20.748-6.834 26.662-2.0067 5.9149 4.8273 8.1389 21.084 1.8944 26.276-8.7635 7.276-18.818 1.8734-25.806-5.0729-2.7574 9.6827-20.235 11.226-27.778 7.9356-10.09-4.4203-11.465-15.941-5.3605-24.122-8.8968-3.5433-3.2416-18.586 3.4871-21.063zm40.646 28.767c6.2656 3.7819 12.173-3.2486 6.0201-7.8934-6.3148-4.7712-13.864 2.9188-6.1955 7.7812l0.1754 0.1122z" fill="#BCD84D" opacity=".3"/>
   <path d="m23.947 63.085c-5.6131 3.5082-13.268 3.4029-17.457-3.1785-6.2376-9.8229 0.84197-20.025 11.865-19.646 6.5113 0.2386 10.981 2.105 12.202 9.1214 1.0103 5.8586-2.133 10.918-6.6095 13.703z" fill="#B3C31A" opacity=".3"/>
   <path d="m74.717 1.0946c3.5573-3.4591 11.802 3.0451 7.0164 6.4691-3.1153 2.2242-9.823-1.6839-7.718-5.5359 0.1856-0.34455 0.4222-0.65915 0.7016-0.93318z" fill="#98B936"/>
   <path d="m116.18 30.57c1.711-0.2459 3.45 0.19 4.842 1.2139 6.714 5.564-5.789 12.763-6.785 1.4032-0.055-0.3007-0.047-0.6094 0.022-0.9071 0.07-0.2976 0.199-0.5779 0.382-0.8232 0.182-0.2454 0.413-0.4508 0.677-0.6033 0.265-0.1525 0.559-0.249 0.862-0.2835z" fill="#98B936"/>
   <path d="m12.819 127.48c1.6418-6.658 10.524-1.101 6.7427 3.782-2.6452 3.417-7.7601 0.344-6.7427-3.782z" fill="#7F8211"/>
   <path d="m8.3637 20.664c1.6418-6.6586 10.525-1.1016 6.7427 3.7818-2.6522 3.417-7.7601 0.3438-6.7427-3.7818z" fill="#AECC44"/>
   <path d="m86.358 132.02c1.6419-6.659 10.525-1.095 6.7428 3.782-2.6452 3.424-7.7602 0.343-6.7428-3.782z" fill="#7F8211"/>
   <path d="m186.5 129.69c-0.999-1.047-2.236-1.837-3.606-2.305-0.265-0.092-0.539-0.159-0.817-0.199 2.398-5.04 2.285-12.153 0.877-17.214-0.308-1.109-0.704-2.193-1.182-3.24-6.98-15.401-22.268-27.674-39.947-24.573-16.211 2.8291-39.614 13.887-40.836 32.794-0.458 7.08 3.905 16.444 9.437 20.807 3.048 2.404 6.482 3.772 10.407 3.321 3.148-0.346 10.426-3.135 10.054-6.336 1.734 7.929 8.262 12.419 16.238 11.954 6.973-0.385 18.044-5.127 19.552-12.798-0.366 1.853 6.767 2.239 7.77 1.993 1.591-0.383 3.058-1.165 4.263-2.271 0 1.122-0.093 2.251 0 3.373 0.093 1.123 0.299 3.865 1.514 4.337 2.165 0.837 2.312-6.528 2.338-7.604 0.664 1.242 1.534 2.45 3.022 2.723 1.235 0.225 2.796-0.319 2.802-1.774 0.02-0.863-1.288-2.37-1.886-2.988z" fill="#2D3C01"/>
   <path d="m128.98 175.08c-1.994 1.394-4.375 2.125-6.807 2.092-2.331 0-4.649-0.597-4.649-3.035 0-3.519 7.903-1.706 9.61-5.817 5.015-11.897 7.639-24.665 7.724-37.576-0.021-9.644-1.641-19.217-4.795-28.331 0-0.724 0.458-1.089 0.71-1.089 6.575 0 6.821 16.138 13.714 16.138 7.199 0 6.708-16.543 11.41-16.543 0.239 0 0.438 0.066 0.438 0.325-0.895 6.8-1.35 13.65-1.361 20.508 0 9.836 1.262 42.955 13.03 48.102 1.029 0.451 2.218 1.561 2.218 2.862-0.018 0.558-0.254 1.087-0.658 1.472-0.403 0.385-0.943 0.596-1.501 0.587-4.137 0-10.865-1.787-16.33-1.787-3.985 0-7.837 0.897-11.078 3.939-0.493 0.499-1.164 0.783-1.866 0.79-2.656 0-4.609-3.533-5.592-3.533-0.982 0-2.437 0.93-3.792 0.93-0.142-1e-3 -0.284-0.012-0.425-0.034z" fill="#992108"/>
   <path d="m168.01 169.88c-11.768-5.146-13.03-38.266-13.03-48.101 0.012-6.858 0.467-13.709 1.362-20.508 0-0.259-0.199-0.326-0.439-0.326-4.701 0-4.21 16.543-11.409 16.543-6.894 0-7.139-16.137-13.714-16.137-0.252 0-0.711 0.365-0.711 1.089 3.154 9.113 4.774 18.687 4.795 28.331-0.016 7.114-0.838 14.203-2.45 21.132l0.265 0.252c3.167 3.152 5.456 7.076 6.642 11.383 0.305 2.285 0.617 4.569 0.923 6.854v0.617c-3e-3 2.242-0.295 4.475-0.87 6.642 0.474-0.126 0.909-0.37 1.261-0.711 3.241-3.042 7.067-3.938 11.078-3.938 5.466 0 12.193 1.786 16.33 1.786 0.558 9e-3 1.098-0.202 1.501-0.587 0.404-0.385 0.64-0.914 0.658-1.472 0.026-1.288-1.162-2.397-2.192-2.849z" fill="#872108"/>
   <path d="m168.01 169.88c-11.768-5.146-13.03-38.266-13.03-48.101 0.012-6.858 0.467-13.709 1.362-20.508 0-0.259-0.199-0.326-0.439-0.326-4.701 0-4.21 16.543-11.409 16.543-6.894 0-7.139-16.137-13.714-16.137-0.252 0-0.711 0.365-0.711 1.089 3.154 9.113 4.774 18.687 4.795 28.331-0.016 7.114-0.838 14.203-2.45 21.132l0.265 0.252c3.167 3.152 5.456 7.076 6.642 11.383 0.305 2.285 0.617 4.569 0.923 6.854v0.617c-3e-3 2.242-0.295 4.475-0.87 6.642 0.474-0.126 0.909-0.37 1.261-0.711 3.241-3.042 7.067-3.938 11.078-3.938 5.466 0 12.193 1.786 16.33 1.786 0.558 9e-3 1.098-0.202 1.501-0.587 0.404-0.385 0.64-0.914 0.658-1.472 0.026-1.288-1.162-2.397-2.192-2.849z" fill="#603813"/>
   <path d="m138.86 127.41c5.4 0.442 10.826 0.475 16.231 0.1-0.079-2.312-0.113-4.277-0.113-5.738 0.012-6.858 0.467-13.709 1.362-20.508 0-0.259-0.199-0.326-0.439-0.326-4.701 0-4.21 16.543-11.409 16.543-6.894 0-7.139-16.137-13.714-16.137-0.252 0-0.711 0.365-0.711 1.089 2.691 7.791 4.257 15.927 4.649 24.16 1.402 0.299 2.77 0.578 4.144 0.817z" fill="#825931"/>
   <path d="m124.12 128.28c-7.159-2.882-8.242-6.515-12.492-12.094-3.653-4.775-3.427 2.285-3.161 4.795 0.598 5.559 2.789 8.242 7.159 11.516 7.777 5.824 22.122 10.526 26.312 19.923 1.88 4.191 2.245 8.554 2.238 13.077 0 3.752-0.398 9.218 3.686 11.13 5.771 2.71 9.683-1.182 10.825-6.734 1.328-6.501-1.328-11.794-3.832-17.612-4.15-9.616-12.744-17.267-22.46-21.006-2.643-1.049-5.532-1.893-8.275-2.995z" fill="#603813"/>
   <path d="m122.79 136.95c3.609-1.977 7.371-3.661 11.25-5.034-0.545-0.233-1.089-0.465-1.647-0.664-2.657-1.03-5.532-1.873-8.275-2.976-7.159-2.875-8.242-6.508-12.492-12.087-3.653-4.775-3.427 2.285-3.161 4.795 0.598 5.559 2.789 8.242 7.159 11.516 2.291 1.635 4.684 3.121 7.166 4.45z" fill="#825931"/>
   <path d="m115.62 132.5c0.518 0.385 1.069 0.764 1.64 1.149 0.541-0.328 1.085-0.646 1.634-0.956 2.298-1.295 4.649-2.551 7.04-3.719-0.611-0.226-1.216-0.452-1.82-0.664-7.159-2.909-8.242-6.542-12.492-12.121-3.653-4.775-3.427 2.285-3.161 4.795 0.598 5.559 2.763 8.275 7.159 11.516z" fill="#603813"/>
   <path d="m96.136 56.074c-14.132 4.1175-20.674 18.821-16.35 30.961 1.6725 4.6021 4.7452 8.5644 8.7862 11.33-6.2759 1.1489-6.1364 10.234-4.33 16.981-0.7577-0.243-1.5295-0.441-2.3111-0.591-1.0095-0.172-3.8054-0.717-4.5758 0.339-1.368 1.866 5.7048 3.925 6.7341 4.23-1.3747 0.339-2.7627 0.844-3.4135 2.212-0.5379 1.129-0.425 2.782 0.9829 3.168 0.8899 0.239 2.6564-0.631 3.4401-1.043 0.7724-0.425 1.4792-0.96 2.0986-1.587 5.8442 7.863 18.927 9.503 27.228 5.578 11.529-5.425 21.471-16.782 25.004-29.002 6.821-23.456-19.571-49.496-43.293-42.576z" fill="#819D2E"/>
   <path d="m198.64 47.792c-3.261-6.8603-14.072-15.334-21.497-17.207-4.742-1.202-10.792-2.2712-15.441 0.4716 0.046-0.7143 0.046-1.4308 0-2.1451-0.558-9.7691-9.961-14.504-19.259-14.411-0.492 0-0.99 0-1.501 0.0399 0.522-0.6349 1.005-1.3002 1.448-1.9924 0.531-0.8832 2.045-3.3205 1.328-4.3898-1.249-1.9591-5.725 3.8984-6.382 4.7484 0.186-1.4012 0.219-2.8756-0.824-3.9846-0.863-0.90983-2.444-1.4013-3.32-0.23244-0.551 0.75045-0.385 2.7362-0.272 3.5862 0.147 1.1085 0.499 2.1802 1.036 3.1612-7.06 1.5076-13.947 5.0539-16.105 12.107-13.282-12-28.889 2.2846-21.092 17.194-10.36 4.33-13.329 15.275-13.329 25.974 0 10.931 6.9931 22.938 18.595 24.386-0.958 2.7121-1.48 5.5587-1.547 8.4347 0 11.867 15.228 18.482 21.915 6.92-0.803 1.388 11.582 6.993 12.944 7.577 4.835 2.079 9.224 3.088 14.61 2.159 9.65-1.667 18.489-8.189 19.565-18.41-0.066 0.664 5.731-0.159 6.323-0.272 8.195-1.5341 13.156-9.5234 9.297-17.466 14.292-2.756 18.688-25.369 13.508-36.247z" fill="#98B936"/>
   <path d="m198.64 47.792c-3.261-6.8603-14.072-15.334-21.497-17.207-4.742-1.202-10.792-2.2712-15.441 0.4716 0.046-0.7143 0.046-1.4308 0-2.1451-0.558-9.7691-9.961-14.504-19.259-14.411-0.492 0-0.99 0-1.501 0.0399 0.522-0.6349 1.005-1.3002 1.448-1.9924 0.531-0.8832 2.045-3.3205 1.328-4.3898-1.249-1.9591-5.725 3.8984-6.382 4.7484 0.186-1.4012 0.219-2.8756-0.824-3.9846-0.863-0.90983-2.444-1.4013-3.32-0.23244-0.551 0.75045-0.385 2.7362-0.272 3.5862 0.147 1.1085 0.499 2.1802 1.036 3.1612-7.06 1.5076-13.947 5.0539-16.105 12.107-13.282-12-28.889 2.2846-21.092 17.194-10.36 4.33-13.329 15.275-13.329 25.974 0 10.931 6.9931 22.938 18.595 24.386-0.958 2.7121-1.48 5.5587-1.547 8.4347 0 11.867 15.228 18.482 21.915 6.92-0.803 1.388 11.582 6.993 12.944 7.577 4.835 2.079 9.224 3.088 14.61 2.159 9.65-1.667 18.489-8.182 19.565-18.41-0.066 0.664 5.731-0.159 6.323-0.272 8.195-1.5341 13.156-9.5234 9.297-17.466 14.292-2.756 18.688-25.369 13.508-36.247zm-13.946 25.568c-1.875 2.1202-4.367 3.5996-7.126 4.2304-0.098 0.9065-0.303 1.7982-0.611 2.6564-1.508 4.1574-4.742 7.7702-9.225 8.7464-1.815 0.3996-3.69 0.4515-5.525 0.1528-0.113 0.1793-0.219 0.3586-0.339 0.5313-3.06 4.6446-7.678 8.0433-13.023 9.5831-5.266 1.4077-10.626 0.7967-14.989-2.6564-0.199-0.1594-0.385-0.3321-0.571-0.4981-1.465 1.1395-3.078 2.0735-4.795 2.776-2.35 0.9282-4.878 1.3162-7.398 1.1342-2.52-0.1817-4.967-0.9279-7.159-2.1835-3.985-2.3908-7.1-6.8271-6.754-11.615-1.057-0.0986-2.108-0.2538-3.148-0.4649-6.6814-1.3879-13.748-6.0367-15.222-13.149-0.8694-4.0957-0.3193-8.3654 1.56-12.107 1.8792-3.7416 4.9757-6.7323 8.7803-8.4805 1.7536-0.794 3.5626-1.4599 5.4126-1.9924-0.698-1.8914-0.909-3.9277-0.616-5.9223 0.294-1.9945 1.083-3.8834 2.296-5.4938 2.384-3.1545 5.831-5.977 9.856-6.6411 0.715-0.1147 1.44-0.1636 2.165-0.1461 3.244-4.1594 7.744-7.1615 12.83-8.5604 7.857-2.3377 17.42-0.3852 23.158 5.7114 2.444 2.5319 4.108 5.7132 4.795 9.1647 3.659-1.2158 7.523-1.6965 11.369-1.4145 8.634 0.7902 17.394 6.1961 19.432 15.215 1.614 7.2588-0.079 15.812-5.14 21.424h-0.013z" fill="#000" opacity=".1"/>
   <path d="m155.36 35.015c-2.291-1.4345-11.39-2.5436-11.682 2.0388 1.395-22.195-34.534 0.9032-19.83 9.1117-3.52-1.6736-6.296 4.2636-6.887 7.1657-1.083 5.1602 1.673 10.181 5.598 13.296 5.619 4.4495 11.018 4.0909 16.603 0.1129 2.763-1.9924 7.85-5.8309 6.17-9.6695 5.977 2.6565 13.946-0.4715 16.131-7.1591 1.528-4.8016-1.8-12.206-6.103-14.896zm-23.105 10.194c-0.026 0.3966-0.134 0.7834-0.318 1.1357l-0.08 0.1461c-0.061 0.2777-0.202 0.5316-0.405 0.7305-0.146 0.1501-0.32 0.2692-0.513 0.3502-0.193 0.0811-0.4 0.1223-0.61 0.1213-0.409 0.0285-0.818-0.0524-1.186-0.2344-0.368-0.1821-0.68-0.4588-0.906-0.8016-0.176-0.3133-0.261-0.67-0.245-1.0294-0.043-0.1262-0.066-0.2585-0.067-0.3918 3e-3 -0.3692 0.142-0.7242 0.392-0.9962 0.171-0.2851 0.42-0.5155 0.717-0.6641 0.301-0.1776 0.641-0.2801 0.99-0.2988 0.299-2e-4 0.593 0.0801 0.85 0.2324 0.057 0.0393 0.117 0.0748 0.179 0.1063l0.392 0.2191c0.245 0.1372 0.448 0.3367 0.591 0.5782 0.142 0.2414 0.218 0.5163 0.219 0.7965zm1.249-7.5044-0.664 0.6641c-0.145 0.1366-0.303 0.259-0.472 0.3652-0.147 0.2207-0.343 0.4036-0.574 0.534s-0.489 0.2045-0.754 0.2165c-0.274-0.0027-0.542-0.0784-0.777-0.2192-0.267-0.0505-0.519-0.158-0.74-0.315s-0.406-0.3599-0.542-0.5948c-0.131-0.2391-0.214-0.5018-0.244-0.7731-0.029-0.2712-5e-3 -0.5457 0.072-0.8075 0.021-0.1965 0.063-0.3902 0.126-0.5778 0-0.0531 0.046-0.0996 0.066-0.1461 0.266-1.2153 1.468-1.7798 2.703-1.7599 0.312 0.0055 0.615 0.0971 0.878 0.2648 0.263 0.1676 0.474 0.4047 0.61 0.6849 0.203 0.1248 0.375 0.2936 0.504 0.4939 0.129 0.2002 0.212 0.4269 0.242 0.6633s6e-3 0.4765-0.069 0.7026-0.2 0.4325-0.365 0.6041zm7.006 4.9011c-0.17 0.2055-0.372 0.3826-0.597 0.5247-0.291 0.1999-0.637 0.3043-0.99 0.2988-0.424-0.0285-0.825-0.2074-1.129-0.5047-0.131-0.1178-0.236-0.2629-0.305-0.4251-0.271-0.1342-0.491-0.3534-0.625-0.6242-0.152-0.2623-0.232-0.5601-0.232-0.8634 0-0.3032 0.08-0.601 0.232-0.8633 0.185-0.283 0.442-0.5122 0.744-0.6641 0.206-0.093 0.412-0.1727 0.618-0.2524l0.152-0.0598h0.054c0.173-0.0743 0.362-0.1083 0.551-0.0996h0.113c0.207 0.0094 0.414 0.036 0.617 0.0797 0.418 0.117 0.775 0.3905 0.997 0.7637 0.091 0.1599 0.152 0.3356 0.179 0.5181 0.186 0.2668 0.286 0.5844 0.285 0.9098-3e-3 0.2477-0.065 0.4912-0.181 0.7104-0.115 0.2193-0.281 0.4082-0.483 0.5514z" fill="#BCD84D" opacity=".3"/>
   <path d="m97.657 77.233c15.938 19.312 27.746-25.661 5.2463-23.297-11.11 1.1688-10.732 16.656-5.2463 23.297z" fill="#BCD84D" opacity=".3"/>
   <path d="m92.53 43.363c1.295-2.3244-0.6641-6.3555-3.9448-5.7313-4.8946 0.9298-2.8159 7.9163 1.6138 7.2389 0.4796-0.0504 0.9407-0.2131 1.3457-0.4751 0.405-0.2619 0.7426-0.6156 0.9853-1.0325z" fill="#AECC44"/>
  </g>
  <path d="m29.668 97.125c1.5116 6.8549-0.0869 8.4829 0.1397 13.019 0.0642 1.285 0.2452 2.16 1.5709 2.897 1.6571 0.921 3.5904 1.995 11.625 2.628 8.0343 0.633 10.821-1.65 12.129-2.441 1.046-0.634 0.9559-3.542 0.7801-4.917-0.1954-8.4945 1.3552-10.869 3.8319-16.522 1.8848-4.3025 17.95-22.413 18.846-23.506 0.8962-1.0925 3.4811-8.476-2.6138-8.1759-6.0949 0.3-9.1895 9.6415-13.529 8.6037-3.4715-0.8303-5.1777-5.6004-5.5968-7.8816-0.7543-5.4076 2.0988-21.973 1.6174-27.368-0.1901-2.1297-3.4735-4.6777-6.4138-2.1186-3.8268 3.3307-3.4649 27.571-6.5276 26.447-3.0626-1.1234-5.0426-23.84-5.8342-25.147-0.7916-1.3075-3.1361-2.6826-6.4938-0.2831-3.3576 2.3995 3.2805 28.572 0.4571 28.449-2.8234-0.123-7.2163-16.156-8.3699-18.893s-5.2901-5.1811-7.482-0.3261c-2.0149 4.4631 8.805 25.135 6.3558 26.16-2.4491 1.0247-8.242-8.8456-14.208-11.51-5.9657-2.6645-5.3467 5.8486 0.54513 10.207 10.688 7.9062 17.282 22.11 19.171 30.679z" fill="#FDB082"/>
  <path d="m30.052 105.92c0.2835-2.211 0.5712-4.456-0.3846-8.7903-0.9313-4.2233-2.6855-9.2727-5.6795-14.523 1.3151-6.8612 10.685-16.328 21.141-14.485 10.667 1.8794 11.094 24.528 9.5412 27.713-0.535 1.0971-0.8238 1.9365-1.0687 2.648-0.466 1.3544-0.7727 2.2451-2.314 3.5691 0.4835 5.83 0.3104 10.636-0.2166 13.088-1.8382 0.505-4.4089 0.822-8.0682 0.534-8.0344-0.633-9.9677-1.708-11.625-2.629-1.3257-0.736-1.5067-1.611-1.5709-2.897-0.0834-1.668 0.08-2.942 0.2449-4.228z" clip-rule="evenodd" fill="#F39863" fill-rule="evenodd"/>
  <path d="m72.771 61.14c6.317-1.3352 5.8533 1.8963 4.4804 5.3875-1.3998 3.5598-6.9287 9.6935-10.295 12.281-4.8108 4.8728-7.7487 10.057-10.32 14.595-1.9369 3.418-3.6659 6.4693-5.8311 8.7445-5.8606 4.664-14.207 3.997-20.574 2.228-0.0503 0.531-0.115 1.036-0.1795 1.539-0.1649 1.286-0.3283 2.561-0.245 4.228 0.0643 1.286 0.2453 2.161 1.571 2.898 1.6571 0.92 3.5904 1.995 11.625 2.628 7.3906 0.582 10.341-1.303 11.784-2.225 0.1257-0.08 0.24-0.153 0.3447-0.217 1.046-0.633 0.9559-3.541 0.7801-4.916-0.1743-7.576 1.0402-10.284 3.0618-14.791 0.2452-0.5467 0.5022-1.1198 0.7701-1.7313 1.6108-3.6769 13.579-17.44 17.584-22.045 0.6812-0.7834 1.1321-1.3018 1.2624-1.4606 0.8962-1.0925 3.4811-8.476-2.6138-8.1759-1.1685 0.0575-2.2268 0.4473-3.2047 1.0327z" clip-rule="evenodd" fill="#FECB9C" fill-rule="evenodd" opacity=".25"/>
  <path d="m27.96 47.553c-3.8655 4.8941 0.6484 16.575 4.7117 20.16 4.934 4.3766 13.095 0.7521 16.59-4.1144 3.0166-4.2034 7.1677-19.881 0.8672-23.022-8.2155-4.2073-9.8288 16.317-8.8514 20.984-0.2103-4.59-7.4461-21.461-13.317-14.008z" fill="#61630D"/>
  <path d="m56.609 91.489c-13.645 14.093-43.876-6.2369-27.244-23.581 17.388-18.074 43.478 6.8203 27.244 23.581z" fill="#D4291D"/>
  <path d="m46.072 64.098c0.7442 0.2928 1.432 0.7112 2.0334 1.2371 0.5023 0.508 0.9526 1.065 1.3442 1.6627l0.0923 0.0923 0.171 0.3037c0.5715 1.1233 0.78 2.3982 0.5969 3.6496 0.0599 0.2155 0.0947 0.4373 0.1038 0.6611 0.0616 1.6273-0.4753 3.2245-1.5093 4.4897-1.0541 1.17-2.5052 1.9061-4.0681 2.0635-1.1091 0.1032-2.2236-0.0943-3.2262-0.5718-0.8849-0.4146-1.7069-0.9507-2.4424-1.593-0.6298-0.5176-1.1341-1.1711-1.4753-1.9121-0.3411-0.741-0.5105-1.5504-0.4956-2.368-0.2203-0.7529-0.2845-1.5437-0.1888-2.3242 0.0958-0.7805 0.3495-1.5343 0.7457-2.2154 0.3357-0.758 0.8184-1.4425 1.4202-2.0137 0.6017-0.5711 1.3104-1.0175 2.0846-1.3131 0.7743-0.2955 1.5987-0.4343 2.4251-0.4083 0.8265 0.0261 1.6384 0.2164 2.3885 0.5599z" fill="#FF8753"/>
  <path d="m59.045 15.906c-2.2861 0.9786-2.9287 5.9303-2.1878 7.9602 0.8953 2.4727 4.4446 2.7567 6.5956 1.7172 1.8572-0.8983 6.2964-5.6004 4.6873-7.9007-2.0772-3.0383-6.5503 3.8452-7.0964 5.6664 0.8002-1.6482 1.4775-8.9367-1.9987-7.4431z" fill="#61630D"/>
  <path d="m60.717 36.753c-7.4639 2.3396-14.184-10.539-5.0551-13.449 9.5334-3.0215 13.934 10.668 5.0551 13.449z" fill="#D4291D"/>
  <path d="m62.241 25.151c0.205 0.2443 0.3663 0.5218 0.4769 0.8206 0.0792 0.2736 0.1309 0.5545 0.1543 0.8384l0.0148 0.0499 0.0021 0.139c-0.0137 0.5024-0.1834 0.9887-0.4858 1.3923-0.02 0.0869-0.0501 0.1712-0.0895 0.2513-0.2883 0.5819-0.7805 1.0392-1.3836 1.2856-0.5921 0.2093-1.2406 0.1908-1.8182-0.0516-0.4082-0.175-0.761-0.4564-1.0214-0.8146-0.231-0.3137-0.417-0.6581-0.5524-1.0231-0.1221-0.3013-0.1743-0.6262-0.1527-0.9508 0.0215-0.3246 0.1163-0.6404 0.2772-0.924 0.0661-0.3057 0.1942-0.595 0.3764-0.8502 0.1821-0.2552 0.4145-0.471 0.683-0.6342 0.2619-0.2016 0.5614-0.3495 0.881-0.4351 0.3195-0.0855 0.6528-0.107 0.9803-0.0631 0.3276 0.0439 0.6428 0.1522 0.9274 0.3187s0.5328 0.3877 0.7302 0.6509z" fill="#FF8753"/>
  <path d="m-1.7095 39.849c-0.49595 2.4368 3.2105 5.7827 5.3012 6.3284 2.5429 0.6707 4.7959-2.0865 5.165-4.4468 0.31797-2.0384-1.0229-8.3644-3.8302-8.35-3.6804-0.0205-0.56484 7.5745 0.62201 9.0598-0.9-1.5958-6.5083-6.2998-7.258-2.5914z" fill="#61630D"/>
  <path d="m16.386 50.337c-2.3229 7.4691-16.738 5.668-13.936-3.4951 2.9396-9.5589 16.7-5.3886 13.936 3.4951z" fill="#D4291D"/>
  <path d="m7.7114 42.482c0.31751-0.0296 0.63752-0.0043 0.94613 0.0747 0.2701 0.0905 0.53048 0.2078 0.7773 0.3502l0.04945 0.0162 0.11548 0.0774c0.40528 0.297 0.70868 0.7133 0.86858 1.1916 0.06 0.0659 0.1123 0.1386 0.1557 0.2167 0.3145 0.568 0.4105 1.2331 0.27 1.8692-0.1648 0.606-0.549 1.1288-1.077 1.4658-0.3762 0.2361-0.80838 0.3662-1.2511 0.3765-0.38947 0.0115-0.77842-0.0315-1.1557-0.1279-0.3172-0.071-0.61416-0.213-0.8688-0.4154s-0.46044-0.46-0.60211-0.7537c-0.21375-0.2283-0.37879-0.4982-0.48502-0.7933-0.10624-0.295-0.15144-0.6089-0.13286-0.9225-0.01681-0.3301 0.03196-0.6605 0.14345-0.972s0.28347-0.5977 0.50591-0.8421c0.22245-0.2444 0.49092-0.442 0.78973-0.5813 0.29882-0.1393 0.62201-0.2175 0.95074-0.2301z" fill="#FF8753"/>
  <path d="m121.02 39.547c-1.541 1.9515 0.259 6.609 1.879 8.0387 1.968 1.7451 5.222 0.2999 6.615-1.6405 1.203-1.6761 2.858-7.9273 0.346-9.18-3.276-1.6777-3.919 6.5063-3.529 8.3672-0.084-1.8303-2.969-8.5576-5.311-5.5854z" fill="#61630D"/>
  <path d="m132.45 57.066c-5.441 5.6197-17.495-2.4869-10.863-9.4027 6.933-7.207 17.336 2.7195 10.863 9.4027z" fill="#D4291D"/>
  <path d="m128.25 46.144c0.297 0.1167 0.571 0.2836 0.811 0.4933 0.2 0.2026 0.38 0.4246 0.536 0.663l0.037 0.0368 0.068 0.1211c0.228 0.4479 0.311 0.9562 0.238 1.4552 0.024 0.0859 0.038 0.1744 0.041 0.2636 0.025 0.6489-0.189 1.2858-0.601 1.7903-0.421 0.4665-0.999 0.76-1.622 0.8228-0.443 0.0411-0.887-0.0376-1.287-0.228-0.353-0.1653-0.681-0.3791-0.974-0.6352-0.251-0.2064-0.452-0.467-0.588-0.7625-0.136-0.2954-0.204-0.6182-0.198-0.9442-0.087-0.3002-0.113-0.6155-0.075-0.9267 0.038-0.3113 0.139-0.6118 0.297-0.8834 0.134-0.3022 0.327-0.5752 0.567-0.8029 0.24-0.2278 0.522-0.4058 0.831-0.5236 0.309-0.1179 0.637-0.1732 0.967-0.1628 0.329 0.0103 0.653 0.0862 0.952 0.2232z" fill="#FF8753"/>
  <path d="m87.985 43.184c-2.4538 0.4038-4.2615 5.0583-4.0274 7.2064 0.2782 2.615 3.6566 3.7394 5.9938 3.2442 2.018-0.4282 7.4527-3.9326 6.4402-6.551-1.2906-3.4467-7.2796 2.1678-8.2453 3.8055 1.171-1.409 3.5711-8.3242-0.1613-7.7051z" fill="#61630D"/>
  <path d="m84.624 63.827c-7.8068 0.4874-11.254-13.625-1.6932-14.267 9.9792-0.6547 10.979 13.689 1.6932 14.267z" fill="#D4291D"/>
  <path d="m88.878 52.925c0.1406 0.2862 0.2309 0.5943 0.2668 0.9108 0.0116 0.2846-0.0054 0.5697-0.0506 0.851l0.0024 0.052-0.0312 0.1355c-0.1333 0.4845-0.4143 0.9162-0.8044 1.2357-0.0403 0.0796-0.0896 0.1543-0.1471 0.2227-0.419 0.4961-1.0063 0.8225-1.6508 0.9175-0.6249 0.0616-1.2503-0.1113-1.7531-0.4847-0.3545-0.2676-0.6299-0.6252-0.7971-1.0352-0.1493-0.3599-0.2475-0.7387-0.2917-1.1256-0.0466-0.3216-0.0196-0.6497 0.079-0.9597 0.0985-0.31 0.266-0.594 0.49-0.8309 0.1374-0.281 0.3309-0.5313 0.5688-0.7356s0.5151-0.3582 0.8148-0.4525c0.3026-0.1332 0.6287-0.2052 0.9595-0.2118 0.3307-0.0067 0.6594 0.0522 0.967 0.1731 0.3075 0.1209 0.5877 0.3014 0.8243 0.5311 0.2365 0.2297 0.4246 0.5039 0.5534 0.8066z" fill="#FF8753"/>
  <path d="m98.086 90.646 26.921 4.9681s-0.249 2.5172-0.456 8.6504v8.309c-6.418 2.687-13.418 3.427-20.181 2.186-2.606-0.478-4.266-2.925-4.185-5.573 0.114-3.759 0.153-7.631-0.072-9.481-0.513-4.2083-2.0272-9.0595-2.0272-9.0595z" fill="#FDB082"/>
  <path d="m108.47 96.63c0.15 0.0317 0.285 0.1159 0.381 0.2381 0.096 0.1221 0.148 0.2747 0.146 0.4317-1e-3 0.157-0.056 0.3086-0.154 0.429-0.098 0.1203-0.234 0.202-0.384 0.2309-2.825 0.5312-5.712 0.6165-8.5617 0.2532-0.3099-1.8637-0.7534-3.7274-1.1242-5.1395 3.0609 1.629 6.3229 2.8254 9.6969 3.5566zm10.114-0.1366c1.309-0.3435 2.587-0.7985 3.822-1.3602l2.604 0.4807s-0.371 6.1253-0.456 8.6503v8.309c-0.951 0.4-1.921 0.758-2.911 1.075 0.336-2.553 0.646-5.378 0.796-7.984 0.402-7.0188-2.383-7.7425-2.571-7.7834-0.456-0.0927-0.885-0.189-1.276-0.2839-0.12-0.0293-0.228-0.0993-0.305-0.1987s-0.12-0.2226-0.121-0.3497 0.04-0.2509 0.116-0.3516c0.075-0.1006 0.182-0.1722 0.302-0.2035z" fill="#F39863"/>
  <path d="m127.34 58.077c1.098 1.0935 1.972 2.4017 2.57 3.8475 0.597 1.4457 0.906 2.9997 0.909 4.5701v15.574c0.016 2.8355-0.599 5.6372-1.798 8.1921-0.958 2.0527-2.325 3.8762-4.012 5.3527 0 0-4.093 1.542-15.662 1.542l-14.132-14.459-1.2248-11.222 33.35-13.397z" fill="#FDB082"/>
  <path d="m93.989 71.473 33.35-13.397c1.098 1.0935 1.972 2.4017 2.569 3.8475 0.598 1.4457 0.907 2.9997 0.91 4.5701v4.2548c0.032 1.5601-0.49 3.079-1.468 4.2739s-2.346 1.9846-3.849 2.2222c-6.251 1.0374-11.156 5.9541-12.712 10.712-0.141 0.4443-0.415 0.8317-0.782 1.1073-0.368 0.2756-0.811 0.4255-1.266 0.4282-0.522-3e-4 -1.026-0.1951-1.418-0.5481s-0.646-0.8401-0.715-1.3708c-0.316-2.4203-1.267-6.4186-4.114-7.6772-3.475-1.5365-7.207-1.5558-9.803-1.9949l-0.7016-6.4285z" fill="#F39863"/>
  <path d="m119.85 58.76 1.54-1.1175c0.431-0.3127 0.945-0.4807 1.473-0.4807h2.536c0.345 0 0.686 0.0716 1.003 0.2106s0.603 0.3424 0.841 0.598c0.239 0.2556 0.424 0.5581 0.545 0.8892s0.176 0.6839 0.161 1.0373l-0.419 9.6651s-0.063 0.9023-0.214 2.0089c0 0-7.466 1.8395-7.466 0.6075v-13.418z" fill="#FDB082"/>
  <path d="m121.39 57.642c0.153-0.1105 0.317-0.2034 0.49-0.2772 0.651 0.7288 1 1.6889 0.973 2.677l0.254 11.098c2e-3 0.0977 0.024 0.194 0.063 0.283 0.04 0.089 0.097 0.1687 0.167 0.2344 0.071 0.0656 0.154 0.1159 0.244 0.1476s0.186 0.0443 0.281 0.0369l3.454-0.2709c-0.044 0.3273-0.096 0.6717-0.157 1.0166-0.186 1.0575-1.045 1.9416-2.092 1.9416h-3.242c-1.201 0-2.14-1.1133-2.14-2.3453l0.165-13.424 1.54-1.1175z" fill="#F39863"/>
  <path d="m113.89 56.88h3.793c0.864-0.0083 1.702 0.3003 2.363 0.8703 0.662 0.57 1.103 1.3637 1.244 2.238 0.012 0.0844 0.023 0.1712 0.032 0.2604v12.651s0.222 3.209-4.782 3.209-5.377-5.192-5.377-5.192l0.503-11.852c0.025-0.5881 0.27-1.1435 0.685-1.5505 0.414-0.407 0.965-0.6342 1.539-0.6342z" fill="#FDB082"/>
  <path d="m111.16 70.917 0.503-11.852c0.025-0.5881 0.27-1.1437 0.684-1.5508 0.415-0.4071 0.966-0.6343 1.54-0.6343h0.03c0.203 0.6558 0.297 1.3417 0.28 2.0295-0.035 1.5473 0.196 10.532 0.277 13.601 8e-3 0.2765 0.119 0.5394 0.311 0.7334 0.192 0.1941 0.45 0.3042 0.72 0.3074l4.345 0.0566c0.857-0.1237 1.27-0.4289 1.469-0.7084v0.2994s0.27 3.0371-4.768 3.0308c-5.051-0.0058-5.391-5.3128-5.391-5.3128z" fill="#F39863"/>
  <path d="m101.14 55.406-5.0158 0.3691c-0.3761 0.0233-0.7312 0.186-0.9993 0.4578-0.268 0.2718-0.4308 0.6342-0.458 1.0198l-0.6763 12.666c1.2109 5.2441 4.2303 8.2535 9.0584 9.028v-22.066c-0.048-0.8788-1.019-1.5454-1.909-1.4742z" fill="#FDB082"/>
  <path d="m103.05 56.88c0.333-0.586 0.811-1.0722 1.384-1.4101s1.223-0.5158 1.884-0.5158h2.341c1.004 1e-4 1.966 0.4091 2.675 1.137 0.71 0.728 1.108 1.7153 1.108 2.7448v12.216s0.07 2.0621-0.608 3.8063c0 0-1.393 2.3853-3.012 2.3853h-0.562l-5.481-0.4493 0.271-19.914z" fill="#FDB082"/>
  <path d="m103.05 56.88c0.273-0.4799 0.644-0.8938 1.087-1.2136 0.265 0.6703 0.398 1.3878 0.391 2.1111l-0.028 19.158-1.722-0.1411 0.272-19.914z" fill="#F39863"/>
  <path d="m103.05 77.244h-0.384l-4.263-0.0968c-2.1822-1.5309-3.653-3.9405-4.4126-7.229l0.4215-7.8932 8.6381-0.9901v16.209z" fill="#F39863"/>
  <path d="m103.05 78.946c-4.8298-0.7745-7.8496-3.7838-9.0599-9.028l0.0014-0.0242 9.0585-5.4488v14.501z" fill="#F39863"/>
  <path d="m103.05 76.89-0.057-15.849 2.719-0.3117c0.14-0.0162 0.281 0.0128 0.404 0.083 0.122 0.0702 0.22 0.178 0.28 0.3084 0.767 1.6841 3.088 7.8469-1.117 13.251-0.034 0.0445-0.057 0.0965-0.068 0.1519-0.012 0.0554-0.01 0.1126 4e-3 0.1673s0.04 0.1053 0.077 0.1478c0.036 0.0425 0.082 0.0758 0.133 0.0972l8e-3 0.0039c2.086 0.6814 4.331 0.6524 6.399-0.0826-0.495 1.278-1.457 2.493-3.076 2.493h-0.603l-2.973-0.106-2.13-0.3543z" fill="#F39863"/>
  <path d="m105.12 62.933-7.037 0.7261-3.5995 0.5277-3.0022 0.379c-0.6092 0.0756-1.1881 0.3153-1.6778 0.6947-0.4898 0.3794-0.873 0.885-1.1107 1.4655-1.4818 3.6387-2.1845 7.5616-2.0605 11.503 0.0683 1.5789 0.5436 3.1109 1.3774 4.4398 1.7095 2.7391 5.1109 7.7067 8.661 10.153 0 0 5.7323 4.1792 12.672 4.3339 0 0 3.591-10.828-2.675-17.687-1.005-1.1263-2.242-2.0072-3.622-2.578-1.239-0.4683-2.401-0.4717-3.5358-0.4717-0.1057-0.9308-0.0547-1.8733 0.1507-2.7864 0 0 8.0501-1.0616 5.4591-10.7z" fill="#FDB082"/>
  <path d="m105.05 62.639 0.01 0.0242c0.291 0.7248 0.313 1.5342 0.059 2.274-0.253 0.7397-0.762 1.358-1.431 1.737-1.043 0.5918-2.459 1.1047-4.3804 1.4118 0 0-1.1794-1.359-1.2177-4.4268l6.9601-1.0202z" fill="#fff" fill-opacity=".5"/>
  <path d="m99.664 73.632c-1.1588 0.1316-2.3316 0.0025-3.4368-0.3783-0.0814-0.03-0.1695-0.0351-0.2537-0.0146s-0.1607 0.0657-0.2203 0.13c-0.0596 0.0644-0.0997 0.1451-0.1153 0.2324s-0.0062 0.1774 0.0272 0.2593c0.4204 1.0526 1.4423 2.5576 3.8479 2.5576l0.151-2.7864z" fill="#F39863"/>
 </g>
 <defs>
  <clipPath id="clip0_54_11503">
   <path d="m0 11.491c0-6.2854 5.0953-11.381 11.381-11.381h130.62v127.46h-130.62c-6.2854 0-11.381-5.095-11.381-11.381v-104.7z" fill="#fff"/>
  </clipPath>
 </defs>
</svg>
