<svg xmlns="http://www.w3.org/2000/svg" xmlns:xlink="http://www.w3.org/1999/xlink" fill="none" viewBox="0 0 142 128" xmlns:v="https://vecta.io/nano"><style><![CDATA[.B{fill:#61630d}.C{fill:#fdb082}.D{fill:#f39863}.E{opacity:.3}.F{fill:#d4291d}.G{fill:#ff8753}.H{fill:#825931}.I{fill:#603813}.J{fill:#2d3c01}.K{fill:#bcd84d}.L{fill:#7f8211}.M{fill:#aecc44}]]></style><g clip-path="url(#A)"><path d="M0 11.491C0 5.206 5.095.11 11.381.11h130.62v127.46H11.381C5.096 127.57 0 122.475 0 116.189v-104.7z" fill="#ffe6b5"/><g opacity=".8"><path d="M21.253 69.455c-14.011-6.898-38.589-7.906-52.415-.221-6.148 3.424-11.594 7.451-17.951 10.66-8.521 4.303-11.994 12.793-10.58 22.131.812 5.38 3.074 10.279 7.814 13.212 3.221 1.992 12.258 5.201 15.172 1.66 2.723 12.793 19.734 17.625 28.808 7.66-1.629 1.789 7.174 4.149 8.127 4.229 4.064.344 9.129 0 12.338-2.748 3.855-3.289 3.984-7.236 5.484-11.533 5.109 1.42 11.066-1.229 14.509-5.238 12.074-14.084 3.922-32.324-11.306-39.812z" class="B"/><path d="M16.482 101.55a17.93 17.93 0 0 0-2.963-8.238c-5.195-7.451-15.326-10.943-24.13-10.23-9.953.805-18.197 7.377-20.754 17.011-1.568 5.926 1.137 17.053 6.221 20.742 5.717 4.162 13.648 2.459 17.638-3.215-1.193 1.703 6.762 4.303 7.74 4.5 3.043.645 5.459.418 8.158-1.303 6-3.843 8.914-11.964 8.09-19.267z" fill="#5b7119"/><path d="M46.212 71.183c-2.803-6.148-8.244-13.162-15.461-14.189-5.109-.725-12.597.141-17.65 1.027-12.812 2.244-23.509 12.91-23.933 26.214-.301 9.443 2.736 20.902 9.91 27.579 6.056 5.631 16.599 2.575 21-3.763 1.844-2.699 4.156-7.955 2.102-10.684 8.767 4.734 18.634 6.763 23.939-4.303 3.068-6.381 2.982-15.517.092-21.88z" class="J"/><g class="H"><path d="M-4.82 116.29c1.435-2.249 3.047-4.381 4.82-6.375 1.543-1.745 3.185-3.399 4.918-4.955a4.13 4.13 0 0 0-.762-1.432c-2.004 1.192-3.639 3.178-5.41 4.703l-6.363 5.44c-2.109 1.832-3.492 2.318-3.596 5.103-.141 3.873-.67 8.416 1.334 11.97-.615-1.039.566-4.458.867-5.57a26.07 26.07 0 0 1 2.33-5.73 53.92 53.92 0 0 1 1.863-3.154z"/><path d="M-13.384 65.815c-1.709 3.83-1.568 8.103-1.408 12.203.098 2.459-.615 4.23-3.51 2.754-2.121-1.082-4.303-2.846-5.459-4.98-1.684 1.66 2.988 5.41 3.941 6.56 3.117 3.75 5.379 6.627 5.748 11.631.313 4.303-.418 8.607-.418 12.91v30.855c0 6.486-.104 12.91-.412 19.316-.191 4.076-1.58 9.173-.873 13.242 4.635 1.66 12 .615 16.814.339-6.762-13.771-8.318-29.577-9.836-44.651-.79-7.351-1.201-14.738-1.23-22.132 0-3.645.35-7.112.098-10.764 0-.277-.037-.553-.068-.836-.455-4.875-1.34-9.836-1.605-14.662-.227-3.559.799-8.791-1.783-11.785z"/></g><path d="M39.535 43.18c-4.998-4.045-14.545-7.316-20.287-2.932C22.887 28.506 10.334 16.506-.24 14.969c-8.459-1.23-23.859.873-25.304 11.613-6.252-5.484-13.691-5.533-19.949-2.459.093-.738.141-1.481.141-2.225 0-1.064 0-3.996-1.23-4.58-2.139-1.033-2.883 6.529-3 7.611-.615-1.334-1.371-2.643-2.883-3.043-1.23-.332-2.902.098-3.025 1.592-.08.953 1.144 2.607 1.709 3.289a9.39 9.39 0 0 0 2.01 1.844c-5.262 5.226-8.306 12.855-6.553 20.349-11.853 4.807-17.152 18.578-8.914 29.57 5.988 7.992 19.918 8.951 27.019 1.697-3.689 8.269 2.65 22.458 10.58 26.158 9.086 4.242 20.127-.701 26.742-7.076 2.57-2.459 4.488-5.25 5.195-7.992 6.713 2.711 12.633 4.113 19.851 2.146 11.386-3.074 20.607-13.525 24.314-24.314 2.994-8.674.357-20.078-6.928-25.968zm-65.079-16.599s-.012.018 0 .018v-.018z" fill="#739a20"/><path d="M39.535 43.18c-4.998-4.045-14.545-7.316-20.287-2.932C22.887 28.506 10.334 16.506-.24 14.969c-8.459-1.23-23.859.873-25.304 11.613-6.252-5.484-13.691-5.533-19.949-2.459.093-.738.141-1.481.141-2.225 0-1.064 0-3.996-1.23-4.58-2.139-1.033-2.883 6.529-3 7.611-.615-1.334-1.371-2.643-2.883-3.043-1.23-.332-2.902.098-3.025 1.592-.08.953 1.144 2.607 1.709 3.289a9.39 9.39 0 0 0 2.01 1.844c-5.262 5.226-8.306 12.855-6.553 20.349-11.853 4.807-17.152 18.578-8.914 29.57 5.988 7.992 19.918 8.951 27.019 1.697-3.689 8.269 2.65 22.458 10.58 26.158 9.086 4.242 20.127-.701 26.742-7.076 2.57-2.459 4.488-5.25 5.195-7.992 6.713 2.711 12.633 4.113 19.851 2.146 11.386-3.074 20.607-13.525 24.314-24.314 2.994-8.674.357-20.078-6.928-25.968zm-.498 20.527c-2.742 17.164-24.757 25.9-39.29 16.82-1.639 2.436-3.819 4.46-6.369 5.914-7.094 4.058-17.115 4.359-23.976-.461-3.988-2.687-7.068-6.519-8.834-10.992-3.381.842-7.008 1.451-10.328 1.014-3.486-.461-7.064-1.1-9.584-3.861-2.791-3.074-4.402-7.555-2.945-11.68 1.23-3.541 3.547-7.451 7.15-9.025.664-.289 1.322-.547 1.98-.793a19.9 19.9 0 0 1-.037-8.748c1.488-6.763 6.215-12.91 12.793-15.295 4.918-1.777 12.258-.344 15.744 3.738C-20.412 21.277-13.213 16.321-2.867 18c3.959.615 7.795 2.982 10.795 5.81 3.646 3.437 5.465 7.912 7.082 12.547.443 1.266.775 5.084 1.709 5.951 1.279 1.18 5.631.418 7.457.885 6.277 1.592 11.373 7.217 14.078 12.966a12.91 12.91 0 0 1 .781 7.549z" fill="#000" opacity=".1"/><path d="M.848 20.095c-11.926-4.389-21.043 5.004-23.57 15.818-4.027-6.922-18.179-5.988-23.361-1.758s-7.131 18.474-1.66 23.023c7.679 6.375 16.488 1.641 22.611-4.445 2.416 8.484 17.73 9.836 24.339 6.953 8.84-3.873 10.045-13.968 4.697-21.136 7.795-3.105 2.84-16.285-3.055-18.455zm-35.613 25.206c-5.49 3.314-10.666-2.846-5.275-6.916 5.533-4.181 12.148 2.557 5.428 6.818l-.154.098z" class="E K"/><path d="M18.351 69.037c4.918 3.074 11.625 2.982 15.295-2.785 5.465-8.607-.738-17.545-10.396-17.213-5.705.209-9.621 1.844-10.691 7.992-.885 5.133 1.869 9.566 5.791 12.006z" fill="#b3c31a" class="E"/><path d="M28.101 125.46c-1.439-5.834-9.222-.965-5.908 3.313 2.318 2.994 6.799.302 5.908-3.313z" class="L"/><path d="M32.005 31.868c-1.439-5.834-9.222-.965-5.908 3.314 2.324 2.994 6.799.301 5.908-3.314z" class="M"/><path d="M20.636 63.562c15.99-7.872 44.042-9.023 59.822-.253 7.016 3.908 13.233 8.504 20.488 12.166 9.725 4.912 13.689 14.601 12.076 25.259-.927 6.14-3.509 11.732-8.918 15.079-3.677 2.273-13.991 5.936-17.317 1.894-3.108 14.601-22.523 20.116-32.879 8.743 1.859 2.041-8.188 4.736-9.276 4.827-4.638.393-10.419 0-14.082-3.137-4.399-3.753-4.547-8.258-6.259-13.162-5.831 1.621-12.63-1.404-16.559-5.978-13.78-16.075-4.476-36.892 12.903-45.438z" class="J"/><path d="M26.08 100.19a20.47 20.47 0 0 1 3.382-9.402c5.929-8.504 17.492-12.489 27.539-11.675 11.36.919 20.768 8.42 23.687 19.414 1.789 6.764-1.298 19.464-7.101 23.674-6.525 4.75-15.576 2.806-20.13-3.67 1.361 1.944-7.718 4.912-8.834 5.136-3.473.737-6.231.477-9.311-1.487-6.848-4.386-10.174-13.654-9.234-21.99z" fill="#5b7119"/><g class="B"><path d="M-7.851 65.533c3.199-7.016 9.409-15.022 17.646-16.194 5.831-.828 14.377.161 20.144 1.172 14.622 2.561 26.831 14.734 27.315 29.918.344 10.777-3.122 23.856-11.31 31.476-6.911 6.427-18.944 2.94-23.968-4.294-2.105-3.08-4.743-9.079-2.4-12.195-10.005 5.403-21.267 7.718-27.322-4.912-3.501-7.283-3.403-17.709-.105-24.971zm77.608 72.897c-.786-.751-1.003-3.087-1.045-4.098-.078-1.702.254-3.399.968-4.946 1.312-2.807 4.049-3.347 6.21-.934 1.158 1.292 2.575 2.316 3.712 3.628.793.919 3.045 3.396 2.456 4.813-1.045 2.526-7.437-3.34-8.37-4.21.505 1.593.842 3.298-.14 4.786-.814 1.248-2.547 2.14-3.789.961z"/></g><g class="H"><path d="M50.392 117.02a57.5 57.5 0 0 0-5.501-7.276c-1.761-1.992-3.635-3.88-5.613-5.655.179-.597.475-1.153.87-1.635 2.287 1.361 4.154 3.628 6.175 5.368l7.262 6.209c2.407 2.091 3.985 2.645 4.105 5.824.161 4.42.765 9.605-1.523 13.661.702-1.186-.645-5.087-.989-6.357-.624-2.278-1.517-4.473-2.659-6.539-.695-1.27-1.396-2.456-2.126-3.6z"/><path d="M60.165 59.408c1.951 4.371 1.789 9.248 1.607 13.928-.112 2.807.702 4.827 4.006 3.143 2.421-1.235 4.911-3.249 6.231-5.683 1.922 1.894-3.41 6.174-4.498 7.487-3.557 4.28-6.139 7.564-6.56 13.275-.358 4.912.477 9.823.477 14.735v35.215c0 7.402.119 14.734.47 22.046.218 4.651 1.803 10.468.996 15.113-5.29 1.894-13.696.702-19.19.386 7.718-15.717 9.493-33.756 11.226-50.96.902-8.39 1.37-16.821 1.403-25.259 0-4.161-.4-8.118-.112-12.286 0-.316.042-.632.077-.954.519-5.564 1.53-11.226 1.831-16.734.26-4.062-.912-10.033 2.035-13.45z"/><path d="M67.505 78.282c-3.557 4.28-6.139 7.564-6.56 13.275-.358 4.911.477 9.823.477 14.734v14.257c-1.979.428-3.929 1.039-5.915 1.502.533-6.392.884-12.889.863-19.204 0-4.161-.4-8.118-.112-12.286 0-.316.042-.631.077-.954.519-5.564 1.529-11.226 1.831-16.734.224-4.105-.947-10.076 1.993-13.492 1.951 4.371 1.789 9.248 1.607 13.928-.112 2.807.702 4.827 4.006 3.143 2.421-1.235 4.912-3.249 6.231-5.683 1.922 1.922-3.417 6.203-4.498 7.514z"/></g><path d="M67.505 78.282c-3.557 4.28-6.139 7.564-6.56 13.275-.358 4.911.477 9.823.477 14.734v6.195a106.78 106.78 0 0 0-5.34 1.13c.189-3.613.302-7.22.288-10.77 0-4.161-.4-8.118-.112-12.286 0-.316.042-.631.077-.954.519-5.564 1.529-11.226 1.831-16.734.224-4.105-.947-10.076 1.993-13.492 1.951 4.371 1.789 9.248 1.607 13.928-.112 2.807.702 4.827 4.006 3.143 2.421-1.235 4.912-3.249 6.231-5.683 1.922 1.922-3.417 6.203-4.498 7.514z" class="I"/><path d="M64.179 97.163c-1.7-6.823-1.269-14.002 1.235-20.572 2.049-5.192 2.245-10.525 3.641-15.885 7.585-29.209 53.036-26.782 58.236 2.414 1.185 6.602.505 13.906-2.639 19.906-3.83 7.318-9.31 8.237-16.734 10.026-.081 3.576-.893 7.098-2.385 10.349-5.143 11.43-25.533 15.794-34.317 6.54-2.947-3.179-6.055-8.567-7.037-12.777z" fill="#819d2e"/><path d="M-.231 33.574c5.704-4.617 16.601-8.35 23.154-3.347C18.769 16.826 33.097 3.13 45.165 1.376c9.655-1.403 27.231.996 28.88 13.254 7.136-6.259 15.626-6.315 22.768-2.807-.107-.842-.161-1.691-.161-2.54 0-1.214 0-4.561 1.403-5.227 2.442-1.179 3.29 7.451 3.424 8.686.701-1.523 1.564-3.017 3.29-3.473 1.403-.379 3.312.112 3.452 1.817.091 1.088-1.305 2.975-1.95 3.754-.659.809-1.432 1.519-2.295 2.105 6.006 5.964 9.48 14.671 7.48 23.224 13.527 5.487 19.576 21.204 10.174 33.749-6.834 9.121-22.734 10.216-30.838 1.937 4.21 9.437-3.024 25.63-12.075 29.854-10.37 4.842-22.972-.8-30.521-8.076-2.933-2.807-5.122-5.992-5.929-9.121-7.662 3.094-14.419 4.694-22.656 2.449-12.994-3.508-23.519-15.436-27.75-27.75-3.417-9.9-.407-22.916 7.908-29.637zM74.045 14.63s.014.021 0 .021v-.021z" fill="#739a20"/><path d="M-.231 33.574c5.704-4.617 16.601-8.35 23.154-3.347C18.769 16.826 33.097 3.13 45.165 1.376c9.655-1.403 27.231.996 28.88 13.254 7.136-6.259 15.626-6.315 22.768-2.807-.107-.842-.161-1.691-.161-2.54 0-1.214 0-4.561 1.403-5.227 2.442-1.179 3.29 7.451 3.424 8.686.701-1.523 1.564-3.017 3.29-3.473 1.403-.379 3.312.112 3.452 1.817.091 1.088-1.305 2.975-1.95 3.754-.659.809-1.432 1.519-2.295 2.105 6.006 5.964 9.48 14.671 7.48 23.224 13.527 5.487 19.576 21.204 10.174 33.749-6.834 9.121-22.734 10.216-30.838 1.937 4.21 9.437-3.024 25.63-12.075 29.854-10.37 4.842-22.972-.8-30.521-8.076-2.933-2.807-5.122-5.992-5.929-9.121-7.662 3.094-14.419 4.694-22.656 2.449-12.994-3.508-23.519-15.436-27.75-27.75-3.417-9.9-.407-22.916 7.908-29.637zm.568 23.428c3.129 19.59 28.255 29.56 44.842 19.197a21.75 21.75 0 0 0 7.269 6.75c8.097 4.631 19.534 4.975 27.364-.526 4.552-3.066 8.067-7.44 10.082-12.545 3.859.961 7.999 1.656 11.788 1.158 3.978-.526 8.062-1.256 10.939-4.406 3.185-3.508 5.023-8.623 3.36-13.331-1.403-4.041-4.048-8.504-8.16-10.3a45.45 45.45 0 0 0-2.259-.905 22.7 22.7 0 0 0 .042-9.984c-1.698-7.718-7.093-14.734-14.601-17.457-5.613-2.028-13.991-.393-17.969 4.266C68.186 8.575 59.97 2.92 48.161 4.835c-4.519.702-8.897 3.403-12.321 6.631-4.161 3.922-6.238 9.03-8.083 14.32-.505 1.445-.884 5.803-1.95 6.792-1.459 1.347-6.427.477-8.511 1.01-7.164 1.817-12.98 8.237-16.068 14.798-1.154 2.718-1.464 5.72-.891 8.616z" fill="#000" opacity=".1"/><path d="M43.923 7.227c13.612-5.01 24.017 5.711 26.901 18.053 4.596-7.901 20.748-6.834 26.662-2.007s8.139 21.084 1.894 26.276c-8.764 7.276-18.818 1.873-25.806-5.073-2.757 9.683-20.235 11.226-27.778 7.936-10.09-4.42-11.465-15.941-5.361-24.122-8.897-3.543-3.242-18.586 3.487-21.063zm40.646 28.767c6.266 3.782 12.173-3.249 6.02-7.893-6.315-4.771-13.864 2.919-6.195 7.781l.175.112z" class="E K"/><path d="M23.947 63.085c-5.613 3.508-13.268 3.403-17.457-3.178-6.238-9.823.842-20.025 11.865-19.646 6.511.239 10.981 2.105 12.202 9.121 1.01 5.859-2.133 10.918-6.61 13.703z" fill="#b3c31a" class="E"/><g fill="#98b936"><path d="M74.717 1.095c3.557-3.459 11.802 3.045 7.016 6.469-3.115 2.224-9.823-1.684-7.718-5.536a3.88 3.88 0 0 1 .702-.933zM116.18 30.57a6.59 6.59 0 0 1 4.842 1.214c6.714 5.564-5.789 12.763-6.785 1.403-.055-.301-.047-.609.022-.907a2.23 2.23 0 0 1 .382-.823c.182-.245.413-.451.677-.603a2.25 2.25 0 0 1 .862-.284z"/></g><path d="M12.819 127.48c1.642-6.658 10.524-1.101 6.743 3.782-2.645 3.417-7.76.344-6.743-3.782z" class="L"/><path d="M8.364 20.664c1.642-6.659 10.525-1.102 6.743 3.782-2.652 3.417-7.76.344-6.743-3.782z" class="M"/><path d="M86.358 132.02c1.642-6.659 10.525-1.095 6.743 3.782-2.645 3.424-7.76.343-6.743-3.782z" class="L"/><path d="M186.5 129.69c-.999-1.047-2.236-1.837-3.606-2.305-.265-.092-.539-.159-.817-.199 2.398-5.04 2.285-12.153.877-17.214-.308-1.109-.704-2.193-1.182-3.24-6.98-15.401-22.268-27.674-39.947-24.573-16.211 2.829-39.614 13.887-40.836 32.794-.458 7.08 3.905 16.444 9.437 20.807 3.048 2.404 6.482 3.772 10.407 3.321 3.148-.346 10.426-3.135 10.054-6.336 1.734 7.929 8.262 12.419 16.238 11.954 6.973-.385 18.044-5.127 19.552-12.798-.366 1.853 6.767 2.239 7.77 1.993a9.64 9.64 0 0 0 4.263-2.271c0 1.122-.093 2.251 0 3.373s.299 3.865 1.514 4.337c2.165.837 2.312-6.528 2.338-7.604.664 1.242 1.534 2.45 3.022 2.723 1.235.225 2.796-.319 2.802-1.774.02-.863-1.288-2.37-1.886-2.988z" class="J"/><path d="M128.98 175.08c-1.994 1.394-4.375 2.125-6.807 2.092-2.331 0-4.649-.597-4.649-3.035 0-3.519 7.903-1.706 9.61-5.817 5.015-11.897 7.639-24.665 7.724-37.576a87.21 87.21 0 0 0-4.795-28.331c0-.724.458-1.089.71-1.089 6.575 0 6.821 16.138 13.714 16.138 7.199 0 6.708-16.543 11.41-16.543.239 0 .438.066.438.325a159.11 159.11 0 0 0-1.361 20.508c0 9.836 1.262 42.955 13.03 48.102 1.029.451 2.218 1.561 2.218 2.862a2.13 2.13 0 0 1-.658 1.472c-.403.385-.943.596-1.501.587-4.137 0-10.865-1.787-16.33-1.787-3.985 0-7.837.897-11.078 3.939a2.66 2.66 0 0 1-1.866.79c-2.656 0-4.609-3.533-5.592-3.533s-2.437.93-3.792.93a2.89 2.89 0 0 1-.425-.034z" fill="#992108"/><use xlink:href="#B" fill="#872108"/><use xlink:href="#B" class="I"/><path d="M138.86 127.41a107.64 107.64 0 0 0 16.231.1l-.113-5.738a159.28 159.28 0 0 1 1.362-20.508c0-.259-.199-.326-.439-.326-4.701 0-4.21 16.543-11.409 16.543-6.894 0-7.139-16.137-13.714-16.137-.252 0-.711.365-.711 1.089 2.691 7.791 4.257 15.927 4.649 24.16l4.144.817z" class="H"/><path d="M124.12 128.28c-7.159-2.882-8.242-6.515-12.492-12.094-3.653-4.775-3.427 2.285-3.161 4.795.598 5.559 2.789 8.242 7.159 11.516 7.777 5.824 22.122 10.526 26.312 19.923 1.88 4.191 2.245 8.554 2.238 13.077 0 3.752-.398 9.218 3.686 11.13 5.771 2.71 9.683-1.182 10.825-6.734 1.328-6.501-1.328-11.794-3.832-17.612-4.15-9.616-12.744-17.267-22.46-21.006-2.643-1.049-5.532-1.893-8.275-2.995z" class="I"/><path d="M122.79 136.95c3.609-1.977 7.371-3.661 11.25-5.034a28.89 28.89 0 0 0-1.647-.664c-2.657-1.03-5.532-1.873-8.275-2.976-7.159-2.875-8.242-6.508-12.492-12.087-3.653-4.775-3.427 2.285-3.161 4.795.598 5.559 2.789 8.242 7.159 11.516a65.82 65.82 0 0 0 7.166 4.45z" class="H"/><path d="M115.62 132.5l1.64 1.149 1.634-.956 7.04-3.719-1.82-.664c-7.159-2.909-8.242-6.542-12.492-12.121-3.653-4.775-3.427 2.285-3.161 4.795.598 5.559 2.763 8.275 7.159 11.516z" class="I"/><path d="M96.136 56.074c-14.132 4.118-20.674 18.821-16.35 30.961 1.672 4.602 4.745 8.564 8.786 11.33-6.276 1.149-6.136 10.234-4.33 16.981a19.77 19.77 0 0 0-2.311-.591c-1.01-.172-3.805-.717-4.576.339-1.368 1.866 5.705 3.925 6.734 4.23-1.375.339-2.763.844-3.413 2.212-.538 1.129-.425 2.782.983 3.168.89.239 2.656-.631 3.44-1.043.772-.425 1.479-.96 2.099-1.587 5.844 7.863 18.927 9.503 27.228 5.578 11.529-5.425 21.471-16.782 25.004-29.002 6.821-23.456-19.571-49.496-43.293-42.576z" fill="#819d2e"/><path d="M198.64 47.792c-3.261-6.86-14.072-15.334-21.497-17.207-4.742-1.202-10.792-2.271-15.441.472a16.69 16.69 0 0 0 0-2.145c-.558-9.769-9.961-14.504-19.259-14.411-.492 0-.99 0-1.501.04a20.74 20.74 0 0 0 1.448-1.992c.531-.883 2.045-3.321 1.328-4.39-1.249-1.959-5.725 3.898-6.382 4.748.186-1.401.219-2.876-.824-3.985-.863-.91-2.444-1.401-3.32-.232-.551.75-.385 2.736-.272 3.586.147 1.108.499 2.18 1.036 3.161-7.06 1.508-13.947 5.054-16.105 12.107-13.282-12-28.889 2.285-21.092 17.194-10.36 4.33-13.329 15.275-13.329 25.974 0 10.931 6.993 22.938 18.595 24.386-.958 2.712-1.48 5.559-1.547 8.435 0 11.867 15.228 18.482 21.915 6.92-.803 1.388 11.582 6.993 12.944 7.577 4.835 2.079 9.224 3.088 14.61 2.159 9.65-1.667 18.489-8.189 19.565-18.41-.066.664 5.731-.159 6.323-.272 8.195-1.534 13.156-9.523 9.297-17.466 14.292-2.756 18.688-25.369 13.508-36.247z" fill="#98b936"/><path d="M198.64 47.792c-3.261-6.86-14.072-15.334-21.497-17.207-4.742-1.202-10.792-2.271-15.441.472a16.69 16.69 0 0 0 0-2.145c-.558-9.769-9.961-14.504-19.259-14.411-.492 0-.99 0-1.501.04a20.74 20.74 0 0 0 1.448-1.992c.531-.883 2.045-3.321 1.328-4.39-1.249-1.959-5.725 3.898-6.382 4.748.186-1.401.219-2.876-.824-3.985-.863-.91-2.444-1.401-3.32-.232-.551.75-.385 2.736-.272 3.586.147 1.108.499 2.18 1.036 3.161-7.06 1.508-13.947 5.054-16.105 12.107-13.282-12-28.889 2.285-21.092 17.194-10.36 4.33-13.329 15.275-13.329 25.974 0 10.931 6.993 22.938 18.595 24.386-.958 2.712-1.48 5.559-1.547 8.435 0 11.867 15.228 18.482 21.915 6.92-.803 1.388 11.582 6.993 12.944 7.577 4.835 2.079 9.224 3.088 14.61 2.159 9.65-1.667 18.489-8.182 19.565-18.41-.066.664 5.731-.159 6.323-.272 8.195-1.534 13.156-9.523 9.297-17.466 14.292-2.756 18.688-25.369 13.508-36.247zM184.694 73.36a13.54 13.54 0 0 1-7.126 4.23c-.098.906-.303 1.798-.611 2.656-1.508 4.157-4.742 7.77-9.225 8.746a14.71 14.71 0 0 1-5.525.153c-.113.179-.219.359-.339.531a23.33 23.33 0 0 1-13.023 9.583c-5.266 1.408-10.626.797-14.989-2.656-.199-.159-.385-.332-.571-.498a20.38 20.38 0 0 1-4.795 2.776c-2.35.928-4.878 1.316-7.398 1.134a16.84 16.84 0 0 1-7.159-2.183c-3.985-2.391-7.1-6.827-6.754-11.615a29.69 29.69 0 0 1-3.148-.465c-6.681-1.388-13.748-6.037-15.222-13.149a18.44 18.44 0 0 1 10.34-20.587 39.84 39.84 0 0 1 5.413-1.992 12.05 12.05 0 0 1 1.68-11.416c2.384-3.154 5.831-5.977 9.856-6.641.715-.115 1.44-.164 2.165-.146 3.244-4.159 7.744-7.161 12.83-8.56 7.857-2.338 17.42-.385 23.158 5.711 2.444 2.532 4.108 5.713 4.795 9.165a29.27 29.27 0 0 1 11.369-1.414c8.634.79 17.394 6.196 19.432 15.215 1.614 7.259-.079 15.812-5.14 21.424h-.013z" fill="#000" opacity=".1"/><g class="K"><path d="M155.36 35.015c-2.291-1.434-11.39-2.544-11.682 2.039 1.395-22.195-34.534.903-19.83 9.112-3.52-1.674-6.296 4.264-6.887 7.166-1.083 5.16 1.673 10.181 5.598 13.296 5.619 4.45 11.018 4.091 16.603.113 2.763-1.992 7.85-5.831 6.17-9.669 5.977 2.657 13.946-.471 16.131-7.159 1.528-4.802-1.8-12.206-6.103-14.896zm-23.105 10.194a2.86 2.86 0 0 1-.318 1.136l-.08.146a1.46 1.46 0 0 1-.405.73c-.146.15-.32.269-.513.35s-.4.122-.61.121a2.31 2.31 0 0 1-1.186-.234c-.368-.182-.68-.459-.906-.802-.176-.313-.261-.67-.245-1.029a1.24 1.24 0 0 1-.067-.392 1.49 1.49 0 0 1 .392-.996 1.75 1.75 0 0 1 .717-.664 2.18 2.18 0 0 1 .99-.299 1.67 1.67 0 0 1 .85.232 1.56 1.56 0 0 0 .179.106l.392.219a1.59 1.59 0 0 1 .591.578 1.58 1.58 0 0 1 .219.797zm1.249-7.504l-.664.664c-.145.137-.303.259-.472.365-.147.221-.343.404-.574.534a1.69 1.69 0 0 1-.754.217 1.54 1.54 0 0 1-.777-.219 1.88 1.88 0 0 1-.74-.315c-.221-.157-.406-.36-.542-.595s-.214-.502-.244-.773a2.08 2.08 0 0 1 .072-.807c.021-.197.063-.39.126-.578 0-.053.046-.1.066-.146.266-1.215 1.468-1.78 2.703-1.76a1.68 1.68 0 0 1 .878.265 1.69 1.69 0 0 1 .61.685 1.59 1.59 0 0 1 .504.494c.129.2.212.427.242.663s.006.477-.069.703a1.6 1.6 0 0 1-.365.604zm7.006 4.901c-.17.206-.372.383-.597.525a1.7 1.7 0 0 1-.99.299c-.424-.029-.825-.207-1.129-.505a1.21 1.21 0 0 1-.305-.425 1.38 1.38 0 0 1-.625-.624 1.72 1.72 0 0 1 0-1.727 1.92 1.92 0 0 1 .744-.664c.206-.093.412-.173.618-.252l.152-.06h.054a1.25 1.25 0 0 1 .551-.1h.113a3.67 3.67 0 0 1 .617.08 1.69 1.69 0 0 1 .997.764 1.49 1.49 0 0 1 .179.518c.186.267.286.584.285.91a1.56 1.56 0 0 1-.181.71 1.57 1.57 0 0 1-.483.551zM97.657 77.233c15.938 19.312 27.746-25.661 5.246-23.297-11.11 1.169-10.732 16.656-5.246 23.297z" class="E"/></g><path d="M92.53 43.363c1.295-2.324-.664-6.355-3.945-5.731-4.895.93-2.816 7.916 1.614 7.239a3.07 3.07 0 0 0 1.346-.475c.405-.262.743-.616.985-1.032z" class="M"/></g><path d="M29.668 97.125c1.512 6.855-.087 8.483.14 13.019.064 1.285.245 2.16 1.571 2.897 1.657.921 3.59 1.995 11.625 2.628s10.821-1.65 12.129-2.441c1.046-.634.956-3.542.78-4.917-.195-8.495 1.355-10.869 3.832-16.522 1.885-4.302 17.95-22.413 18.846-23.506s3.481-8.476-2.614-8.176-9.189 9.641-13.529 8.604c-3.471-.83-5.178-5.6-5.597-7.882-.754-5.408 2.099-21.973 1.617-27.368-.19-2.13-3.474-4.678-6.414-2.119-3.827 3.331-3.465 27.571-6.528 26.447s-5.043-23.84-5.834-25.147-3.136-2.683-6.494-.283 3.281 28.572.457 28.449-7.216-16.156-8.37-18.893-5.29-5.181-7.482-.326c-2.015 4.463 8.805 25.135 6.356 26.16s-8.242-8.846-14.208-11.51-5.347 5.849.545 10.207c10.688 7.906 17.282 22.11 19.171 30.679z" class="C"/><g fill-rule="evenodd"><path d="M30.052 105.92c.284-2.211.571-4.456-.385-8.79-.931-4.223-2.686-9.273-5.68-14.523 1.315-6.861 10.685-16.328 21.141-14.485 10.667 1.879 11.094 24.528 9.541 27.713-.535 1.097-.824 1.936-1.069 2.648-.466 1.354-.773 2.245-2.314 3.569.483 5.83.31 10.636-.217 13.088-1.838.505-4.409.822-8.068.534-8.034-.633-9.968-1.708-11.625-2.629-1.326-.736-1.507-1.611-1.571-2.897-.083-1.668.08-2.942.245-4.228z" class="D"/><path d="M72.771 61.14c6.317-1.335 5.853 1.896 4.48 5.388-1.4 3.56-6.929 9.694-10.295 12.281-4.811 4.873-7.749 10.057-10.32 14.595-1.937 3.418-3.666 6.469-5.831 8.745-5.861 4.664-14.207 3.997-20.574 2.228-.05.531-.115 1.036-.18 1.539-.165 1.286-.328 2.561-.245 4.228.064 1.286.245 2.161 1.571 2.898 1.657.92 3.59 1.995 11.625 2.628 7.391.582 10.341-1.303 11.784-2.225l.345-.217c1.046-.633.956-3.541.78-4.916-.174-7.576 1.04-10.284 3.062-14.791l.77-1.731c1.611-3.677 13.579-17.44 17.584-22.045l1.262-1.461c.896-1.093 3.481-8.476-2.614-8.176-1.168.057-2.227.447-3.205 1.033z" fill="#fecb9c" opacity=".25"/></g><path d="M27.96 47.553c-3.866 4.894.648 16.575 4.712 20.16 4.934 4.377 13.095.752 16.59-4.114 3.017-4.203 7.168-19.881.867-23.022-8.215-4.207-9.829 16.317-8.851 20.984-.21-4.59-7.446-21.461-13.317-14.008z" class="B"/><path d="M56.609 91.489c-13.645 14.093-43.876-6.237-27.244-23.581 17.388-18.074 43.478 6.82 27.244 23.581z" class="F"/><path d="M46.072 64.098a6.96 6.96 0 0 1 2.033 1.237 10.72 10.72 0 0 1 1.344 1.663l.092.092.171.304a6.1 6.1 0 0 1 .597 3.65 2.91 2.91 0 0 1 .104.661c.062 1.627-.475 3.225-1.509 4.49-1.054 1.17-2.505 1.906-4.068 2.064a6.17 6.17 0 0 1-3.226-.572 10.46 10.46 0 0 1-2.442-1.593c-.63-.518-1.134-1.171-1.475-1.912s-.511-1.55-.496-2.368c-.22-.753-.285-1.544-.189-2.324s.349-1.534.746-2.215c.336-.758.818-1.442 1.42-2.014s1.31-1.017 2.085-1.313a6.25 6.25 0 0 1 2.425-.408c.827.026 1.638.216 2.389.56z" class="G"/><path d="M59.045 15.906c-2.286.979-2.929 5.93-2.188 7.96.895 2.473 4.445 2.757 6.596 1.717 1.857-.898 6.296-5.6 4.687-7.901-2.077-3.038-6.55 3.845-7.096 5.666.8-1.648 1.477-8.937-1.999-7.443z" class="B"/><path d="M60.717 36.753c-7.464 2.34-14.184-10.539-5.055-13.449 9.533-3.021 13.934 10.668 5.055 13.449z" class="F"/><path d="M62.241 25.151c.205.244.366.522.477.821a4.28 4.28 0 0 1 .154.838l.015.05.002.139c-.014.502-.183.989-.486 1.392a1.16 1.16 0 0 1-.09.251 2.67 2.67 0 0 1-1.384 1.286c-.592.209-1.241.191-1.818-.052a2.46 2.46 0 0 1-1.021-.815c-.231-.314-.417-.658-.552-1.023a2.15 2.15 0 0 1-.153-.951 2.16 2.16 0 0 1 .277-.924 2.3 2.3 0 0 1 .376-.85 2.32 2.32 0 0 1 .683-.634 2.51 2.51 0 0 1 .881-.435c.319-.085.653-.107.98-.063a2.49 2.49 0 0 1 .927.319c.285.166.533.388.73.651z" class="G"/><path d="M-1.709 39.849c-.496 2.437 3.211 5.783 5.301 6.328 2.543.671 4.796-2.087 5.165-4.447.318-2.038-1.023-8.364-3.83-8.35-3.68-.02-.565 7.575.622 9.06-.9-1.596-6.508-6.3-7.258-2.591z" class="B"/><path d="M16.386 50.337C14.063 57.806-.352 56.005 2.45 46.842c2.94-9.559 16.7-5.389 13.936 3.495z" class="F"/><path d="M7.711 42.482c.318-.03.638-.004.946.075a4.27 4.27 0 0 1 .777.35l.049.016L9.6 43c.405.297.709.713.869 1.192.06.066.112.139.156.217a2.67 2.67 0 0 1 .27 1.869c-.165.606-.549 1.129-1.077 1.466a2.46 2.46 0 0 1-1.251.377 4.17 4.17 0 0 1-1.156-.128 2.15 2.15 0 0 1-.869-.415c-.255-.202-.46-.46-.602-.754a2.3 2.3 0 0 1-.485-.793 2.32 2.32 0 0 1-.133-.922c-.017-.33.032-.66.143-.972s.283-.598.506-.842a2.49 2.49 0 0 1 .79-.581c.299-.139.622-.218.951-.23z" class="G"/><path d="M121.02 39.547c-1.541 1.952.259 6.609 1.879 8.039 1.968 1.745 5.222.3 6.615-1.641 1.203-1.676 2.858-7.927.346-9.18-3.276-1.678-3.919 6.506-3.529 8.367-.084-1.83-2.969-8.558-5.311-5.585z" class="B"/><path d="M132.45 57.066c-5.441 5.62-17.495-2.487-10.863-9.403 6.933-7.207 17.336 2.719 10.863 9.403z" class="F"/><path d="M128.25 46.144c.297.117.571.284.811.493a4.28 4.28 0 0 1 .536.663l.037.037.068.121a2.43 2.43 0 0 1 .238 1.455 1.12 1.12 0 0 1 .041.264 2.67 2.67 0 0 1-.601 1.79c-.421.467-.999.76-1.622.823-.443.041-.887-.038-1.287-.228a4.16 4.16 0 0 1-.974-.635 2.15 2.15 0 0 1-.588-.763c-.136-.295-.204-.618-.198-.944a2.32 2.32 0 0 1-.075-.927c.038-.311.139-.612.297-.883a2.51 2.51 0 0 1 .567-.803 2.5 2.5 0 0 1 .831-.524 2.49 2.49 0 0 1 .967-.163 2.47 2.47 0 0 1 .952.223z" class="G"/><path d="M87.985 43.184c-2.454.404-4.261 5.058-4.027 7.206.278 2.615 3.657 3.739 5.994 3.244 2.018-.428 7.453-3.933 6.44-6.551-1.291-3.447-7.28 2.168-8.245 3.806 1.171-1.409 3.571-8.324-.161-7.705z" class="B"/><path d="M84.624 63.827c-7.807.487-11.254-13.625-1.693-14.267 9.979-.655 10.979 13.689 1.693 14.267z" class="F"/><path d="M88.878 52.925c.141.286.231.594.267.911a4.27 4.27 0 0 1-.051.851l.002.052-.031.136a2.43 2.43 0 0 1-.804 1.236 1.16 1.16 0 0 1-.147.223 2.67 2.67 0 0 1-1.651.917c-.625.062-1.25-.111-1.753-.485-.355-.268-.63-.625-.797-1.035-.149-.36-.248-.739-.292-1.126a2.15 2.15 0 0 1 .079-.96c.099-.31.266-.594.49-.831.137-.281.331-.531.569-.736a2.32 2.32 0 0 1 .815-.453c.303-.133.629-.205.96-.212s.659.052.967.173a2.49 2.49 0 0 1 .824.531c.237.23.425.504.553.807z" class="G"/><path d="M98.086 90.646l26.921 4.968-.456 8.65v8.309a35.58 35.58 0 0 1-20.181 2.186c-2.606-.478-4.266-2.925-4.185-5.573l-.072-9.481c-.513-4.208-2.027-9.059-2.027-9.059z" class="C"/><path d="M108.47 96.63a.66.66 0 0 1 .381.238c.096.122.148.275.146.432a.69.69 0 0 1-.154.429c-.098.12-.234.202-.384.231-2.825.531-5.712.617-8.562.253-.31-1.864-.753-3.727-1.124-5.139a37.58 37.58 0 0 0 9.697 3.557zm10.114-.137c1.309-.344 2.587-.799 3.822-1.36l2.604.481-.456 8.65v8.309l-2.911 1.075.796-7.984c.402-7.019-2.383-7.743-2.571-7.783a34.98 34.98 0 0 1-1.276-.284c-.12-.029-.228-.099-.305-.199a.58.58 0 0 1-.121-.35c-.001-.127.04-.251.116-.352a.55.55 0 0 1 .302-.204z" class="D"/><path d="M127.34 58.077c1.098 1.093 1.972 2.402 2.57 3.847a12.04 12.04 0 0 1 .909 4.57v15.574a19.04 19.04 0 0 1-1.798 8.192 16.23 16.23 0 0 1-4.012 5.353s-4.093 1.542-15.662 1.542L95.215 82.696 93.99 71.474l33.35-13.397z" class="C"/><path d="M93.989 71.473l33.35-13.397c1.098 1.093 1.972 2.402 2.569 3.848a12.02 12.02 0 0 1 .91 4.57v4.255a6.54 6.54 0 0 1-1.468 4.274c-.978 1.195-2.346 1.985-3.849 2.222-6.251 1.037-11.156 5.954-12.712 10.712-.141.444-.415.832-.782 1.107s-.811.425-1.266.428a2.12 2.12 0 0 1-1.418-.548 2.23 2.23 0 0 1-.715-1.371c-.316-2.42-1.267-6.419-4.114-7.677-3.475-1.537-7.207-1.556-9.803-1.995l-.702-6.428z" class="D"/><path d="M119.85 58.76l1.54-1.117c.431-.313.945-.481 1.473-.481h2.536c.345 0 .686.072 1.003.211s.603.342.841.598.424.558.545.889a2.69 2.69 0 0 1 .161 1.037l-.419 9.665-.214 2.009s-7.466 1.84-7.466.608V58.76z" class="C"/><path d="M121.39 57.642c.153-.111.317-.203.49-.277.651.729 1 1.689.973 2.677l.254 11.098c.002.098.024.194.063.283s.097.169.167.234.154.116.244.148.186.044.281.037l3.454-.271-.157 1.017c-.186 1.058-1.045 1.942-2.092 1.942h-3.242c-1.201 0-2.14-1.113-2.14-2.345l.165-13.424 1.54-1.117z" class="D"/><path d="M113.89 56.88h3.793c.864-.008 1.702.3 2.363.87s1.103 1.364 1.244 2.238l.032.26V72.9s.222 3.209-4.782 3.209-5.377-5.192-5.377-5.192l.503-11.852a2.31 2.31 0 0 1 .685-1.55c.414-.407.965-.634 1.539-.634z" class="C"/><path d="M111.16 70.917l.503-11.852c.025-.588.27-1.144.684-1.551s.966-.634 1.54-.634h.03c.203.656.297 1.342.28 2.029-.035 1.547.196 10.532.277 13.601.008.276.119.539.311.733a1.03 1.03 0 0 0 .72.307l4.345.057c.857-.124 1.27-.429 1.469-.708v.299s.27 3.037-4.768 3.031c-5.051-.006-5.391-5.313-5.391-5.313z" class="D"/><g class="C"><path d="M101.14 55.406l-5.016.369c-.376.023-.731.186-.999.458s-.431.634-.458 1.02l-.676 12.666c1.211 5.244 4.23 8.254 9.058 9.028V56.881c-.048-.879-1.019-1.545-1.909-1.474z"/><path d="M103.05 56.88c.333-.586.811-1.072 1.384-1.41a3.71 3.71 0 0 1 1.884-.516h2.341c1.004 0 1.966.409 2.675 1.137a3.93 3.93 0 0 1 1.108 2.745v12.216s.07 2.062-.608 3.806c0 0-1.393 2.385-3.012 2.385h-.562l-5.481-.449.271-19.914z"/></g><g class="D"><path d="M103.05 56.88c.273-.48.644-.894 1.087-1.214.265.67.398 1.388.391 2.111l-.028 19.158-1.722-.141.272-19.914z"/><path d="M103.05 77.244h-.384l-4.263-.097c-2.182-1.531-3.653-3.94-4.413-7.229l.421-7.893 8.638-.99v16.209z"/><path d="M103.05 78.946c-4.83-.775-7.85-3.784-9.06-9.028l.001-.024 9.058-5.449v14.501z"/><path d="M103.05 76.89l-.057-15.849 2.719-.312a.66.66 0 0 1 .404.083c.122.07.22.178.28.308.767 1.684 3.088 7.847-1.117 13.251-.034.044-.057.097-.068.152s-.01.113.004.167a.36.36 0 0 0 .077.148c.036.043.082.076.133.097l.008.004c2.086.681 4.331.652 6.399-.083-.495 1.278-1.457 2.493-3.076 2.493h-.603l-2.973-.106-2.13-.354z"/></g><path d="M105.12 62.933l-7.037.726-3.6.528-3.002.379a3.43 3.43 0 0 0-1.678.695c-.49.379-.873.885-1.111 1.466-1.482 3.639-2.184 7.562-2.061 11.503.068 1.579.544 3.111 1.377 4.44 1.71 2.739 5.111 7.707 8.661 10.153 0 0 5.732 4.179 12.672 4.334 0 0 3.591-10.828-2.675-17.687a9.96 9.96 0 0 0-3.622-2.578c-1.239-.468-2.401-.472-3.536-.472a8.39 8.39 0 0 1 .151-2.786s8.05-1.062 5.459-10.7z" class="C"/><path d="M105.05 62.639l.01.024c.291.725.313 1.534.059 2.274a3.17 3.17 0 0 1-1.431 1.737c-1.043.592-2.459 1.105-4.38 1.412 0 0-1.179-1.359-1.218-4.427l6.96-1.02z" fill="#fff" fill-opacity=".5"/><path d="M99.664 73.632a7.83 7.83 0 0 1-3.437-.378c-.081-.03-.169-.035-.254-.015s-.161.066-.22.13a.46.46 0 0 0-.115.232.47.47 0 0 0 .027.259c.42 1.053 1.442 2.558 3.848 2.558l.151-2.786z" class="D"/></g><defs><clipPath id="A"><path d="M0 11.491C0 5.206 5.095.11 11.381.11h130.62v127.46H11.381C5.096 127.57 0 122.475 0 116.189v-104.7z" fill="#fff"/></clipPath><path id="B" d="M168.01 169.88c-11.768-5.146-13.03-38.266-13.03-48.101a159.28 159.28 0 0 1 1.362-20.508c0-.259-.199-.326-.439-.326-4.701 0-4.21 16.543-11.409 16.543-6.894 0-7.139-16.137-13.714-16.137-.252 0-.711.365-.711 1.089 3.154 9.113 4.774 18.687 4.795 28.331-.016 7.114-.838 14.203-2.45 21.132l.265.252a25.68 25.68 0 0 1 6.642 11.383l.923 6.854v.617c-.003 2.242-.295 4.475-.87 6.642a2.87 2.87 0 0 0 1.261-.711c3.241-3.042 7.067-3.938 11.078-3.938 5.466 0 12.193 1.786 16.33 1.786.558.009 1.098-.202 1.501-.587a2.13 2.13 0 0 0 .658-1.472c.026-1.288-1.162-2.397-2.192-2.849z"/></defs></svg>