<svg xmlns="http://www.w3.org/2000/svg" xmlns:xlink="http://www.w3.org/1999/xlink" fill="none" viewBox="0 0 142 129" xmlns:v="https://vecta.io/nano"><style><![CDATA[.B{fill:#75d451}.C{color-interpolation-filters:sRGB}.D{flood-opacity:0}.E{fill-rule:evenodd}.F{stroke-width:1.255}.G{stroke-linecap:round}]]></style><g clip-path="url(#R)"><path d="M0 12.349C0 6.064 5.095.969 11.38.969H142v127.46H11.38c-6.285 0-11.38-5.095-11.38-11.38v-104.7z" fill="#ffe6b5"/><g fill="#f39863"><path d="M81.139 69.713l7.714 20.341c1.576.792 2.925 2.028 3.862 3.539l-4.481-24.294c-.803-4.174-6.873-3.708-7.094.415z"/><path d="M71.169 64.891l.454 1.281 17.282 24.029L78.32 62.268c-.742-1.985-2.95-2.913-4.827-2.248a3.82 3.82 0 0 0-2.324 4.872z"/></g><g fill="#fdb082"><path d="M59.997 66.203c.115.324.268.653.464.948l11.335 17.946c15.925 4.503 15.633 4.244 16.97 4.915L68.458 61.766c-3.211-4.511-10.322-.821-8.46 4.437z"/><path d="M102.55 127.6c-.971-8.665-8.836-31.75-8.836-31.75a9.61 9.61 0 0 0-6.627-6.487L66.945 83.76c-1.796-.499-3.722-.158-5.237.928l-10.994 7.884c-3.456 2.479-1.16 6.364-1.186 6.2 1.424 2.346 4.501 3.007 6.739 1.457 5.554-3.848 7.847-6.413 11.173-4.478l3.681 2.141c2.669 1.552 2.395 4.817 2.354 4.659.294 5.576-6.044 8.966-10.497 5.634-4.135-2.543-6.599-6.624-10.528-4.77-2.51 1.184-3.45 4.272-2.02 6.651 3.392 5.639 4.512 8.465 8.496 10.365l4.722 2.252c2.655 1.266 5.227 1.116 5.048 1.098 8.79-.147 10.947 10.486 11.87 11.603s8.153.322 13.744-1.915c4.258-1.703 7.827-3.913 8.239-5.87z"/></g><path d="M48.744-6.109c1.707-13.199-24.293-15.687-34.202-16.63L4.417 5.398l-14.875 126.05c4.734-.127 15.167-2.695 19.027-11.95S4.052 103.365-.62 101.082c2.183.318 7.449-.981 11.048-8.722s.508-12.49-1.487-13.898c2.441-1.173 7.328 0 11.391-8.662 2.228-4.75.585-9.525-1.157-11.715 7.449 0 10.05-3.128 10.43-13.515 5.191-1.407 6.542-13.169 1.213-17.101 7.887-4.55 15.574-15.375 17.928-33.575z" fill="#915832"/><path d="M33.844-16.204c.686 2.017 1.157 4.814 1.635 8.74C37.249 7.1 37.224 14.418 24.53 25.513c5.329 3.932 5.378 15.025.188 16.431l-.024.661c-.357 9.898-.496 13.771-12.103 13.325 1.742 2.191 6.376 9.161 3.121 13.276s-8.907 7.376-11.347 8.549c1.995 1.407 5.498 7.076 1.899 14.816s-9.676 8.142-11.859 7.824c4.671 2.283 11.207 9.05 7.347 18.304-2.71 6.499-14.944 11.272-23.629 13.584-2.978.604-5.77 1.097-8.15 1.473l-11.094-75.015-3.014-56.535L-5.73-13.383l24.418-7.51c4.719.791 10.325 2.249 15.156 4.689z" fill="#a4693d" class="E"/><path d="M93.272-5.987c-3.085-12.946 23.37-19.127 33.22-20.559l11.503 27.603 21.087 125.16c-4.735.106-15.282-1.943-19.594-10.995s3.714-16.338 8.267-18.848c-2.165.425-7.489-.612-11.466-8.165s-1.124-12.45.799-13.954c-2.496-1.051-7.318.362-11.805-8.089-2.46-4.634-1.055-9.484.577-11.758-7.44.368-10.192-2.628-11.085-12.983-5.253-1.148-9.692-12.706-4.564-16.896C96.984 14.076 96.458 7.388 93.271-5.983z" fill="#915832"/><path d="M107.54-19.064c-.585 2.048-.918 4.865-1.2 8.81-1.049 14.634-.662 21.942 12.565 32.396-5.128 4.191-4.629 15.272.625 16.421l.056.66c.846 9.868 1.176 13.73 12.747 12.71-1.632 2.274-5.915 9.465-2.461 13.414s9.261 6.926 11.756 7.977c-1.923 1.504-5.141 7.339-1.164 14.892s10.066 7.653 12.231 7.228c-4.553 2.511-10.746 9.594-6.434 18.646 1.694 3.556 6.184 7.019 11.298 9.908 7.127 1.715 14.91 2.864 20.581 3.494l7.989-78.133.206-53.888-39.131-13.673-24.758-6.294c-4.674 1.024-10.202 2.757-14.906 5.433z" fill="#a4693d" class="E"/><g stroke="#6c3e09" class="F G"><path d="M94.701 14.428l5.739 31.302 7.174 34.621M58.5 12.504s-1.603 17.373-4 26l-6 21m2-47s-3.603 22.054-9 37c-6.5 18-16.75 40.404-16.75 40.404" opacity=".45"/></g><path fill="url(#H)" d="M-71.267 108.42h281.15v6.276h-281.15z"/><path fill="#fdd747" d="M139.28 108.42h70.601v6.276H139.28z"/><path fill="url(#I)" d="M-71.267 119.72h281.15v6.276h-281.15z"/><path fill="#fdd747" d="M139.28 119.72h70.601v6.276H139.28z"/><path d="M5.795 104.73l5.805-2.51 5.805 2.51v21.338H5.795V104.73z" fill="url(#J)"/><use xlink:href="#S" fill="url(#K)"/><path d="M44.076 104.73l5.805-2.51 5.805 2.51v21.338h-11.61V104.73z" fill="url(#L)"/><path d="M63.217 104.73l5.805-2.51 5.805 2.51v21.338h-11.61V104.73z" fill="url(#M)"/><path d="M82.357 104.73l5.805-2.51 5.805 2.51v21.338h-11.61V104.73z" fill="url(#N)"/><path d="M101.5 104.73l5.805-2.51 5.805 2.51v21.338H101.5V104.73z" fill="url(#O)"/><path d="M120.64 104.73l5.805-2.51 5.805 2.51v21.338h-11.61V104.73z" fill="url(#P)"/><path d="M139.78 104.73l5.805-2.51 5.805 2.51v21.338h-11.61V104.73z" fill="url(#Q)"/><path d="M-69.753 137.23c-3.248 1.825-3.318 5.781-2.947 7.531 11.44 2.386 35.194 6.704 38.692 4.893s6.266-6.031 7.212-7.914c2.233 2.171 9.398.539 8.858-3.735 6.916 2.157 15.13-2.588 18.373-5.231 1.832.944 6.168 2.052 8.861-1.062 8.203 2.199 9.711-2.167 11.999-3.711.812 3.189 11.438 3.328 12.781 1.834 8.649 2.634 30.649 2.65 40.568 2.329 3.347 1.921 10.25 2.774 18.393 2.628 8.103-.145 19.394-3.687 23.475-6.509 7.056 1.913 13.239.236 15.449-.842 2.613 1.931 10.687-.015 12.012-1.196 3.476 2.4 12.95 4.358 15.507.891 2.111 1.535 4.277 2.131 5.696 2.055s4.793 1.376 16.132 6.427c9.071 4.041 23.018 7.818 28.858 9.201v-10.027c-1.853-4.957-12.992-12.25-17.856-13.505-5.07-1.309-12.395-2.26-16.002-.942-2.04-2.981-10.233-6.817-17.124-7.212s-12.529 1.173-17.549 3.684c-5.178-6.012-19.232-5.093-23.848-1.335-5.205-1.305-11.379-1.27-12.08 0-4.544-1.152-11.61-3.339-14.277.768-3.883-3.523-16.785-7.671-24.946-.425-11.61-7.56-20.71-3.461-26.515-.343-9.519-2.81-15.574-2.255-18.674-1.176-4.316-3.286-19.422-5.304-23.373 0-5.347-2.664-9.29-2.093-11.139 0-2.04-2.119-8.496-.875-8.658 1.944-2.757-.158-4.243.909-4.641 1.462-1.07-.533-4.283-3.046-10.548-3.406-7.832-.449-9.727 3.406-12.111 6.662-6.919.074-13.605 1.576-13.983 8.155-4.874.034-7.882 3.161-6.594 8.107z" fill="#9dbd4b"/><g fill="#abcb5d"><path d="M40.457 136.83c3.831 9.903 18.422 10.82 27.692 1.491 19.745-19.875-22.282-37.43-28.067-11.696-.89 3.364-.76 6.913.375 10.205zm74.933-1.39c3.582 9.303 17.228 10.164 25.897 1.401 18.465-18.67-20.838-35.161-26.248-10.988a16.55 16.55 0 0 0 .351 9.587z" opacity=".3"/></g><g fill="#bcd84d"><path d="M43.663 135.38c3.048 7.983 14.661 8.721 22.038 1.203 15.713-16.02-17.733-30.17-22.337-9.428a14.3 14.3 0 0 0 .298 8.225zm74.687-1.32c2.873 7.503 13.816 8.197 20.769 1.13 14.809-15.057-16.711-28.356-21.05-8.861a13.41 13.41 0 0 0 .281 7.731z" opacity=".3"/></g><g fill="#aeff7c"><path d="M60.718 86.108c9.581-.564 14.353 5.601 13.402 12.649 6.131-2.255 14.885 3.139 17.965 11.597s-10.693 8.317-17.965 7.189c3.422 4.699 7.899 14.999-1.568 18.608s-9.268-9.868-7.984-17.057c-1.283 6.813-5.304 19.228-11.121 14.379-7.272-6.062-1.141-13.251 2.281-18.185-9.553 0-17.68.423-16.539-8.74.913-7.33 14.733-3.054 21.53 0-3.992-6.578-9.581-19.876 0-20.44zm25.996 6.449c-2.447-.528-4.859 1.028-5.387 3.475s1.45 2.904 3.897 3.432 4.438.927 4.965-1.52-1.028-4.859-3.475-5.387zm2.198 40.263c1.488-2.013 1.521-4.512.075-5.582s-2.67.551-4.158 2.564-2.677 3.658-1.23 4.728 3.826.304 5.314-1.71z"/></g><circle transform="matrix(-1 0 0 1 73.176 104.04)" cx="6.45" cy="6.45" r="6.45" fill="#fff"/><g fill="#aeff7c"><path d="M34.443 75.807c5.042-.297 7.553 2.947 7.053 6.656 3.226-1.187 7.834 1.652 9.454 6.103s-5.627 4.377-9.454 3.783c1.801 2.473 4.157 7.893-.825 9.792s-4.877-5.193-4.202-8.976c-.675 3.586-2.791 10.119-5.853 7.567-3.827-3.19-.6-6.974 1.201-9.57-5.027 0-9.304.222-8.704-4.599.48-3.858 7.753-1.607 11.33 0-2.101-3.462-5.042-10.46 0-10.757zm13.68 3.394c-1.288-.278-2.557.541-2.835 1.829s.763 1.528 2.051 1.806 2.335.488 2.613-.8-.541-2.557-1.829-2.835zm1.157 21.189c.783-1.059.801-2.374.039-2.937s-1.405.29-2.188 1.349-1.409 1.925-.648 2.488 2.014.16 2.797-.9z"/></g><circle transform="matrix(-1 0 0 1 40.999 85.244)" cx="3.395" cy="3.395" r="3.395" fill="#fff"/><g filter="url(#A)" class="B"><ellipse transform="matrix(-.94948 -.31384 -.31384 .94948 83.658 1.8833)" cx="9.13" cy="9.439" rx="9.13" ry="9.439"/></g><g filter="url(#B)" class="B"><ellipse transform="matrix(-.94948 -.31384 -.31384 .94948 85.882 13.269)" cx="10.876" cy="11.243" rx="10.876" ry="11.243"/></g><g filter="url(#C)" class="B"><ellipse transform="matrix(-.94948 -.31384 -.31384 .94948 85.827 22.664)" cx="10.876" cy="11.243" rx="10.876" ry="11.243"/></g><g filter="url(#D)" class="B"><ellipse transform="matrix(-.94948 -.31384 -.31384 .94948 87.205 32.297)" cx="11.957" cy="12.361" rx="11.957" ry="12.361"/></g><g filter="url(#E)" class="B"><ellipse transform="matrix(-.94948 -.31384 -.31384 .94948 87.97 42.564)" cx="12.557" cy="12.982" rx="12.557" ry="12.982"/></g><g filter="url(#F)" class="B"><ellipse transform="matrix(-.94948 -.31384 -.31384 .94948 87.97 53.233)" cx="12.557" cy="12.982" rx="12.557" ry="12.982"/></g><g filter="url(#G)" class="B"><ellipse transform="matrix(-.94948 -.31384 -.31384 .94948 90.644 67.144)" cx="14.989" cy="14.386" rx="14.989" ry="14.386"/></g><g stroke="#209c46" class="F"><path d="M61.338 80.361c-3.082 0-5.927.713-7.112 5.69m-1.185 2.136c-1.901 1.97-3.088 4.814 0 8.535"/></g><ellipse transform="matrix(-.94948 -.31384 -.31384 .94948 81.964 83.718)" cx="13.276" cy="14.225" rx="13.276" ry="14.225" class="B"/><g stroke="#209c46" class="F"><path d="M65.843 78.704c-1.422.079-6.638 3.319-6.638 9.246m-.237 7.823c-1.897 2.608-2.608 6.639-.474 9.009"/></g><g class="B"><ellipse transform="matrix(-.94948 -.31384 -.31384 .94948 87.654 90.228)" cx="13.276" cy="14.225" rx="13.276" ry="14.225"/><path d="M57.828 101.96c-3.937 6.739 1.107 14.425 7.64 16.585s16.593-2.727 16.593-9.846c2.314-7-1.681-13.344-8.214-15.504s-13.706 1.764-16.019 8.765z"/></g><path d="M56.36 102.95c0 9.196 5.86 12.127 12.832 12.261 6.819.131 13.246-2.657 13.246-11.239 0-6.771-5.974-12.465-12.832-12.465S56.36 96.179 56.36 102.95z" fill="#209c46"/><circle transform="matrix(-1 0 0 1 89.551 73.489)" cx="19.44" cy="19.44" r="19.44" fill="#7fe858"/><g class="E"><path d="M79.44 88.191c.762.704.844.816 2.066.743.418-.194.659-.28.983-.647s.403-.82.535-1.024c.063-1 .013-1.07-.293-1.869l-.012-.22c3.328.166 3.751 7.435 1.565 9.57-1.592 1.554-3.513.961-4.479-.699-1.013-1.742-1.091-5.604-.365-5.854z" fill="#020201"/><g fill="#fefefe"><path d="M82.732 85.393c.306.799.356.87.293 1.869-.132.205-.208.655-.535 1.024s-.566.453-.983.647c-1.222.073-1.304-.039-2.066-.743-.177-.809.497-1.734.934-2.144.411-.384 1.696-.952 2.357-.653zm-24.754 1.555c.1-.547 1.054-1.482 1.458-1.415.577.016 1.094.287 1.226.888l.026.208c.003.039.001.07.002.11.043 1.461-.435 2.407-1.99 1.408-.898-.577-.704-.115-.722-1.198z"/></g><path d="M59.598 89.159c.787-.384 1.232-.385 1.638-1.445.35-.915.205-1.91-.359-2.365-.13-.29-.061-.075-.057-.356 1.421.097 2.036.641 2.542 1.55.447.802 1.05 1.961.854 2.79l.076.179c.552 1.965-1.016 7.571-4.574 6.481-2.017-.618-2.712-3.669-2.707-5.535a9.26 9.26 0 0 1 .101-1.307c.22-1.527.306-1.125.538-1.121.294.729.949 1.012 1.948 1.129z" fill="#000"/><path d="M59.598 89.16c-.999-.117-1.654-.4-1.948-1.129-.076-.326-.137-.262-.032-.615.033-.093.08-.18.14-.259a.58.58 0 0 1 .221-.21c.017 1.083-.176.622.721 1.199 1.555.999 2.034.053 1.99-1.408l-.002-.11-.025-.208c-.133-.6-.65-.872-1.227-.888.35-.343.069-.236.653-.265a2.6 2.6 0 0 1 .788.082c.564.454.71 1.45.359 2.365-.406 1.059-.851 1.06-1.638 1.444z" fill="#f3f4f7"/></g><path d="M124.15 90.364l-.058-.154-5.49-14.014-2.345-4.936-9.32-11.819a5.09 5.09 0 0 0-7.144-.845c-1.697 1.338-2.299 3.537-1.701 5.486l-.019-.025c-.266.091-.526.204-.779.341s-.496.297-.73.481a5.09 5.09 0 0 0-.844 7.144l8.449 10.714c.002.003 1.197 2.061 1.733 3.452l.592 1.511.001.005-10.814-4.34c-.801-.322-4.751-1.581-5.553-1.494l-1.008.08-8.246 1.488a5.09 5.09 0 0 0-4.103 5.91 5.09 5.09 0 0 0 5.91 4.102l7.55-1.085c.691 0 1.176.246 1.66.44l13.002 5.218-5.499 8.194c-5.312 5.41-11.023 2.027-13.657-.124-.864-.705-1.391-1.713-1.531-2.819-.191-1.505-.894-4.02-3.292-6.73-6.004-6.504-11.651-.449-11.651-.449l1.872 8.157a34.69 34.69 0 0 0 5.114 11.736c3.977 5.855 10.485 13.794 16.905 14.492 10.271 1.116 22.999-1.918 29.389-14.206 6.651-12.792 1.607-25.911 1.607-25.911h0z" fill="#fdb082"/><g fill="#f39863"><path d="M122.55 116.27c-6.396 12.295-19.12 15.335-29.385 14.216-6.424-.705-12.931-8.635-16.91-14.492a34.8 34.8 0 0 1-2.335-3.979c4.02 5.733 10.168 12.876 16.247 13.525 10.264 1.119 22.988-1.92 29.385-14.202 6.645-12.793 1.602-25.917 1.602-25.917l-.055-.152-5.485-14.009-.981-2.072 1.631 2.072 2.348 4.932 5.485 14.022.055.152s5.043 13.124-1.602 25.903h-.001zM106.49 87.7l-.592-1.511c-.536-1.391-1.731-3.449-1.733-3.452l-8.448-10.714a5.09 5.09 0 0 1 .844-7.144 5.07 5.07 0 0 1 1.508-.822l9.325 12.397 5.849 13.96-6.753-2.714z"/></g><path d="M113.25 90.414l-4.117-10.508c-.535-1.391-1.731-3.449-1.733-3.452L98.952 65.74a5.09 5.09 0 0 1 .845-7.144 5.09 5.09 0 0 1 7.145.845l9.319 11.819 2.346 4.936 5.49 14.014.057.154s5.045 13.119-1.607 25.911c-6.39 12.288-19.118 15.322-29.389 14.206-6.42-.698-12.928-8.638-16.905-14.492-2.42-3.563-4.15-7.539-5.114-11.736l-1.872-8.157s5.647-6.055 11.651.449c2.398 2.71 3.101 5.225 3.292 6.73.14 1.106.667 2.114 1.531 2.819 2.634 2.151 8.345 5.535 13.657.124l5.499-8.194-13.002-5.218c-.485-.195-.97-.44-1.66-.44l-7.55 1.085a5.09 5.09 0 0 1-5.91-4.102 5.09 5.09 0 0 1 4.103-5.91l8.246-1.489 1.008-.08c.802-.087 4.752 1.172 5.553 1.494l19.323 7.754" stroke="#f39863" stroke-linejoin="round" class="G"/></g><defs><filter id="A" x="62.864" y="-3.314" width="19.581" height="20.704" filterUnits="userSpaceOnUse" class="C"><feFlood result="A" class="D"/><feColorMatrix in="SourceAlpha" result="B" values="0 0 0 0 0 0 0 0 0 0 0 0 0 0 0 0 0 0 127 0"/><feOffset dx="1.25513" dy="-1.88269"/><feComposite in2="B" operator="out"/><feColorMatrix values="0 0 0 0 0.12549 0 0 0 0 0.611765 0 0 0 0 0.27451 0 0 0 1 0"/><feBlend in2="A"/><feBlend in="SourceGraphic"/></filter><filter id="B" x="61.112" y="7.437" width="21.83" height="24.305" filterUnits="userSpaceOnUse" class="C"><feFlood result="A" class="D"/><feColorMatrix in="SourceAlpha" result="B" values="0 0 0 0 0 0 0 0 0 0 0 0 0 0 0 0 0 0 127 0"/><feOffset dy="-1.88269"/><feComposite in2="B" operator="out"/><feColorMatrix values="0 0 0 0 0.12549 0 0 0 0 0.611765 0 0 0 0 0.27451 0 0 0 1 0"/><feBlend in2="A"/><feBlend in="SourceGraphic"/></filter><filter id="C" x="61.058" y="16.833" width="23.085" height="24.305" filterUnits="userSpaceOnUse" class="C"><feFlood result="A" class="D"/><feColorMatrix in="SourceAlpha" result="B" values="0 0 0 0 0 0 0 0 0 0 0 0 0 0 0 0 0 0 127 0"/><feOffset dx="1.25513" dy="-1.88269"/><feComposite in2="B" operator="out"/><feColorMatrix values="0 0 0 0 0.12549 0 0 0 0 0.611765 0 0 0 0 0.27451 0 0 0 1 0"/><feBlend in2="A"/><feBlend in="SourceGraphic"/></filter><filter id="D" x="58.718" y="24.818" width="25.256" height="27.789" filterUnits="userSpaceOnUse" class="C"><feFlood result="A" class="D"/><feColorMatrix in="SourceAlpha" result="B" values="0 0 0 0 0 0 0 0 0 0 0 0 0 0 0 0 0 0 127 0"/><feOffset dx="-1.25513" dy="-3.13782"/><feComposite in2="B" operator="out"/><feColorMatrix values="0 0 0 0 0.12549 0 0 0 0 0.611765 0 0 0 0 0.27451 0 0 0 1 0"/><feBlend in2="A"/><feBlend in="SourceGraphic"/></filter><filter id="E" x="59.37" y="34.868" width="26.461" height="29.026" filterUnits="userSpaceOnUse" class="C"><feFlood result="A" class="D"/><feColorMatrix in="SourceAlpha" result="B" values="0 0 0 0 0 0 0 0 0 0 0 0 0 0 0 0 0 0 127 0"/><feOffset dx="1.25513" dy="-3.13782"/><feComposite in2="B" operator="out"/><feColorMatrix values="0 0 0 0 0.12549 0 0 0 0 0.611765 0 0 0 0 0.27451 0 0 0 1 0"/><feBlend in2="A"/><feBlend in="SourceGraphic"/></filter><filter id="F" x="58.115" y="45.536" width="26.461" height="29.026" filterUnits="userSpaceOnUse" class="C"><feFlood result="A" class="D"/><feColorMatrix in="SourceAlpha" result="B" values="0 0 0 0 0 0 0 0 0 0 0 0 0 0 0 0 0 0 127 0"/><feOffset dx="-1.25513" dy="-3.13782"/><feComposite in2="B" operator="out"/><feColorMatrix values="0 0 0 0 0.12549 0 0 0 0 0.611765 0 0 0 0 0.27451 0 0 0 1 0"/><feBlend in2="A"/><feBlend in="SourceGraphic"/></filter><filter id="G" x="56.963" y="58.511" width="31.125" height="32.04" filterUnits="userSpaceOnUse" class="C"><feFlood result="A" class="D"/><feColorMatrix in="SourceAlpha" result="B" values="0 0 0 0 0 0 0 0 0 0 0 0 0 0 0 0 0 0 127 0"/><feOffset dx="1.25513" dy="-3.13782"/><feComposite in2="B" operator="out"/><feColorMatrix values="0 0 0 0 0.12549 0 0 0 0 0.611765 0 0 0 0 0.27451 0 0 0 1 0"/><feBlend in2="A"/><feBlend in="SourceGraphic"/></filter><linearGradient id="H" x1="-77.144" x2="215.32" y1="110.3" y2="110.3" xlink:href="#T"><stop stop-color="#fff" offset="0"/><stop stop-color="#fbd406" offset=".49"/><stop stop-color="#fff" offset="1"/></linearGradient><linearGradient id="I" x1="-77.144" x2="215.32" y1="121.6" y2="121.6" xlink:href="#T"><stop stop-color="#fff" offset="0"/><stop stop-color="#fbd406" offset=".49"/><stop stop-color="#fff" offset="1"/></linearGradient><linearGradient id="J" x1="11.6" x2="11.6" y1="102.22" y2="126.07" xlink:href="#T"><stop stop-color="#fbd23e" offset="0"/><stop stop-color="#fffa84" offset=".526"/><stop stop-color="#ffefb5" offset="1"/></linearGradient><linearGradient id="K" x1="30.74" x2="30.74" y1="102.22" y2="126.07" xlink:href="#T"><stop stop-color="#fbd23e" offset="0"/><stop stop-color="#fffa84" offset=".526"/><stop stop-color="#ffefb5" offset="1"/></linearGradient><linearGradient id="L" x1="49.881" x2="49.881" y1="102.22" y2="126.07" xlink:href="#T"><stop stop-color="#fbd23e" offset="0"/><stop stop-color="#fffa84" offset=".526"/><stop stop-color="#ffefb5" offset="1"/></linearGradient><linearGradient id="M" x1="69.022" x2="69.022" y1="102.22" y2="126.07" xlink:href="#T"><stop stop-color="#fbd23e" offset="0"/><stop stop-color="#fffa84" offset=".526"/><stop stop-color="#ffefb5" offset="1"/></linearGradient><linearGradient id="N" x1="88.162" x2="88.162" y1="102.22" y2="126.07" xlink:href="#T"><stop stop-color="#fbd23e" offset="0"/><stop stop-color="#fffa84" offset=".526"/><stop stop-color="#ffefb5" offset="1"/></linearGradient><linearGradient id="O" x1="107.3" x2="107.3" y1="102.22" y2="126.07" xlink:href="#T"><stop stop-color="#fbd23e" offset="0"/><stop stop-color="#fffa84" offset=".526"/><stop stop-color="#ffefb5" offset="1"/></linearGradient><linearGradient id="P" x1="126.44" x2="126.44" y1="102.22" y2="126.07" xlink:href="#T"><stop stop-color="#fbd23e" offset="0"/><stop stop-color="#fffa84" offset=".526"/><stop stop-color="#ffefb5" offset="1"/></linearGradient><linearGradient id="Q" x1="145.58" x2="145.58" y1="102.22" y2="126.07" xlink:href="#T"><stop stop-color="#fbd23e" offset="0"/><stop stop-color="#fffa84" offset=".526"/><stop stop-color="#ffefb5" offset="1"/></linearGradient><clipPath id="R"><path d="M0 12.349C0 6.064 5.095.969 11.38.969H142v127.46H11.38c-6.285 0-11.38-5.095-11.38-11.38v-104.7z" fill="#fff"/></clipPath><path id="S" d="M24.936 104.73l5.805-2.51 5.805 2.51v21.338h-11.61V104.73z"/><linearGradient id="T" gradientUnits="userSpaceOnUse"/></defs></svg>