<svg xmlns="http://www.w3.org/2000/svg" fill="none" viewBox="0 0 142 128" xmlns:v="https://vecta.io/nano"><style><![CDATA[.B{fill:#fff}.C{fill:#637170}.D{fill:#f39863}.E{fill:#3f2e26}.F{fill:#231623}.G{fill:#3c4344}.H{fill:#fdb082}.I{fill:#292627}.J{fill-rule:evenodd}]]></style><g clip-path="url(#A)"><path d="M0 11.562C0 5.277 5.095.181 11.381.181h130.62v127.46H11.381C5.096 127.641 0 122.545 0 116.26V11.56z" fill="#ffe6b5"/><path d="M-1.22 84.583c-36.158 0-61.416 8.792-65.684 16.901l8.194 27.657H187l7.554-40.077c-6.273 0-32.651-9.848-46.222-12.292-20.614-3.713-29.449 3.585-66.196 12.292-29.833 7.068-38.156-4.482-83.353-4.482z" fill="#77544e"/><path d="M75.813 106.52l-.43-.076c.1.081.174.172.167.279.001.015-.008.028-.011.042l.858.25-.128.749-1.559-.56.222-.118c-.244-.021-.502-.055-.668-.126-.87-.346-.892-.57-.148-.837-.126-.076-.182-.168-.057-.266.153-.123.564-.217.872-.196.332.023.809.168.982.317.148.122-.036.313-.099.542zm-20.434-7.901l.194.268c-.631.115-1.057.12-1.266-.195-.107-.163-.147-.316 0-.447-.142-.202-.106-.428.128-.699l1.685.084c.117.46-.076.788-.74.989zm8.915-.112c-.315-.008-.612-.069-.903-.13.042.04.126.059.146.104.064.013.115.014.178.027.246.059.565.234.588.352.058.218-.222.348-.72.288l-.368-.042c-.154.034-.343.058-.589.051l-.539-.042-.168.266-.474-.252c.269.291.493.626-.505.799l-1.473-.924c.737-.153 1.258-.166 1.613-.067l-.251-.131c.076-.061.178-.103.261-.149-.06-.077-.123-.148-.166-.247l1.583-.248c.023 0 .041.006.062.003l-.707-.222c.621-.19 1.158-.351 1.738-.205.489.128 1.053.379.694.768zm-1.686-2.141l1.217.409-.357.597c-1.358-.476-1.372-.49-.86-1.007zm14.376 7.029c-.797-.152-1.745-.17-1.958-.786l1.144-.235c1.173.37 1.178.376.814 1.021zm-18.459-7.386l-1.277-.562c-.115-.07.03-.256.05-.395.213.028.459.034.642.097.579.195.745.475.585.86zm12.643 4.243c-.183.127-.279.265-.487.327-.428.136-.833-.035-1.121-.218-.164-.097-.16-.262-.231-.398.342-.012.685-.061 1.021-.02.253.033.492.178.817.309zm4.458 4.368c-.213.152-1.347.027-1.903-.266.032-.116-.026-.336.143-.467.126-.103.375-.142.655-.136-1.34-.233-1.442-.389-.701-1.005 1.331.329 1.544.567.999 1.042.213.034.421.087.584.174.39.219.495.457.222.658zm-3.702 2.568c.316.089.523.285.807.453-1.126.205-1.119.205-2.164-.418.344-.271.904-.169 1.357-.035zM36.773 95.434c-.412-.314-1.034-.572-.782-1.179l1.241-.264.474.899-.61.472c-.051.035-.163.041-.323.071zm9.916 1.857c.155-.091.313-.124.465-.178-.858-.238-.872-.442-.154-.965l.431.198c.257-.088.506-.035 1.084.157l1.286.409c-.004.013 0 .023-.003.035.529.209.276.548.211.888l-.404-.128c-.684.163-1.006-.167-1.425-.344-.014-.004-.032-.011-.044-.014l-.215.235-1.231-.293zm6.645 3.769l-1.032-.438.092-.17 1.71-.066-.769.674zm-3.721-1.002c-.168-.098-.255-.282-.218-.416.022-.073.371-.159.579-.168.241-.016.492.043 1.027.109-.312.252-.442.44-.692.533-.143.058-.553.015-.696-.058zm4.793-5.556c-.854-.086-1.378-.358-1.852-.78.974-.241 1.697.085 1.852.78zm-4.365 1.061c.003.015.018.019.018.019.002-.008-.009-.011-.018-.019zm-.977-1.02c-.001.022.009.029.014.035.005-.018-.009-.022-.014-.035zm-1.42 1.014c.108-.035.205-.042.312-.063l-.463-.064c-.317-.05-.644-.145-.967-.159-1.153-.052-1.398-.289-.846-.962l.838.331.657-.079-.806-.239c-.441-.146-.24-.697.244-.67.698.032 1.452.144 2.072.336.24.076.355.179.412.29.071-.099.366-.191.655-.331.294.309.559.523.677.751.048.112-.136.336-.3.359-.076.01-.179 0-.283-.001.076.052.178.106.233.165.043.044.046.097.041.153.867-.265.986-.249 1.832.03-.734.632-1.172.67-1.83.212l-.368.593c-1.031.095-1.628-.14-2.111-.653zm10.34 4.533c.072.136-.088.297-.146.448-.237-.035-.546-.034-.71-.111-.202-.099-.395-.228-.588-.338-.126.031-.28.048-.506.039-.002-.188-.636-.395.063-.559.097-.023.309.036.467.105.78-.019 1.248.117 1.421.416zm-5.057-1.002c-.779-.199-1.768-.176-1.675-.84.403-.076.626-.111.879-.113-.179-.066-.339-.168-.518-.269-.522-.31-.365-.567.018-.837.936.157 1.204.243 1.276.619.044.013.08.01.12.027.2.085.245.276.444.525l-.424.036.672.124-.791.728zm-63.178.759c.577.347.049.556-.113.965l-.897-.752c.197-.389.582-.466 1.009-.213zm-1.602 3.179c-.312.258-.595.491-1.041.004.553-.631.562-.629 1.041-.004zm13.356-.532l-1.511.144.058-.975 1.453.831zm-16.423-1.175c-.141.405-.267.765-1.087.416.096-.57.405-.739 1.087-.416zm-15.626.918c-.489-.18-.482-.356-.147-.649.457-.401.966-.365 1.672.041-.08.097-.147.152-.218.233.037.03.077.047.12.09-.379.33-.585.435-.83.359-.18.026-.362.011-.596-.074zm-23.264-1.308c-.33-.525.635-1.28 1.463-1.119.242.048.458.256.774.446l-1.372.885c-.268.142-.678.092-.866-.212zm27.969 1.175c.038.267-.117.469-.559.416-.51-.064-.65-.27-.631-.98.69-.109 1.117.057 1.191.564zm-37.681-1.563l1.151-.431c1.043-.425 1.165-.397 2.123.438-.028.051-.077.076-.115.122.053.021.114.027.163.055l-.395.191c-.334.303-.76.499-1.275.611l-.406.206-.108-.101-1.159.153c-.965-.811-.955-.879.021-1.244zm5.855-.8c.11.243-.243.51-.414.853-1.561-.735-1.574-.734-1.156-1.403.649.012 1.362.073 1.569.549zm22.534 2.523l-1.012.708c-.964-.114-.959-.561-.961-1.083.652.112 1.271-.332 1.973.375zm3.904-6.56c-.157-.127-.26-.371-.178-.487.065-.119.411-.244.587-.201.333.084.669.222 1.011.356-.236-.577-.116-.635 1.011-.873l.541.747c-.363.259-.665.52-1.233.404-.737.531-1.131.544-1.738.054zm5.616-.864c-.124-.13.031-.522.23-.583.39-.112.566-.693 1.245-.279.216.131.474.453.401.549-.174.243-.545.397-.898.643-.381-.121-.833-.168-.978-.33zm-5.706 2.55l.445-.761c.779.24.888.534.666.827-.211.278-.586.269-1.112-.066zm-15.449 1.115l1.534.597-1.347.628-.82-.836.634-.389zm31.945-3.971l1.816-.308.334.897c-.991.219-1.581.056-2.149-.588zm-29.633 4.097c-.443-.323-.13-.724.836-1.027a.82.82 0 0 1-.409-.4c-.238-.539-.018-.751 1.084-1.008l1.125.715-.559.486c-.113.089-.254.169-.409.222-.064.028-.133.029-.194.044.107.031.228.065.305.124.356.268-.129.954-.785 1.061-.265.044-.79-.071-.994-.218zm-4.039.559c-.247.187-.628.317-.986.041-.237-.183-.379-.515-.291-.699.09-.201.457-.409.787-.42.277-.015.649.238 1.116.434-.294.307-.431.492-.627.644zm22.387-2.064c.793-.616.876-.627 1.432-.126.446-.187.883-.371 1.618.045-.091.722-.662.962-1.614.963l-.532-.656c-.266.017-.566-.06-.905-.226zm-27.148-.059c.511-.104 1.023-.011 1.407.303.288.242-.13.893-.828 1.052-.243-.098-.711-.211-.963-.411-.429-.331-.185-.827.385-.945zm26.942-4.447c-.295.164-.666.255-.938-.023-.177-.179-.264-.493-.153-.662.154-.22.54-.356.832-.526.76.771.783.912.259 1.211zm1.804-.067c-.323.369-.764.154-1.372-.02l.178-.913c.345.058.736.062 1.015.191.447.197.415.489.179.743zm1.599.087c-.273.489-.869.176-1.479.064.109-.431.25-.782.924-.615.25.061.616.436.555.551zm3.443-2.67c.592-.984.816-1.026 1.828-.434-.609.801-.643.819-1.828.434zm6.794-1.857c.557.019.945.553.934 1.308l-1.58.164.213.349 1.607-.022c.458.368.382.728.074.96-.482.383-1.145.128-1.845.02l-.175-.638-1.961.069c-.016-.608.379-.871.94-1.059.015-.892.502-1.202 1.792-1.152zm-5.521 2.677l.535-.108c.008-.016.012-.035.019-.052.089-.108.497-.179.69-.122.083.022.176.107.238.198l.249.132c.764.464.74.729-.002 1.061-.567.257-1.17.34-1.901.156l-.291-.302c-.541-.594-.468-.775.461-.965zm36.228 7.908l.272-.113.931.689.387-.169.213.139-.699 1.113-.76-.577-.188.089-.156-1.171zm-32.168-5.799c-.337.324-.723.216-1.254-.082l.968-.88c.749.384.579.678.285.963zm-28.594-.734c1.245.511 1.334.876.324 1.304-.477.201-.982.325-1.691.079-.049-.693.128-1.266 1.367-1.382zm3.524-.469c1.996-.38 1.989-.449 2.788.446-.607.388-1.354.527-2.321.453l-.467-.898zm22.091.763l.25.725c-1.113-.167-.617-.455-.25-.725zm-33.602 3.798c.398.591-.137.705-.603.846-.164.042-.357.051-.554.085l-.84-.825 1.998-.107zm-18.236 12.012c-.697.367-.987 1.021-2.435.521-.078-.711-.079-.715 1.067-1.513l1.367.992zm-14.707 7.774c.058.056.016.132.009.256-.907.064-1.801.305-3.051-.252l-.001-.979 2.259.274.784.701zm5.874-8.24c.039-.012.056-.026.095-.038l1.227.641c-.164.73-.915.96-2.248.934-.122-.287-.134-.532-.078-.746-.685-.051-1.43-.184-2.079-.748.908-.127 1.588-.307 2.317-.298.231.004.498.122.766.255zm7.702-4.677c.37.096.729.303 1.104.341-.192 1.006-.178 1.003-1.646 1.094-.108-.076-.106-.142-.187-.216l-.055.023c-1.004-1.034-.812-1.368.678-1.448l.105.206zm-5.1 7.97c-.532-.573-.522-.972-.022-1.353l1.145.753-1.122.6zm-1.332-8.321c.129-.121.218-.274.407-.349.604-.245 1.268-.165 2.074.191-.574.165-1.066.355-1.627.453-.184.026-.559-.189-.854-.295zm4.406-2.557l1.204-.511 1.207.63c-1.38.557-1.426.56-2.411-.119zm-6.543 4.059c-.474.497-1.261.656-2.368.687-.192-.791.776-1.044 2.368-.687zm22.456-6.361c.189-.015.36-.006.405.03.114.091.19.202.277.313l.177.091c-.019.019-.038.031-.056.044l.421.626-1.5.122c-.038-.053-.085-.096-.137-.15-.378.081-.81.098-1.39-.049l-.414-.853c1.132-.391 1.494-.478 2.216-.173zm-10.831 2.648c-.237.53-.895.82-1.832 1.189-.258-.527-.468-.979-.008-1.256a1.68 1.68 0 0 1 1.84.067zm30.139-2.649c.236.849.246.845-1.209.713-.055-.811-.045-.814 1.209-.713zm-3.021 1.148l.074.807c-.312-.092-.698-.143-.747-.231-.198-.391.127-.544.672-.576zm-35.784 7.92c-.737-.223-.851-.657-.444-1.128l1.603-.044c.5.354.963.729.312 1.024-.352.155-1.075.264-1.47.148zm21.474-11.331c-.425.414-.606 1.018-1.935.739l-.325-.901c.95-.512.959-.511 2.259.162zm-6.971 2.178c.21.366-.232.514-.679.576-.241.04-.596-.073-.897-.119.039-.227-.003-.483.155-.672.12-.142.478-.199.816-.32.237.203.513.36.606.535zm-7.923 8.822c-.977.353-1.819.225-2.777-.379l.709-1.028c1.23.273 1.968.669 2.068 1.407zm19.84-12.48c.196-.227.255-.508.406-.823l1.25.472c-.037.302-.035.494-.095.672-.114.415-.756.679-1.242.505-.63-.231-.592-.509-.319-.825zm15.71-1.342c.937.082 1.501.235 1.68.427.061-.096.145-.187.264-.271a1.18 1.18 0 0 1 .833-.102c.211.075.408.381.393.553-.035.412-.405.641-1.072.611-.286-.158-.416-.317-.456-.47-.186.237-.525.465-.89.515-.576.075-.854-.358-.752-1.262zm-12.895 3.709c-.495-.099-1.053-.373-1.032-.807 1.029-.336 1.224-.343 1.927.078.187-.538.514-.714 1.048-.543.5.168.866.41.692.794-.182.447-.53.487-1.596.16-.213.281-.576.41-1.038.319zm20.011 1.141l.087.232-1.358.533-.28-.187.226-.846 1.325.268zm-6.458.746l-.139.021c-.206-.705-.121-1.094.906-1.081.018.061.059.135.096.205.03-.014.049-.028.084-.036.237-.052.651-.04.85.069a.76.76 0 0 1 .344.589c.008.46-.53.788-1.106.744-.629-.05-.831-.117-1.035-.51zm-35.692 14.18c.762.351.334.599.218.894l.066.014c-.367.661-.817.873-1.494.674-.353-.106-.817-.416-.839-.589-.008-.164.427-.367.754-.373.023 0 .057.016.08.008.109-.276.195-.499.369-.65.104-.083.637-.067.845.022zm22.741-11.688l.437-.982c.884.9.83.975-.437.982zm-22.053 10.124c-.276.041-.719-.023-1.007-.136-.158-.063-.223-.345-.173-.483.052-.168.269-.288.596-.587.463.366.831.577.956.798.081.13-.156.364-.372.408zm-.89 7.698c-.284.172-.473.468-.854.48-.445.021-1.043-.196-1.593-.315.069-.245.026-.671.25-.68.664-.031 1.479-.123 2.197.515zM28.59 97.645c-.035-.642-.02-.677.333-.788.454-.147.832-.052 1.05.179.116.13.206.377.095.475-.389.335-.906.292-1.478.133zm4.221.675c-.728-.124-1.493-.114-1.644-.725.754-.414 1.409-.34 2.167.038l-.523.687zm-16.014-1.98c.506-.129.587-.62 1.11-.41.624.253.115.588-.087 1.022l-1.022-.611zm28.214 4.001c-.222-.073-.336-.173-.333-.315.005-.158.234-.405.451-.452.214-.04.648.075.785.2.012.009.008.026.022.032l1.004-.006c.151.021.33.22.303.314.026-.019.028-.04.071-.061.217-.106.704-.111 1.029-.069.251.028.431.197.714.334-.636.479-1.084.562-1.565.294-.188-.107-.368-.245-.341-.382-.136.14-.346.175-.584.175l.236.265c-.904-.01-1.57.368-2.2.008a1.82 1.82 0 0 1 .409-.337zm-20.714-2.929c-.511-.079-.788-.275-.681-.517s.739-.45 1.21-.337c.169.041.33.28.29.413-.075.266-.265.528-.819.441zM.25 93.031l2.013-.303-.04.525c.43-.026.818.001.836.407.012.095-.339.271-.529.269-.278.005-.448-.051-.534-.159-.743.121-1.14-.219-1.746-.74zm-4.312-1.613c.667.216.962.461.69.835-.338.463-.922.514-1.935.323l1.245-1.157zm-2.17.252c.515.911.33 1.057-1.221 1.103-.343-.714-.35-.719 1.221-1.103zm20.202 4.029c.024-.14.293-.355.475-.369.513-.04 1.023.262 1.009.521-.01.252-.37.411-.896.415-.586.005-.643-.286-.588-.567zm-23.718-3.844l.335-.891 1.395-.175c1.074-.135 1.078-.132 1.547.712l-1.636.36c-.222.048-.444.138-.666.2.358.607.172.765-1.015.858.086-.346.024-.723.336-.912-.095-.037-.186-.064-.297-.151zm4.383 2.57c1.058-.413 1.065-.411 1.74-.29.042.31.247.655-.329.812-.656.176-.968-.198-1.41-.522zm11.518-2.527c.117-.054.229-.081.342-.105-.037-.289.416-.737.792-.726.412.012.731.165.801.463.049.246.073.493.106.743-.018.005-.033.004-.052.005a.68.68 0 0 1 .018.362c-.019.089-.538.187-.802.156-.684-.072-1.095-.374-1.204-.898zm52.287 7.519c-.127.061-.271.117-.389.162-.248-.001-.44-.054-.645-.094-.12.015-.271.015-.529-.005l.088-.079c-.263-.089-.493-.198-.703-.336-.594-.409-.516-.614.399-.808l.637-.096 1.051.432c.819.346.83.495.09.824zm-55.3-11.494c-1.004.622-2.103.896-3.437.739-.071.618-.547.974-1.617 1.056l-.939-.646c.485-.731.796-.877 1.758-.652l-.092-.533.487-.06c.702-.093 1.426.057 2.141-.201.436-.165 1.253-.256 1.699.298zm-15.937 3.15c.52-.11.742.216.841.468.009.03-.053.096-.1.149.221-.11.548-.119 1.136-.092.234.403.26.739-.361.98-.454.169-.843.428-1.326-.028.14-.387.258-.598.408-.743-.078.053-.162.106-.225.106-.274.001-.573-.178-1.034-.335.307-.245.434-.46.661-.505zm26.734-2.691c-.747.43-1.298.582-1.877.514.296.578.009.724-1.325.764-.09-.603-.068-.723.619-.926l-.387-.142c-.322-.152-.362-.492-.003-.567.617-.127 1.289-.254 1.936-.228.327.016.646.35 1.037.585zm46.657 9.254c-.422.005-.7 0-.905-.028l-.232.074c.025.167-.111.347-.007.504l-.867.049c-.013.054-.013.103-.021.159-.901.018-.975-.237-1.028-.484l-.264-.188c.056-.057.153-.066.214-.115l-.05-.016c.246-.14.456-.244.652-.318-.013-.005-.037-.007-.048-.015-.299-.183-.014-.296.282-.385.149-.051.254-.125.434-.218l.71.166c.747-.088.952.084 1.127.814zm-67.827-1.273c.472-.065.963.424 1.123 1.026-.742.305-1.185-.272-2.022-.444.387-.264.6-.541.899-.582zm5.276-.992c-.222-.072-.464-.198-.837-.446.877-.878 1.172-.847 1.919.148-.321.216-.533.319-.753.34l.098.895-1.472-.57 1.046-.367zm25.57 5.134c.403-.266.822-.402 1.269-.37l.655-.283.427.532c.038.062.021.149.038.246-.09.043-.178.06-.265.085-.058.118-.174.233-.402.332-.881.387-1.337.253-1.721-.542zM.806 96.869c-.111-.285.206-.456.536-.424.311.025.672.138.874.303.136.107.038.376.054.676-.398-.024-.702.017-.918-.075-.23-.095-.466-.289-.545-.48zm-11.085 1.633c.188-.419.545-.548.996-.31.15.08.117.377.202.716l-1.197-.406zm23.442.02l1.496-.44c.223.43.218.745-.296.947-.443.174-.879-.014-1.201-.507zm47.693 2.082c-.264.251-.787.309-1.279.151-.779-.256-1.183-.726-.871-1.025.245-.229.855-.259 1.485-.068.564.167.93.693.665.942zM7.69 98.528c.052-.247.204-.494.401-.694.109-.107.444-.204.586-.151.205.063.328.274.513.45-.225.245-.385.473-.614.648-.131.102-.428.181-.571.137-.157-.052-.34-.268-.314-.389zm15.545-4.952c.032-.156.126-.349.301-.575.939.238 1.027.373.773.799-.154.256-.434.268-.709.226l-.659.066c-.049-.044-.09-.094-.137-.143l.431-.372zm14.616 2.744l.367-.877 1.849.609c-.891.362-1.44.617-2.216.268zm-17.156-2.284l.604.807-1.224.128c-.157-.437-.445-.834.619-.935zm7.021.355c-.774-.083-.61-.444-.487-.796.619-.022 1.108.053 1.044.484-.016.113-.402.326-.557.312zm4.37.736a.77.77 0 0 1 .507-.524c.608-.159 1.259-.141 1.758.217-.334.436-.865.634-1.557.583a1.95 1.95 0 0 1-.426-.102l.556.569-1.3.205c-.203-.407-.181-.689.506-.9-.019-.016-.046-.034-.044-.047zm-9.742 1.195l-1.282.436c.004-.441-.337-.843.388-.984.607-.121.457.356.894.548zm48.746 10.6c-.45-.19-1-.317-1.067-.466-.071-.16.325-.342.492-.5 1.011.244.978.536.575.966zm-19.062-6.824l.667-.621 1.68.598c-.798.374-1.445.381-2.347.023zM8.894 90.487c-.441.108-1.013.059-1.502-.007-.081-.01-.158-.069-.233-.13-.206.061-.448.071-.73.006-.198-.044-.389-.112-.611-.171.013-.141-.022-.271.05-.359.307-.365.742-.42 1.426-.158.015.005.018.005.022 0 .479-.116 1.003-.163 1.63-.254.024.158.051.219.042.27-.048.276.564.643-.095.804zm15.422-.17c.535-.171 1.133-.273 1.745-.398.025-.148.367-.323.604-.347.719-.057 1.371.068 1.784.559-.208.073-.462.118-.466.176-.043.45-.544.381-.969.289-.219-.046-.433-.115-.604-.199-.112.194-.437.295-.674.367l.11.97-1.869.255.028-.641c-.18.4-.237.622-.38.826-.171.241-.484.407-.925.319-.167-.035-.422-.187-.399-.257.072-.253.161-.535.411-.715.17-.126.619-.103 1.295-.182l.013-.366.557-.133c-.067-.008-.147 0-.208-.012-.393-.067-.451-.382-.053-.512zm-2.443-.907l.757-.154.171.828c-1.17.427-1.851.356-2.535-.34l.034-.007c-.27-.084-.55-.209-.859-.421l.553-.761 1.878.853zM1.58 89.088l1.783-.38c.067.173.115.315.139.433.583-.023.762.214 1.092.963-1.16.187-1.476.17-1.729-.37-.158 0-.316.007-.476-.011-.122-.014-.287-.043-.356-.102-.154-.137-.256-.295-.453-.532zm-3.552.949c-.937.499-1.397.394-1.868-.453.79-.178 1.463-.129 1.868.453zm21.401 4.329c.972.272.517.598.161.997l-1.108-.316.946-.681zm-9.166-3.822c-.242-.213-.347-.415.014-.591a.88.88 0 0 1 1.014.152c.18.176.208.412.299.619-.666.245-.89.205-1.327-.18zm16.248 4.976l-.291-.278c.483-.085.791-.185 1.057-.154.118.01.277.314.197.418-.024.024-.086.043-.126.068.091.106.154.24.229.379-.596.186-1.088.345-1.364-.044-.049-.068.117-.268.298-.389zm16.469-.796c.633-.403 1.306-.315 1.988-.01-.801.597-1.289.597-1.988.01zm-1.513 3.741l.692.375-.553.072c-1.062.311-1.297.28-1.789-.236.905-.552 1.286-.626 1.65-.211zM8.012 93.526c.652.363.517.671.117 1.079l-1.124-.436 1.007-.643zm5.075 1.245c.185.092.333.475.224.556-.443.348-.833.111-1.315-.169.325-.311.569-.642 1.091-.387zm-7.314.299c.905-.276 1.565-.237 2.087.317-.435.626-1.16.491-1.916.51l-.171-.827zm30.774 3.772c.276-.109.678-.146 1-.124.338.028.584.218.356.44-.157.143-.477.274-.745.317-.255.042-.541-.033-.951-.071.139-.249.158-.489.34-.561zm-31.47-8.105c.02.411.355.764-.321.823-.173.014-.547-.207-.591-.353-.137-.442.415-.371.912-.471zm3.842 5.634c-.055-.118.141-.365.313-.478a.96.96 0 0 1 1.076-.025c.279.171.278.209-.057.869-.615.084-1.123.047-1.331-.366zm3.307-3.246c.142-.444.636-.437 1.21-.305-.035.291-.063.588-.417.686.196.058.408.156.707.274-.387.197-.598.386-.797.381-.191-.004-.5-.189-.534-.327-.015-.075.091-.209.203-.299-.154-.017-.409-.292-.372-.41zm3.466-2.235c-.101.144-.538.263-.83.258-.355-.007-.705-.144-1.103-.24l.126-.872c.592.126 1.075.17 1.442.325.231.098.453.407.365.528zm-3.079-.141c.546.087 1.07.246.979.725-.742.225-.729.224-2.232-.308.193-.52.742-.497 1.253-.417zm6.248-.027c.155.221.109.514.06.77-.016.075-.332.172-.507.176-.469.008-.691-.207-.743-.474-.017-.097-.01-.196-.006-.31l-.399.923-1.647-.589.566-.953.783.192c.211.07.401.179.701.329l.03-.478c.606.206 1.053.26 1.163.415zm-8.41.683c.225.362.112.629-.445.802-.592-.626-.544-.734.445-.802zm8.563.37c.33-.44.829-.486 1.373-.5l.207-.494c.736.183 1.547.206 1.706.858-.495.283-.902.226-1.295.121l-.026.32c-.686-.023-1.412.276-1.964-.306zm-2.515 1.103c-.149-.095-.067-.339-.092-.518.274.003.674-.059.79.031.231.183.297.446.432.682l-.201.116-.183-.049c.049.447-.107.722-.466.734-.323.017-.643-.029-.667-.344-.037-.355.048-.508.541-.593-.051-.021-.119-.035-.154-.06zm-25.293-3.606c-1.083.566-1.49.46-1.931-.56 1.018-.124 1.026-.121 1.931.56zm-16.399.266c.55.075 1.146.231 1.371.793-.538.354-1.174.364-1.804.092-.253-.116-.526-.47-.454-.628s.601-.298.888-.256zm-16.416 5.018c.055-.108.156-.2.311-.273.284-.127.744-.101 1.113-.142l.709.757c-.688.487-1.473.601-1.955.296a.53.53 0 0 1-.218-.261c-.043.034-.068.07-.133.097-.455.205-1.281.131-1.612-.149-.438-.373-.184-.688.965-1.105.453.363.696.6.82.781zm13.436-3.735l-.927.365.82-.029.146.702c-.466.31-.893.697-1.816.275-.106-.249-.146-.419-.128-.558l-.086.03-.308-1.254c1.589-.202 1.592-.197 2.299.469zm-9.601 3.844c-.5.109-1.002-.01-1.255-.365-.242-.341.124-.511.525-.629.883-.272 1.243-.155 1.761.667l-1.031.327zm-11.291.923c1.026.047.992.628 1.385 1.206l-1.79.15c-.389-1.004-.267-1.385.405-1.355zm31.375-7.21c.128.154.193.276.308.37.233.185.45.403.081.536-.2.074-.566.015-.834-.048-.597-.13-.819-.425-.728-.864l1.172.006zm-16.209 3.788c.472 1.107.309 1.227-1.341 1.004-.345-.829-.049-1.049 1.341-1.004zm12.01-3.057c.509.218.939.506 1.367.748-.225.309-.496.45-.794.51.526.198.901.5 1.11.948l-1.256.39-.063-.552-1.372-.21c-.488-.075-.684-.32-.543-.565.067-.126.371-.22.618-.236-.392-.184-.515-.443-.314-.8.192-.333.696-.46 1.248-.233zM29.356 99.5c.158-.02.444.109.502.218a.93.93 0 0 1 .09.658c-.028.108-.306.283-.482.306-.164.024-.413-.088-.499-.192-.144-.184-.196-.41-.315-.656.266-.133.475-.298.704-.334zm-47.064-5.1l-.156.72-.288-.053c-.087-.425-.088-.426.444-.667zm10.676-.857c.367.457.259.876-.167 1.165-.586.401-1.116-.229-1.806-.08.326-.85 1.217-.889 1.973-1.085zm-14.254 2.264c-.132-.967-.122-.976.898-.996.33.876.255.965-.898.996zm11.79-.931c.325.02.773.124.928.3.259.297-.105.496-.429.621-.571.216-.955.026-1.326-.679.325-.106.576-.266.827-.242zm-9.733 2.165c.53.515.372.785-.212.91-.308.067-.744.094-.83-.238-.135-.536.454-.599 1.041-.672zm-18.555-1.323c.123-.443.721-.471 1.388-.502.858.778.793 1.08-.276 1.26-.282.049-.746-.038-1.005-.174-.161-.082-.16-.399-.108-.584zm3.829.424c-.341.07-.986.094-1.161-.044-.648-.504.118-.77.27-1.131.721-.049 1.37.022 1.625.536.188.394-.337.551-.735.638zm-5.551-.397c.437-.054.877-.003 1.095.364.16.266-.303.693-1.022.823-.152-.066-.485-.158-.654-.315-.304-.27.065-.805.581-.871zm18.281-1.651c-.335-.272-.196-.488.214-.719-.012-.366.477-.812 1.013-.855.663-.056 1.217.149 1.338.49.13.352-.225.713-.787.9l.267.098c-.965.378-1.675.383-2.045.086zm4.386-.543a.9.9 0 0 1 .66-.052c.565.367-.108.459-.191.691-.592-.133-.759-.365-.47-.638zm12.487.232l-.958.116-.202-.815c.881-.158 1.187.103 1.16.698zm-24.712.23c-.161-.079-.295-.278-.281-.407.011-.121.194-.263.363-.3.673-.163.982-.021 1.612.71-.563.349-1.132.278-1.695-.002zm17.967 2.841l-2.086-.264c.329-.783 1.336-.174 1.802-.773l.284 1.037zm34.733 1.408l1.268.606c-.537.411-1.058.533-1.414.315-.414-.249-.27-.552.146-.921zM-6.982 87.914c.676-.074 1.438-.012 2.108.113.467.088.397.745-.086.809-.798.099-1.616.118-2.375.169.02.039.066.08.063.111-.061.242-.245.509-.507.668-.136.087-.612.012-.842-.087-.138-.059-.206-.364-.108-.474.207-.235.556-.415.976-.691.08.094.165.175.248.247-.241-.486-.086-.808.523-.865zm2.834 1.992c.199.868-.136 1.085-1.226.874-.313-.057-.65-.019-.974-.034l-1.171-.1.699-1.291 1.741.722.932-.17zm2.324 1.337l1.277-.25.247.898c-.981.167-.974.171-1.524-.648zm3.669-.105l.5-.275.64 1.043c-.777.41-.856.417-1.908-.104-.028.004-.053.019-.085.025-.37.036-.912-.023-1.152-.192-.193-.138-.048-.502-.05-.891l2.055.395zm6.118-3.208c.271.118.404.366.588.558l-.183.156c-.321-.069-.684-.102-.957-.221-.162-.068-.192-.275-.279-.417.288-.035.664-.154.831-.077zM4.82 89.402c.109-.849 1.417-.598 2.154-1.031.28 1.094-.154 1.261-2.154 1.031zm13.061-.152c.323.205.118.495-.289.486-.433-.012-.972-.133-1.28-.324-.012-.009-.033-.022-.047-.03-.125.387-.687.475-1.216.481-.438.009-.948-.022-.778-.477.025-.059-.197-.154-.351-.263.604-.409 1.274-.4 1.918-.205-.011-.133.055-.295.382-.488l1.66.818zm34.696 7.433c-.309-.124-.625-.322-.621-.475.004-.279.387-.408.97-.411.311-.344.725-.519 1.14-.443.515.099.835.222 1.07.369l.158-.096c.861.385 1.574.699 1.218 1.367l-1.203-.309c-.051.095-.067.18-.143.291l-.742-.239-.213.236c-.63-.059-1.263-.04-1.633-.29zm-26.339-4.856c.418-.077.903-.032 1.526-.034l-.274.819c-.424.012-.822.077-1.164.021-.275-.048-.645-.235-.676-.382-.027-.134.329-.381.589-.424zm3.764.633c-1.701.207-1.689.215-2.308-.124.127-.448.706-.501 1.282-.481.53.021 1.073.105 1.027.605zm7.047 1.231c-.012.037-.008.069-.05.119-.102.114-.568.237-.733.195-.634-.174-.153-.416.047-.769l.498.167c.714-.621.973-.64 2.033-.22-.661.704-.912.795-1.794.508zm-1.524-.612c.03.088-.053.193-.1.318l-.666.037c-.157.002-.253-.041-.376-.066.138.182.195.419.073.555-.228.257-.522.422-1.044.26-.222-.068-.476-.101-.819-.173l.434-.633c.177-.226.512-.291.873-.261-.046-.055-.124-.09-.144-.16-.02-.085.28-.256.476-.282.767-.097 1.157.029 1.293.405zm-5.881-.245c.18-.169.316-.38.57-.504.311-.153.74-.203 1.036.047.263.228.072.388-.252.529.662.194.628.322-.146.731-.344-.185-.424-.374-.292-.577-.311.074-.541.01-.916-.226zm34.094 7.298c.714.037.736.323.689.666-.634-.06-1.326.032-1.427-.389-.016-.097.477-.291.738-.277zm7.839 4.268c.151.079.269.163.301.247.049.116-.152.23-.278.388l-1.898-.5c-.324-.099-.437-.281-.088-.397.334-.119.944-.057 1.457.086-.262-.157-.483-.351-.531-.525-.079-.269.581-.29 1.863-.046-.151.528-.444.768-.825.747zm-.7-.935c-.658-.144-.945-.399-.852-.697.047-.13.329-.294.562-.298.072-.003.176.031.273.059-.162-.12-.284-.255-.322-.437l1.025-.281c1.068.444 1.363.596 1.252.944.106.079.176.157.147.182-.079.059-.201.104-.319.155-.023.033-.027.053-.047.088-.035-.005-.067-.014-.092-.021l-.701.254-.28-.212c-.064.123-.264.219-.646.264zm-25.716-5.606l-.237.272.117.064-.238.079-.169.2-.246-.071c-.307.081-.612.113-.954-.039-.511-.225-.169-.471-.001-.71.381.01.563.026.786.105.227-.07.533-.046.943.101zm-8.179-.685c-.184-.029-.449-.235-.402-.31.227-.398.705-.283 1.173-.166.023.399-.22.579-.77.477zm36.814 8.65c-.218.048-.828-.134-1.14-.269-.36-.161-.828-.398-.518-.627.394-.296 1.042-.182 1.729.041.041.291.702.672-.071.855zm-26.759-8.025c.669.296 1.533.498 1.528 1.222-.622-.247-1.394.156-1.823-.269-.305-.309-.248-.659.295-.954zm-69.763 1.985l.84 1.081-2.336-.481c.321-.528.817-.608 1.495-.6zm-3.636 1.193c.123-.07.284-.239.424-.212.442.085.916.192 1.303.383.526.262.462.582.129.913-.593-.391-1.49-.348-1.857-1.084zm7.635.231c-.296-.006-.629-.214-1.185-.427.394-.231.572-.399.786-.437l.134-.235.738.341.172.046c.094.032.211.352.158.386-.236.147-.517.329-.805.326zm-3.369-1.745l-1.241-.371c.695-.401.7-.399 1.241.371zm20.699-1.317l.83-.164c.925.538.913.537.535 1.229l-1.999.177-.364-1.081.998-.161zm13.485.849c.749-.181 1.281.035 1.655.486-.381.385-.697.595-1.002.649-.047.08-.115.161-.176.179-.441.119-.899.201-1.274-.115.061-.099.085-.186.149-.249l.281-.22c-.275-.285-.157-.604.367-.73zm-7.308.882c.28.063.603.258.702.46.069.133-.152.468-.353.559-.308.141-.709.153-1.262.258l.196-.885c.064-.339.393-.467.717-.392zm-4.938-.129c.396-.196.902-.458 1.303-.129.38.305.03.637-.31.964l-1.478-.312c.229-.261.316-.44.485-.523zm-15.493-2.019c.46-.004 1.095.467 1.126.891.01.119-.211.303-.376.327-.608.091-1.344-.202-1.436-.537-.086-.316.271-.674.687-.68zm47.104-7.201c.046.053.074.115.077.168.015.051.037.091-.007.142-.045.105-.123.226-.238.389-.228-.048-.364-.097-.529-.144-.986.122-1.586-.07-2.292-.812.479-.138.926-.378 1.248-.325.278.045.54.121.8.208.056-.039.08-.068.148-.114.45.228.672.362.794.487zm7.916 2.349c-.217-.027-.458-.052-.646-.118-.503-.173-.475-.368.136-.936l.232.095c.636-.292 1.308-.083 1.634.127.5.313 1.133.374 1.7.527.009-.029.002-.053.013-.081 1.85-.09 2.101.011 2.314.88l-1.178.34c-.406-.11-.663-.241-.862-.39-1.141-.007-1.996-.222-2.691-.593l-.259.132c-.094.038-.264.029-.393.016zm-4.532-.59c-.12.134-.459.309-.667.295-.508-.034-1.081-.099-1.463-.272-.575-.266.186-.474.26-.729.015-.05.066-.095.161-.235l.504.181c-.03-.04-.055-.084-.082-.124.262-.134.501-.332.81-.381.192-.035.499.145.759.227-.147.107-.264.285-.447.312-.288.047-.605.019-.917.013l.843.311c.172.078.319.304.24.401zm2.307-.157c-2.048-.181-2.395-.409-1.643-1.312.525.524 1.9.562 1.643 1.312zm-73.494 9.084c-.123-.953.897-.733 1.832-.803.138.289.393.573.356.793-.063.372-.608.309-1.052.248-.376-.049-.757-.155-1.136-.238zm8.794-1.878c.376.823.075 1.031-1.623.995.344-.903.489-.851 1.623-.995zm71.512-3.263c-.113-.355.272-.497 1.014-.55l.753 1.178c-1.073-.037-1.625-.179-1.767-.628zm-2.867-.864l.614-.705 1.149.447c-.878.576-.872.576-1.762.257zm-2.731-.09l.094-.131c-.187-.055-.344-.161-.593-.368l1.071-.772 1.099.983-.6.112 1.565.033c-.17.326-.182.658-.428.734-.304.098-.854.053-1.198-.047-.393-.114-.671-.36-1.009-.544z" fill="#5b3d39"/><path d="M-46.034 119.41c-2.561 1.639-2.433 4.865-2.049 6.274 9.432 1.408 28.988 3.815 31.754 2.176s4.823-5.207 5.506-6.786c1.921 1.665 7.682 0 7.042-3.457 5.736 1.434 12.206-2.817 14.724-5.122 1.537.683 5.122 1.383 7.17-1.28 6.786 1.408 7.81-2.219 9.603-3.585.811 2.561 9.475 2.177 10.499.896 7.17 1.742 25.096.726 33.162 0 2.817 1.409 8.481 1.78 15.109 1.281 6.595-.498 15.629-3.912 18.822-6.402 5.838 1.229 10.798-.427 12.548-1.409 2.219 1.451 8.706-.512 9.731-1.536 2.945 1.792 10.755 2.945 12.675 0 1.793 1.152 3.586 1.536 4.738 1.408s3.969.896 13.444 4.482c7.58 2.868 19.121 5.292 23.943 6.146v-9.988c-4.652-.469-14.724-2.151-17.797-5.121s-8.536-4.311-10.883-4.609c-2.433-1.238-8.707-3.713-14.341-3.713h-14.084c-4.738-.854-14.084.435-17.669 3.713-4.303-.82-7.427-1.067-7.939 0-3.756-.726-11.933-.82-14.596 4.609-3.329-2.689-8.579-1.665-13.7-1.665s-21.382 2.305-31.242 0c-7.887-1.844-14.81-.256-17.285.768-3.67-2.475-11.754-6.299-14.724-1.792-4.481-1.921-7.554-.768-8.963 1.024-2.945-.384-7.17 2.049-7.17 4.353-2.253 0-3.414.939-3.713 1.408-.896-.384-1.537-1.408-6.658-1.408-6.402 0-6.018 4.737-11.652 5.121s-11.011 1.921-11.011 7.299c-3.969.256-6.274 2.945-4.993 6.914z" fill="#a2bd5c"/><path d="M179.95 112.04v-5.178c-3.115-3.2-10.755-8.706-16.389-5.121-1.741-2.459-8.066-3.415-11.011-3.585-1.579-1.622-5.915-4.072-10.627-.896-5.122-3.073-12.121-1.28-14.981 0-2.134-.299-7.554-.871-12.164-.768-2.797.062-6.017 1.241-9.205 2.408-3.379 1.237-6.722 2.461-9.488 2.329-4.302-.205-8.792 1.024-10.499 1.664-2.774-1.323-8.963-3.021-11.524.769-2.561-3.176-27.87-.214-40.204 1.664-1.366-.085-5.07-.359-8.963-.768s-6.317.597-7.042 1.152c-6.701-.427-21.511.692-27.144 8.579-8.317 1.796-15.167 9.398-18.154 13.815 5.426.416 9.895.478 11.112-.243 2.766-1.639 4.823-5.207 5.506-6.786 1.921 1.664 7.682 0 7.042-3.457 5.736 1.434 12.206-2.817 14.724-5.122 1.537.683 5.122 1.383 7.17-1.28 5.34 1.108 7.112-.902 8.499-2.475.375-.426.723-.819 1.104-1.11.811 2.561 9.475 2.176 10.499.896 7.17 1.741 25.096.726 33.162 0 2.817 1.408 8.481 1.78 15.109 1.28 6.595-.497 15.628-3.911 18.822-6.402 5.838 1.23 10.798-.426 12.547-1.408 2.22 1.451 8.707-.512 9.731-1.536 2.945 1.792 10.756 2.944 12.676 0 1.793 1.152 3.585 1.536 4.738 1.408s3.969.896 13.444 4.481c6.502 2.461 15.92 4.595 21.51 5.69z" fill="#79a64f" class="J"/><path d="M-40.273 146.56c-2.561 1.638-2.433 4.865-2.049 6.273 9.432 1.409 28.988 3.816 31.754 2.177s4.823-5.207 5.506-6.786c1.921 1.664 7.682 0 7.042-3.457 5.736 1.434 12.206-2.817 14.724-5.122 1.537.683 5.122 1.383 7.17-1.28 6.786 1.408 6.613-9.518 8.406-10.883.811 2.56 9.475 2.176 10.499.896 7.17 1.741 25.096.726 33.162 0 2.817 1.408 23.22-3.714 29.622-6.018 4.609 1.664 7.938-.769 9.603-3.202 5.838 1.229 10.67-.683 12.42-1.664 2.219 1.451 8.45-.256 9.474-1.281 2.945 1.793 6.402 3.585 8.323.641 1.793 1.152 9.859 3.586 11.011 3.458s5.762.767 15.237 4.352c7.58 2.868 10.497 6.83 15.32 7.683v-9.987c-4.652-.469-34.91-19.719-42.125-15.493-4.949-2.945-5.589-.769-6.869 0-2.433-1.238-6.786-2.049-10.371 0-3.842-2.305-7.512.768-9.859.768-4.738-.853-6.53.179-10.116 3.457-4.302-.819-11.651 1.494-12.163 2.561-3.756-.725-8.963-1.024-11.908 1.921-3.329-2.689-12.804-.896-12.804-.896s-15.109-4.738-26.037.896c-7.887-1.843-14.125-1.024-16.6 0-3.67-2.475-11.242 1.767-14.212 6.274-4.481-1.921-7.554-.768-8.963 1.024-2.945-.384-7.17 2.049-7.17 4.354-2.253 0-3.414.939-3.713 1.408-.896-.384-1.537-1.408-6.658-1.408-6.402 0-6.018 4.737-11.652 5.121s-11.011 1.921-11.011 7.298c-3.969.256-6.274 2.945-4.993 6.915z" fill="#a2bd5c"/><path d="M175.68 126.48l2.741-5.278c-1.024 0-4.123-.896-8.323-4.482s-12.59-2.859-16.261-2.048c-4.481-2.817-8.962-3.969-13.188-2.305-3.585-1.024-5.676.427-6.274 1.281-2.603-1.153-8.373-2.561-10.627 1.024-2.97-.922-8.92 1.494-11.523 2.817-3.752 0-6.764 1.179-9.393 2.208-2.037.797-3.844 1.505-5.588 1.505-3.995 0-6.701 1.536-7.554 2.305-1.75-.769-7.042-2.305-14.212-2.305-3.245 0-5.315.268-7.207.514-3.334.432-6.113.793-13.792-.514-9.629-1.639-22.706 4.609-28.041 7.938l4.989-.043c.256-.778.522-1.365.856-1.62.251.791 1.252 1.302 2.547 1.591l6.57-.057c.68-.167 1.181-.385 1.383-.638 1.043.253 2.313.448 3.747.594l24.509-.211 4.906-.383c2.817 1.408 23.22-3.714 29.622-6.018 4.609 1.664 7.938-.769 9.603-3.202 5.838 1.229 10.67-.683 12.419-1.664 2.22 1.451 8.451-.256 9.475-1.281 2.945 1.793 6.402 3.585 8.323.641 1.792 1.152 9.859 3.586 11.011 3.458s5.762.767 15.237 4.352c1.518.574 2.849 1.192 4.045 1.821z" fill="#769c47" class="J"/><path d="M130.94 98.082l11.001-18.885c1.478-2.564.726-5.844-1.728-7.494L87.525 35.488a3.08 3.08 0 0 0-4.769 2.075l-2.973 19.215c-.275 1.758.373 3.542 1.71 4.724l43.714 37.525c1.775 1.569 4.549 1.111 5.734-.946z" fill="#1b160d"/><path d="M125.95 98.009a2.05 2.05 0 0 0 3.141-.611l9.797-18.725c.689-1.306.305-2.924-.884-3.792L86.456 38.143c-.848-.603-2.044-.112-2.229.916L80.94 57.563a3.91 3.91 0 0 0 1.323 3.672l43.688 36.775z" class="B"/><circle transform="rotate(342.717 101.31 60.378)" cx="101.31" cy="60.378" r="28.739" fill="#ffbcbc" fill-opacity=".44" stroke="#f2592b" stroke-dasharray="2.24 2.24" stroke-width="2.236"/><path d="M99.726 59.796s-.524-2.169-3.845-2.31-6.911-2.075-8.228-3.231c-2.106-1.847-4.602-5.207-5.171-4.712s.28 5.125 5.382 8.682c-2.394-.491-5.608-2.902-6.052-1.864-.298.694 2.582 4.219 6.166 5.205-3.53-.18-4.153-.184-3.946.521.286.981 3.206 2.255 5.684 2.37-.794.115-2.432 1.067-1.796 1.541.711.529 4.243.251 5.923-.62-1.419 1.027-1.178 1.753-.693 1.867 1.757.412 4.358-.386 6.325-2.236 1.526-2.18.252-5.214.252-5.214z" class="E"/><path d="M88.934 65.264c2.887 1.315 6.409-1.442 6.907-4.251.302-1.697-1.592-2.977-3.087-3.69.949.288 1.94.488 2.909.528 3.211.138 3.718 2.234 3.718 2.234s1.287 1.775-.188 3.883c-1.901 1.787-3.658 3.274-5.356 2.875-.469-.109-.341-1.189 1.031-2.183-1.742 1.205-4.926 1.642-6.19 1.317-.505-.13-.168-.579.254-.715z" class="F"/><path d="M95.88 57.518c-.362-.015-.741-.052-1.125-.111-2.971-.453-5.954-2.101-7.123-3.127-.802-.703-1.675-1.642-2.445-2.469-1.104-1.187-2.057-2.212-2.519-2.281-.069-.011-.123.001-.164.038-.107.093-.158.352-.139.712.078 1.462 1.331 5 5.517 7.919.013.009.017.026.011.039s-.022.022-.037.019c-1.003-.206-2.154-.75-3.171-1.23-.901-.426-1.679-.792-2.214-.874-.339-.052-.545.021-.631.221-.047.108-.005.307.117.561.551 1.146 2.959 3.757 6.027 4.601.016.005.026.021.023.036s-.017.029-.033.027c-2.601-.132-3.666-.175-3.895.116-.063.08-.069.192-.018.364.246.841 2.484 1.914 4.697 2.251l.958.097c.016.001.03.014.031.031s-.011.031-.027.033c-.611.088-1.781.705-1.902 1.181-.03.12.009.218.121.301.122.091.333.16.629.205 1.309.2 3.892-.118 5.259-.827.015-.008.034-.003.043.011s.005.033-.009.043c-1.058.766-1.085 1.282-1.048 1.469.035.171.163.299.343.341l.292.057c1.839.28 4.252-.638 5.999-2.279 1.498-2.14.261-5.153.247-5.188-.005-.018-.471-1.818-3.072-2.214a6.83 6.83 0 0 0-.743-.071zm-2.738 9.759c-.205-.048-.352-.194-.392-.391-.075-.373.225-.855.831-1.347-1.427.621-3.787.891-5.022.703-.306-.047-.527-.12-.658-.217s-.181-.225-.145-.369c.114-.451 1.063-.998 1.723-1.18l-.73-.083c-2.234-.34-4.497-1.435-4.749-2.297-.057-.195-.048-.324.029-.422.238-.302 1.143-.281 3.676-.154-2.961-.923-5.265-3.437-5.804-4.558-.134-.279-.174-.486-.119-.614.099-.231.328-.317.7-.259.545.082 1.326.451 2.232.88.96.453 2.042.964 3 1.19-4.102-2.916-5.336-6.418-5.413-7.876-.021-.385.037-.656.161-.764.055-.048.128-.066.216-.053.484.074 1.445 1.105 2.556 2.301l2.44 2.464c1.163 1.021 4.132 2.662 7.091 3.112a10.37 10.37 0 0 0 1.118.112c.26.01.512.035.75.071 2.645.403 3.121 2.244 3.123 2.258.013.03 1.263 3.076-.26 5.25-1.765 1.659-4.199 2.584-6.057 2.301l-.297-.058z" class="I"/><path d="M103.7 59.387s1.094-1.201 4.038-.535c1.432.324 6.302.582 7.851.218 3.444-.807 6.404-2.427 6.7-1.809s-2.602 3.982-8.138 5.103c2.172.456 5.721-.392 5.716.634-.002.687-3.675 2.583-7.018 2.111 3.006 1.125 3.527 1.345 3.1 1.859-.593.713-3.486.722-5.593-.078.621.381 1.641 1.767.939 1.931-.783.185-3.625-1.323-4.71-2.656.81 1.369.348 1.887-.097 1.806-1.613-.291-3.491-1.897-4.462-4.147-.484-2.368 1.674-4.436 1.674-4.436z" class="E"/><path d="M103.84 59.735s1.047-1.149 3.865-.512c.569.129 1.705.246 2.945.315-2.077.131-4.877 1.041-4.911 2.701-.042 2.069 3.303 4.327 8.001 4.722-1.133.116-3.162-.248-4.45-.737.594.366 1.533 1.41.862 1.567-.75.177-3.101-1.457-4.14-2.732.775 1.31.483 2.208.056 2.132-1.543-.279-2.709-2.338-3.638-4.492-.463-2.265 1.41-2.965 1.41-2.965z" class="F"/><path d="M101.76 74.738l-.086 1.848c1.218-.184 2.006-.091 2.651.232.583.291.556.942.062 1.012.301.549-.419 1.086-1.128.799-1.031-.412-1.686-1.031-2.324-1.066-.643.162-1.488.063-1.727-.13-.375-.3-.341-.828-.019-1.064.348-.256 1.086-.144 1.476.096.176-.55.018-1.654.034-1.647.404.177.918.104 1.062-.08z" class="C"/><path d="M104.38 77.861c.009.001.018-.001.025-.006.014-.011.017-.031.006-.045-.088-.112-.898-1.081-2.3-.891-.018.003-.03.019-.028.037s.019.029.036.028a2.48 2.48 0 0 1 2.241.866c.006.006.013.011.02.011z" class="G"/><g fill="#bbc0c9"><path d="M104.62 77.16s.73.147.888.683c-.281-.111-1.004-.113-1.004-.113s-.255-.565.116-.57zm-.32.862s.618.192.586.84c-.275-.183-1.004-.348-1.004-.348s-.158-.675.418-.493zm-5.1-1.435s-.821-.122-.93.593c.134-.099.907-.04.907-.04s.297-.389.023-.553z"/></g><g class="G"><path d="M101.18 75.33c.203.031.419.012.548-.036.017-.006.025-.025.019-.041s-.024-.025-.041-.019c-.167.062-.494.069-.716-.019-.017-.007-.036.001-.042.017s.002.035.018.042c.066.026.139.044.214.055zm.18.557c.176.027.318-.023.325-.025.017-.006.025-.025.019-.041s-.025-.025-.041-.02a.65.65 0 0 1-.42-.011c-.017-.007-.036.001-.042.018s.001.035.018.041a.59.59 0 0 0 .141.038zm2.33 1.175c.017.002.034-.009.037-.026.056-.297.277-.29.287-.29.018.001.033-.013.034-.031s-.013-.033-.031-.034c-.002-.001-.286-.012-.354.342-.003.017.009.035.026.038h.001zm-.92.719c.014.002.028-.005.035-.019.094-.22.217-.361.362-.418a.38.38 0 0 1 .268-.006c.016.007.035-.001.042-.016s0-.036-.016-.043c-.006-.002-.145-.063-.317.005-.163.064-.296.216-.399.453-.007.017.001.036.017.043zm.59.239c.016.002.031-.007.036-.023.138-.455.438-.376.441-.375.019.004.035-.006.04-.022s-.005-.036-.023-.04c-.003-.001-.364-.097-.52.418-.005.017.004.035.021.04z"/><path d="M104.13 77.11c.017.003.033-.008.037-.025.045-.19.167-.18.169-.179.018.002.033-.01.035-.028s-.008-.036-.028-.037c-.002 0-.181-.017-.239.229-.005.018.006.035.024.039zm-4.236-.089c.02.002.035-.011.037-.029.021-.26-.047-.477-.193-.609-.101-.092-.232-.135-.351-.114-.017.003-.029.019-.026.037s.019.03.037.027c.099-.018.21.019.297.098.131.119.192.317.173.557-.002.017.011.031.028.034zm.546-.176c.017.002.034-.009.037-.027.035-.233-.087-.469-.279-.539-.018-.005-.035.003-.041.02s.003.035.02.041c.163.059.267.265.236.468-.003.017.009.034.027.037z"/></g><path d="M95.185 73.745l-.468 1.79c-1.109-.539-1.888-.685-2.6-.569-.643.105-.81.733-.36.947-.451.433.076 1.161.839 1.1 1.106-.088 1.916-.483 2.535-.327.565.346 1.402.502 1.688.39.448-.175.572-.689.335-1.01-.256-.348-.993-.46-1.437-.347-.005-.578.474-1.585.457-1.582-.438.048-.907-.174-.99-.394z" class="C"/><path d="M91.752 75.946c.008.002.016 0 .023-.005a2.48 2.48 0 0 1 2.397-.16c.016.007.035.001.043-.016s0-.035-.016-.043c-1.282-.599-2.344.085-2.461.165-.015.01-.019.03-.008.045.005.007.013.012.022.013z" class="G"/><g fill="#bbc0c9"><path d="M91.734 75.206s-.74-.078-1.051.388c.302-.023.993.191.993.191s.412-.463.058-.578z"/><path d="M91.784 76.124s-.647-.001-.811.628c.317-.094 1.062-.034 1.062-.034s.352-.599-.251-.595zm5.297.149s.82.127.711.843c-.099-.133-.854-.307-.854-.307s-.168-.46.143-.535z"/></g><g class="G"><path d="M95.561 74.483a.93.93 0 0 0 .222.01c.018-.001.031-.016.03-.034s-.016-.031-.035-.029c-.237.017-.548-.087-.689-.195-.014-.011-.035-.008-.045.006s-.008.034.006.045c.108.084.309.167.511.197zm-.331.481a.64.64 0 0 0 .146.006c.018-.002.031-.016.029-.034s-.016-.031-.035-.03a.65.65 0 0 1-.404-.114c-.014-.01-.034-.008-.045.006s-.008.034.006.045c.006.004.126.095.303.121zm-2.577.426c.019.002.035-.011.037-.029.041-.358-.233-.431-.236-.433-.019-.005-.035.007-.04.023s.006.035.023.039c.009.003.222.062.188.363-.002.017.01.032.028.036zm.663.961c.026-.002.038-.018.037-.036-.027-.256-.11-.442-.246-.551-.145-.116-.295-.1-.301-.1-.018.003-.03.019-.028.036s.017.031.035.028c.001.001.132-.012.254.087s.196.269.221.507c.002.014.013.026.027.028zm-.638.051c.022.001.037-.013.037-.032.004-.537-.369-.554-.373-.554-.018 0-.032.014-.033.031s.015.032.031.033.313.017.31.49c0 .016.012.03.028.032zm-.458-1.096c.02.001.036-.011.037-.029.018-.252-.158-.29-.16-.29-.017-.002-.034.008-.038.025s.008.035.025.038c.006.001.122.029.109.222-.001.017.011.031.027.034zm4.068 1.176c.016.003.033-.008.036-.025.053-.234.171-.404.331-.479a.36.36 0 0 1 .313-.006c.016.008.035.002.043-.014s.002-.035-.014-.043c-.107-.055-.245-.053-.369.004-.179.084-.309.27-.366.524-.004.018.007.035.024.038zm-.469-.331c.018.002.034-.009.037-.027.031-.2.194-.368.365-.377.018-.001.031-.015.031-.034s-.015-.031-.033-.031c-.204.01-.391.199-.426.431-.003.017.009.034.027.036z"/></g><path d="M106.14 53.91c1.421-1.737.611-4.318-3.657-4.869-2.93-.379-4.734.877-4.511 2.824.29 2.531 2.305 3.633.473 6.661-.69 1.141-6.645 11.692-3.536 15.306.522.605 1.965 1.055 2.67.147.398.485 1.448.515 1.805.085.149.567.538.918 1.02 1.192.549.14 1.156-.107 1.33-.196 1.948-1.003 4.434-8.523 2.453-14.858-.749-2.393.265-4.227 1.952-6.292z" class="E"/><path d="M105.65 50.26l.896 2.028c-.027.552-.24 1.104-.612 1.591-1.243 1.627-2.102 3.11-2.096 4.818-.634-1.199-1.532-2.019-2.574-1.892-1.382.168-1.994.735-2.717 2.326l-.025-.162.22-.4c1.733-3.042-.125-4.12-.367-6.644a2.71 2.71 0 0 1 .06-.907l5.941-1.523c.524.209.946.468 1.274.764z" class="F"/><path d="M105.62 55.864c-1.76.455-4.643.096-6.725-1.118s-4.131-4.9-1.547-9.375c.802-1.389 1.998-2.884 4.859-2.141 1.97.511 2.494-.399 3.618-.181 2.126.413 4.779 4.802 3.456 8.933-.9 2.815-2.369 3.548-3.661 3.882z" class="E"/><g class="F"><path d="M100.83 40.829c.414.685-1.401.259-2.774 1.796.194-1.576 2.316-2.555 2.774-1.796zm-1.372 7.773c-.103.678.875 1.39 2.184 1.59s2.455-.189 2.559-.868-.875-1.391-2.184-1.591-2.456.189-2.559.868z"/></g><path d="M99.616 47.208c-.022 1.348 1.177 2.465 2.681 2.489s2.742-1.049 2.763-2.399-1.177-2.464-2.68-2.489-2.742 1.049-2.764 2.399z" class="B"/><path d="M100.07 47.011c-.016.899.761 1.644 1.733 1.659s1.774-.702 1.789-1.6-.76-1.644-1.735-1.661-1.772.701-1.787 1.601z" class="C"/><path d="M100.44 47.029c-.011.638.538 1.162 1.226 1.174s1.254-.495 1.265-1.131-.539-1.161-1.227-1.172-1.253.494-1.264 1.129z" class="I"/><g class="B"><path d="M101.08 46.061c-.006.259.217.473.497.477s.511-.202.515-.46-.221-.472-.5-.477-.509.202-.512.46zm.45 2.034c-.003.134.115.245.26.248s.266-.105.269-.24-.115-.247-.261-.249-.265.105-.268.241z"/></g><g class="F"><path d="M105.65 41.08c-.501.444 1.054.556 1.767 2.124.238-1.306-1.212-2.616-1.767-2.123zm-.02 6.909c-.087.568.731 1.163 1.826 1.33s2.053-.158 2.139-.725-.731-1.162-1.826-1.329-2.053.157-2.139.725z"/></g><path d="M106.16 46.992c-.018 1.127.985 2.061 2.242 2.081s2.292-.877 2.31-2.007-.985-2.059-2.241-2.08-2.292.877-2.311 2.005z" fill="#f0efef"/><path d="M106.35 46.739c-.013.752.637 1.374 1.449 1.388s1.483-.587 1.496-1.338-.636-1.374-1.451-1.388-1.482.586-1.494 1.338z" class="C"/><path d="M106.56 46.741c-.009.533.45.971 1.024.982s1.049-.415 1.058-.947-.45-.971-1.026-.98-1.047.412-1.056.944z" class="I"/><g class="B"><path d="M107.09 45.932c-.004.215.183.395.416.398s.427-.168.431-.384-.184-.395-.418-.399-.426.169-.429.385zm.38 1.7c-.003.113.096.205.216.208s.223-.088.226-.2-.097-.206-.219-.208-.221.087-.223.201z"/></g><path d="M112.32 55.938s-2.03 1.391-4.92.833-4.545-3.029-3.522-5.094c3.985-.739 8.442 4.261 8.442 4.261z" class="C"/><path d="M111.48 55.55s-1.573.871-3.667.198-2.603-1.979-2.863-2.751c2.337.309 6.53 2.553 6.53 2.553z" fill="#2a1415"/><path d="M107.86 55.425c-1.579-.507-2.257-1.374-2.606-2.101.636.017 1.443.16 2.296.614 1 .532 1.556 1.154 1.877 1.743a5.24 5.24 0 0 1-1.567-.255z" fill="#761e2a"/><path d="M106.76 49.66c.415-.752 2.053-1.244 3.559.046 2.382 2.039 5.086 7.079 3.969 7.9-.399.294-1.572-1.467-3.717-2.266s-6.186-1.248-6.775-3.274c.173-.824.602-1.16 1.593-1.151s.915-.428 1.371-1.255z" class="C"/><g class="E"><path d="M93.544 53.937s-.735-.376-1.228-1.903-.836 1.589 1.228 1.903zm-12.556-2.506s-.735-.376-1.228-1.903-.836 1.589 1.228 1.903zm37.272 4.553s1.197-.206 2.56-2.136.479 2.599-2.56 2.136zm-33.854 9.288s-.853-.027-2.064 1.11.037-1.858 2.064-1.11zm25.474 5.391s.782.217 1.56 1.591.491-1.695-1.56-1.591z"/></g><path d="M17.165 75.018s4.031 10.637 5.858 30.744.491 44.49.491 44.49l-40.278 5.144s1.124-35.367.565-48.336 2.641-35.838 7.508-43.59c7.86-5.222 20.889-.448 25.856 11.548z" class="B"/><g class="H"><path d="M2.07 49.642v6.678h6.508l.609-6.678H2.07z"/><path d="M2.071 49.642v6.678h-7.547l1.974-14.083 5.574 7.405z"/><path d="M2.07 49.642v6.678h6.508l.609-6.678H2.07z"/></g><g fill="#ffbd96"><path d="M2.071 49.642v6.678h-7.547l1.974-14.083 5.574 7.405zm15.298-17.214s.393 2.497 1.087 3.414 1.676 1.031 1.947 1.473.707 1.252-.43 2.355-2.923.682-2.923.682-.925-7.178.319-7.924z"/><path d="M16.48 22.582c-1.929-6.844-10.205-7.76-12.601-7.889-5.876-.327-14.437 1.37-17.019 7.992-2.178 5.564-3.238 13.947 6.598 22.583s22.943 8.019 22.943 8.019 2.188-.401 2.345-7.991c.113-5.444-1.244-7.889-1.368-12.624-.11-4.076.381-5.546-.898-10.09z"/></g><path d="M20.43 37.575c.02.393-.363.73-.854.753s-.903-.277-.921-.669.365-.728.854-.753.903.277.921.669z" fill="#ffc7ab"/><path d="M20.403 37.323a2.04 2.04 0 0 1 .381 1.756c-.242 1.072-1.113 1.708-3.004 1.856-.596-.699-.129-.745-.129-.745s3.9-.533 2.753-2.867zM1.658 35.174s-.499-2.407-2.247-2.527-3.099 1.81-2.895 3.928 1.506 5.237 3.145 6.168 2.618-.826 2.618-.826l-.622-6.742z" fill="#e98146"/><path d="M1.658 35.174S.545 32.356-1.201 33.21s-2.486 2.859-1.204 6.114 3.648 5.073 5.073 1.874-1.01-6.024-1.01-6.024z" class="H"/><g fill="#e98146"><path d="M-2.011 37.442s-.898-2.127.543-2.9 2.55 2.322 1.885 5.891C.555 38.129.069 35.93-.62 35.076s-1.929.049-1.391 2.366z"/><path d="M-1.171 38.283c-.168-.628-.115-1.294.149-1.888.447-.947.925-.625.925-.625l.136.35s-1.039-.401-1.209 2.163z"/></g><g fill="#755142"><path d="M14.215 18.664c-1.158-.353-2.365-.525-3.576-.509-1.926.046-5.111 1.18-6.528 6.209s.854 10.686.803 11.112-2.6.681-2.6.681-.371-2.923-2.168-3.729-4.121 1.178-4.001 3.706 1.648 6.785 4.114 7.161c-1.252 2.844-5.215 3.87-5.215 3.87s-5.456-3.198-9.151-6.228c-3.815-3.129-4.661-6.156-4.79-8.217-.039-.607-2.005-4.909-.884-9.001s3.402-5.292 3.402-5.292 1.353-6.817 10.879-8.781C1.992 8.104 6.12 11.271 6.733 11.382s8.325 3.293 7.482 7.282z"/><path d="M8.759 14.532S6.018 8.336-1.667 8.05s-7.732.941-11.295 1.923-5.421-1.358-5.421-1.358-.192 3.927 3.857 4.124c-1.473.89-3.422-.749-3.422-.749s1.051 1.731 2.034 2.154 1.594.389 1.594.389l-1.803.35.691.529-1.145 3.656 25.337-4.535z"/></g><path d="M-8.694 63.47c-.267.316 5.708-1.854 12.363-.542s13.496 12.09 13.496 12.09-1.906-5.011-4.17-9.747-4.615-6.778-4.418-8.951H-5.479s-1.427 5.019-3.216 7.15z" fill="#ffbd96"/><g class="H"><path d="M48.524 85.522s-18.248 6.304-33.247 7.491-20.156-1.883-20.275-8.285 5.57-9.615 14.383-10.227 29.506 1.944 41.132-.006c7.341 1.816 12.448 7.441-1.993 11.027z"/><path d="M43.567 80.352c-9.73 3.183-14.455 6.629-26.647 8.603S.266 88.584-.329 83.024s3.815-8.712 10.985-9.797 25.418-3.16 30.957-4.074c4.749 2.374 7.124 8.904 1.954 11.199z" opacity=".5"/><path d="M43.524 86.367c9.321-1.874 17.512-5.205 18.326-5.42 2.877-.761 6.199-1.956 8.371-.87 4.314 2.16 9.312 2.968 12.475 3.266.741.071 2.334.384 2.638-.629.277-.921-.938-1.641-1.617-1.956-.431-.201-.835-.469-1.266-.682 1.012.478 2.358-.513 3.113-1.343.558-.611 1.05-1.281 1.469-1.995.195-.333.378-.69.416-1.074s-.006-.682-.304-.844c.46.05.779-.077 1.006-.083.493-.015.983-.041 1.475-.08 1.23-.097 2.473-.26 3.679-.528.617-.136 1.853-.437 1.723-1.298-.041-.28-.257-.437-.531-.49-2.579-.496-9.386-1.257-14.122-1.396-3.355-.1-6.592.378-9.914.693-2.939.28-5.845.802-8.772 1.183l-18.185 2.484c-1.224 4.022-.617 9.439.018 11.059z"/></g><g class="D"><path d="M80.032 76.541c-.139.446-.153.708 0 1.13s1.236 1.635 1.826 2.018l-2.756-1.77c0-.667.54-1.201.93-1.378zm10.959-2.067c-.012-.006-.26-.18-.218-.67l.139.012c-.032.404.15.537.159.543l-.08.115zm-3.293.269c-.012-.029-.298-.711-.233-1.49l.139.012c-.059.744.221 1.419.224 1.425l-.13.053zm-4.175.432c-.003-.006-.171-.605-.23-1.292l.139-.012a7.42 7.42 0 0 0 .227 1.266l-.136.038zm-2.735.973l1.165-.245c.404-.094.847-.183 1.207-.404-.115.056-.168.195-.18.322-.024.304.159.623.445.723.171.059.36.041.54.024a.79.79 0 0 0-.608.983c-.024-.083-.13-.142-.189-.198a2.18 2.18 0 0 1-.263-.31c-.032-.044-.062-.088-.103-.127-.115-.112-.274-.156-.395-.26a1.47 1.47 0 0 0-.392-.248c-.395-.159-.808-.207-1.227-.26z"/></g><g class="B"><path d="M84.137 83.41c-.454 0-.885-.147-1.23-.428l-.015-.012-.006-.018c-.227-.64-.239-1.109.416-1.469l.015-.009h.015c.038-.003.921-.05 1.496.54l.009.009c.139.212.189.502.133.779-.05.239-.171.431-.342.546l-.012.006-.012.003c-.159.035-.313.053-.466.053zm-1.127-.525c.422.333.983.457 1.543.339.136-.094.23-.251.272-.448.047-.236.006-.493-.109-.67-.49-.499-1.248-.499-1.366-.496-.546.313-.543.691-.339 1.275z"/><path d="M82.989 82.985l-.077-.118c.572-.375.354-1.301.354-1.31l.136-.032a2 2 0 0 1 .041.561c-.024.41-.183.72-.454.9z"/></g><g class="D"><path d="M82.413 80.134l-3.346-2.154c-.658-.401-.983-1.071-1.354-2.172l.133-.044c.466 1.384.814 1.803 1.292 2.095l3.349 2.157-.074.118z"/><path d="M79.174 77.928l-.139-.015c.083-.838.478-1.106.894-1.387.153-.103.313-.212.469-.354.552-.507.493-1.641.493-1.652l.139-.009c0 .012.018.304-.038.667-.077.493-.245.862-.499 1.098-.162.147-.325.26-.484.366-.425.286-.758.513-.835 1.286z"/><path d="M80.629 78.972c-1.095-1.292-.956-2.21-.95-2.248l.139.024c0 .009-.13.9.918 2.136l-.106.088z"/></g><path d="M94.691 72.477c-.006-.003-.596-.322-1.726-.322v-.142c1.168 0 1.767.325 1.794.339l-.068.124z" class="B"/><g fill="#ffc7c1"><path d="M81.039 78.863c-.168 0-.286-.1-.292-.103l-.003-.003c-.026-.027-.676-.676-.779-1.068l-.006-.024.015-.038c.097-.245.165-.289.711-.269h.027l.018.018c.024.024.611.572.77 1.154l.009.032-.021.027c-.118.162-.254.251-.401.269-.015.006-.032.006-.047.006zm-.201-.21c.012.009.109.083.233.068.097-.012.195-.074.283-.186-.145-.475-.605-.941-.702-1.039-.463-.018-.481.015-.546.177.109.348.691.938.732.98z"/><path d="M80.741 78.63l-.115-.077c.006-.012.18-.26.764-.221l-.009.139c-.499-.032-.64.156-.64.159z"/></g><g class="D"><path d="M80.46 76.29l-.032-.136.564-.121c.853-.171 2.142-.431 2.543-.924l.027-.032.041.006c.658.112 1.585-.041 2.402-.177l1.236-.159.003.139c-.313.009-.752.08-1.219.159-.811.136-1.732.286-2.408.183-.457.513-1.691.761-2.599.941l-.558.121z"/><path d="M83.336 77.694c-.85-1.266-1.658-1.366-2.372-1.455l-.186-.024.018-.139.183.024c.743.091 1.584.195 2.473 1.517l-.115.077z"/><path d="M82.995 76.863c-.159 0-.307-.021-.445-.059l.038-.136c1.05.292 2.517-.752 2.532-.764l.083.112c-.015.012-.386.277-.897.51-.49.224-.929.336-1.31.336z"/><path d="M83.438 76.795a1.54 1.54 0 0 1-.513-.587c-.124-.251-.139-.484-.041-.658l.124.068c-.147.269.1.782.51 1.059l-.08.118z"/></g><g opacity=".5"><path d="M45.768 75.682c-4.165-4.151-6.816-10.344-7.234-11.032-1.475-2.427-2.97-5.448-5.183-6.138-4.397-1.369-8.37-4.12-10.744-6.008-.556-.441-1.859-1.281-1.399-2.178.418-.817 1.731-.508 2.407-.276.429.147.885.23 1.322.369-1.013-.341-1.282-1.913-1.253-2.983a11.33 11.33 0 0 1 .309-2.345c.087-.358.197-.725.424-1.014s.455-.465.767-.379c-.35-.27-.485-.568-.637-.723-.329-.336-.649-.679-.962-1.031-.782-.881-1.529-1.815-2.182-2.798-.334-.501-.986-1.526-.326-2.033.214-.166.466-.13.689.014 2.102 1.365 7.289 5.346 10.639 8.384 2.374 2.151 4.285 4.622 6.362 7.037 1.836 2.138 3.49 4.42 5.252 6.619 1.063 1.326 4.963 4.557 7.316 7.466 3.084 3.813 2.901 5.18 2.901 5.18.547 4.865-4.893 7.431-8.467 3.869z" class="H"/><g class="D"><path d="M28.941 49.589c-.2.398-.363.589-.748.777s-1.932.306-2.592.18l3.067.606c.441-.459.423-1.184.272-1.563zm-6.171-8.673c.012.004.298.048.593-.316l-.103-.084c-.245.3-.459.27-.469.268l-.021.132zm2.087 2.363c.028-.013.676-.292 1.146-.871l-.103-.084a3.27 3.27 0 0 1-1.097.832l.054.123zm2.587 3.06a7.26 7.26 0 0 0 1.014-.737l-.088-.1a7.19 7.19 0 0 1-.994.721l.068.116z"/><path d="M28.681 48.819l-.64-.94c-.216-.332-.462-.686-.563-1.077.042.115-.013.245-.089.34-.185.225-.522.323-.785.203-.157-.073-.275-.21-.387-.341.121.167.167.387.123.591s-.178.384-.355.487c.071-.041.183-.011.261-.011a2.07 2.07 0 0 0 .386-.039c.052-.009.101-.02.155-.019.153-.001.292.074.444.083s.295.034.434.089c.377.152.693.393 1.016.634z"/></g><g class="B"><path d="M21.572 51.598a1.85 1.85 0 0 0 1.13.52l.018.002.016-.008c.58-.29.899-.605.686-1.286l-.004-.016-.01-.01c-.024-.027-.6-.644-1.386-.618h-.012c-.236.054-.462.22-.607.448-.124.198-.167.41-.126.602l.004.012.006.01a2.03 2.03 0 0 0 .285.345zm1.123.385c-.511-.05-.979-.336-1.286-.788-.031-.155.008-.325.11-.488.124-.194.322-.343.518-.389.667-.019 1.189.483 1.268.563.169.576-.083.834-.61 1.101z"/><path d="M22.643 52.065l.131-.031c-.146-.636.617-1.129.623-1.136l-.072-.112c-.01.006-.212.136-.399.358-.255.298-.351.616-.283.92z"/></g><g class="D"><path d="M24.926 50.485l3.727.732c.718.159 1.385-.087 2.369-.598l-.062-.118c-1.236.644-1.753.701-2.275.586l-3.731-.732-.027.13z"/><path d="M28.614 51.111l.105.082c.498-.631.403-1.078.303-1.546-.037-.173-.075-.353-.088-.554-.044-.714.747-1.455.754-1.463l-.09-.098c-.008.008-.213.197-.415.484-.273.39-.402.755-.383 1.085.014.209.051.393.091.572.103.478.182.855-.277 1.438z"/><path d="M26.922 50.867c1.608-.165 2.12-.888 2.141-.918l-.111-.076c-.006.006-.506.705-2.045.862l.015.131z"/></g><path d="M21.545 37.094c.006.002.623.173 1.4.921l.094-.097c-.804-.773-1.431-.946-1.459-.954l-.035.13z" class="B"/><g fill="#ffc7c1"><path d="M26.712 50.52c.116.111.263.12.269.122h.004c.036-.001.912-.018 1.243-.219l.02-.012.015-.036c.095-.233.078-.308-.311-.655l-.018-.018h-.024c-.032.001-.799-.01-1.293.284l-.028.017-.003.032c-.026.19.009.34.098.45.006.014.018.026.029.035zm.277-.011c-.014-.002-.13-.015-.205-.108-.059-.073-.085-.18-.072-.315.414-.231 1.039-.247 1.17-.25.331.294.321.328.258.483-.305.167-1.096.189-1.152.19z"/><path d="M27.071 50.557l.13.023c.004-.012.048-.298-.379-.658l-.086.101c.365.308.337.531.335.533z"/></g><g class="D"><path d="M28.813 49.133l.112-.072-.308-.456c-.473-.682-1.189-1.714-1.139-2.318l.003-.04-.032-.023c-.527-.358-1.063-1.077-1.535-1.711l-.745-.928-.094.093c.209.213.465.553.733.916.468.63 1.002 1.343 1.535 1.719-.025.656.659 1.642 1.166 2.368l.304.452z"/><path d="M25.904 48.196c1.422-.309 2.045.157 2.595.569l.143.107.08-.107-.142-.105c-.572-.429-1.219-.914-2.705-.593l.028.129z"/><path d="M26.69 47.85c.11.105.225.189.346.254l.063-.119c-.916-.494-1.234-2.183-1.236-2.201l-.131.023c.002.018.082.447.279.945.189.478.417.846.679 1.098z"/><path d="M26.43 47.51a1.47 1.47 0 0 0 .742-.064c.251-.09.416-.241.464-.425l-.13-.035c-.076.282-.586.472-1.052.391l-.023.134z"/></g></g></g><defs><clipPath id="A"><path d="M0 11.562C0 5.277 5.095.181 11.381.181h130.62v127.46H11.381C5.096 127.641 0 122.545 0 116.26V11.56z" class="B"/></clipPath></defs></svg>