<svg xmlns="http://www.w3.org/2000/svg" xmlns:xlink="http://www.w3.org/1999/xlink" fill="none" viewBox="0 0 142 128" xmlns:v="https://vecta.io/nano"><style><![CDATA[.B{fill:#75d451}.C{stroke-width:.875}.D{stroke:#209c46}.E{fill-rule:evenodd}.F{fill:#209c46}.G{fill:#7fe858}.H{fill:#020201}.I{fill:#fefefe}.J{fill:#f3f4f7}.K{stroke-linecap:round}.L{fill:#ffe6b5}.M{stroke:#6c3e09}]]></style><g clip-path="url(#N)"><path d="M0 11.42C0 5.135 5.095.039 11.381.039h130.62v127.46H11.381C5.096 127.499 0 122.404 0 116.118v-104.7z" class="L"/><g fill="#f39863"><path d="M81.139 68.783l7.714 20.341c1.576.792 2.925 2.028 3.862 3.539l-4.481-24.294c-.803-4.174-6.873-3.708-7.094.415z"/><path d="M71.169 63.961l.454 1.281 17.282 24.029L78.32 61.338c-.742-1.985-2.95-2.913-4.827-2.248a3.82 3.82 0 0 0-2.324 4.872z"/></g><path d="M59.997 65.273c.115.324.268.653.464.948l11.335 17.946c15.925 4.503 15.633 4.244 16.97 4.915L68.458 60.835c-3.211-4.511-10.322-.821-8.46 4.437z" fill="#fdb082"/><path d="M102.55 126.66c-.971-8.665-8.836-31.749-8.836-31.749a9.61 9.61 0 0 0-6.627-6.487l-20.142-5.603c-1.796-.499-3.722-.158-5.237.928l-10.994 7.884c-3.456 2.478-1.16 6.364-1.186 6.2 1.424 2.347 4.501 3.008 6.739 1.457 5.554-3.848 7.847-6.413 11.173-4.478l3.681 2.141c2.669 1.552 2.395 4.817 2.354 4.659.294 5.576-6.044 8.966-10.497 5.634-4.135-2.542-6.599-6.623-10.528-4.77-2.51 1.184-3.45 4.273-2.02 6.651 3.392 5.64 4.512 8.465 8.496 10.365l4.722 2.252c2.655 1.267 5.227 1.116 5.048 1.098 8.79-.147 10.947 10.486 11.87 11.603s8.153.322 13.744-1.914c4.258-1.704 7.827-3.914 8.239-5.871z" fill="#fec4a1"/><circle cx="142.16" cy="94.901" r="7.438" fill="#d9d9d9"/><path d="M-28.683 113.71c.586-.158 21.236-1.307 54.251-1.967 25.821-.515 57.029-.501 88.924 0 19.514.307 40.798-4.046 57.349 1.611 6.623 3.388 10.967 32.095 15.824 40.12-51.664 2.318-155.87 4.636-214.16 0 5.52-17.655-2.187-39.764-2.187-39.764z" fill="#965345"/><path d="M18.698-6.777c1.324-1.232 35.85-2.412 106.57 1.474 6.619 11.703 45.468 118.7 62.737 145.1-51.627 8.007-162.76 16.013-221 0L18.703-6.774z" fill="#bb8542"/><path d="M16.212 122.04L40 .04H19.688L-23 122.04h39.212z" fill="#e2af65"/><path d="M24.126.587C25.208-10.487 3.418-11.888-4.887-12.418l-7.727 23.776-9.144 105.71c3.952-.23 12.603-2.648 15.587-10.481s-4.195-13.364-8.158-15.15c1.833.209 6.199-1.014 9.004-7.576s.099-10.45-1.605-11.574c2.009-1.044 6.123-.191 9.293-7.535 1.738-4.027.24-7.974-1.273-9.759 6.224-.194 8.316-2.876 8.363-11.565 4.301-1.311 5.123-11.175.568-14.321C16.492 25.099 22.634 15.853 24.126.585z" fill="#915832"/><path d="M11.413-7.46c.626 1.667 1.092 3.992 1.593 7.26 1.859 12.124 2.029 18.239-8.289 27.841 4.555 3.147 4.886 12.414.585 13.725l-.003.553c-.04 8.28-.056 11.52-9.766 11.45 1.513 1.785 5.566 7.489 2.954 11.012s-7.25 6.395-9.259 7.439c1.704 1.124 4.778 5.769 1.973 12.331s-7.873 7.055-9.705 6.846c3.963 1.786 9.601 7.27 6.617 15.104-2.096 5.501-12.197 9.81-19.394 11.967a161.19 161.19 0 0 1-6.767 1.443l-11.226-62.396-3.992-47.16 31.688-14.029 20.205-6.911c3.964.538 8.687 1.61 12.787 3.524z" fill="#a4693d" class="E"/><path d="M74 122.04V.04H40.094L16 122.04h58z" class="L"/><path d="M74 122.04V.04h30.417l27.583 122H74z" fill="#e2af65"/><g class="C K M"><path d="M98.069 37.358l4.001 21.822 5.002 24.136M92.365 62.962s.049 3.085 1.018 11.529l3.122 24.45" opacity=".45"/></g><path d="M132.48 122.04L105.001.04h23.975l43.025 122H132.48z" class="L"/><path d="M120.73-.041c-1.758-9.11 16.855-12.617 23.759-13.316l7.178 19.573 10.907 87.81c-3.301-.069-10.585-1.815-13.315-8.25s3.08-11.267 6.327-12.878c-1.521.231-5.197-.652-7.739-6.033s-.407-8.705.978-9.695c-1.707-.807-5.108.031-7.978-5.99-1.574-3.302-.448-6.638.757-8.172-5.193.032-7.019-2.138-7.329-9.377-3.624-.959-6.366-9.142-2.668-11.906-8.897-7.68-9.062-12.355-10.877-21.764z" fill="#915832"/><path d="M131.06-8.719c-.47 1.409-.786 3.361-1.102 6.1-1.172 10.161-1.124 15.263 7.773 22.943-3.698 2.764-3.685 10.497-.061 11.456l.02.461c.291 6.898.404 9.599 8.494 9.238-1.205 1.535-4.406 6.414-2.119 9.269s6.241 5.104 7.947 5.911c-1.385.99-3.802 4.956-1.261 10.337s6.78 5.635 8.301 5.404c-3.247 1.611-7.774 6.357-5.044 12.792 1.072 2.528 4.095 5.076 7.569 7.242 4.912 1.41 10.299 2.445 14.23 3.055l7.923-54.177 1.772-37.528L158.66-6.922l-17.054-5.132c-3.286.572-7.189 1.612-10.546 3.334z" fill="#a4693d" class="E"/><g class="C K M"><path d="M126 39.578s1.427 9.106 3.232 14.701c2.116 6.561 7.265 16.089 7.265 16.089M23.5 40.039s-1.943 9.725-3.391 15.422C17.747 64.758 13 72.196 13 72.196m46.625-30.157s-.261 9.338-.707 15.134C58.396 63.971 57 73.977 57 73.977" opacity=".45"/></g><ellipse transform="rotate(341.709 60.431 21.11)" cx="60.431" cy="21.11" rx="1.081" ry="1.117" class="B"/><path d="M60.675 22.504c.447-.781-.168-2.013-.951-1.846" class="C D"/><ellipse transform="rotate(341.709 58.795 22.55)" cx="58.795" cy="22.55" rx="2.175" ry="2.087" class="B"/><g class="C D"><path d="M57.655 20.661c.727 0 1.398.168 1.678 1.342m.279.504c.448.465.728 1.136 0 2.013"/></g><ellipse transform="rotate(341.709 56.817 23.655)" cx="56.817" cy="23.655" rx="3.132" ry="3.356" class="B"/><g class="C D"><path d="M56.593 20.27c.336.019 1.566.783 1.566 2.181m.056 1.845c.447.615.615 1.566.112 2.125"/></g><g class="B"><ellipse transform="rotate(341.709 55.474 25.191)" cx="55.474" cy="25.191" rx="3.132" ry="3.356"/><path d="M58.483 25.755c.929 1.59-.261 3.403-1.802 3.913s-3.914-.643-3.914-2.323c-.546-1.651.397-3.148 1.938-3.657s3.233.416 3.779 2.068z"/></g><path d="M58.83 25.989c0 2.169-1.382 2.861-3.027 2.892-1.609.031-3.125-.627-3.125-2.651 0-1.597 1.409-2.94 3.027-2.94s3.125 1.102 3.125 2.699z" class="F"/><circle cx="55.586" cy="23.625" r="4.586" class="G"/><g class="E"><path d="M53.385 22.508c-.18.166-.199.192-.487.175-.099-.046-.155-.066-.232-.153s-.095-.193-.126-.242c-.015-.236-.003-.252.069-.441l.003-.052c-.785.039-.885 1.754-.369 2.258.376.367.829.227 1.057-.165.239-.411.257-1.322.086-1.381z" class="H"/><g class="I"><path d="M52.608 21.847c-.072.189-.084.205-.069.441.031.048.049.154.126.242s.133.107.232.153c.288.017.308-.009.487-.175.042-.191-.117-.409-.22-.506-.097-.091-.4-.225-.556-.154zm5.839.368c-.023-.129-.249-.35-.344-.334-.136.004-.258.068-.289.209l-.006.049v.026c-.01.345.103.568.469.332.212-.136.166-.027.17-.283z"/></g><path d="M58.065 22.736c-.186-.091-.291-.091-.386-.341-.083-.216-.048-.451.085-.558.031-.068.014-.018.013-.084a.64.64 0 0 0-.6.366c-.105.189-.248.463-.202.658l-.018.042c-.13.463.24 1.786 1.079 1.529.476-.146.64-.866.639-1.306a2.16 2.16 0 0 0-.024-.308c-.052-.36-.072-.265-.127-.264-.069.172-.224.239-.459.266z" fill="#000"/><path d="M58.066 22.736c.236-.028.39-.094.46-.266.018-.077.032-.062.008-.145-.008-.022-.019-.043-.033-.061s-.031-.038-.052-.049c-.004.255.041.147-.17.283-.367.236-.48.012-.469-.332v-.026l.006-.049c.031-.142.153-.206.289-.209-.083-.081-.016-.056-.154-.063-.063-.003-.125.003-.186.019-.133.107-.167.342-.085.558.096.25.201.25.386.341z" class="J"/></g><ellipse transform="matrix(-.94948 -.31384 -.31384 .94948 98.107 68.457)" cx="1.597" cy="1.651" rx="1.597" ry="1.651" class="B"/><path d="M95.711 71.583c-.661-1.154.248-2.975 1.405-2.728" class="C D"/><ellipse transform="matrix(-.94948 -.31384 -.31384 .94948 102.51 69.73)" cx="3.213" cy="3.084" rx="3.213" ry="3.084" class="B"/><g class="C D"><path d="M100.17 68.858c-1.075 0-2.066.249-2.479 1.983m-.41.745c-.662.687-1.076 1.678 0 2.975"/></g><ellipse transform="matrix(-.94948 -.31384 -.31384 .94948 107.36 70.029)" cx="4.628" cy="4.958" rx="4.628" ry="4.958" class="B"/><g class="C D"><path d="M101.74 68.281c-.496.028-2.314 1.157-2.314 3.223m-.078 2.727c-.661.909-.909 2.314-.165 3.14"/></g><g class="B"><ellipse transform="matrix(-.94948 -.31384 -.31384 .94948 109.35 72.298)" cx="4.628" cy="4.958" rx="4.628" ry="4.958"/><path d="M98.95 76.386c-1.372 2.349.386 5.028 2.663 5.781s5.784-.951 5.784-3.432c.806-2.44-.586-4.652-2.863-5.404s-4.778.615-5.584 3.055z"/></g><path d="M98.438 76.732c0 3.205 2.043 4.227 4.473 4.274 2.377.046 4.617-.926 4.617-3.918 0-2.36-2.082-4.345-4.473-4.345s-4.617 1.628-4.617 3.989z" class="F"/><circle transform="matrix(-1 0 0 1 110.01 66.463)" cx="6.777" cy="6.777" r="6.777" class="G"/><g class="E"><path d="M106.48 71.588c.265.246.294.284.72.259.145-.067.229-.098.342-.225s.141-.286.187-.357c.022-.349.004-.373-.102-.651l-.004-.077c1.16.058 1.307 2.592.545 3.336-.555.542-1.225.335-1.561-.244-.353-.607-.381-1.954-.127-2.041z" class="H"/><g class="I"><path d="M107.63 70.613c.106.279.124.303.102.652-.046.071-.073.228-.187.357s-.197.158-.342.225c-.426.025-.455-.013-.721-.259-.061-.282.174-.605.326-.747.143-.134.591-.332.822-.228zm-8.627.541c.035-.191.367-.517.508-.493.201.006.381.1.427.309l.009.073.001.038c.015.509-.152.839-.694.491-.313-.201-.245-.04-.251-.418z"/></g><path d="M99.567 71.925c.274-.134.429-.134.571-.504.122-.319.072-.666-.125-.825-.046-.101-.021-.026-.02-.124.495.034.71.224.886.54.156.279.367.684.298.973l.026.063c.193.685-.354 2.639-1.594 2.259-.703-.215-.945-1.279-.944-1.929a3.23 3.23 0 0 1 .035-.456c.077-.532.107-.392.188-.391.102.254.331.353.679.393z" fill="#000"/><path d="M99.568 71.925c-.348-.041-.577-.139-.679-.393-.026-.114-.048-.091-.011-.214.011-.032.028-.063.049-.09s.045-.056.077-.073c.006.377-.061.217.251.418.542.348.709.018.694-.491l-.001-.038-.009-.073c-.046-.209-.227-.304-.428-.309.122-.12.024-.082.228-.093a.9.9 0 0 1 .274.029c.197.158.248.505.126.825-.142.369-.297.37-.571.503z" class="J"/></g><ellipse transform="matrix(-.94948 -.31384 -.31384 .94948 90.619 24.323)" cx="1.028" cy="1.063" rx="1.028" ry="1.063" class="B"/><path d="M89.076 26.336c-.426-.743.16-1.916.904-1.756" class="C D"/><ellipse transform="matrix(-.94948 -.31384 -.31384 .94948 93.453 25.143)" cx="2.069" cy="1.986" rx="2.069" ry="1.986" class="B"/><g class="C D"><path d="M91.949 24.582c-.692 0-1.33.16-1.596 1.277m-.266.479c-.427.442-.693 1.081 0 1.915"/></g><ellipse transform="matrix(-.94948 -.31384 -.31384 .94948 96.579 25.335)" cx="2.98" cy="3.192" rx="2.98" ry="3.192" class="B"/><g class="C D"><path d="M92.961 24.21c-.319.018-1.49.745-1.49 2.075m-.053 1.755c-.426.585-.585 1.49-.106 2.022"/></g><g class="B"><ellipse transform="matrix(-.94948 -.31384 -.31384 .94948 97.856 26.796)" cx="2.98" cy="3.192" rx="2.98" ry="3.192"/><path d="M91.162 29.428c-.884 1.513.248 3.237 1.715 3.722s3.724-.612 3.724-2.209c.519-1.571-.377-2.995-1.843-3.48s-3.076.396-3.595 1.967z"/></g><path d="M90.832 29.651c0 2.064 1.315 2.722 2.88 2.752 1.53.029 2.973-.596 2.973-2.522 0-1.52-1.341-2.797-2.88-2.797s-2.973 1.049-2.973 2.568z" class="F"/><circle transform="matrix(-1 0 0 1 98.281 23.039)" cx="4.363" cy="4.363" r="4.363" class="G"/><g class="E"><path d="M96.013 26.339c.171.158.189.183.464.167.094-.043.148-.063.221-.145s.09-.184.12-.23c.014-.224.003-.24-.066-.419l-.003-.049c.747.037.842 1.669.351 2.148-.357.349-.788.216-1.005-.157-.227-.391-.245-1.258-.082-1.314z" class="H"/><g class="I"><path d="M96.751 25.711c.069.179.08.195.066.419-.03.046-.047.147-.12.23s-.127.102-.221.145c-.274.016-.293-.009-.464-.167-.04-.181.111-.389.21-.481.092-.086.381-.214.529-.147zm-5.555.349c.022-.123.237-.333.327-.318.129.004.246.064.275.199l.006.047c.001.009 0 .016 0 .025.01.328-.098.54-.447.316-.201-.129-.158-.026-.162-.269z"/></g><path d="M91.56 26.556c.177-.086.276-.086.368-.324.079-.205.046-.429-.081-.531-.029-.065-.014-.017-.013-.08a.61.61 0 0 1 .571.348c.1.18.236.44.192.626l.017.04c.124.441-.228 1.699-1.026 1.455-.453-.139-.609-.823-.608-1.242a2.07 2.07 0 0 1 .023-.293c.049-.343.069-.253.121-.252.066.164.213.227.437.253z" fill="#000"/><path d="M91.559 26.556c-.224-.026-.371-.09-.437-.253-.017-.073-.031-.059-.007-.138.007-.021.018-.04.031-.058a.13.13 0 0 1 .05-.047c.004.243-.04.14.162.269.349.224.456.012.447-.316v-.025l-.006-.047c-.03-.135-.146-.196-.275-.199.079-.077.016-.053.147-.059a.58.58 0 0 1 .177.018c.126.102.159.326.081.531-.091.238-.191.238-.368.324z" class="J"/></g><g fill="#854a32"><path d="M125.99 93.85c-2.11-3.353-3.664-2.896-3.76-7.46s-.046-8.546-1.646-11.561-3.162-1.436-3.72-7.189 2.277-9.946-.007-14.001c-1.772-3.148-1.341-4.931-2.419-9.786-.717-6.054-3.692-7.162-5.226-11.31s.494-6.565.192-10.581-.625-4.62-1.52-7.561-1.388-9.824-1.483-11.259 1.247 9.243 2.941 10.559 2.284 3.954 2.602 10.821.727 7.828 2.262 11.974 5.718 7.367 5.7 13.911-2.305 8.45.699 14.746 4.861 4.783 5.018 11.346l.367 17.35zM23.222 91.832c2.493-3.26 5.374-2.926 5.256-7.294S25.48 75.1 27.347 72.176s2.738-1.366 3.143-6.884-.385-8.045.762-13.5c.734-3.492-.26-2.983.85-7.654.591-5.809 3.596-7.353 5.32-11.359s-.967-6.267-.795-10.116.549-4.435 1.528-7.27 1.244-9.432 1.288-10.806-1.094 8.872-3.169 10.174-2.682 3.839-2.727 10.416.653 7.188-1.072 11.192-5.909 6.171-5.544 12.431 3.356 8.025-.116 14.123-5.186 8.979-5.042 15.261 1.448 13.65 1.448 13.65zm50.652 4.131c-1.895-3.552-3.604-5.563-3.073-10.004s4.03-5.562 2.387-9.079c-.799-1.712-2.317-4.606-2.137-10.267s3.268-7.849 1.954-11.274 1.124-6.477-.196-10.307c-1.296-3.762-1.621-6.327-1.379-10.462.18-3.079 1.107-4.604 1.318-7.686.209-3.051.629-4.872.037-7.852s1.335-8.388 1.43-9.793-1.409 8.821.306 10.338 1.585 5.717 1.586 7.317c-.606 6.705-2.661 8.063-1.52 12.303s3.299 7.529 2.362 13.876-4.519 11.089-2.032 17.623 2.561 7.13 1.069 11.976c-1.986 6.447-2.113 13.29-2.113 13.29z"/></g><path fill="url(#A)" d="M-23.214 108.46h196v4.375h-196z"/><path fill="#fdd747" d="M123.57 108.46h49.22v4.375h-49.22z"/><path fill="url(#B)" d="M-23.214 116.34h196v4.375h-196z"/><path fill="#fdd747" d="M123.57 116.34h49.22v4.375h-49.22z"/><path d="M3.475 105.84l4.047-1.75 4.047 1.75v14.875H3.475V105.84z" fill="url(#C)"/><use xlink:href="#O" fill="url(#D)"/><path d="M30.163 105.84l4.047-1.75 4.047 1.75v14.875h-8.094V105.84z" fill="url(#E)"/><path d="M43.507 105.84l4.047-1.75 4.047 1.75v14.875h-8.094V105.84z" fill="url(#F)"/><path d="M56.851 105.84l4.047-1.75 4.047 1.75v14.875h-8.094V105.84z" fill="url(#G)"/><path d="M70.195 105.84l4.047-1.75 4.047 1.75v14.875h-8.094V105.84z" fill="url(#H)"/><path d="M83.539 105.84l4.047-1.75 4.047 1.75v14.875h-8.094V105.84z" fill="url(#I)"/><path d="M96.883 105.84l4.047-1.75 4.047 1.75v14.875h-8.094V105.84z" fill="url(#J)"/><path d="M110.23 105.84l4.047-1.75 4.046 1.75v14.875h-8.093V105.84z" fill="url(#K)"/><path d="M123.57 105.84l4.047-1.75 4.047 1.75v14.875h-8.094V105.84z" fill="url(#L)"/><path d="M136.92 105.84l4.047-1.75 4.047 1.75v14.875h-8.094V105.84z" fill="url(#M)"/><path d="M-22.628 135.49c-2.268 1.588-2.317 5.032-2.058 6.555 7.989 2.076 24.577 5.835 27.02 4.259s4.376-5.249 5.036-6.889c1.559 1.89 6.563.47 6.186-3.25 4.83 1.877 10.566-2.253 12.83-4.553 1.279.821 4.307 1.785 6.188-.925 5.728 1.915 6.781-1.886 8.38-3.23.567 2.776 7.988 2.897 8.926 1.596 6.04 2.293 21.403 2.307 28.33 2.028 2.337 1.672 7.158 2.414 12.844 2.287 5.659-.126 13.543-3.209 16.393-5.666 4.928 1.666 9.246.206 10.789-.732 1.825 1.681 7.463-.013 8.388-1.041 2.428 2.089 9.044 3.793 10.829.775 1.475 1.337 2.988 1.855 3.978 1.789s3.347 1.197 11.266 5.594c6.335 3.517 16.075 6.804 20.153 8.008v-8.727c-1.294-4.315-9.073-10.663-12.469-11.755-3.542-1.139-8.657-1.966-11.176-.819-1.424-2.595-7.145-5.934-11.958-6.278s-8.749 1.022-12.255 3.207c-3.616-5.233-13.431-4.434-16.654-1.163-3.635-1.135-7.947-1.104-8.436 0-3.173-1.002-8.108-2.905-9.97.669-2.712-3.066-11.722-6.677-17.42-.37-8.108-6.58-14.462-3.012-18.516-.299-6.648-2.445-10.876-1.962-13.041-1.022-3.014-2.861-13.563-4.618-16.322 0-3.734-2.319-6.488-1.823-7.779 0-1.424-1.845-5.933-.763-6.046 1.691-1.925-.138-2.963.791-3.241 1.273-.747-.464-2.991-2.651-7.366-2.964-5.469-.392-6.793 2.964-8.458 5.798-4.832.064-9.501 1.371-9.765 7.097-3.403.03-5.504 2.752-4.605 7.057z" fill="#9dbd4b"/><g fill="#abcb5d"><path d="M54.336 135.14c2.675 8.619 12.865 9.417 19.338 1.298 13.789-17.299-15.56-32.579-19.6-10.181-.622 2.928-.53 6.017.262 8.883zm52.324-1.21c2.502 8.098 12.031 8.847 18.085 1.22 12.895-16.251-14.552-30.605-18.33-9.564-.581 2.751-.496 5.652.245 8.344z" opacity=".3"/></g><g fill="#bcd84d"><path d="M56.575 133.88c2.129 6.948 10.238 7.59 15.39 1.046 10.973-13.944-12.383-26.26-15.598-8.206-.495 2.36-.422 4.85.209 7.16zm52.155-1.15c2.006 6.53 9.648 7.134 14.504.983 10.341-13.105-11.671-24.681-14.701-7.712-.466 2.218-.398 4.558.197 6.729z" opacity=".3"/></g><g fill="#aeff7c"><path d="M37.194 82.718c7.171-.422 10.742 4.192 10.031 9.467 4.588-1.688 11.14 2.349 13.445 8.679s-8.003 6.225-13.445 5.381c2.561 3.517 5.912 11.225-1.174 13.926s-6.936-7.385-5.976-12.766c-.96 5.1-3.97 14.391-8.323 10.762-5.442-4.537-.854-9.917 1.707-13.61-7.149 0-13.232.316-12.378-6.541.683-5.486 11.026-2.286 16.113 0-2.988-4.923-7.171-14.876 0-15.298zm19.455 4.826c-1.832-.395-3.637.769-4.032 2.601s1.085 2.174 2.917 2.569 3.321.694 3.716-1.138-.77-3.637-2.601-4.032zm1.645 30.136c1.114-1.507 1.139-3.377.056-4.177s-1.998.412-3.112 1.918-2.004 2.738-.921 3.539 2.864.227 3.977-1.28z"/></g><circle transform="matrix(-1 0 0 1 46.518 96.14)" cx="4.828" cy="4.828" r="4.828" fill="#fff"/><ellipse transform="rotate(341.709 56.947 82.39)" cx="56.947" cy="82.39" rx="2.784" ry="2.878" class="B"/><path d="M57.578 85.982c1.152-2.011-.432-5.186-2.449-4.755" class="C D"/><ellipse transform="rotate(341.709 52.733 86.098)" cx="52.733" cy="86.098" rx="5.601" ry="5.376" class="B"/><g class="C D"><path d="M49.799 81.232c1.873 0 3.602.433 4.322 3.458m.72 1.297c1.155 1.197 1.877 2.926 0 5.186"/></g><ellipse transform="rotate(341.709 47.638 88.946)" cx="47.638" cy="88.946" rx="8.067" ry="8.644" class="B"/><g class="C D"><path d="M47.06 80.225c.864.048 4.034 2.017 4.034 5.618m.145 4.754c1.152 1.585 1.585 4.034.288 5.474"/></g><g class="B"><ellipse transform="rotate(341.709 44.18 92.902)" cx="44.18" cy="92.902" rx="8.067" ry="8.644"/><path d="M47.322 94.353c2.392 4.096-.673 8.766-4.643 10.078s-10.083-1.656-10.083-5.982c-1.406-4.254 1.021-8.109 4.991-9.421s8.328 1.072 9.734 5.326z"/></g><path d="M48.214 94.957c0 5.587-3.561 7.369-7.798 7.45-4.144.079-8.049-1.614-8.049-6.829 0-4.115 3.63-7.574 7.798-7.574s8.049 2.839 8.049 6.953z" class="F"/><circle cx="39.858" cy="88.868" r="11.813" class="G"/><g class="E"><path d="M34.188 85.989c-.463.428-.513.496-1.255.452-.254-.118-.4-.17-.597-.393s-.245-.498-.325-.622c-.038-.608-.008-.65.178-1.136l.008-.134c-2.022.101-2.279 4.518-.951 5.815.967.944 2.135.584 2.722-.425.615-1.059.663-3.406.222-3.558z" class="H"/><g class="I"><path d="M32.188 84.29c-.186.486-.216.528-.178 1.136.08.124.126.398.325.622s.344.275.598.393c.742.044.792-.024 1.255-.452.108-.491-.302-1.054-.568-1.302-.25-.233-1.031-.578-1.432-.397zm15.042.944c-.061-.333-.641-.9-.886-.86-.351.01-.665.175-.745.539l-.016.126c-.002.024 0 .043-.001.067-.026.888.265 1.463 1.209.856.545-.35.428-.07.438-.728z"/></g><path d="M46.246 86.577c-.478-.234-.748-.234-.995-.878-.213-.556-.124-1.161.218-1.437.079-.176.037-.046.035-.217-.863.059-1.237.39-1.545.942-.272.487-.638 1.192-.519 1.695l-.046.109c-.335 1.194.617 4.6 2.779 3.938 1.226-.376 1.648-2.23 1.645-3.364a5.63 5.63 0 0 0-.062-.794c-.134-.928-.186-.684-.327-.681-.179.443-.577.615-1.184.686z" fill="#000"/><path d="M46.245 86.578c.607-.071 1.005-.243 1.184-.686.046-.198.084-.159.02-.374a.58.58 0 0 0-.085-.157c-.033-.054-.079-.098-.134-.127-.011.658.107.378-.438.729-.945.607-1.236.032-1.209-.856l.001-.067.015-.126c.081-.365.395-.53.745-.539-.213-.209-.042-.143-.397-.161a1.58 1.58 0 0 0-.479.05c-.342.276-.431.881-.218 1.437.247.644.517.644.995.878z" class="J"/></g><ellipse transform="rotate(341.709 16.121 73.361)" cx="16.121" cy="73.361" rx="1.733" ry="1.792" class="B"/><path d="M16.514 75.596c.717-1.252-.269-3.228-1.524-2.96" class="C D"/><ellipse transform="rotate(341.709 13.498 75.669)" cx="13.498" cy="75.669" rx="3.487" ry="3.347" class="B"/><g class="C D"><path d="M11.671 72.639c1.166 0 2.242.27 2.69 2.152m.449.809c.719.745 1.168 1.821 0 3.228"/></g><ellipse transform="rotate(341.709 10.326 77.442)" cx="10.326" cy="77.442" rx="5.022" ry="5.381" class="B"/><g class="C D"><path d="M9.967 72.013c.538.03 2.511 1.255 2.511 3.497m.089 2.959c.717.987.986 2.511.179 3.408"/></g><g class="B"><ellipse transform="rotate(341.709 8.173 79.904)" cx="8.173" cy="79.904" rx="5.022" ry="5.381"/><path d="M12.999 80.808c1.489 2.549-.419 5.456-2.89 6.273s-6.276-1.031-6.276-3.724c-.875-2.648.636-5.048 3.107-5.864s5.184.667 6.059 3.315z"/></g><path d="M13.555 81.183c0 3.478-2.216 4.587-4.854 4.638-2.579.049-5.01-1.005-5.01-4.251 0-2.561 2.26-4.715 4.854-4.715s5.01 1.767 5.01 4.328z" class="F"/><circle cx="8.353" cy="77.393" r="7.353" class="G"/><g class="E"><path d="M4.823 75.601c-.288.266-.319.309-.781.281-.158-.073-.249-.106-.372-.245s-.152-.31-.202-.388c-.024-.378-.005-.405.111-.707l.005-.083c-1.259.063-1.419 2.812-.592 3.62.602.588 1.329.363 1.694-.264.383-.659.413-2.12.138-2.214z" class="H"/><g class="I"><path d="M3.579 74.543c-.116.302-.135.329-.111.707.05.077.079.248.202.387s.214.171.372.245c.462.028.493-.015.781-.281.067-.306-.188-.656-.353-.811-.156-.145-.642-.36-.892-.247zm9.362.588c-.038-.207-.399-.561-.552-.535-.218.006-.414.109-.464.336l-.01.079-.001.042c-.016.553.165.91.753.533.34-.218.266-.044.273-.453z"/></g><path d="M12.329 75.967c-.298-.145-.466-.146-.62-.546-.133-.346-.077-.723.136-.895.049-.11.023-.028.022-.135-.537.037-.77.243-.962.586-.169.303-.397.742-.323 1.055l-.029.068c-.209.743.384 2.864 1.73 2.451.763-.234 1.026-1.388 1.024-2.094-.001-.165-.014-.331-.038-.494-.083-.578-.116-.426-.204-.424-.111.276-.359.383-.737.427z" fill="#000"/><path d="M12.328 75.968c.378-.044.626-.151.737-.427.029-.123.052-.099.012-.233a.36.36 0 0 0-.053-.098c-.02-.033-.049-.061-.084-.079-.007.41.066.235-.273.454-.588.378-.769.02-.753-.533l.001-.042.01-.079c.05-.227.246-.33.464-.336-.132-.13-.026-.089-.247-.1-.1-.005-.201.006-.298.031-.213.172-.268.549-.136.895.154.401.322.401.62.546z" class="J"/></g><path d="M46.938 18.04s-1.089 15.862-2.945 25.708C41.817 55.296 36 72.291 36 72.291" opacity=".45" class="C K M"/><path d="M80.24 123.56c-10.125-3.864-13.498-9.297-15.288-17.922-.362-1.744-7.073-6.316-8.517-7.286-2.276-1.529-3.823-4.797-.229-7.131 6.788-4.408 19.55 6.947 19.55 6.947l.874-5.714a2.66 2.66 0 0 1 1.942-2.163l-.052-.069-13.217.586a4.29 4.29 0 1 1-.38-8.573l9.575-.425-3.288-3.496-8.184-.704a4.29 4.29 0 1 1 .735-8.55l11.032.949a6.22 6.22 0 0 1 3.946 1.88l8.998 9.333 2.721-.121a8.89 8.89 0 0 1 6.793 2.711l7.712 8c3.051 3.165 4.513 8.395 5.3 12.721 2.625 14.441-13.346 23.379-18.453 22.68-4.784-.656-10.756-3.289-11.492-3.62.043.013.049.013-.076-.035v.001z" fill="#fdb082"/><path d="M80.318 123.6c-.083-.027-.312-.109-.077-.035l.077.035z" fill="#fff"/><g fill="#f39863"><path d="M74.559 105.83s2.045 7.799 10.586 9.42c0 0-3.483-1.573-2.317-6.483l-1.534-.652s-3.392 2.909-6.735-2.285h0zM61.16 88.187l27.945-1.227c.524-.022.86.55.586.998l-1.07 1.746-24.043 1.072s-2.362-.189-3.418-2.588h0z"/><path d="M72.2 95.518s-.949 5.841 2.576 10.103l.817-7.08-3.393-3.022h0zm11.666-18.31L71.475 78.6l2.976 3.213 13.286-.59-3.871-4.016zm3.049 38.802l1.995-12.773a1.69 1.69 0 0 1 1.577-1.403l5.307-.273a.77.77 0 0 1 .792.949c-.31 1.261-1.095 3.193-2.945 2.558l-1.562-.028-1.312 8.371s-1.609 3.264-3.853 2.599zm-7.335-7.61l2.405-12.348a1.69 1.69 0 0 1 1.577-1.403l11.129-.927a.77.77 0 0 1 .792.95c-.31 1.261-1.095 3.193-2.945 2.558l-7.794.2-1.312 8.371s-1.609 3.264-3.853 2.599zm.584 15.13c.017 0 .034.018.077.028.008.008.017 0 .026.009.103.036.094.045.043.026.737.325 6.71 2.965 11.5 3.623 5.101.698 21.082-8.243 18.453-22.674-.785-4.334-2.244-9.561-5.296-12.727l-2.56-2.656c3.052 3.166 4.519 8.401 5.295 12.726 2.638 14.44-13.342 23.381-18.443 22.683-4.791-.658-10.764-3.298-11.5-3.622-.077-.028-.232-.082-.146-.064-3.474-1.333-6.15-2.859-8.234-4.634 2.321 2.971 5.69 5.322 10.786 7.281z"/></g><g stroke="#f39863" stroke-linejoin="round" class="K"><path d="M84.21 99.661l-1.666 10.981a4.291 4.291 0 1 0 8.483 1.298l1.205-7.881 2.276.042m-6.771-22.877l-8.998-9.333a6.22 6.22 0 0 0-3.946-1.88l-11.032-.949a4.291 4.291 0 1 0-.735 8.55l8.184.704 3.241 3.499"/><path d="M88.013 89.801l-8.866.393c-1.27.056-2.323 1.002-2.516 2.259l-1.729 11.302a4.29 4.29 0 1 0 8.483 1.297l.825-5.393a3.03 3.03 0 0 1 2.896-2.571l6.991-.231"/><path d="M88.014 89.802L65.305 90.81a4.29 4.29 0 1 1-.38-8.573l25.534-1.133a8.89 8.89 0 0 1 6.793 2.711l7.712 8c3.052 3.165 4.514 8.394 5.3 12.72 2.625 14.441-13.346 23.38-18.453 22.68s-11.568-3.654-11.568-3.654m0 0c.365.139-.356-.113 0 0zm0 0c-10.125-3.864-13.498-9.297-15.288-17.921-.362-1.744-7.073-6.317-8.517-7.287-2.276-1.529-3.823-4.797-.229-7.131 6.788-4.408 19.55 6.947 19.55 6.947"/></g><g fill="#4878ff"><use xlink:href="#P"/><use xlink:href="#P"/></g></g><defs><linearGradient id="A" x1="-27.311" x2="176.58" y1="109.78" y2="109.78" xlink:href="#Q"><stop stop-color="#fff" offset="0"/><stop stop-color="#fbd406" offset=".49"/><stop stop-color="#fff" offset="1"/></linearGradient><linearGradient id="B" x1="-27.311" x2="176.58" y1="117.65" y2="117.65" xlink:href="#Q"><stop stop-color="#fff" offset="0"/><stop stop-color="#fbd406" offset=".49"/><stop stop-color="#fff" offset="1"/></linearGradient><linearGradient id="C" x1="7.522" x2="7.522" y1="104.09" y2="120.71" xlink:href="#Q"><stop stop-color="#fbd23e" offset="0"/><stop stop-color="#fffa84" offset=".526"/><stop stop-color="#ffefb5" offset="1"/></linearGradient><linearGradient id="D" x1="20.866" x2="20.866" y1="104.09" y2="120.71" xlink:href="#Q"><stop stop-color="#fbd23e" offset="0"/><stop stop-color="#fffa84" offset=".526"/><stop stop-color="#ffefb5" offset="1"/></linearGradient><linearGradient id="E" x1="34.21" x2="34.21" y1="104.09" y2="120.71" xlink:href="#Q"><stop stop-color="#fbd23e" offset="0"/><stop stop-color="#fffa84" offset=".526"/><stop stop-color="#ffefb5" offset="1"/></linearGradient><linearGradient id="F" x1="47.554" x2="47.554" y1="104.09" y2="120.71" xlink:href="#Q"><stop stop-color="#fbd23e" offset="0"/><stop stop-color="#fffa84" offset=".526"/><stop stop-color="#ffefb5" offset="1"/></linearGradient><linearGradient id="G" x1="60.898" x2="60.898" y1="104.09" y2="120.71" xlink:href="#Q"><stop stop-color="#fbd23e" offset="0"/><stop stop-color="#fffa84" offset=".526"/><stop stop-color="#ffefb5" offset="1"/></linearGradient><linearGradient id="H" x1="74.242" x2="74.242" y1="104.09" y2="120.71" xlink:href="#Q"><stop stop-color="#fbd23e" offset="0"/><stop stop-color="#fffa84" offset=".526"/><stop stop-color="#ffefb5" offset="1"/></linearGradient><linearGradient id="I" x1="87.586" x2="87.586" y1="104.09" y2="120.71" xlink:href="#Q"><stop stop-color="#fbd23e" offset="0"/><stop stop-color="#fffa84" offset=".526"/><stop stop-color="#ffefb5" offset="1"/></linearGradient><linearGradient id="J" x1="100.93" x2="100.93" y1="104.09" y2="120.71" xlink:href="#Q"><stop stop-color="#fbd23e" offset="0"/><stop stop-color="#fffa84" offset=".526"/><stop stop-color="#ffefb5" offset="1"/></linearGradient><linearGradient id="K" x1="114.28" x2="114.28" y1="104.09" y2="120.71" xlink:href="#Q"><stop stop-color="#fbd23e" offset="0"/><stop stop-color="#fffa84" offset=".526"/><stop stop-color="#ffefb5" offset="1"/></linearGradient><linearGradient id="L" x1="127.62" x2="127.62" y1="104.09" y2="120.71" xlink:href="#Q"><stop stop-color="#fbd23e" offset="0"/><stop stop-color="#fffa84" offset=".526"/><stop stop-color="#ffefb5" offset="1"/></linearGradient><linearGradient id="M" x1="140.96" x2="140.96" y1="104.09" y2="120.71" xlink:href="#Q"><stop stop-color="#fbd23e" offset="0"/><stop stop-color="#fffa84" offset=".526"/><stop stop-color="#ffefb5" offset="1"/></linearGradient><clipPath id="N"><path d="M0 11.42C0 5.135 5.095.039 11.381.039h130.62v127.46H11.381C5.096 127.499 0 122.404 0 116.118v-104.7z" fill="#fff"/></clipPath><path id="O" d="M16.819 105.84l4.047-1.75 4.047 1.75v14.875h-8.094V105.84z"/><path id="P" d="M80.164 123.53c-.087-.019.069.036.146.063-.017-.017-.034-.018-.043-.027s-.017 0-.026-.009c-.043-.009-.06-.027-.078-.027z"/><linearGradient id="Q" gradientUnits="userSpaceOnUse"/></defs></svg>