<?xml version="1.0" encoding="UTF-8"?>
<svg width="142" height="128" fill="none" viewBox="0 0 142 128" xmlns="http://www.w3.org/2000/svg">
 <g clip-path="url(#clip0_54_11140)">
  <path d="m0 11.562c0-6.2854 5.0953-11.381 11.381-11.381h130.62v127.46h-130.62c-6.2854 0-11.381-5.096-11.381-11.381v-104.7z" fill="#FFE6B5"/>
  <path d="m-1.2202 84.583c-36.158 0-61.416 8.792-65.684 16.901l8.1945 27.657h245.71l7.554-40.077c-6.273 0-32.651-9.8477-46.222-12.292-20.614-3.7131-29.449 3.5854-66.196 12.292-29.833 7.0684-38.156-4.4817-83.353-4.4817z" fill="#77544E"/>
  <path d="m75.813 106.52c-0.1747-0.032-0.296-0.053-0.43-0.076 0.1003 0.081 0.1743 0.172 0.1671 0.279 0.0012 0.015-0.0081 0.028-0.0106 0.042 0.3078 0.09 0.5707 0.166 0.8576 0.25-0.0328 0.236-0.0726 0.452-0.1281 0.749-0.5937-0.22-1.0569-0.383-1.5588-0.56 0.0846-0.046 0.1417-0.079 0.2218-0.118-0.2438-0.021-0.502-0.055-0.6679-0.126-0.8703-0.346-0.8919-0.57-0.148-0.837-0.1262-0.076-0.1821-0.168-0.0572-0.266 0.1534-0.123 0.5645-0.217 0.8717-0.196 0.3318 0.023 0.8089 0.168 0.9816 0.317 0.1485 0.122-0.0364 0.313-0.0992 0.542zm-20.434-7.901c0.0644 0.0874 0.1286 0.1828 0.1941 0.2683-0.6307 0.1146-1.0567 0.12-1.2664-0.1951-0.1067-0.1627-0.1466-0.316-4e-4 -0.447-0.1415-0.2016-0.1065-0.4279 0.1276-0.6992 0.5153 0.0213 1.0852 0.0478 1.685 0.0841 0.1167 0.4605-0.0763 0.7878-0.7399 0.9889zm8.915-0.1116c-0.315-0.0076-0.6124-0.0687-0.9028-0.1298 0.0423 0.0397 0.1262 0.0592 0.1458 0.1043 0.0642 0.0132 0.1155 0.0143 0.1781 0.0266 0.2459 0.0588 0.5654 0.2336 0.588 0.3524 0.058 0.2183-0.2218 0.3482-0.7197 0.2878-0.1243-0.014-0.2449-0.0284-0.3683-0.0422-0.1544 0.0337-0.3425 0.0576-0.5894 0.0513-0.1909-0.0091-0.3676-0.0219-0.539-0.0421-0.0458 0.0752-0.0967 0.1567-0.1684 0.2662-0.176-0.0941-0.3267-0.17-0.4735-0.2521 0.2687 0.2913 0.493 0.6255-0.5051 0.7986-0.4956-0.3166-0.9577-0.612-1.4729-0.9238 0.7369-0.1529 1.2579-0.1658 1.6133-0.0665-0.0826-0.0422-0.1589-0.0853-0.2507-0.131 0.076-0.0614 0.1782-0.1027 0.2611-0.1491-0.0602-0.0768-0.1234-0.1484-0.1663-0.2472 0.4982-0.0869 1.0225-0.2062 1.5833-0.2481 0.0235-4e-4 0.0413 0.0062 0.062 0.0032-0.2303-0.071-0.4458-0.1302-0.7071-0.2218 0.6214-0.1903 1.1583-0.3508 1.7376-0.2046 0.4894 0.1276 1.0534 0.3788 0.694 0.7679zm-1.6863-2.1411c0.3899 0.1274 0.7683 0.2575 1.2169 0.4094-0.1079 0.1857-0.2131 0.3568-0.3567 0.5974-1.3578-0.476-1.3719-0.4902-0.8602-1.0068zm14.376 7.0287c-0.7966-0.152-1.7446-0.17-1.9577-0.786 0.3599-0.074 0.711-0.148 1.144-0.235 1.1734 0.37 1.1781 0.376 0.8137 1.021zm-18.459-7.3859c-0.4656-0.2004-0.9171-0.3593-1.2768-0.5621-0.1154-0.0698 0.0302-0.2559 0.0502-0.395 0.213 0.0276 0.4594 0.0343 0.6419 0.0972 0.5788 0.1946 0.7446 0.4754 0.5847 0.8599zm12.643 4.2429c-0.1826 0.127-0.2795 0.265-0.4865 0.327-0.428 0.136-0.8326-0.035-1.1211-0.218-0.1642-0.097-0.1599-0.262-0.2305-0.3978 0.3421-0.0118 0.6854-0.0612 1.0208-0.0203 0.253 0.033 0.4924 0.1781 0.8173 0.3091zm4.4578 4.368c-0.2126 0.152-1.3469 0.027-1.9029-0.266 0.0323-0.116-0.0258-0.336 0.1433-0.467 0.1261-0.103 0.3753-0.142 0.6552-0.136-1.3399-0.233-1.4418-0.389-0.7007-1.005 1.3305 0.329 1.5439 0.567 0.999 1.042 0.2127 0.034 0.4209 0.087 0.5838 0.174 0.3896 0.219 0.4953 0.457 0.2223 0.658zm-3.702 2.568c0.3157 0.089 0.5228 0.285 0.8073 0.453-1.126 0.205-1.1186 0.205-2.1639-0.418 0.3441-0.271 0.9038-0.169 1.3566-0.035zm-35.151-11.754c-0.4117-0.3136-1.0343-0.5721-0.7825-1.1788 0.3477-0.0791 0.7799-0.165 1.2411-0.264 0.1814 0.3445 0.3171 0.607 0.4741 0.8991-0.1879 0.1468-0.3972 0.3163-0.6097 0.4725-0.0513 0.0351-0.1625 0.0411-0.323 0.0712zm9.9164 1.8574c0.1554-0.0915 0.3125-0.1242 0.4649-0.178-0.858-0.2377-0.872-0.4421-0.1544-0.9653 0.1905 0.0838 0.2896 0.1352 0.4308 0.1984 0.2571-0.0884 0.5058-0.0346 1.0841 0.1571 0.4313 0.1345 0.8601 0.2705 1.2864 0.409-0.0035 0.0127-3e-4 0.0229-3e-3 0.0346 0.5291 0.2091 0.2755 0.5477 0.2109 0.8883-0.175-0.0478-0.2777-0.0842-0.4043-0.1276-0.6841 0.1634-1.0056-0.1672-1.4248-0.3441-0.0137-0.0035-0.0319-0.0112-0.0443-0.0145-0.0713 0.0742-0.1334 0.1457-0.2153 0.2349-0.4376-0.1047-0.776-0.1818-1.231-0.2928zm6.6448 3.769c-0.3721-0.16-0.698-0.3-1.0325-0.438 0.0316-0.058 0.0644-0.113 0.0916-0.17 0.5159-0.023 1.0329-0.04 1.7097-0.066-0.3018 0.268-0.4805 0.424-0.7688 0.674zm-3.7207-1.002c-0.1681-0.0984-0.2548-0.2818-0.2185-0.4164 0.0215-0.0726 0.3714-0.1585 0.5794-0.1675 0.2412-0.0164 0.4923 0.0428 1.0273 0.1092-0.3125 0.2525-0.4416 0.4397-0.6922 0.5327-0.1432 0.058-0.5532 0.015-0.696-0.058zm4.7927-5.5559c-0.8541-0.0857-1.3781-0.3579-1.8519-0.7798 0.9741-0.2406 1.697 0.0854 1.8519 0.7798zm-4.3646 1.0605s0.0034 0.0063 6e-4 0.0098c0.0027 0.0048 0.0171 0.0088 0.0177 0.0088 0.0021-0.0079-9e-3 -0.0106-0.0183-0.0186zm-0.9773-1.0203c-0.0034 0.0041-0.0085 0.0104-0.0122 0.0148 0.0109 0.0076 0.0208 0.0142 0.0262 0.0207 0.0046-0.0176-0.0094-0.0216-0.014-0.0355zm-1.4205 1.0138c0.1082-0.0349 0.2054-0.0418 0.3121-0.0626-0.171-0.0196-0.3176-0.04-0.4633-0.0644-0.3172-0.0499-0.644-0.145-0.9673-0.1588-1.153-0.052-1.3975-0.2893-0.8457-0.9616 0.3392 0.1345 0.6744 0.2586 0.8378 0.3311 0.2333-0.0299 0.4442-0.0576 0.6566-0.0791-0.2668-0.0777-0.5473-0.1512-0.8065-0.2385-0.441-0.146-0.2403-0.6969 0.2441-0.6701 0.6982 0.0321 1.4515 0.1437 2.0721 0.3364 0.2404 0.0762 0.3548 0.1788 0.4121 0.2904 0.0711-0.099 0.3657-0.191 0.6555-0.3305 0.2943 0.3094 0.5585 0.5233 0.6772 0.7512 0.048 0.1116-0.1357 0.3357-0.3 0.3586-0.0756 0.0102-0.1793-1e-4 -0.2834-0.0015 0.0763 0.0524 0.1775 0.1061 0.2334 0.1654 0.0431 0.0438 0.046 0.0975 0.0415 0.1526 0.8668-0.2652 0.9864-0.2488 1.8324 0.03-0.7341 0.6321-1.1725 0.6698-1.83 0.2117-0.1251 0.201-0.2436 0.396-0.3676 0.5925-1.0308 0.0946-1.6282-0.1397-2.111-0.6528zm10.34 4.5329c0.072 0.136-0.0879 0.297-0.1464 0.448-0.2369-0.035-0.5464-0.034-0.7103-0.111-0.2015-0.099-0.3948-0.228-0.5882-0.338-0.1255 0.031-0.2801 0.048-0.5061 0.039-0.0016-0.1878-0.6358-0.3954 0.0629-0.5593 0.0969-0.0233 0.3088 0.0356 0.4672 0.105 0.7797-0.0186 1.2483 0.1168 1.4209 0.4163zm-5.0574-1.0024c-0.779-0.1993-1.7683-0.176-1.6746-0.8401 0.403-0.0758 0.6255-0.1114 0.8786-0.1133-0.1789-0.0656-0.3386-0.1685-0.5183-0.269-0.5224-0.3101-0.3654-0.5667 0.0182-0.8365 0.9357 0.1575 1.2043 0.2435 1.2757 0.6193 0.0435 0.0135 0.0804 0.01 0.1195 0.0268 0.2002 0.0851 0.2448 0.2764 0.4443 0.5254-0.1623 0.0113-0.2883 0.0222-0.4243 0.0357 0.1937 0.0349 0.3879 0.071 0.6721 0.1239-0.2872 0.264-0.5224 0.4776-0.7912 0.7278zm-63.178 0.7594c0.57708 0.347 0.0485 0.556-0.1129 0.965-0.3978-0.337-0.6416-0.541-0.8966-0.752 0.1966-0.389 0.5823-0.466 1.0095-0.213zm-1.6017 3.179c-0.3119 0.258-0.5951 0.491-1.0411 4e-3 0.553-0.631 0.5623-0.629 1.0411-4e-3zm13.356-0.532c-0.66266 0.056-1.0732 0.097-1.5108 0.144 0.019114-0.315 0.029611-0.539 0.058288-0.975 0.51717 0.293 0.88179 0.497 1.4525 0.831zm-16.423-1.175c-0.1408 0.405-0.2668 0.765-1.0872 0.416 0.0958-0.57 0.4049-0.739 1.0872-0.416zm-15.626 0.918c-0.4891-0.18-0.4823-0.356-0.1473-0.649 0.4571-0.401 0.9662-0.365 1.672 0.041-0.08 0.097-0.1474 0.152-0.2181 0.233 0.0373 0.03 0.0767 0.047 0.1196 0.09-0.3793 0.33-0.5852 0.435-0.8303 0.359-0.18 0.026-0.3617 0.011-0.5959-0.074zm-23.264-1.308c-0.3295-0.525 0.6349-1.2798 1.4629-1.1186 0.2418 0.0484 0.4579 0.2556 0.7744 0.4456-0.4975 0.318-0.8881 0.633-1.3716 0.885-0.2679 0.142-0.678 0.092-0.8657-0.212zm27.969 1.175c0.0385 0.267-0.1171 0.469-0.5595 0.416-0.5096-0.064-0.6503-0.27-0.6311-0.98 0.6904-0.109 1.1173 0.057 1.1906 0.564zm-37.681-1.563c0.3857-0.142 0.7832-0.275 1.1512-0.431 1.043-0.4249 1.1646-0.397 2.1226 0.438-0.0275 0.051-0.0773 0.076-0.1147 0.122 0.0535 0.021 0.1142 0.027 0.1629 0.055-0.1431 0.067-0.2641 0.131-0.3953 0.191-0.3337 0.303-0.7597 0.499-1.2752 0.611-0.1318 0.07-0.267 0.141-0.4059 0.206-0.0459-0.043-0.0684-0.063-0.1084-0.101-0.3748 0.058-0.7639 0.11-1.1586 0.153-0.9649-0.811-0.9549-0.879 0.0214-1.244zm5.855-0.8005c0.1097 0.2431-0.2427 0.5105-0.4136 0.8535-1.5614-0.7348-1.5737-0.7336-1.1556-1.403 0.6486 0.0121 1.3623 0.073 1.5692 0.5495zm22.534 2.5235c-0.3594 0.244-0.6857 0.476-1.0122 0.708-0.9636-0.114-0.9595-0.561-0.961-1.083 0.6522 0.112 1.2713-0.332 1.9732 0.375zm3.9037-6.5599c-0.1565-0.1268-0.2596-0.3709-0.1781-0.4873 0.0651-0.1194 0.4109-0.244 0.587-0.2013 0.3329 0.084 0.6689 0.2223 1.0105 0.3557-0.2364-0.5773-0.1161-0.6353 1.0111-0.8729 0.2105 0.2832 0.3722 0.5091 0.5408 0.7472-0.3627 0.2592-0.6651 0.5203-1.2329 0.4044-0.7371 0.5311-1.131 0.5441-1.7384 0.0542zm5.6156-0.8637c-0.1238-0.1299 0.0309-0.5221 0.2303-0.5827 0.39-0.1124 0.5658-0.693 1.2448-0.2786 0.2161 0.1312 0.4735 0.4531 0.4008 0.549-0.1742 0.2429-0.5448 0.3975-0.898 0.6426-0.3814-0.1206-0.8328-0.1675-0.9779-0.3303zm-5.7055 2.5496c0.1352-0.2262 0.276-0.4824 0.4454-0.761 0.7788 0.2405 0.888 0.5345 0.6665 0.8274-0.2109 0.2776-0.5862 0.2685-1.1119-0.0664zm-15.449 1.1146c0.4868 0.1825 0.9261 0.3578 1.5338 0.5971-0.5199 0.2336-0.9144 0.4238-1.3473 0.628-0.3364-0.3431-0.571-0.5834-0.8201-0.8361 0.2314-0.1409 0.423-0.2594 0.6336-0.389zm31.945-3.9714c0.6288-0.1075 1.1501-0.2024 1.8156-0.3084 0.1232 0.3304 0.2286 0.606 0.3337 0.8968-0.9905 0.2187-1.5812 0.0562-2.1493-0.5884zm-29.633 4.0973c-0.4428-0.3232-0.1304-0.7237 0.8364-1.0271-0.1787-0.0891-0.3266-0.2126-0.4093-0.3999-0.2378-0.539-0.018-0.7508 1.0836-1.0076 0.3648 0.2327 0.7309 0.4621 1.1253 0.7148-0.1848 0.1659-0.3609 0.3296-0.559 0.4863-0.1131 0.089-0.2539 0.1687-0.4086 0.2215-0.0644 0.0281-0.1333 0.0287-0.1941 0.0444 0.107 0.0313 0.2281 0.0647 0.3048 0.1239 0.3561 0.2679-0.1287 0.954-0.7854 1.0613-0.2653 0.0438-0.79-0.0709-0.9937-0.2176zm-4.0386 0.5594c-0.2473 0.1871-0.6283 0.3167-0.9855 0.0407-0.2368-0.1835-0.3788-0.5149-0.2908-0.6987 0.0903-0.2008 0.4572-0.4094 0.7873-0.4204 0.277-0.0147 0.6492 0.2376 1.1157 0.4344-0.2935 0.3072-0.431 0.4923-0.6267 0.644zm22.387-2.0637c0.7929-0.6159 0.8757-0.6267 1.4323-0.1265 0.446-0.1873 0.8827-0.3709 1.618 0.0448-0.0906 0.7225-0.6624 0.9617-1.6139 0.9633-0.1683-0.206-0.3445-0.4198-0.5316-0.6557-0.2663 0.0168-0.5658-0.0599-0.9048-0.2259zm-27.148-0.0595c0.5111-0.1044 1.0233-0.0107 1.4071 0.303 0.2885 0.242-0.1304 0.8928-0.8285 1.0524-0.2431-0.0984-0.7114-0.2112-0.9633-0.4107-0.4287-0.331-0.1855-0.8267 0.3847-0.9447zm26.942-4.447c-0.2949 0.1641-0.6662 0.2553-0.938-0.0235-0.1768-0.1792-0.2644-0.493-0.153-0.6619 0.1539-0.22 0.5396-0.3561 0.8321-0.5257 0.7599 0.7708 0.7831 0.9124 0.2589 1.2111zm1.8043-0.0669c-0.3235 0.3691-0.7635 0.1539-1.3718-0.02 0.0568-0.2967 0.1186-0.6069 0.1783-0.9133 0.3453 0.0577 0.7364 0.0618 1.0145 0.1908 0.4466 0.1971 0.4148 0.4892 0.179 0.7425zm1.5992 0.0872c-0.2731 0.4888-0.8691 0.1762-1.4787 0.0644 0.1089-0.4313 0.2504-0.7825 0.9235-0.6155 0.2504 0.0615 0.6156 0.4358 0.5552 0.5511zm3.4426-2.6703c0.592-0.9836 0.8161-1.0256 1.8278-0.4341-0.6087 0.8013-0.6435 0.8186-1.8278 0.4341zm6.794-1.8573c0.5568 0.0189 0.9447 0.5529 0.9342 1.3083-0.5181 0.0524-1.0495 0.1114-1.5803 0.1644 0.0699 0.1177 0.1415 0.2235 0.2133 0.3486 0.4988-0.0086 1.0633-0.0152 1.6068-0.0224 0.4583 0.3684 0.3816 0.7283 0.0744 0.9603-0.4819 0.3832-1.1445 0.1279-1.845 0.0204-0.0703-0.2666-0.1206-0.4418-0.1745-0.6376-0.6507 0.0188-1.2732 0.04-1.9614 0.0688-0.0156-0.6078 0.3788-0.8711 0.9404-1.0588 0.0151-0.8924 0.5019-1.2021 1.7921-1.152zm-5.5212 2.6775c0.1738-0.0368 0.3607-0.0765 0.5353-0.108 0.0076-0.0163 0.0125-0.0352 0.0192-0.0517 0.089-0.1083 0.4975-0.1793 0.6902-0.122 0.0833 0.0224 0.1763 0.1071 0.2385 0.1982 0.0828 0.0409 0.1731 0.0833 0.2493 0.1321 0.7635 0.4637 0.7402 0.7292-0.0022 1.0614-0.567 0.2565-1.1698 0.3402-1.9008 0.1563-0.0906-0.0922-0.1984-0.1945-0.2905-0.3015-0.5412-0.5938-0.4677-0.7746 0.461-0.9648zm36.228 7.908c0.0891-0.0376 0.1788-0.0735 0.2722-0.1134 0.289 0.215 0.5824 0.4317 0.9309 0.6895 0.1289-0.0572 0.2593-0.1156 0.3873-0.1692 0.0711 0.0455 0.1414 0.0882 0.2127 0.1391-0.2092 0.3247-0.4134 0.6484-0.6986 1.1131-0.3088-0.232-0.5125-0.392-0.7602-0.577-0.0642 0.0332-0.1153 0.0563-0.1881 0.0887-0.0657-0.482-0.1073-0.8257-0.1562-1.1708zm-32.168-5.7987c-0.337 0.3241-0.7234 0.2163-1.2535-0.0823 0.3075-0.2905 0.6261-0.5721 0.9684-0.8805 0.7488 0.3841 0.5786 0.6781 0.2851 0.9628zm-28.594-0.7338c1.2451 0.5108 1.3339 0.8763 0.3235 1.3039-0.4773 0.2012-0.9822 0.3246-1.6906 0.0785-0.0487-0.6932 0.1283-1.2657 1.3671-1.3824zm3.5243-0.4686c1.9958-0.3801 1.9885-0.4489 2.788 0.446-0.607 0.388-1.3542 0.5266-2.3209 0.4525-0.161-0.3064-0.3038-0.5771-0.4671-0.8985zm22.091 0.7634c0.0797 0.2263 0.1546 0.4547 0.2503 0.7251-1.1127-0.167-0.6173-0.4546-0.2503-0.7251zm-33.602 3.7977c0.3982 0.5914-0.1368 0.7054-0.6031 0.8464-0.1637 0.0422-0.357 0.0514-0.5543 0.0854-0.2394-0.2334-0.436-0.4294-0.8404-0.8246 0.8389-0.045 1.4259-0.0754 1.9978-0.1072zm-18.236 12.012c-0.6965 0.367-0.9869 1.021-2.4348 0.521-0.078-0.711-0.0793-0.715 1.0675-1.513 0.4945 0.361 0.9005 0.651 1.3673 0.992zm-14.707 7.774c0.0576 0.056 0.0159 0.132 0.0089 0.256-0.9067 0.064-1.8013 0.305-3.0509-0.252-0.0096-0.277 0.0011-0.613-0.0013-0.979 0.8618 0.106 1.5284 0.186 2.2594 0.274 0.2445 0.218 0.5293 0.462 0.7839 0.701zm5.8745-8.24c0.0393-0.012 0.056-0.026 0.0952-0.038 0.4153 0.215 0.8223 0.428 1.2272 0.641-0.1642 0.73-0.9149 0.96-2.2477 0.934-0.1218-0.287-0.1337-0.532-0.0781-0.746-0.6849-0.051-1.4297-0.184-2.0792-0.748 0.9084-0.127 1.5878-0.307 2.3171-0.298 0.2305 4e-3 0.4975 0.122 0.7655 0.255zm7.7017-4.677c0.3697 0.096 0.7289 0.303 1.1038 0.341-0.1922 1.006-0.1776 1.003-1.6461 1.094-0.1084-0.076-0.1065-0.142-0.1868-0.216-0.0183 7e-3 -0.0364 0.015-0.0547 0.023-1.0042-1.034-0.8121-1.368 0.6784-1.448 0.0477 0.089 0.0696 0.134 0.1054 0.206zm-5.1 7.97c-0.5322-0.573-0.5218-0.972-0.0225-1.353 0.343 0.222 0.6674 0.436 1.1446 0.753-0.3941 0.211-0.6977 0.381-1.1221 0.6zm-1.3315-8.321c0.1286-0.121 0.2177-0.274 0.4075-0.349 0.604-0.245 1.2678-0.165 2.0736 0.191-0.574 0.165-1.0663 0.355-1.6271 0.453-0.1836 0.026-0.5589-0.189-0.854-0.295zm4.4059-2.557c0.3764-0.163 0.7564-0.3225 1.2044-0.5109 0.3778 0.193 0.7217 0.3769 1.2065 0.6299-1.3805 0.557-1.4261 0.56-2.4109-0.119zm-6.5428 4.059c-0.4742 0.497-1.2608 0.656-2.368 0.687-0.1925-0.791 0.776-1.044 2.368-0.687zm22.456-6.3607c0.1892-0.0154 0.3602-0.0056 0.405 0.0297 0.1143 0.0909 0.1901 0.2017 0.2772 0.3127 0.0665 0.0373 0.1069 0.0503 0.1772 0.0905-0.0186 0.0186-0.038 0.0309-0.0562 0.0438 0.1263 0.1818 0.2498 0.3908 0.421 0.6258-0.6667 0.0502-1.049 0.0805-1.5001 0.1219-0.0382-0.0531-0.0847-0.0959-0.1366-0.1497-0.3783 0.0814-0.8102 0.0981-1.3896-0.0494-0.1385-0.2787-0.275-0.5627-0.414-0.8525 1.1319-0.3905 1.494-0.4779 2.2161-0.1728zm-10.831 2.6477c-0.2373 0.53-0.8948 0.82-1.8321 1.189-0.2582-0.527-0.4675-0.979-8e-3 -1.256 0.4049-0.233 1.0892-0.428 1.8401 0.067zm30.139-2.6486c0.2363 0.8491 0.2461 0.845-1.2093 0.7133-0.0547-0.8111-0.0448-0.8139 1.2093-0.7133zm-3.0206 1.1483c0.0219 0.2551 0.0437 0.4873 0.0743 0.8069-0.3125-0.0923-0.6982-0.1429-0.7467-0.2313-0.1977-0.3905 0.1275-0.5442 0.6724-0.5756zm-35.784 7.9203c-0.7373-0.223-0.8506-0.657-0.4444-1.128 0.5323-0.02 1.0348-0.033 1.6027-0.044 0.5002 0.354 0.9627 0.729 0.3117 1.024-0.3515 0.155-1.0754 0.264-1.47 0.148zm21.474-11.331c-0.4249 0.4138-0.6065 1.0179-1.9347 0.739-0.1005-0.284-0.2012-0.5626-0.3246-0.9015 0.9504-0.5117 0.9587-0.5113 2.2593 0.1625zm-6.9714 2.1782c0.2102 0.3658-0.2322 0.514-0.6795 0.576-0.2414 0.0405-0.5957-0.0728-0.8973-0.1189 0.0391-0.2267-0.0028-0.4827 0.1546-0.6722 0.1204-0.1422 0.4781-0.1994 0.8164-0.32 0.2374 0.2034 0.5129 0.36 0.6058 0.5351zm-7.923 8.822c-0.9766 0.353-1.8185 0.225-2.7771-0.379 0.2075-0.316 0.4504-0.667 0.7088-1.028 1.2304 0.273 1.968 0.669 2.0683 1.407zm19.84-12.48c0.1958-0.2269 0.2548-0.5076 0.4057-0.8232 0.4555 0.1712 0.8197 0.3115 1.25 0.4718-0.0369 0.3024-0.0352 0.4937-0.0946 0.6716-0.1141 0.4146-0.756 0.6786-1.2416 0.5046-0.6298-0.2315-0.5924-0.5088-0.3195-0.8248zm15.71-1.3418c0.9372 0.0817 1.5007 0.2352 1.6797 0.4271 0.061-0.0964 0.1446-0.1873 0.264-0.271 0.1668-0.1222 0.6193-0.1821 0.8327-0.1024 0.2113 0.0754 0.4084 0.3812 0.3933 0.5535-0.0355 0.4118-0.4049 0.6412-1.0715 0.6107-0.2858-0.1584-0.4158-0.3166-0.4555-0.4703-0.1856 0.2367-0.5252 0.4649-0.8903 0.5148-0.5764 0.0748-0.8537-0.3575-0.7524-1.2624zm-12.895 3.7088c-0.4946-0.0989-1.0532-0.3732-1.032-0.8074 1.0285-0.3361 1.2243-0.3426 1.9266 0.0775 0.1866-0.5385 0.5139-0.714 1.0479-0.5428 0.5003 0.1682 0.8657 0.41 0.6918 0.7936-0.1825 0.4466-0.5301 0.4869-1.5963 0.1602-0.2134 0.2813-0.5763 0.4098-1.038 0.3189zm20.011 1.1414c0.0287 0.0766 0.0554 0.1487 0.0873 0.2316-0.4526 0.174-0.9094 0.3541-1.358 0.5334-0.0928-0.0587-0.1786-0.1177-0.2797-0.187 0.065-0.2517 0.1359-0.5043 0.2258-0.8458 0.4597 0.0895 0.8939 0.1812 1.3246 0.2678zm-6.4581 0.7458c-0.0504 0.0081-0.0932 0.0097-0.1394 0.0208-0.2062-0.7053-0.1212-1.0942 0.9058-1.0806 0.0177 0.0606 0.0591 0.1347 0.0964 0.2047 0.0302-0.0137 0.0491-0.0279 0.0837-0.0357 0.2368-0.0521 0.6509-0.0395 0.8501 0.0686 0.2077 0.1133 0.3402 0.398 0.3437 0.5888 0.0083 0.4605-0.5296 0.7876-1.1057 0.7436-0.6294-0.0502-0.8313-0.1168-1.0346-0.5102zm-35.692 14.18c0.7624 0.351 0.3339 0.599 0.2184 0.894 0.0236 5e-3 0.04 0.01 0.0659 0.014-0.3671 0.661-0.8173 0.873-1.4944 0.674-0.3533-0.106-0.8174-0.416-0.8386-0.589-0.0079-0.164 0.4266-0.367 0.7541-0.373 0.0228 0 0.0567 0.016 0.0802 8e-3 0.1089-0.276 0.1951-0.499 0.369-0.65 0.1042-0.083 0.6371-0.067 0.8454 0.022zm22.741-11.688c0.1278-0.299 0.2399-0.55 0.4368-0.982 0.8842 0.9 0.8304 0.975-0.4368 0.982zm-22.053 10.124c-0.2761 0.041-0.7189-0.023-1.007-0.136-0.1577-0.063-0.2232-0.345-0.173-0.483 0.0518-0.168 0.2687-0.288 0.5961-0.587 0.4626 0.366 0.8307 0.577 0.9557 0.798 0.081 0.13-0.1555 0.364-0.3718 0.408zm-0.8896 7.698c-0.2843 0.172-0.4733 0.468-0.8542 0.48-0.4446 0.021-1.0431-0.196-1.5927-0.315 0.0687-0.245 0.0263-0.671 0.2504-0.68 0.6636-0.031 1.4788-0.123 2.1965 0.515zm97.388-21.097c-0.0351-0.6419-0.0201-0.6767 0.3334-0.788 0.4537-0.1468 0.8318-0.0522 1.0503 0.1794 0.1162 0.13 0.2062 0.3766 0.0947 0.4754-0.3893 0.3355-0.9059 0.2918-1.4784 0.1332zm4.2213 0.6753c-0.7284-0.1245-1.4931-0.114-1.6443-0.7246 0.7536-0.414 1.4094-0.3399 2.1675 0.0376-0.181 0.2354-0.3368 0.4413-0.5232 0.687zm-16.014-1.9797c0.5062-0.1293 0.5871-0.6198 1.1096-0.4103 0.6242 0.2527 0.1153 0.5877-0.0874 1.0217-0.364-0.2169-0.6247-0.3762-1.0222-0.6114zm28.214 4.0014c-0.2225-0.073-0.3355-0.173-0.3331-0.315 0.0051-0.1582 0.2345-0.4049 0.4512-0.4519 0.2138-0.0404 0.6484 0.0754 0.7847 0.2 0.0123 0.0089 0.0085 0.0258 0.0219 0.0322 0.4125-0.02 0.741-0.0374 1.0044-0.0061 0.1511 0.021 0.3295 0.2198 0.3031 0.3138 0.0264-0.019 0.0282-0.04 0.0707-0.061 0.2166-0.1061 0.7037-0.1113 1.0288-0.0691 0.2513 0.0281 0.4306 0.1971 0.7135 0.3341-0.6355 0.479-1.0836 0.562-1.5653 0.294-0.1876-0.107-0.3682-0.245-0.3408-0.382-0.1358 0.14-0.346 0.175-0.5837 0.175 0.0684 0.084 0.139 0.166 0.2357 0.265-0.9043-0.01-1.5698 0.368-2.2003 8e-3 0.1194-0.132 0.2558-0.244 0.4092-0.337zm-20.714-2.9292c-0.5111-0.0795-0.7881-0.2753-0.6806-0.5172 0.1048-0.2409 0.7393-0.45 1.2098-0.3371 0.169 0.0412 0.33 0.2799 0.2901 0.413-0.0747 0.266-0.2645 0.5283-0.8193 0.4413zm-24.047-4.3811c0.74866-0.1232 1.2671-0.1988 2.0125-0.3026-0.01502 0.1995-0.03243 0.3644-0.04005 0.5255 0.43034-0.0264 0.81753 6e-4 0.83617 0.4069 0.01203 0.0947-0.33901 0.2706-0.52857 0.2692-0.27823 0.0054-0.44771-0.0513-0.53411-0.1591-0.7435 0.1208-1.1403-0.2187-1.746-0.7399zm-4.3118-1.6131c0.66733 0.2155 0.96219 0.4607 0.69007 0.8347-0.33817 0.4633-0.92194 0.5137-1.9346 0.3227 0.49732-0.4774 0.87698-0.8272 1.2446-1.1574zm-2.1696 0.2524c0.51497 0.9108 0.33014 1.0569-1.2215 1.1035-0.34273-0.714-0.35018-0.7186 1.2215-1.1035zm20.202 4.0287c0.0236-0.14 0.2933-0.3551 0.4747-0.3694 0.5126-0.0398 1.0227 0.2617 1.0093 0.5212-0.0102 0.2521-0.3699 0.4111-0.8962 0.415-0.5865 0.0053-0.6433-0.2864-0.5878-0.5668zm-23.718-3.8441c0.10879-0.2848 0.21482-0.5653 0.33464-0.8906 0.46167-0.0574 0.93091-0.1155 1.3952-0.1753 1.0736-0.1353 1.0778-0.1316 1.5465 0.7118-0.60173 0.1274-1.1199 0.2452-1.6355 0.3596-0.2223 0.0478-0.44396 0.1385-0.66562 0.1996 0.35848 0.6074 0.17157 0.7649-1.0151 0.8581 0.0857-0.3462 0.02444-0.7232 0.33639-0.9121-0.09475-0.0366-0.18608-0.064-0.29653-0.1511zm4.3834 2.5699c1.0576-0.4128 1.0647-0.4113 1.7395-0.2899 0.04206 0.31 0.24742 0.6553-0.32923 0.8121-0.65551 0.1761-0.96761-0.1982-1.4102-0.5222zm11.518-2.5273c0.11747-0.0539 0.22924-0.0812 0.34236-0.1046-0.03748-0.2888 0.4163-0.7366 0.79178-0.7256 0.41151 0.0123 0.73106 0.1646 0.8009 0.4626 0.04917 0.2455 0.07309 0.4928 0.10623 0.7433-0.01793 0.0052-0.03263 0.0044-0.05231 0.0047 0.03766 0.1199 0.04612 0.2565 0.01757 0.3622-0.01906 0.0888-0.53842 0.1873-0.80242 0.1557-0.68427-0.0719-1.0952-0.3741-1.2041-0.8983zm52.287 7.5193c-0.1273 0.0609-0.2706 0.1167-0.3886 0.1618-0.248-5e-4 -0.4404-0.0542-0.6451-0.0938-0.1203 0.0151-0.271 0.0148-0.5294-0.0047 0.0327-0.0301 0.0597-0.0534 0.088-0.0793-0.2626-0.0892-0.4934-0.1981-0.7025-0.3356-0.5939-0.4093-0.5158-0.6141 0.399-0.808 0.1998-0.0374 0.4289-0.0637 0.6368-0.0959 0.3765 0.156 0.7136 0.2894 1.0513 0.4317 0.8192 0.3463 0.8298 0.4954 0.0905 0.8238zm-55.3-11.494c-1.0042 0.6224-2.1026 0.896-3.4371 0.7393-0.070894 0.6175-0.54656 0.9737-1.6167 1.056-0.33377-0.2303-0.64577-0.4427-0.93945-0.6464 0.4849-0.7306 0.79591-0.8766 1.7584-0.6522-0.02779-0.1624-0.05353-0.3234-0.09165-0.5334 0.22878-0.0269 0.35718-0.0435 0.48655-0.0598 0.70172-0.0927 1.426 0.057 2.1412-0.2015 0.43597-0.1653 1.2529-0.2564 1.6987 0.298zm-15.937 3.1495c0.5195-0.1103 0.7424 0.2165 0.8411 0.4676 9e-3 0.0303-0.0527 0.0956-0.1 0.1494 0.2208-0.1099 0.5479-0.1193 1.1363-0.0921 0.2339 0.4035 0.26 0.7391-0.3613 0.9796-0.4544 0.1687-0.8429 0.428-1.3259-0.028 0.1402-0.3873 0.2581-0.5981 0.4078-0.7427-0.0778 0.0532-0.1618 0.1058-0.225 0.1056-0.2739 1e-3 -0.5735-0.1779-1.0342-0.3347 0.3068-0.245 0.4344-0.4602 0.6612-0.5047zm26.734-2.6909c-0.7473 0.4296-1.2983 0.5819-1.877 0.5144 0.2956 0.5779 0.0091 0.7244-1.3251 0.7645-0.0898-0.6028-0.0684-0.7227 0.6189-0.9257-0.1276-0.0474-0.2452-0.0802-0.3869-0.1423-0.3221-0.1518-0.362-0.4921-0.0031-0.5672 0.6167-0.1273 1.2887-0.2542 1.9358-0.2285 0.3273 0.0159 0.6457 0.3503 1.0374 0.5848zm46.657 9.2539c-0.4217 0.0046-0.7002 4e-4 -0.9047-0.0275-0.092 0.0312-0.151 0.0524-0.2318 0.0742 0.025 0.1669-0.1111 0.3467-0.0066 0.5043-0.3762 0.0208-0.6479 0.0446-0.8665 0.0486-0.0129 0.0536-0.0128 0.1034-0.0211 0.1592-0.9006 0.0179-0.9749-0.2372-1.0277-0.4845-0.0827-0.0559-0.1536-0.1062-0.2639-0.1876 0.0559-0.0571 0.1529-0.0662 0.2143-0.115-0.0168-0.0057-0.0332-0.0108-0.0499-0.0161 0.2461-0.1397 0.4563-0.2439 0.6519-0.3184-0.0132-0.0048-0.0372-0.0066-0.0479-0.0154-0.2989-0.1825-0.0144-0.2961 0.2825-0.3848 0.1489-0.0513 0.2537-0.1246 0.4344-0.2177 0.2334 0.0537 0.4697 0.1076 0.7096 0.1664 0.7468-0.0875 0.9516 0.0844 1.1274 0.8143zm-67.827-1.2733c0.47174-0.065 0.96337 0.4237 1.1233 1.0258-0.74215 0.3055-1.1846-0.2724-2.0224-0.4438 0.38665-0.2645 0.60018-0.541 0.89912-0.582zm5.2758-0.9921c-0.22244-0.0719-0.46442-0.1977-0.83741-0.4458 0.87712-0.8784 1.1717-0.8465 1.9185 0.1478-0.32073 0.2165-0.53268 0.3189-0.75313 0.3399 0.02768 0.2894 0.05612 0.5309 0.09807 0.8955-0.53518-0.2064-0.9032-0.3505-1.4721-0.5705 0.3801-0.1383 0.6919-0.2501 1.0461-0.3669zm25.57 5.1336c0.4027-0.266 0.8222-0.402 1.2687-0.37 0.21-0.099 0.4159-0.1853 0.6547-0.283 0.1954 0.236 0.3254 0.381 0.4271 0.532 0.0385 0.062 0.0214 0.149 0.0378 0.246-0.0902 0.043-0.1776 0.06-0.2645 0.085-0.0585 0.118-0.1745 0.233-0.4023 0.332-0.8815 0.387-1.3372 0.253-1.7215-0.542zm-22.808-3.6348c-0.11121-0.2855 0.20631-0.4563 0.53582-0.4243 0.31071 0.0248 0.67227 0.1385 0.87385 0.3034 0.13592 0.1072 0.03802 0.3764 0.05362 0.6756-0.39775-0.0244-0.70173 0.0171-0.91816-0.0747-0.22979-0.0952-0.46625-0.2889-0.54513-0.48zm-11.085 1.6331c0.1884-0.4189 0.54548-0.5484 0.99575-0.3097 0.14951 0.0802 0.11657 0.3771 0.20176 0.7156-0.52915-0.1835-0.85249-0.2929-1.1975-0.4059zm23.442 0.0199c0.4886-0.1438 0.9715-0.2874 1.4964-0.4401 0.2225 0.43 0.2183 0.7448-0.2958 0.9466-0.4428 0.1743-0.879-0.0143-1.2006-0.5065zm47.693 2.0818c-0.264 0.251-0.7867 0.309-1.2786 0.151-0.7785-0.256-1.1833-0.726-0.8712-1.0247 0.2451-0.2288 0.855-0.2589 1.4847-0.0681 0.5641 0.1674 0.9299 0.6928 0.6651 0.9418zm-53.166-2.0759c0.05206-0.247 0.20424-0.4941 0.40105-0.6939 0.10886-0.1067 0.44433-0.2036 0.58574-0.1513 0.20507 0.0631 0.32847 0.2741 0.51263 0.4496-0.22456 0.2446-0.3846 0.4729-0.614 0.6478-0.13063 0.1019-0.42841 0.1812-0.57127 0.1369-0.15729-0.0521-0.34024-0.2678-0.31415-0.3891zm15.545-4.952c0.0325-0.1565 0.1264-0.3485 0.3012-0.5753 0.9394 0.2384 1.0274 0.3725 0.7727 0.7985-0.1542 0.2559-0.434 0.2677-0.7089 0.2257-0.216 0.027-0.4478 0.0424-0.6594 0.0664-0.0485-0.0442-0.0902-0.0945-0.1366-0.1434 0.1442-0.1193 0.2819-0.2533 0.431-0.3719zm14.616 2.744c0.1016-0.2511 0.2135-0.5071 0.3668-0.8772 0.6819 0.2217 1.1603 0.3799 1.8491 0.6095-0.8905 0.3621-1.4403 0.6166-2.2159 0.2677zm-17.156-2.2836c0.1811 0.2387 0.3678 0.4801 0.6044 0.8068-0.5297 0.0503-0.8665 0.0911-1.2237 0.1279-0.1574-0.4375-0.4455-0.8339 0.6193-0.9347zm7.0214 0.3549c-0.774-0.0832-0.6096-0.4437-0.4873-0.7959 0.6192-0.0224 1.1083 0.0528 1.0442 0.4836-0.0158 0.1126-0.402 0.3262-0.5569 0.3123zm4.37 0.7362c0.0361-0.1886 0.2509-0.4593 0.5072-0.5238 0.6079-0.1585 1.2589-0.1414 1.7579 0.2167-0.3335 0.4365-0.8652 0.6337-1.557 0.5828-0.1238-0.0115-0.2861-0.0533-0.4256-0.1023 0.1627 0.1668 0.3318 0.3346 0.5559 0.5685-0.5929 0.0901-0.9344 0.1419-1.3001 0.2052-0.2034-0.4068-0.1814-0.6893 0.5057-0.9002-0.0194-0.0156-0.0462-0.0337-0.044-0.0469zm-9.7425 1.1947c-0.4983 0.1682-0.8262 0.2774-1.2819 0.4358 0.0037-0.4411-0.3365-0.8425 0.3882-0.9841 0.6074-0.1213 0.4572 0.3565 0.8937 0.5483zm48.746 10.6c-0.4496-0.19-1.0003-0.317-1.0672-0.466-0.0711-0.16 0.3245-0.342 0.4923-0.5 1.0111 0.244 0.978 0.536 0.5749 0.966zm-19.062-6.824c0.2156-0.2058 0.4174-0.3898 0.6674-0.6213 0.6102 0.2137 1.1028 0.387 1.6798 0.5983-0.7978 0.374-1.4446 0.381-2.3472 0.023zm-43.134-9.6117c-0.44116 0.1084-1.0133 0.0587-1.5018-0.0065-0.08077-0.0103-0.15763-0.0689-0.23257-0.1305-0.20551 0.0605-0.4483 0.0707-0.72982 0.0058-0.19849-0.0443-0.38941-0.1122-0.61126-0.1714 0.01274-0.1409-0.02239-0.2709 0.05049-0.3586 0.30697-0.3653 0.74186-0.4201 1.4264-0.1583 0.0036 0.0044 0.0065 0.0048 0.0065 0.0048 0.00859 1e-4 0.01175-2e-4 0.01516-0.0044 0.47859-0.1158 1.0026-0.1627 1.6297-0.2545 0.02353 0.1578 0.05141 0.2192 0.04171 0.27-0.04798 0.2761 0.56438 0.643-0.09454 0.8036zm15.422-0.1701c0.5349-0.1715 1.1331-0.2729 1.7452-0.3981-0.0032-0.0035-5e-3 -0.0094-0.0032-0.0166 0.0286-0.1313 0.3706-0.306 0.6072-0.3302 0.7186-0.0571 1.3714 0.068 1.7835 0.5591-0.2078 0.0734-0.4616 0.118-0.4664 0.1762-0.0433 0.4497-0.5445 0.3807-0.9691 0.2894-0.2193-0.0458-0.4335-0.1146-0.6043-0.1988-0.1123 0.1935-0.4375 0.2951-0.6737 0.3665 0.0426 0.3684 0.0829 0.6893 0.1097 0.97-0.751 0.0955-1.2395 0.164-1.8686 0.2551 0.011-0.224 0.0231-0.4281 0.0279-0.6413-0.1797 0.4003-0.237 0.6221-0.3803 0.8265-0.1712 0.2407-0.4841 0.4072-0.9252 0.3191-0.1668-0.0353-0.4218-0.1875-0.3987-0.2574 0.0721-0.2534 0.1609-0.5354 0.4111-0.7148 0.1703-0.1264 0.6185-0.1027 1.2954-0.1822 0.0026-0.1209 0.0061-0.2559 0.0129-0.3661 0.2307-0.056 0.3993-0.0974 0.5573-0.133-0.0672-0.0081-0.1471 3e-4 -0.208-0.0116-0.3926-0.0665-0.4508-0.3819-0.0527-0.5118zm-2.4432-0.9068c0.2442-0.0512 0.5067-0.1046 0.7574-0.1542 0.0669 0.3101 0.1175 0.5675 0.171 0.8284-1.1696 0.4272-1.8506 0.3562-2.5355-0.3396 0.0166-0.0032 0.0217-3e-3 0.0344-0.0065-0.2697-0.0835-0.5498-0.2094-0.8588-0.4205 0.1757-0.2434 0.344-0.4785 0.5535-0.7607 0.6295 0.2817 1.2296 0.5513 1.878 0.8531zm-20.293-0.3213c0.64161-0.1424 1.2048-0.261 1.7831-0.3805 0.06724 0.1726 0.11471 0.315 0.13881 0.4327 0.5832-0.0234 0.76189 0.214 1.0915 0.9635-1.1598 0.1872-1.4758 0.1698-1.729-0.3703-0.15831-2e-4 -0.3156 0.0067-0.47593-0.0111-0.12152-0.0143-0.28739-0.0433-0.356-0.1021-0.1537-0.1366-0.25582-0.2953-0.4526-0.5322zm-3.5519 0.9488c-0.93734 0.4991-1.3969 0.3943-1.8682-0.4527 0.79005-0.1784 1.4632-0.1295 1.8682 0.4527zm21.401 4.329c0.9719 0.2715 0.5175 0.598 0.1613 0.997-0.3234-0.0906-0.6286-0.177-1.1077-0.3164 0.3748-0.2744 0.6669-0.4821 0.9464-0.6806zm-9.1659-3.8215c-0.2421-0.2125-0.3465-0.4149 0.0144-0.5911 0.4007-0.1972 0.7834-0.0659 1.0139 0.1518 0.1804 0.1763 0.2081 0.4124 0.2986 0.6192-0.666 0.2445-0.8905 0.2046-1.3269-0.1799zm16.248 4.9761c-0.0823-0.0813-0.1683-0.172-0.2907-0.278 0.4825-0.0845 0.7907-0.1848 1.0568-0.154 0.118 0.0102 0.277 0.3139 0.1965 0.4179-0.0241 0.0236-0.0858 0.0429-0.1256 0.068 0.0912 0.1055 0.1538 0.2398 0.2289 0.3786-0.5955 0.1856-1.0877 0.3447-1.3643-0.0436-0.0494-0.0676 0.1174-0.2682 0.2984-0.3889zm16.469-0.7957c0.633-0.4029 1.3064-0.315 1.9881-0.0098-0.8013 0.5973-1.2895 0.5969-1.9881 0.0098zm-1.5126 3.7414c0.2248 0.1192 0.4408 0.2364 0.692 0.3747-0.2109 0.0277-0.3759 0.0481-0.5528 0.0722-1.0616 0.3114-1.297 0.2802-1.7893-0.2355 0.9052-0.5515 1.2858-0.6258 1.6501-0.2114zm-33.455-4.9406c0.6517 0.3627 0.51661 0.6714 0.1174 1.0787-0.316-0.1289-0.60728-0.2388-1.1244-0.4361 0.41974-0.274 0.70391-0.4511 1.007-0.6426zm5.0746 1.2449c0.1853 0.092 0.333 0.4746 0.2239 0.5563-0.4431 0.3483-0.8334 0.1111-1.315-0.1691 0.3253-0.3105 0.5694-0.6418 1.0911-0.3872zm-7.3138 0.2986c0.90489-0.2758 1.565-0.2374 2.0871 0.3173-0.43494 0.626-1.1597 0.491-1.9162 0.5096-0.06517-0.2992-0.11101-0.5431-0.17088-0.8269zm30.774 3.7719c0.2759-0.109 0.6775-0.1459 1.0004-0.1238 0.3384 0.0285 0.5842 0.2175 0.3556 0.4397-0.1571 0.1434-0.477 0.2738-0.7449 0.3165-0.2553 0.0416-0.541-0.0334-0.9506-0.0712 0.139-0.2491 0.1581-0.4888 0.3395-0.5612zm-31.47-8.1054c0.01976 0.4112 0.35456 0.7639-0.32083 0.8232-0.17344 0.0143-0.54665-0.2065-0.59068-0.3527-0.13713-0.4418 0.41516-0.3708 0.91151-0.4705zm3.842 5.634c-0.05527-0.1178 0.14077-0.3648 0.31293-0.4777 0.32129-0.2139 0.71207-0.2486 1.0756-0.0253 0.2787 0.1706 0.2783 0.209-0.0573 0.8692-0.61485 0.084-1.1228 0.0471-1.3313-0.3662zm3.3075-3.2457c0.1423-0.4437 0.6362-0.4372 1.2097-0.3047-0.0353 0.2914-0.0635 0.5879-0.4171 0.6856 0.196 0.0579 0.4076 0.1555 0.7067 0.2736-0.3875 0.1972-0.598 0.3862-0.7968 0.3813-0.1908-0.0038-0.5001-0.1885-0.5338-0.3269-0.0155-0.075 0.091-0.2085 0.2034-0.2985-0.1542-0.0174-0.409-0.2919-0.3721-0.4104zm3.4659-2.2354c-0.1008 0.1441-0.5384 0.2632-0.8297 0.2584-0.3548-7e-3 -0.7053-0.1445-1.1026-0.2401 0.0405-0.2579 0.068-0.4733 0.1257-0.8717 0.5916 0.1257 1.0749 0.1701 1.4418 0.3254 0.2306 0.0977 0.4529 0.4074 0.3648 0.528zm-3.0789-0.1406c0.5462 0.0868 1.0698 0.2457 0.9789 0.7254-0.7417 0.2252-0.7288 0.2239-2.2318-0.3083 0.1928-0.5203 0.7423-0.4973 1.2529-0.4171zm6.248-0.0269c0.1555 0.2209 0.1086 0.514 0.0596 0.7696-0.0157 0.0749-0.3321 0.1722-0.5068 0.1761-0.4687 0.0078-0.691-0.2075-0.7429-0.4737-0.017-0.0974-0.0097-0.1959-0.0061-0.3102-0.1241 0.2914-0.2671 0.61-0.3993 0.9226-0.5516-0.202-0.984-0.3544-1.6471-0.5891 0.1644-0.2753 0.3532-0.5905 0.566-0.953 0.3216 0.0746 0.5696 0.1119 0.7833 0.1919 0.2109 0.0704 0.4006 0.179 0.7009 0.3287 0.0054-0.131 0.0217-0.2783 0.0297-0.4775 0.606 0.2058 1.0531 0.2601 1.1627 0.4146zm-8.41 0.6834c0.2245 0.3622 0.1121 0.6293-0.4455 0.802-0.59235-0.626-0.54366-0.7339 0.4455-0.802zm8.5631 0.3696c0.3302-0.44 0.8292-0.486 1.373-0.4996 0.0696-0.1645 0.1331-0.3196 0.2068-0.494 0.7361 0.1834 1.5471 0.2059 1.7059 0.8583-0.4951 0.2829-0.9017 0.226-1.2952 0.1212-0.0138 0.1068-0.0162 0.2041-0.0262 0.3201-0.6856-0.0226-1.4115 0.2765-1.9643-0.306zm-2.5151 1.1032c-0.1491-0.0954-0.0672-0.339-0.0918-0.5179 0.2736 0.0028 0.6739-0.0588 0.79 0.0312 0.2306 0.1825 0.2974 0.4463 0.4322 0.6822-0.0702 0.0407-0.1303 0.0764-0.2008 0.1162-0.0583-0.0175-0.1161-0.0338-0.183-0.0489 0.0489 0.4471-0.1069 0.7216-0.4662 0.7341-0.3232 0.0167-0.6433-0.0295-0.6674-0.3444-0.0366-0.3553 0.0476-0.5076 0.5415-0.5928-0.0513-0.0211-0.1188-0.0355-0.1545-0.0597zm-25.293-3.6064c-1.0828 0.5659-1.4903 0.4605-1.9314-0.5603 1.0184-0.1242 1.0257-0.1214 1.9314 0.5603zm-16.399 0.2663c0.5498 0.0745 1.1456 0.2311 1.3709 0.7926-0.5384 0.3544-1.1738 0.3638-1.8044 0.0917-0.2528-0.1162-0.526-0.4701-0.4545-0.6279 0.0706-0.1535 0.6008-0.2982 0.888-0.2564zm-16.416 5.0181c0.0547-0.1081 0.1561-0.2002 0.3114-0.2733 0.2837-0.1268 0.7438-0.1012 1.113-0.142 0.2894 0.307 0.5089 0.5395 0.7095 0.7566-0.6883 0.487-1.4729 0.6007-1.9546 0.2961-0.1135-0.0725-0.1775-0.1584-0.2185-0.2608-0.0431 0.0343-0.068 0.0698-0.1333 0.0971-0.4554 0.2047-1.2813 0.1309-1.6122-0.1492-0.4378-0.3727-0.1845-0.6877 0.9651-1.105 0.4531 0.3626 0.696 0.6001 0.8196 0.7805zm13.436-3.7353c-0.2975 0.1145-0.5998 0.2358-0.9268 0.3646 0.234-0.0121 0.4683-0.0247 0.8204-0.0286 0.0555 0.2646 0.0954 0.4535 0.1465 0.7022-0.4662 0.3096-0.8934 0.6974-1.8163 0.2748-0.1064-0.2488-0.1463-0.4186-0.1281-0.5585-0.0308 0.0096-0.0563 0.0191-0.0864 0.0302-0.1326-0.5263-0.2141-0.8699-0.3085-1.2539 1.589-0.2023 1.5918-0.1965 2.2992 0.4692zm-9.6009 3.8441c-0.4996 0.1089-1.0018-0.0095-1.2552-0.3654-0.2415-0.3411 0.1238-0.5111 0.5246-0.6289 0.8834-0.2716 1.2433-0.1553 1.7615 0.6669-0.3898 0.1209-0.6932 0.2499-1.0309 0.3274zm-11.291 0.9231c1.0261 0.0471 0.992 0.628 1.3848 1.2057-0.6829 0.0578-1.2302 0.1038-1.7896 0.1496-0.3886-1.0039-0.2675-1.3852 0.4048-1.3553zm31.375-7.2103c0.1284 0.1543 0.1926 0.276 0.3076 0.3703 0.2327 0.1848 0.4499 0.4026 0.0813 0.5357-0.2004 0.074-0.5658 0.0154-0.8335-0.0482-0.5968-0.1296-0.8189-0.4247-0.7276-0.8638 0.3973 0.0031 0.7953 0.0037 1.1722 6e-3zm-16.209 3.7883c0.4723 1.1073 0.3091 1.2272-1.3414 1.004-0.3447-0.8294-0.0487-1.0489 1.3414-1.004zm12.01-3.0569c0.5092 0.2175 0.9389 0.5061 1.3666 0.7483-0.2253 0.3092-0.4962 0.4497-0.7945 0.5097 0.5264 0.1977 0.9007 0.4996 1.11 0.948-0.4329 0.128-0.7762 0.2355-1.2559 0.3898-0.0309-0.2411-0.0462-0.4026-0.0626-0.5518-0.4543-0.0735-0.9114-0.143-1.372-0.2099-0.4875-0.0747-0.6842-0.3202-0.5432-0.565 0.0666-0.1265 0.3713-0.2198 0.6179-0.236-0.3919-0.1841-0.5152-0.4433-0.3145-0.7999 0.1915-0.3332 0.6964-0.4599 1.2482-0.2332zm51.244 10.392c0.1582-0.0204 0.4441 0.1095 0.502 0.2179 0.1081 0.1981 0.1444 0.4379 0.0903 0.6579-0.0283 0.108-0.3063 0.283-0.4821 0.306-0.1636 0.024-0.4135-0.088-0.4994-0.192-0.1437-0.184-0.1958-0.41-0.3153-0.6558 0.2656-0.1327 0.4747-0.2978 0.7045-0.334zm-47.064-5.1005c-0.0507 0.2383-0.111 0.4794-0.1564 0.7197-0.0984-0.0184-0.1893-0.0344-0.288-0.0528-0.0868-0.4247-0.0879-0.4256 0.4444-0.6669zm10.676-0.857c0.3671 0.4566 0.25891 0.8758-0.16698 1.165-0.58574 0.4012-1.1158-0.229-1.8058-0.0803 0.32624-0.8495 1.2165-0.8887 1.9728-1.0847zm-14.254 2.264c-0.1317-0.9671-0.1224-0.9763 0.8982-0.996 0.3304 0.8759 0.2545 0.9648-0.8982 0.996zm11.79-0.9307c0.32489 0.0203 0.77325 0.1243 0.92821 0.3001 0.25884 0.2969-0.10487 0.4963-0.42876 0.621-0.57118 0.2165-0.95452 0.0256-1.326-0.6792 0.3251-0.1061 0.57629-0.266 0.82653-0.2419zm-9.7334 2.1654c0.5298 0.5152 0.3725 0.7851-0.2117 0.9099-0.3075 0.0675-0.7441 0.0945-0.8297-0.2382-0.1351-0.5356 0.4544-0.599 1.0414-0.6717zm-18.555-1.3233c0.1234-0.4431 0.7205-0.4707 1.3884-0.502 0.8585 0.7784 0.793 1.0804-0.276 1.26-0.2817 0.0485-0.7461-0.0377-1.0047-0.1737-0.1607-0.0816-0.1596-0.3986-0.1077-0.5843zm3.8294 0.424c-0.3413 0.0702-0.9858 0.0938-1.1609-0.0436-0.6485-0.5044 0.1176-0.7696 0.2705-1.1308 0.7214-0.0495 1.3697 0.0218 1.6251 0.5359 0.1875 0.3937-0.3367 0.5508-0.7347 0.6385zm-5.551-0.3968c0.4369-0.0537 0.8767-0.0026 1.0948 0.3637 0.1599 0.2659-0.3035 0.6927-1.022 0.8228-0.1519-0.0656-0.4847-0.1576-0.6535-0.3152-0.3039-0.2701 0.0652-0.8052 0.5807-0.8713zm18.281-1.6514c-0.3353-0.2721-0.1963-0.4878 0.2139-0.7193-0.0116-0.3659 0.4767-0.8117 1.0128-0.8553 0.6634-0.0559 1.2165 0.1487 1.3382 0.4904 0.1304 0.3516-0.2253 0.7127-0.787 0.8998 0.0942 0.0334 0.164 0.0619 0.267 0.098-0.9647 0.3778-1.6751 0.3834-2.0449 0.0864zm4.3864-0.5428c0.0986-0.0944 0.5459-0.1265 0.6605-0.0522 0.565 0.367-0.1082 0.4588-0.1906 0.6907-0.5923-0.1333-0.7587-0.3648-0.4699-0.6385zm12.487 0.2322c-0.29181 0.0359-0.60405 0.074-0.95754 0.1162-0.07846-0.3182-0.14044-0.5647-0.20213-0.8146 0.88068-0.1583 1.1872 0.1029 1.1597 0.6984zm-24.712 0.2297c-0.1612-0.0787-0.2946-0.2779-0.2807-0.4075 0.0108-0.1214 0.1935-0.2629 0.3635-0.3003 0.6726-0.1629 0.9823-0.0208 1.612 0.7096-0.5634 0.3489-1.1322 0.2785-1.6948-0.0018zm17.967 2.8412c-0.7376-0.0938-1.366-0.1762-2.0864-0.264 0.3288-0.7831 1.3362-0.174 1.802-0.7729 0.1326 0.4861 0.195 0.7112 0.2844 1.0369zm34.733 1.4077c0.4471 0.212 0.855 0.4038 1.2683 0.606-0.5371 0.4111-1.0577 0.5326-1.4141 0.3147-0.4137-0.249-0.2702-0.5521 0.1458-0.9207zm-30.618-10.348c0.67588-0.074 1.4384-0.0118 2.1081 0.1133 0.46683 0.0878 0.39693 0.7452-0.08576 0.8087-0.7977 0.0994-1.616 0.1176-2.3754 0.1686 0.02001 0.0393 0.0659 0.08 0.06255 0.1111-0.06149 0.2416-0.24506 0.5092-0.50686 0.6679-0.13584 0.0874-0.61199 0.0116-0.84206-0.0865-0.13759-0.0588-0.20623-0.3643-0.10753-0.4742 0.2071-0.2346 0.55649-0.4145 0.97601-0.6907 0.08028 0.0938 0.165 0.1746 0.2483 0.2472-0.2409-0.4861-0.08551-0.8085 0.52272-0.8654zm2.8337 1.9924c0.19868 0.8676-0.136 1.0845-1.2259 0.8743-0.31253-0.0568-0.64989-0.0187-0.97401-0.0344-0.30551-0.0171-0.60692-0.0543-1.1714-0.1003 0.24333-0.4713 0.43566-0.8192 0.69859-1.2914 0.60989 0.2525 1.1271 0.4641 1.741 0.7216 0.18891-0.0383 0.55208-0.102 0.93169-0.1698zm2.3237 1.3368c0.4172-0.0801 0.82306-0.1657 1.2771-0.2496 0.10729 0.3862 0.17505 0.6463 0.24706 0.8978-0.98059 0.167-0.97355 0.1708-1.5241-0.6482zm3.6688-0.1054c0.16283-0.091 0.31511-0.1727 0.50007-0.2748 0.2714 0.4332 0.46166 0.7473 0.63999 1.0431-0.77713 0.4105-0.85626 0.4172-1.9085-0.1043-0.02794 0.0037-0.05349 0.0188-0.084987 0.0251-0.36965 0.036-0.91153-0.0227-1.152-0.1925-0.1926-0.1379-0.048233-0.5018-0.049679-0.8912 0.79964 0.1474 1.4438 0.275 2.0552 0.3946zm6.1182-3.2084c0.27074 0.1177 0.40379 0.3661 0.58794 0.5579-0.06059 0.0538-0.12331 0.1021-0.18258 0.1564-0.32129-0.0686-0.68436-0.1024-0.95708-0.2208-0.16204-0.0684-0.19223-0.2754-0.27902-0.4169 0.28774-0.0351 0.66397-0.1544 0.83074-0.0766zm-3.1424 1.4723c0.10921-0.8489 1.4169-0.5979 2.154-1.0315 0.28035 1.0941-0.15385 1.2612-2.154 1.0315zm13.061-0.1523c0.3227 0.205 0.1178 0.4954-0.2889 0.4864-0.4325-0.0121-0.9721-0.1326-1.2804-0.3238-0.0121-0.0093-0.0333-0.0219-0.0465-0.0304-0.125 0.3871-0.6867 0.4754-1.2156 0.4815-0.4378 0.0087-0.948-0.0217-0.7781-0.4766 0.0251-0.0593-0.1973-0.154-0.3506-0.2633 0.6041-0.4087 1.274-0.4001 1.9178-0.2046-0.011-0.1332 0.0553-0.2949 0.3822-0.4876 0.5839 0.2795 1.1795 0.5156 1.6601 0.8184zm34.696 7.4329c-0.3092-0.1241-0.6249-0.3222-0.6213-0.4753 0.0035-0.2788 0.3874-0.408 0.97-0.4113 0.3106-0.3444 0.7255-0.5195 1.1401-0.4428 0.515 0.0991 0.8354 0.2215 1.0697 0.3693 0.048-0.0294 0.0974-0.064 0.1576-0.0959 0.8607 0.3848 1.5735 0.6988 1.2183 1.3669-0.4201-0.1133-0.808-0.2111-1.2025-0.3094-0.0514 0.0954-0.0668 0.1798-0.1431 0.2913-0.2504-0.0818-0.4974-0.1605-0.7424-0.2393-0.065 0.071-0.1281 0.1448-0.2133 0.2362-0.6297-0.0594-1.2629-0.0404-1.6331-0.2897zm-26.339-4.856c0.4178-0.0766 0.9033-0.0324 1.5255-0.0342-0.1218 0.3712-0.1911 0.571-0.2743 0.8188-0.4235 0.0117-0.8224 0.077-1.1641 0.0211-0.2748-0.0477-0.645-0.2351-0.6761-0.3819-0.0275-0.1336 0.3293-0.3812 0.589-0.4238zm3.7643 0.6326c-1.7014 0.2065-1.6891 0.2151-2.3084-0.1244 0.127-0.4482 0.7055-0.5007 1.2817-0.4809 0.5297 0.0212 1.073 0.1045 1.0267 0.6053zm7.0473 1.2306c-0.0123 0.0368-0.0082 0.0694-0.0505 0.1186-0.1025 0.1138-0.5676 0.2372-0.7335 0.1945-0.634-0.1736-0.1525-0.4165 0.0467-0.7688 0.1725 0.0674 0.3431 0.116 0.4981 0.1674 0.7135-0.6206 0.9732-0.6403 2.0332-0.2199-0.6607 0.7041-0.9119 0.7947-1.794 0.5082zm-1.5241-0.612c0.0298 0.0885-0.0531 0.1934-0.1002 0.3177-0.2419 0.0132-0.457 0.0337-0.6661 0.0371-0.1565 0.0021-0.2529-0.0413-0.3757-0.0656 0.1384 0.1819 0.1947 0.4187 0.0731 0.555-0.2278 0.257-0.5224 0.422-1.0444 0.2601-0.2217-0.0681-0.4763-0.1006-0.8186-0.1729 0.1453-0.2163 0.2734-0.4297 0.4336-0.6332 0.1771-0.2264 0.5118-0.2912 0.873-0.2607-0.0464-0.0552-0.1241-0.0902-0.1436-0.1601-0.0199-0.0845 0.2797-0.256 0.4758-0.2823 0.7668-0.0974 1.1569 0.0294 1.2931 0.4049zm-5.8812-0.2449c0.1795-0.1691 0.3161-0.3798 0.5698-0.5035 0.311-0.1529 0.74-0.203 1.0363 0.0468 0.2633 0.2279 0.0715 0.3878-0.252 0.5293 0.6617 0.1938 0.6283 0.3215-0.1458 0.7307-0.3443-0.1848-0.4237-0.3743-0.2923-0.5769-0.311 0.0739-0.5406 0.0104-0.916-0.2264zm34.094 7.2978c0.7136 0.037 0.7356 0.323 0.689 0.666-0.6339-0.06-1.3258 0.032-1.4266-0.389-0.0161-0.097 0.4772-0.291 0.7376-0.277zm7.8389 4.268c0.1507 0.079 0.2691 0.163 0.3011 0.247 0.0493 0.116-0.1523 0.23-0.2781 0.388-0.6826-0.182-1.3176-0.32-1.8985-0.5-0.324-0.099-0.4375-0.281-0.0881-0.397 0.3337-0.119 0.9443-0.057 1.4567 0.086-0.2623-0.157-0.483-0.351-0.5307-0.525-0.079-0.269 0.5807-0.29 1.8629-0.046-0.1513 0.528-0.4444 0.768-0.8253 0.747zm-0.7004-0.935c-0.6579-0.144-0.9454-0.399-0.8522-0.697 0.0466-0.13 0.3295-0.294 0.562-0.298 0.0716-3e-3 0.176 0.031 0.2734 0.059-0.1622-0.12-0.2843-0.255-0.3223-0.437 0.3333-0.093 0.6762-0.186 1.0255-0.281 1.068 0.444 1.3627 0.596 1.2523 0.944 0.1056 0.079 0.1761 0.157 0.1467 0.182-0.0791 0.059-0.2006 0.104-0.319 0.155-0.0226 0.033-0.027 0.053-0.0474 0.088-0.0352-5e-3 -0.0665-0.014-0.0924-0.021-0.2013 0.077-0.4425 0.154-0.7007 0.254-0.107-0.088-0.1878-0.144-0.2801-0.212-0.0635 0.123-0.264 0.219-0.6458 0.264zm-25.716-5.6058c-0.0753 0.0822-0.1601 0.1879-0.2372 0.2719 0.0455 0.0238 0.068 0.036 0.1175 0.0645-0.086 0.0274-0.1632 0.0514-0.2381 0.0786-0.0547 0.0685-0.1052 0.1245-0.1694 0.2003-0.0929-0.0273-0.1606-0.0471-0.2465-0.0711-0.3069 0.0808-0.6121 0.1132-0.9539-0.0392-0.5109-0.2252-0.1695-0.4707-0.0013-0.7102 0.3814 0.0101 0.5635 0.0261 0.786 0.1046 0.2275-0.0699 0.5326-0.0464 0.9429 0.1006zm-8.1788-0.6846c-0.1843-0.0295-0.4492-0.235-0.4022-0.3104 0.2275-0.3983 0.7046-0.2831 1.1726-0.1661 0.0234 0.3994-0.2204 0.5795-0.7704 0.4765zm36.814 8.6504c-0.2179 0.048-0.8279-0.134-1.1398-0.269-0.3604-0.161-0.8283-0.398-0.5183-0.627 0.3941-0.296 1.0424-0.182 1.7288 0.041 0.0412 0.291 0.7023 0.672-0.0707 0.855zm-26.759-8.0251c0.6694 0.2957 1.5328 0.4979 1.5278 1.2224-0.622-0.2469-1.3941 0.1564-1.823-0.2685-0.3054-0.3086-0.2481-0.6593 0.2952-0.9539zm-69.763 1.9852c0.2221 0.2849 0.4544 0.5769 0.8403 1.0809-0.9269-0.199-1.5559-0.327-2.3358-0.481 0.3207-0.5282 0.8168-0.6076 1.4955-0.5999zm-3.6364 1.1929c0.1232-0.07 0.284-0.239 0.4245-0.212 0.4424 0.085 0.9158 0.192 1.3027 0.383 0.5263 0.262 0.4615 0.582 0.1293 0.913-0.5934-0.391-1.49-0.348-1.8565-1.084zm7.6346 0.231c-0.2962-6e-3 -0.629-0.214-1.1849-0.427 0.3944-0.231 0.5723-0.399 0.7864-0.437 0.0443-0.08 0.0878-0.153 0.1345-0.235 0.3099 0.138 0.5265 0.245 0.7384 0.341 0.0593 0.016 0.1194 0.029 0.1725 0.046 0.094 0.032 0.2108 0.352 0.1582 0.386-0.2357 0.147-0.5174 0.329-0.8051 0.326zm-3.3691-1.7452c-0.4585-0.1366-0.7626-0.2278-1.2415-0.3708 0.6954-0.4013 0.7004-0.3992 1.2415 0.3708zm20.699-1.3167c0.27499-0.0453 0.54524-0.1102 0.83024-0.1638 0.92546 0.5379 0.91299 0.5372 0.53496 1.2292-0.63654 0.0568-1.2689 0.1107-1.999 0.1765-0.12624-0.3751-0.238-0.7025-0.36424-1.0808 0.41307-0.067 0.70602-0.1106 0.998-0.1611zm13.485 0.8489c0.7495-0.1808 1.2808 0.0352 1.6547 0.4861-0.3811 0.3849-0.697 0.5949-1.002 0.6489-0.0469 0.08-0.1148 0.161-0.1759 0.179-0.4415 0.119-0.8992 0.201-1.2736-0.115 0.0612-0.099 0.0849-0.186 0.1491-0.2491 0.0868-0.0691 0.1772-0.1394 0.281-0.2203-0.2749-0.2852-0.157-0.6037 0.3667-0.7296zm-7.3079 0.8823c0.28039 0.0631 0.60271 0.2577 0.70242 0.4597 0.06872 0.133-0.15185 0.468-0.3534 0.559-0.30767 0.141-0.70863 0.153-1.2623 0.258 0.09173-0.405 0.14981-0.642 0.19626-0.885 0.06351-0.3389 0.39283-0.4667 0.71698-0.3917zm-4.9377-0.1288c0.39641-0.1964 0.90159-0.4577 1.3027-0.1289 0.38004 0.3046 0.0305 0.6374-0.30968 0.9644-0.41449-0.092-0.85465-0.183-1.4783-0.312 0.2294-0.261 0.31632-0.4398 0.48527-0.5235zm-15.493-2.0193c0.4595-0.0041 1.095 0.4669 1.1258 0.8907 0.0099 0.119-0.2113 0.303-0.3761 0.3269-0.6076 0.0905-1.3443-0.2018-1.4365-0.5374-0.0862-0.3158 0.2713-0.6743 0.6868-0.6802zm47.104-7.2015c0.0458 0.053 0.0737 0.1148 0.0766 0.1679 0.0145 0.0509 0.0368 0.0913-0.0072 0.142-0.0446 0.1049-0.1234 0.2256-0.2385 0.3895-0.2281-0.0481-0.3644-0.0966-0.5289-0.1438-0.9865 0.1221-1.5864-0.0698-2.2923-0.8118 0.4788-0.1375 0.9256-0.3776 1.2483-0.3246 0.278 0.0454 0.5402 0.1211 0.7997 0.208 0.0557-0.0387 0.0803-0.0677 0.1479-0.114 0.4496 0.2283 0.6718 0.3624 0.7944 0.4868zm7.9164 2.3494c-0.2165-0.027-0.4583-0.0525-0.6457-0.1176-0.5028-0.1733-0.4748-0.3675 0.1357-0.9365 0.0778 0.029 0.1575 0.0676 0.2317 0.0954 0.636-0.2924 1.3084-0.0828 1.6338 0.1267 0.5 0.3127 1.1327 0.3737 1.7003 0.5274 0.0093-0.0288 0.0018-0.0535 0.0129-0.0809 1.8496-0.0904 2.101 0.0114 2.3144 0.8798-0.3663 0.1037-0.759 0.2205-1.178 0.3404-0.4057-0.1097-0.6628-0.241-0.8619-0.3901-1.1408-0.0074-1.996-0.2225-2.691-0.5925-0.0872 0.0475-0.1669 0.0917-0.259 0.1317-0.0942 0.0384-0.2641 0.0291-0.3932 0.0162zm-4.5316-0.5901c-0.1199 0.1342-0.4586 0.3089-0.6675 0.2954-0.5083-0.034-1.0813-0.0989-1.4629-0.2718-0.5747-0.2664 0.1861-0.474 0.2604-0.7286 0.0154-0.0504 0.0658-0.0952 0.1606-0.2349 0.1946 0.0723 0.3303 0.1255 0.5042 0.1811-0.0296-0.0397-0.0549-0.0842-0.0819-0.1235 0.2623-0.1337 0.5012-0.3318 0.8099-0.3807 0.1921-0.0348 0.4987 0.1451 0.7587 0.227-0.1467 0.1066-0.2639 0.2846-0.4466 0.3118-0.2876 0.0466-0.6049 0.0186-0.9173 0.0129 0.2843 0.097 0.602 0.1977 0.8428 0.3106 0.1715 0.078 0.3195 0.3038 0.2396 0.4007zm2.3073-0.1568c-2.0485-0.1807-2.3954-0.4094-1.6427-1.3116 0.5249 0.5236 1.8998 0.5624 1.6427 1.3116zm-73.494 9.0838c-0.1227-0.953 0.8966-0.733 1.8322-0.803 0.1376 0.289 0.3933 0.573 0.3565 0.793-0.0626 0.372-0.6081 0.309-1.0523 0.248-0.3759-0.049-0.7574-0.155-1.1364-0.238zm8.7944-1.8778c0.3759 0.8228 0.0753 1.0308-1.6226 0.9948 0.344-0.9028 0.4891-0.8508 1.6226-0.9948zm71.512-3.2627c-0.1129-0.3552 0.2719-0.4973 1.0144-0.5497 0.2211 0.3434 0.4547 0.7012 0.7531 1.1779-1.0731-0.0375-1.6246-0.1791-1.7675-0.6282zm-2.8666-0.8639c0.1715-0.2017 0.3487-0.4008 0.6136-0.7046 0.414 0.16 0.7732 0.3011 1.1487 0.4474-0.8781 0.5762-0.8717 0.5765-1.7623 0.2572zm-2.7313-0.0898c0.0316-0.0415 0.0614-0.0876 0.0941-0.1311-0.1872-0.0555-0.3443-0.1613-0.5931-0.3681 0.3039-0.2231 0.6226-0.4504 1.0708-0.7723 0.4361 0.3887 0.757 0.6755 1.0994 0.9828-0.2581 0.0488-0.4206 0.0778-0.6003 0.1124 0.4762 0.0069 0.9724 0.0177 1.5647 0.0331-0.1699 0.326-0.1816 0.6583-0.4283 0.7339-0.3045 0.0984-0.8543 0.0528-1.198-0.0466-0.393-0.1138-0.6711-0.36-1.0093-0.5441z" fill="#5B3D39"/>
  <path d="m-46.034 119.41c-2.5608 1.639-2.4328 4.865-2.0487 6.274 9.4322 1.408 28.988 3.815 31.754 2.176 2.7656-1.639 4.8228-5.207 5.5057-6.786 1.9206 1.665 7.6823 0 7.0421-3.457 5.7362 1.434 12.206-2.817 14.724-5.122 1.5365 0.683 5.1216 1.383 7.1702-1.28 6.7861 1.408 7.8104-2.219 9.6029-3.585 0.8109 2.561 9.4749 2.177 10.499 0.896 7.1702 1.742 25.096 0.726 33.162 0 2.8169 1.409 8.4813 1.78 15.109 1.281 6.5953-0.498 15.629-3.912 18.822-6.402 5.838 1.229 10.798-0.427 12.548-1.409 2.219 1.451 8.706-0.512 9.731-1.536 2.945 1.792 10.755 2.945 12.675 0 1.793 1.152 3.586 1.536 4.738 1.408s3.969 0.896 13.444 4.482c7.58 2.868 19.121 5.292 23.943 6.146v-9.988c-4.652-0.469-14.724-2.151-17.797-5.121-3.073-2.9704-8.536-4.3106-10.883-4.6094-2.433-1.2377-8.707-3.7132-14.341-3.7132h-14.084c-4.738-0.8536-14.084 0.4352-17.669 3.7131-4.303-0.8195-7.427-1.0669-7.9389 1e-4 -3.7558-0.7256-11.933-0.8195-14.596 4.6094-3.329-2.6888-8.5786-1.6645-13.7-1.6645-5.1215 0-21.382 2.3047-31.242 0-7.8872-1.8437-14.81-0.2561-17.285 0.7681-3.6704-2.4754-11.754-6.2995-14.724-1.7924-4.4814-1.9206-7.5543-0.7683-8.9627 1.0243-2.9449-0.3841-7.1702 2.0486-7.1702 4.3535-2.2535 0-3.4144 0.939-3.7131 1.408-0.8963-0.384-1.5365-1.408-6.658-1.408-6.402 0-6.0179 4.737-11.652 5.121-5.6337 0.385-11.011 1.921-11.011 7.299-3.9692 0.256-6.2739 2.945-4.9934 6.914z" fill="#A2BD5C"/>
  <path d="m179.95 112.04v-5.178c-3.115-3.2-10.755-8.7061-16.389-5.121-1.741-2.4585-8.066-3.4145-11.011-3.5852-1.579-1.6218-5.915-4.0716-10.627-0.8961-5.122-3.0729-12.121-1.2804-14.981 0-2.134-0.2988-7.554-0.8707-12.164-0.7682-2.797 0.0621-6.017 1.241-9.205 2.4083-3.379 1.2372-6.7216 2.4612-9.4883 2.3292-4.3021-0.205-8.792 1.024-10.499 1.664-2.7742-1.323-8.9627-3.0214-11.524 0.769-2.5608-3.176-27.87-0.214-40.204 1.664-1.3657-0.085-5.0703-0.359-8.9627-0.768-3.8924-0.41-6.3166 0.597-7.0422 1.152-6.7007-0.427-21.511 0.692-27.144 8.579-8.3174 1.796-15.167 9.398-18.154 13.815 5.4264 0.416 9.8948 0.478 11.112-0.243 2.7656-1.639 4.8228-5.207 5.5057-6.786 1.9206 1.664 7.6823 0 7.0421-3.457 5.7362 1.434 12.206-2.817 14.724-5.122 1.5365 0.683 5.1216 1.383 7.1702-1.28 5.3401 1.108 7.1123-0.902 8.4985-2.475 0.3754-0.426 0.7225-0.819 1.1044-1.11 0.8109 2.561 9.4749 2.176 10.499 0.896 7.1702 1.741 25.096 0.726 33.162 0 2.8169 1.408 8.4813 1.78 15.109 1.28 6.5953-0.497 15.628-3.911 18.822-6.402 5.838 1.23 10.798-0.426 12.547-1.408 2.22 1.451 8.707-0.512 9.731-1.536 2.945 1.792 10.756 2.944 12.676 0 1.793 1.152 3.585 1.536 4.738 1.408 1.152-0.128 3.969 0.896 13.444 4.481 6.502 2.461 15.92 4.595 21.51 5.69z" clip-rule="evenodd" fill="#79A64F" fill-rule="evenodd"/>
  <path d="m-40.273 146.56c-2.5608 1.638-2.4328 4.865-2.0486 6.273 9.4322 1.409 28.988 3.816 31.754 2.177 2.7656-1.639 4.8228-5.207 5.5057-6.786 1.9206 1.664 7.6823 0 7.0422-3.457 5.7362 1.434 12.206-2.817 14.724-5.122 1.5365 0.683 5.1216 1.383 7.1702-1.28 6.7861 1.408 6.6132-9.518 8.4057-10.883 0.811 2.56 9.4749 2.176 10.499 0.896 7.1702 1.741 25.096 0.726 33.162 0 2.8168 1.408 23.22-3.714 29.622-6.018 4.609 1.664 7.938-0.769 9.603-3.202 5.838 1.229 10.67-0.683 12.42-1.664 2.219 1.451 8.45-0.256 9.474-1.281 2.945 1.793 6.402 3.585 8.323 0.641 1.793 1.152 9.859 3.586 11.011 3.458 1.153-0.129 5.762 0.767 15.237 4.352 7.58 2.868 10.497 6.83 15.32 7.683v-9.987c-4.652-0.469-34.91-19.719-42.125-15.493-4.949-2.945-5.589-0.769-6.869 0-2.433-1.238-6.786-2.049-10.371 0-3.842-2.305-7.512 0.768-9.859 0.768-4.738-0.853-6.53 0.179-10.116 3.457-4.302-0.819-11.651 1.494-12.163 2.561-3.7558-0.725-8.9628-1.024-11.908 1.921-3.329-2.689-12.804-0.896-12.804-0.896s-15.109-4.738-26.037 0.896c-7.8872-1.843-14.125-1.024-16.6 0-3.6704-2.475-11.242 1.767-14.212 6.274-4.4814-1.921-7.5543-0.768-8.9628 1.024-2.9449-0.384-7.1702 2.049-7.1702 4.354-2.2535 0-3.4144 0.939-3.7131 1.408-0.89628-0.384-1.5365-1.408-6.658-1.408-6.402 0-6.0179 4.737-11.652 5.121s-11.011 1.921-11.011 7.298c-3.9692 0.256-6.274 2.945-4.9935 6.915z" fill="#A2BD5C"/>
  <path d="m175.68 126.48 2.741-5.278c-1.024 0-4.123-0.896-8.323-4.482-4.199-3.585-12.59-2.859-16.261-2.048-4.481-2.817-8.962-3.969-13.188-2.305-3.585-1.024-5.676 0.427-6.274 1.281-2.603-1.153-8.373-2.561-10.627 1.024-2.97-0.922-8.92 1.494-11.523 2.817-3.752 0-6.764 1.179-9.393 2.208-2.037 0.797-3.8441 1.505-5.5878 1.505-3.9949 0-6.7008 1.536-7.5543 2.305-1.7499-0.769-7.0422-2.305-14.212-2.305-3.2449 0-5.315 0.268-7.2068 0.514-3.3335 0.432-6.1134 0.793-13.792-0.514-9.6285-1.639-22.706 4.609-28.041 7.938l4.989-0.043c0.2555-0.778 0.5216-1.365 0.856-1.62 0.2507 0.791 1.2522 1.302 2.5465 1.591l6.5696-0.057c0.6797-0.167 1.1807-0.385 1.3831-0.638 1.0427 0.253 2.3129 0.448 3.747 0.594l24.509-0.211c1.8553-0.126 3.525-0.259 4.9058-0.383 2.8169 1.408 23.22-3.714 29.622-6.018 4.609 1.664 7.938-0.769 9.603-3.202 5.838 1.229 10.67-0.683 12.419-1.664 2.22 1.451 8.451-0.256 9.475-1.281 2.945 1.793 6.402 3.585 8.323 0.641 1.792 1.152 9.859 3.586 11.011 3.458 1.153-0.129 5.762 0.767 15.237 4.352 1.518 0.574 2.849 1.192 4.045 1.821z" clip-rule="evenodd" fill="#769C47" fill-rule="evenodd"/>
  <path d="m130.94 98.082 11.001-18.885c1.478-2.5645 0.726-5.8439-1.728-7.4939l-52.688-36.215c-1.8685-1.2718-4.4219-0.1573-4.7695 2.0749l-2.9731 19.215c-0.2755 1.758 0.3734 3.5418 1.7097 4.7242l43.714 37.525c1.775 1.5687 4.549 1.1107 5.734-0.9456z" fill="#1B160D"/>
  <path d="m125.95 98.009c1.006 0.8521 2.532 0.5518 3.141-0.6113l9.797-18.725c0.689-1.3065 0.305-2.9245-0.884-3.7919l-51.548-36.738c-0.8476-0.6027-2.0443-0.1117-2.2289 0.9158l-3.2871 18.504c-0.244 1.3774 0.2603 2.773 1.3225 3.6716l43.688 36.775z" fill="#fff"/>
  <circle transform="rotate(-17.283 101.31 60.378)" cx="101.31" cy="60.378" r="28.739" fill="#FFBCBC" fill-opacity=".44" stroke="#F2592B" stroke-dasharray="2.24 2.24" stroke-width="2.2362"/>
  <path d="m99.726 59.796s-0.5242-2.169-3.8451-2.3099c-3.3218-0.1411-6.9114-2.0747-8.2282-3.2315-2.1064-1.8468-4.602-5.2069-5.1708-4.7118-0.5692 0.4939 0.2804 5.1249 5.3815 8.682-2.3937-0.4914-5.6075-2.9022-6.0516-1.8636-0.2976 0.6939 2.582 4.2191 6.1656 5.2053-3.5297-0.1799-4.1529-0.1844-3.9462 0.5209 0.2862 0.9808 3.2055 2.2554 5.6843 2.3705-0.7944 0.1145-2.4318 1.0673-1.7958 1.5408 0.7111 0.5295 4.2428 0.2508 5.923-0.62-1.4191 1.0271-1.1776 1.7532-0.6933 1.8668 1.7566 0.4122 4.3583-0.3865 6.3246-2.2357 1.5256-2.1801 0.252-5.2138 0.252-5.2138z" fill="#3F2E26"/>
  <path d="m88.934 65.264c2.8866 1.3149 6.4085-1.4421 6.9074-4.251 0.3016-1.6971-1.5918-2.9775-3.0867-3.6895 0.9488 0.2885 1.9399 0.488 2.9095 0.5284 3.2107 0.1376 3.7178 2.2339 3.7178 2.2339s1.2874 1.7751-0.1883 3.8835c-1.9015 1.7867-3.658 3.2743-5.3557 2.8752-0.4693-0.1092-0.3409-1.1888 1.0315-2.1827-1.7422 1.2053-4.9262 1.6421-6.1896 1.317-0.5046-0.1302-0.1678-0.5787 0.2541-0.7148z" fill="#231623"/>
  <path d="m95.88 57.518c-0.3622-0.015-0.7408-0.0523-1.1254-0.1113-2.9712-0.4526-5.9541-2.1013-7.1233-3.1267-0.8015-0.7035-1.6747-1.6418-2.4451-2.4691-1.1038-1.1868-2.0572-2.2115-2.5187-2.281-0.0691-0.0108-0.1229 0.0013-0.1641 0.0375-0.1074 0.093-0.1577 0.3519-0.1386 0.7118 0.0775 1.4624 1.3306 5.0002 5.5175 7.9192 0.0128 0.0087 0.0172 0.0256 0.0114 0.0389-0.0065 0.015-0.0219 0.0217-0.0365 0.0194-1.0026-0.2057-2.1545-0.7502-3.1709-1.23-0.9008-0.4256-1.6788-0.7922-2.2139-0.8741-0.339-0.0516-0.5451 0.0208-0.6307 0.2209-0.0467 0.1079-0.0046 0.3073 0.1173 0.5613 0.5514 1.1457 2.9594 3.7568 6.0267 4.6014 0.0162 0.0049 0.0262 0.0207 0.0233 0.0361-0.0028 0.0163-0.0172 0.0285-0.0331 0.0268-2.6014-0.132-3.666-0.1752-3.8955 0.1158-0.0629 0.0795-0.0687 0.192-0.0183 0.3637 0.2457 0.8413 2.4844 1.9136 4.6968 2.2511 0.3294 0.0501 0.6515 0.0823 0.9579 0.0975 0.0164 8e-4 0.0301 0.014 0.0308 0.0306 9e-4 0.0167-0.011 0.0308-0.0274 0.033-0.6107 0.0881-1.7812 0.7051-1.9019 1.181-0.0303 0.1199 0.0091 0.2181 0.121 0.3008 0.1216 0.0912 0.3331 0.1599 0.6291 0.205 1.3092 0.1996 3.8919-0.1181 5.2593-0.8274 0.0154-0.0077 0.0337-0.0031 0.0428 0.0115 0.0084 0.0153 0.0046 0.0334-0.0086 0.0429-1.0583 0.7663-1.0854 1.2823-1.0481 1.4687 0.0348 0.1712 0.1629 0.2986 0.3432 0.3406 0.0943 0.022 0.1926 0.0414 0.2921 0.0571 1.8394 0.2797 4.2518-0.6381 5.9988-2.2794 1.4976-2.1403 0.2609-5.1533 0.247-5.188-0.0049-0.0182-0.4713-1.8184-3.0723-2.2142-0.236-0.0367-0.4859-0.06-0.7426-0.0714zm-2.7378 9.7591c-0.2054-0.0481-0.3516-0.1943-0.3919-0.391-0.0745-0.3729 0.2255-0.8552 0.8307-1.3473-1.4266 0.6212-3.7872 0.8908-5.0224 0.7028-0.3062-0.0469-0.5274-0.1201-0.658-0.2166-0.1311-0.0978-0.1811-0.2254-0.1447-0.3687 0.1143-0.4506 1.0627-0.998 1.7229-1.1795-0.237-0.0176-0.4817-0.0452-0.7298-0.0832-2.2337-0.3401-4.4972-1.4348-4.7489-2.2965-0.0566-0.1946-0.0478-0.3244 0.0295-0.4221 0.2381-0.3022 1.1428-0.2814 3.6759-0.1537-2.9612-0.9226-5.2646-3.4374-5.8044-4.5584-0.1342-0.279-0.1741-0.4858-0.1191-0.6141 0.0988-0.2312 0.3279-0.3167 0.6998-0.2593 0.5449 0.0824 1.3265 0.4514 2.2319 0.8796 0.9604 0.4534 2.0424 0.9642 3.0001 1.1895-4.1018-2.9157-5.3361-6.4179-5.4135-7.8762-0.0206-0.385 0.0365-0.6558 0.161-0.764 0.0555-0.0484 0.1281-0.066 0.216-0.0525 0.4837 0.0735 1.4445 1.105 2.5563 2.3008 0.7693 0.8259 1.641 1.7636 2.4403 2.4643 1.1631 1.0212 4.1321 2.6617 7.0905 3.1118 0.3826 0.0582 0.7584 0.0965 1.1179 0.1116 0.2597 0.0104 0.5118 0.0346 0.7501 0.071 2.6453 0.4028 3.1209 2.2441 3.1234 2.2584 0.0131 0.0303 1.2627 3.0758-0.2596 5.2499-1.765 1.6594-4.1989 2.5836-6.0569 2.3012-0.1009-0.0162-0.2012-0.0353-0.2971-0.0578z" fill="#292627"/>
  <path d="m103.7 59.387s1.094-1.2014 4.038-0.5354c1.432 0.3239 6.302 0.5817 7.851 0.2178 3.444-0.807 6.404-2.427 6.7-1.8089 0.295 0.6178-2.602 3.9823-8.138 5.1032 2.172 0.4557 5.721-0.3916 5.716 0.6336-2e-3 0.6866-3.675 2.5826-7.018 2.1107 3.006 1.1249 3.527 1.345 3.1 1.8589-0.593 0.7135-3.486 0.7218-5.593-0.0777 0.621 0.3812 1.641 1.7668 0.939 1.9313-0.783 0.1848-3.625-1.3226-4.71-2.656 0.81 1.3686 0.348 1.8872-0.097 1.8061-1.613-0.2913-3.491-1.8968-4.462-4.1474-0.484-2.3681 1.674-4.4362 1.674-4.4362z" fill="#3F2E26"/>
  <path d="m103.84 59.735s1.047-1.1492 3.865-0.5117c0.569 0.129 1.705 0.2462 2.945 0.3153-2.077 0.1309-4.877 1.0409-4.911 2.7013-0.042 2.0685 3.303 4.3266 8.001 4.7221-1.133 0.1164-3.162-0.2478-4.45-0.7371 0.594 0.3662 1.533 1.4101 0.862 1.5674-0.75 0.1766-3.101-1.4565-4.14-2.732 0.775 1.3098 0.483 2.208 0.056 2.1319-1.543-0.2794-2.709-2.3379-3.638-4.4924-0.463-2.2654 1.41-2.9648 1.41-2.9648z" fill="#231623"/>
  <path d="m101.76 74.738s-0.096 1.739-0.086 1.8479c1.218-0.1844 2.006-0.0914 2.651 0.232 0.583 0.2915 0.556 0.9415 0.062 1.0116 0.301 0.5485-0.419 1.0858-1.128 0.7992-1.031-0.4122-1.686-1.031-2.324-1.0662-0.643 0.1622-1.4881 0.0627-1.7273-0.1296-0.3753-0.3001-0.3408-0.8277-0.0194-1.0638 0.3481-0.2561 1.0857-0.1438 1.4757 0.0962 0.176-0.5497 0.018-1.6537 0.034-1.6469 0.404 0.1775 0.918 0.1044 1.062-0.0804z" fill="#637170"/>
  <path d="m104.38 77.861c9e-3 0.0011 0.018-6e-4 0.025-0.0062 0.014-0.0113 0.017-0.031 6e-3 -0.0452-0.088-0.1116-0.898-1.081-2.3-0.891-0.018 0.0027-0.03 0.0188-0.028 0.0369 2e-3 0.0173 0.019 0.0295 0.036 0.0276 1.368-0.1863 2.156 0.7578 2.241 0.8664 6e-3 0.0062 0.013 0.0108 0.02 0.0115z" fill="#3C4344"/>
  <path d="m104.62 77.16s0.73 0.1467 0.888 0.6828c-0.281-0.1114-1.004-0.1133-1.004-0.1133s-0.255-0.5654 0.116-0.5695z" fill="#BBC0C9"/>
  <path d="m104.3 78.022s0.618 0.1919 0.586 0.8403c-0.275-0.1829-1.004-0.3476-1.004-0.3476s-0.158-0.6752 0.418-0.4927z" fill="#BBC0C9"/>
  <path d="m99.2 76.587s-0.8211-0.1224-0.9299 0.593c0.1342-0.0985 0.9071-0.0397 0.9071-0.0397s0.297-0.3892 0.0228-0.5533z" fill="#BBC0C9"/>
  <path d="m101.18 75.33c0.203 0.0308 0.419 0.0121 0.548-0.0362 0.017-0.0062 0.025-0.0247 0.019-0.0412-6e-3 -0.0167-0.024-0.0254-0.041-0.0193-0.167 0.0624-0.494 0.0694-0.716-0.0185-0.017-0.0073-0.036 0.0014-0.042 0.0175-7e-3 0.017 2e-3 0.0353 0.018 0.0423 0.066 0.0261 0.139 0.0445 0.214 0.0554z" fill="#3C4344"/>
  <path d="m101.36 75.887c0.176 0.0273 0.318-0.0227 0.325-0.0251 0.017-0.0061 0.025-0.0246 0.019-0.0411-5e-3 -0.0175-0.025-0.0255-0.041-0.0201-2e-3 0.0012-0.208 0.0736-0.42-0.0106-0.017-0.0072-0.036 5e-4 -0.042 0.0176-7e-3 0.016 1e-3 0.0353 0.018 0.0413 0.048 0.0196 0.096 0.0317 0.141 0.038z" fill="#3C4344"/>
  <path d="m103.69 77.062c0.017 0.0021 0.034-0.0093 0.037-0.0265 0.056-0.2967 0.277-0.29 0.287-0.2897 0.018 0.0014 0.033-0.0126 0.034-0.0306 1e-3 -0.0181-0.013-0.0332-0.031-0.0336-2e-3 -9e-4 -0.286-0.012-0.354 0.342-3e-3 0.0173 9e-3 0.0347 0.026 0.038l1e-3 4e-4z" fill="#3C4344"/>
  <path d="m102.77 77.781c0.014 0.0021 0.028-5e-3 0.035-0.0192 0.094-0.2202 0.217-0.361 0.362-0.4185 0.148-0.0578 0.267-0.0065 0.268-6e-3 0.016 0.0068 0.035-5e-4 0.042-0.0164 8e-3 -0.0167 0-0.0358-0.016-0.0427-6e-3 -0.0021-0.145-0.0628-0.317 0.0054-0.163 0.0637-0.296 0.2156-0.399 0.4526-7e-3 0.0168 1e-3 0.0359 0.017 0.0429 3e-3 1e-3 5e-3 2e-3 8e-3 0.0019z" fill="#3C4344"/>
  <path d="m103.36 78.02c0.016 0.0017 0.031-0.0072 0.036-0.0228 0.138-0.4553 0.438-0.3757 0.441-0.3747 0.019 0.0038 0.035-0.0057 0.04-0.0224 5e-3 -0.0176-5e-3 -0.0356-0.023-0.0398-3e-3 -0.0011-0.364-0.0975-0.52 0.4176-5e-3 0.0175 4e-3 0.0353 0.021 0.0405 2e-3 6e-4 3e-3 1e-3 5e-3 0.0016z" fill="#3C4344"/>
  <path d="m104.13 77.11c0.017 0.0029 0.033-0.0077 0.037-0.0246 0.045-0.1904 0.167-0.1795 0.169-0.179 0.018 0.0023 0.033-0.0103 0.035-0.0281 3e-3 -0.0185-8e-3 -0.0358-0.028-0.0367-2e-3 2e-4 -0.181-0.0168-0.239 0.2291-5e-3 0.0178 6e-3 0.0351 0.024 0.0393 1e-3 -6e-4 2e-3 -3e-4 2e-3 0z" fill="#3C4344"/>
  <path d="m99.894 77.021c5e-4 2e-4 0.0014 5e-4 0.0021 8e-4 0.0176 0.0012 0.0332-0.0115 0.0345-0.0295 0.0213-0.2603-0.0474-0.4765-0.1934-0.6094-0.1013-0.092-0.2319-0.1354-0.351-0.1142-0.0175 0.0028-0.0293 0.019-0.0264 0.0374 0.0032 0.0176 0.0193 0.0296 0.0372 0.0268 0.0994-0.018 0.2103 0.0192 0.2966 0.0976 0.1308 0.1192 0.1923 0.3165 0.1729 0.557-0.0017 0.0168 0.0107 0.0315 0.0275 0.0335z" fill="#3C4344"/>
  <path d="m100.44 76.845c0.017 0.0023 0.034-0.0091 0.037-0.0266 0.035-0.2326-0.087-0.4694-0.279-0.539-0.018-0.0055-0.035 0.0026-0.041 0.0198-6e-3 0.0162 3e-3 0.0347 0.02 0.0409 0.163 0.0594 0.267 0.2649 0.236 0.4684-3e-3 0.0174 9e-3 0.0341 0.027 0.0365z" fill="#3C4344"/>
  <path d="m95.185 73.745s-0.426 1.6887-0.4675 1.7903c-1.1085-0.5389-1.8883-0.6852-2.6003-0.5685-0.6432 0.1049-0.81 0.7327-0.36 0.9474-0.4514 0.4334 0.0758 1.1611 0.8392 1.0999 1.106-0.0881 1.9163-0.4832 2.5355-0.3267 0.5653 0.3456 1.4016 0.5022 1.6876 0.3903 0.4477-0.1749 0.5717-0.6885 0.3352-1.0097-0.2561-0.3478-0.9931-0.4601-1.4366-0.3471-5e-3 -0.5778 0.4744-1.5852 0.457-1.5823-0.4383 0.0484-0.9072-0.1742-0.9901-0.3936z" fill="#637170"/>
  <path d="m91.752 75.946c0.0077 0.0018 0.016-3e-4 0.0232-0.0049 0.1136-0.0784 1.1473-0.7452 2.3969-0.1601 0.016 0.0068 0.0353 5e-4 0.0432-0.016 0.0073-0.0158 3e-4 -0.0347-0.0158-0.0426-1.2825-0.599-2.3439 0.0853-2.4612 0.1654-0.0146 0.0101-0.0185 0.0302-0.0082 0.0452 0.0051 0.0069 0.0133 0.012 0.0219 0.013z" fill="#3C4344"/>
  <path d="m91.734 75.206s-0.7405-0.0777-1.0509 0.3875c0.3017-0.0234 0.9927 0.1909 0.9927 0.1909s0.4117-0.4632 0.0582-0.5784z" fill="#BBC0C9"/>
  <path d="m91.784 76.124s-0.6475-0.0011-0.8106 0.6282c0.3173-0.0944 1.0621-0.0335 1.0621-0.0335s0.3518-0.5985-0.2515-0.5947z" fill="#BBC0C9"/>
  <path d="m97.081 76.273s0.8204 0.1273 0.7114 0.8427c-0.0991-0.1332-0.8542-0.3074-0.8542-0.3074s-0.1675-0.4598 0.1428-0.5353z" fill="#BBC0C9"/>
  <path d="m95.561 74.483c0.0753 0.0121 0.1506 0.0159 0.2216 0.01 0.0178-7e-4 0.0309-0.0164 0.0297-0.0343-0.0013-0.0178-0.0162-0.0314-0.035-0.029-0.2372 0.0171-0.5481-0.0867-0.6886-0.195-0.0139-0.0112-0.0346-0.0085-0.0452 6e-3 -0.0106 0.0136-0.0082 0.0339 6e-3 0.0452 0.1084 0.0844 0.3095 0.1667 0.5115 0.1971z" fill="#3C4344"/>
  <path d="m95.23 74.964c0.0452 0.0072 0.0943 0.0097 0.1461 6e-3 0.018-0.0016 0.0307-0.0164 0.0294-0.0343-1e-3 -0.0177-0.0163-0.0315-0.0346-0.0299-0.2289 0.017-0.4028-0.1127-0.4045-0.1143-0.0139-0.0102-0.0345-0.0084-0.0452 0.0061-0.011 0.0144-0.0079 0.0339 0.0061 0.0452 0.0064 0.0043 0.1257 0.0948 0.3027 0.1212z" fill="#3C4344"/>
  <path d="m92.653 75.39c6e-4 -7e-4 8e-4 -7e-4 0.0011-6e-4 0.0176 0.0023 0.0336-0.0103 0.0357-0.0279 0.0409-0.3575-0.233-0.4315-0.2357-0.4325-0.0191-0.0048-0.0351 0.0067-0.0395 0.0235-0.0043 0.0179 0.0059 0.0349 0.0232 0.0392 9e-3 0.0032 0.2225 0.0624 0.1875 0.3627-0.0016 0.0168 0.0104 0.0324 0.0277 0.0356z" fill="#3C4344"/>
  <path d="m93.316 76.351c0.0027 0 0.0053-1e-4 0.0081-1e-4 0.0178-0.0017 0.0304-0.0176 0.0289-0.0356-0.0269-0.2563-0.1097-0.4419-0.2456-0.5506-0.1447-0.116-0.2953-0.1001-0.3014-0.1003-0.0179 0.0027-0.0303 0.0186-0.0281 0.0358 0.0018 0.0181 0.0172 0.0308 0.0355 0.0283 0.0015 5e-4 0.1321-0.0124 0.2545 0.0873 0.1216 0.0984 0.1958 0.2686 0.2207 0.5068 0.0018 0.014 0.0131 0.0263 0.0274 0.0284z" fill="#3C4344"/>
  <path d="m92.678 76.402c0.0011 4e-4 0.0028 1e-3 0.0044 6e-4 0.0179 3e-4 0.0325-0.0138 0.0324-0.0323 0.0045-0.5375-0.3687-0.5544-0.3725-0.5538-0.0176-2e-4 -0.0324 0.0138-0.0331 0.031-6e-4 0.0182 0.015 0.032 0.0315 0.0329 0.0121 0.0013 0.3134 0.0167 0.3096 0.49-3e-4 0.0163 0.0118 0.0299 0.0277 0.0316z" fill="#3C4344"/>
  <path d="m92.22 75.306c1e-3 4e-4 0.0019-3e-4 0.0028 1e-4 0.0175 0.0012 0.0333-0.0115 0.0341-0.0296 0.0181-0.2523-0.1581-0.2897-0.1603-0.2895-0.0166-0.0019-0.0343 8e-3 -0.0377 0.0252-0.0032 0.0173 8e-3 0.0346 0.0253 0.0378 0.0057 0.0011 0.1221 0.0291 0.1088 0.2217-0.0014 0.0168 0.0108 0.0315 0.027 0.0343z" fill="#3C4344"/>
  <path d="m96.288 76.482c0.0163 0.0029 0.0326-0.0076 0.0363-0.0247 0.0532-0.2343 0.1705-0.4045 0.3308-0.4793 0.1057-0.0495 0.2227-0.052 0.3125-0.0061 0.0158 0.0078 0.0352 0.0016 0.043-0.014 0.0087-0.0163 0.0021-0.035-0.0141-0.043-0.1074-0.0554-0.2452-0.0533-0.3688 0.0041-0.179 0.0843-0.309 0.2703-0.3661 0.5238-0.0041 0.0179 0.0065 0.0351 0.0242 0.0384 4e-4 0.0012 0.0015 6e-4 0.0022 8e-4z" fill="#3C4344"/>
  <path d="m95.819 76.151c0.0177 0.0024 0.0339-0.0091 0.0365-0.0266 0.0305-0.1997 0.1942-0.3683 0.365-0.3768 0.018-6e-4 0.0314-0.0152 0.0308-0.0338-9e-4 -0.0167-0.0147-0.0309-0.0334-0.0306-0.2038 0.0099-0.3905 0.1988-0.426 0.4314-0.0026 0.0175 0.0093 0.0341 0.0271 0.0364z" fill="#3C4344"/>
  <path d="m106.14 53.91c1.421-1.7373 0.611-4.3181-3.657-4.8694-2.9303-0.3786-4.7345 0.8768-4.5115 2.8239 0.2901 2.531 2.3045 3.6333 0.4733 6.661-0.6901 1.1405-6.6451 11.692-3.5359 15.306 0.5217 0.6049 1.965 1.0547 2.6703 0.1469 0.3982 0.4853 1.4476 0.5148 1.8054 0.0852 0.1494 0.5668 0.5382 0.9178 1.0204 1.1924 0.549 0.1402 1.156-0.1068 1.33-0.1959 1.948-1.0027 4.434-8.5229 2.453-14.858-0.749-2.3927 0.265-4.227 1.952-6.2922z" fill="#3F2E26"/>
  <path d="m105.65 50.26c0.25 0.5587 0.576 1.293 0.896 2.0279-0.027 0.5519-0.24 1.1038-0.612 1.5914-1.243 1.6271-2.102 3.1096-2.096 4.8179-0.634-1.1991-1.532-2.0185-2.574-1.8919-1.3823 0.1679-1.9939 0.7354-2.7172 2.3263-0.0084-0.0553-0.0168-0.1074-0.025-0.1616 0.0963-0.1788 0.1716-0.3151 0.2196-0.4 1.7326-3.042-0.1246-4.1199-0.3665-6.6436-0.031-0.3223-9e-3 -0.6253 0.0598-0.9072l5.9413-1.5227c0.524 0.2085 0.946 0.4684 1.274 0.7635z" fill="#231623"/>
  <path d="m105.62 55.864c-1.76 0.455-4.643 0.0958-6.725-1.1181-2.0819-1.2149-4.131-4.8997-1.5475-9.3747 0.8021-1.3893 1.998-2.8842 4.8595-2.1408 1.97 0.511 2.494-0.3992 3.618-0.1812 2.126 0.4135 4.779 4.8017 3.456 8.9328-0.9 2.8145-2.369 3.5482-3.661 3.882z" fill="#3F2E26"/>
  <path d="m100.83 40.829c0.414 0.6855-1.4006 0.2592-2.7738 1.796 0.1939-1.5756 2.3158-2.5549 2.7738-1.796z" fill="#231623"/>
  <path d="m99.458 48.602c-0.1031 0.6777 0.8753 1.3902 2.1843 1.5899 1.31 0.1996 2.455-0.1893 2.559-0.8678 0.103-0.6795-0.875-1.3909-2.184-1.5906-1.31-0.1996-2.4557 0.1891-2.5593 0.8685z" fill="#231623"/>
  <path d="m99.616 47.208c-0.0224 1.3484 1.1774 2.4648 2.6814 2.4895 1.504 0.0258 2.742-1.0486 2.763-2.3994 0.023-1.3483-1.177-2.4638-2.68-2.4892-1.504-0.0259-2.7419 1.0487-2.7644 2.3991z" fill="#fff"/>
  <path d="m100.07 47.011c-0.016 0.8986 0.761 1.6435 1.733 1.6591 0.974 0.0153 1.774-0.7017 1.789-1.5996 0.015-0.9019-0.76-1.644-1.735-1.6606-0.972-0.0157-1.772 0.7011-1.787 1.6011z" fill="#637170"/>
  <path d="m100.44 47.029c-0.011 0.6375 0.538 1.1623 1.226 1.1738 0.688 0.0126 1.254-0.4946 1.265-1.1311 0.01-0.6358-0.539-1.1615-1.227-1.1721-0.687-0.0114-1.253 0.4938-1.264 1.1294z" fill="#292627"/>
  <path d="m101.08 46.061c-6e-3 0.2589 0.217 0.473 0.497 0.4774 0.28 0.0045 0.511-0.2021 0.515-0.4604 3e-3 -0.2589-0.221-0.472-0.5-0.4772-0.279-0.0043-0.509 0.2015-0.512 0.4602z" fill="#fff"/>
  <path d="m101.53 48.095c-3e-3 0.1341 0.115 0.2454 0.26 0.2479 0.146 0.0028 0.266-0.1049 0.269-0.2398 2e-3 -0.1353-0.115-0.2466-0.261-0.2493-0.145-0.0026-0.265 0.1051-0.268 0.2412z" fill="#fff"/>
  <path d="m105.65 41.08c-0.501 0.4439 1.054 0.5557 1.767 2.1235 0.238-1.306-1.212-2.6156-1.767-2.1235z" fill="#231623"/>
  <path d="m105.63 47.989c-0.087 0.568 0.731 1.1629 1.826 1.3295 1.095 0.1668 2.053-0.1583 2.139-0.7255 0.086-0.5671-0.731-1.1618-1.826-1.3286-1.095-0.1667-2.053 0.1575-2.139 0.7246z" fill="#231623"/>
  <path d="m106.16 46.992c-0.018 1.1267 0.985 2.0609 2.242 2.0811 1.257 0.0219 2.292-0.8766 2.31-2.0067 0.019-1.1265-0.985-2.059-2.241-2.0799-1.257-0.0221-2.292 0.8766-2.311 2.0055z" fill="#F0EFEF"/>
  <path d="m106.35 46.739c-0.013 0.7523 0.637 1.3741 1.449 1.3881 0.814 0.0124 1.483-0.5874 1.496-1.3379 0.012-0.7535-0.636-1.3738-1.451-1.3884-0.812-0.013-1.482 0.5857-1.494 1.3382z" fill="#637170"/>
  <path d="m106.56 46.741c-9e-3 0.5327 0.45 0.9708 1.024 0.9819 0.576 0.0097 1.049-0.4147 1.058-0.9465 8e-3 -0.5311-0.45-0.9708-1.026-0.9795-0.574-0.0101-1.047 0.4124-1.056 0.9441z" fill="#292627"/>
  <path d="m107.09 45.932c-4e-3 0.2153 0.183 0.3947 0.416 0.3978 0.234 0.0042 0.427-0.1683 0.431-0.3838 2e-3 -0.2169-0.184-0.3953-0.418-0.3993-0.233-4e-3 -0.426 0.1685-0.429 0.3853z" fill="#fff"/>
  <path d="m107.47 47.632c-3e-3 0.1127 0.096 0.2047 0.216 0.2077 0.123 0.0025 0.223-0.088 0.226-0.2005 1e-3 -0.1132-0.097-0.2061-0.219-0.2083-0.121-0.0031-0.221 0.0872-0.223 0.2011z" fill="#fff"/>
  <path d="m112.32 55.938s-2.03 1.3911-4.92 0.8328c-2.891-0.5583-4.545-3.0295-3.522-5.0937 3.985-0.739 8.442 4.2609 8.442 4.2609z" fill="#637170"/>
  <path d="m111.48 55.55s-1.573 0.8707-3.667 0.1979c-2.093-0.6738-2.603-1.9792-2.863-2.7509 2.337 0.3092 6.53 2.553 6.53 2.553z" fill="#2A1415"/>
  <path d="m107.86 55.425c-1.579-0.5073-2.257-1.3745-2.606-2.101 0.636 0.0174 1.443 0.1602 2.296 0.6135 1 0.5321 1.556 1.1536 1.877 1.7429-0.47-0.0041-0.999-0.0725-1.567-0.2554z" fill="#761E2A"/>
  <path d="m106.76 49.66c0.415-0.7516 2.053-1.244 3.559 0.0463 2.382 2.0388 5.086 7.0786 3.969 7.9004-0.399 0.2939-1.572-1.4673-3.717-2.2662-2.145-0.799-6.186-1.2485-6.775-3.2742 0.173-0.8241 0.602-1.1603 1.593-1.1512 0.99 0.0089 0.915-0.4277 1.371-1.2551z" fill="#637170"/>
  <path d="m93.544 53.937s-0.735-0.3756-1.2283-1.9032c-0.4938-1.5267-0.836 1.5888 1.2283 1.9032z" fill="#3F2E26"/>
  <path d="m80.988 51.431s-0.7349-0.3755-1.2283-1.9032c-0.4937-1.5267-0.8358 1.5889 1.2283 1.9032z" fill="#3F2E26"/>
  <path d="m118.26 55.984s1.197-0.2064 2.56-2.1357c1.363-1.9303 0.479 2.5986-2.56 2.1357z" fill="#3F2E26"/>
  <path d="m84.406 65.272s-0.8535-0.0269-2.0639 1.1098c-1.2101 1.1357 0.0373-1.8576 2.0639-1.1098z" fill="#3F2E26"/>
  <path d="m109.88 70.663s0.782 0.2168 1.56 1.5908c0.776 1.3749 0.491-1.6955-1.56-1.5908z" fill="#3F2E26"/>
  <path d="m17.165 75.018s4.0306 10.637 5.8585 30.744c1.8279 20.107 0.4909 44.49 0.4909 44.49l-40.278 5.144s1.1243-35.367 0.5646-48.336c-0.5597-12.969 2.6412-35.838 7.508-43.59 7.8598-5.2219 20.889-0.4483 25.856 11.548z" fill="#fff"/>
  <path d="m2.0703 49.642v6.6783h6.5081l0.60876-6.6783h-7.1169z" fill="#FDB082"/>
  <path d="m2.0707 49.642v6.6783h-7.5473l1.9736-14.083 5.5737 7.4049z" fill="#FDB082"/>
  <path d="m2.0703 49.642v6.6783h6.5081l0.60876-6.6783h-7.1169z" fill="#FDB082"/>
  <path d="m2.0707 49.642v6.6783h-7.5473l1.9736-14.083 5.5737 7.4049z" fill="#FFBD96"/>
  <path d="m17.369 32.428s0.3928 2.4972 1.0866 3.4136c0.6939 0.9165 1.6758 1.031 1.9474 1.4728 0.2717 0.4419 0.707 1.2519-0.4304 2.3549-1.1373 1.103-2.9227 0.6824-2.9227 0.6824s-0.9246-7.1775 0.3191-7.9237z" fill="#FFBD96"/>
  <path d="m16.48 22.582c-1.9294-6.8436-10.205-7.76-12.601-7.8893-5.8765-0.3273-14.437 1.3697-17.019 7.9924-2.1781 5.5639-3.2385 13.947 6.5982 22.583s22.943 8.0186 22.943 8.0186 2.1879-0.401 2.345-7.9908c0.1129-5.4444-1.2437-7.8893-1.368-12.624-0.1097-4.0764 0.3813-5.5459-0.8984-10.09z" fill="#FFBD96"/>
  <path d="m20.43 37.575c0.0196 0.3927-0.3633 0.7299-0.8543 0.7528-0.4909 0.0229-0.9033-0.2766-0.9213-0.6693-0.018-0.3928 0.365-0.7283 0.8543-0.7528s0.9033 0.2766 0.9213 0.6693z" fill="#FFC7AB"/>
  <path d="m20.403 37.323c0.1934 0.2441 0.3284 0.5293 0.3945 0.8337 0.0661 0.3043 0.0616 0.6198-0.0132 0.9222-0.2422 1.0718-1.1128 1.7084-3.0045 1.8557-0.5957-0.6988-0.1293-0.7446-0.1293-0.7446s3.8996-0.5335 2.7525-2.867zm-18.745-2.1487s-0.49911-2.4072-2.2468-2.5267c-1.7477-0.1194-3.0994 1.81-2.8949 3.9275 0.20456 2.1176 1.5055 5.2366 3.1452 6.1678 1.6397 0.9311 2.6183-0.8264 2.6183-0.8264l-0.62185-6.7422z" fill="#E98146"/>
  <path d="m1.6578 35.174s-1.1128-2.818-2.8589-1.9637c-1.7461 0.8542-2.4858 2.8588-1.2044 6.1137 1.2813 3.2549 3.6476 5.073 5.073 1.8737 1.4253-3.1992-1.0097-6.0237-1.0097-6.0237z" fill="#FDB082"/>
  <path d="m-2.0106 37.442s-0.89841-2.1274 0.5433-2.8998c1.4417-0.7724 2.5496 2.3221 1.8852 5.8912 0.13746-2.3041-0.34856-4.5035-1.0375-5.3577-0.68895-0.8543-1.9294 0.0491-1.391 2.3663z" fill="#E98146"/>
  <path d="m-1.1714 38.283c-0.16761-0.628-0.11506-1.2944 0.14892-1.8884 0.44674-0.9475 0.92459-0.6251 0.92459-0.6251l0.13583 0.3502s-1.0391-0.401-1.2093 2.1633z" fill="#E98146"/>
  <path d="m14.215 18.664c-1.1585-0.3532-2.3646-0.5249-3.5756-0.509-1.9261 0.0459-5.1106 1.1799-6.5278 6.2087s0.85423 10.686 0.8035 11.112c-0.05073 0.4254-2.6003 0.6807-2.6003 0.6807s-0.37148-2.9227-2.1683-3.7294c-1.7968-0.8068-4.1206 1.1782-4.0011 3.7065s1.6479 6.7847 4.114 7.1611c-1.2519 2.8441-5.2154 3.8702-5.2154 3.8702s-5.4558-3.1976-9.151-6.2283c-3.8146-3.1289-4.6606-6.1563-4.7899-8.2166-0.0393-0.6071-2.0047-4.9093-0.8837-9.0005 1.121-4.0911 3.4022-5.2922 3.4022-5.2922s1.3533-6.8174 10.879-8.7812c7.4916-1.5415 11.619 1.625 12.232 1.7363 0.61366 0.1113 8.3246 3.2925 7.4818 7.2822z" fill="#755142"/>
  <path d="m8.7587 14.532s-2.741-6.1956-10.426-6.4819c-7.6847-0.28637-7.7322 0.94096-11.295 1.9228-3.5625 0.9819-5.4215-1.3582-5.4215-1.3582s-0.1915 3.9274 3.8571 4.1238c-1.4728 0.8902-3.4218-0.7495-3.4218-0.7495s1.0506 1.7314 2.0341 2.1536 1.5939 0.3894 1.5939 0.3894l-1.8034 0.3502 0.6906 0.5286-1.1455 3.6558 25.337-4.5346z" fill="#755142"/>
  <path d="m-8.6945 63.47c-0.26674 0.3159 5.7079-1.8541 12.363-0.5416 6.6554 1.3124 13.496 12.09 13.496 12.09s-1.9065-5.0108-4.1697-9.7466c-2.2632-4.7359-4.6148-6.7782-4.4184-8.9514h-14.055s-1.427 5.019-3.2156 7.1496z" fill="#FFBD96"/>
  <path d="m48.524 85.522s-18.248 6.304-33.247 7.491c-14.999 1.187-20.156-1.883-20.275-8.2851-0.11904-6.402 5.5702-9.615 14.383-10.227 8.8124-0.6116 29.506 1.944 41.132-6e-3 7.3406 1.8163 12.448 7.4408-1.9931 11.027z" fill="#FDB082"/>
  <path d="m43.567 80.352c-9.7298 3.1826-14.455 6.6286-26.647 8.6031-12.192 1.9745-16.654-0.3714-17.249-5.9315s3.8147-8.7118 10.985-9.7973c7.1698-1.0855 25.418-3.1597 30.957-4.0736 4.7491 2.3745 7.1236 8.9045 1.9543 11.199z" fill="#FDB082" opacity=".5"/>
  <path d="m43.524 86.367c9.321-1.8737 17.512-5.2049 18.326-5.4203 2.8769-0.7613 6.1993-1.9563 8.3709-0.8704 4.3138 2.1598 9.3121 2.9683 12.475 3.2663 0.7406 0.0708 2.3339 0.3836 2.6378-0.6285 0.2774-0.9206-0.9383-1.6405-1.6169-1.9562-0.4308-0.2007-0.835-0.4692-1.2658-0.6816 1.012 0.478 2.3575-0.5134 3.1129-1.3426 0.5576-0.6107 1.0504-1.2805 1.4694-1.9946 0.1947-0.3334 0.3777-0.6904 0.416-1.074 0.0384-0.3865-0.0059-0.6816-0.3039-0.8439 0.4603 0.0502 0.779-0.0767 1.0062-0.0826 0.4927-0.0147 0.9825-0.0413 1.4753-0.0796 1.2304-0.0974 2.4726-0.2597 3.6794-0.5282 0.6167-0.1357 1.853-0.4367 1.7231-1.2983-0.0413-0.2803-0.2567-0.4367-0.5311-0.4898-2.5788-0.4957-9.3859-1.2569-14.122-1.3956-3.3548-0.1003-6.5916 0.3777-9.914 0.6934-2.9388 0.2803-5.8452 0.8025-8.7722 1.1832-3.4197 0.4426-18.185 2.4844-18.185 2.4844-1.2245 4.0217-0.6167 9.439 0.0177 11.059z" fill="#FDB082"/>
  <path d="m80.032 76.541c-0.1387 0.4456-0.1535 0.7082 0 1.1301 0.1534 0.4219 1.2363 1.6346 1.8264 2.0182l-2.7559-1.7703c0-0.6669 0.54-1.2009 0.9295-1.378z" fill="#F39863"/>
  <path d="m90.991 74.474c-0.0118-0.0059-0.2597-0.18-0.2184-0.6698l0.1387 0.0118c-0.0325 0.4042 0.1505 0.537 0.1593 0.5429l-0.0796 0.1151z" fill="#F39863"/>
  <path d="m87.698 74.743c-0.0118-0.0295-0.298-0.7111-0.2331-1.4901l0.1387 0.0118c-0.059 0.7436 0.2213 1.4193 0.2243 1.4252l-0.1299 0.0531z" fill="#F39863"/>
  <path d="m83.523 75.175c-0.0029-0.0059-0.1711-0.6049-0.2301-1.2924l0.1386-0.0118c0.0591 0.6757 0.2243 1.2599 0.2272 1.2658l-0.1357 0.0384z" fill="#F39863"/>
  <path d="m80.788 76.148c0.3895-0.0797 0.7789-0.1564 1.1655-0.2449 0.4042-0.0945 0.8468-0.183 1.2068-0.4043-0.1151 0.0561-0.1682 0.1948-0.18 0.3216-0.0236 0.304 0.1593 0.6226 0.4455 0.7229 0.1712 0.0591 0.36 0.0413 0.54 0.0236-0.2125 0.0384-0.4072 0.1712-0.5223 0.3571-0.115 0.1859-0.1445 0.419-0.0855 0.6255-0.0236-0.0826-0.1299-0.1416-0.1889-0.1977-0.0973-0.0944-0.1859-0.2006-0.2626-0.3098-0.0324-0.0443-0.0619-0.0885-0.1033-0.1269-0.115-0.1121-0.2744-0.1564-0.3953-0.2596-0.1181-0.1004-0.2479-0.1889-0.3925-0.2479-0.3953-0.1593-0.8084-0.2065-1.2274-0.2596z" fill="#F39863"/>
  <path d="m84.137 83.41c-0.4544 0-0.8852-0.1475-1.2304-0.4278l-0.0148-0.0119-0.0059-0.0177c-0.2271-0.6402-0.239-1.1094 0.4161-1.4694l0.0147-0.0088h0.0148c0.0383-3e-3 0.9206-0.0502 1.4959 0.54l0.0089 0.0088c0.1387 0.2124 0.1888 0.5016 0.1328 0.779-0.0502 0.239-0.1712 0.4308-0.3423 0.5458l-0.0118 0.0059-0.0118 3e-3c-0.1593 0.0354-0.3128 0.0531-0.4662 0.0531zm-1.1271-0.5252c0.4219 0.3334 0.9825 0.4573 1.5431 0.3393 0.1358-0.0944 0.2302-0.2508 0.2715-0.4485 0.0472-0.236 0.0059-0.4927-0.1092-0.6698-0.4898-0.4986-1.2481-0.4986-1.3661-0.4957-0.5459 0.3128-0.5429 0.6905-0.3393 1.2747z" fill="#fff"/>
  <path d="m82.989 82.985-0.0767-0.1181c0.5724-0.3747 0.3541-1.3012 0.3541-1.31l0.1357-0.0325c3e-3 0.0118 0.062 0.2567 0.0413 0.5606-0.0236 0.4102-0.1829 0.72-0.4544 0.9z" fill="#fff"/>
  <path d="m82.413 80.134c-0.0295-0.0177-2.8532-1.853-3.346-2.1539-0.658-0.4013-0.9825-1.0711-1.3543-2.1717l0.1328-0.0443c0.4662 1.3839 0.8143 1.8029 1.2923 2.095 0.4928 0.3009 3.3224 2.1362 3.349 2.1569l-0.0738 0.118z" fill="#F39863"/>
  <path d="m79.174 77.928-0.1386-0.0147c0.0826-0.838 0.478-1.1065 0.894-1.3868 0.1534-0.1033 0.3128-0.2124 0.4691-0.3541 0.5518-0.5075 0.4928-1.6405 0.4928-1.6523l0.1387-0.0089c0 0.0118 0.0177 0.304-0.0384 0.6669-0.0767 0.4927-0.2449 0.8616-0.4986 1.0976-0.1623 0.1475-0.3246 0.2597-0.4839 0.3659-0.4249 0.2862-0.7584 0.5134-0.8351 1.2864z" fill="#F39863"/>
  <path d="m80.629 78.972c-1.0947-1.2924-0.956-2.21-0.9501-2.2484l0.1386 0.0236c0 0.0089-0.1298 0.9 0.9177 2.1363l-0.1062 0.0885z" fill="#F39863"/>
  <path d="m94.691 72.477c-0.0059-0.0029-0.596-0.3216-1.7261-0.3216v-0.1416c1.1685 0 1.7675 0.3245 1.794 0.3393l-0.0679 0.1239z" fill="#fff"/>
  <path d="m81.039 78.863c-0.1682 0-0.2862-0.1003-0.2921-0.1033l-3e-3 -0.0029c-0.0265-0.0266-0.6756-0.6757-0.7789-1.0681l-0.0059-0.0236 0.0147-0.0384c0.0974-0.2449 0.1653-0.2892 0.7111-0.2685h0.0266l0.0177 0.0177c0.0236 0.0236 0.6108 0.5724 0.7701 1.1537l0.0089 0.0324-0.0207 0.0266c-0.118 0.1623-0.2538 0.2508-0.4013 0.2685-0.0147 0.0059-0.0324 0.0059-0.0472 0.0059zm-0.2006-0.2095c0.0118 0.0089 0.1091 0.0826 0.2331 0.0679 0.0973-0.0118 0.1947-0.0738 0.2832-0.1859-0.1446-0.4751-0.6049-0.9413-0.7022-1.0386-0.4633-0.0177-0.481 0.0147-0.5459 0.177 0.1092 0.3482 0.6905 0.9383 0.7318 0.9796z" fill="#FFC7C1"/>
  <path d="m80.741 78.63-0.115-0.0768c0.0059-0.0118 0.18-0.2596 0.7642-0.2212l-0.0089 0.1386c-0.4986-0.0324-0.6403 0.1564-0.6403 0.1594z" fill="#FFC7C1"/>
  <path d="m80.46 76.29-0.0325-0.1357c0.1535-0.0383 0.3423-0.0767 0.5636-0.121 0.8527-0.1711 2.1421-0.4307 2.5434-0.9235l0.0266-0.0324 0.0413 0.0059c0.658 0.1121 1.5845-0.0414 2.4018-0.1771 0.4721-0.0767 0.9147-0.1505 1.2363-0.1593l0.0029 0.1387c-0.3127 0.0088-0.7524 0.0796-1.2186 0.1593-0.8114 0.1357-1.732 0.2862-2.4077 0.1829-0.4573 0.5134-1.6907 0.7613-2.5994 0.9413-0.2184 0.0472-0.4072 0.0855-0.5577 0.1209z" fill="#F39863"/>
  <path d="m83.336 77.694c-0.8498-1.2658-1.6582-1.3661-2.3723-1.4547-0.062-0.0088-0.1239-0.0147-0.1859-0.0236l0.0177-0.1387c0.059 0.0089 0.121 0.0148 0.183 0.0237 0.7435 0.0914 1.5844 0.1947 2.4726 1.5166l-0.1151 0.0767z" fill="#F39863"/>
  <path d="m82.995 76.863c-0.1593 0-0.3068-0.0207-0.4455-0.0591l0.0384-0.1357c1.0504 0.2921 2.5168-0.7524 2.5316-0.7642l0.0826 0.1121c-0.0148 0.0118-0.3865 0.2774-0.897 0.5105-0.4898 0.2242-0.9294 0.3364-1.3101 0.3364z" fill="#F39863"/>
  <path d="m83.438 76.795c-0.2154-0.1446-0.4013-0.3571-0.5134-0.5872-0.1239-0.2508-0.1387-0.4839-0.0413-0.658l0.1239 0.0679c-0.1475 0.2685 0.1003 0.7819 0.5105 1.0592l-0.0797 0.1181z" fill="#F39863"/>
  <g opacity=".5">
   <path d="m45.768 75.682c-4.1654-4.151-6.816-10.344-7.2337-11.032-1.4754-2.4274-2.9703-5.448-5.1828-6.138-4.3969-1.3686-8.3705-4.1199-10.744-6.0079-0.5563-0.4414-1.8594-1.2806-1.3988-2.1779 0.4183-0.8169 1.7311-0.5078 2.4068-0.2759 0.4292 0.147 0.885 0.2298 1.3219 0.3687-1.0126-0.3408-1.2822-1.9132-1.2532-2.9834 0.0205-0.7892 0.1248-1.5761 0.309-2.3446 0.0867-0.3582 0.1971-0.7249 0.4245-1.0142 0.2294-0.2913 0.4551-0.465 0.7675-0.3794-0.3499-0.2701-0.4851-0.5682-0.6375-0.7226-0.3293-0.3362-0.6487-0.6786-0.9623-1.0311-0.782-0.8811-1.5292-1.8148-2.1817-2.7981-0.3345-0.5014-0.9859-1.5265-0.3264-2.0334 0.2139-0.1655 0.4656-0.1305 0.6895 0.0145 2.1021 1.3655 7.2888 5.3461 10.639 8.3844 2.3743 2.151 4.2848 4.6217 6.3616 7.0374 1.8362 2.1375 3.4901 4.4199 5.2519 6.6187 1.0635 1.3256 4.9634 4.5565 7.3156 7.4656 3.0835 3.8134 2.9005 5.1795 2.9005 5.1795 0.5469 4.8646-4.8928 7.431-8.4672 3.8692z" fill="#FDB082"/>
   <path d="m28.941 49.589c-0.1995 0.3983-0.3631 0.5887-0.7478 0.7774-0.3848 0.1888-1.9322 0.3065-2.592 0.1799l3.0674 0.6057c0.4412-0.4588 0.4232-1.1835 0.2724-1.563z" fill="#F39863"/>
   <path d="m22.77 40.916c0.012 0.0037 0.2977 0.048 0.5934-0.3163l-0.1032-0.0837c-0.2452 0.2996-0.4589 0.2699-0.4689 0.2681l-0.0213 0.1319z" fill="#F39863"/>
   <path d="m24.857 43.279c0.0277-0.0125 0.6756-0.292 1.1464-0.8709l-0.1032-0.0836c-0.4515 0.5506-1.0914 0.8299-1.0973 0.832l0.0541 0.1225z" fill="#F39863"/>
   <path d="m27.444 46.339c6e-3 -0.0022 0.518-0.3029 1.0135-0.7368l-0.0876-0.0999c-0.4877 0.4258-0.9879 0.7183-0.9939 0.7205l0.068 0.1162z" fill="#F39863"/>
   <path d="m28.681 48.819c-0.2152-0.3125-0.4324-0.623-0.6397-0.9397-0.2157-0.3324-0.4616-0.6862-0.5628-1.0766 0.0421 0.1147-0.0131 0.2452-0.089 0.3403-0.1848 0.2247-0.5216 0.3229-0.7848 0.2025-0.1568-0.0726-0.275-0.2097-0.3871-0.341 0.1207 0.1669 0.1668 0.3872 0.123 0.5912s-0.1778 0.3839-0.3551 0.4869c0.071-0.0412 0.1831-0.0115 0.2608-0.011 0.1294-5e-4 0.2606-0.015 0.3856-0.0394 0.0517-0.0089 0.1012-0.0199 0.155-0.0189 0.1534-1e-3 0.2923 0.074 0.4439 0.083 0.1476 0.0091 0.2954 0.0341 0.434 0.0891 0.3774 0.1521 0.6928 0.3929 1.0162 0.6336z" fill="#F39863"/>
   <path d="m21.572 51.598c0.3126 0.3007 0.7066 0.4843 1.1296 0.5199l0.018 0.0016 0.0157-0.0083c0.58-0.2901 0.8986-0.6051 0.6862-1.2861l-0.0043-0.0159-0.0102-0.0098c-0.0244-0.0274-0.6001-0.6436-1.3864-0.6184l-0.012 2e-4c-0.236 0.0544-0.4618 0.2202-0.6068 0.4481-0.1236 0.1976-0.1673 0.4096-0.1257 0.602l0.0042 0.0119 0.0062 0.0098c0.0861 0.1298 0.18 0.2435 0.2855 0.345zm1.123 0.3845c-0.5109-0.0498-0.9786-0.3355-1.2862-0.7877-0.0309-0.1547 0.0077-0.3248 0.1101-0.4881 0.1237-0.1937 0.322-0.3429 0.5183-0.3886 0.6669-0.0189 1.1886 0.4829 1.2678 0.563 0.1686 0.5764-0.0834 0.8342-0.61 1.1014z" fill="#fff"/>
   <path d="m22.643 52.065 0.1308-0.0305c-0.1458-0.6365 0.6175-1.1294 0.6233-1.1355l-0.0719-0.1122c-0.0098 0.0062-0.2124 0.1356-0.3993 0.3584-0.2552 0.2977-0.3506 0.6163-0.2829 0.9198z" fill="#fff"/>
   <path d="m24.926 50.485c0.0321 0.0074 3.1891 0.6133 3.7273 0.7323 0.7182 0.1594 1.3847-0.0867 2.3687-0.5978l-0.0621-0.1183c-1.2364 0.6435-1.7532 0.7014-2.2753 0.586-0.5382-0.119-3.6993-0.7288-3.7312-0.7322l-0.0274 0.13z" fill="#F39863"/>
   <path d="m28.614 51.111 0.1052 0.0816c0.4977-0.6311 0.4033-1.0775 0.3026-1.5456-0.0372-0.1726-0.0746-0.3531-0.0884-0.5541-0.0438-0.7142 0.7465-1.4546 0.7543-1.4628l-0.0895-0.0978c-0.0078 0.0081-0.2133 0.1973-0.4149 0.4841-0.2733 0.3898-0.4016 0.7548-0.3832 1.0851 0.014 0.2089 0.0514 0.3934 0.0908 0.5719 0.1029 0.4781 0.1819 0.855-0.2769 1.4376z" fill="#F39863"/>
   <path d="m26.922 50.867c1.6083-0.1647 2.1201-0.8877 2.1414-0.918l-0.111-0.0756c-0.0059 0.0061-0.5062 0.7051-2.0449 0.8625l0.0145 0.1311z" fill="#F39863"/>
   <path d="m21.545 37.094c0.0061 0.0019 0.6229 0.1731 1.4003 0.9209l0.0938-0.0974c-0.8039-0.7732-1.4307-0.9463-1.4587-0.9537l-0.0354 0.1302z" fill="#fff"/>
   <path d="m26.712 50.52c0.1157 0.1113 0.2633 0.1204 0.2693 0.1222h4e-3c0.0358-7e-4 0.912-0.0178 1.2427-0.2194l0.0197-0.0123 0.0152-0.0362c0.0951-0.2329 0.0777-0.3082-0.3115-0.6552l-0.0183-0.0176-0.0239 4e-4c-0.0318 7e-4 -0.799-0.0103-1.2932 0.2841l-0.0276 0.0165-0.0033 0.0319c-0.0262 0.1898 0.0086 0.3405 0.0984 0.4503 0.0062 0.0138 0.0184 0.0255 0.0285 0.0353zm0.2767-0.0114c-0.014-0.0017-0.1298-0.0154-0.2053-0.1075-0.0592-0.0726-0.0851-0.1796-0.0718-0.3153 0.4138-0.2312 1.0389-0.2473 1.1703-0.2499 0.3305 0.2944 0.3212 0.3284 0.2584 0.483-0.3055 0.1673-1.0959 0.1887-1.1516 0.1897z" fill="#FFC7C1"/>
   <path d="m27.071 50.557 0.1299 0.0234c0.0038-0.012 0.048-0.2977-0.3793-0.6579l-0.0857 0.1012c0.3646 0.3077 0.337 0.5313 0.3351 0.5333z" fill="#FFC7C1"/>
   <path d="m28.813 49.133 0.1121-0.0719c-0.0802-0.1279-0.1847-0.2792-0.3076-0.4561-0.4734-0.682-1.1887-1.7139-1.1387-2.3184l0.0032-0.0399-0.0323-0.0233c-0.5269-0.3583-1.0627-1.0769-1.5352-1.7111-0.274-0.3652-0.5297-0.7088-0.7451-0.9277l-0.0938 0.0935c0.2093 0.213 0.4649 0.5526 0.7329 0.9159 0.4684 0.6303 1.0022 1.343 1.5354 1.7191-0.0251 0.6558 0.6594 1.6425 1.1655 2.3677 0.1189 0.1769 0.2235 0.3283 0.3036 0.4522z" fill="#F39863"/>
   <path d="m25.904 48.196c1.4222-0.3085 2.0448 0.1574 2.5946 0.569 0.0485 0.0349 0.095 0.0719 0.1435 0.1068l0.0796-0.1071c-0.0465-0.033-0.093-0.0699-0.1415-0.1049-0.572-0.429-1.2189-0.9145-2.7046-0.5928l0.0284 0.129z" fill="#F39863"/>
   <path d="m26.69 47.85c0.1096 0.1055 0.2248 0.1889 0.3456 0.2543l0.0634-0.1188c-0.916-0.4941-1.2336-2.1831-1.236-2.201l-0.131 0.0225c0.0023 0.0179 0.0824 0.4466 0.2793 0.9447 0.1886 0.4784 0.4168 0.8465 0.6787 1.0983z" fill="#F39863"/>
   <path d="m26.43 47.51c0.2439 0.0431 0.5123 0.0199 0.7418-0.0642 0.2512-0.0905 0.4156-0.2411 0.4638-0.4253l-0.1302-0.0354c-0.0762 0.2824-0.5864 0.4716-1.0521 0.391l-0.0233 0.1339z" fill="#F39863"/>
  </g>
 </g>
 <defs>
  <clipPath id="clip0_54_11140">
   <path d="m0 11.562c0-6.2854 5.0953-11.381 11.381-11.381h130.62v127.46h-130.62c-6.2854 0-11.381-5.096-11.381-11.381v-104.7z" fill="#fff"/>
  </clipPath>
 </defs>
</svg>
