<?xml version="1.0" encoding="UTF-8"?>
<svg width="142" height="128" fill="none" viewBox="0 0 142 128" xmlns="http://www.w3.org/2000/svg">
 <g clip-path="url(#clip0_54_11883)">
  <path d="m0 11.42c0-6.2854 5.0953-11.381 11.381-11.381h130.62v127.46h-130.62c-6.2854 0-11.381-5.095-11.381-11.381v-104.7z" fill="#FFE6B5"/>
  <path d="m81.139 68.783 7.7138 20.341c1.5755 0.7918 2.9254 2.0281 3.8615 3.5387l-4.4813-24.294c-0.8026-4.1744-6.8734-3.7078-7.094 0.4147z" fill="#F39863"/>
  <path d="m71.169 63.961 0.4535 1.2805 17.282 24.029-10.585-27.933c-0.7424-1.9852-2.9495-2.9133-4.827-2.2484-1.9611 0.6944-3.0355 2.8623-2.3238 4.8719z" fill="#F39863"/>
  <path d="m59.997 65.273c0.1148 0.3241 0.2677 0.6529 0.4635 0.9482l11.335 17.946c15.925 4.5028 15.633 4.2436 16.97 4.9153l-20.308-28.247c-3.2111-4.5109-10.322-0.8207-8.4603 4.4369z" fill="#FDB082"/>
  <path d="m102.55 126.66c-0.971-8.665-8.8361-31.749-8.8361-31.749-0.9506-3.1554-3.4516-5.6037-6.6266-6.4868l-20.142-5.6028c-1.7961-0.4995-3.7218-0.1583-5.2368 0.9281l-10.994 7.8837c-3.4565 2.4785-1.1605 6.3635-1.1862 6.2003 1.4237 2.3468 4.5009 3.0078 6.7389 1.4571 5.5537-3.8479 7.8467-6.4132 11.173-4.4782l3.6811 2.1412c2.6686 1.5523 2.395 4.8167 2.3544 4.6587 0.2945 5.576-6.0438 8.966-10.497 5.634-4.1352-2.542-6.5992-6.623-10.528-4.77-2.5096 1.184-3.4498 4.273-2.0195 6.651 3.3921 5.64 4.5118 8.465 8.496 10.365l4.7218 2.252c2.6548 1.267 5.2268 1.116 5.0482 1.098 8.7904-0.147 10.947 10.486 11.87 11.603 0.923 1.117 8.1532 0.322 13.744-1.914 4.2584-1.704 7.8267-3.914 8.2387-5.871z" fill="#FEC4A1"/>
  <circle cx="142.16" cy="94.901" r="7.4377" fill="#D9D9D9"/>
  <path d="m-28.683 113.71c0.5863-0.158 21.236-1.307 54.251-1.967 25.821-0.515 57.029-0.501 88.924 0 19.514 0.307 40.798-4.046 57.349 1.611 6.623 3.388 10.967 32.095 15.824 40.12-51.664 2.318-155.87 4.636-214.16 0 5.5195-17.655-2.1875-39.764-2.1875-39.764z" fill="#965345"/>
  <path d="m18.698-6.7773c1.3244-1.2318 35.85-2.4116 106.57 1.4738 6.619 11.703 45.468 118.7 62.737 145.1-51.627 8.007-162.76 16.013-221 0 23.936-65.515 51.698-146.57 51.698-146.57z" fill="#BB8542"/>
  <path d="m16.212 122.04 23.788-122h-20.312l-42.688 122h39.212z" fill="#E2AF65"/>
  <path d="m24.126 0.58651c1.082-11.074-20.708-12.475-29.013-13.005l-7.7268 23.776-9.1439 105.71c3.9524-0.23 12.603-2.648 15.587-10.481 2.984-7.8335-4.1955-13.364-8.1582-15.15 1.8327 0.2088 6.1992-1.0141 9.0042-7.5758s0.09865-10.45-1.6052-11.574c2.0089-1.0437 6.1229-0.191 9.2925-7.5352 1.7381-4.0271 0.24017-7.974-1.2726-9.7589 6.2242-0.1942 8.316-2.876 8.3628-11.565 4.3005-1.3108 5.1231-11.175 0.56779-14.321 6.4714-4.0075 12.613-13.254 14.105-28.522z" fill="#915832"/>
  <path d="m11.413-7.46c0.6259 1.6674 1.0923 3.9922 1.5934 7.2602 1.859 12.124 2.0293 18.239-8.289 27.841 4.5552 3.1466 4.8856 12.414 0.58509 13.725-0.00101 0.1869-0.0019 0.3713-0.00278 0.5533-0.04001 8.2797-0.05567 11.52-9.7661 11.45 1.5128 1.7849 5.5664 7.4887 2.9537 11.012-2.6126 3.5232-7.2501 6.3952-9.2591 7.4389 1.7039 1.1241 4.7784 5.7694 1.9734 12.331-2.805 6.5617-7.8728 7.0551-9.7055 6.8463 3.9628 1.7859 9.6005 7.2702 6.6165 15.104-2.0958 5.501-12.197 9.81-19.394 11.967-2.4706 0.582-4.7894 1.067-6.7672 1.443l-11.226-62.396-3.9924-47.16 31.688-14.029 20.205-6.9112c3.9637 0.5383 8.6872 1.6102 12.787 3.5237z" clip-rule="evenodd" fill="#A4693D" fill-rule="evenodd"/>
  <path d="m74 122.04v-122h-33.906l-24.094 122h58z" fill="#FFE6B5"/>
  <path d="m74 122.04v-122h30.417l27.583 122h-58z" fill="#E2AF65"/>
  <path d="m98.069 37.358s2.3827 13.479 4.0007 21.822c1.899 9.7857 5.002 24.136 5.002 24.136" opacity=".45" stroke="#6C3E09" stroke-linecap="round" stroke-width=".87502"/>
  <path d="m92.365 62.962s0.0489 3.0855 1.0179 11.529c1.1366 9.9031 3.1217 24.45 3.1217 24.45" opacity=".45" stroke="#6C3E09" stroke-linecap="round" stroke-width=".87502"/>
  <path d="m132.48 122.04-27.479-122h23.975l43.025 122h-39.521z" fill="#FFE6B5"/>
  <path d="m120.73-0.041293c-1.758-9.1103 16.855-12.617 23.759-13.316l7.178 19.573 10.907 87.81c-3.301-0.0686-10.585-1.8147-13.315-8.2498s3.08-11.267 6.327-12.878c-1.521 0.231-5.197-0.6523-7.739-6.0332-2.541-5.3809-0.407-8.7055 0.978-9.6952-1.707-0.8073-5.108 0.0312-7.978-5.9905-1.574-3.3019-0.448-6.6375 0.757-8.172-5.193 0.0317-7.019-2.1381-7.329-9.3775-3.624-0.9586-6.366-9.1424-2.668-11.906-8.897-7.6805-9.062-12.355-10.877-21.764z" fill="#915832"/>
  <path d="m131.06-8.7194c-0.47 1.409-0.786 3.3609-1.102 6.1001-1.172 10.161-1.124 15.263 7.773 22.943-3.698 2.7638-3.685 10.497-0.061 11.456 7e-3 0.1558 0.013 0.3095 0.02 0.4611 0.291 6.8985 0.404 9.5985 8.494 9.2378-1.205 1.5345-4.406 6.4138-2.119 9.2685 2.287 2.8548 6.241 5.104 7.947 5.9113-1.385 0.9897-3.802 4.9564-1.261 10.337 2.542 5.3809 6.78 5.6345 8.301 5.4036-3.247 1.6114-7.774 6.357-5.044 12.792 1.072 2.5281 4.095 5.0759 7.569 7.2421 4.912 1.41 10.299 2.4451 14.23 3.0552l7.923-54.177 1.772-37.528-26.842-10.705-17.054-5.1317c-3.286 0.5718-7.189 1.6119-10.546 3.3339z" clip-rule="evenodd" fill="#A4693D" fill-rule="evenodd"/>
  <path d="m126 39.578s1.427 9.1064 3.232 14.701c2.116 6.5614 7.265 16.089 7.265 16.089" opacity=".45" stroke="#6C3E09" stroke-linecap="round" stroke-width=".87502"/>
  <path d="m23.5 40.039s-1.9434 9.7251-3.3907 15.422c-2.3619 9.2971-7.1096 16.735-7.1096 16.735" opacity=".45" stroke="#6C3E09" stroke-linecap="round" stroke-width=".87502"/>
  <path d="m59.625 42.039s-0.2614 9.3382-0.7067 15.134c-0.5224 6.7983-1.9184 16.804-1.9184 16.804" opacity=".45" stroke="#6C3E09" stroke-linecap="round" stroke-width=".87502"/>
  <ellipse transform="rotate(-18.291 60.431 21.11)" cx="60.431" cy="21.11" rx="1.0808" ry="1.1173" fill="#75D451"/>
  <path d="m60.675 22.504c0.4474-0.7808-0.1678-2.0134-0.9508-1.8459" stroke="#209C46" stroke-width=".87502"/>
  <ellipse transform="rotate(-18.291 58.795 22.55)" cx="58.795" cy="22.55" rx="2.1746" ry="2.0871" fill="#75D451"/>
  <path d="m57.655 20.661c0.727 0 1.3982 0.1683 1.6778 1.3424" stroke="#209C46" stroke-width=".87502"/>
  <path d="m59.612 22.507c0.4483 0.4647 0.7285 1.1358 0 2.0134" stroke="#209C46" stroke-width=".87502"/>
  <ellipse transform="rotate(-18.291 56.817 23.655)" cx="56.817" cy="23.655" rx="3.1319" ry="3.3556" fill="#75D451"/>
  <path d="m56.593 20.27c0.3355 0.0187 1.5659 0.783 1.5659 2.1812" stroke="#209C46" stroke-width=".87502"/>
  <path d="m58.215 24.296c0.4475 0.6152 0.6152 1.5659 0.1119 2.1252" stroke="#209C46" stroke-width=".87502"/>
  <ellipse transform="rotate(-18.291 55.474 25.191)" cx="55.474" cy="25.191" rx="3.1319" ry="3.3556" fill="#75D451"/>
  <path d="m58.483 25.755c0.9288 1.5899-0.2611 3.403-1.8023 3.9125-1.5413 0.5094-3.9144-0.6432-3.9144-2.3226-0.5459-1.6513 0.3965-3.148 1.9377-3.6575 1.5413-0.5094 3.2332 0.4163 3.779 2.0676z" fill="#75D451"/>
  <path d="m58.83 25.989c0 2.1692-1.3823 2.8607-3.0271 2.8922-1.6088 0.0309-3.1249-0.6266-3.1249-2.6512 0-1.5973 1.4093-2.9404 3.0272-2.9404s3.1248 1.102 3.1248 2.6994z" fill="#209C46"/>
  <circle cx="55.586" cy="23.625" r="4.586" fill="#7FE858"/>
  <path d="m53.385 22.508c-0.1797 0.1662-0.1992 0.1924-0.4874 0.1753-0.0985-0.0456-0.1554-0.0661-0.232-0.1526-0.0772-0.0871-0.095-0.1933-0.1262-0.2416-0.0149-0.2358-3e-3 -0.2524 0.0691-0.4409l0.0029-0.0519c-0.785 0.0391-0.8849 1.754-0.3691 2.2576 0.3755 0.3666 0.8288 0.2266 1.0567-0.1649 0.2389-0.4109 0.2573-1.322 0.086-1.381z" clip-rule="evenodd" fill="#020201" fill-rule="evenodd"/>
  <path d="m52.608 21.847c-0.0721 0.1885-0.084 0.2051-0.0692 0.4409 0.0312 0.0483 0.049 0.1545 0.1262 0.2416 0.0766 0.0865 0.1335 0.1069 0.232 0.1526 0.2883 0.0171 0.3077-0.0092 0.4874-0.1754 0.0419-0.1908-0.1171-0.4091-0.2204-0.5056-0.097-0.0907-0.4001-0.2246-0.556-0.1541z" clip-rule="evenodd" fill="#FEFEFE" fill-rule="evenodd"/>
  <path d="m58.447 22.215c-0.0235-0.1292-0.2486-0.3496-0.3439-0.3339-0.1361 0.0038-0.2581 0.0678-0.2893 0.2094l-0.0061 0.0491c-6e-4 0.0092-1e-4 0.0166-4e-4 0.026-0.0102 0.3446 0.1028 0.5677 0.4695 0.3321 0.2118-0.136 0.1661-0.0272 0.1702-0.2827z" clip-rule="evenodd" fill="#FEFEFE" fill-rule="evenodd"/>
  <path d="m58.065 22.736c-0.1857-0.0907-0.2906-0.0908-0.3864-0.3409-0.0826-0.2157-0.0482-0.4507 0.0848-0.5579 0.0307-0.0684 0.0143-0.0178 0.0134-0.0842-0.3351 0.023-0.4802 0.1513-0.5997 0.3658-0.1054 0.1891-0.2479 0.4626-0.2015 0.6582l-0.0178 0.0422c-0.1301 0.4635 0.2397 1.786 1.0789 1.529 0.4758-0.1458 0.6399-0.8656 0.6386-1.3058-6e-4 -0.1032-0.0086-0.2062-0.0239-0.3082-0.0518-0.3604-0.0722-0.2655-0.1269-0.2644-0.0693 0.1719-0.2239 0.2386-0.4595 0.2662z" clip-rule="evenodd" fill="#000" fill-rule="evenodd"/>
  <path d="m58.066 22.736c0.2357-0.0276 0.3903-0.0942 0.4596-0.2662 0.0178-0.0768 0.0324-0.0619 0.0076-0.1451-0.0078-0.0219-0.0188-0.0425-0.0329-0.061-0.0127-0.0208-0.0307-0.0379-0.0522-0.0494-0.0041 0.2554 0.0415 0.1467-0.1702 0.2828-0.3667 0.2356-0.4797 0.0125-0.4695-0.3321 2e-4 -0.0095-3e-4 -0.0168 4e-4 -0.026l6e-3 -0.049c0.0313-0.1417 0.1533-0.2057 0.2894-0.2095-0.0826-0.081-0.0163-0.0556-0.154-0.0626-0.0626-3e-3 -0.1252 0.0035-0.1858 0.0194-0.133 0.1072-0.1674 0.3421-0.0848 0.558 0.0959 0.2499 0.2008 0.25 0.3864 0.3407z" clip-rule="evenodd" fill="#F3F4F7" fill-rule="evenodd"/>
  <ellipse transform="matrix(-.94948 -.31384 -.31384 .94948 98.107 68.457)" cx="1.597" cy="1.651" rx="1.597" ry="1.651" fill="#75D451"/>
  <path d="m95.711 71.583c-0.6611-1.1538 0.2479-2.975 1.4049-2.7276" stroke="#209C46" stroke-width=".87502"/>
  <ellipse transform="matrix(-.94948 -.31384 -.31384 .94948 102.51 69.73)" cx="3.2132" cy="3.084" rx="3.2132" ry="3.084" fill="#75D451"/>
  <path d="m100.17 68.858c-1.0745 0-2.0662 0.2486-2.4794 1.9834" stroke="#209C46" stroke-width=".87502"/>
  <path d="m97.281 71.586c-0.6624 0.6866-1.0765 1.6783 0 2.9751" stroke="#209C46" stroke-width=".87502"/>
  <ellipse transform="matrix(-.94948 -.31384 -.31384 .94948 107.36 70.029)" cx="4.6278" cy="4.9584" rx="4.6278" ry="4.9584" fill="#75D451"/>
  <path d="m101.74 68.281c-0.496 0.0275-2.3138 1.1569-2.3138 3.2229" stroke="#209C46" stroke-width=".87502"/>
  <path d="m99.348 74.231c-0.6612 0.909-0.9091 2.3139-0.1653 3.1403" stroke="#209C46" stroke-width=".87502"/>
  <ellipse transform="matrix(-.94948 -.31384 -.31384 .94948 109.35 72.298)" cx="4.6278" cy="4.9584" rx="4.6278" ry="4.9584" fill="#75D451"/>
  <path d="m98.95 76.386c-1.3724 2.3493 0.3858 5.0284 2.6634 5.7812 2.277 0.7527 5.784-0.9505 5.784-3.4319 0.806-2.44-0.586-4.6517-2.863-5.4045-2.278-0.7527-4.7778 0.6151-5.5844 3.0552z" fill="#75D451"/>
  <path d="m98.438 76.732c0 3.2053 2.0431 4.2271 4.4731 4.2737 2.377 0.0457 4.617-0.9259 4.617-3.9175 0-2.3603-2.082-4.3449-4.473-4.3449-2.39 0-4.6171 1.6284-4.6171 3.9887z" fill="#209C46"/>
  <circle transform="matrix(-1 0 0 1 110.01 66.463)" cx="6.7765" cy="6.7765" r="6.7765" fill="#7FE858"/>
  <path d="m106.48 71.588c0.265 0.2456 0.294 0.2844 0.72 0.2591 0.145-0.0674 0.229-0.0976 0.342-0.2254 0.115-0.1288 0.141-0.2857 0.187-0.3571 0.022-0.3485 4e-3 -0.3729-0.102-0.6515l-4e-3 -0.0767c1.16 0.0577 1.307 2.5918 0.545 3.3359-0.555 0.5418-1.225 0.3349-1.561-0.2436-0.353-0.6072-0.381-1.9535-0.127-2.0407z" clip-rule="evenodd" fill="#020201" fill-rule="evenodd"/>
  <path d="m107.63 70.613c0.106 0.2786 0.124 0.3031 0.102 0.6516-0.046 0.0713-0.073 0.2283-0.187 0.357-0.113 0.1278-0.197 0.158-0.342 0.2254-0.426 0.0253-0.455-0.0135-0.721-0.2591-0.061-0.2819 0.174-0.6046 0.326-0.7472 0.143-0.1339 0.591-0.3317 0.822-0.2277z" clip-rule="evenodd" fill="#FEFEFE" fill-rule="evenodd"/>
  <path d="m99.003 71.154c0.0348-0.1909 0.3674-0.5166 0.5082-0.4933 0.2011 0.0056 0.3813 0.1001 0.4275 0.3094l0.0089 0.0725c1e-3 0.0136 2e-4 0.0245 7e-4 0.0383 0.015 0.5093-0.1519 0.839-0.6938 0.4909-0.3129-0.201-0.2453-0.0403-0.2515-0.4178z" clip-rule="evenodd" fill="#FEFEFE" fill-rule="evenodd"/>
  <path d="m99.567 71.925c0.2743-0.134 0.4293-0.1342 0.5706-0.5037 0.122-0.3187 0.072-0.6659-0.125-0.8245-0.0455-0.101-0.0212-0.0261-0.0199-0.1242 0.4949 0.0339 0.7099 0.2235 0.8859 0.5403 0.156 0.2795 0.367 0.6837 0.298 0.9726l0.026 0.0625c0.193 0.6848-0.354 2.639-1.5939 2.2592-0.703-0.2154-0.9455-1.279-0.9436-1.9294 1e-3 -0.1525 0.0128-0.3047 0.0353-0.4555 0.0766-0.5324 0.1067-0.3922 0.1875-0.3907 0.1024 0.2541 0.3309 0.3526 0.6791 0.3934z" clip-rule="evenodd" fill="#000" fill-rule="evenodd"/>
  <path d="m99.568 71.925c-0.3482-0.0407-0.5766-0.1392-0.6791-0.3933-0.0263-0.1135-0.0479-0.0915-0.0113-0.2144 0.0115-0.0324 0.0279-0.0628 0.0487-0.0902 0.0187-0.0307 0.0453-0.056 0.0771-0.073 0.0061 0.3775-0.0613 0.2168 0.2515 0.418 0.5419 0.348 0.7089 0.0184 0.6938-0.4908-3e-4 -0.014 4e-4 -0.0248-7e-4 -0.0384l-0.0088-0.0725c-0.0462-0.2092-0.2266-0.3038-0.4276-0.3094 0.122-0.1197 0.0241-0.0823 0.2276-0.0925 0.0924-0.0046 0.1849 0.0051 0.2741 0.0286 0.197 0.1584 0.248 0.5055 0.126 0.8245-0.142 0.3692-0.297 0.3695-0.5713 0.5034z" clip-rule="evenodd" fill="#F3F4F7" fill-rule="evenodd"/>
  <ellipse transform="matrix(-.94948 -.31384 -.31384 .94948 90.619 24.323)" cx="1.0282" cy="1.063" rx="1.0282" ry="1.063" fill="#75D451"/>
  <path d="m89.076 26.336c-0.4257-0.7429 0.1596-1.9155 0.9045-1.7562" stroke="#209C46" stroke-width=".87502"/>
  <ellipse transform="matrix(-.94948 -.31384 -.31384 .94948 93.453 25.143)" cx="2.0688" cy="1.9856" rx="2.0688" ry="1.9856" fill="#75D451"/>
  <path d="m91.949 24.582c-0.6917 0-1.3301 0.1601-1.5962 1.2771" stroke="#209C46" stroke-width=".87502"/>
  <path d="m90.087 26.338c-0.4265 0.442-0.6931 1.0805 0 1.9154" stroke="#209C46" stroke-width=".87502"/>
  <ellipse transform="matrix(-.94948 -.31384 -.31384 .94948 96.579 25.335)" cx="2.9796" cy="3.1924" rx="2.9796" ry="3.1924" fill="#75D451"/>
  <path d="m92.961 24.21c-0.3192 0.0177-1.4898 0.7449-1.4898 2.075" stroke="#209C46" stroke-width=".87502"/>
  <path d="m91.418 28.04c-0.4257 0.5853-0.5853 1.4898-0.1064 2.0219" stroke="#209C46" stroke-width=".87502"/>
  <ellipse transform="matrix(-.94948 -.31384 -.31384 .94948 97.856 26.796)" cx="2.9796" cy="3.1924" rx="2.9796" ry="3.1924" fill="#75D451"/>
  <path d="m91.162 29.428c-0.8836 1.5126 0.2484 3.2374 1.7147 3.7221 1.4662 0.4847 3.7239-0.6119 3.7239-2.2095 0.5193-1.571-0.3772-2.995-1.8434-3.4796-1.4663-0.4847-3.0759 0.396-3.5952 1.967z" fill="#75D451"/>
  <path d="m90.832 29.651c0 2.0637 1.3152 2.7216 2.88 2.7516 1.5304 0.0294 2.9728-0.5962 2.9728-2.5223 0-1.5196-1.3407-2.7974-2.8799-2.7974-1.5393 0-2.9729 1.0485-2.9729 2.5681z" fill="#209C46"/>
  <circle transform="matrix(-1 0 0 1 98.281 23.039)" cx="4.363" cy="4.363" r="4.363" fill="#7FE858"/>
  <path d="m96.013 26.339c0.171 0.1581 0.1895 0.1831 0.4637 0.1668 0.0937-0.0434 0.1478-0.0629 0.2207-0.1452 0.0734-0.0829 0.0904-0.1839 0.1201-0.2298 0.0141-0.2244 0.0028-0.2402-0.0658-0.4195l-0.0028-0.0494c0.7469 0.0372 0.8419 1.6687 0.3512 2.1478-0.3572 0.3488-0.7885 0.2156-1.0053-0.1568-0.2273-0.391-0.2448-1.2578-0.0818-1.3139z" clip-rule="evenodd" fill="#020201" fill-rule="evenodd"/>
  <path d="m96.751 25.711c0.0686 0.1793 0.08 0.1951 0.0658 0.4195-0.0297 0.0459-0.0466 0.1469-0.1201 0.2298-0.0728 0.0823-0.127 0.1017-0.2207 0.1452-0.2742 0.0162-0.2927-0.0088-0.4636-0.1669-0.0398-0.1815 0.1114-0.3892 0.2097-0.481 0.0922-0.0862 0.3806-0.2136 0.5289-0.1466z" clip-rule="evenodd" fill="#FEFEFE" fill-rule="evenodd"/>
  <path d="m91.196 26.06c0.0224-0.1229 0.2366-0.3326 0.3272-0.3177 0.1295 0.0036 0.2455 0.0645 0.2753 0.1992l0.0057 0.0467c6e-4 0.0088 1e-4 0.0158 4e-4 0.0247 0.0097 0.3279-0.0978 0.5401-0.4467 0.316-0.2014-0.1294-0.1579-0.0259-0.1619-0.2689z" clip-rule="evenodd" fill="#FEFEFE" fill-rule="evenodd"/>
  <path d="m91.56 26.556c0.1767-0.0863 0.2764-0.0864 0.3676-0.3243 0.0786-0.2052 0.0459-0.4288-0.0806-0.5308-0.0293-0.0651-0.0137-0.0169-0.0129-0.08 0.3189 0.0218 0.4569 0.1439 0.5706 0.3479 0.1003 0.1799 0.2358 0.4402 0.1917 0.6262l0.017 0.0402c0.1237 0.4409-0.2281 1.6991-1.0265 1.4546-0.4526-0.1387-0.6088-0.8235-0.6075-1.2423 6e-4 -0.0982 0.0082-0.1962 0.0227-0.2932 0.0493-0.3428 0.0687-0.2526 0.1207-0.2516 0.066 0.1636 0.213 0.227 0.4372 0.2533z" clip-rule="evenodd" fill="#000" fill-rule="evenodd"/>
  <path d="m91.559 26.556c-0.2242-0.0263-0.3713-0.0897-0.4372-0.2533-0.017-0.0731-0.0308-0.0589-0.0073-0.138 0.0074-0.0209 0.018-0.0404 0.0314-0.0581 0.012-0.0198 0.0291-0.036 0.0496-0.047 0.0039 0.2431-0.0395 0.1396 0.1619 0.2691 0.3489 0.2241 0.4564 0.0119 0.4467-0.316-2e-4 -9e-3 2e-4 -0.0159-4e-4 -0.0247l-0.0057-0.0466c-0.0298-0.1348-0.1459-0.1957-0.2753-0.1993 0.0785-0.077 0.0155-0.0529 0.1465-0.0595 0.0595-3e-3 0.1191 0.0033 0.1768 0.0184 0.1264 0.102 0.1592 0.3255 0.0806 0.5308-0.0912 0.2378-0.191 0.2379-0.3676 0.3242z" clip-rule="evenodd" fill="#F3F4F7" fill-rule="evenodd"/>
  <path d="m125.99 93.85c-2.11-3.3528-3.664-2.8964-3.76-7.4605-0.096-4.5639-0.046-8.5455-1.646-11.561-1.597-3.0158-3.162-1.4356-3.72-7.1891-0.557-5.7547 2.277-9.9456-7e-3 -14.001-1.772-3.1475-1.341-4.931-2.419-9.7861-0.717-6.0545-3.692-7.1621-5.226-11.31-1.532-4.15 0.494-6.5647 0.192-10.581-0.303-4.0169-0.625-4.6198-1.52-7.5608-0.894-2.9421-1.388-9.8241-1.483-11.259-0.094-1.4346 1.247 9.2427 2.941 10.559 1.694 1.3158 2.284 3.9543 2.602 10.821 0.317 6.8655 0.727 7.8277 2.262 11.974 1.534 4.1477 5.718 7.3666 5.7 13.911-0.016 6.5484-2.305 8.4499 0.699 14.746 3.004 6.2954 4.861 4.7831 5.018 11.346 0.158 6.5645 0.367 17.35 0.367 17.35z" fill="#854A32"/>
  <path d="m23.222 91.832c2.4933-3.2597 5.3735-2.9263 5.2563-7.2944-0.1167-4.368-2.998-9.4384-1.1315-12.362 1.8629-2.9246 2.7382-1.3664 3.1434-6.8839 0.4047-5.5185-0.3848-8.0454 0.7618-13.5 0.7342-3.4924-0.26-2.9827 0.8501-7.6537 0.591-5.8093 3.5963-7.3534 5.3197-11.359 1.7222-4.0079-0.967-6.2671-0.7947-10.116 0.1736-3.8499 0.549-4.4346 1.5276-7.2702 0.9775-2.8366 1.2437-9.4318 1.2882-10.806 0.0446-1.3746-1.0943 8.8721-3.1688 10.174-2.0733 1.3009-2.682 3.8395-2.7266 10.416-0.0428 6.5751 0.6529 7.1879-1.0722 11.192-1.724 4.0057-5.9086 6.1712-5.5444 12.431 0.3616 6.2634 3.3559 8.0251-0.1155 14.123-3.4707 6.0969-5.1855 8.9786-5.0418 15.261 0.1431 6.2832 1.4484 13.65 1.4484 13.65z" fill="#854A32"/>
  <path d="m73.874 95.963c-1.8955-3.5515-3.6043-5.563-3.0725-10.004 0.5313-4.4412 4.03-5.5624 2.3873-9.0786-0.7995-1.7115-2.3168-4.606-2.1366-10.267 0.1809-5.6616 3.2682-7.8485 1.9537-11.274-1.3095-3.4261 1.1244-6.4765-0.1956-10.307-1.2963-3.7618-1.6214-6.327-1.379-10.462 0.1805-3.0786 1.1067-4.6038 1.318-7.6864 0.2092-3.0514 0.6292-4.8716 0.0374-7.8515-0.5905-2.9809 1.3347-8.3877 1.4297-9.7928 0.095-1.4051-1.4091 8.8208 0.3063 10.338 1.7144 1.5164 1.585 5.7171 1.5862 7.3173-0.6057 6.7052-2.6606 8.0627-1.5203 12.303 1.1392 4.2411 3.2985 7.5294 2.3621 13.876-0.9344 6.3504-4.519 11.089-2.0324 17.623 2.4861 6.5329 2.5612 7.1305 1.0688 11.976-1.9855 6.447-2.1131 13.29-2.1131 13.29z" fill="#854A32"/>
  <rect x="-23.214" y="108.46" width="196" height="4.3751" fill="url(#paint0_linear_54_11883)"/>
  <rect x="123.57" y="108.46" width="49.22" height="4.3751" fill="#FDD747"/>
  <rect x="-23.214" y="116.34" width="196" height="4.3751" fill="url(#paint1_linear_54_11883)"/>
  <rect x="123.57" y="116.34" width="49.22" height="4.3751" fill="#FDD747"/>
  <path d="m3.4746 105.84 4.047-1.75 4.047 1.75v14.875h-8.094v-14.875z" fill="url(#paint2_linear_54_11883)"/>
  <path d="m16.819 105.84 4.047-1.75 4.047 1.75v14.875h-8.094v-14.875z" fill="url(#paint3_linear_54_11883)"/>
  <path d="m30.163 105.84 4.047-1.75 4.0469 1.75v14.875h-8.0939v-14.875z" fill="url(#paint4_linear_54_11883)"/>
  <path d="m43.507 105.84 4.047-1.75 4.047 1.75v14.875h-8.094v-14.875z" fill="url(#paint5_linear_54_11883)"/>
  <path d="m56.851 105.84 4.047-1.75 4.0469 1.75v14.875h-8.0939v-14.875z" fill="url(#paint6_linear_54_11883)"/>
  <path d="m70.195 105.84 4.047-1.75 4.047 1.75v14.875h-8.094v-14.875z" fill="url(#paint7_linear_54_11883)"/>
  <path d="m83.539 105.84 4.0469-1.75 4.047 1.75v14.875h-8.0939v-14.875z" fill="url(#paint8_linear_54_11883)"/>
  <path d="m96.883 105.84 4.0472-1.75 4.047 1.75v14.875h-8.0942v-14.875z" fill="url(#paint9_linear_54_11883)"/>
  <path d="m110.23 105.84 4.047-1.75 4.046 1.75v14.875h-8.093v-14.875z" fill="url(#paint10_linear_54_11883)"/>
  <path d="m123.57 105.84 4.047-1.75 4.047 1.75v14.875h-8.094v-14.875z" fill="url(#paint11_linear_54_11883)"/>
  <path d="m136.92 105.84 4.047-1.75 4.047 1.75v14.875h-8.094v-14.875z" fill="url(#paint12_linear_54_11883)"/>
  <path d="m-22.628 135.49c-2.268 1.588-2.317 5.032-2.0579 6.555 7.9888 2.076 24.577 5.835 27.02 4.259 2.4431-1.576 4.3755-5.249 5.0364-6.889 1.5591 1.89 6.563 0.47 6.1856-3.25 4.83 1.877 10.566-2.253 12.83-4.553 1.279 0.821 4.3074 1.785 6.1882-0.925 5.7282 1.915 6.7813-1.886 8.3796-3.23 0.5672 2.776 7.9876 2.897 8.9255 1.596 6.04 2.293 21.403 2.307 28.33 2.028 2.3373 1.672 7.1582 2.414 12.844 2.287 5.6587-0.126 13.543-3.209 16.393-5.666 4.928 1.666 9.246 0.206 10.789-0.732 1.825 1.681 7.463-0.013 8.388-1.041 2.428 2.089 9.044 3.793 10.829 0.775 1.475 1.337 2.988 1.855 3.978 1.789 0.991-0.066 3.347 1.197 11.266 5.594 6.335 3.517 16.075 6.804 20.153 8.008v-8.727c-1.294-4.315-9.073-10.663-12.469-11.755-3.542-1.139-8.657-1.966-11.176-0.819-1.424-2.595-7.145-5.934-11.958-6.278-4.813-0.345-8.749 1.022-12.255 3.207-3.616-5.233-13.431-4.434-16.654-1.163-3.635-1.135-7.947-1.104-8.4365 0-3.1729-1.002-8.1076-2.905-9.9702 0.669-2.7121-3.066-11.722-6.677-17.42-0.37-8.1078-6.58-14.462-3.012-18.516-0.299-6.6476-2.445-10.876-1.962-13.041-1.022-3.0142-2.861-13.563-4.618-16.322 0-3.7342-2.319-6.4878-1.823-7.779 0-1.4243-1.845-5.933-0.763-6.046 1.691-1.9252-0.138-2.963 0.791-3.2412 1.273-0.74684-0.464-2.991-2.651-7.3663-2.964-5.4691-0.392-6.7929 2.964-8.4576 5.798-4.8317 0.064-9.5012 1.371-9.765 7.097-3.4034 0.03-5.5042 2.752-4.6051 7.057z" fill="#9DBD4B"/>
  <path d="m54.336 135.14c2.675 8.619 12.865 9.417 19.338 1.298 13.789-17.299-15.56-32.579-19.6-10.181-0.6217 2.928-0.5305 6.017 0.262 8.883z" fill="#ABCB5D" opacity=".3"/>
  <path d="m106.66 133.93c2.502 8.098 12.031 8.847 18.085 1.22 12.895-16.251-14.552-30.605-18.33-9.564-0.581 2.751-0.496 5.652 0.245 8.344z" fill="#ABCB5D" opacity=".3"/>
  <path d="m56.575 133.88c2.1288 6.948 10.238 7.59 15.39 1.046 10.973-13.944-12.383-26.26-15.598-8.206-0.4948 2.36-0.4223 4.85 0.2085 7.16z" fill="#BCD84D" opacity=".3"/>
  <path d="m108.73 132.73c2.006 6.53 9.648 7.134 14.504 0.983 10.341-13.105-11.671-24.681-14.701-7.712-0.466 2.218-0.398 4.558 0.197 6.729z" fill="#BCD84D" opacity=".3"/>
  <path d="m37.194 82.718c7.1708-0.422 10.742 4.1915 10.031 9.4666 4.5884-1.688 11.14 2.3494 13.445 8.6791 2.3049 6.33-8.0031 6.225-13.445 5.381 2.561 3.517 5.9116 11.225-1.1738 13.926-7.0855 2.701-6.9361-7.385-5.9757-12.766-0.9604 5.1-3.9696 14.391-8.3233 10.762-5.4421-4.537-0.8536-9.917 1.7074-13.61-7.1495 0-13.232 0.316-12.378-6.5411 0.6829-5.486 11.026-2.2858 16.113 0-2.9879-4.9234-7.1708-14.876 0-15.298z" fill="#AEFF7C"/>
  <path d="m56.649 87.544c-1.8317-0.3951-3.6368 0.7695-4.0319 2.6011s1.0851 2.1736 2.9167 2.5687c1.8317 0.3951 3.3212 0.6937 3.7163-1.1379 0.3951-1.8317-0.7695-3.6368-2.6011-4.0319z" fill="#AEFF7C"/>
  <path d="m58.294 117.68c1.1137-1.507 1.1386-3.377 0.0558-4.177-1.0829-0.801-1.9985 0.412-3.1122 1.918-1.1136 1.507-2.0036 2.738-0.9207 3.539 1.0828 0.8 2.8635 0.227 3.9771-1.28z" fill="#AEFF7C"/>
  <circle transform="matrix(-1 1.9897e-8 1.9897e-8 1 46.518 96.14)" cx="4.8276" cy="4.8276" r="4.8276" fill="#fff"/>
  <ellipse transform="rotate(-18.291 56.947 82.39)" cx="56.947" cy="82.39" rx="2.784" ry="2.8781" fill="#75D451"/>
  <path d="m57.578 85.982c1.1524-2.0114-0.4322-5.1863-2.4491-4.7549" stroke="#209C46" stroke-width=".87502"/>
  <ellipse transform="rotate(-18.291 52.733 86.098)" cx="52.733" cy="86.098" rx="5.6014" ry="5.3762" fill="#75D451"/>
  <path d="m49.799 81.232c1.8728 0 3.6016 0.4333 4.3219 3.4577" stroke="#209C46" stroke-width=".87502"/>
  <path d="m54.841 85.987c1.1549 1.1968 1.8767 2.9256 0 5.1862" stroke="#209C46" stroke-width=".87502"/>
  <ellipse transform="rotate(-18.291 47.638 88.946)" cx="47.638" cy="88.946" rx="8.0674" ry="8.6437" fill="#75D451"/>
  <path d="m47.06 80.225c0.8644 0.048 4.0338 2.0169 4.0338 5.6184" stroke="#209C46" stroke-width=".87502"/>
  <path d="m51.239 90.597c1.1524 1.5847 1.5846 4.0337 0.2881 5.4743" stroke="#209C46" stroke-width=".87502"/>
  <ellipse transform="rotate(-18.291 44.18 92.902)" cx="44.18" cy="92.902" rx="8.0674" ry="8.6437" fill="#75D451"/>
  <path d="m47.322 94.353c2.3925 4.0955-0.6726 8.7656-4.6426 10.078-3.9701 1.313-10.083-1.656-10.083-5.9821-1.406-4.2536 1.0213-8.1091 4.9914-9.4213 3.97-1.3123 8.3282 1.0722 9.7342 5.3258z" fill="#75D451"/>
  <path d="m48.214 94.957c0 5.5872-3.5609 7.3692-7.7977 7.4502-4.1438 0.079-8.0491-1.614-8.0491-6.8293 0-4.1146 3.63-7.5743 7.7976-7.5743s8.0492 2.8389 8.0492 6.9534z" fill="#209C46"/>
  <circle cx="39.858" cy="88.868" r="11.813" fill="#7FE858"/>
  <path d="m34.188 85.989c-0.4629 0.4281-0.513 0.4958-1.2555 0.4517-0.2536-0.1176-0.4002-0.1703-0.5975-0.393-0.1989-0.2245-0.2448-0.4981-0.3251-0.6224-0.0383-0.6075-0.0077-0.6502 0.1781-1.1359l0.0075-0.1336c-2.0223 0.1006-2.2794 4.5182-0.9508 5.8153 0.9671 0.9444 2.1348 0.5838 2.7217-0.4246 0.6155-1.0586 0.6629-3.4055 0.2216-3.5575z" clip-rule="evenodd" fill="#020201" fill-rule="evenodd"/>
  <path d="m32.188 84.29c-0.1858 0.4856-0.2165 0.5283-0.1782 1.1358 0.0804 0.1243 0.1263 0.3979 0.3251 0.6223 0.1973 0.2228 0.3439 0.2755 0.5976 0.393 0.7425 0.0441 0.7925-0.0236 1.2554-0.4517 0.1078-0.4914-0.3017-1.0539-0.5677-1.3025-0.2499-0.2334-1.0307-0.5783-1.4322-0.3969z" clip-rule="evenodd" fill="#FEFEFE" fill-rule="evenodd"/>
  <path d="m47.23 85.234c-0.0606-0.3327-0.6406-0.9005-0.886-0.86-0.3506 0.0098-0.6647 0.1746-0.7453 0.5393l-0.0155 0.1264c-0.0016 0.0238-3e-4 0.0428-1e-3 0.0669-0.0263 0.8879 0.2646 1.4625 1.2093 0.8557 0.5455-0.3505 0.4278-0.0702 0.4385-0.7283z" clip-rule="evenodd" fill="#FEFEFE" fill-rule="evenodd"/>
  <path d="m46.246 86.577c-0.4783-0.2336-0.7485-0.234-0.9952-0.878-0.2129-0.5557-0.1243-1.161 0.2182-1.4373 0.0793-0.1761 0.037-0.0456 0.0347-0.2166-0.8633 0.0591-1.237 0.3896-1.5449 0.942-0.2715 0.4872-0.6383 1.1918-0.519 1.6954l-0.0459 0.1089c-0.3351 1.1938 0.6175 4.6004 2.7792 3.9384 1.2256-0.3755 1.6483-2.2297 1.645-3.3635-0.0017-0.2658-0.0223-0.5311-0.0615-0.794-0.1336-0.9282-0.1861-0.6837-0.3269-0.6811-0.1786 0.443-0.5767 0.6147-1.1837 0.6858z" clip-rule="evenodd" fill="#000" fill-rule="evenodd"/>
  <path d="m46.245 86.578c0.607-0.0711 1.0052-0.2428 1.1837-0.6858 0.046-0.1978 0.0836-0.1594 0.0197-0.3737-0.02-0.0564-0.0485-0.1094-0.0848-0.1572-0.0326-0.0536-0.079-0.0976-0.1344-0.1273-0.0106 0.6581 0.1069 0.3779-0.4384 0.7286-0.9447 0.6068-1.2358 0.0323-1.2095-0.8555 6e-4 -0.0244-6e-4 -0.0432 0.0012-0.0669l0.0154-0.1264c0.0805-0.3648 0.395-0.5296 0.7454-0.5394-0.2126-0.2086-0.042-0.1434-0.3967-0.1613-0.1611-0.0079-0.3225 9e-3 -0.4786 0.05-0.3424 0.276-0.4312 0.8812-0.2183 1.4372 0.2469 0.6437 0.5171 0.6441 0.9953 0.8777z" clip-rule="evenodd" fill="#F3F4F7" fill-rule="evenodd"/>
  <ellipse transform="rotate(-18.291 16.121 73.361)" cx="16.121" cy="73.361" rx="1.7329" ry="1.7916" fill="#75D451"/>
  <path d="m16.514 75.596c0.7174-1.252-0.269-3.2283-1.5244-2.9598" stroke="#209C46" stroke-width=".87502"/>
  <ellipse transform="rotate(-18.291 13.498 75.669)" cx="13.498" cy="75.669" rx="3.4867" ry="3.3465" fill="#75D451"/>
  <path d="m11.671 72.639c1.1658 0 2.2419 0.2697 2.6902 2.1522" stroke="#209C46" stroke-width=".87502"/>
  <path d="m14.81 75.6c0.7188 0.745 1.1681 1.8211 0 3.2283" stroke="#209C46" stroke-width=".87502"/>
  <ellipse transform="rotate(-18.291 10.326 77.442)" cx="10.326" cy="77.442" rx="5.0218" ry="5.3805" fill="#75D451"/>
  <path d="m9.9668 72.013c0.538 0.0299 2.5109 1.2554 2.5109 3.4973" stroke="#209C46" stroke-width=".87502"/>
  <path d="m12.567 78.469c0.7174 0.9865 0.9864 2.5109 0.1793 3.4077" stroke="#209C46" stroke-width=".87502"/>
  <ellipse transform="rotate(-18.291 8.1734 79.904)" cx="8.1734" cy="79.904" rx="5.0218" ry="5.3805" fill="#75D451"/>
  <path d="m12.999 80.808c1.4893 2.5493-0.4186 5.4564-2.8899 6.2732-2.4713 0.8169-6.2764-1.0313-6.2764-3.7239-0.8752-2.6478 0.63574-5.0477 3.107-5.8645 2.4713-0.8169 5.1841 0.6674 6.0593 3.3152z" fill="#75D451"/>
  <path d="m13.555 81.183c0 3.4781-2.2165 4.5869-4.8538 4.6375-2.5794 0.0495-5.0104-1.0048-5.0104-4.251 0-2.5613 2.2596-4.7148 4.8538-4.7148 2.5942 0 5.0104 1.7671 5.0104 4.3283z" fill="#209C46"/>
  <circle cx="8.3533" cy="77.393" r="7.3533" fill="#7FE858"/>
  <path d="m4.8234 75.601c-0.28813 0.2664-0.3193 0.3086-0.78149 0.2811-0.1579-0.0732-0.24916-0.106-0.37194-0.2446-0.12379-0.1398-0.15237-0.3101-0.2024-0.3875-0.02383-0.3781-0.00475-0.4047 0.11091-0.707l0.00463-0.0831c-1.2588 0.0626-1.4189 2.8124-0.59185 3.6198 0.60202 0.5879 1.3288 0.3634 1.6942-0.2643 0.38313-0.6589 0.4126-2.1198 0.13791-2.2144z" clip-rule="evenodd" fill="#020201" fill-rule="evenodd"/>
  <path d="m3.5789 74.543c-0.11566 0.3023-0.13475 0.3288-0.11091 0.707 0.05003 0.0774 0.07861 0.2477 0.2024 0.3874 0.12277 0.1386 0.21404 0.1714 0.37194 0.2446 0.46219 0.0275 0.49336-0.0147 0.78149-0.2812 0.06709-0.3059-0.18783-0.656-0.35341-0.8108-0.15554-0.1453-0.64155-0.36-0.89151-0.247z" clip-rule="evenodd" fill="#FEFEFE" fill-rule="evenodd"/>
  <path d="m12.941 75.131c-0.0377-0.2071-0.3987-0.5606-0.5515-0.5353-0.2182 0.0061-0.4137 0.1086-0.4639 0.3357l-0.0096 0.0787c-0.0011 0.0147-2e-4 0.0266-7e-4 0.0416-0.0163 0.5527 0.1648 0.9104 0.7528 0.5326 0.3396-0.2181 0.2663-0.0437 0.2729-0.4533z" clip-rule="evenodd" fill="#FEFEFE" fill-rule="evenodd"/>
  <path d="m12.329 75.967c-0.2977-0.1454-0.4659-0.1456-0.6195-0.5465-0.1325-0.3459-0.0773-0.7227 0.1359-0.8947 0.0493-0.1096 0.023-0.0284 0.0216-0.1348-0.5374 0.0368-0.77 0.2425-0.9617 0.5863-0.169 0.3033-0.3973 0.7419-0.323 1.0554l-0.0286 0.0678c-0.2086 0.7431 0.3844 2.8636 1.73 2.4515 0.7629-0.2337 1.026-1.3879 1.0239-2.0936-1e-3 -0.1655-0.0138-0.3307-0.0382-0.4943-0.0832-0.5777-0.1159-0.4256-0.2036-0.424-0.1111 0.2758-0.359 0.3827-0.7368 0.4269z" clip-rule="evenodd" fill="#000" fill-rule="evenodd"/>
  <path d="m12.328 75.968c0.3779-0.0443 0.6257-0.1511 0.7369-0.4269 0.0286-0.1231 0.052-0.0992 0.0122-0.2326-0.0124-0.0351-0.0302-0.0681-0.0528-0.0978-0.0203-0.0334-0.0491-0.0608-0.0836-0.0792-0.0066 0.4096 0.0665 0.2352-0.2729 0.4535-0.5881 0.3777-0.7693 0.02-0.7529-0.5326 4e-4 -0.0151-4e-4 -0.0268 7e-4 -0.0416l0.0096-0.0787c0.0502-0.227 0.2459-0.3297 0.464-0.3357-0.1324-0.1299-0.0262-0.0893-0.2469-0.1005-0.1003-0.0048-0.2007 0.0056-0.2979 0.0312-0.2132 0.1718-0.2685 0.5485-0.1359 0.8946 0.1536 0.4007 0.3218 0.4009 0.6195 0.5463z" clip-rule="evenodd" fill="#F3F4F7" fill-rule="evenodd"/>
  <path d="m46.938 18.04s-1.0893 15.862-2.9448 25.708c-2.1763 11.548-7.993 28.543-7.993 28.543" opacity=".45" stroke="#6C3E09" stroke-linecap="round" stroke-width=".87502"/>
  <path d="m80.24 123.56c-10.125-3.864-13.498-9.297-15.288-17.922-0.362-1.744-7.0731-6.3159-8.5169-7.2862-2.2756-1.5294-3.8233-4.7972-0.2292-7.1308 6.7878-4.4077 19.55 6.9468 19.55 6.9468l0.8739-5.7139c0.1622-1.0604 0.9402-1.8924 1.9415-2.1628l-0.0519-0.0685-13.217 0.5864c-2.3674 0.1052-4.3716-1.7288-4.4767-4.0963-0.1052-2.3674 1.7288-4.3715 4.0963-4.4767l9.5747-0.4249-3.2883-3.4965-8.1845-0.7037c-2.361-0.203-4.1103-2.2816-3.9073-4.6426s2.2816-4.1103 4.6426-3.9073l11.032 0.9487c1.4994 0.129 2.9013 0.797 3.9458 1.8805l8.9977 9.3334 2.721-0.1208c2.5483-0.1131 5.0223 0.8742 6.7927 2.7106l7.7124 7.9999c3.051 3.1654 4.513 8.3947 5.3 12.721 2.625 14.441-13.346 23.379-18.453 22.68-4.7838-0.656-10.756-3.289-11.492-3.62 0.0429 0.013 0.0488 0.013-0.0765-0.035v1e-3z" fill="#FDB082"/>
  <path d="m80.318 123.6c-0.0827-0.027-0.3119-0.109-0.0768-0.035 0 0 0.0269 0.012 0.0768 0.035z" fill="#fff"/>
  <path d="m74.559 105.83s2.0452 7.799 10.586 9.42c0 0-3.4832-1.573-2.3172-6.483l-1.5343-0.652s-3.3922 2.909-6.7352-2.285h2e-4z" fill="#F39863"/>
  <path d="m61.16 88.187 27.945-1.2273c0.5242-0.0216 0.8603 0.5505 0.5862 0.998l-1.0704 1.7461-24.043 1.0715s-2.3622-0.1893-3.4181-2.5882l-1e-4 -1e-4z" fill="#F39863"/>
  <path d="m72.2 95.518s-0.9492 5.8406 2.5757 10.103l0.817-7.0804-3.3928-3.0224 1e-4 2e-4z" fill="#F39863"/>
  <path d="m83.866 77.208-12.391 1.3924 2.9764 3.2129 13.286-0.5896-3.8713-4.0157z" fill="#F39863"/>
  <path d="m86.915 116.01 1.9952-12.773c0.1325-0.779 0.7878-1.362 1.577-1.403l5.3072-0.273c0.5158-0.027 0.9155 0.448 0.7923 0.949-0.3096 1.261-1.095 3.193-2.9445 2.558l-1.562-0.028-1.3123 8.371s-1.6095 3.264-3.8529 2.599z" fill="#F39863"/>
  <path d="m79.58 108.4 2.4046-12.348c0.1325-0.779 0.7878-1.3619 1.5771-1.4025l11.129-0.9275c0.5158-0.0266 0.9155 0.4481 0.7923 0.9497-0.3096 1.2609-1.095 3.1927-2.9445 2.558l-7.7937 0.2003-1.3123 8.3707s-1.6095 3.264-3.8529 2.599z" fill="#F39863"/>
  <path d="m80.164 123.53c0.0172 0 0.0342 0.018 0.0772 0.028 0.0084 8e-3 0.0172 0 0.0257 9e-3 0.1031 0.036 0.0943 0.045 0.0427 0.026 0.7369 0.325 6.7095 2.965 11.5 3.623 5.1011 0.698 21.082-8.243 18.453-22.674-0.785-4.334-2.244-9.561-5.296-12.727l-2.56-2.6557c3.052 3.1657 4.519 8.4015 5.295 12.726 2.638 14.44-13.342 23.381-18.443 22.683-4.7908-0.658-10.764-3.298-11.5-3.622-0.0772-0.028-0.2317-0.082-0.1456-0.064-3.474-1.333-6.15-2.859-8.2339-4.634 2.3211 2.971 5.6902 5.322 10.786 7.281z" fill="#F39863"/>
  <path d="m84.21 99.661-1.6662 10.981c-0.3583 2.343 1.2501 4.532 3.5926 4.89 2.3425 0.359 4.5319-1.25 4.8902-3.592l1.2054-7.881 2.2762 0.042" stroke="#F39863" stroke-linecap="round" stroke-linejoin="round"/>
  <path d="m87.737 81.224-8.9977-9.3335c-1.0445-1.0834-2.4463-1.7516-3.9458-1.8804l-11.032-0.9487c-2.361-0.2031-4.4396 1.5463-4.6425 3.9074-0.203 2.361 1.5464 4.4396 3.9075 4.6425l8.1844 0.7037 3.2411 3.4986" stroke="#F39863" stroke-linecap="round" stroke-linejoin="round"/>
  <path d="m88.013 89.801-8.866 0.3934c-1.2701 0.0563-2.3235 1.0023-2.5158 2.2589l-1.7287 11.302c-0.3583 2.342 1.2502 4.532 3.5926 4.89 2.3425 0.358 4.5319-1.25 4.8902-3.593l0.8249-5.3927c0.2206-1.4422 1.4375-2.5226 2.8957-2.5709l6.991-0.2314" stroke="#F39863" stroke-linecap="round" stroke-linejoin="round"/>
  <path d="m88.014 89.802-22.709 1.0078c-2.3673 0.105-4.3716-1.7289-4.4767-4.0963-0.105-2.3673 1.7289-4.3716 4.0963-4.4767l25.534-1.1331c2.5483-0.1131 5.0224 0.8742 6.7928 2.7106l7.712 7.9999c3.052 3.1654 4.514 8.3942 5.3 12.72 2.625 14.441-13.346 23.38-18.453 22.68-5.1067-0.699-11.568-3.654-11.568-3.654m0 0c0.365 0.139-0.3558-0.113 0 0zm0 0c-10.125-3.864-13.498-9.297-15.288-17.921-0.362-1.744-7.0733-6.3167-8.5168-7.287-2.2755-1.5295-3.8234-4.797-0.2294-7.1309 6.7879-4.4077 19.55 6.9468 19.55 6.9468" stroke="#F39863" stroke-linecap="round" stroke-linejoin="round"/>
  <path d="m80.164 123.53c-0.0865-0.019 0.0688 0.036 0.1464 0.063-0.017-0.017-0.0343-0.018-0.0428-0.027-0.0086-9e-3 -0.0175 0-0.0259-9e-3 -0.0432-9e-3 -0.0604-0.027-0.0777-0.027z" fill="#4878FF"/>
  <path d="m80.164 123.53c-0.0865-0.019 0.0688 0.036 0.1464 0.063-0.017-0.017-0.0343-0.018-0.0428-0.027-0.0086-9e-3 -0.0175 0-0.0259-9e-3 -0.0432-9e-3 -0.0604-0.027-0.0777-0.027z" fill="#4878FF"/>
 </g>
 <defs>
  <linearGradient id="paint0_linear_54_11883" x1="-27.311" x2="176.58" y1="109.78" y2="109.78" gradientUnits="userSpaceOnUse">
   <stop stop-color="#fff" offset="0"/>
   <stop stop-color="#FBD406" offset=".48958"/>
   <stop stop-color="#fff" offset="1"/>
  </linearGradient>
  <linearGradient id="paint1_linear_54_11883" x1="-27.311" x2="176.58" y1="117.65" y2="117.65" gradientUnits="userSpaceOnUse">
   <stop stop-color="#fff" offset="0"/>
   <stop stop-color="#FBD406" offset=".48958"/>
   <stop stop-color="#fff" offset="1"/>
  </linearGradient>
  <linearGradient id="paint2_linear_54_11883" x1="7.5216" x2="7.5216" y1="104.09" y2="120.71" gradientUnits="userSpaceOnUse">
   <stop stop-color="#FBD23E" offset="0"/>
   <stop stop-color="#FFFA84" offset=".52604"/>
   <stop stop-color="#FFEFB5" offset="1"/>
  </linearGradient>
  <linearGradient id="paint3_linear_54_11883" x1="20.866" x2="20.866" y1="104.09" y2="120.71" gradientUnits="userSpaceOnUse">
   <stop stop-color="#FBD23E" offset="0"/>
   <stop stop-color="#FFFA84" offset=".52604"/>
   <stop stop-color="#FFEFB5" offset="1"/>
  </linearGradient>
  <linearGradient id="paint4_linear_54_11883" x1="34.21" x2="34.21" y1="104.09" y2="120.71" gradientUnits="userSpaceOnUse">
   <stop stop-color="#FBD23E" offset="0"/>
   <stop stop-color="#FFFA84" offset=".52604"/>
   <stop stop-color="#FFEFB5" offset="1"/>
  </linearGradient>
  <linearGradient id="paint5_linear_54_11883" x1="47.554" x2="47.554" y1="104.09" y2="120.71" gradientUnits="userSpaceOnUse">
   <stop stop-color="#FBD23E" offset="0"/>
   <stop stop-color="#FFFA84" offset=".52604"/>
   <stop stop-color="#FFEFB5" offset="1"/>
  </linearGradient>
  <linearGradient id="paint6_linear_54_11883" x1="60.898" x2="60.898" y1="104.09" y2="120.71" gradientUnits="userSpaceOnUse">
   <stop stop-color="#FBD23E" offset="0"/>
   <stop stop-color="#FFFA84" offset=".52604"/>
   <stop stop-color="#FFEFB5" offset="1"/>
  </linearGradient>
  <linearGradient id="paint7_linear_54_11883" x1="74.242" x2="74.242" y1="104.09" y2="120.71" gradientUnits="userSpaceOnUse">
   <stop stop-color="#FBD23E" offset="0"/>
   <stop stop-color="#FFFA84" offset=".52604"/>
   <stop stop-color="#FFEFB5" offset="1"/>
  </linearGradient>
  <linearGradient id="paint8_linear_54_11883" x1="87.586" x2="87.586" y1="104.09" y2="120.71" gradientUnits="userSpaceOnUse">
   <stop stop-color="#FBD23E" offset="0"/>
   <stop stop-color="#FFFA84" offset=".52604"/>
   <stop stop-color="#FFEFB5" offset="1"/>
  </linearGradient>
  <linearGradient id="paint9_linear_54_11883" x1="100.93" x2="100.93" y1="104.09" y2="120.71" gradientUnits="userSpaceOnUse">
   <stop stop-color="#FBD23E" offset="0"/>
   <stop stop-color="#FFFA84" offset=".52604"/>
   <stop stop-color="#FFEFB5" offset="1"/>
  </linearGradient>
  <linearGradient id="paint10_linear_54_11883" x1="114.28" x2="114.28" y1="104.09" y2="120.71" gradientUnits="userSpaceOnUse">
   <stop stop-color="#FBD23E" offset="0"/>
   <stop stop-color="#FFFA84" offset=".52604"/>
   <stop stop-color="#FFEFB5" offset="1"/>
  </linearGradient>
  <linearGradient id="paint11_linear_54_11883" x1="127.62" x2="127.62" y1="104.09" y2="120.71" gradientUnits="userSpaceOnUse">
   <stop stop-color="#FBD23E" offset="0"/>
   <stop stop-color="#FFFA84" offset=".52604"/>
   <stop stop-color="#FFEFB5" offset="1"/>
  </linearGradient>
  <linearGradient id="paint12_linear_54_11883" x1="140.96" x2="140.96" y1="104.09" y2="120.71" gradientUnits="userSpaceOnUse">
   <stop stop-color="#FBD23E" offset="0"/>
   <stop stop-color="#FFFA84" offset=".52604"/>
   <stop stop-color="#FFEFB5" offset="1"/>
  </linearGradient>
  <clipPath id="clip0_54_11883">
   <path d="m0 11.42c0-6.2854 5.0953-11.381 11.381-11.381h130.62v127.46h-130.62c-6.2854 0-11.381-5.095-11.381-11.381v-104.7z" fill="#fff"/>
  </clipPath>
 </defs>
</svg>
