<?xml version="1.0" encoding="UTF-8"?>
<svg width="142" height="129" fill="none" viewBox="0 0 142 129" xmlns="http://www.w3.org/2000/svg">
 <g clip-path="url(#clip0_54_12482)">
  <path d="m0 12.349c0-6.285 5.095-11.38 11.38-11.38h130.62v127.46h-130.62c-6.285 0-11.38-5.095-11.38-11.38v-104.7z" fill="#FFE6B5"/>
  <path d="m81.139 69.713 7.7138 20.341c1.5755 0.7918 2.9254 2.0281 3.8615 3.5387l-4.4813-24.294c-0.8026-4.1744-6.8734-3.7078-7.094 0.4147z" fill="#F39863"/>
  <path d="m71.169 64.891 0.4535 1.2805 17.282 24.029-10.585-27.933c-0.7424-1.9852-2.9495-2.9133-4.827-2.2484-1.9611 0.6944-3.0355 2.8623-2.3238 4.8719z" fill="#F39863"/>
  <path d="m59.997 66.203c0.1148 0.3241 0.2677 0.6529 0.4635 0.9482l11.335 17.946c15.925 4.5028 15.633 4.2436 16.97 4.9153l-20.308-28.247c-3.2111-4.511-10.322-0.8207-8.4603 4.4369z" fill="#FDB082"/>
  <path d="m102.55 127.6c-0.971-8.665-8.8361-31.75-8.8361-31.75-0.9506-3.1554-3.4516-5.6037-6.6266-6.4868l-20.142-5.6028c-1.7961-0.4995-3.7218-0.1583-5.2368 0.9281l-10.994 7.8836c-3.4565 2.4786-1.1605 6.3636-1.1862 6.2004 1.4237 2.3461 4.5009 3.0071 6.7389 1.4571 5.5537-3.8479 7.8467-6.4132 11.173-4.4782l3.6811 2.1412c2.6686 1.5523 2.395 4.817 2.3544 4.659 0.2945 5.576-6.0438 8.966-10.497 5.634-4.1352-2.543-6.5992-6.624-10.528-4.77-2.5096 1.184-3.4498 4.272-2.0195 6.651 3.3921 5.639 4.5118 8.465 8.496 10.365l4.7218 2.252c2.6548 1.266 5.2268 1.116 5.0482 1.098 8.7904-0.147 10.947 10.486 11.87 11.603 0.923 1.117 8.1532 0.322 13.744-1.915 4.2584-1.703 7.8267-3.913 8.2387-5.87z" fill="#FDB082"/>
  <path d="m48.744-6.1089c1.7067-13.199-24.293-15.687-34.202-16.63l-10.125 28.137-14.875 126.05c4.7339-0.127 15.167-2.695 19.027-11.95 3.8598-9.254-4.5175-16.133-9.1886-18.416 2.1833 0.318 7.4494-0.981 11.048-8.7219 3.5984-7.7404 0.5077-12.49-1.4874-13.898 2.4407-1.1729 7.3275 0 11.391-8.6624 2.2282-4.7499 0.5846-9.5246-1.1575-11.715 7.4488 0 10.05-3.1283 10.43-13.515 5.1905-1.4067 6.5419-13.169 1.2131-17.101 7.8865-4.5499 15.574-15.375 17.928-33.575z" fill="#915832"/>
  <path d="m33.844-16.204c0.6863 2.017 1.1572 4.814 1.6345 8.7402 1.7704 14.564 1.7458 21.882-10.949 32.977 5.3288 3.9319 5.3781 15.025 0.1876 16.431-0.0082 0.2234-0.0161 0.4439-0.024 0.6615-0.3567 9.8975-0.4963 13.771-12.103 13.325 1.7421 2.1906 6.3757 9.1611 3.1207 13.276-3.2551 4.1148-8.9067 7.3755-11.347 8.5485 1.9951 1.4075 5.4978 7.0759 1.8994 14.816-3.5984 7.7406-9.6758 8.1416-11.859 7.8236 4.6711 2.283 11.207 9.05 7.3471 18.304-2.7104 6.499-14.944 11.272-23.629 13.584-2.9776 0.604-5.7698 1.097-8.1499 1.473l-11.094-75.015-3.0143-56.535 38.406-15.589 24.418-7.5104c4.7186 0.7914 10.325 2.2491 15.156 4.6895z" clip-rule="evenodd" fill="#A4693D" fill-rule="evenodd"/>
  <path d="m93.272-5.9866c-3.0853-12.946 23.37-19.127 33.22-20.559l11.503 27.603 21.087 125.16c-4.735 0.106-15.282-1.943-19.594-10.995-4.313-9.052 3.714-16.338 8.267-18.848-2.165 0.4254-7.489-0.6119-11.466-8.165-3.976-7.5531-1.124-12.45 0.799-13.954-2.496-1.0509-7.318 0.3621-11.805-8.0888-2.46-4.6341-1.055-9.4841 0.577-11.758-7.44 0.3681-10.192-2.6278-11.085-12.983-5.253-1.1485-9.692-12.706-4.564-16.896-13.227-10.454-13.753-17.142-16.94-30.513z" fill="#915832"/>
  <path d="m107.54-19.064c-0.585 2.0483-0.918 4.8651-1.2 8.8099-1.049 14.634-0.662 21.942 12.565 32.396-5.128 4.1905-4.629 15.272 0.625 16.421 0.019 0.2227 0.038 0.4425 0.056 0.6595 0.846 9.8678 1.176 13.73 12.747 12.71-1.632 2.274-5.915 9.465-2.461 13.414 3.455 3.9489 9.261 6.9264 11.756 7.9772-1.923 1.5044-5.141 7.339-1.164 14.892 3.976 7.5531 10.066 7.6531 12.231 7.2276-4.553 2.511-10.746 9.5935-6.434 18.646 1.694 3.556 6.184 7.019 11.298 9.908 7.127 1.715 14.91 2.864 20.581 3.494l7.989-78.133 0.206-53.888-39.131-13.673-24.758-6.294c-4.674 1.0237-10.202 2.7567-14.906 5.4331z" clip-rule="evenodd" fill="#A4693D" fill-rule="evenodd"/>
  <path d="m94.701 14.428s3.4175 19.334 5.7388 31.302c2.723 14.036 7.174 34.621 7.174 34.621" opacity=".45" stroke="#6C3E09" stroke-linecap="round" stroke-width="1.2551"/>
  <path d="m58.5 12.504s-1.6035 17.373-4 26c-2.5 9-6 21-6 21" opacity=".45" stroke="#6C3E09" stroke-linecap="round" stroke-width="1.2551"/>
  <path d="m50.5 12.504s-3.603 22.054-9 37c-6.5 18-16.75 40.404-16.75 40.404" opacity=".45" stroke="#6C3E09" stroke-linecap="round" stroke-width="1.2551"/>
  <rect x="-71.267" y="108.42" width="281.15" height="6.2756" fill="url(#paint0_linear_54_12482)"/>
  <rect x="139.28" y="108.42" width="70.601" height="6.2756" fill="#FDD747"/>
  <rect x="-71.267" y="119.72" width="281.15" height="6.2756" fill="url(#paint1_linear_54_12482)"/>
  <rect x="139.28" y="119.72" width="70.601" height="6.2756" fill="#FDD747"/>
  <path d="m5.7949 104.73 5.805-2.51 5.8049 2.51v21.338h-11.61v-21.338z" fill="url(#paint2_linear_54_12482)"/>
  <path d="m24.936 104.73 5.805-2.51 5.805 2.51v21.338h-11.61v-21.338z" fill="url(#paint3_linear_54_12482)"/>
  <path d="m44.076 104.73 5.8049-2.51 5.805 2.51v21.338h-11.61v-21.338z" fill="url(#paint4_linear_54_12482)"/>
  <path d="m63.217 104.73 5.805-2.51 5.8049 2.51v21.338h-11.61v-21.338z" fill="url(#paint5_linear_54_12482)"/>
  <path d="m82.357 104.73 5.805-2.51 5.8049 2.51v21.338h-11.61v-21.338z" fill="url(#paint6_linear_54_12482)"/>
  <path d="m101.5 104.73 5.805-2.51 5.805 2.51v21.338h-11.61v-21.338z" fill="url(#paint7_linear_54_12482)"/>
  <path d="m120.64 104.73 5.805-2.51 5.805 2.51v21.338h-11.61v-21.338z" fill="url(#paint8_linear_54_12482)"/>
  <path d="m139.78 104.73 5.805-2.51 5.805 2.51v21.338h-11.61v-21.338z" fill="url(#paint9_linear_54_12482)"/>
  <path d="m-69.753 137.23c-3.2478 1.825-3.3178 5.781-2.9469 7.531 11.44 2.386 35.194 6.704 38.692 4.893 3.4984-1.81 6.2656-6.031 7.2119-7.914 2.2326 2.171 9.398 0.539 8.8577-3.735 6.9164 2.157 15.13-2.588 18.373-5.231 1.8316 0.944 6.1682 2.052 8.8614-1.062 8.2026 2.199 9.7105-2.167 11.999-3.711 0.8121 3.189 11.438 3.328 12.781 1.834 8.6491 2.634 30.649 2.65 40.568 2.329 3.347 1.921 10.25 2.774 18.393 2.628 8.1029-0.145 19.394-3.687 23.475-6.509 7.056 1.913 13.239 0.236 15.449-0.842 2.613 1.931 10.687-0.015 12.012-1.196 3.476 2.4 12.95 4.358 15.507 0.891 2.111 1.535 4.277 2.131 5.696 2.055 1.419-0.075 4.793 1.376 16.132 6.427 9.071 4.041 23.018 7.818 28.858 9.201v-10.027c-1.853-4.957-12.992-12.25-17.856-13.505-5.07-1.309-12.395-2.26-16.002-0.942-2.04-2.981-10.233-6.817-17.124-7.212-6.892-0.396-12.529 1.173-17.549 3.684-5.178-6.012-19.232-5.093-23.848-1.335-5.205-1.305-11.379-1.27-12.08 0-4.544-1.152-11.61-3.339-14.277 0.768-3.8835-3.523-16.785-7.671-24.946-0.425-11.61-7.56-20.71-3.461-26.515-0.343-9.519-2.81-15.574-2.255-18.674-1.176-4.3162-3.286-19.422-5.304-23.373 0-5.3472-2.664-9.2903-2.093-11.139 0-2.0396-2.119-8.4959-0.875-8.6578 1.944-2.7568-0.158-4.2429 0.909-4.6413 1.462-1.0695-0.533-4.283-3.046-10.548-3.406-7.8317-0.449-9.7273 3.406-12.111 6.662-6.9189 0.074-13.605 1.576-13.983 8.155-4.8736 0.034-7.8818 3.161-6.5943 8.107z" fill="#9DBD4B"/>
  <path d="m40.457 136.83c3.8305 9.903 18.422 10.82 27.692 1.491 19.745-19.875-22.282-37.43-28.067-11.696-0.8902 3.364-0.7597 6.913 0.3752 10.205z" fill="#ABCB5D" opacity=".3"/>
  <path d="m115.39 135.44c3.582 9.303 17.228 10.164 25.897 1.401 18.465-18.67-20.838-35.161-26.248-10.988-0.832 3.161-0.71 6.495 0.351 9.587z" fill="#ABCB5D" opacity=".3"/>
  <path d="m43.663 135.38c3.0484 7.983 14.661 8.721 22.038 1.203 15.713-16.02-17.733-30.17-22.337-9.428-0.7085 2.712-0.6046 5.572 0.2985 8.225z" fill="#BCD84D" opacity=".3"/>
  <path d="m118.35 134.06c2.873 7.503 13.816 8.197 20.769 1.13 14.809-15.057-16.711-28.356-21.05-8.861-0.668 2.549-0.57 5.237 0.281 7.731z" fill="#BCD84D" opacity=".3"/>
  <path d="m60.718 86.108c9.5813-0.5638 14.353 5.6006 13.402 12.649 6.1308-2.2555 14.885 3.139 17.965 11.597s-10.693 8.317-17.965 7.189c3.4219 4.699 7.8988 14.999-1.5684 18.608-9.4673 3.609-9.2676-9.868-7.9844-17.057-1.2832 6.813-5.3039 19.228-11.121 14.379-7.2716-6.062-1.1406-13.251 2.2813-18.185-9.5528 0-17.68 0.423-16.539-8.74 0.9125-7.33 14.733-3.054 21.53 0-3.9922-6.5782-9.5813-19.876 0-20.44z" fill="#AEFF7C"/>
  <path d="m86.714 92.557c-2.4474-0.5279-4.8593 1.0281-5.3872 3.4755-0.5279 2.4473 1.4498 2.9042 3.8972 3.4321 2.4473 0.528 4.4375 0.9265 4.9654-1.5204 0.5279-2.4474-1.0281-4.8593-3.4754-5.3872z" fill="#AEFF7C"/>
  <path d="m88.912 132.82c1.488-2.013 1.5214-4.512 0.0745-5.582-1.4469-1.069-2.6703 0.551-4.1583 2.564-1.488 2.014-2.6772 3.658-1.2303 4.728 1.4469 1.069 3.8261 0.304 5.3141-1.71z" fill="#AEFF7C"/>
  <circle transform="matrix(-1 0 0 1 73.176 104.04)" cx="6.4504" cy="6.4504" r="6.4504" fill="#fff"/>
  <path d="m34.443 75.807c5.0422-0.2968 7.5533 2.9473 7.0531 6.6565 3.2264-1.1869 7.8335 1.6521 9.4542 6.1031 1.6207 4.4511-5.6275 4.3769-9.4542 3.7834 1.8008 2.4728 4.1569 7.893-0.8253 9.792-4.9823 1.899-4.8772-5.1926-4.2019-8.976-0.6753 3.5856-2.7912 10.119-5.8526 7.567-3.8267-3.1901-0.6003-6.9735 1.2005-9.5699-5.0272 0-9.3041 0.2225-8.7038-4.5994 0.4802-3.8576 7.7534-1.6073 11.33 0-2.1009-3.4619-5.0422-10.46 0-10.757z" fill="#AEFF7C"/>
  <path d="m48.123 79.201c-1.2879-0.2779-2.5572 0.541-2.835 1.8289-0.2778 1.288 0.763 1.5284 2.0509 1.8062 1.2879 0.2779 2.3353 0.4878 2.6131-0.8001s-0.541-2.5572-1.829-2.835z" fill="#AEFF7C"/>
  <path d="m49.28 100.39c0.7831-1.0591 0.8006-2.3743 0.0392-2.937s-1.4052 0.2896-2.1883 1.3492-1.4089 1.9248-0.6475 2.4878c0.7615 0.563 2.0135 0.16 2.7966-0.9z" fill="#AEFF7C"/>
  <circle transform="matrix(-1 0 0 1 40.999 85.244)" cx="3.3946" cy="3.3946" r="3.3946" fill="#fff"/>
  <g filter="url(#filter0_d_54_12482)">
   <ellipse transform="matrix(-.94948 -.31384 -.31384 .94948 83.658 1.8833)" cx="9.1296" cy="9.4385" rx="9.1296" ry="9.4385" fill="#75D451"/>
  </g>
  <g filter="url(#filter1_d_54_12482)">
   <ellipse transform="matrix(-.94948 -.31384 -.31384 .94948 85.882 13.269)" cx="10.876" cy="11.243" rx="10.876" ry="11.243" fill="#75D451"/>
  </g>
  <g filter="url(#filter2_d_54_12482)">
   <ellipse transform="matrix(-.94948 -.31384 -.31384 .94948 85.827 22.664)" cx="10.876" cy="11.243" rx="10.876" ry="11.243" fill="#75D451"/>
  </g>
  <g filter="url(#filter3_d_54_12482)">
   <ellipse transform="matrix(-.94948 -.31384 -.31384 .94948 87.205 32.297)" cx="11.957" cy="12.361" rx="11.957" ry="12.361" fill="#75D451"/>
  </g>
  <g filter="url(#filter4_d_54_12482)">
   <ellipse transform="matrix(-.94948 -.31384 -.31384 .94948 87.97 42.564)" cx="12.557" cy="12.982" rx="12.557" ry="12.982" fill="#75D451"/>
  </g>
  <g filter="url(#filter5_d_54_12482)">
   <ellipse transform="matrix(-.94948 -.31384 -.31384 .94948 87.97 53.233)" cx="12.557" cy="12.982" rx="12.557" ry="12.982" fill="#75D451"/>
  </g>
  <g filter="url(#filter6_d_54_12482)">
   <ellipse transform="matrix(-.94948 -.31384 -.31384 .94948 90.644 67.144)" cx="14.989" cy="14.386" rx="14.989" ry="14.386" fill="#75D451"/>
  </g>
  <path d="m61.338 80.361c-3.082 0-5.9269 0.7131-7.1123 5.6901" stroke="#209C46" stroke-width="1.2551"/>
  <path d="m53.041 88.187c-1.9005 1.9696-3.0883 4.8145 0 8.5348" stroke="#209C46" stroke-width="1.2551"/>
  <ellipse transform="matrix(-.94948 -.31384 -.31384 .94948 81.964 83.718)" cx="13.276" cy="14.225" rx="13.276" ry="14.225" fill="#75D451"/>
  <path d="m65.843 78.704c-1.4225 0.079-6.6382 3.3191-6.6382 9.246" stroke="#209C46" stroke-width="1.2551"/>
  <path d="m58.968 95.773c-1.8966 2.6079-2.6079 6.6386-0.4742 9.0086" stroke="#209C46" stroke-width="1.2551"/>
  <ellipse transform="matrix(-.94948 -.31384 -.31384 .94948 87.654 90.228)" cx="13.276" cy="14.225" rx="13.276" ry="14.225" fill="#75D451"/>
  <path d="m57.828 101.96c-3.9373 6.739 1.1068 14.425 7.6402 16.585 6.5334 2.159 16.593-2.727 16.593-9.846 2.3138-7-1.6808-13.344-8.2142-15.504-6.5334-2.1595-13.706 1.7645-16.019 8.7649z" fill="#75D451"/>
  <path d="m56.36 102.95c0 9.196 5.8599 12.127 12.832 12.261 6.8194 0.131 13.246-2.657 13.246-11.239 0-6.7712-5.9738-12.465-12.832-12.465-6.8584 0-13.246 4.6718-13.246 11.443z" fill="#209C46"/>
  <circle transform="matrix(-1 0 0 1 89.551 73.489)" cx="19.44" cy="19.44" r="19.44" fill="#7FE858"/>
  <path d="m79.44 88.191c0.7617 0.7045 0.8441 0.8159 2.066 0.7434 0.4175-0.1935 0.6588-0.2803 0.9833-0.6468 0.3273-0.3695 0.4029-0.8197 0.5351-1.0243 0.063-0.9998 0.0126-1.07-0.2932-1.8692l-0.0122-0.2199c3.328 0.1656 3.7511 7.4354 1.5647 9.5699-1.5916 1.5543-3.5132 0.9609-4.4791-0.6987-1.0129-1.742-1.0909-5.6043-0.3646-5.8544z" clip-rule="evenodd" fill="#020201" fill-rule="evenodd"/>
  <path d="m82.732 85.393c0.3058 0.7992 0.3562 0.8695 0.2932 1.8692-0.1323 0.2046-0.2078 0.6548-0.5351 1.0241-0.3246 0.3666-0.5658 0.4533-0.9833 0.6468-1.2219 0.0726-1.3043-0.0389-2.0661-0.7434-0.1773-0.8087 0.4966-1.7345 0.9344-2.1435 0.4112-0.3841 1.6961-0.9517 2.3569-0.6532z" clip-rule="evenodd" fill="#FEFEFE" fill-rule="evenodd"/>
  <path d="m57.978 86.948c0.0998-0.5475 1.0542-1.482 1.4581-1.4153 0.5769 0.0161 1.0938 0.2873 1.2264 0.8876l0.0255 0.208c0.0028 0.0391 6e-4 0.0705 0.0018 0.1101 0.0432 1.4611-0.4355 2.4067-1.9902 1.4081-0.8977-0.5767-0.7039-0.1155-0.7216-1.1985z" clip-rule="evenodd" fill="#FEFEFE" fill-rule="evenodd"/>
  <path d="m59.598 89.159c0.787-0.3844 1.2317-0.385 1.6377-1.4449 0.3504-0.9145 0.2045-1.9105-0.3592-2.3653-0.1305-0.2898-0.0609-0.0751-0.0571-0.3565 1.4207 0.0974 2.0358 0.6412 2.5424 1.5502 0.4469 0.8019 1.0505 1.9613 0.8541 2.7902l0.0756 0.1791c0.5515 1.9646-1.0163 7.5707-4.5737 6.4813-2.0169-0.6179-2.7125-3.6693-2.7071-5.5351 0.0028-0.4375 0.0367-0.8741 0.1012-1.3067 0.2199-1.5274 0.3063-1.1252 0.5381-1.1209 0.2938 0.7291 0.949 1.0116 1.948 1.1286z" clip-rule="evenodd" fill="#000" fill-rule="evenodd"/>
  <path d="m59.598 89.16c-0.9989-0.117-1.6541-0.3995-1.948-1.1285-0.0756-0.3256-0.1374-0.2624-0.0324-0.615 0.0329-0.0929 0.08-0.18 0.1396-0.2586 0.0537-0.0883 0.13-0.1608 0.2212-0.2095 0.0174 1.0829-0.1758 0.6218 0.7215 1.199 1.5546 0.9986 2.0337 0.053 1.9904-1.4079-1e-3 -0.0402 1e-3 -0.071-2e-3 -0.1101l-0.0252-0.208c-0.1327-0.6003-0.6501-0.8716-1.2268-0.8877 0.35-0.3434 0.0692-0.236 0.6529-0.2654 0.2651-0.013 0.5306 0.0148 0.7875 0.0823 0.5636 0.4542 0.7097 1.4501 0.3593 2.3651-0.4063 1.0593-0.8509 1.0599-1.638 1.4443z" clip-rule="evenodd" fill="#F3F4F7" fill-rule="evenodd"/>
  <path d="m124.15 90.364-0.058-0.1539-5.49-14.014-2.345-4.9356-9.32-11.819c-1.74-2.2061-4.938-2.5841-7.1443-0.8446-1.6968 1.3383-2.2995 3.5368-1.7013 5.4859l-0.0191-0.0253c-0.2659 0.0905-0.5265 0.2041-0.7787 0.3408-0.2524 0.1369-0.4964 0.297-0.7297 0.4809-2.2059 1.7395-2.5841 4.9381-0.8445 7.1442l8.4486 10.714c2e-3 0.0029 1.197 2.0614 1.733 3.452l0.592 1.5115 1e-3 0.0046-10.814-4.3396c-0.8014-0.3216-4.7506-1.581-5.5531-1.4939l-1.0076 0.0799-8.246 1.4884c-2.7648 0.499-4.6015 3.1449-4.1028 5.9097 0.4992 2.7648 3.1449 4.6016 5.9097 4.1024l7.5502-1.0847c0.6908 0 1.1758 0.2456 1.6605 0.4402l13.002 5.2177-5.4993 8.1941c-5.3123 5.41-11.023 2.027-13.657-0.124-0.8635-0.705-1.3906-1.713-1.5307-2.819-0.1905-1.505-0.8942-4.0202-3.2917-6.7303-6.0041-6.5045-11.651-0.4493-11.651-0.4493l1.8719 8.1566c0.9634 4.197 2.6939 8.173 5.1137 11.736 3.9771 5.855 10.485 13.794 16.905 14.492 10.271 1.116 22.999-1.918 29.389-14.206 6.651-12.792 1.607-25.911 1.607-25.911v-2e-4z" fill="#FDB082"/>
  <path d="m122.55 116.27c-6.396 12.295-19.12 15.335-29.385 14.216-6.424-0.705-12.931-8.635-16.91-14.492-0.8704-1.271-1.6439-2.611-2.3346-3.979 4.0201 5.733 10.168 12.876 16.247 13.525 10.264 1.119 22.988-1.92 29.385-14.202 6.645-12.793 1.602-25.917 1.602-25.917l-0.055-0.1519-5.485-14.009-0.981-2.0723 1.631 2.0723 2.348 4.932 5.485 14.022 0.055 0.1521s5.043 13.124-1.602 25.903h-1e-3z" fill="#F39863"/>
  <path d="m106.49 87.7-0.592-1.5115c-0.536-1.3906-1.731-3.4491-1.733-3.452l-8.4484-10.714c-1.7396-2.2061-1.3614-5.4047 0.8445-7.1442 0.4662-0.3677 0.9767-0.6408 1.5084-0.8219l9.3245 12.397 5.849 13.96-6.753-2.7141z" fill="#F39863"/>
  <path d="m113.25 90.414-4.117-10.508c-0.535-1.3906-1.731-3.449-1.733-3.452l-8.4482-10.714c-1.7395-2.2062-1.3613-5.4047 0.8446-7.1443 2.2056-1.7395 5.4046-1.3615 7.1446 0.8446l9.319 11.819 2.346 4.9356 5.49 14.014 0.057 0.1541s5.045 13.119-1.607 25.911c-6.39 12.288-19.118 15.322-29.389 14.206-6.4202-0.698-12.928-8.638-16.905-14.492-2.4199-3.563-4.1504-7.539-5.1138-11.736l-1.8721-8.1566s5.6466-6.0552 11.651 0.4493c2.3976 2.7103 3.1012 5.2253 3.2918 6.7303 0.14 1.106 0.6672 2.114 1.5306 2.819 2.634 2.151 8.3447 5.535 13.657 0.124 0 0 5.4993-8.1939 5.4993-8.1939l-13.002-5.2177c-0.4847-0.1945-0.9697-0.4402-1.6605-0.4402l-7.5502 1.0847c-2.7648 0.499-5.4105-1.3378-5.9097-4.1024-0.4989-2.7648 1.3378-5.4105 4.1028-5.9096l8.246-1.4885 1.0076-0.0799c0.8025-0.0871 4.7519 1.1723 5.5532 1.4939l19.323 7.7542" stroke="#F39863" stroke-linecap="round" stroke-linejoin="round"/>
 </g>
 <defs>
  <filter id="filter0_d_54_12482" x="62.864" y="-3.3138" width="19.581" height="20.704" color-interpolation-filters="sRGB" filterUnits="userSpaceOnUse">
   <feFlood flood-opacity="0" result="BackgroundImageFix"/>
   <feColorMatrix in="SourceAlpha" result="hardAlpha" values="0 0 0 0 0 0 0 0 0 0 0 0 0 0 0 0 0 0 127 0"/>
   <feOffset dx="1.25513" dy="-1.88269"/>
   <feComposite in2="hardAlpha" operator="out"/>
   <feColorMatrix values="0 0 0 0 0.12549 0 0 0 0 0.611765 0 0 0 0 0.27451 0 0 0 1 0"/>
   <feBlend in2="BackgroundImageFix" result="effect1_dropShadow_54_12482"/>
   <feBlend in="SourceGraphic" in2="effect1_dropShadow_54_12482" result="shape"/>
  </filter>
  <filter id="filter1_d_54_12482" x="61.112" y="7.4371" width="21.83" height="24.305" color-interpolation-filters="sRGB" filterUnits="userSpaceOnUse">
   <feFlood flood-opacity="0" result="BackgroundImageFix"/>
   <feColorMatrix in="SourceAlpha" result="hardAlpha" values="0 0 0 0 0 0 0 0 0 0 0 0 0 0 0 0 0 0 127 0"/>
   <feOffset dy="-1.88269"/>
   <feComposite in2="hardAlpha" operator="out"/>
   <feColorMatrix values="0 0 0 0 0.12549 0 0 0 0 0.611765 0 0 0 0 0.27451 0 0 0 1 0"/>
   <feBlend in2="BackgroundImageFix" result="effect1_dropShadow_54_12482"/>
   <feBlend in="SourceGraphic" in2="effect1_dropShadow_54_12482" result="shape"/>
  </filter>
  <filter id="filter2_d_54_12482" x="61.058" y="16.833" width="23.085" height="24.305" color-interpolation-filters="sRGB" filterUnits="userSpaceOnUse">
   <feFlood flood-opacity="0" result="BackgroundImageFix"/>
   <feColorMatrix in="SourceAlpha" result="hardAlpha" values="0 0 0 0 0 0 0 0 0 0 0 0 0 0 0 0 0 0 127 0"/>
   <feOffset dx="1.25513" dy="-1.88269"/>
   <feComposite in2="hardAlpha" operator="out"/>
   <feColorMatrix values="0 0 0 0 0.12549 0 0 0 0 0.611765 0 0 0 0 0.27451 0 0 0 1 0"/>
   <feBlend in2="BackgroundImageFix" result="effect1_dropShadow_54_12482"/>
   <feBlend in="SourceGraphic" in2="effect1_dropShadow_54_12482" result="shape"/>
  </filter>
  <filter id="filter3_d_54_12482" x="58.718" y="24.818" width="25.256" height="27.789" color-interpolation-filters="sRGB" filterUnits="userSpaceOnUse">
   <feFlood flood-opacity="0" result="BackgroundImageFix"/>
   <feColorMatrix in="SourceAlpha" result="hardAlpha" values="0 0 0 0 0 0 0 0 0 0 0 0 0 0 0 0 0 0 127 0"/>
   <feOffset dx="-1.25513" dy="-3.13782"/>
   <feComposite in2="hardAlpha" operator="out"/>
   <feColorMatrix values="0 0 0 0 0.12549 0 0 0 0 0.611765 0 0 0 0 0.27451 0 0 0 1 0"/>
   <feBlend in2="BackgroundImageFix" result="effect1_dropShadow_54_12482"/>
   <feBlend in="SourceGraphic" in2="effect1_dropShadow_54_12482" result="shape"/>
  </filter>
  <filter id="filter4_d_54_12482" x="59.37" y="34.868" width="26.461" height="29.026" color-interpolation-filters="sRGB" filterUnits="userSpaceOnUse">
   <feFlood flood-opacity="0" result="BackgroundImageFix"/>
   <feColorMatrix in="SourceAlpha" result="hardAlpha" values="0 0 0 0 0 0 0 0 0 0 0 0 0 0 0 0 0 0 127 0"/>
   <feOffset dx="1.25513" dy="-3.13782"/>
   <feComposite in2="hardAlpha" operator="out"/>
   <feColorMatrix values="0 0 0 0 0.12549 0 0 0 0 0.611765 0 0 0 0 0.27451 0 0 0 1 0"/>
   <feBlend in2="BackgroundImageFix" result="effect1_dropShadow_54_12482"/>
   <feBlend in="SourceGraphic" in2="effect1_dropShadow_54_12482" result="shape"/>
  </filter>
  <filter id="filter5_d_54_12482" x="58.115" y="45.536" width="26.461" height="29.026" color-interpolation-filters="sRGB" filterUnits="userSpaceOnUse">
   <feFlood flood-opacity="0" result="BackgroundImageFix"/>
   <feColorMatrix in="SourceAlpha" result="hardAlpha" values="0 0 0 0 0 0 0 0 0 0 0 0 0 0 0 0 0 0 127 0"/>
   <feOffset dx="-1.25513" dy="-3.13782"/>
   <feComposite in2="hardAlpha" operator="out"/>
   <feColorMatrix values="0 0 0 0 0.12549 0 0 0 0 0.611765 0 0 0 0 0.27451 0 0 0 1 0"/>
   <feBlend in2="BackgroundImageFix" result="effect1_dropShadow_54_12482"/>
   <feBlend in="SourceGraphic" in2="effect1_dropShadow_54_12482" result="shape"/>
  </filter>
  <filter id="filter6_d_54_12482" x="56.963" y="58.511" width="31.125" height="32.04" color-interpolation-filters="sRGB" filterUnits="userSpaceOnUse">
   <feFlood flood-opacity="0" result="BackgroundImageFix"/>
   <feColorMatrix in="SourceAlpha" result="hardAlpha" values="0 0 0 0 0 0 0 0 0 0 0 0 0 0 0 0 0 0 127 0"/>
   <feOffset dx="1.25513" dy="-3.13782"/>
   <feComposite in2="hardAlpha" operator="out"/>
   <feColorMatrix values="0 0 0 0 0.12549 0 0 0 0 0.611765 0 0 0 0 0.27451 0 0 0 1 0"/>
   <feBlend in2="BackgroundImageFix" result="effect1_dropShadow_54_12482"/>
   <feBlend in="SourceGraphic" in2="effect1_dropShadow_54_12482" result="shape"/>
  </filter>
  <linearGradient id="paint0_linear_54_12482" x1="-77.144" x2="215.32" y1="110.3" y2="110.3" gradientUnits="userSpaceOnUse">
   <stop stop-color="#fff" offset="0"/>
   <stop stop-color="#FBD406" offset=".48958"/>
   <stop stop-color="#fff" offset="1"/>
  </linearGradient>
  <linearGradient id="paint1_linear_54_12482" x1="-77.144" x2="215.32" y1="121.6" y2="121.6" gradientUnits="userSpaceOnUse">
   <stop stop-color="#fff" offset="0"/>
   <stop stop-color="#FBD406" offset=".48958"/>
   <stop stop-color="#fff" offset="1"/>
  </linearGradient>
  <linearGradient id="paint2_linear_54_12482" x1="11.6" x2="11.6" y1="102.22" y2="126.07" gradientUnits="userSpaceOnUse">
   <stop stop-color="#FBD23E" offset="0"/>
   <stop stop-color="#FFFA84" offset=".52604"/>
   <stop stop-color="#FFEFB5" offset="1"/>
  </linearGradient>
  <linearGradient id="paint3_linear_54_12482" x1="30.74" x2="30.74" y1="102.22" y2="126.07" gradientUnits="userSpaceOnUse">
   <stop stop-color="#FBD23E" offset="0"/>
   <stop stop-color="#FFFA84" offset=".52604"/>
   <stop stop-color="#FFEFB5" offset="1"/>
  </linearGradient>
  <linearGradient id="paint4_linear_54_12482" x1="49.881" x2="49.881" y1="102.22" y2="126.07" gradientUnits="userSpaceOnUse">
   <stop stop-color="#FBD23E" offset="0"/>
   <stop stop-color="#FFFA84" offset=".52604"/>
   <stop stop-color="#FFEFB5" offset="1"/>
  </linearGradient>
  <linearGradient id="paint5_linear_54_12482" x1="69.022" x2="69.022" y1="102.22" y2="126.07" gradientUnits="userSpaceOnUse">
   <stop stop-color="#FBD23E" offset="0"/>
   <stop stop-color="#FFFA84" offset=".52604"/>
   <stop stop-color="#FFEFB5" offset="1"/>
  </linearGradient>
  <linearGradient id="paint6_linear_54_12482" x1="88.162" x2="88.162" y1="102.22" y2="126.07" gradientUnits="userSpaceOnUse">
   <stop stop-color="#FBD23E" offset="0"/>
   <stop stop-color="#FFFA84" offset=".52604"/>
   <stop stop-color="#FFEFB5" offset="1"/>
  </linearGradient>
  <linearGradient id="paint7_linear_54_12482" x1="107.3" x2="107.3" y1="102.22" y2="126.07" gradientUnits="userSpaceOnUse">
   <stop stop-color="#FBD23E" offset="0"/>
   <stop stop-color="#FFFA84" offset=".52604"/>
   <stop stop-color="#FFEFB5" offset="1"/>
  </linearGradient>
  <linearGradient id="paint8_linear_54_12482" x1="126.44" x2="126.44" y1="102.22" y2="126.07" gradientUnits="userSpaceOnUse">
   <stop stop-color="#FBD23E" offset="0"/>
   <stop stop-color="#FFFA84" offset=".52604"/>
   <stop stop-color="#FFEFB5" offset="1"/>
  </linearGradient>
  <linearGradient id="paint9_linear_54_12482" x1="145.58" x2="145.58" y1="102.22" y2="126.07" gradientUnits="userSpaceOnUse">
   <stop stop-color="#FBD23E" offset="0"/>
   <stop stop-color="#FFFA84" offset=".52604"/>
   <stop stop-color="#FFEFB5" offset="1"/>
  </linearGradient>
  <clipPath id="clip0_54_12482">
   <path d="m0 12.349c0-6.285 5.095-11.38 11.38-11.38h130.62v127.46h-130.62c-6.285 0-11.38-5.095-11.38-11.38v-104.7z" fill="#fff"/>
  </clipPath>
 </defs>
</svg>
