<svg width="56" height="56" viewBox="0 0 56 56" fill="none" xmlns="http://www.w3.org/2000/svg">
<g clip-path="url(#clip0_73_6101)">
<rect width="56" height="56" rx="8.35821" fill="url(#paint0_linear_73_6101)"/>
<path d="M25.9805 33.5289C25.9805 33.5289 27.2754 36.9463 27.8627 43.4062C28.4499 49.8661 28.0204 57.6998 28.0204 57.6998L15.0801 59.3522C15.0801 59.3522 15.4413 47.9897 15.2615 43.8231C15.0817 39.6565 16.11 32.3092 17.6736 29.8187C20.1988 28.141 24.3848 29.6746 25.9805 33.5289Z" fill="white"/>
<path d="M21.1309 25.376V27.5216H23.2218L23.4174 25.376H21.1309Z" fill="#FDB082"/>
<path d="M21.1308 25.3761V27.5217H18.7061L19.3401 22.9971L21.1308 25.3761Z" fill="#FDB082"/>
<path d="M21.1309 25.376V27.5216H23.2218L23.4174 25.376H21.1309Z" fill="#FDB082"/>
<path d="M21.1308 25.3761V27.5217H18.7061L19.3401 22.9971L21.1308 25.3761Z" fill="#FFBD96"/>
<path d="M26.0466 19.8457C26.0466 19.8457 26.1728 20.648 26.3957 20.9424C26.6186 21.2368 26.9341 21.2736 27.0213 21.4156C27.1086 21.5575 27.2485 21.8178 26.8831 22.1722C26.5177 22.5265 25.9441 22.3914 25.9441 22.3914C25.9441 22.3914 25.647 20.0854 26.0466 19.8457Z" fill="#FFBD96"/>
<path d="M25.7607 16.6822C25.1408 14.4835 22.4821 14.1891 21.7124 14.1476C19.8244 14.0424 17.0742 14.5876 16.2445 16.7153C15.5448 18.5029 15.2041 21.1963 18.3644 23.9707C21.5247 26.7451 25.7354 26.5469 25.7354 26.5469C25.7354 26.5469 26.4383 26.4181 26.4888 23.9796C26.5251 22.2305 26.0892 21.445 26.0493 19.924C26.0141 18.6143 26.1718 18.1422 25.7607 16.6822Z" fill="#FFBD96"/>
<path d="M27.0296 21.4992C27.0359 21.6254 26.9129 21.7337 26.7552 21.741C26.5975 21.7484 26.465 21.6522 26.4592 21.526C26.4534 21.3998 26.5764 21.292 26.7336 21.2841C26.8908 21.2763 27.0238 21.373 27.0296 21.4992Z" fill="#FFC7AB"/>
<path d="M27.0208 21.4183C27.083 21.4967 27.1263 21.5884 27.1476 21.6862C27.1688 21.7839 27.1674 21.8853 27.1433 21.9824C27.0655 22.3268 26.7858 22.5313 26.178 22.5786C25.9867 22.3542 26.1365 22.3394 26.1365 22.3394C26.1365 22.3394 27.3894 22.168 27.0208 21.4183ZM20.9983 20.728C20.9983 20.728 20.838 19.9546 20.2765 19.9162C19.715 19.8779 19.2807 20.4977 19.3464 21.178C19.4122 21.8584 19.8301 22.8605 20.3569 23.1596C20.8837 23.4588 21.1981 22.8941 21.1981 22.8941L20.9983 20.728Z" fill="#E98146"/>
<path d="M20.9984 20.7281C20.9984 20.7281 20.6409 19.8228 20.0799 20.0972C19.5189 20.3717 19.2813 21.0157 19.693 22.0614C20.1046 23.1071 20.8649 23.6913 21.3228 22.6634C21.7807 21.6356 20.9984 20.7281 20.9984 20.7281Z" fill="#FDB082"/>
<path d="M19.8203 21.4568C19.8203 21.4568 19.5317 20.7733 19.9948 20.5252C20.458 20.277 20.814 21.2712 20.6005 22.4179C20.6447 21.6776 20.4885 20.971 20.2672 20.6966C20.0458 20.4221 19.6473 20.7123 19.8203 21.4568Z" fill="#E98146"/>
<path d="M20.0895 21.7269C20.0356 21.5251 20.0525 21.311 20.1373 21.1202C20.2809 20.8158 20.4344 20.9193 20.4344 20.9193L20.478 21.0318C20.478 21.0318 20.1442 20.903 20.0895 21.7269Z" fill="#E98146"/>
<path d="M25.0328 15.4237C24.6606 15.3102 24.2731 15.2551 23.8841 15.2602C23.2653 15.2749 22.2421 15.6393 21.7868 17.2549C21.3315 18.8705 22.0613 20.6881 22.045 20.8248C22.0287 20.9614 21.2096 21.0435 21.2096 21.0435C21.2096 21.0435 21.0902 20.1045 20.5129 19.8453C19.9357 19.5861 19.1891 20.2238 19.2275 21.0361C19.2659 21.8484 19.7569 23.2159 20.5492 23.3368C20.147 24.2505 18.8737 24.5802 18.8737 24.5802C18.8737 24.5802 17.1208 23.5529 15.9336 22.5792C14.7081 21.5739 14.4363 20.6013 14.3948 19.9394C14.3822 19.7443 13.7507 18.3621 14.1109 17.0478C14.471 15.7334 15.2039 15.3475 15.2039 15.3475C15.2039 15.3475 15.6387 13.1572 18.6991 12.5263C21.106 12.031 22.4319 13.0484 22.6291 13.0841C22.8263 13.1199 25.3036 14.1419 25.0328 15.4237Z" fill="#D2663A"/>
<path d="M23.2801 14.0961C23.2801 14.0961 22.3995 12.1056 19.9306 12.0136C17.4617 11.9216 17.4464 12.3159 16.3018 12.6313C15.1573 12.9468 14.56 12.195 14.56 12.195C14.56 12.195 14.4985 13.4568 15.7992 13.5199C15.326 13.8059 14.6999 13.2791 14.6999 13.2791C14.6999 13.2791 15.0374 13.8353 15.3534 13.9709C15.6694 14.1066 15.8655 14.0961 15.8655 14.0961L15.2861 14.2086L15.508 14.3784L15.1399 15.5529L23.2801 14.0961Z" fill="#D2663A"/>
<path d="M17.6727 29.8185C17.587 29.92 19.5065 29.2228 21.6447 29.6445C23.783 30.0661 25.9806 33.5287 25.9806 33.5287C25.9806 33.5287 25.3681 31.9189 24.641 30.3973C23.9139 28.8758 23.1584 28.2197 23.2215 27.5215H18.7058C18.7058 27.5215 18.2473 29.134 17.6727 29.8185Z" fill="#FFBD96"/>
<path d="M36.0557 36.9034C36.0557 36.9034 30.193 38.9287 25.3742 39.3101C20.5554 39.6915 18.8986 38.7051 18.8604 36.6483C18.8221 34.5915 20.6499 33.5592 23.4812 33.3627C26.3124 33.1662 32.9607 33.9872 36.696 33.3608C39.0544 33.9443 40.6951 35.7513 36.0557 36.9034Z" fill="#FDB082"/>
<path opacity="0.5" d="M34.4633 35.2425C31.3374 36.265 29.8192 37.3721 25.9022 38.0065C21.9853 38.6408 20.5517 37.8871 20.3605 36.1008C20.1693 34.3145 21.5861 33.3019 23.8896 32.9532C26.1931 32.6044 32.056 31.938 33.8355 31.6444C35.3612 32.4073 36.1241 34.5052 34.4633 35.2425Z" fill="#FDB082"/>
<path d="M34.4496 37.1747C37.4442 36.5728 40.0758 35.5025 40.3374 35.4333C41.2617 35.1887 42.3291 34.8048 43.0268 35.1537C44.4127 35.8476 46.0186 36.1073 47.0348 36.2031C47.2727 36.2258 47.7846 36.3263 47.8823 36.0011C47.9714 35.7054 47.5808 35.4741 47.3628 35.3726C47.2244 35.3082 47.0945 35.2219 46.9561 35.1537C47.2812 35.3072 47.7135 34.9887 47.9562 34.7223C48.1354 34.5261 48.2937 34.3109 48.4283 34.0815C48.4908 33.9744 48.5496 33.8597 48.5619 33.7365C48.5743 33.6123 48.56 33.5175 48.4643 33.4653C48.6122 33.4815 48.7146 33.4407 48.7876 33.4388C48.9459 33.4341 49.1032 33.4255 49.2615 33.4132C49.6568 33.3819 50.0559 33.3298 50.4436 33.2435C50.6418 33.1999 51.039 33.1032 50.9973 32.8264C50.984 32.7364 50.9148 32.6861 50.8266 32.6691C49.9981 32.5098 47.8112 32.2652 46.2897 32.2207C45.2118 32.1884 44.1719 32.342 43.1045 32.4434C42.1604 32.5335 41.2266 32.7013 40.2862 32.8236C39.1875 32.9658 34.4439 33.6218 34.4439 33.6218C34.0505 34.9138 34.2458 36.6543 34.4496 37.1747Z" fill="#FDB082"/>
<path d="M46.1785 34.0181C46.1339 34.1612 46.1292 34.2456 46.1785 34.3811C46.2278 34.5167 46.5757 34.9063 46.7653 35.0295L45.8799 34.4608C45.8799 34.2465 46.0534 34.0749 46.1785 34.0181Z" fill="#F39863"/>
<path d="M49.6996 33.3539C49.6958 33.352 49.6161 33.296 49.6294 33.1387L49.674 33.1425C49.6635 33.2723 49.7223 33.315 49.7252 33.3169L49.6996 33.3539Z" fill="#F39863"/>
<path d="M48.6414 33.4401C48.6376 33.4307 48.5457 33.2117 48.5666 32.9614L48.6111 32.9652C48.5921 33.2041 48.6822 33.4212 48.6832 33.4231L48.6414 33.4401Z" fill="#F39863"/>
<path d="M47.3005 33.5792C47.2996 33.5773 47.2455 33.3848 47.2266 33.1639L47.2711 33.1602C47.2901 33.3772 47.3432 33.5649 47.3441 33.5668L47.3005 33.5792Z" fill="#F39863"/>
<path d="M46.4219 33.8917C46.547 33.8661 46.6721 33.8414 46.7963 33.813C46.9262 33.7826 47.0684 33.7542 47.184 33.6831C47.1471 33.7011 47.13 33.7457 47.1262 33.7864C47.1186 33.8841 47.1774 33.9865 47.2694 34.0187C47.3243 34.0376 47.385 34.032 47.4428 34.0263C47.3746 34.0386 47.312 34.0812 47.275 34.141C47.2381 34.2007 47.2286 34.2756 47.2475 34.3419C47.24 34.3154 47.2058 34.2964 47.1869 34.2784C47.1556 34.2481 47.1272 34.214 47.1025 34.1789C47.0921 34.1647 47.0826 34.1505 47.0693 34.1381C47.0324 34.1021 46.9812 34.0879 46.9423 34.0547C46.9044 34.0225 46.8627 33.994 46.8162 33.9751C46.6892 33.9239 46.5565 33.9087 46.4219 33.8917Z" fill="#F39863"/>
<path d="M47.498 36.2246C47.352 36.2246 47.2136 36.1772 47.1027 36.0871L47.098 36.0833L47.0961 36.0776C47.0231 35.8719 47.0193 35.7212 47.2297 35.6055L47.2345 35.6027H47.2392C47.2515 35.6018 47.535 35.5866 47.7198 35.7762L47.7227 35.779C47.7672 35.8473 47.7833 35.9402 47.7653 36.0293C47.7492 36.1061 47.7103 36.1677 47.6554 36.2047L47.6516 36.2066L47.6478 36.2075C47.5966 36.2189 47.5473 36.2246 47.498 36.2246ZM47.1359 36.0558C47.2714 36.1629 47.4515 36.2028 47.6317 36.1648C47.6753 36.1345 47.7056 36.0843 47.7189 36.0208C47.734 35.9449 47.7208 35.8624 47.6838 35.8056C47.5264 35.6454 47.2828 35.6454 47.2449 35.6463C47.0695 35.7468 47.0705 35.8681 47.1359 36.0558Z" fill="white"/>
<path d="M47.1291 36.0884L47.1045 36.0505C47.2884 35.9301 47.2182 35.6324 47.2182 35.6296L47.2619 35.6191C47.2628 35.6229 47.2818 35.7016 47.2751 35.7993C47.2675 35.931 47.2164 36.0306 47.1291 36.0884Z" fill="white"/>
<path d="M46.9437 35.1725C46.9342 35.1668 46.027 34.5772 45.8687 34.4805C45.6573 34.3516 45.553 34.1364 45.4336 33.7828L45.4763 33.7686C45.626 34.2131 45.7379 34.3478 45.8915 34.4416C46.0498 34.5383 46.9589 35.1279 46.9674 35.1346L46.9437 35.1725Z" fill="#F39863"/>
<path d="M45.903 34.4635L45.8584 34.4587C45.8849 34.1895 46.012 34.1032 46.1456 34.0132C46.1949 33.98 46.2461 33.9449 46.2964 33.8994C46.4736 33.7364 46.4547 33.3724 46.4547 33.3686L46.4992 33.3657C46.4992 33.3695 46.5049 33.4634 46.4869 33.58C46.4622 33.7383 46.4082 33.8568 46.3267 33.9326C46.2746 33.98 46.2224 34.016 46.1712 34.0502C46.0347 34.1421 45.9276 34.2151 45.903 34.4635Z" fill="#F39863"/>
<path d="M46.3705 34.799C46.0188 34.3838 46.0634 34.089 46.0653 34.0767L46.1098 34.0842C46.1098 34.0871 46.0681 34.3734 46.4046 34.7706L46.3705 34.799Z" fill="#F39863"/>
<path d="M50.8885 32.7123C50.8866 32.7114 50.6971 32.609 50.334 32.609V32.5635C50.7094 32.5635 50.9018 32.6678 50.9103 32.6725L50.8885 32.7123Z" fill="white"/>
<path d="M46.5022 34.7642C46.4482 34.7642 46.4103 34.732 46.4084 34.731L46.4074 34.7301C46.3989 34.7215 46.1903 34.513 46.1572 34.3869L46.1553 34.3793L46.16 34.367C46.1913 34.2883 46.2131 34.2741 46.3885 34.2807H46.397L46.4027 34.2864C46.4103 34.294 46.5989 34.4703 46.6501 34.6571L46.653 34.6675L46.6463 34.676C46.6084 34.7282 46.5648 34.7566 46.5174 34.7623C46.5127 34.7642 46.507 34.7642 46.5022 34.7642ZM46.4378 34.6969C46.4416 34.6997 46.4728 34.7234 46.5127 34.7187C46.5439 34.7149 46.5752 34.695 46.6037 34.659C46.5572 34.5064 46.4093 34.3566 46.378 34.3253C46.2292 34.3196 46.2235 34.33 46.2027 34.3822C46.2377 34.494 46.4245 34.6836 46.4378 34.6969Z" fill="#FFC7C1"/>
<path d="M46.4061 34.6893L46.3691 34.6647C46.371 34.6609 46.427 34.5813 46.6147 34.5936L46.6118 34.6381C46.4516 34.6277 46.4061 34.6884 46.4061 34.6893Z" fill="#FFC7C1"/>
<path d="M46.3161 33.9372L46.3057 33.8936C46.355 33.8813 46.4156 33.8689 46.4867 33.8547C46.7607 33.7997 47.1749 33.7163 47.3039 33.558L47.3124 33.5476L47.3257 33.5495C47.5371 33.5855 47.8347 33.5362 48.0973 33.4926C48.249 33.4679 48.3912 33.4443 48.4945 33.4414L48.4955 33.486C48.395 33.4888 48.2537 33.5116 48.1039 33.5372C47.8433 33.5808 47.5475 33.6291 47.3304 33.5959C47.1835 33.7609 46.7872 33.8405 46.4953 33.8983C46.4251 33.9135 46.3644 33.9258 46.3161 33.9372Z" fill="#F39863"/>
<path d="M47.2408 34.3886C46.9678 33.9819 46.7081 33.9497 46.4787 33.9213C46.4588 33.9184 46.4389 33.9165 46.4189 33.9137L46.4246 33.8691C46.4436 33.872 46.4635 33.8739 46.4834 33.8767C46.7223 33.9061 46.9925 33.9393 47.2778 34.364L47.2408 34.3886Z" fill="#F39863"/>
<path d="M47.1304 34.1216C47.0793 34.1216 47.0319 34.1149 46.9873 34.1026L46.9996 34.059C47.3371 34.1528 47.8082 33.8173 47.813 33.8135L47.8395 33.8495C47.8348 33.8533 47.7153 33.9386 47.5513 34.0135C47.394 34.0855 47.2527 34.1216 47.1304 34.1216Z" fill="#F39863"/>
<path d="M47.2729 34.0997C47.2037 34.0533 47.144 33.985 47.1079 33.9111C47.0681 33.8305 47.0634 33.7556 47.0947 33.6997L47.1345 33.7215C47.0871 33.8078 47.1667 33.9727 47.2985 34.0618L47.2729 34.0997Z" fill="#F39863"/>
<g opacity="0.5">
<path d="M35.1701 33.7424C33.8318 32.4088 32.9803 30.419 32.8461 30.1983C32.372 29.4184 31.8918 28.4479 31.1809 28.2263C29.7683 27.7865 28.4917 26.9026 27.7292 26.296C27.5505 26.1542 27.1318 25.8846 27.2798 25.5963C27.4142 25.3339 27.836 25.4332 28.0531 25.5077C28.1909 25.5549 28.3374 25.5815 28.4777 25.6262C28.1524 25.5167 28.0658 25.0115 28.0751 24.6676C28.0817 24.4141 28.1152 24.1613 28.1744 23.9144C28.2022 23.7993 28.2377 23.6815 28.3108 23.5886C28.3845 23.495 28.457 23.4392 28.5574 23.4667C28.445 23.3799 28.4015 23.2841 28.3525 23.2345C28.2468 23.1265 28.1441 23.0165 28.0434 22.9032C27.7921 22.6202 27.5521 22.3202 27.3424 22.0043C27.235 21.8432 27.0257 21.5138 27.2376 21.351C27.3063 21.2978 27.3872 21.3091 27.4591 21.3557C28.1345 21.7943 29.8008 23.0732 30.877 24.0494C31.6399 24.7404 32.2537 25.5342 32.9209 26.3103C33.5108 26.997 34.0422 27.7303 34.6082 28.4367C34.9499 28.8626 36.2028 29.9006 36.9585 30.8353C37.9492 32.0604 37.8904 32.4993 37.8904 32.4993C38.0661 34.0622 36.3185 34.8867 35.1701 33.7424Z" fill="#FDB082"/>
<path d="M29.7643 25.359C29.7002 25.487 29.6477 25.5482 29.524 25.6088C29.4004 25.6695 28.9033 25.7073 28.6913 25.6666L29.6768 25.8612C29.8186 25.7138 29.8127 25.481 29.7643 25.359Z" fill="#F39863"/>
<path d="M27.781 22.5728C27.7848 22.574 27.8766 22.5882 27.9716 22.4712L27.9385 22.4443C27.8597 22.5406 27.791 22.531 27.7878 22.5304L27.781 22.5728Z" fill="#F39863"/>
<path d="M28.4519 23.3319C28.4607 23.3279 28.6689 23.2381 28.8202 23.0522L28.787 23.0253C28.642 23.2022 28.4364 23.2919 28.4344 23.2926L28.4519 23.3319Z" fill="#F39863"/>
<path d="M29.2832 24.315C29.2851 24.3143 29.4496 24.2177 29.6088 24.0783L29.5807 24.0462C29.424 24.183 29.2633 24.277 29.2614 24.2777L29.2832 24.315Z" fill="#F39863"/>
<path d="M29.6804 25.1117C29.6112 25.0113 29.5414 24.9116 29.4748 24.8098C29.4055 24.703 29.3265 24.5894 29.294 24.4639C29.3075 24.5008 29.2898 24.5427 29.2654 24.5733C29.206 24.6455 29.0979 24.677 29.0133 24.6383C28.9629 24.615 28.9249 24.5709 28.8889 24.5288C28.9277 24.5824 28.9425 24.6531 28.9284 24.7187C28.9144 24.7842 28.8713 24.842 28.8144 24.8751C28.8371 24.8619 28.8732 24.8714 28.8981 24.8716C28.9397 24.8714 28.9819 24.8668 29.022 24.859C29.0386 24.8561 29.0546 24.8526 29.0718 24.8529C29.1211 24.8525 29.1657 24.8766 29.2144 24.8795C29.2618 24.8824 29.3094 24.8905 29.3539 24.9082C29.4751 24.957 29.5765 25.0344 29.6804 25.1117Z" fill="#F39863"/>
<path d="M27.3966 26.0049C27.4971 26.1015 27.6236 26.1605 27.7595 26.1719L27.7653 26.1724L27.7704 26.1698C27.9567 26.0766 28.059 25.9754 27.9908 25.7566L27.9894 25.7515L27.9862 25.7483C27.9783 25.7395 27.7933 25.5415 27.5407 25.5496L27.5369 25.5497C27.4611 25.5672 27.3885 25.6204 27.3419 25.6937C27.3022 25.7571 27.2882 25.8253 27.3015 25.8871L27.3029 25.8909L27.3049 25.894C27.3326 25.9357 27.3627 25.9723 27.3966 26.0049ZM27.7574 26.1284C27.5933 26.1124 27.443 26.0206 27.3442 25.8754C27.3343 25.8256 27.3466 25.771 27.3795 25.7185C27.4193 25.6563 27.483 25.6084 27.5461 25.5937C27.7603 25.5876 27.9279 25.7488 27.9534 25.7746C28.0075 25.9597 27.9266 26.0426 27.7574 26.1284Z" fill="white"/>
<path d="M27.7409 26.1547L27.7829 26.1449C27.7361 25.9404 27.9813 25.782 27.9832 25.78L27.9601 25.744C27.9569 25.746 27.8918 25.7876 27.8318 25.8591C27.7498 25.9548 27.7192 26.0572 27.7409 26.1547Z" fill="white"/>
<path d="M28.4735 25.6472C28.4838 25.6496 29.4981 25.8443 29.671 25.8825C29.9017 25.9337 30.1158 25.8547 30.432 25.6904L30.4121 25.6524C30.0148 25.8592 29.8488 25.8778 29.681 25.8407C29.5081 25.8025 28.4926 25.6066 28.4823 25.6055L28.4735 25.6472Z" fill="#F39863"/>
<path d="M29.659 25.8483L29.6928 25.8745C29.8526 25.6717 29.8223 25.5283 29.79 25.3779C29.778 25.3225 29.766 25.2645 29.7616 25.1999C29.7475 24.9704 30.0014 24.7326 30.0039 24.73L29.9752 24.6985C29.9726 24.7011 29.9066 24.7619 29.8419 24.8541C29.7541 24.9793 29.7128 25.0966 29.7187 25.2027C29.7232 25.2698 29.7353 25.3291 29.7479 25.3864C29.781 25.54 29.8064 25.6611 29.659 25.8483Z" fill="#F39863"/>
<path d="M29.1158 25.7697C29.6325 25.7168 29.7969 25.4845 29.8038 25.4747L29.7681 25.4505C29.7662 25.4524 29.6055 25.677 29.1111 25.7275L29.1158 25.7697Z" fill="#F39863"/>
<path d="M27.3882 21.3448C27.3901 21.3454 27.5883 21.4004 27.8381 21.6407L27.8682 21.6094C27.6099 21.361 27.4085 21.3054 27.3995 21.303L27.3882 21.3448Z" fill="white"/>
<path d="M29.0479 25.6587C29.085 25.6944 29.1324 25.6974 29.1344 25.698L29.1357 25.6979C29.1472 25.6977 29.4287 25.6922 29.5349 25.6275L29.5412 25.6235L29.5461 25.6119C29.5767 25.5371 29.5711 25.5128 29.446 25.4014L29.4402 25.3957L29.4325 25.3959C29.4223 25.3961 29.1758 25.3925 29.017 25.4871L29.0082 25.4924L29.0071 25.5027C28.9987 25.5637 29.0098 25.6121 29.0387 25.6474C29.0407 25.6518 29.0446 25.6556 29.0479 25.6587ZM29.1367 25.655C29.1323 25.6545 29.0951 25.6501 29.0708 25.6205C29.0518 25.5972 29.0434 25.5628 29.0477 25.5192C29.1807 25.4449 29.3815 25.4397 29.4237 25.4389C29.5299 25.5335 29.5269 25.5444 29.5067 25.5941C29.4086 25.6478 29.1547 25.6547 29.1367 25.655Z" fill="#FFC7C1"/>
<path d="M29.1633 25.6702L29.205 25.6777C29.2062 25.6739 29.2204 25.5821 29.0832 25.4664L29.0556 25.4989C29.1728 25.5977 29.1639 25.6696 29.1633 25.6702Z" fill="#FFC7C1"/>
<path d="M29.7234 25.2126L29.7594 25.1895C29.7336 25.1484 29.7 25.0998 29.6605 25.0429C29.5084 24.8238 29.2787 24.4923 29.2947 24.2981L29.2957 24.2853L29.2854 24.2778C29.1161 24.1627 28.9439 23.9318 28.7921 23.7281C28.7041 23.6107 28.622 23.5003 28.5528 23.43L28.5226 23.46C28.5899 23.5285 28.672 23.6376 28.7581 23.7543C28.9086 23.9568 29.0801 24.1858 29.2514 24.3066C29.2433 24.5173 29.4632 24.8343 29.6258 25.0673C29.664 25.1242 29.6976 25.1728 29.7234 25.2126Z" fill="#F39863"/>
<path d="M28.7881 24.9117C29.245 24.8126 29.445 24.9623 29.6217 25.0945C29.6373 25.1057 29.6522 25.1176 29.6678 25.1288L29.6934 25.0944C29.6784 25.0838 29.6635 25.0719 29.6479 25.0607C29.4641 24.9228 29.2563 24.7669 28.779 24.8703L28.7881 24.9117Z" fill="#F39863"/>
<path d="M29.0404 24.8003C29.0756 24.8342 29.1126 24.861 29.1515 24.882L29.1718 24.8439C28.8776 24.6851 28.7755 24.1425 28.7747 24.1367L28.7326 24.144C28.7334 24.1497 28.7591 24.2874 28.8224 24.4475C28.883 24.6012 28.9563 24.7194 29.0404 24.8003Z" fill="#F39863"/>
<path d="M28.957 24.6916C29.0354 24.7054 29.1216 24.698 29.1953 24.671C29.276 24.6419 29.3288 24.5935 29.3443 24.5343L29.3025 24.523C29.278 24.6137 29.1141 24.6745 28.9645 24.6486L28.957 24.6916Z" fill="#F39863"/>
</g>
</g>
<defs>
<linearGradient id="paint0_linear_73_6101" x1="0" y1="0" x2="59.5" y2="60" gradientUnits="userSpaceOnUse">
<stop stop-color="#DEE6E8"/>
<stop offset="1" stop-color="#E4EAEB"/>
</linearGradient>
<clipPath id="clip0_73_6101">
<rect width="56" height="56" rx="8.35821" fill="white"/>
</clipPath>
</defs>
</svg>
