<svg width="68" height="96" viewBox="0 0 68 96" fill="none" xmlns="http://www.w3.org/2000/svg">
<path d="M31.8778 94.6366C31.8778 94.6366 2.69062 58.0396 0.399462 36.3867C-1.92335 14.7357 31.2162 57.7502 31.8778 94.6366Z" fill="#74A348"/>
<path d="M31.7168 93.9365C31.7168 93.9365 63.6366 59.693 67.5885 38.284C71.5404 16.8719 35.2174 57.2075 31.7168 93.9365Z" fill="#74A348"/>
<path d="M31.0021 93.6051C31.0021 93.6051 58.6721 38.5426 57.3512 8.10746C56.0304 -22.3309 24.9319 42.2086 31.0021 93.6051Z" fill="#74A348"/>
<path d="M33.6074 95.6417L3.51471 34.199" stroke="#A9E594" stroke-width="0.883184" stroke-miterlimit="10"/>
<path d="M50.9635 9.13408C30.475 53.2066 33.6072 95.6417 33.6072 95.6417" stroke="#A9E594" stroke-width="0.883184" stroke-miterlimit="10"/>
<path d="M62.0243 38.4256C62.0243 38.4256 45.5947 58.3113 33.0508 86.3455" stroke="#A9E594" stroke-width="0.883184" stroke-miterlimit="10"/>
</svg>
