<svg width="896" height="240" viewBox="0 0 896 240" fill="none" xmlns="http://www.w3.org/2000/svg">
<path d="M163.5 3.50008C19 11.5001 3 16.9999 -74 16.9999L-2.31486 306.854H1061.18L1090 208.172C1062.84 208.172 1063.24 95.9416 1004.5 80.4998C915.275 57.0432 725.419 114.633 633.5 80.4998C462.5 17.0001 360.774 -7.42167 163.5 3.50008Z" fill="#BB8542"/>
<path d="M565.556 118.755C564.883 118.589 564.415 118.477 563.898 118.357C564.269 118.696 564.536 119.069 564.482 119.482C564.483 119.544 564.444 119.592 564.431 119.644C565.608 120.07 566.615 120.43 567.712 120.826C567.528 121.74 567.32 122.571 567.032 123.713C564.771 122.714 563.005 121.967 561.092 121.155C561.433 120.996 561.663 120.881 561.985 120.748C561.04 120.609 560.042 120.414 559.413 120.094C556.104 118.537 556.074 117.66 559.038 116.798C558.565 116.469 558.369 116.099 558.88 115.748C559.507 115.307 561.132 115.038 562.324 115.195C563.612 115.364 565.437 116.044 566.074 116.668C566.623 117.18 565.856 117.88 565.556 118.755ZM487.828 83.0128C488.057 83.3692 488.285 83.7565 488.519 84.1054C486.033 84.3996 484.372 84.3172 483.631 83.0386C483.254 82.3785 483.136 81.7713 483.737 81.2962C483.235 80.4762 483.426 79.6027 484.404 78.6021C486.407 78.8098 488.622 79.0509 490.951 79.3376C491.294 81.1609 490.463 82.3899 487.828 83.0128ZM522.601 84.7371C521.375 84.6311 520.231 84.321 519.114 84.0124C519.269 84.1774 519.592 84.2738 519.657 84.4543C519.904 84.5211 520.104 84.5378 520.345 84.6011C521.289 84.8897 522.492 85.6485 522.551 86.117C522.724 86.9817 521.602 87.4204 519.677 87.0643C519.195 86.9796 518.729 86.8944 518.251 86.8108C517.641 86.9046 516.902 86.9523 515.942 86.868C515.2 86.7861 514.514 86.6936 513.851 86.5732C513.654 86.8553 513.436 87.1605 513.13 87.5699C512.467 87.1605 511.898 86.8281 511.346 86.4729C512.323 87.673 513.116 89.0301 509.184 89.463C507.329 88.1091 505.599 86.8459 503.667 85.5058C506.576 85.0884 508.61 85.1641 509.971 85.6372C509.659 85.4528 509.372 85.2663 509.025 85.0659C509.336 84.8452 509.745 84.7089 510.079 84.548C509.863 84.2343 509.634 83.9396 509.491 83.5444C511.454 83.3262 513.526 82.9882 515.722 82.9608C515.813 82.9651 515.881 82.9949 515.963 82.9884C515.082 82.6556 514.257 82.3728 513.261 81.9526C515.729 81.3614 517.86 80.8657 520.082 81.5759C521.959 82.1918 524.096 83.3075 522.601 84.7371ZM516.547 75.9834C518.036 76.5744 519.48 77.1731 521.191 77.8737C520.725 78.5714 520.274 79.213 519.656 80.116C514.48 77.9317 514.428 77.8729 516.547 75.9834ZM570.876 106.86C567.808 106.075 564.118 105.775 563.436 103.322C564.857 103.12 566.243 102.918 567.952 102.682C572.436 104.408 572.453 104.433 570.876 106.86ZM500.721 73.6023C498.954 72.7085 497.233 71.9798 495.88 71.1026C495.447 70.8026 496.06 70.1122 496.172 69.5749C496.995 69.7343 497.954 69.8198 498.65 70.1096C500.859 71.0079 501.437 72.1427 500.721 73.6023ZM548.969 93.2019C548.227 93.6535 547.816 94.1678 546.994 94.3591C545.293 94.7844 543.757 94.0209 542.677 93.2368C542.061 92.8184 542.118 92.1755 541.875 91.6306C543.211 91.6674 544.561 91.558 545.859 91.7986C546.837 91.9885 547.735 92.6109 548.969 93.2019ZM565.286 111.304C564.421 111.845 560.03 111.086 557.934 109.808C558.088 109.364 557.915 108.493 558.605 108.021C559.122 107.652 560.102 107.559 561.192 107.65C556.026 106.419 555.667 105.785 558.704 103.564C563.81 105.17 564.584 106.149 562.346 107.867C563.166 108.05 563.965 108.307 564.579 108.687C566.044 109.633 566.399 110.589 565.286 111.304ZM550.235 120.416C551.444 120.842 552.204 121.655 553.272 122.38C548.834 122.903 548.862 122.907 544.939 120.225C546.346 119.253 548.503 119.785 550.235 120.416ZM416.078 66.0914C414.55 64.7695 412.186 63.611 413.314 61.3073C414.688 61.0834 416.394 60.8531 418.215 60.5792C418.839 61.9656 419.304 63.0215 419.845 64.1983C419.077 64.7249 418.221 65.3348 417.355 65.8919C417.146 66.0164 416.711 66.0128 416.078 66.0914ZM454.278 75.7324C454.906 75.4131 455.526 75.3239 456.133 75.1511C452.847 74.0169 452.842 73.2168 455.765 71.3515C456.488 71.7243 456.861 71.9486 457.396 72.229C458.42 71.9468 459.376 72.2165 461.583 73.1038C463.232 73.7325 464.87 74.3664 466.498 75.0094C466.481 75.0582 466.492 75.0985 466.478 75.1435C468.49 76.0869 467.419 77.3451 467.085 78.657C466.414 78.4281 466.023 78.2613 465.54 78.0618C462.834 78.5328 461.661 77.1665 460.07 76.3753C460.018 76.3586 459.949 76.3239 459.901 76.3083C459.605 76.5803 459.346 76.8436 459.005 77.1715C457.325 76.6575 456.025 76.2749 454.278 75.7324ZM479.264 92.0323C477.852 91.3176 476.616 90.6945 475.346 90.0738C475.483 89.8555 475.624 89.6481 475.744 89.4328C477.76 89.4696 479.779 89.5261 482.423 89.592C481.182 90.5609 480.448 91.1283 479.264 92.0323ZM465.005 87.2237C464.374 86.8008 464.08 86.065 464.254 85.549C464.356 85.2714 465.74 85.0212 466.553 85.0365C467.497 85.0311 468.461 85.3228 470.53 85.711C469.251 86.6194 468.703 87.3163 467.703 87.6211C467.131 87.81 465.544 87.5448 465.005 87.2237ZM485.03 66.7313C481.722 66.1906 479.745 65.0027 478.001 63.2436C481.856 62.5417 484.595 63.9874 485.03 66.7313ZM467.762 69.8076C467.762 69.8076 467.774 69.8331 467.762 69.8459C467.771 69.8653 467.826 69.8844 467.829 69.8843C467.839 69.8543 467.796 69.841 467.762 69.8076ZM464.2 65.5943C464.186 65.6096 464.165 65.6325 464.149 65.6491C464.19 65.6811 464.226 65.7095 464.246 65.736C464.268 65.6685 464.215 65.6493 464.2 65.5943ZM458.418 69.2016C458.848 69.0917 459.229 69.0885 459.65 69.0333C458.988 68.9153 458.422 68.8001 457.86 68.67C456.635 68.3985 455.385 67.9487 454.128 67.8166C449.647 67.3348 448.751 66.3505 451.065 63.864C452.354 64.4705 453.631 65.0354 454.25 65.3574C455.166 65.2975 455.995 65.2406 456.828 65.2082C455.807 64.8407 454.732 64.4862 453.742 64.0831C452.059 63.4075 452.975 61.3087 454.856 61.5305C457.57 61.8249 460.479 62.4423 462.851 63.3437C463.769 63.6987 464.191 64.1262 464.386 64.5752C464.688 64.2067 465.858 63.9195 467.021 63.446C468.094 64.7231 469.072 65.6206 469.479 66.5377C469.639 66.9842 468.869 67.8134 468.223 67.8628C467.926 67.8841 467.524 67.8189 467.119 67.7884C467.403 68.0107 467.785 68.2446 467.989 68.4895C468.146 68.6706 468.144 68.8806 468.113 69.094C471.556 68.2705 472.018 68.3632 475.248 69.655C472.234 71.9408 470.516 71.9814 468.064 70.0368C467.528 70.79 467.019 71.5213 466.488 72.2571C462.447 72.3763 460.176 71.3183 458.418 69.2016ZM497.62 89.3717C497.868 89.9202 497.206 90.5086 496.941 91.0833C496.026 90.89 494.82 90.8204 494.2 90.4786C493.438 90.0429 492.716 89.496 491.989 89.0209C491.492 89.1083 490.885 89.1391 490.007 89.0471C490.046 88.3159 487.625 87.3532 490.387 86.8839C490.771 86.8164 491.583 87.0972 492.183 87.4063C495.226 87.5226 497.02 88.1636 497.62 89.3717ZM478.151 84.241C475.164 83.2756 471.302 83.1269 471.828 80.5611C473.417 80.3632 474.293 80.2787 475.28 80.3324C474.599 80.0335 474.001 79.5935 473.325 79.1586C471.364 77.8231 472.038 76.8614 473.599 75.9025C477.207 76.7428 478.233 77.1435 478.42 78.6251C478.587 78.6886 478.731 78.6836 478.88 78.7587C479.64 79.1389 479.767 79.8953 480.484 80.9141C479.849 80.9187 479.355 80.9307 478.822 80.9503C479.569 81.1333 480.317 81.3212 481.411 81.596C480.228 82.5555 479.26 83.331 478.151 84.241ZM231.727 71.9001C233.892 73.3915 231.781 74.0804 231.053 75.6331C229.585 74.2239 228.684 73.3694 227.741 72.4855C228.602 71.0172 230.124 70.8105 231.727 71.9001ZM224.715 83.9017C223.436 84.8323 222.276 85.6725 220.656 83.6671C222.964 81.3401 223 81.3488 224.715 83.9017ZM276.9 85.0628C274.304 85.1212 272.694 85.1804 270.977 85.2579C271.128 84.0351 271.223 83.1674 271.44 81.4742C273.385 82.741 274.756 83.625 276.9 85.0628ZM213.176 76.5087C212.529 78.0511 211.951 79.4233 208.838 77.8657C209.349 75.6672 210.595 75.0822 213.176 76.5087ZM152.05 76.2985C150.187 75.4784 150.256 74.7943 151.633 73.7356C153.511 72.2841 155.487 72.5471 158.139 74.2996C157.804 74.6569 157.528 74.8566 157.233 75.1545C157.371 75.2807 157.521 75.3558 157.678 75.5344C156.119 76.7291 155.291 77.0898 154.354 76.7342C153.647 76.7907 152.942 76.6865 152.05 76.2985ZM61.6957 65.5683C60.5385 63.4432 64.4801 60.734 67.6682 61.5629C68.5988 61.81 69.391 62.6682 70.5786 63.4856C68.5627 64.6046 66.9638 65.739 65.0182 66.6049C63.9398 67.0928 62.3536 66.7991 61.6957 65.5683ZM170.422 76.92C170.507 77.9704 169.852 78.7203 168.14 78.4075C166.169 78.0357 165.671 77.1995 165.918 74.4333C168.635 74.1781 170.259 74.9262 170.422 76.92ZM23.9358 61.704C25.4738 61.2424 27.0552 60.8212 28.5269 60.3037C32.6951 58.8995 33.1621 59.0378 36.6939 62.526C36.5744 62.7166 36.3745 62.8 36.2173 62.9721C36.4207 63.0652 36.6557 63.1052 36.839 63.2237C36.2647 63.4534 35.7778 63.6726 35.252 63.8747C33.8781 64.9729 32.1703 65.6356 30.134 65.9477C29.6032 66.187 29.0591 66.4305 28.5018 66.6534C28.3336 66.4715 28.2504 66.3891 28.104 66.2299C26.6291 66.3684 25.1 66.474 23.5511 66.5471C19.9868 63.1538 20.042 62.8914 23.9358 61.704ZM46.9499 60.0021C47.3184 60.9762 45.8803 61.9321 45.1313 63.2286C39.2234 59.9864 39.1753 59.988 40.9667 57.48C43.4918 57.6846 46.2588 58.0945 46.9499 60.0021ZM134.164 75.2961C132.704 76.1601 131.377 76.9838 130.048 77.8075C126.32 77.1294 126.444 75.3888 126.564 73.3556C129.079 73.9496 131.6 72.3698 134.164 75.2961ZM150.968 50.6725C150.388 50.1404 150.046 49.1643 150.392 48.73C150.674 48.2807 152.052 47.8788 152.728 48.0877C154.006 48.4958 155.282 49.1163 156.581 49.7187C155.799 47.4115 156.282 47.2146 160.733 46.5614C161.485 47.7161 162.06 48.6361 162.66 49.6046C161.183 50.5273 159.941 51.4715 157.757 50.8823C154.755 52.7738 153.217 52.7291 150.968 50.6725ZM173.064 48.6663C172.613 48.1298 173.311 46.6387 174.103 46.4509C175.65 46.1074 176.476 43.887 179.022 45.6666C179.832 46.2303 180.758 47.547 180.451 47.9033C179.713 48.808 178.231 49.3208 176.795 50.1903C175.338 49.6278 173.59 49.336 173.064 48.6663ZM150.209 57.2215C150.791 56.3729 151.402 55.4084 152.13 54.3633C155.107 55.4896 155.461 56.6617 154.527 57.7498C153.638 58.7806 152.177 58.6543 150.209 57.2215ZM89.7245 57.8242C91.5776 58.6533 93.2476 59.443 95.558 60.5231C93.4749 61.3073 91.8914 61.9534 90.1549 62.6442C88.9268 61.2255 88.0707 60.2324 87.1607 59.1868C88.0968 58.694 88.8724 58.2783 89.7245 57.8242ZM215.192 50.082C217.669 49.8153 219.724 49.5717 222.343 49.3198C222.743 50.6373 223.088 51.7369 223.427 52.896C219.513 53.5085 217.25 52.7318 215.192 50.082ZM98.7042 58.8749C97.0563 57.5077 98.3712 56.0225 102.213 55.0741C101.538 54.6836 100.991 54.1665 100.714 53.4165C99.9181 51.2581 100.826 50.4858 105.182 49.7519C106.547 50.7472 107.919 51.73 109.395 52.8104C108.634 53.412 107.908 54.0075 107.098 54.5701C106.635 54.8898 106.068 55.1662 105.452 55.3344C105.194 55.4284 104.925 55.4142 104.685 55.4608C105.094 55.6085 105.558 55.7679 105.842 56.0175C107.165 57.1476 105.11 59.7042 102.524 59.9636C101.48 60.07 99.4623 59.4959 98.7042 58.8749ZM82.8277 60.0769C81.8186 60.7463 80.3025 61.1591 78.9769 59.9969C78.0986 59.2244 77.6253 57.8983 78.013 57.2033C78.4133 56.4424 79.894 55.7184 81.1833 55.7556C82.2665 55.7653 83.6558 56.8388 85.4266 57.7189C84.2082 58.8451 83.6274 59.5332 82.8277 60.0769ZM170.583 57.4555C173.822 55.2471 174.148 55.2248 176.196 57.3093C177.979 56.6873 179.726 56.0777 182.491 57.8757C181.963 60.67 179.676 61.4637 175.968 61.2393C175.361 60.3957 174.727 59.5197 174.055 58.5549C173.012 58.5562 171.864 58.1845 170.583 57.4555ZM64.787 50.6488C66.8046 50.3658 68.7782 50.8548 70.1981 52.1706C71.2639 53.1836 69.4736 55.6188 66.7141 56.0718C65.7903 55.6294 63.9925 55.0762 63.0588 54.2377C61.4681 52.8439 62.536 50.9708 64.787 50.6488ZM170.873 39.8415C169.684 40.4097 168.214 40.6751 167.223 39.5225C166.577 38.7815 166.311 37.5372 166.787 36.9058C167.44 36.0856 168.976 35.6487 170.157 35.0585C172.932 38.2467 172.988 38.8042 170.873 39.8415ZM177.921 40.0176C176.571 41.3781 174.908 40.4325 172.579 39.6074C172.873 38.4649 173.189 37.2709 173.496 36.0909C174.828 36.3995 176.351 36.5101 177.404 37.0802C179.096 37.9568 178.902 39.0873 177.921 40.0176ZM184.133 40.7449C182.95 42.5837 180.703 41.2211 178.354 40.6375C178.883 38.983 179.52 37.6484 182.103 38.4622C183.064 38.7626 184.396 40.3098 184.133 40.7449ZM198.197 31.1707C200.743 27.4808 201.627 27.3714 205.427 29.9217C202.86 32.8973 202.72 32.9565 198.197 31.1707ZM225.127 25.5774C227.293 25.7857 228.675 27.9611 228.451 30.903C226.419 30.9815 224.334 31.0829 222.252 31.1607C222.496 31.6364 222.75 32.0661 222.999 32.5712C224.946 32.6586 227.147 32.7694 229.267 32.873C230.964 34.4201 230.578 35.8041 229.325 36.6339C227.354 38.0108 224.833 36.8551 222.129 36.2665C221.92 35.2104 221.766 34.5154 221.603 33.7393C219.062 33.6551 216.631 33.5869 213.942 33.5324C214.028 31.1596 215.629 30.2289 217.864 29.6334C218.138 26.1587 220.111 25.0696 225.127 25.5774ZM202.96 34.6759C203.646 34.5745 204.384 34.4651 205.072 34.3846C205.106 34.3229 205.129 34.2505 205.159 34.1877C205.533 33.7871 207.142 33.6095 207.879 33.8793C208.198 33.9869 208.54 34.3394 208.761 34.7097C209.074 34.8891 209.415 35.0762 209.7 35.285C212.564 37.2772 212.409 38.3063 209.435 39.4213C207.163 40.2836 204.793 40.4639 201.988 39.57C201.658 39.1887 201.262 38.7639 200.929 38.3246C198.964 35.8791 199.294 35.1922 202.96 34.6759ZM342.246 74.2714C342.602 74.1468 342.96 74.0283 343.334 73.8956C344.409 74.8034 345.5 75.7192 346.795 76.8083C347.312 76.6164 347.834 76.4206 348.346 76.2425C348.612 76.4371 348.876 76.6206 349.141 76.8363C348.247 78.0513 347.373 79.2632 346.149 81.0071C345.001 80.0277 344.246 79.3535 343.326 78.5726C343.068 78.6864 342.863 78.7639 342.571 78.8727C342.432 76.9782 342.353 75.6286 342.246 74.2714ZM218.276 43.8803C216.884 45.0619 215.404 44.5484 213.41 43.2561C214.679 42.1985 215.989 41.1779 217.398 40.0587C220.223 41.7373 219.489 42.842 218.276 43.8803ZM107.007 34.0955C111.736 36.3879 111.993 37.8338 107.952 39.2559C106.043 39.9242 104.045 40.2832 101.343 39.1523C101.322 36.4386 102.15 34.2502 107.007 34.0955ZM120.856 33.1226C128.727 32.1245 128.715 31.8544 131.615 35.536C129.155 36.9013 126.209 37.2608 122.459 36.7377C121.906 35.5045 121.415 34.4149 120.856 33.1226ZM206.773 41.448C207.029 42.3494 207.265 43.2576 207.573 44.3349C203.276 43.4145 205.277 42.4133 206.773 41.448ZM74.888 48.1118C76.297 50.5134 74.1842 50.8282 72.3326 51.2648C71.6842 51.3896 70.9286 51.3786 70.1515 51.4633C69.2751 50.4957 68.5562 49.6843 67.0758 48.0459C70.3562 48.0738 72.6513 48.0973 74.888 48.1118ZM0.905026 90.5121C-1.89838 91.7744 -3.18891 94.2553 -8.7108 91.9544C-8.84267 89.163 -8.84688 89.1471 -4.18387 86.3168C-2.34395 87.8416 -0.831828 89.0727 0.905026 90.5121ZM-58.2973 117.251C-58.0865 117.485 -58.2671 117.769 -58.3247 118.251C-61.8739 118.281 -65.4191 119.002 -70.1545 116.528C-70.1249 115.449 -70.0019 114.139 -69.9223 112.714C-66.5893 113.335 -64.0106 113.807 -61.1829 114.329C-60.2826 115.239 -59.2314 116.256 -58.2973 117.251ZM-33.4054 86.5577C-33.2497 86.5227 -33.181 86.4684 -33.0253 86.4322C-31.4589 87.3724 -29.9238 88.3002 -28.3974 89.2294C-29.2144 92.0337 -32.196 92.75 -37.3839 92.3234C-37.7893 91.1765 -37.7766 90.219 -37.5081 89.3996C-40.1648 89.0328 -43.0356 88.3338 -45.4307 85.9797C-41.8591 85.7037 -39.1679 85.1678 -36.3274 85.3775C-35.4299 85.4516 -34.4181 85.9763 -33.4054 86.5577ZM-2.25515 70.1938C-0.837417 70.6575 0.512311 71.5521 1.9643 71.7899C0.971484 75.6647 1.02925 75.6553 -4.71629 75.6566C-5.12046 75.3346 -5.09715 75.0769 -5.39208 74.7684C-5.4654 74.7932 -5.53744 74.8191 -5.61072 74.8451C-9.27449 70.5736 -8.44495 69.3187 -2.61609 69.3676C-2.45179 69.7238 -2.37753 69.9065 -2.25515 70.1938ZM-24.063 100.023C-25.9985 97.6606 -25.8614 96.1097 -23.823 94.7454C-22.5395 95.6904 -21.3275 96.6058 -19.5442 97.9572C-21.1312 98.6811 -22.3558 99.2716 -24.063 100.023ZM-27.2369 67.2669C-26.7068 66.83 -26.3224 66.2537 -25.5644 66.0078C-23.1509 65.1986 -20.5833 65.6721 -17.5287 67.254C-19.8057 67.7571 -21.7708 68.378 -23.98 68.6244C-24.7023 68.6838 -26.1126 67.7543 -27.2369 67.2669ZM-9.44587 58.3696C-7.93917 57.8263 -6.41968 57.2961 -4.6278 56.6701C-3.20193 57.5139 -1.90616 58.3128 -0.0781601 59.4194C-5.5937 61.2553 -5.77172 61.254 -9.44587 58.3696ZM-35.9299 72.607C-37.8983 74.427 -41.0023 74.8562 -45.3252 74.7085C-45.8841 71.5786 -42.0482 70.8292 -35.9299 72.607ZM53.1345 53.2528C53.8757 53.2384 54.5397 53.3181 54.7055 53.4668C55.1291 53.8486 55.398 54.2988 55.7103 54.7524C55.9606 54.9142 56.1147 54.9743 56.3791 55.148C56.3023 55.2161 56.2234 55.2595 56.1496 55.3053C56.5978 56.0444 57.0286 56.8891 57.6388 57.8462C55.028 57.8804 53.5307 57.906 51.7624 57.9582C51.6263 57.7418 51.4558 57.5637 51.2664 57.3418C49.7723 57.5673 48.0848 57.5278 45.8624 56.8127C45.39 55.6928 44.9267 54.5528 44.4553 53.3896C48.9614 52.1417 50.394 51.8887 53.1345 53.2528ZM10.2777 60.9476C9.22439 62.9573 6.59145 63.9296 2.84923 65.1389C1.97051 63.0241 1.26409 61.2095 3.12217 60.2441C4.75684 59.4321 7.47081 58.8398 10.2777 60.9476ZM128.388 57.9253C129.104 61.2919 129.143 61.2782 123.502 60.4126C123.486 57.2382 123.525 57.2294 128.388 57.9253ZM116.337 61.6693C116.361 62.6688 116.39 63.5792 116.431 64.8324C115.236 64.3969 113.745 64.1061 113.577 63.7501C112.901 62.1802 114.206 61.6599 116.337 61.6693ZM-25.05 83.8719C-27.8698 82.8266 -28.2059 81.1044 -26.509 79.3702C-24.4294 79.4184 -22.4677 79.4905 -20.2517 79.5859C-18.3878 81.0877 -16.6761 82.6589 -19.2848 83.6539C-20.6923 84.1691 -23.5403 84.4214 -25.05 83.8719ZM61.3917 44.9096C59.6352 46.4198 58.7813 48.7301 53.6721 47.3214C53.3489 46.1902 53.0239 45.0801 52.6252 43.7292C56.4534 41.9649 56.4856 41.9688 61.3917 44.9096ZM33.6926 51.7112C34.4232 53.1877 32.6631 53.6582 30.9049 53.7916C29.9541 53.891 28.6009 53.3633 27.4364 53.1107C27.6437 52.2366 27.5423 51.2287 28.2017 50.528C28.7053 50.0031 30.1136 49.867 31.4612 49.4786C32.3372 50.3289 33.3729 51.0059 33.6926 51.7112ZM0.675882 84.1762C-3.21582 85.3165 -6.4663 84.6133 -10.0561 82.0261C-9.17088 80.8434 -8.13922 79.536 -7.0445 78.1917C-2.31513 79.5542 0.463634 81.2764 0.675882 84.1762ZM81.0276 40.3415C81.8456 39.5045 82.1434 38.4248 82.8082 37.2312C84.5421 38.0088 85.9273 38.6441 87.5656 39.3731C87.3487 40.5427 87.3089 41.2887 87.0343 41.9675C86.4894 43.5559 83.9236 44.4295 82.0729 43.6337C79.6744 42.5788 79.8872 41.507 81.0276 40.3415ZM142.584 38.9166C146.217 39.4622 148.376 40.1968 149.028 40.9882C149.289 40.6272 149.637 40.293 150.122 39.9959C150.802 39.5601 152.58 39.4359 153.392 39.7982C154.198 40.1434 154.892 41.3829 154.791 42.0508C154.553 43.6471 153.058 44.4519 150.467 44.1717C149.392 43.4851 148.923 42.8368 148.806 42.2283C148.025 43.106 146.646 43.9129 145.211 44.0191C142.947 44.1711 141.97 42.419 142.584 38.9166ZM91.4257 50.2486C89.522 49.7435 87.4112 48.5392 87.5992 46.852C91.6889 45.7913 92.4536 45.8131 95.0894 47.6206C95.9471 45.567 97.2651 44.9622 99.3049 45.759C101.214 46.5355 102.58 47.5666 101.809 49.0195C100.99 50.7161 99.625 50.789 95.5487 49.2571C94.6489 50.3019 93.2032 50.7148 91.4257 50.2486ZM169.144 59.5439C169.237 59.8494 169.324 60.1366 169.428 60.4677C167.622 61.0362 165.798 61.6275 164.006 62.2177C163.658 61.9666 163.338 61.7158 162.961 61.4213C163.275 60.4559 163.613 59.4884 164.046 58.1793C165.816 58.6395 167.486 59.102 169.144 59.5439ZM143.792 60.8866C143.594 60.9057 143.427 60.9016 143.244 60.9338C142.611 58.135 143.037 56.6397 147.036 56.9417C147.09 57.1819 147.234 57.4807 147.362 57.7628C147.483 57.7167 147.561 57.6658 147.697 57.6439C148.633 57.4981 150.244 57.6476 150.994 58.117C151.776 58.6088 152.223 59.7506 152.191 60.4951C152.112 62.2922 149.936 63.4365 147.701 63.1256C145.26 62.7774 144.49 62.4692 143.792 60.8866ZM1.24748 107.51C4.1341 109.062 2.40367 109.928 1.8823 111.05C1.97332 111.073 2.03592 111.097 2.13558 111.119C0.544955 113.607 -1.26105 114.325 -3.85218 113.385C-5.2032 112.884 -6.93718 111.566 -6.97784 110.887C-6.96904 110.244 -5.2262 109.557 -3.94849 109.616C-3.85938 109.619 -3.73089 109.688 -3.63778 109.664C-3.14609 108.614 -2.75624 107.765 -2.04198 107.22C-1.61582 106.924 0.457499 107.113 1.24748 107.51ZM92.7139 67.465C93.2843 66.3302 93.7819 65.3807 94.6539 63.7428C97.8823 67.4663 97.6545 67.7445 92.7139 67.465ZM4.31068 101.582C3.22479 101.674 1.51417 101.32 0.418642 100.808C-0.180697 100.527 -0.367442 99.4092 -0.138328 98.8826C0.104124 98.2408 0.978604 97.8266 2.32695 96.7404C4.04131 98.2807 5.42495 99.1902 5.85861 100.082C6.14252 100.609 5.16445 101.463 4.31068 101.582ZM-1.02083 131.368C-2.17063 131.974 -2.97928 133.081 -4.46668 133.036C-6.20442 133.008 -8.48454 132.019 -10.5979 131.421C-10.2705 130.481 -10.3328 128.813 -9.45704 128.831C-6.86346 128.871 -3.66367 128.71 -1.02083 131.368ZM383.663 72.7293C383.681 70.2192 383.749 70.0872 385.153 69.7388C386.957 69.2766 388.408 69.7368 389.203 70.6924C389.625 71.2275 389.916 72.2103 389.457 72.5682C387.859 73.7816 385.856 73.4862 383.663 72.7293ZM399.952 76.3837C397.143 75.7221 394.16 75.5777 393.719 73.1613C396.756 71.7305 399.294 72.1779 402.157 73.833C401.395 74.7064 400.738 75.4712 399.952 76.3837ZM338.016 64.7894C340.02 64.408 340.454 62.5159 342.44 63.459C344.812 64.5951 342.747 65.7776 341.852 67.42C340.486 66.4864 339.508 65.8026 338.016 64.7894ZM447.014 87.219C446.164 86.8814 445.748 86.4635 445.792 85.9088C445.85 85.2942 446.804 84.3883 447.66 84.2576C448.503 84.152 450.169 84.7085 450.67 85.2272C450.716 85.2651 450.697 85.33 450.747 85.3579C452.36 85.3802 453.645 85.3916 454.664 85.5776C455.247 85.6959 455.895 86.5133 455.769 86.8758C455.876 86.8054 455.889 86.7259 456.059 86.6546C456.929 86.2925 458.829 86.3901 460.086 86.6334C461.058 86.805 461.717 87.5047 462.786 88.1101C460.193 89.8196 458.427 90.0347 456.614 88.8733C455.908 88.4134 455.238 87.8314 455.378 87.3042C454.815 87.8175 453.987 87.9003 453.06 87.8445C453.307 88.1868 453.562 88.5263 453.915 88.934C450.393 88.676 447.708 89.9898 445.337 88.4313C445.835 87.9461 446.393 87.5429 447.014 87.219ZM366.989 70.7848C365.017 70.3513 363.984 69.5211 364.462 68.6044C364.929 67.6906 367.452 67.0295 369.259 67.5836C369.907 67.7848 370.477 68.7544 370.29 69.2635C369.934 70.2822 369.131 71.2582 366.989 70.7848ZM274.328 47.8858C277.276 47.5868 279.314 47.4179 282.245 47.1936C282.138 47.9678 282.03 48.6063 281.962 49.2323C283.645 49.2337 285.148 49.4327 285.122 51.0204C285.146 51.3926 283.735 51.9931 282.997 51.9419C281.911 51.8953 281.264 51.6336 280.954 51.1923C278.027 51.4831 276.562 50.0639 274.328 47.8858ZM257.913 40.5543C260.462 41.5559 261.552 42.5829 260.401 43.9747C258.97 45.6985 256.683 45.7537 252.782 44.7641C254.836 43.0238 256.401 41.7524 257.913 40.5543ZM249.396 41.0128C251.182 44.6871 250.427 45.212 244.368 45.0178C243.205 42.152 243.177 42.132 249.396 41.0128ZM327.159 61.6075C327.285 61.0672 328.389 60.2944 329.099 60.2824C331.107 60.2516 333.022 61.5503 332.907 62.5582C332.806 63.5386 331.365 64.071 329.313 63.9588C327.026 63.8374 326.875 62.6867 327.159 61.6075ZM235.647 40.8807C236.14 39.7968 236.621 38.7293 237.167 37.4904C238.98 37.3786 240.823 37.2658 242.647 37.145C246.864 36.8777 246.88 36.8932 248.502 40.294C246.126 40.6449 244.078 40.9784 242.041 41.2992C241.163 41.4319 240.277 41.7316 239.398 41.9162C240.648 44.3702 239.882 44.9388 235.234 45.0147C235.652 43.6863 235.504 42.2021 236.766 41.5412C236.405 41.3758 236.056 41.247 235.647 40.8807ZM252.109 51.9586C256.331 50.6056 256.358 50.6133 258.959 51.25C259.047 52.4682 259.764 53.8638 257.479 54.3351C254.881 54.8629 253.755 53.3283 252.109 51.9586ZM297.613 44.8977C298.084 44.716 298.526 44.6365 298.973 44.573C298.896 43.4383 300.774 41.8028 302.234 41.9366C303.835 42.084 305.044 42.755 305.244 43.9337C305.376 44.9023 305.409 45.8718 305.478 46.8561C305.407 46.8722 305.35 46.8655 305.273 46.862C305.391 47.3383 305.39 47.873 305.254 48.2779C305.158 48.6195 303.11 48.8777 302.088 48.6905C299.439 48.2445 297.91 46.9671 297.613 44.8977ZM499.584 86.8677C499.073 87.0742 498.501 87.2569 498.03 87.404C497.063 87.3421 496.326 87.0859 495.538 86.8821C495.066 86.9119 494.479 86.8741 493.476 86.7357C493.611 86.6261 493.722 86.542 493.838 86.4478C492.837 86.0365 491.963 85.5565 491.182 84.9696C488.966 83.2305 489.32 82.4514 492.932 81.9171C493.72 81.8196 494.62 81.7727 495.438 81.6976C496.867 82.3968 498.149 82.9986 499.43 83.6349C502.539 85.1828 502.545 85.7667 499.584 86.8677ZM286.834 28.6758C282.77 30.8583 278.423 31.6586 273.259 30.7248C272.833 33.1142 270.893 34.3875 266.702 34.449C265.457 33.4705 264.293 32.5671 263.197 31.702C265.264 28.9721 266.512 28.4784 270.209 29.5862C270.14 28.9464 270.078 28.3125 269.981 27.4847C270.879 27.4353 271.383 27.4019 271.891 27.3696C274.649 27.1784 277.435 27.9371 280.286 27.1031C282.025 26.5641 285.231 26.4069 286.834 28.6758ZM223.957 37.0915C226.009 36.7875 226.798 38.1151 227.122 39.1178C227.15 39.2379 226.893 39.4776 226.696 39.6758C227.583 39.3008 228.86 39.3433 231.147 39.5919C231.961 41.2212 231.982 42.5357 229.502 43.3224C227.69 43.8701 226.113 44.7863 224.341 42.8924C224.981 41.4168 225.492 40.6237 226.11 40.0961C225.794 40.2848 225.454 40.4694 225.208 40.4532C224.14 40.3911 223.016 39.6209 221.258 38.8985C222.513 38.018 223.062 37.2099 223.957 37.0915ZM328.805 33.0781C325.788 34.5712 323.603 35.0317 321.364 34.6283C322.376 36.9522 321.224 37.4537 316.014 37.2872C315.81 34.9157 315.923 34.4537 318.651 33.8288C318.165 33.6134 317.715 33.4572 317.177 33.1805C315.959 32.5111 315.886 31.1749 317.303 30.9694C319.737 30.6226 322.387 30.2906 324.903 30.5474C326.175 30.6889 327.335 32.0691 328.805 33.0781ZM508.411 80.4448C506.767 80.3606 505.682 80.2769 504.892 80.1189C504.526 80.2179 504.291 80.2865 503.97 80.3519C504.027 81.0081 503.453 81.6762 503.823 82.3155C502.351 82.3057 501.287 82.3324 500.434 82.2951C500.37 82.501 500.359 82.6953 500.313 82.9105C496.798 82.7622 496.571 81.75 496.425 80.7733C496.116 80.5357 495.852 80.3224 495.442 79.9784C495.673 79.7691 496.053 79.7573 496.304 79.5819C496.241 79.5557 496.178 79.532 496.114 79.507C497.107 79.0221 497.952 78.667 498.732 78.424C498.682 78.4023 498.589 78.3895 498.549 78.3525C497.428 77.5686 498.565 77.1949 499.743 76.9209C500.336 76.7573 500.762 76.4969 501.489 76.1779C502.386 76.4435 503.294 76.7111 504.215 76.998C507.146 76.8379 507.903 77.5578 508.411 80.4448ZM244.361 59.0556C246.216 58.9165 248.013 60.9404 248.491 63.3259C245.524 64.3369 243.94 61.9771 240.716 61.1063C242.287 60.1692 243.186 59.1429 244.361 59.0556ZM265.164 56.4665C264.315 56.1327 263.402 55.5836 262.008 54.5263C265.64 51.3153 266.78 51.5107 269.45 55.567C268.147 56.333 267.296 56.6809 266.432 56.7094C266.47 57.8442 266.522 58.7921 266.598 60.2233C264.562 59.2893 263.162 58.6385 260.998 57.6435C262.513 57.1962 263.755 56.8361 265.164 56.4665ZM363.582 82.6673C365.216 81.7268 366.884 81.3002 368.616 81.5345C369.459 81.1993 370.282 80.9116 371.237 80.5886C371.941 81.556 372.413 82.1536 372.773 82.7661C372.907 83.0183 372.82 83.3498 372.86 83.7349C372.498 83.8807 372.154 83.9247 371.809 83.9996C371.552 84.448 371.072 84.8659 370.16 85.1974C366.631 86.4907 364.887 85.8604 363.582 82.6673ZM275.569 62.9773C275.205 61.8376 276.484 61.249 277.76 61.4533C278.965 61.6255 280.347 62.1559 281.093 62.8478C281.596 63.2985 281.15 64.324 281.138 65.4939C279.594 65.3025 278.399 65.3905 277.577 64.9804C276.705 64.5535 275.83 63.7414 275.569 62.9773ZM231.971 66.6581C232.806 65.0708 234.23 64.6526 235.927 65.6921C236.49 66.0407 236.29 67.1899 236.54 68.5299C234.522 67.6867 233.288 67.182 231.971 66.6581ZM323.332 72.4127C325.271 71.9706 327.188 71.528 329.271 71.0599C330.034 72.7897 329.941 74.0155 327.888 74.6777C326.12 75.2498 324.466 74.4089 323.332 72.4127ZM508.711 92.0775C507.622 92.9918 505.571 93.0895 503.691 92.3577C500.719 91.1681 499.255 89.2414 500.544 88.1511C501.555 87.3185 503.939 87.3489 506.347 88.2453C508.505 89.0343 509.804 91.1693 508.711 92.0775ZM301.998 71.1102C302.261 70.1602 302.914 69.2338 303.729 68.503C304.179 68.1134 305.51 67.8169 306.049 68.0552C306.833 68.3506 307.263 69.2027 307.938 69.9315C307.004 70.8306 306.325 71.6814 305.388 72.3076C304.854 72.673 303.674 72.9099 303.128 72.7027C302.528 72.4616 301.867 71.5766 301.998 71.1102ZM363.785 55.5744C363.95 54.9723 364.362 54.2467 365.099 53.4051C368.702 54.5618 369.013 55.1056 367.917 56.7042C367.254 57.6644 366.16 57.6427 365.099 57.4125C364.251 57.4652 363.343 57.4692 362.513 57.5113C362.335 57.3273 362.184 57.1213 362.015 56.9196C362.606 56.4893 363.175 56.0005 363.785 55.5744ZM420.086 69.809C420.543 68.8547 421.041 67.8842 421.728 66.4787C424.333 67.508 426.159 68.2404 428.788 69.3022C425.229 70.4978 423.025 71.3566 420.086 69.809ZM353.773 56.7537C354.421 57.728 355.09 58.7139 355.934 60.0446C353.857 60.1123 352.534 60.1899 351.133 60.2467C350.626 58.5032 349.599 56.8887 353.773 56.7537ZM381.053 59.8373C378.057 59.3254 378.785 57.9605 379.347 56.6173C381.766 56.6798 383.654 57.0915 383.299 58.7548C383.211 59.1901 381.654 59.9291 381.053 59.8373ZM397.907 63.765C398.094 63.0387 398.996 62.0357 400.011 61.8464C402.419 61.3758 404.952 61.5999 406.81 63.1167C405.405 64.7371 403.284 65.3769 400.601 65.0111C400.121 64.9362 399.498 64.7341 398.966 64.5091C399.56 65.1988 400.178 65.8938 400.995 66.8598C398.662 67.0672 397.319 67.1863 395.878 67.3446C395.184 65.7099 395.338 64.6142 398.067 63.9584C397.996 63.8929 397.895 63.8161 397.907 63.765ZM359.646 66.0619C357.663 66.5969 356.359 66.9431 354.544 67.4501C354.666 65.7318 353.437 64.0847 356.296 63.7085C358.693 63.3828 357.991 65.2087 359.646 66.0619ZM547.07 119.18C545.364 118.331 543.248 117.704 543.024 117.107C542.785 116.466 544.371 115.851 545.063 115.276C548.945 116.471 548.745 117.602 547.07 119.18ZM474.429 87.9689C475.319 87.2171 476.15 86.5488 477.181 85.7069C479.507 86.6877 481.385 87.4826 483.583 88.4468C480.383 89.7103 477.86 89.5822 474.429 87.9689ZM308.642 40.0589C306.896 40.3746 304.679 40.0421 302.79 39.6699C302.478 39.6102 302.193 39.3632 301.916 39.1047C301.1 39.2909 300.151 39.2716 299.07 38.9507C298.307 38.73 297.579 38.4191 296.729 38.1347C296.813 37.5884 296.707 37.0734 297.012 36.7492C298.297 35.3997 300.006 35.2915 302.61 36.4776C302.623 36.4957 302.634 36.4978 302.634 36.4978C302.668 36.5003 302.68 36.4999 302.695 36.4846C304.588 36.149 306.642 36.0931 309.108 35.8873C309.162 36.5078 309.255 36.7541 309.205 36.9497C308.951 38.0143 311.249 39.5925 308.642 40.0589ZM368.791 43.1306C370.917 42.5919 373.273 42.3417 375.689 42.0017C375.678 41.9873 375.672 41.964 375.681 41.9365C375.824 41.4314 377.199 40.8333 378.128 40.7965C380.942 40.7478 383.456 41.3936 384.943 43.4073C384.116 43.6432 383.116 43.7554 383.083 43.9813C382.805 45.7235 380.868 45.3332 379.236 44.8744C378.392 44.6428 377.574 44.3227 376.928 43.9535C376.444 44.6802 375.152 44.9976 374.214 45.2188C374.291 46.6647 374.37 47.9254 374.407 49.0257C371.457 49.2161 369.536 49.3649 367.062 49.5673C367.159 48.6971 367.256 47.9046 367.326 47.0748C366.529 48.5915 366.252 49.4421 365.644 50.2039C364.918 51.1008 363.658 51.6739 361.96 51.2235C361.319 51.0455 360.362 50.3906 360.469 50.1239C360.811 49.1538 361.225 48.0763 362.244 47.4373C362.938 46.9862 364.679 47.1868 367.337 47.0411C367.377 46.5704 367.423 46.0452 367.476 45.6173C368.389 45.455 369.056 45.3345 369.68 45.234C369.42 45.1861 369.107 45.1994 368.872 45.1383C367.358 44.7841 367.208 43.5407 368.791 43.1306ZM359.488 39.0049C360.452 38.8643 361.488 38.72 362.477 38.5871C362.663 39.812 362.798 40.8274 362.943 41.8573C358.281 43.239 355.644 42.7975 353.143 39.9197C353.209 39.9113 353.229 39.913 353.279 39.9027C352.248 39.5121 351.187 38.9533 350.034 38.0557C350.777 37.1496 351.49 36.2742 352.375 35.2249C354.761 36.4754 357.034 37.6716 359.488 39.0049ZM280.473 32.8378C283.008 32.4382 285.232 32.1122 287.515 31.7867C287.735 32.4756 287.886 33.0422 287.951 33.5068C290.23 33.5568 290.869 34.5253 291.972 37.5265C287.406 37.975 286.179 37.8308 285.323 35.6645C284.706 35.6252 284.092 35.6142 283.471 35.5059C283.001 35.4208 282.361 35.2674 282.108 35.0218C281.542 34.4522 281.183 33.8088 280.473 32.8378ZM266.4 35.6758C262.625 37.3938 260.86 36.8741 259.228 33.4588C262.35 32.955 264.962 33.3085 266.4 35.6758ZM348.763 57.7312C352.485 59.0246 350.635 60.1873 349.151 61.6561C347.912 61.2245 346.743 60.8139 344.91 60.1546C346.437 59.1758 347.626 58.4372 348.763 57.7312ZM313.964 40.6167C313.072 39.7299 312.714 38.916 314.163 38.3166C315.773 37.645 317.233 38.2493 318.079 39.1538C318.739 39.8844 318.79 40.8113 319.093 41.6394C316.437 42.431 315.572 42.2212 313.964 40.6167ZM376.088 63.9464C375.787 63.6097 375.474 63.2352 375.023 62.7925C376.924 62.5802 378.149 62.2639 379.179 62.4483C379.636 62.5165 380.183 63.7388 379.844 64.1247C379.744 64.2109 379.499 64.2712 379.337 64.3595C379.668 64.7927 379.879 65.3312 380.138 65.8904C377.772 66.4695 375.815 66.9702 374.831 65.39C374.655 65.1145 375.354 64.373 376.088 63.9464ZM440.47 64.8336C443.034 63.4166 445.638 63.9223 448.221 65.2771C444.953 67.4111 443.05 67.2913 440.47 64.8336ZM433.668 79.0496C434.515 79.5687 435.329 80.078 436.274 80.6777C435.446 80.7347 434.798 80.7742 434.103 80.8253C429.889 81.7816 428.98 81.603 427.186 79.4739C430.847 77.5437 432.349 77.3463 433.668 79.0496ZM304.471 51.691C306.923 53.2627 306.322 54.4331 304.667 55.9238C303.467 55.3451 302.358 54.8461 300.391 53.9518C302.093 52.9855 303.243 52.3643 304.471 51.691ZM323.948 57.7723C324.648 58.1755 325.131 59.7026 324.686 59.9945C322.875 61.2448 321.411 60.2258 319.601 59.0172C320.944 57.8855 321.976 56.6534 323.948 57.7723ZM295.37 57.1649C298.963 56.3089 301.527 56.6184 303.428 58.9068C301.581 61.2414 298.789 60.5397 295.836 60.4289C295.654 59.2471 295.534 58.2855 295.37 57.1649ZM414.399 79.3186C415.5 78.9608 417.075 78.9141 418.327 79.0785C419.639 79.2717 420.552 80.0677 419.607 80.8782C418.96 81.3994 417.682 81.8299 416.627 81.9316C415.622 82.0316 414.526 81.6704 412.939 81.4237C413.541 80.4867 413.674 79.5572 414.399 79.3186ZM293.705 40.1059C293.682 41.7134 294.902 43.1694 292.255 43.237C291.576 43.2505 290.175 42.2996 290.038 41.7189C289.611 39.964 291.746 40.3746 293.705 40.1059ZM307.315 62.9953C307.128 62.5226 307.952 61.6076 308.65 61.2094C309.954 60.4532 311.486 60.4128 312.849 61.3712C313.894 62.1034 313.883 62.2532 312.415 64.7451C309.998 64.9234 308.027 64.6565 307.315 62.9953ZM320.992 51.1461C321.654 49.4512 323.578 49.5962 325.781 50.2515C325.572 51.3787 325.391 52.5273 323.989 52.8225C324.739 53.0956 325.54 53.5274 326.677 54.0601C325.119 54.7348 324.253 55.4204 323.479 55.3532C322.737 55.2923 321.576 54.4974 321.478 53.95C321.435 53.6538 321.883 53.1592 322.343 52.8359C321.746 52.7305 320.82 51.5991 320.992 51.1461ZM335.042 43.2729C334.614 43.81 332.88 44.1685 331.746 44.0791C330.365 43.966 329.032 43.345 327.506 42.8763C327.727 41.8808 327.886 41.0479 328.207 39.5093C330.483 40.1423 332.356 40.4323 333.748 41.1266C334.623 41.5633 335.415 42.8241 335.042 43.2729ZM323.076 41.9791C325.184 42.4499 327.186 43.1961 326.716 45.0437C323.77 45.7415 323.821 45.7398 318.092 43.3015C318.969 41.3201 321.105 41.543 323.076 41.9791ZM347.434 43.3874C347.987 44.286 347.733 45.4173 347.48 46.4016C347.401 46.6896 346.144 46.9921 345.462 46.965C343.634 46.8822 342.819 45.9889 342.682 44.939C342.639 44.5552 342.691 44.173 342.733 43.7282C342.179 44.8341 341.544 46.0414 340.953 47.2275C338.852 46.3069 337.204 45.6079 334.676 44.5327C335.383 43.4995 336.196 42.3168 337.113 40.9553C338.348 41.324 339.306 41.5294 340.119 41.8929C340.924 42.2184 341.637 42.6878 342.771 43.3441C342.824 42.8347 342.923 42.2645 343.003 41.4899C345.315 42.439 347.044 42.7587 347.434 43.3874ZM314.491 44.0145C315.278 45.4804 314.775 46.4943 312.56 47.0324C310.403 44.449 310.619 44.0402 314.491 44.0145ZM347.776 47.5288C349.17 45.8939 351.126 45.8353 353.248 45.9141C353.559 45.2897 353.844 44.7007 354.174 44.0385C356.998 44.9318 360.154 45.2159 360.615 47.7972C358.617 48.7798 357.046 48.4596 355.537 47.9558C355.458 48.3685 355.425 48.7476 355.358 49.1969C352.691 48.9429 349.789 49.9331 347.776 47.5288ZM337.706 51.2194C337.148 50.8113 337.526 49.882 337.474 49.1786C338.539 49.2556 340.114 49.1125 340.545 49.4916C341.4 50.2588 341.596 51.3029 342.064 52.255C341.781 52.3969 341.538 52.5213 341.254 52.6596C341.031 52.5771 340.809 52.4995 340.552 52.4244C340.635 54.1788 339.961 55.211 338.558 55.1728C337.294 55.1595 336.057 54.9019 336.04 53.6688C335.983 52.2753 336.348 51.7021 338.294 51.4894C338.099 51.3948 337.839 51.3223 337.706 51.2194ZM239.999 31.0379C235.642 32.981 234.079 32.4716 232.607 28.3864C236.607 28.1488 236.634 28.1614 239.999 31.0379ZM176.019 28.1042C178.144 28.5275 180.429 29.2825 181.171 31.5255C178.986 32.7763 176.507 32.6591 174.116 31.4459C173.159 30.9318 172.179 29.486 172.496 28.8885C172.809 28.3072 174.91 27.8719 176.019 28.1042ZM110.822 43.6869C111.062 43.2786 111.479 42.9444 112.102 42.6969C113.239 42.2713 115.026 42.4827 116.475 42.4131C117.528 43.6797 118.328 44.639 119.057 45.5339C116.256 47.2653 113.171 47.5184 111.367 46.2146C110.942 45.9045 110.714 45.5542 110.578 45.1451C110.402 45.2685 110.297 45.4006 110.035 45.4911C108.211 46.1787 105.01 45.6911 103.788 44.5192C102.172 42.9608 103.235 41.7942 107.817 40.4461C109.495 41.9691 110.384 42.9536 110.822 43.6869ZM164.096 32.3822C162.908 32.7565 161.701 33.1562 160.395 33.579C161.31 33.5882 162.226 33.5962 163.6 33.6663C163.752 34.7108 163.862 35.4566 164 36.4385C162.108 37.5323 160.35 38.9402 156.855 37.0697C156.501 36.0742 156.386 35.4026 156.491 34.8617C156.368 34.8919 156.267 34.9226 156.147 34.9588C155.758 32.8753 155.523 31.5163 155.248 29.9969C161.49 29.5932 161.5 29.6163 164.096 32.3822ZM125.745 45.0395C123.771 45.3433 121.843 44.7601 120.941 43.3116C120.082 41.9235 121.547 41.3495 123.138 40.9872C126.647 40.1428 128.021 40.6834 129.842 44.0131C128.294 44.39 127.08 44.8195 125.745 45.0395ZM81.5131 45.903C85.501 46.3351 85.2275 48.5909 86.6185 50.9376C83.9431 50.9975 81.7988 51.0441 79.6074 51.0874C78.336 47.0805 78.9002 45.6236 81.5131 45.903ZM205.546 25.399C206.009 26.0314 206.229 26.5215 206.655 26.9168C207.517 27.6936 208.311 28.5949 206.842 29.0246C206.043 29.2645 204.633 28.9475 203.605 28.6346C201.311 27.9849 200.516 26.781 200.979 25.0918C202.526 25.2003 204.077 25.2988 205.546 25.399ZM141.452 36.2387C143.025 40.6686 142.36 41.0966 135.981 39.8267C134.839 36.5107 136.045 35.7269 141.452 36.2387ZM189.001 27.2327C190.933 28.2036 192.538 29.4327 194.146 30.4802C193.193 31.6306 192.104 32.1127 190.926 32.2742C192.93 33.1722 194.316 34.4398 195.023 36.2382C193.305 36.632 191.941 36.9679 190.034 37.4534C189.972 36.5058 189.951 35.873 189.923 35.2874C188.171 34.8907 186.406 34.5094 184.627 34.1371C182.745 33.7276 182.038 32.7232 182.646 31.8033C182.936 31.3265 184.147 31.0366 185.112 31.0331C183.629 30.2209 183.211 29.1806 184.08 27.8392C184.907 26.5869 186.905 26.2156 189.001 27.2327ZM386.208 80.1464C386.83 80.1052 387.913 80.6805 388.112 81.117C388.486 81.9155 388.569 82.8598 388.305 83.7025C388.168 84.116 387.042 84.7314 386.352 84.7799C385.708 84.8316 384.762 84.3357 384.452 83.9116C383.936 83.1588 383.788 82.2648 383.382 81.2773C384.449 80.8244 385.304 80.2318 386.208 80.1464ZM204.01 48.8687C203.755 49.7852 203.462 50.7103 203.227 51.636C202.848 51.5403 202.497 51.4561 202.117 51.3605C201.881 49.6841 201.878 49.6806 204.01 48.8687ZM245.829 48.1142C247.149 49.9829 246.626 51.5903 244.896 52.6143C242.516 54.0361 240.603 51.4517 237.877 51.8641C239.355 48.6321 242.834 48.6951 245.829 48.1142ZM189.724 53.4861C189.445 49.6847 189.483 49.6513 193.466 49.8218C194.541 53.3155 194.224 53.6437 189.724 53.4861ZM235.9 52.7138C237.162 52.8717 238.884 53.3855 239.445 54.1084C240.382 55.3284 238.917 56.0172 237.624 56.4248C235.345 57.1305 233.897 56.2936 232.621 53.4564C233.913 53.1218 234.931 52.5595 235.9 52.7138ZM197.44 58.7964C199.38 60.9328 198.701 61.9466 196.394 62.2915C195.179 62.4802 193.471 62.4797 193.218 61.1621C192.821 59.0418 195.134 58.9375 197.44 58.7964ZM125.44 49.1451C126.028 47.4478 128.362 47.4848 130.973 47.5247C134.13 50.7665 133.802 51.9275 129.592 52.3687C128.482 52.4896 126.693 52.0412 125.718 51.4486C125.111 51.0916 125.192 49.8563 125.44 49.1451ZM140.262 51.725C138.915 51.9158 136.397 51.8518 135.748 51.2739C133.343 49.1511 136.393 48.3027 137.076 46.9319C139.9 46.9138 142.41 47.3486 143.28 49.4143C143.916 50.9942 141.835 51.4794 140.262 51.725ZM118.723 48.834C120.439 48.7305 122.14 49.0363 122.902 50.5167C123.461 51.5917 121.551 53.143 118.719 53.4763C118.143 53.1837 116.868 52.7446 116.249 52.0892C115.13 50.9632 116.698 48.9667 118.723 48.834ZM190.372 46.8248C189.131 45.6832 189.725 44.8761 191.38 44.0732C191.424 42.6441 193.435 41.0251 195.535 40.985C198.134 40.9277 200.24 41.8592 200.632 43.2202C201.055 44.6222 199.581 45.9436 197.347 46.5367C197.705 46.6898 197.971 46.8178 198.363 46.9833C194.512 48.2223 191.742 48.0719 190.372 46.8248ZM207.6 45.7715C208.007 45.4277 209.758 45.4107 210.187 45.7282C212.3 47.2955 209.654 47.4902 209.277 48.3738C207 47.7112 206.408 46.7683 207.6 45.7715ZM256.21 49.7008C255.064 49.7699 253.838 49.8429 252.45 49.9216C252.222 48.6624 252.04 47.6869 251.86 46.6977C255.331 46.2943 256.462 47.3865 256.21 49.7008ZM159.84 44.6112C159.231 44.2654 158.76 43.4567 158.845 42.9548C158.916 42.4843 159.663 41.977 160.334 41.8724C162.995 41.4005 164.168 42.0295 166.446 45.0286C164.165 46.2519 161.965 45.8397 159.84 44.6112ZM229.178 60.0361C226.326 59.492 223.897 59.0187 221.11 58.502C222.581 55.5295 226.36 58.1472 228.321 55.9261C228.72 57.8524 228.909 58.745 229.178 60.0361ZM364.21 73.9344C365.901 74.8691 367.445 75.7151 369.007 76.6036C366.814 78.0758 364.755 78.4232 363.419 77.4874C361.867 76.417 362.5 75.2702 364.21 73.9344ZM247.381 26.1863C250.034 26.0617 252.99 26.4885 255.57 27.1383C257.368 27.5939 256.937 30.1391 255.04 30.2698C251.907 30.464 248.713 30.3368 245.741 30.3514C245.809 30.5096 245.978 30.6791 245.958 30.7996C245.66 31.7262 244.879 32.7249 243.821 33.28C243.27 33.5879 241.432 33.177 240.56 32.7389C240.038 32.4766 239.844 31.2693 240.255 30.8649C241.119 30.0003 242.525 29.3839 244.227 28.4091C244.517 28.7943 244.827 29.1293 245.135 29.4325C244.313 27.4799 244.997 26.2609 247.381 26.1863ZM257.943 34.6379C258.507 38.0677 257.151 38.8319 252.954 37.7487C251.749 37.4518 250.425 37.5184 249.166 37.3789C247.979 37.2382 246.813 37.0202 244.624 36.704C245.687 34.9262 246.521 33.6169 247.66 31.8402C249.976 32.972 251.941 33.922 254.271 35.0743C255.016 34.9708 256.447 34.8104 257.943 34.6379ZM266.676 40.4109C268.322 40.1999 269.924 39.9645 271.714 39.7473C272.039 41.2786 272.24 42.309 272.46 43.3067C268.597 43.7199 268.624 43.7363 266.676 40.4109ZM281.001 40.8888C281.658 40.5735 282.271 40.2918 283.017 39.9389C283.969 41.6931 284.635 42.9632 285.258 44.1594C282.13 45.5711 281.82 45.578 277.845 43.2906C277.735 43.2981 277.632 43.3511 277.508 43.3677C276.058 43.4188 273.96 43.0587 273.064 42.3387C272.347 41.7546 272.998 40.3713 273.086 38.8529C276.167 39.6213 278.647 40.2745 281.001 40.8888ZM305.624 29.8658C306.651 30.3899 307.109 31.3905 307.78 32.1824C307.531 32.3775 307.275 32.5505 307.031 32.7479C305.795 32.4026 304.388 32.183 303.354 31.6555C302.739 31.3494 302.672 30.5354 302.368 29.963C303.498 29.8957 304.993 29.5219 305.624 29.8658ZM293.02 34.8427C293.651 31.5608 298.687 32.8559 301.665 31.3444C302.492 35.6765 300.76 36.2226 293.02 34.8427ZM343.963 37.4124C345.171 38.2897 344.302 39.3717 342.719 39.2385C341.036 39.0864 338.963 38.486 337.807 37.6662C337.762 37.627 337.683 37.5729 337.633 37.5363C337.052 39.0148 334.842 39.223 332.779 39.1186C331.071 39.0464 329.089 38.8046 329.862 37.0726C329.974 36.8477 329.13 36.4247 328.559 35.9615C331.012 34.515 333.621 34.7105 336.083 35.6286C336.072 35.1066 336.37 34.4924 337.691 33.8209C339.899 35.0515 342.163 36.1159 343.963 37.4124ZM477.392 74.7853C476.217 74.2268 475.035 73.3783 475.086 72.7825C475.167 71.6967 476.694 71.286 478.966 71.4141C480.26 70.147 481.92 69.565 483.517 69.9645C485.5 70.4755 486.719 71.0301 487.597 71.663C487.791 71.56 487.992 71.437 488.234 71.3274C491.496 73.0355 494.198 74.4319 492.651 76.95C491.042 76.4065 489.553 75.9316 488.04 75.4526C487.816 75.8123 487.736 76.1373 487.411 76.5536C486.455 76.174 485.512 75.8076 484.576 75.4409C484.305 75.7021 484.041 75.9742 483.687 76.31C481.247 75.9259 478.775 75.8467 477.392 74.7853ZM375.912 49.4802C377.559 49.2827 379.441 49.5724 381.866 49.7162C381.302 51.1336 380.983 51.8954 380.599 52.841C378.945 52.7843 377.375 52.942 376.057 52.6416C374.997 52.3891 373.599 51.569 373.514 50.989C373.439 50.4618 374.89 49.5833 375.912 49.4802ZM390.431 52.8572C383.749 53.2501 383.795 53.2868 381.463 51.8134C382.067 50.0971 384.334 50.0327 386.576 50.2495C388.635 50.4602 390.732 50.9166 390.431 52.8572ZM417.6 59.3605C417.543 59.5008 417.551 59.629 417.374 59.8104C416.947 60.2289 415.104 60.5973 414.468 60.3908C412.039 59.5605 413.975 58.7307 414.836 57.4056C415.492 57.7103 416.145 57.941 416.737 58.1787C419.668 55.9328 420.685 55.9188 424.715 57.8141C421.969 60.3982 420.968 60.6908 417.6 59.3605ZM411.807 56.6058C411.902 56.9582 411.554 57.3469 411.34 57.8198C410.394 57.8128 409.551 57.8406 408.735 57.8032C408.124 57.7736 407.759 57.5811 407.287 57.4566C407.782 58.1991 407.944 59.1357 407.437 59.6373C406.487 60.5838 405.299 61.1557 403.304 60.3982C402.456 60.0791 401.471 59.8907 400.155 59.526C400.773 58.718 401.324 57.9174 401.998 57.1631C402.743 56.3237 404.064 56.1523 405.464 56.3585C405.297 56.1321 405.002 55.9767 404.943 55.6997C404.886 55.3657 406.095 54.7696 406.866 54.7147C409.878 54.5209 411.368 55.1094 411.807 56.6058ZM388.945 54.2272C389.685 53.6114 390.269 52.8233 391.288 52.4029C392.537 51.882 394.221 51.7907 395.315 52.8361C396.286 53.7882 395.5 54.3648 394.205 54.8379C396.737 55.7535 396.576 56.2432 393.46 57.6507C392.162 56.847 391.899 56.0892 392.46 55.3314C391.23 55.5441 390.351 55.2409 388.945 54.2272ZM520.062 90.9288C522.834 91.2434 522.85 92.3642 522.586 93.691C520.13 93.3025 517.411 93.4948 517.12 91.8278C517.08 91.4463 519.05 90.8104 520.062 90.9288ZM549.58 109.462C550.149 109.807 550.59 110.161 550.694 110.497C550.858 110.96 550.045 111.354 549.516 111.943C546.9 111.065 544.458 110.376 542.238 109.535C540.999 109.068 540.6 108.333 541.991 107.962C543.32 107.581 545.685 107.971 547.648 108.651C546.663 107.978 545.85 107.165 545.706 106.476C545.463 105.411 548.039 105.487 552.978 106.75C552.26 108.771 551.06 109.636 549.58 109.462ZM547.077 105.648C544.548 104.927 543.489 103.864 543.924 102.724C544.137 102.228 545.28 101.66 546.187 101.698C546.467 101.703 546.865 101.862 547.238 101.994C546.635 101.49 546.192 100.932 546.088 100.212C547.409 99.9304 548.768 99.6527 550.153 99.368C554.208 101.356 555.32 102.019 554.805 103.347C555.198 103.681 555.454 104.004 555.333 104.093C555.01 104.306 554.526 104.451 554.052 104.622C553.956 104.745 553.934 104.821 553.846 104.953C553.71 104.923 553.59 104.882 553.491 104.847C552.688 105.1 551.729 105.34 550.698 105.667C550.302 105.3 550.001 105.061 549.658 104.776C549.381 105.24 548.576 105.565 547.077 105.648ZM448.205 77.5702C447.892 77.8724 447.535 78.2638 447.215 78.5724C447.386 78.6765 447.471 78.7291 447.657 78.8524C447.315 78.9382 447.009 79.013 446.71 79.1011C446.48 79.3547 446.27 79.5608 446.001 79.8405C445.646 79.7119 445.387 79.6183 445.058 79.5037C443.842 79.7443 442.645 79.7967 441.349 79.12C439.413 78.1184 440.803 77.2444 441.516 76.3517C443 76.4834 443.706 76.59 444.554 76.9499C445.458 76.7323 446.642 76.8978 448.205 77.5702ZM416.494 72.9211C415.782 72.7616 414.8 71.8964 415.001 71.6141C415.984 70.1168 417.816 70.6812 419.612 71.2504C419.606 72.8128 418.612 73.4558 416.494 72.9211ZM557.884 115.553C557.023 115.687 554.69 114.83 553.507 114.227C552.141 113.514 550.375 112.474 551.639 111.66C553.246 110.601 555.745 111.201 558.367 112.235C558.457 113.379 560.942 115.026 557.884 115.553ZM455.532 77.7936C458.069 79.1079 461.385 80.1053 461.191 82.9276C458.826 81.8148 455.719 83.1999 454.15 81.4397C453.035 80.1629 453.343 78.8099 455.532 77.7936ZM183.147 68.6354C183.944 69.7997 184.778 70.9935 186.161 73.0503C182.596 72.0529 180.175 71.4001 177.173 70.6118C178.551 68.6305 180.504 68.441 183.147 68.6354ZM168.685 72.4042C169.182 72.1599 169.85 71.5429 170.391 71.6799C172.095 72.1202 173.914 72.6492 175.376 73.4905C177.363 74.6385 177.033 75.8688 175.659 77.0794C173.44 75.4107 169.935 75.3609 168.685 72.4042ZM198.385 75.154C197.232 75.0566 195.985 74.1658 193.871 73.2013C195.464 72.3981 196.198 71.785 197.041 71.6893C197.234 71.3875 197.421 71.1143 197.623 70.8048C198.797 71.4189 199.616 71.8872 200.418 72.3153C200.645 72.3902 200.876 72.4552 201.079 72.5334C201.438 72.6816 201.815 73.9579 201.602 74.0788C200.648 74.5933 199.506 75.2365 198.385 75.154ZM185.677 67.5357C183.923 66.8921 182.76 66.4628 180.928 65.7898C183.735 64.3941 183.754 64.4033 185.677 67.5357ZM266.671 67.4167C267.753 67.3066 268.823 67.1192 269.946 66.9793C273.423 69.2999 273.375 69.2941 271.734 71.8995C269.239 71.9668 266.761 72.0237 263.9 72.1036C263.499 70.6107 263.142 69.3078 262.742 67.8026C264.368 67.6417 265.52 67.5427 266.671 67.4167ZM319.023 73.991C321.987 73.4679 324.006 74.4383 325.354 76.2863C323.776 77.6941 322.493 78.4372 321.291 78.5724C321.089 78.8745 320.805 79.172 320.562 79.2285C318.813 79.5839 317.009 79.7929 315.626 78.4721C315.889 78.0988 316.003 77.7652 316.268 77.5362C316.623 77.2881 316.992 77.0358 317.416 76.7459C316.414 75.5676 316.951 74.355 319.023 73.991ZM290.326 75.66C291.404 75.9736 292.613 76.8088 292.952 77.6233C293.188 78.1548 292.247 79.4073 291.44 79.7155C290.206 80.1914 288.641 80.139 286.457 80.4167C286.913 78.8585 287.197 77.9473 287.437 77.0128C287.766 75.7073 289.081 75.2891 290.326 75.66ZM271.112 73.9622C272.705 73.2924 274.737 72.3964 276.221 73.7754C277.629 75.0545 276.186 76.2662 274.78 77.4606C273.187 77.0004 271.494 76.5375 269.094 75.8841C270.052 74.9249 270.434 74.2474 271.112 73.9622ZM211.217 62.3397C213.009 62.4349 215.372 64.4246 215.389 66.0838C215.399 66.5502 214.492 67.2137 213.844 67.2669C211.454 67.4726 208.654 66.1549 208.375 64.8246C208.116 63.5726 209.596 62.2621 211.217 62.3397ZM396.55 45.6792C396.715 45.897 396.809 46.1445 396.808 46.352C396.852 46.5542 396.929 46.717 396.745 46.9037C396.546 47.302 396.209 47.7532 395.721 48.364C394.844 48.1213 394.324 47.8996 393.695 47.6755C389.82 47.9125 387.529 47.0194 384.957 43.9563C386.856 43.5366 388.656 42.709 389.901 42.9934C390.974 43.2381 391.977 43.5963 392.968 43.9981C393.194 43.8607 393.297 43.7534 393.572 43.5896C395.269 44.5883 396.102 45.1648 396.55 45.6792ZM426.835 56.7532C425.998 56.5955 425.062 56.4376 424.347 56.1386C422.429 55.3414 422.585 54.5913 425.103 52.5214C425.399 52.6532 425.7 52.8232 425.983 52.9493C428.532 51.9638 431.102 52.9436 432.32 53.839C434.193 55.1787 436.644 55.5698 438.819 56.3064C438.862 56.1962 438.839 56.0982 438.889 55.994C446.12 56.0898 447.075 56.5472 447.696 59.9836C446.244 60.2991 444.685 60.659 443.023 61.025C441.468 60.4993 440.498 59.925 439.758 59.296C435.313 58.9907 432.032 57.9452 429.413 56.3348C429.062 56.4988 428.741 56.6519 428.372 56.7856C427.995 56.9121 427.335 56.8348 426.835 56.7532ZM409.316 53.356C408.816 53.8499 407.454 54.4488 406.643 54.3457C404.67 54.0901 402.453 53.6983 401.007 52.9317C398.832 51.7544 401.847 51.1294 402.198 50.1554C402.271 49.9627 402.478 49.8 402.881 49.2785C403.622 49.6075 404.138 49.8478 404.802 50.1065C404.697 49.9447 404.609 49.7649 404.513 49.6052C405.568 49.1478 406.547 48.4337 407.762 48.3178C408.519 48.2288 409.671 49.0042 410.664 49.3862C410.067 49.7661 409.567 50.4317 408.848 50.4934C407.716 50.6052 406.486 50.4191 405.27 50.3214C406.354 50.7682 407.568 51.2377 408.479 51.7361C409.129 52.0818 409.651 52.9974 409.316 53.356ZM418.347 53.3034C410.407 52.1033 409.11 51.1279 412.262 47.7937C414.181 49.9617 419.53 50.4458 418.347 53.3034ZM129.699 70.9101C129.452 67.1644 133.371 68.2682 137.035 68.2212C137.501 69.3833 138.429 70.5504 138.232 71.4019C137.898 72.8361 135.787 72.4567 134.071 72.1107C132.617 71.831 131.156 71.3243 129.699 70.9101ZM164.43 65.7202C165.696 69.0184 164.474 69.7557 157.865 69.2051C159.425 65.7689 159.978 66.0067 164.43 65.7202ZM443.939 70.3221C443.586 68.9104 445.12 68.4501 448.026 68.4254C448.805 69.8176 449.629 71.2687 450.676 73.1987C446.503 72.7927 444.388 72.1072 443.939 70.3221ZM432.976 66.2609C433.693 65.5163 434.432 64.7833 435.538 63.6634C437.113 64.3872 438.479 65.0244 439.907 65.6853C436.345 67.7183 436.37 67.7212 432.976 66.2609ZM422.352 65.2495C422.486 65.0954 422.613 64.9231 422.751 64.7615C422.035 64.4996 421.448 64.0493 420.528 63.1832C421.767 62.3873 423.064 61.5782 424.889 60.4324C426.495 62.0529 427.676 63.2485 428.936 64.529C427.918 64.6566 427.278 64.7305 426.569 64.8216C428.423 64.964 430.355 65.1261 432.66 65.3296C431.918 66.5591 431.792 67.8515 430.813 68.0865C429.602 68.3961 427.47 68.0854 426.155 67.6144C424.65 67.0759 423.626 66.0491 422.352 65.2495Z" fill="#DDA750"/>
</svg>
