<svg width="395" height="170" viewBox="0 0 395 170" fill="none" xmlns="http://www.w3.org/2000/svg">
<path d="M4.60647 80.8478C58.6988 -8.57124 340.09 5.54707 424 25.7171V152.787C393.482 158.165 355 182.5 295.422 159.51C241.671 138.769 267.821 132.617 200.503 120.515C133.185 108.413 -29.3339 136.954 4.60647 80.8478Z" fill="#A4693D"/>
<path d="M274.438 40.9847C209.938 32.918 149.469 47.7064 89 56.4459C132 51.9643 192.888 40.9847 227.406 42.3289C236.829 42.6959 287.875 40.9847 329.531 62.4933C362.856 79.7002 383.729 73.2478 390 67.8708C349.016 83.3298 335.249 48.59 274.438 40.9847Z" fill="#915832"/>
<path d="M100.63 59.4723C99.5983 62.4788 98.8406 65.5733 98.3773 68.7172C97.9133 71.8561 97.3324 75.3571 98.5007 78.3957C98.806 79.1905 99.9332 79.2777 100.207 78.3957C101.131 75.4205 100.898 72.1869 101.304 69.1138C101.703 66.0949 102.401 63.114 103.336 60.2186C103.894 58.4899 101.213 57.7757 100.63 59.4723Z" fill="#CFA539"/>
<path d="M265.63 84.4723C264.598 87.4788 263.841 90.5733 263.377 93.7172C262.913 96.8561 262.332 100.357 263.501 103.396C263.806 104.19 264.933 104.278 265.207 103.396C266.131 100.42 265.898 97.1869 266.304 94.1138C266.703 91.0949 267.401 88.114 268.336 85.2186C268.894 83.4899 266.213 82.7757 265.63 84.4723Z" fill="#CFA539"/>
<path d="M386.63 9.47231C385.598 12.4788 384.841 15.5733 384.377 18.7172C383.913 21.8561 383.332 25.3571 384.501 28.3957C384.806 29.1905 385.933 29.2777 386.207 28.3957C387.131 25.4205 386.898 22.1869 387.304 19.1138C387.703 16.0949 388.401 13.114 389.336 10.2186C389.894 8.4899 387.213 7.77572 386.63 9.47231Z" fill="#CFA539"/>
<path d="M78.171 52.1977C79.694 55.7324 80.8254 59.4383 81.6638 63.1919C82.0892 65.0966 82.3961 67.0195 82.6923 68.9481C82.9909 70.8932 83.2921 72.8687 84.1544 74.65C84.532 75.4309 85.6025 75.1133 85.851 74.4287C86.5479 72.5075 86.4376 70.3452 86.176 68.345C85.902 66.2567 85.4708 64.1924 84.9484 62.1527C83.9404 58.2066 82.4858 54.3773 80.7061 50.7159C80.3597 50.0034 79.3452 49.8116 78.6984 50.1901C77.9456 50.6295 77.8559 51.4671 78.171 52.1977Z" fill="#CFA539"/>
<path d="M243.171 77.1977C244.694 80.7324 245.825 84.4383 246.664 88.1919C247.089 90.0966 247.396 92.0195 247.692 93.9481C247.991 95.8932 248.292 97.8687 249.154 99.65C249.532 100.431 250.602 100.113 250.851 99.4287C251.548 97.5075 251.438 95.3452 251.176 93.345C250.902 91.2567 250.471 89.1924 249.948 87.1527C248.94 83.2066 247.486 79.3773 245.706 75.7159C245.36 75.0034 244.345 74.8116 243.698 75.1901C242.946 75.6295 242.856 76.4671 243.171 77.1977Z" fill="#CFA539"/>
<path d="M364.171 2.19773C365.694 5.73244 366.825 9.43829 367.664 13.1919C368.089 15.0966 368.396 17.0195 368.692 18.9481C368.991 20.8932 369.292 22.8687 370.154 24.65C370.532 25.4309 371.602 25.1133 371.851 24.4287C372.548 22.5075 372.438 20.3452 372.176 18.345C371.902 16.2567 371.471 14.1924 370.948 12.1527C369.94 8.20657 368.486 4.3773 366.706 0.715889C366.36 0.003353 365.345 -0.188357 364.698 0.190126C363.946 0.629496 363.856 1.4671 364.171 2.19773Z" fill="#CFA539"/>
<path d="M341.171 130.198C342.694 133.732 343.825 137.438 344.664 141.192C345.089 143.097 345.396 145.019 345.692 146.948C345.991 148.893 346.292 150.869 347.154 152.65C347.532 153.431 348.602 153.113 348.851 152.429C349.548 150.507 349.438 148.345 349.176 146.345C348.902 144.257 348.471 142.192 347.948 140.153C346.94 136.207 345.486 132.377 343.706 128.716C343.36 128.003 342.345 127.812 341.698 128.19C340.946 128.629 340.856 129.467 341.171 130.198Z" fill="#CFA539"/>
<path d="M306.171 21.1977C307.694 24.7324 308.825 28.4383 309.664 32.1919C310.089 34.0966 310.396 36.0195 310.692 37.9481C310.991 39.8932 311.292 41.8687 312.154 43.65C312.532 44.4309 313.602 44.1133 313.851 43.4287C314.548 41.5075 314.438 39.3452 314.176 37.345C313.902 35.2567 313.471 33.1924 312.948 31.1527C311.94 27.2066 310.486 23.3773 308.706 19.7159C308.36 19.0034 307.345 18.8116 306.698 19.1901C305.946 19.6295 305.856 20.4671 306.171 21.1977Z" fill="#CFA539"/>
<path d="M93.6213 53.1154C92.8157 55.4546 92.3073 57.8646 92.0349 60.3222C91.9041 61.5079 91.914 62.6943 91.9798 63.8841C92.0505 65.1495 92.5245 66.364 93.1251 67.4756C93.4756 68.1231 94.528 67.9816 94.7032 67.269C94.9739 66.1714 95.2586 65.0121 95.2545 63.8841C95.2504 62.7404 95.3244 61.5967 95.3853 60.4539C95.5013 58.2307 95.8839 56.0478 96.4936 53.9069C97.0235 52.0466 94.24 51.3184 93.6213 53.1154Z" fill="#CFA539"/>
<path d="M258.621 78.1154C257.816 80.4546 257.307 82.8646 257.035 85.3222C256.904 86.5079 256.914 87.6943 256.98 88.8841C257.051 90.1495 257.524 91.364 258.125 92.4756C258.476 93.1231 259.528 92.9816 259.703 92.269C259.974 91.1714 260.259 90.0121 260.254 88.8841C260.25 87.7404 260.324 86.5967 260.385 85.4539C260.501 83.2307 260.884 81.0478 261.494 78.9069C262.023 77.0466 259.24 76.3184 258.621 78.1154Z" fill="#CFA539"/>
<path d="M379.621 3.11541C378.816 5.4546 378.307 7.86455 378.035 10.3222C377.904 11.5079 377.914 12.6943 377.98 13.8841C378.051 15.1495 378.524 16.364 379.125 17.4756C379.476 18.1231 380.528 17.9816 380.703 17.269C380.974 16.1714 381.259 15.0121 381.254 13.8841C381.25 12.7404 381.324 11.5967 381.385 10.4539C381.501 8.23069 381.884 6.04783 382.494 3.90693C383.023 2.0466 380.24 1.31843 379.621 3.11541Z" fill="#CFA539"/>
<path d="M356.621 131.115C355.816 133.455 355.307 135.865 355.035 138.322C354.904 139.508 354.914 140.694 354.98 141.884C355.051 143.15 355.524 144.364 356.125 145.476C356.476 146.123 357.528 145.982 357.703 145.269C357.974 144.171 358.259 143.012 358.254 141.884C358.25 140.74 358.324 139.597 358.385 138.454C358.501 136.231 358.884 134.048 359.494 131.907C360.023 130.047 357.24 129.318 356.621 131.115Z" fill="#CFA539"/>
<path d="M321.621 22.1154C320.816 24.4546 320.307 26.8646 320.035 29.3222C319.904 30.5079 319.914 31.6943 319.98 32.8841C320.051 34.1495 320.524 35.364 321.125 36.4756C321.476 37.1231 322.528 36.9816 322.703 36.269C322.974 35.1714 323.259 34.0121 323.254 32.8841C323.25 31.7404 323.324 30.5967 323.385 29.4539C323.501 27.2307 323.884 25.0478 324.494 22.9069C325.023 21.0466 322.24 20.3184 321.621 22.1154Z" fill="#CFA539"/>
</svg>
