<svg width="320" height="179" viewBox="0 0 320 179" fill="none" xmlns="http://www.w3.org/2000/svg">
<path d="M203.545 115.59C203.858 117.005 204.169 118.419 204.513 119.826C204.681 120.51 204.848 121.194 205.015 121.879C205.193 122.605 205.344 123.413 205.915 123.933C206.18 124.174 206.56 124.06 206.677 123.732C206.931 123.019 206.689 122.239 206.508 121.528C206.33 120.827 206.151 120.125 205.973 119.424C205.616 118.021 205.226 116.628 204.838 115.234C204.605 114.399 203.36 114.75 203.545 115.59Z" fill="#FAD513"/>
<path d="M209.83 117.063C209.361 117.899 209.03 118.814 208.868 119.759C208.783 120.248 208.716 120.758 208.725 121.255C208.734 121.757 208.771 122.487 209.334 122.665C209.544 122.731 209.729 122.646 209.88 122.495C210.088 122.286 210.079 121.939 210.079 121.664C210.08 121.187 210.06 120.71 210.1 120.234C210.173 119.338 210.419 118.446 210.817 117.641C211.14 116.987 210.193 116.415 209.83 117.063Z" fill="#FAD513"/>
<path d="M213.526 117.445C213.352 118.073 213.177 118.702 213.003 119.331C212.823 119.978 212.594 120.63 212.649 121.309C212.698 121.913 213.417 122.108 213.764 121.611C214.154 121.054 214.285 120.38 214.456 119.731C214.623 119.1 214.79 118.47 214.956 117.839C215.201 116.915 213.782 116.524 213.526 117.445Z" fill="#FAD513"/>
<path d="M166.985 117.292C167.736 118.851 168.247 120.515 168.602 122.207C168.777 123.041 168.884 123.877 168.962 124.725C169.003 125.164 169.056 125.601 169.083 126.042C169.096 126.253 169.106 126.465 169.126 126.675C169.153 126.961 169.255 127.167 169.371 127.424C169.507 127.725 169.982 127.695 170.127 127.424C170.262 127.172 170.366 126.967 170.395 126.675C170.416 126.464 170.426 126.254 170.43 126.042C170.438 125.587 170.442 125.126 170.404 124.672C170.323 123.72 170.163 122.766 169.95 121.835C169.542 120.048 168.842 118.327 167.942 116.732C167.587 116.104 166.679 116.656 166.985 117.292Z" fill="#FAD513"/>
<path d="M176.634 121.619C176.49 122.788 176.265 123.948 175.969 125.088C175.822 125.654 175.649 126.212 175.491 126.775C175.328 127.356 175.078 127.932 175.069 128.541C175.064 128.94 175.614 129.203 175.893 128.882C176.314 128.398 176.498 127.765 176.708 127.167C176.914 126.58 177.064 125.977 177.202 125.371C177.483 124.135 177.677 122.88 177.795 121.619C177.825 121.306 177.507 121.038 177.215 121.038C176.869 121.038 176.672 121.306 176.634 121.619Z" fill="#FAD513"/>
<path d="M136.991 125.224C137.741 126.369 138.359 127.571 138.949 128.804C139.232 129.397 139.492 130.001 139.726 130.616C139.86 130.966 139.985 131.315 140.141 131.656C140.298 131.999 140.401 132.323 140.719 132.55C140.995 132.745 141.328 132.527 141.428 132.261C141.56 131.908 141.411 131.507 141.33 131.155C141.251 130.811 141.125 130.485 140.998 130.156C140.738 129.483 140.454 128.817 140.144 128.165C139.554 126.926 138.79 125.751 137.978 124.647C137.795 124.399 137.482 124.274 137.196 124.442C136.939 124.592 136.821 124.965 136.991 125.224Z" fill="#FAD513"/>
<path d="M143.824 124.577C143.806 125.527 143.788 126.476 143.769 127.426C143.751 128.371 143.739 129.363 144.087 130.252C144.215 130.581 144.63 130.581 144.759 130.252C145.106 129.363 145.094 128.371 145.076 127.426L145.021 124.577C145.006 123.807 143.839 123.805 143.824 124.577Z" fill="#FAD513"/>
<path d="M151.556 122.838C151.392 123.563 151.229 124.289 151.066 125.015C150.906 125.727 150.69 126.488 150.715 127.221C150.727 127.582 151.272 127.793 151.448 127.42C151.76 126.753 151.871 125.995 152.005 125.275C152.143 124.541 152.28 123.808 152.417 123.075C152.522 122.517 151.683 122.271 151.556 122.838Z" fill="#FAD513"/>
<path d="M127.418 118.191C127.859 119.523 128.173 120.923 128.346 122.316C128.433 123.016 128.47 123.722 128.519 124.427C128.545 124.795 128.625 125.149 128.653 125.514C128.682 125.895 128.744 126.268 128.798 126.646C128.854 127.036 129.423 126.967 129.522 126.646C129.745 125.92 129.903 125.131 129.91 124.372C129.918 123.605 129.816 122.836 129.699 122.078C129.469 120.579 129.021 119.159 128.414 117.771C128.168 117.207 127.226 117.609 127.418 118.191Z" fill="#FAD513"/>
<path d="M181.542 65.3327C181.669 63.0579 182.37 60.4129 184.498 59.6C185.509 59.2142 186.636 59.3426 187.702 59.5251C204.273 62.3642 216.66 76.5059 224.433 91.4124C222.701 87.3684 219.999 81.015 220.911 76.5464C222.334 69.5731 229.127 73.9194 232.219 76.8549C235.212 79.6977 237.909 83.5963 238.504 87.7658C234.719 61.2377 219.618 36.3949 221.225 9.64307C221.417 6.45765 222.074 2.89627 224.708 1.09344C227.708 -0.961379 231.798 0.235284 235.092 1.77793C248.6 8.1045 259.575 19.1571 267.26 31.942C274.943 44.7273 279.493 59.2003 282.187 73.8711C282.854 68.9721 283.619 64.0867 284.483 59.2169C285.077 55.8694 284.115 47.9399 288.34 46.2955C289.498 45.8453 290.848 46.2682 291.814 47.0477C299.238 53.0351 300.279 65.237 300.545 73.961C301.227 96.3097 297.01 129.501 290.232 150.808H247.519C233.371 138.454 221.721 119.947 207.573 107.593C201.108 101.947 194.583 96.2361 189.556 89.2785C184.529 82.3209 181.06 73.9028 181.542 65.3327Z" fill="#CFA539"/>
<path d="M239.692 27.336C243.961 34.2513 247.702 41.4844 251.007 48.9065C254.47 56.6828 257.485 64.6497 260.078 72.757C262.712 80.9916 264.948 89.3539 266.772 97.8048C268.571 106.14 269.968 114.56 270.971 123.027C271.937 131.191 272.392 139.38 272.738 147.588C272.779 148.562 272.82 149.536 272.871 150.51C272.896 150.992 273.591 150.992 273.62 150.51C273.857 146.48 273.774 142.413 273.587 138.382C273.394 134.217 273.062 130.057 272.638 125.91C271.768 117.402 270.445 108.943 268.727 100.566C266.983 92.0629 264.842 83.6328 262.247 75.3495C259.693 67.198 256.728 59.1731 253.305 51.3455C250.017 43.8253 246.261 36.4945 241.996 29.48C241.474 28.6215 240.943 27.7681 240.406 26.9188C240.122 26.471 239.412 26.8814 239.692 27.336Z" fill="#F2ED76"/>
<path d="M290.537 72.7062C290.832 77.4949 290.79 82.2965 290.577 87.0876C290.343 92.3384 289.871 97.577 289.259 102.796C288.627 108.185 287.819 113.552 286.868 118.893C285.942 124.099 284.881 129.283 283.704 134.437C282.616 139.2 281.414 143.941 280.167 148.664C280.025 149.203 279.893 149.744 279.755 150.283C279.648 150.699 280.253 150.858 280.392 150.459C281.986 145.892 283.239 141.219 284.373 136.518C285.612 131.389 286.692 126.226 287.626 121.033C288.593 115.659 289.414 110.26 290.07 104.84C290.706 99.5872 291.171 94.3139 291.412 89.028C291.635 84.1474 291.658 79.2511 291.366 74.3728C291.333 73.8171 291.295 73.2613 291.253 72.7062C291.218 72.2506 290.508 72.2438 290.537 72.7062Z" fill="#F2ED76"/>
<path d="M231.614 91.9889C234.197 95.2645 236.724 98.5855 239.187 101.953C241.905 105.669 244.547 109.442 247.088 113.281C249.694 117.218 252.213 121.212 254.573 125.301C256.871 129.281 258.997 133.349 260.938 137.515C262.707 141.31 264.234 145.207 265.494 149.2C265.639 149.658 265.778 150.117 265.911 150.578C266.066 151.109 266.868 150.888 266.74 150.349C265.771 146.287 264.295 142.377 262.632 138.552C260.803 134.348 258.669 130.276 256.406 126.292C254.06 122.162 251.553 118.123 248.932 114.163C246.355 110.269 243.658 106.455 240.888 102.697C238.356 99.2594 235.756 95.8714 233.098 92.53C232.799 92.1544 232.499 91.7791 232.199 91.4045C232.058 91.2291 231.761 91.2605 231.614 91.4045C231.439 91.5758 231.477 91.8145 231.614 91.9889Z" fill="#F2ED76"/>
<path d="M203.169 86.6261C207.446 90.4065 211.759 94.1446 216.033 97.9277C220.236 101.647 224.402 105.412 228.446 109.305C232.448 113.16 236.335 117.143 240.004 121.318C243.634 125.447 247.041 129.774 250.105 134.34C251.645 136.635 253.102 138.988 254.465 141.393C255.85 143.833 257.075 146.344 258.325 148.853C258.641 149.486 258.948 150.123 259.249 150.763C259.488 151.271 260.37 150.909 260.165 150.376C258.142 145.121 255.415 140.136 252.356 135.415C249.336 130.753 245.954 126.329 242.338 122.115C238.712 117.889 234.845 113.88 230.841 110.012C226.783 106.093 222.591 102.317 218.352 98.5965C214.064 94.8332 209.728 91.1267 205.419 87.3883C204.881 86.9217 204.344 86.4548 203.808 85.9873C203.372 85.6072 202.732 86.2396 203.169 86.6261Z" fill="#F2ED76"/>
<path d="M157.754 26.7158C159.885 38.7958 161.568 50.9602 162.656 63.186C162.923 66.243 163.144 69.3045 163.292 72.3704C163.441 75.4363 163.529 78.5062 163.507 81.5783C163.497 82.3462 163.498 83.1141 163.467 83.882C163.443 84.6499 163.426 85.4182 163.377 86.1854C163.305 87.7223 163.181 89.2503 163.059 90.7807C162.808 93.8398 162.5 96.8941 162.142 99.9426C161.41 106.037 160.482 112.109 159.299 118.134C158.708 121.146 158.049 124.146 157.308 127.126C156.936 128.615 156.545 130.1 156.126 131.577C155.706 133.054 155.26 134.524 154.786 135.985C153.835 138.905 152.77 141.791 151.527 144.602C150.282 147.409 148.863 150.151 147.136 152.698C146.27 153.969 145.326 155.189 144.277 156.316C143.228 157.441 142.072 158.473 140.795 159.332C139.521 160.194 138.115 160.869 136.631 161.273C135.146 161.677 133.59 161.792 132.064 161.644C133.592 161.768 135.142 161.63 136.612 161.206C138.083 160.786 139.471 160.1 140.726 159.23C141.984 158.363 143.119 157.326 144.148 156.197C145.177 155.067 146.101 153.844 146.947 152.571C148.642 150.025 150.039 147.289 151.258 144.484C152.477 141.676 153.518 138.793 154.445 135.875C156.286 130.034 157.717 124.067 158.884 118.053C160.051 112.038 160.963 105.973 161.68 99.8878C162.045 96.8454 162.359 93.7969 162.617 90.7439C162.742 89.218 162.87 87.6889 162.944 86.1623C162.995 85.3995 163.014 84.6343 163.04 83.8698C163.072 83.1052 163.072 82.3397 163.085 81.5745C163.138 75.4502 162.777 69.3256 162.301 63.216C161.812 57.1053 161.14 51.0089 160.371 44.9259C159.61 38.8411 158.736 32.7699 157.754 26.7158Z" fill="#174BB8"/>
<path d="M124.262 88.7122C125.27 87.3987 126.364 86.1523 127.507 84.9533C128.652 83.7546 129.857 82.61 131.151 81.5598C131.802 81.0418 132.472 80.5429 133.188 80.1043C133.548 79.887 133.916 79.6831 134.301 79.506C134.685 79.3286 135.088 79.1794 135.513 79.0949C135.934 79.0139 136.394 78.9832 136.824 79.1433C136.933 79.1753 137.03 79.237 137.13 79.288C137.222 79.3555 137.319 79.4144 137.395 79.4971C137.564 79.6476 137.682 79.837 137.788 80.0256C137.979 80.4156 138.073 80.8327 138.122 81.2475C138.168 81.6636 138.164 82.0798 138.145 82.4929C138.115 82.0798 138.075 81.6688 137.995 81.2676C137.91 80.8688 137.791 80.4752 137.588 80.1363C137.48 79.9732 137.367 79.8128 137.218 79.696C137.15 79.6293 137.064 79.5874 136.987 79.5353C136.9 79.4995 136.82 79.4522 136.727 79.4324C136.369 79.3217 135.971 79.3572 135.592 79.4494C134.826 79.6463 134.104 80.0413 133.421 80.4779C132.735 80.9141 132.078 81.4059 131.442 81.9218C130.8 82.4329 130.181 82.9727 129.57 83.5237C128.955 84.0706 128.36 84.64 127.763 85.2083C126.577 86.3532 125.415 87.5254 124.262 88.7122Z" fill="#280509"/>
<path d="M124.262 90.0981C124.863 89.3748 125.555 88.7292 126.297 88.1455C127.041 87.5632 127.841 87.0442 128.71 86.644C129.147 86.4503 129.596 86.2759 130.066 86.1625C130.536 86.0535 131.021 85.9817 131.509 86.0048C131.631 86.0151 131.752 86.0205 131.873 86.0348C131.993 86.0563 132.114 86.077 132.233 86.1009C132.351 86.1325 132.467 86.1721 132.583 86.2071C132.641 86.2225 132.697 86.249 132.752 86.2735L132.918 86.3478C133.352 86.563 133.731 86.8685 134.03 87.2305C133.658 86.9417 133.261 86.703 132.831 86.5589C132.404 86.4084 131.953 86.3505 131.506 86.3679C131.059 86.388 130.613 86.4619 130.179 86.5882C129.742 86.7064 129.317 86.8749 128.904 87.067C128.486 87.2526 128.08 87.4681 127.683 87.7018C127.283 87.9299 126.897 88.1829 126.51 88.4377C125.742 88.9563 124.996 89.5138 124.262 90.0981Z" fill="#280509"/>
<path d="M316.7 92.1689C306.803 88.6276 294.457 100.684 286.72 109.539C291.52 97.2678 295.233 83.828 295.678 70.597C295.752 68.4186 295.198 65.587 293.042 65.2668C292.052 65.1197 291.089 65.6166 290.236 66.1393C286.321 68.5388 282.972 71.8546 280.534 75.7449C284.559 62.675 288.585 49.6054 292.612 36.5354C294.99 28.8147 302.191 10.6594 291.647 6.16566C288.743 4.92779 285.472 6.15271 282.854 7.51998C269.125 14.6884 259.255 28.0195 253.45 41.9132C250.288 49.4801 248.077 57.4143 246.447 65.4422C245.173 71.7191 242.195 81.3312 243.206 87.496C242.035 80.3572 240.028 76.3961 238.177 72.8275C235.289 67.2604 230.266 63.9704 225.417 69.2161C216.129 79.2644 215.273 94.3357 215.902 108.004C216.448 119.882 218.845 131.588 219.738 143.444C220.302 150.94 220.982 157.198 221.254 162.775C221.424 166.259 221.798 178.69 221.798 178.69C221.798 178.69 228.655 178.834 231.865 178.826C237.032 178.826 251.319 178.838 256.486 178.826C270.127 178.795 281.943 159.493 291.274 150.515C302.299 139.907 310.547 126.849 315.534 112.391C317.789 105.856 321.777 93.9853 316.7 92.1689Z" fill="#F2C773"/>
<path d="M280.328 34.054C275.131 45.2265 269.948 56.405 265.135 67.7502C262.767 73.3326 260.484 78.9516 258.331 84.6209C256.591 89.2063 254.825 93.8094 253.506 98.5374C251.255 106.61 249.904 114.936 248.779 123.23C247.517 132.542 246.59 141.905 245.902 151.276C245.302 159.471 244.841 167.679 244.614 175.894C244.592 176.726 244.632 177.562 244.599 178.392C244.579 178.895 245.362 178.894 245.381 178.392C245.523 174.77 245.827 171.136 246.046 167.516C246.304 163.264 246.578 159.012 246.883 154.763C247.55 145.471 248.352 136.184 249.49 126.936C250.541 118.405 251.823 109.857 253.899 101.508C254.928 97.3673 256.29 93.3513 257.73 89.3377C259.793 83.585 262.002 77.885 264.31 72.2262C268.95 60.846 273.987 49.63 279.039 38.4279C279.65 37.0753 280.26 35.723 280.871 34.371C281.035 34.0067 280.5 33.6859 280.328 34.054Z" fill="#F2ED76"/>
<path d="M286.9 85.6424C283.656 91.1183 280.568 96.6858 277.618 102.325C274.54 108.206 271.608 114.164 268.834 120.194C266.022 126.309 263.359 132.492 260.862 138.743C258.393 144.924 256.08 151.169 253.951 157.475C251.904 163.541 250.056 169.679 248.448 175.876C248.255 176.62 248.11 177.377 247.952 178.129C247.828 178.716 248.678 178.958 248.854 178.378C249.768 175.378 250.582 172.349 251.477 169.344C252.389 166.278 253.361 163.231 254.356 160.191C256.409 153.913 258.649 147.697 261.046 141.543C263.492 135.262 266.095 129.042 268.845 122.889C271.551 116.831 274.392 110.832 277.38 104.909C280.255 99.2106 283.267 93.5808 286.434 88.0395C286.816 87.3727 287.199 86.707 287.585 86.0429C287.842 85.6002 287.16 85.2028 286.9 85.6424Z" fill="#F2ED76"/>
<path d="M301.652 116.04C298.087 119.27 294.66 122.653 291.319 126.113C287.555 130.011 283.897 134.01 280.342 138.1C276.645 142.353 273.045 146.69 269.548 151.11C266.145 155.409 262.843 159.786 259.681 164.265C256.856 168.265 254.111 172.346 251.715 176.62C251.445 177.101 251.191 177.592 250.915 178.069C250.619 178.578 251.409 179.039 251.705 178.53C252.272 177.553 252.919 176.619 253.523 175.663C254.157 174.659 254.801 173.661 255.456 172.67C256.828 170.593 258.212 168.524 259.631 166.478C262.696 162.057 265.902 157.734 269.197 153.483C272.642 149.041 276.193 144.681 279.839 140.403C283.384 136.243 287.01 132.148 290.741 128.153C294.069 124.589 297.481 121.1 301.027 117.753C301.429 117.375 301.831 116.998 302.236 116.624C302.628 116.261 302.045 115.684 301.652 116.04Z" fill="#F2ED76"/>
<path d="M231.569 90.9931C231.036 96.3896 230.876 101.819 230.937 107.239C231.003 113.105 231.344 118.961 231.853 124.804C232.375 130.791 233.08 136.759 233.903 142.711C234.716 148.588 235.643 154.45 236.646 160.298C237.124 163.082 237.629 165.862 238.162 168.636C238.67 171.28 239.233 173.904 239.794 176.535C239.929 177.168 240.075 177.798 240.217 178.428C240.306 178.822 240.874 178.648 240.813 178.264C239.945 172.877 238.981 167.508 238.061 162.129C237.07 156.337 236.106 150.543 235.267 144.727C234.412 138.797 233.668 132.85 233.073 126.888C232.489 121.042 232.062 115.176 231.859 109.303C231.67 103.846 231.69 98.376 232.069 92.9277C232.114 92.2824 232.164 91.6377 232.219 90.9931C232.255 90.5746 231.61 90.5814 231.569 90.9931Z" fill="#F2ED76"/>
<path d="M2.46309 92.1942C12.3602 88.6529 24.7059 100.71 32.4426 109.565C27.6427 97.2931 23.9294 83.8533 23.4843 70.6223C23.4111 68.4442 23.9648 65.6123 26.1205 65.2922C27.1104 65.145 28.0735 65.6419 28.9265 66.1646C32.8414 68.5641 36.1902 71.8799 38.6289 75.7703C34.603 62.7006 30.5775 49.6307 26.5512 36.5611C24.1729 28.84 16.9715 10.6851 27.516 6.19096C30.4198 4.95344 33.691 6.17836 36.3091 7.54529C50.0373 14.7137 59.9076 28.0452 65.7127 41.9389C68.8747 49.5057 71.0858 57.4396 72.7156 65.4675C73.9899 71.7444 76.9676 81.3565 75.9572 87.5216C77.127 80.3829 79.1348 76.4214 80.986 72.8528C83.8734 67.286 88.8961 63.9957 93.7454 69.2414C103.033 79.2897 108.232 94.7339 107.603 108.403C107.057 120.28 107.032 129.056 107.032 143.521C107.032 151.038 106.747 159.129 107.318 165.41C107.531 167.757 107.543 173.078 107.528 176.282C107.522 177.713 106.359 178.869 104.928 178.868C100.046 178.865 89.7263 178.858 87.2979 178.852C82.1306 178.852 67.8439 178.864 62.6765 178.852C49.0358 178.821 37.2194 159.518 27.8889 150.541C16.8635 139.933 8.61564 126.874 3.62842 112.416C1.37404 105.881 -2.61437 94.011 2.46309 92.1942Z" fill="#F2C773"/>
<path d="M39.6218 34.2305C44.7017 45.4803 49.7985 56.7287 54.5487 68.1228C56.9104 73.7881 59.1832 79.4904 61.32 85.2445C62.9962 89.7584 64.6645 94.2917 65.9868 98.9244C68.2916 107.001 69.8584 115.289 71.2141 123.571C72.7312 132.839 73.8959 142.157 74.8865 151.494C75.7494 159.63 76.4493 167.784 76.9631 175.949C77.0139 176.753 77.1222 177.56 77.1542 178.364C77.1736 178.866 77.9561 178.868 77.9364 178.364C77.7923 174.713 77.7106 171.068 77.476 167.417C77.2001 163.129 76.8446 158.847 76.4312 154.569C75.5312 145.248 74.3638 135.949 72.9138 126.697C71.5727 118.143 70.0158 109.591 67.7944 101.217C66.6958 97.0746 65.3187 93.0426 63.8499 89.0181C61.7284 83.2051 59.458 77.4475 57.0868 71.7322C52.3815 60.3902 47.2775 49.2235 42.1054 38.0888C41.4587 36.6967 40.8113 35.3053 40.164 33.9135C39.993 33.546 39.4573 33.8658 39.6218 34.2305Z" fill="#F2ED76"/>
<path d="M32.9073 85.9017C36.1091 91.4154 39.1879 97.0003 42.1499 102.647C45.2543 108.565 48.2252 114.552 51.0765 120.596C53.9616 126.712 56.7104 132.893 59.3023 139.139C61.8662 145.319 64.2721 151.565 66.472 157.884C68.5803 163.939 70.5207 170.05 72.2309 176.23C72.4342 176.966 72.6767 177.691 72.8987 178.421C73.0748 179.001 73.9258 178.76 73.8018 178.172C73.1514 175.093 72.2799 172.065 71.3833 169.05C70.4587 165.941 69.4827 162.845 68.4345 159.775C66.2803 153.465 63.9145 147.228 61.3871 141.057C58.8068 134.758 56.0552 128.531 53.1555 122.372C50.2997 116.306 47.2948 110.312 44.1618 104.385C41.147 98.6825 38.0134 93.0425 34.7551 87.4753C34.3692 86.8164 33.9814 86.1581 33.5925 85.5012C33.3323 85.0623 32.6502 85.459 32.9073 85.9017Z" fill="#F2ED76"/>
<path d="M18.2556 116.484C21.7871 119.751 25.1775 123.169 28.4828 126.663C32.1964 130.589 35.7976 134.621 39.3252 138.714C42.9949 142.972 46.5692 147.313 50.0397 151.735C53.3998 156.015 56.6683 160.372 59.802 164.822C62.609 168.807 65.2956 172.873 67.9089 176.987C68.2041 177.452 68.5109 177.914 68.7878 178.39C69.0831 178.898 69.8738 178.439 69.5772 177.928C69.0027 176.939 68.4789 175.919 67.8942 174.935C67.2952 173.926 66.6802 172.927 66.0577 171.932C64.7384 169.824 63.3446 167.758 61.9259 165.715C58.826 161.253 55.5816 156.891 52.2355 152.61C48.7654 148.171 45.1883 143.815 41.5163 139.541C37.9532 135.394 34.2907 131.334 30.5195 127.376C27.1342 123.823 23.6655 120.347 20.0612 117.016C19.6556 116.642 19.2487 116.27 18.84 115.899C18.447 115.544 17.8637 116.121 18.2556 116.484Z" fill="#F2ED76"/>
<path d="M88.2736 90.8523C88.7384 96.2615 88.9274 101.692 88.9424 107.121C88.9584 112.971 88.7851 118.824 88.4714 124.665C88.1506 130.642 87.6838 136.613 87.094 142.568C86.513 148.438 85.8067 154.296 84.9734 160.136C84.5777 162.906 84.165 165.673 83.7349 168.439C83.3208 171.101 82.9223 173.767 82.483 176.424C82.3771 177.065 82.2797 177.707 82.1765 178.349C82.1149 178.732 82.6826 178.907 82.7715 178.513C83.9691 173.205 84.9073 167.858 85.7223 162.478C86.6043 156.657 87.319 150.808 87.929 144.953C88.5515 138.975 89.0449 132.983 89.3718 126.981C89.693 121.08 89.8711 115.171 89.8282 109.261C89.7887 103.764 89.5802 98.2649 89.1038 92.7873C89.0473 92.142 88.9874 91.497 88.9233 90.8523C88.8828 90.4413 88.2375 90.4335 88.2736 90.8523Z" fill="#F2ED76"/>
<path d="M104.749 94.0527C105.218 99.5208 105.201 105.025 104.886 110.501C104.544 116.463 103.861 122.41 102.902 128.303C101.928 134.283 100.679 140.224 99.1486 146.086C97.687 151.686 95.9489 157.205 93.9162 162.623C92.1127 167.429 90.0466 172.173 87.6417 176.71C87.3737 177.216 87.105 177.72 86.8278 178.221C86.6347 178.57 87.1473 178.867 87.3604 178.532C90.1055 174.236 92.2782 169.638 94.1794 164.914C96.3228 159.589 98.0851 154.109 99.5998 148.574C101.214 142.677 102.534 136.699 103.549 130.669C104.547 124.745 105.276 118.772 105.634 112.775C105.968 107.179 106.007 101.553 105.569 95.9611C105.519 95.3247 105.463 94.6885 105.4 94.0527C105.359 93.6417 104.714 93.6335 104.749 94.0527Z" fill="#F2ED76"/>
<path d="M123.991 93.2153C124.118 90.9405 124.819 88.2955 126.947 87.4826C127.958 87.0968 129.085 87.2252 130.151 87.4077C146.722 90.2468 159.108 104.388 166.883 119.295C165.15 115.251 162.448 108.898 163.36 104.429C164.783 97.4557 171.576 101.802 174.667 104.737C177.661 107.58 180.358 111.479 180.953 115.648C177.168 89.12 162.067 64.2772 163.674 37.5256C163.866 34.3402 164.523 30.7789 167.156 28.976C170.157 26.9212 174.247 28.1179 177.541 29.6605C191.049 35.9871 202.024 47.0397 209.709 59.8246C217.393 72.6095 221.942 87.0828 224.637 101.754C225.303 96.8547 226.068 91.9693 226.932 87.0995C227.526 83.752 226.563 75.8225 230.789 74.1781C231.946 73.7279 233.297 74.1508 234.263 74.9303C241.687 80.9177 242.728 93.1196 242.994 101.844C243.676 124.192 239.459 157.384 232.681 178.691H189.967C175.82 166.336 164.17 147.83 150.022 135.475C143.557 129.83 137.031 124.118 132.005 117.161C126.978 110.204 123.509 101.785 123.991 93.2153Z" fill="#CFA539"/>
<path d="M182.142 55.2177C186.411 62.1327 190.151 69.3662 193.457 76.7883C196.92 84.5645 199.934 92.5315 202.528 100.639C205.162 108.873 207.397 117.236 209.222 125.687C211.021 134.021 212.417 142.441 213.42 150.909C214.387 159.073 214.842 167.261 215.187 175.47C215.228 176.444 215.269 177.418 215.32 178.392C215.345 178.874 216.041 178.874 216.069 178.392C216.307 174.361 216.224 170.295 216.036 166.264C215.843 162.099 215.511 157.939 215.087 153.792C214.217 145.284 212.894 136.825 211.176 128.447C209.432 119.945 207.292 111.515 204.696 103.231C202.142 95.0794 199.177 87.0549 195.755 79.2272C192.467 71.707 188.71 64.3762 184.446 57.3618C183.923 56.5033 183.393 55.6495 182.855 54.8006C182.572 54.3528 181.861 54.7628 182.142 55.2177Z" fill="#F2ED76"/>
<path d="M232.985 100.589C233.28 105.378 233.239 110.179 233.025 114.97C232.791 120.221 232.319 125.46 231.707 130.679C231.075 136.067 230.267 141.435 229.317 146.776C228.39 151.982 227.329 157.166 226.152 162.32C225.065 167.083 223.862 171.823 222.615 176.547C222.473 177.085 222.342 177.627 222.203 178.166C222.096 178.582 222.702 178.74 222.841 178.342C224.434 173.774 225.687 169.101 226.821 164.401C228.06 159.272 229.14 154.109 230.074 148.915C231.041 143.542 231.862 138.142 232.519 132.722C233.155 127.47 233.619 122.196 233.86 116.911C234.083 112.03 234.107 107.134 233.814 102.255C233.781 101.7 233.743 101.144 233.701 100.589C233.667 100.133 232.956 100.126 232.985 100.589Z" fill="#F2ED76"/>
<path d="M174.063 119.87C176.646 123.146 179.173 126.467 181.635 129.834C184.354 133.551 186.995 137.324 189.537 141.163C192.143 145.099 194.662 149.093 197.022 153.183C199.32 157.163 201.446 161.231 203.387 165.397C205.156 169.192 206.682 173.089 207.943 177.082C208.088 177.54 208.226 177.999 208.36 178.459C208.514 178.991 209.317 178.769 209.189 178.231C208.22 174.169 206.744 170.259 205.08 166.434C203.252 162.23 201.118 158.158 198.855 154.173C196.509 150.044 194.002 146.005 191.381 142.044C188.804 138.151 186.107 134.336 183.337 130.578C180.805 127.141 178.204 123.753 175.546 120.412C175.248 120.036 174.948 119.661 174.647 119.286C174.507 119.111 174.21 119.142 174.063 119.286C173.888 119.457 173.926 119.696 174.063 119.87Z" fill="#F2ED76"/>
<path d="M145.616 114.508C149.893 118.289 154.207 122.027 158.481 125.81C162.684 129.53 166.85 133.294 170.893 137.187C174.896 141.042 178.782 145.025 182.452 149.2C186.081 153.329 189.488 157.656 192.553 162.222C194.093 164.517 195.55 166.871 196.913 169.275C198.297 171.716 199.523 174.226 200.773 176.735C201.088 177.369 201.396 178.005 201.697 178.645C201.935 179.153 202.818 178.791 202.613 178.259C200.589 173.003 197.863 168.018 194.803 163.297C191.783 158.635 188.402 154.211 184.786 149.997C181.16 145.771 177.293 141.762 173.288 137.895C169.231 133.976 165.039 130.199 160.799 126.478C156.512 122.716 152.175 119.009 147.866 115.271C147.329 114.804 146.792 114.337 146.255 113.87C145.819 113.49 145.179 114.122 145.616 114.508Z" fill="#F2ED76"/>
<path d="M31.2441 89.9434C30.9795 87.3593 32.1476 84.3735 34.4731 83.485C35.5778 83.0634 37.9562 83.266 39.1212 83.4656C57.2287 86.5679 70.7635 102.021 79.2583 118.31C77.3653 113.891 74.4128 106.948 75.4089 102.065C76.9644 94.4453 84.3869 99.1945 87.7654 102.402C91.037 105.509 93.983 109.769 94.6337 114.325C90.4972 85.3369 73.9959 58.1907 75.7528 28.9583C75.9619 25.4776 76.6804 21.5859 79.5577 19.6159C82.8371 17.3707 87.3056 18.678 90.9048 20.3641C105.666 27.277 117.659 39.3547 126.055 53.325C134.452 67.2957 139.423 83.1108 142.367 99.1421C143.096 93.7887 143.932 88.4501 144.876 83.1288C145.525 79.4714 144.473 70.8063 149.091 69.0093C150.355 68.5176 151.831 68.9797 152.887 69.831C160.999 76.3738 162.136 89.7074 162.427 99.2401C163.172 123.661 169.352 155.544 161.945 178.826L105.085 178.69C89.6254 165.19 76.2943 149.491 60.8351 135.99C53.7699 129.821 46.6396 123.58 41.1464 115.978C35.6534 108.375 32.2 99.2738 31.2441 89.9434Z" fill="#CFA539"/>
<path d="M95.8651 48.5746C100.458 56.0083 104.555 63.7423 108.191 71.6868C111.899 79.7889 115.159 88.0862 117.959 96.5452C120.789 105.091 123.188 113.78 125.133 122.57C127.064 131.294 128.545 140.116 129.597 148.989C130.633 157.725 131.097 166.488 131.448 175.273C131.491 176.344 131.532 177.414 131.585 178.484C131.609 178.967 132.307 178.966 132.334 178.484C132.578 174.117 132.488 169.715 132.289 165.348C132.089 160.945 131.743 156.547 131.297 152.163C130.39 143.241 128.995 134.371 127.159 125.593C125.301 116.709 122.999 107.909 120.205 99.2733C117.45 90.7557 114.244 82.3815 110.572 74.2167C106.964 66.1959 102.86 58.388 98.2744 50.8831C97.7166 49.9698 97.1506 49.0616 96.5785 48.1575C96.2952 47.7096 95.5841 48.12 95.8651 48.5746Z" fill="#F2ED76"/>
<path d="M150.772 102.085C151.077 107.023 151.172 111.969 151.1 116.915C151.028 121.952 150.763 126.985 150.343 132.004C149.919 137.079 149.319 142.139 148.546 147.172C147.781 152.16 146.849 157.125 145.778 162.056C144.725 166.906 143.523 171.731 142.244 176.526C142.086 177.117 141.942 177.712 141.791 178.304C141.684 178.721 142.289 178.879 142.428 178.48C144.071 173.781 145.349 168.969 146.474 164.122C147.618 159.187 148.577 154.215 149.362 149.21C150.152 144.175 150.776 139.113 151.225 134.037C151.671 128.989 151.932 123.928 152.003 118.862C152.073 113.878 151.947 108.891 151.619 103.917C151.579 103.306 151.535 102.696 151.489 102.085C151.454 101.63 150.744 101.623 150.772 102.085Z" fill="#F2ED76"/>
<path d="M87.1315 118.912C89.8739 122.388 92.6333 125.85 95.3552 129.341C98.2512 133.056 101.105 136.804 103.863 140.622C106.654 144.486 109.364 148.41 111.897 152.45C114.376 156.406 116.679 160.47 118.722 164.669C120.645 168.621 122.29 172.678 123.618 176.869C123.775 177.367 123.926 177.866 124.071 178.367C124.225 178.899 125.029 178.677 124.9 178.139C123.871 173.843 122.288 169.713 120.453 165.701C118.517 161.465 116.231 157.389 113.793 153.425C111.28 149.338 108.579 145.368 105.775 141.477C102.99 137.614 100.08 133.839 97.1339 130.099C94.3482 126.561 91.518 123.06 88.6977 119.551C88.3701 119.143 88.0428 118.735 87.7159 118.328C87.5752 118.152 87.2786 118.184 87.1315 118.328C86.9565 118.499 86.9939 118.738 87.1315 118.912Z" fill="#F2ED76"/>
<path d="M56.0527 113.05C60.6078 117.074 65.2572 120.989 69.9042 124.907C74.3435 128.65 78.7807 132.397 83.1005 136.279C87.296 140.048 91.3828 143.948 95.2289 148.075C99.0371 152.162 102.597 156.482 105.774 161.08C107.422 163.465 108.969 165.921 110.412 168.435C111.913 171.049 113.23 173.745 114.57 176.442C114.909 177.127 115.241 177.815 115.565 178.506C115.803 179.015 116.687 178.652 116.481 178.12C114.314 172.514 111.401 167.192 108.078 162.19C104.937 157.461 101.394 153.003 97.5803 148.799C93.7955 144.627 89.7444 140.709 85.5609 136.94C81.2401 133.046 76.7855 129.303 72.3166 125.581C67.673 121.715 63.0123 117.867 58.4351 113.922C57.8525 113.42 57.2712 112.916 56.6916 112.411C56.2557 112.031 55.6151 112.663 56.0527 113.05Z" fill="#F2ED76"/>
<path d="M217.161 94.8066C216.438 92.97 215.543 91.1035 213.973 89.9082C211.758 88.2219 208.572 88.2508 206.036 89.3978C203.499 90.5444 201.515 92.6407 199.84 94.8641C195.232 100.979 192.475 108.468 192.018 116.11C188.766 105.296 186.648 99.616 180.972 93.281C180.099 92.307 179.006 91.3906 177.701 91.301C175.025 91.1175 173.434 94.3921 173.53 97.0729C173.625 99.7543 174.607 102.494 173.812 105.056C171.258 98.2362 168.573 91.4662 165.757 84.7504C158.796 68.1501 150.291 51.0032 135.094 41.3556C130.063 38.1624 123.506 35.939 118.266 38.7747C113.308 41.4571 111.447 47.655 111.111 53.2814C109.888 73.7938 122.333 92.2409 129.506 111.497C124.451 108.632 117.11 105.165 111.103 105.554C100.477 106.242 109.539 123.716 112.698 127.988C126.029 146.013 141.902 165.652 160.042 178.826L191.736 178.69C201.631 168.138 211.076 150.738 216.2 137.211C221.324 123.684 222.459 108.266 217.161 94.8066Z" fill="#F2C773"/>
<path d="M113.694 119.189C117.813 122.131 121.723 125.36 125.486 128.743C129.519 132.368 133.384 136.176 137.13 140.095C140.967 144.11 144.7 148.221 148.331 152.423C151.903 156.557 155.375 160.775 158.787 165.043C160.422 167.09 162.046 169.147 163.651 171.218C165.182 173.193 166.664 175.217 168.26 177.139C168.64 177.595 169.018 178.053 169.396 178.51C169.61 178.769 170.051 178.429 169.863 178.15C167.02 173.917 163.845 169.909 160.687 165.908C157.299 161.616 153.82 157.395 150.258 153.246C146.631 149.02 142.918 144.859 139.064 140.838C135.293 136.903 131.399 133.082 127.349 129.434C123.543 126.007 119.594 122.729 115.445 119.722C114.963 119.373 114.477 119.027 113.988 118.685C113.679 118.469 113.391 118.973 113.694 119.189Z" fill="#F2ED76"/>
<path d="M135.496 59.726C139.274 66.7823 142.669 74.0471 145.769 81.4249C148.982 89.0738 151.874 96.8541 154.523 104.716C157.189 112.628 159.577 120.633 161.699 128.708C163.784 136.644 165.623 144.649 167.196 152.701C168.688 160.339 169.933 168.035 170.946 175.751C171.059 176.613 171.18 177.471 171.313 178.33C171.362 178.647 171.897 178.574 171.876 178.253C171.631 174.511 171.119 170.772 170.591 167.06C170.037 163.164 169.38 159.28 168.669 155.409C167.188 147.344 165.418 139.335 163.373 131.394C161.276 123.249 158.908 115.174 156.262 107.191C153.632 99.258 150.704 91.4232 147.455 83.7229C144.352 76.3716 140.955 69.1501 137.2 62.1094C136.742 61.2506 136.278 60.3951 135.81 59.5424C135.697 59.3371 135.386 59.5196 135.496 59.726Z" fill="#F2ED76"/>
<path d="M181.155 107.932C182.068 112.149 182.52 116.449 182.711 120.756C182.922 125.514 182.824 130.288 182.514 135.039C182.195 139.945 181.651 144.841 180.92 149.702C180.201 154.483 179.293 159.239 178.209 163.95C177.218 168.25 176.073 172.508 174.778 176.726C174.632 177.203 174.499 177.686 174.357 178.164C174.23 178.587 174.85 178.736 175.005 178.343C176.602 174.277 177.794 170.026 178.838 165.789C179.991 161.104 180.932 156.372 181.683 151.607C182.458 146.693 183.036 141.749 183.368 136.785C183.689 131.979 183.795 127.157 183.579 122.343C183.382 117.948 182.929 113.549 182.062 109.233C181.964 108.743 181.86 108.255 181.75 107.768C181.662 107.38 181.071 107.545 181.155 107.932Z" fill="#F2ED76"/>
<path d="M208.484 116.394C207.573 120.601 206.384 124.745 205.009 128.823C203.54 133.182 201.858 137.469 200.002 141.677C198.091 146.011 196.009 150.273 193.757 154.441C191.556 158.513 189.194 162.506 186.662 166.381C184.289 170.012 181.73 173.504 179.073 176.931C178.758 177.337 178.449 177.749 178.132 178.155C177.875 178.486 178.305 178.956 178.608 178.63C181.546 175.461 184.117 171.948 186.542 168.377C189.15 164.538 191.562 160.573 193.798 156.507C196.09 152.339 198.213 148.077 200.139 143.728C202.03 139.458 203.753 135.111 205.261 130.691C206.671 126.555 207.898 122.353 208.851 118.087C208.963 117.587 209.071 117.086 209.174 116.584C209.268 116.135 208.582 115.942 208.484 116.394Z" fill="#F2ED76"/>
</svg>
