<svg xmlns="http://www.w3.org/2000/svg" xmlns:xlink="http://www.w3.org/1999/xlink" fill="none" viewBox="0 0 142 128" xmlns:v="https://vecta.io/nano"><style><![CDATA[.B{fill:#95d37f}.C{fill:#34986e}.D{fill:#ffc700}.E{fill:#1a692c}.F{fill:#fdb082}.G{fill:#e98146}.H{stroke-width:.899}]]></style><g clip-path="url(#C)"><path d="M0 11.845C0 5.56 5.095.464 11.381.464h130.62v127.46H11.381C5.096 127.924 0 122.829 0 116.543v-104.7z" fill="#ffe6b5"/><path d="M51.214 56.215c-36.424 7.134-42.109 12.71-64.017 12.71l11.291 59.322h302.59l8.199-28.077c-7.726 0-38.791-17.239-55.503-21.633-25.386-6.674-47.066-22.322-93.158-16.299-38.546 5.037-54.232-16.828-109.4-6.023z" fill="#d7a87b"/><g fill="#b38b66"><path d="M91.793 91.449l-10.125.813c-5.641.513-7.118.398-11.085-.972l-.94-.328c-2.337-.766-4.344-.943-7.993-.634a125.8 125.8 0 0 0-4.824.513c-4.18.518-8.621.835-13.421.866-1.57.01-2.801.141-3.986.372l-4.348.856a40.86 40.86 0 0 1-3.379.476c-2.4.223-4.622.272-6.045-.217-.261-.09-.708-.144-1.193-.238-2.244.243-4.169.66-6.168 1.042-1.794.343-3.607.553-5.623.635-2.253.091-4.576.298-6.786.388-2.694.109-4.821.548-6.843 1.125l-5.423 1.601c-1.561.446-3.17.912-4.905 1.298-3.109.694-4.936.76-6.955.336-.376-.078-.807-.141-1.125-.193-2.268.342-3.123.875-4.237 1.368-.547.244-1.172.513-1.903.704a7.44 7.44 0 0 1-1.813.179c-.39-.03-.704-.23-.48-.367 1.826-1.129 4.576-2.129 8.289-2.888 1.456-.298 2.739-.362 3.617-.165.761.169 1.484.351 2.249.537 1.984-.328 3.428-.73 4.849-1.147l7.767-2.18c2.081-.577 4.235-1.003 6.887-1.122 2.065-.094 4.252-.299 6.271-.327 2.065-.026 3.799-.234 5.583-.582l6.157-1.123c2.715-.424 3.459-.379 5.222.147 1.148.344 2.312.401 3.908.117 1.67-.299 3.243-.632 4.738-.968 2.016-.453 4.092-.739 6.898-.629 2.729.108 5.311-.071 7.827-.374a236.53 236.53 0 0 1 9.844-.969c3.967-.309 6.889-.068 9.733.75 1.427.412 2.657.858 4.125 1.346 3.769-.101 6.776-.465 9.985-.716 1.552-.12 3.05-.262 4.674-.334 1.751-.078 3.53.045 5.035.507a21.74 21.74 0 0 0 1.212.339c1.456.356 3.002.526 4.588.448l8.4-.356 3.752-.112c2.106-.055 4.198.225 6.23.738.779.196 1.602.402 2.202.622 2.17.796 4.393 1.014 6.791.966 1.196-.023 2.475-.007 3.721.002s2.442-.014 3.761.049c3.461.168 6.823.084 10.714.902 3.502.736 7.286 1.338 10.5 2.398 2.673.882 5.176 1.087 7.678 1.32 3.251.304 6.571.683 9.85 1.07 2.633.311 4.912.985 6.991 1.86.137.057.302.118.412.174 2.863 1.47 6.249 2.208 10.136 2.89 5.716 1.005 11.5 2.166 17.329 3.554 3.767.897 7.421 2.074 10.806 3.779 4.101 2.066 9.174 3.772 14.226 5.247l10.947 3.313c3.354 1.063 6.709 2.33 9.96 3.82 3.619 1.658 7.125 3.203 10.6 4.2.134.038.333.121.478.194.295.149.783.382.821.445.086.144.117.332-.124.282-3.093-.641-6.702-1.769-10.538-3.627-5.485-2.657-10.816-4.469-16.184-5.925-5.087-1.379-10.243-3.036-15.57-5.003-2.88-1.064-5.929-2.143-7.957-3.295-1.807-1.028-3.876-1.652-6.155-2.269-.859-.232-1.705-.402-2.547-.585-5.558-1.206-11.167-2.348-16.717-3.324-4.262-.749-8.005-1.769-11.435-3.231-.801-.342-1.705-.677-2.698-1.065-3.028-.573-5.829-.918-8.507-1.138l-2.787-.203c-3.451-.193-6.843-.778-10.669-1.926-7.152-2.142-14.04-2.965-20.467-2.89l-5.94.025c-3.257.008-6.409-.324-9.491-1.315-1.057-.34-2.343-.648-3.71-1.014-1.314.003-2.622-.009-3.837.026l-9.232.397c-2.938.207-5.726-.063-8.655-.658l-2.941-.623zm91.497 49.091c7.196.459 14.087.757 20.502.816.585-.449 1.178 3.665 1.757 3.21-6.54-.017-13.608-4.851-21.018-5.31 3.313-3.27 7.818-6.761 9.839-10.673 3.61.129 7.116 4.758 10.472 4.758 4.409.002 9.049 6.759 13.81 6.636.473-.459.917-.947 1.384-1.41-5.248.146-10.359-6.596-15.194-6.598-3.171 0-6.476-4.62-9.878-4.736.093-.267.177-.535.243-.806 1.867-7.597-67.607-11.312-68.119-5.118l-5.936-.667-40.918-4.356c-1.574-2.622-5.3-5.764-9.124-6.572a9.18 9.18 0 0 0-.891-.145 8.12 8.12 0 0 0-1.032-.048c-.213.004-.427.004-.638.026l-.259.028-.567.063-.902.117c-.504.071-.991.154-1.466.246a19.7 19.7 0 0 0-.953.206c-2.866.694-4.993 1.93-5.652 4.358l-4.708-.279c-25.235-1.373-50.802 6.712-69.468 14.848l1.081 1.036c18.454-7.961 43.597-15.837 68.31-14.515 20.61 1.121 44.213 3.778 67.037 6.353l7.104.798c1.76 1.326 5.891 2.962 13.129 4.942 9.703 2.653-83.368-6.716-83.368-6.716-12.361.611-13.8 2.848-11.74 5.778-18.368.568-36.436 5.538-51.429 11.294l1.234 1.033c15.028-5.693 33.091-10.576 51.31-10.987 3.311 3.516 9.688 7.738 8.475 11.325-17.026-.775-34.165 2.697-49.204 7.53.51.348 1.043.662 1.557 1.003 14.411-4.534 30.659-7.785 46.781-7.194-1.28 1.309-3.875 2.498-8.411 3.492-5.23 1.146-13.389.214-15.383 10.63-.899 4.695 4.247 3.718 10.588 2.437l.162-1.443s15.842-19.586 32.372-13.602 24.166 12.469 34.595 8.038c7.819-3.321 14.919-1.343 17.986-.145l5.899-.602c1.912-1.991 7.104-3.799 13.358-4.437s11.703.083 13.979 1.646l20.726-2.116c.311-1.364 1.271-2.749 2.566-4.172zm-206.62-25.51c1.096-1.33 4.359-2.576 8.33-3.707 1.455-.414 3.071-.596 4.456-.518l4.056.299a14.84 14.84 0 0 0 5.304-.521l7.884-2.312c3.043-.957 6.41-1.796 10.143-2.498 3.517-.657 5.124-.648 7.462-.098.331.078.601.172.893.259 1.59.481 3.89.5 6.595.192l6.661-.808c1.187-.144 2.456-.282 3.441-.484 4.161-.852 8.921-.845 13.65-.711 1.565.044 3.136.225 4.497.422 3.13.456 6.232.464 9.418.178l12.352-.996c5.621-.524 10.864-.14 16.086.999.607.135 1.257.256 1.89.385 2.393.177 4.254.059 6.064-.081l11.317-.744c1.525-.075 3.162-.109 4.85-.093 2.587.024 5.179.362 7.251 1.058 1.681.564 3.67.95 5.857 1.369 2.907.557 5.393.782 7.992.864 5.268.166 10.64.462 15.991.821 2.526.169 5.133.422 7.965.955 2.579.485 4.739 1.056 5.447 1.836.113.128.629.309.925.45 2.084.503 3.646.558 5.282.739 4.547.502 10.751 3.841 15.693 5.619 1.003.133 2.052.867 3.116 1.067 2.871.544 4.226 1.033 5.71 1.998.089.057.089.104.174.159 1.356.887 2.053 1.099 4.807 1.558l9.103 1.65c3.849.749 7.702 1.792 11.452 3.292.95.382 2.085.791 2.753 1.161 1.374.755 3.021 1.322 4.803 1.853 3.867 1.153 7.474 2.155 11.007 2.867 8.769 1.831 6.802 1.312 15.888 5.382 1.583.722 3.173 1.516 4.443 2.266 1.719 1.009 3.334 1.973 5.621 2.954.865.373 1.562.865 1.132.92-.306.039-1.167-.131-1.833-.375-.932-.343-2.02-.829-2.86-1.27-1.316-.686-2.547-1.388-3.707-2.069-1.718-1.008-3.717-1.96-5.788-2.911-3.732-1.713-7.197-2.895-10.704-3.49-4.412-.751-9.67-2.322-14.914-3.815-2.308-.658-4.507-1.426-6.037-2.391-1.519-.959-3.902-1.713-6.215-2.234-3.792-.855-7.52-1.579-11.274-2.289-.85-.161-1.618-.239-2.461-.389-3.241-.574-5.981-1.431-8.129-2.57-.762-.402-1.402-.797-2.284-1.296-5.514-.782-13.003-6.029-18.329-6.614-1.839-.201-3.568-.318-5.411-.504-2.942-.298-4.841-.844-6.019-1.736-.324-.244-.548-.478-.736-.644-1.954-.629-3.579-.781-5.056-.894-4.358-.332-8.652-.574-12.946-.77-.821-.039-1.59-.045-2.383-.059-7.394-.145-14.376-1.281-21.232-3.112-.303-.08-.625-.159-.951-.233-.161-.036-.354-.065-.882-.158-3.713-.187-7.036-.024-10.214.233l-7.836.666c-3.278.3-6.614.162-10.112-.65-.584-.134-1.286-.243-1.883-.375-3.41-.748-6.739-.867-10.332-.577l-13.259 1.072c-4.252.39-8.263.324-12.508-.227-4.303-.558-9.019-.557-13.619.074l-5.379.761c-3.463.577-7.22.763-11.022.982-2.169.125-3.808.013-5.127-.277-.453-.099-.781-.23-1.239-.328-1.684-.358-2.798-.36-5.113.163-2.857.648-5.539 1.368-8.184 2.107-1.808.507-3.445 1.055-5.178 1.594-.664.206-1.399.405-2.133.599-3.334.884-6.545 1.306-9.644 1.028a34.88 34.88 0 0 0-1.241-.077c-3.192-.17-5.41.204-7.946 1.36-.866.394-1.513.803-2.383 1.203-.916.42-2.008.61-3.258.491zm243.99-22.762l-3.987-.977-2.992-.721c-6.542-1.933-13.032-3.463-19.551-4.831-3.042-.64-5.891-1.491-8.055-2.574-.448-.225-.989-.451-1.352-.616-2.016-.564-3.186-.529-4.496-.638-2.182-.18-4.48-.53-7.027-1.064-2.375-.499-4.585-1.04-6.319-1.774-2.618-1.108-5.521-1.583-8.856-1.984-5.398-.648-10.387-.9-15.321-1.106-7.152-.294-14.332-1.091-21.826-2.192-3.415-.501-6.136-2.973-8.898-2.698-2.008.2-4.586.215-6.942.316-1.775.077-3.623.017-5.664-.235-2.028-.249-2.674-.659-3.575-1.057-.171-.075-.503-.138-1.003-.271l-2.781.044c-1.355.014-2.747.11-4.072.03-3.446-.208-6.191.007-8.881.364-1.279.169-2.793.289-4.294.359-1.703.08-3.532.062-5.152-.171-2.105-.303-4.046-.215-5.96.076-.292.044-.665.06-.97.101-3.78.514-7.588.7-11.544.315-.454-.043-.997-.046-1.901-.081l-8.249 1.506c-2.626.517-5.41.858-8.432.894-1.484.018-2.929-.016-4.339-.049-.939-.023-1.791-.099-2.584-.144-2.98.349-5.409 3.16-7.621 3.788l-4.897 1.429c-1.108.314-2.297.623-3.528.903-2.711.621-4.348.725-6.2.391-.846-.153-1.568-.344-2.411-.493-.7-.124-1.731-.062-2.724.188-1.376.348-2.755.726-3.932 1.139-1.728.602-3.271 1.249-4.888 1.891-.816.325-1.737.52-2.768.603-1.003.081-1.476-.161-.835-.482.412-.206.852-.419 1.375-.611 2.392-.878 4.794-1.737 7.311-2.55.958-.308 2.151-.565 3.262-.825 2.39-.562 4.317-.613 5.84-.343.744.133 1.32.325 2.048.464 1.223.238 2.149.174 3.942-.289 1.179-.303 2.256-.638 3.381-.95l8.098-2.152c3.052-.735 6.165-3.289 9.188-2.938 2.947.338 6.113.1 9.243-.495l6.627-1.299c2.232-.475 4.565-.657 6.812-.34 2.395.339 4.665.146 7.029-.049.828-.067 1.578-.193 2.363-.292 5.267-.634 5.311-.636 11.057.07 2.115-.07 3.964-.348 5.954-.552 2.616-.269 5.248-.53 8.531-.235 1.688.153 3.052-.028 4.479-.119l4.337-.222c.937-.027 2.337.232 2.621.472.391.329.621.662.88.947 2.012.433 3.696.431 5.271.345l8.197-.446c1.959-.131 3.891 2.261 6.033 2.656 5.151.952 10.276 1.418 15.253 1.74l14.021.884a333.48 333.48 0 0 1 12.191 1.187c.928.108 2.15.374 3.066.633 1.625.461 3.328.962 4.613 1.481 3.445 1.388 6.776 1.874 10.192 2.164l3.542.25c1.846.171 3.218.521 4.784 1.228a21.39 21.39 0 0 1 2.003 1.035c1.154.671 2.789 1.129 4.613 1.518l7.185 1.569c3.093.748 6.212 1.625 9.282 2.424l7.074 1.759 3.491.854c1.858.505 3.441 1.169 4.368 1.851 1.978 1.457 5.084 2.489 8.386 3.481l5.931 1.745a94.97 94.97 0 0 1 10.388 3.763l3.903 1.622c2.987 1.164 5.23 2.483 7.503 3.798.402.233.658.576.545.666-.197.158-1.083-.126-1.925-.503-.773-.346-1.552-.731-2.255-1.104-5.501-2.923-11.416-5.349-17.678-7.246l-6.39-1.868c-4.324-1.179-7.959-2.608-11.047-4.352-.347-.197-.746-.398-1.132-.595-.128-.065-.302-.13-.96-.412z"/></g><path d="M7.456 90.286c-.048-.15-.16-.421-.334-.812-.157-.366-.35-.715-.577-1.043-.044-.075-.106-.138-.179-.186s-.156-.078-.243-.088c-.079.001-.156.028-.218.077a.5.5 0 0 0-.155.173 1.12 1.12 0 0 0-.106.457c-.044.615-.027 1.233.053 1.845l.131.865.363 1.879c.146.617.361 1.217.639 1.787a2.71 2.71 0 0 0 .664.884 2.64 2.64 0 0 0 1.124.466.66.66 0 0 0 .024.221c.015.037.04.069.073.091.014.012.03.021.047.027s.036.008.054.007c.033-.004.065-.019.09-.041s.043-.051.051-.084a.49.49 0 0 0 .019-.221c-.055-.599-.153-1.264-.296-1.994l-.441-1.975a6.7 6.7 0 0 0-.242-.836c-.029-.077-.082-.199-.16-.365l-.16-.37c-.032-.09-.069-.216-.111-.38l-.111-.384z" class="D"/><g class="C"><path d="M8.815 74.73a.35.35 0 0 0-.118.072c-.034.031-.062.069-.081.111a1.26 1.26 0 0 0-.102.279l-.732 3.257a22.75 22.75 0 0 0-.402 3.301c-.034 1.076.008 2.153.126 3.224l.436 3.21.611 3.997.291 1.725c.109.569.253 1.13.431 1.682.191.564.522 1.401.993 2.513.368.99.528 1.848.48 2.575-.011.101-.015.202-.015.303a.63.63 0 0 0 .068.288c.021.047.053.088.092.122s.086.057.136.07c.045.02.095.024.143.014s.091-.035.124-.071a.45.45 0 0 0 .073-.37L9.503 80.015l-.262-2.657-.427-2.628zm2.181 25.263a1.69 1.69 0 0 0-.015-.259l-.063-.264a.53.53 0 0 1 .005-.26c.026.019.039.07.039.154a.9.9 0 0 0 .068.264 1.93 1.93 0 0 1 .087.259 1.65 1.65 0 0 1 .01.337 3.63 3.63 0 0 0 .024.634c.009.077.004.155-.014.231l-.058-.025c.025-.205.016-.413-.029-.615l-.039-.197c-.011-.085-.016-.172-.015-.259zm-9.78-8.215a12.84 12.84 0 0 0 .46 1.831c.41 1.188 1.181 2.5 2.311 3.935L5.47 99.34l1.449 1.811c1.547 2.075 2.709 4.406 3.431 6.885l.378-.283a8.75 8.75 0 0 0-.392-2.993 25.95 25.95 0 0 0-1.1-2.816l-3.959-8.288c-1.647-2.979-3.421-5.44-5.32-7.385.404.83.725 2.039.964 3.627l.296 1.879z"/><use xlink:href="#D"/></g><g class="B"><path d="M8.647 82.116l-1.466-1.531c-.412-.663-1.106-1.224-2.084-1.683-.206-.102-1.286-.434-3.241-.995l-.54-.076-.154.076c-.103.102-.129.178-.077.23l.077.23c.051.102.463.612 1.235 1.531l4.322 5.127a14.58 14.58 0 0 1 2.856 5.969c.154.714.412 2.908.772 6.581l.077 3.29-.077-.153-.232-.765-1.158-4.362c-.103-.306-.437-.842-1.003-1.607-.926-1.582-1.981-2.704-3.164-3.367-1.132-.663-2.65-.995-4.553-.995a12.99 12.99 0 0 0-2.624-.153l-.617.076-.309.306c-.051.102-.051.179 0 .23l.154.306a4.86 4.86 0 0 0 1.852 1.224c1.492.918 2.521 1.48 3.087 1.684l2.856.765c.875.357 1.338.587 1.389.689 1.183.918 2.238 2.525 3.164 4.821a6.59 6.59 0 0 0 .695 1.3l.386 1.301.077.153.232.077h.077l.232-.077.077-.076-.309-6.964c.031.004.063.002.094-.008s.057-.027.08-.049.039-.049.049-.079.013-.062.008-.093c.154-2.143.18-3.775.077-4.897a25.95 25.95 0 0 0-.772-5.051c-.463-1.428-.978-2.423-1.544-2.985zm13.042 7.576c.103-.102.103-.23 0-.383 0-.051-.154-.23-.463-.536-.566-.459-1.261-.612-2.084-.459-.875.255-1.801.765-2.778 1.531-1.492 1.02-2.521 2.168-3.087 3.444-.412.765-.849 2.219-1.312 4.362a12.83 12.83 0 0 1-.463 1.225 3.9 3.9 0 0 0-.232 1.224c-.006.042-.002.084.011.124s.036.076.066.106.066.052.107.065a.28.28 0 0 0 .125.011l.077-.076-.154.765-.309.689-.077.612c.103.204.206.255.309.153.154 0 .232-.102.232-.306-.051-.051-.026-.179.077-.383l.232-.689c.206-1.173.515-2.04.926-2.601.72-1.122 2.727-3.061 6.02-5.816 1.595-1.429 2.521-2.449 2.778-3.061z"/></g><g class="C"><path d="M13.389 89.09c.004-.156-.049-.308-.15-.428a.39.39 0 0 0-.271-.101c-.104-.001-.206.031-.291.091a1.33 1.33 0 0 0-.393.457c-.628 1.029-1.094 2.147-1.381 3.315-.133.664-.228 1.334-.286 2.008l-.281 3.032-.097 3.046.053 1.393.053 1.393-.082 3.34-.145 3.339c-.023.169.018.34.116.48.074.073.172.116.276.12a.83.83 0 0 0 .32-.057 1.32 1.32 0 0 0 .611-.514c.15-.233.252-.493.3-.764a4.34 4.34 0 0 0 .063-.812l-.005-.822.058-.903a7.88 7.88 0 0 0 .044-.903c-.008-.267-.03-.534-.068-.798l-.111-.802a13.18 13.18 0 0 1-.078-1.672l.058-1.677.291-5.91.058-.918c.03-.305.079-.609.145-.908.055-.224.305-.891.751-1.999.323-.804.47-1.48.441-2.028z"/><use xlink:href="#E"/><path d="M17.896 74.624a3.54 3.54 0 0 0-1.851-1.912c-1.03-.509-1.854-.407-2.471.308-.617.612-1.105 1.529-1.463 2.753l-.567 3.301a35.46 35.46 0 0 0-.591 4.886c-.103 1.989-.053 3.24.15 3.752.103.304.155 1.451.155 3.44l.155.922.155.226.155.077h.232l.228-.533.543-5.05c1.389-5.41 2.084-9.339 2.084-11.786a6.22 6.22 0 0 1 1.851.456l1.003.308c0 .103.155.154.465.154h.233l.078-.231-.155-.533-.388-.538z"/></g><path d="M14.81 75.123v-.115a6.22 6.22 0 0 1 1.851.457l1.003.308c0 .103.155.154.465.154h.233l.078-.231-.155-.533-.388-.538a3.54 3.54 0 0 0-1.851-1.912c-1.03-.509-1.854-.407-2.471.308-.617.612-1.105 1.529-1.463 2.753l-.078 1.071.005.038 1.303-1.494c.103-.304.589-.397 1.459-.279z" class="B"/><path d="M12.52 103.09c-.012.009-.022.02-.028.034s-.01.027-.01.042.004.03.01.043.017.025.028.034l-.077.153c0 .561.334.995 1.003 1.301.412.255.772.229 1.08-.077.978-.969 1.852-2.5 2.624-4.591.309-.612.463-1.123.463-1.531a.93.93 0 0 0-.232-.689c-.103-.102-.283-.127-.54-.076l-.849.383c-.823.459-1.672 1.556-2.547 3.29l-.617 1.072c0 .102-.103.255-.309.459v.153z" class="D"/><path d="M16.144 100.97a19.99 19.99 0 0 0-2.547 2.373l-.849 1.301c-.103.102-.103.153 0 .153v.153l-.077.229-.232 1.378c-.013.15.017.301.085.436s.172.249.301.329c.257.102.592.051 1.003-.153 1.338-.612 2.495-2.143 3.473-4.592l.617-1.989-.077-.306-.463-.077-1.235.765z" class="B"/><path d="M12.826 99.066l-.617 1.531c-.669 1.888-1.029 3.112-1.081 3.673 0 1.122.437 1.811 1.312 2.066h.077l.154.077c.031.004.063.001.094-.009s.057-.026.08-.049.039-.049.049-.079.013-.062.008-.093l.232-.612c.154-.204.283-.587.386-1.148l.617-4.515.077-1.301-.154-.536-.309-.077-.232.153a3.01 3.01 0 0 0-.695.918z" class="C"/><path d="M9.925 91.709c.105-.072.176-.183.199-.308a.4.4 0 0 0-.048-.279c-.046-.092-.113-.172-.194-.235-.171-.13-.381-.2-.596-.197-.219-.008-.437.047-.625.159a1.38 1.38 0 0 0-.465.442 1.79 1.79 0 0 0-.262.591 3.47 3.47 0 0 0-.024 1.288 7.43 7.43 0 0 0 .46 1.682c.113.281.268.543.46.778l-.14-.778c-.053-.355-.068-.714-.044-1.071s.114-.706.271-1.028a2.01 2.01 0 0 1 .674-.807l.334-.236z" class="B"/><path d="M10.01 108.19c.001.061.007.123.019.183l.034.225c.007.039.022.076.044.109s.052.059.086.079c.081.035.189.006.325-.087s.267-.201.388-.317l.349-.326.334-.265c.071-.064.137-.133.199-.206l.484-.548a.13.13 0 0 0 .034.067c.015.023.033.044.053.063a.26.26 0 0 1 .053.187 1.49 1.49 0 0 1-.029.212 3.25 3.25 0 0 0-.019.658c-.004.042.002.085.018.125a.28.28 0 0 0 .07.105c.015.011.033.019.051.023s.037.005.056.001c.039-.002.077-.017.107-.043.058-.052.105-.113.14-.182l.136-.236c.066-.118.126-.24.179-.365a2.15 2.15 0 0 0 .097-.48c.037-.184.044-.372.019-.558a.57.57 0 0 0-.09-.264c-.052-.08-.122-.146-.205-.192a.99.99 0 0 0-.267-.077c-.108-.026-.219-.039-.329-.038a.44.44 0 0 0-.3.115c-.044.047-.079.103-.102.163s-.052.118-.073.178c-.099.229-.25.433-.441.596s-.398.31-.61.447l-.591.394c-.136.086-.208.171-.218.254z" class="C"/><path d="M6.15 101.41a2.42 2.42 0 0 1-.678.225l1.42 2.417 1.861 2.965a13.42 13.42 0 0 0 1.967 2.234c-.172-1.331-.439-2.647-.8-3.94l-1.114-3.315c-.059-.191-.136-.376-.228-.553a1.15 1.15 0 0 0-.392-.432 1.1 1.1 0 0 0-.688-.135 2.24 2.24 0 0 0-.703.207l-.644.327z" class="E"/><path d="M2.744 106.87c.129.038.271-.026.426-.193l1.027-1.206.993-1.244c.808-.983 1.559-1.709 2.253-2.176a5.15 5.15 0 0 0 .683-.5 1 1 0 0 0 .249-.308c.062-.118.099-.247.11-.379l-1.744-.745c-.366.004-.728.077-1.066.216-.653.26-1.278.756-1.875 1.49-.538.662-.94 1.423-1.182 2.239-.253.8-.288 1.652-.102 2.469.045.192.121.305.228.337z" class="B"/><path d="M28.306 72.702c-.049-.151-.16-.421-.334-.812-.157-.366-.35-.715-.577-1.043a.57.57 0 0 0-.179-.186c-.073-.047-.156-.078-.243-.088-.079.001-.156.028-.218.077a.5.5 0 0 0-.155.173c-.067.143-.104.299-.107.456-.044.615-.027 1.233.053 1.845l.131.865.363 1.879c.146.617.361 1.216.64 1.787a2.71 2.71 0 0 0 .664.884 2.64 2.64 0 0 0 1.124.466.66.66 0 0 0 .024.221c.015.037.04.069.073.091a.14.14 0 0 0 .047.027c.017.006.036.008.054.007a.17.17 0 0 0 .09-.041c.025-.022.043-.052.051-.084a.49.49 0 0 0 .019-.221c-.055-.599-.154-1.264-.296-1.994l-.441-1.975a6.7 6.7 0 0 0-.242-.836c-.029-.077-.082-.198-.16-.365l-.16-.37c-.032-.09-.069-.216-.111-.379l-.111-.384z" class="D"/><g class="C"><path d="M29.665 57.145a.34.34 0 0 0-.118.072.35.35 0 0 0-.081.111 1.27 1.27 0 0 0-.102.279l-.732 3.258a22.76 22.76 0 0 0-.402 3.301 22.84 22.84 0 0 0 .126 3.224l.436 3.21.611 3.997.291 1.725a14.11 14.11 0 0 0 .431 1.682c.191.564.522 1.401.993 2.513.368.99.528 1.848.48 2.575a2.78 2.78 0 0 0-.015.303c0 .101.023.199.068.288.021.047.053.088.092.121a.35.35 0 0 0 .136.071c.045.019.095.024.143.013a.24.24 0 0 0 .124-.071.45.45 0 0 0 .073-.37L30.353 62.43l-.262-2.657-.427-2.628zm2.18 25.263a1.6 1.6 0 0 0-.015-.259l-.063-.264a.53.53 0 0 1 .005-.259c.026.019.039.07.039.154a.9.9 0 0 0 .068.264 1.93 1.93 0 0 1 .087.259c.015.112.018.224.01.336a3.73 3.73 0 0 0 .024.634c.009.077.004.155-.015.231l-.058-.024c.025-.205.016-.413-.029-.615l-.039-.197a1.69 1.69 0 0 1-.015-.259zm-9.779-8.215a12.71 12.71 0 0 0 .46 1.831c.41 1.188 1.181 2.5 2.311 3.935l1.483 1.797 1.449 1.811c1.547 2.075 2.709 4.406 3.431 6.885l.378-.283c.044-1.013-.089-2.025-.392-2.993a25.8 25.8 0 0 0-1.1-2.815l-3.959-8.288c-1.648-2.979-3.421-5.44-5.32-7.385.404.83.725 2.039.964 3.627l.296 1.879zm6.204.965a17.58 17.58 0 0 0-.892-1.734c-.746-1.249-1.623-2.202-2.631-2.859a7.93 7.93 0 0 0 1.336 3.427 8.02 8.02 0 0 0 2.744 2.469l-.557-1.302z"/></g><g class="B"><path d="M29.497 64.531l-1.466-1.53c-.412-.663-1.106-1.224-2.084-1.684-.206-.102-1.286-.434-3.241-.995l-.54-.077-.154.077c-.103.102-.129.179-.077.23l.077.23c.052.102.463.612 1.235 1.53l4.322 5.127a14.58 14.58 0 0 1 2.855 5.969c.154.714.412 2.908.772 6.581l.077 3.29-.077-.153-.232-.765-1.158-4.362c-.103-.306-.437-.842-1.003-1.607-.926-1.582-1.981-2.704-3.164-3.367-1.132-.663-2.65-.995-4.553-.995a12.99 12.99 0 0 0-2.624-.153l-.617.076-.309.306c-.052.102-.052.179 0 .23l.154.306c.514.545 1.148.964 1.852 1.225 1.492.918 2.521 1.479 3.087 1.683l2.855.765c.875.357 1.338.587 1.389.689 1.183.918 2.238 2.525 3.164 4.821a6.6 6.6 0 0 0 .695 1.301l.386 1.301.077.153.232.077h.077l.232-.077.077-.076-.309-6.964c.032.004.064.002.094-.008s.058-.027.08-.049.039-.049.049-.079a.21.21 0 0 0 .009-.093c.154-2.143.18-3.775.077-4.897a25.95 25.95 0 0 0-.772-5.051c-.463-1.428-.978-2.423-1.544-2.985zm13.042 7.576c.103-.102.103-.23 0-.383 0-.051-.154-.23-.463-.536-.566-.459-1.261-.612-2.084-.459-.875.255-1.801.765-2.778 1.53-1.492 1.02-2.521 2.168-3.087 3.444-.412.765-.849 2.219-1.312 4.362a12.73 12.73 0 0 1-.463 1.225 3.9 3.9 0 0 0-.231 1.224c-.006.042-.002.084.011.124a.27.27 0 0 0 .066.106c.03.03.066.052.107.065a.28.28 0 0 0 .125.011l.077-.076-.154.765-.309.689-.077.612c.103.204.206.255.309.153.154 0 .231-.102.231-.306-.051-.051-.026-.178.077-.383l.231-.689c.206-1.173.515-2.041.926-2.602.72-1.122 2.727-3.061 6.02-5.816 1.595-1.429 2.521-2.449 2.778-3.061z"/></g><g class="C"><path d="M34.239 71.506c.004-.156-.049-.308-.15-.428a.39.39 0 0 0-.271-.101c-.104-.001-.206.031-.291.091a1.33 1.33 0 0 0-.392.456c-.628 1.029-1.093 2.147-1.381 3.315a18.2 18.2 0 0 0-.286 2.008l-.281 3.032-.097 3.046.053 1.393.053 1.393-.082 3.339-.145 3.339c-.023.169.018.34.116.48.074.073.172.116.276.12.109.002.218-.017.32-.058.252-.104.466-.284.611-.514.15-.233.252-.492.3-.764a4.34 4.34 0 0 0 .063-.812l-.005-.822.058-.903c.032-.3.046-.602.044-.903-.008-.267-.03-.533-.068-.798l-.111-.802a13.17 13.17 0 0 1-.078-1.672l.058-1.677.291-5.91.058-.918a7.58 7.58 0 0 1 .145-.908c.055-.224.305-.89.751-1.999.323-.804.47-1.48.441-2.028z"/><path d="M41.29 61.935l-.693-.687c-.514-.304-1.182-.33-2.006-.077-.462.154-1.26.716-2.394 1.686-1.437 1.428-2.26 4.004-2.466 7.726-.052.461-.181 1.15-.388 2.066-.005.031-.002.063.008.093s.027.057.05.08.05.039.08.049a.2.2 0 0 0 .094.008l.155.154h.233l.15-.308.233-.918c.31-.817.984-2.244 2.021-4.281s2.221-3.377 3.547-4.021 1.787-1.164 1.376-1.571zm-2.544-4.896a3.54 3.54 0 0 0-1.851-1.912c-1.03-.509-1.854-.407-2.471.307-.617.612-1.105 1.529-1.463 2.753l-.567 3.301a35.46 35.46 0 0 0-.591 4.886c-.103 1.989-.053 3.24.15 3.752.103.304.155 1.451.155 3.44l.155.922.155.226.155.077h.233l.228-.533.543-5.05c1.389-5.41 2.084-9.338 2.084-11.786a6.22 6.22 0 0 1 1.851.456l1.003.307c0 .102.155.154.465.154h.233l.078-.231-.155-.533-.388-.538z"/></g><path d="M35.659 57.539v-.115c.637.056 1.262.21 1.851.456l1.003.307c0 .102.155.154.465.154h.233l.078-.231-.155-.533-.388-.538a3.54 3.54 0 0 0-1.851-1.912c-1.03-.509-1.854-.407-2.471.307-.617.612-1.105 1.529-1.463 2.753l-.078 1.071.005.038 1.303-1.494c.103-.304.59-.397 1.459-.279z" class="B"/><path d="M33.37 85.503c-.012.009-.022.02-.028.034s-.01.028-.01.043.003.029.01.043.017.025.028.034l-.077.153c0 .561.334.995 1.003 1.301.412.255.772.23 1.08-.076.978-.969 1.852-2.5 2.624-4.591.309-.612.463-1.122.463-1.531a.93.93 0 0 0-.046-.368c-.04-.118-.103-.228-.186-.321-.103-.102-.283-.127-.54-.076l-.849.383c-.823.459-1.672 1.556-2.547 3.29l-.617 1.072c0 .102-.103.255-.309.459v.153z" class="D"/><path d="M36.994 83.383a19.99 19.99 0 0 0-2.547 2.372l-.849 1.301c-.103.102-.103.153 0 .153v.153l-.077.23-.231 1.377c-.013.15.016.301.084.436s.172.249.301.329c.257.102.592.051 1.003-.153 1.338-.612 2.495-2.143 3.473-4.591l.617-1.99-.077-.306-.463-.076-1.235.765z" class="B"/><path d="M33.675 81.481l-.617 1.531c-.669 1.888-1.029 3.112-1.081 3.673 0 1.122.437 1.811 1.312 2.066h.077l.154.076c.031.004.063.002.094-.008s.058-.027.08-.049.039-.049.05-.079.013-.062.008-.093l.231-.612c.154-.204.283-.587.386-1.148l.617-4.515.077-1.301-.154-.536-.309-.076-.231.153a3.01 3.01 0 0 0-.695.918z" class="C"/><path d="M30.774 74.124c.105-.072.176-.183.199-.308a.4.4 0 0 0-.048-.279c-.046-.092-.113-.172-.194-.235-.171-.13-.381-.2-.596-.197-.22-.008-.436.047-.625.159a1.38 1.38 0 0 0-.465.442c-.122.18-.211.38-.262.591a3.47 3.47 0 0 0-.024 1.288c.087.576.241 1.141.46 1.682a2.98 2.98 0 0 0 .46.778l-.14-.778a4.95 4.95 0 0 1-.044-1.071c.022-.357.114-.706.271-1.028a2.01 2.01 0 0 1 .674-.807l.334-.236z" class="B"/><path d="M30.859 90.605a.95.95 0 0 0 .019.183l.034.226c.006.039.022.076.044.108s.052.059.087.079c.081.035.189.007.325-.086s.267-.201.388-.317l.349-.327.334-.264a2.19 2.19 0 0 0 .199-.207l.484-.548c.005.025.016.049.034.067s.033.044.053.063a.26.26 0 0 1 .053.187 1.48 1.48 0 0 1-.029.211c-.029.218-.035.439-.019.658-.004.042.002.085.017.125s.039.076.07.106a.14.14 0 0 0 .051.023c.018.004.037.004.056.001.039-.002.077-.017.107-.043a.63.63 0 0 0 .141-.183l.136-.235c.066-.119.126-.24.179-.365.05-.156.083-.317.097-.481.038-.183.044-.372.019-.557-.008-.094-.039-.185-.09-.265a.58.58 0 0 0-.205-.192.99.99 0 0 0-.267-.077 1.34 1.34 0 0 0-.33-.038.44.44 0 0 0-.3.115.49.49 0 0 0-.102.163c-.027.058-.052.117-.073.178a1.64 1.64 0 0 1-.441.596c-.194.161-.398.31-.611.447l-.591.394c-.136.086-.208.171-.218.254z" class="C"/><path d="M27 83.825c-.214.108-.442.184-.678.226l1.42 2.417 1.861 2.964c.57.815 1.23 1.564 1.967 2.234a27.99 27.99 0 0 0-.8-3.94l-1.114-3.315c-.059-.191-.136-.375-.228-.552a1.15 1.15 0 0 0-.392-.432c-.208-.119-.45-.166-.688-.135a2.22 2.22 0 0 0-.703.207l-.644.327z" class="E"/><path d="M23.594 89.283c.129.038.271-.026.426-.192l1.027-1.206.993-1.244c.808-.983 1.559-1.709 2.253-2.177a5.08 5.08 0 0 0 .683-.5 1 1 0 0 0 .249-.308c.061-.118.099-.247.11-.379l-1.744-.745c-.366.003-.728.077-1.066.216-.652.26-1.278.756-1.875 1.489a6.47 6.47 0 0 0-1.182 2.239c-.253.8-.288 1.652-.102 2.47.045.192.121.304.228.336z" class="B"/><path d="M41.117 87.774c-.048-.15-.16-.421-.334-.812a5.97 5.97 0 0 0-.577-1.043c-.044-.075-.105-.138-.179-.186s-.156-.078-.243-.088c-.079.001-.156.028-.218.077s-.118.104-.155.173a1.12 1.12 0 0 0-.106.457c-.044.615-.026 1.233.053 1.845l.131.865.363 1.879c.147.617.361 1.217.639 1.787a2.71 2.71 0 0 0 .664.884 2.64 2.64 0 0 0 1.124.466c-.004.075.004.149.024.221.015.037.04.069.073.091a.14.14 0 0 0 .047.027c.017.006.036.008.054.007.033-.004.065-.019.09-.041s.043-.051.051-.084a.49.49 0 0 0 .019-.221 20.17 20.17 0 0 0-.296-1.994l-.441-1.975a6.7 6.7 0 0 0-.242-.836 6 6 0 0 0-.16-.365l-.16-.37a4.47 4.47 0 0 1-.111-.38l-.111-.384z" class="D"/><g class="C"><path d="M42.476 72.217a.35.35 0 0 0-.118.072c-.034.031-.062.069-.081.111a1.26 1.26 0 0 0-.102.279l-.732 3.257a22.75 22.75 0 0 0-.402 3.301 22.75 22.75 0 0 0 .126 3.224l.436 3.21.611 3.997.291 1.725a14.11 14.11 0 0 0 .431 1.682c.191.564.522 1.401.993 2.513.368.99.528 1.848.48 2.575a2.66 2.66 0 0 0-.014.303c-.001.1.023.199.068.288a.35.35 0 0 0 .092.121c.039.033.086.057.136.071.045.019.095.024.143.013a.24.24 0 0 0 .124-.071.45.45 0 0 0 .077-.177c.013-.064.011-.13-.005-.193l-1.865-21.015-.262-2.657-.426-2.628zm2.181 25.263c.002-.087-.003-.174-.014-.26l-.063-.264a.53.53 0 0 1 .005-.26c.026.019.039.07.039.154a.9.9 0 0 0 .068.264c.035.084.064.171.087.26a1.61 1.61 0 0 1 .01.336 3.73 3.73 0 0 0 .024.634.63.63 0 0 1-.014.231l-.058-.024a1.79 1.79 0 0 0-.029-.615l-.039-.197c-.011-.086-.016-.173-.015-.259zm-9.78-8.215a12.73 12.73 0 0 0 .46 1.831c.41 1.188 1.181 2.5 2.311 3.935l1.483 1.797 1.449 1.811c1.547 2.075 2.709 4.406 3.431 6.885l.378-.283a8.76 8.76 0 0 0-.392-2.994 25.91 25.91 0 0 0-1.1-2.815l-3.959-8.288c-1.648-2.979-3.421-5.44-5.32-7.385.404.83.725 2.039.964 3.627l.296 1.879z"/><use xlink:href="#F"/></g><g class="B"><path d="M42.308 79.604l-1.466-1.531c-.412-.663-1.106-1.224-2.084-1.683-.206-.102-1.286-.434-3.241-.995l-.54-.076-.154.076c-.103.102-.129.178-.077.23l.077.23c.051.102.463.612 1.235 1.531l4.322 5.127a14.58 14.58 0 0 1 2.855 5.969c.154.714.412 2.908.772 6.581l.077 3.29-.077-.153-.232-.765-1.158-4.362c-.103-.306-.437-.842-1.003-1.607-.926-1.582-1.981-2.704-3.164-3.367-1.132-.663-2.65-.995-4.553-.995a12.99 12.99 0 0 0-2.624-.153l-.617.076-.309.306c-.051.102-.051.179 0 .23l.154.306a4.86 4.86 0 0 0 1.852 1.224c1.492.918 2.521 1.48 3.087 1.684l2.855.765c.875.357 1.338.587 1.389.689 1.183.918 2.238 2.525 3.164 4.821.182.458.415.894.695 1.301l.386 1.301.077.153.232.076h.077l.232-.076.077-.076-.309-6.964c.032.004.063.002.094-.008s.057-.027.08-.049.039-.049.049-.079a.2.2 0 0 0 .008-.093c.154-2.143.18-3.775.077-4.897a25.95 25.95 0 0 0-.772-5.051c-.463-1.429-.978-2.423-1.544-2.985zm13.042 7.575c.103-.102.103-.23 0-.383 0-.051-.154-.23-.463-.536-.566-.459-1.261-.612-2.084-.459-.875.255-1.801.765-2.778 1.531-1.492 1.02-2.521 2.168-3.087 3.444-.412.765-.849 2.219-1.312 4.362a12.83 12.83 0 0 1-.463 1.225 3.9 3.9 0 0 0-.231 1.224c-.006.042-.002.084.011.124a.27.27 0 0 0 .066.106c.03.03.066.052.107.065a.28.28 0 0 0 .125.011l.077-.076-.154.765-.309.689-.077.612c.103.204.206.255.309.153.154 0 .232-.102.232-.306-.051-.051-.026-.179.077-.383l.231-.689c.206-1.173.514-2.041.926-2.602.72-1.122 2.727-3.061 6.02-5.816 1.595-1.429 2.521-2.449 2.778-3.061z"/></g><g class="C"><path d="M47.05 86.578c.004-.156-.049-.308-.15-.428a.39.39 0 0 0-.271-.101c-.104-.001-.206.031-.291.091a1.33 1.33 0 0 0-.392.457c-.628 1.029-1.094 2.147-1.381 3.315a18.2 18.2 0 0 0-.286 2.008l-.281 3.032-.097 3.046.053 1.393.053 1.393-.082 3.339-.145 3.34c-.023.168.018.34.116.48.074.073.172.116.276.12.109.002.218-.017.32-.058.252-.104.466-.284.611-.514a2.08 2.08 0 0 0 .3-.764 4.34 4.34 0 0 0 .063-.812l-.005-.821.058-.903c.032-.3.046-.602.044-.904-.008-.267-.03-.533-.068-.797l-.111-.803c-.061-.555-.087-1.113-.078-1.672l.058-1.676.291-5.91.058-.918c.03-.305.078-.609.145-.908.055-.224.305-.891.751-1.999.323-.804.47-1.48.441-2.028z"/><path d="M54.101 77.008l-.693-.687c-.514-.304-1.182-.33-2.006-.077-.462.154-1.26.716-2.394 1.686-1.437 1.428-2.26 4.004-2.466 7.726-.052.461-.181 1.15-.388 2.066-.005.031-.002.063.008.093s.027.057.05.08.05.039.08.049a.2.2 0 0 0 .094.008l.155.154h.233l.15-.308.233-.918c.31-.817.984-2.244 2.021-4.281s2.221-3.377 3.547-4.022 1.787-1.165 1.376-1.571zm-2.544-4.896a3.54 3.54 0 0 0-1.851-1.912c-1.03-.509-1.854-.407-2.471.308-.617.612-1.105 1.529-1.463 2.753l-.567 3.301a35.46 35.46 0 0 0-.591 4.886c-.103 1.989-.053 3.24.15 3.752.103.304.155 1.451.155 3.44l.155.922.155.226.155.077h.233l.228-.533.543-5.05c1.389-5.41 2.084-9.339 2.084-11.786a6.22 6.22 0 0 1 1.851.456l1.003.308c0 .103.155.154.465.154h.233l.078-.231-.155-.533-.388-.538z"/></g><path d="M48.471 72.611v-.115a6.22 6.22 0 0 1 1.851.457l1.003.308c0 .103.155.154.465.154h.233l.078-.231-.155-.533-.388-.538a3.54 3.54 0 0 0-1.851-1.912c-1.031-.509-1.854-.407-2.471.308-.617.612-1.105 1.529-1.463 2.753l-.078 1.071.005.038 1.303-1.494c.103-.304.59-.397 1.459-.279z" class="B"/><path d="M46.182 100.58c-.012.008-.022.02-.028.033s-.01.028-.01.043.004.03.01.043a.1.1 0 0 0 .028.034l-.077.153c0 .561.334.994 1.003 1.301.412.255.772.229 1.081-.077.977-.969 1.852-2.5 2.624-4.591.309-.612.463-1.122.463-1.531a.93.93 0 0 0-.046-.368c-.04-.118-.103-.228-.186-.321-.103-.102-.283-.127-.54-.076l-.849.383c-.823.459-1.672 1.556-2.547 3.29l-.617 1.072c0 .102-.103.255-.309.46v.153z" class="D"/><path d="M49.805 98.455c-.917.716-1.769 1.51-2.547 2.372l-.849 1.301c-.103.102-.103.153 0 .153v.153l-.077.23-.231 1.377c-.013.151.016.302.084.437s.172.249.301.329c.257.102.592.051 1.003-.153 1.338-.613 2.495-2.143 3.473-4.592l.617-1.989-.077-.306-.463-.077-1.235.765z" class="B"/><path d="M46.487 96.553l-.617 1.531c-.669 1.888-1.029 3.112-1.08 3.673 0 1.122.437 1.811 1.312 2.066h.077l.154.077c.031.004.063.001.094-.009s.058-.027.08-.049a.2.2 0 0 0 .05-.079c.01-.03.013-.062.008-.093l.232-.612c.154-.204.283-.587.386-1.148l.617-4.515.077-1.301-.154-.536-.309-.077-.231.153c-.289.259-.525.571-.695.918z" class="C"/><path d="M43.586 89.197c.105-.072.176-.183.199-.308a.4.4 0 0 0-.048-.279c-.046-.092-.112-.172-.194-.235-.171-.13-.381-.2-.596-.197-.219-.008-.437.047-.625.159a1.38 1.38 0 0 0-.465.442 1.79 1.79 0 0 0-.262.591 3.47 3.47 0 0 0-.024 1.288c.087.576.241 1.141.46 1.682.113.281.268.543.46.778l-.141-.778c-.053-.355-.068-.714-.044-1.071s.114-.706.271-1.028a2.01 2.01 0 0 1 .673-.807l.334-.236z" class="B"/><path d="M43.671 105.68a.94.94 0 0 0 .019.182l.034.226c.007.039.022.076.044.108s.052.06.087.08c.081.035.189.006.325-.087s.267-.201.388-.317l.349-.327.334-.264c.071-.064.137-.133.199-.207l.484-.547c.005.025.016.048.034.067s.033.044.053.063a.26.26 0 0 1 .053.187c-.005.071-.014.142-.029.211-.029.219-.035.439-.02.659-.004.042.002.085.017.125s.039.076.07.105c.015.011.033.019.051.023s.037.005.056.001c.039-.002.077-.017.106-.043.058-.052.105-.114.141-.183l.136-.235c.066-.119.126-.24.179-.365a2.15 2.15 0 0 0 .097-.481c.038-.183.044-.371.019-.557a.58.58 0 0 0-.296-.456.99.99 0 0 0-.267-.077c-.108-.027-.218-.04-.33-.039s-.219.041-.3.116c-.044.047-.079.102-.102.163s-.052.117-.073.178c-.099.229-.25.433-.441.596a6.17 6.17 0 0 1-.611.446l-.591.394c-.136.087-.208.172-.218.255z" class="C"/><path d="M39.811 98.897c-.214.108-.442.184-.678.226l1.42 2.417 1.861 2.964c.57.815 1.23 1.565 1.967 2.235-.172-1.331-.439-2.648-.8-3.94l-1.114-3.315a3.37 3.37 0 0 0-.228-.553 1.15 1.15 0 0 0-.392-.432c-.208-.119-.45-.166-.688-.135-.244.029-.482.099-.703.207l-.645.327z" class="E"/><path d="M36.405 104.36c.129.039.271-.025.426-.192l1.027-1.206.993-1.244c.808-.983 1.559-1.709 2.253-2.177.241-.147.47-.314.683-.5a1 1 0 0 0 .249-.308.99.99 0 0 0 .109-.379l-1.744-.745c-.366.003-.728.077-1.066.216-.653.259-1.278.756-1.875 1.489-.538.662-.94 1.424-1.182 2.239a4.72 4.72 0 0 0-.102 2.47c.045.192.121.304.228.336z" class="B"/><path d="M88.093 73.707c-.049-.151-.16-.421-.334-.812-.157-.366-.35-.715-.577-1.043-.044-.075-.106-.138-.179-.186s-.156-.078-.243-.088c-.079.001-.156.028-.218.077a.5.5 0 0 0-.155.173c-.067.143-.104.299-.106.456-.044.615-.027 1.233.053 1.845l.131.865.363 1.879c.147.617.361 1.217.639 1.787a2.71 2.71 0 0 0 .664.884 2.64 2.64 0 0 0 1.124.466.66.66 0 0 0 .024.221c.015.037.04.069.073.091.014.012.03.021.047.027s.036.008.054.007c.033-.004.064-.019.09-.041s.043-.051.051-.084a.49.49 0 0 0 .019-.221c-.055-.599-.153-1.264-.296-1.994l-.441-1.975a6.7 6.7 0 0 0-.242-.836c-.029-.077-.082-.199-.16-.365l-.16-.37a4.48 4.48 0 0 1-.111-.379l-.111-.384z" class="D"/><g class="C"><path d="M89.452 58.15a.34.34 0 0 0-.118.072c-.034.032-.062.069-.081.111a1.27 1.27 0 0 0-.102.279l-.732 3.258a22.76 22.76 0 0 0-.402 3.301 22.84 22.84 0 0 0 .126 3.224l.436 3.21.611 3.997.291 1.725a14.11 14.11 0 0 0 .431 1.682c.191.564.522 1.401.993 2.513.368.99.528 1.848.48 2.575a2.78 2.78 0 0 0-.015.303c0 .101.023.199.068.288a.35.35 0 0 0 .092.121c.039.033.086.057.135.071.045.019.095.024.143.013a.24.24 0 0 0 .124-.071.45.45 0 0 0 .073-.37L90.14 63.435l-.262-2.657-.427-2.628zm2.18 25.263c.002-.087-.003-.173-.014-.259l-.063-.264a.53.53 0 0 1 .005-.259c.026.019.039.07.039.154a.9.9 0 0 0 .068.264 1.93 1.93 0 0 1 .087.259c.015.112.018.224.01.336a3.73 3.73 0 0 0 .024.634.63.63 0 0 1-.014.231l-.058-.024c.025-.205.016-.413-.029-.615l-.039-.197a1.69 1.69 0 0 1-.015-.259zm-9.779-8.215a12.71 12.71 0 0 0 .46 1.831c.41 1.188 1.181 2.5 2.311 3.935l1.483 1.797 1.449 1.811c1.547 2.075 2.709 4.406 3.431 6.885l.378-.283a8.77 8.77 0 0 0-.392-2.993 25.8 25.8 0 0 0-1.1-2.815l-3.959-8.288c-1.647-2.979-3.421-5.44-5.32-7.385.404.83.725 2.039.964 3.627l.296 1.879zm6.204.964a17.59 17.59 0 0 0-.892-1.734c-.746-1.249-1.623-2.202-2.631-2.859a7.93 7.93 0 0 0 1.336 3.427 8.02 8.02 0 0 0 2.744 2.469l-.557-1.302z"/></g><g class="B"><path d="M89.284 65.536l-1.466-1.531c-.412-.663-1.106-1.224-2.084-1.684-.206-.102-1.286-.434-3.241-.995l-.54-.077-.154.077c-.103.102-.129.179-.077.23l.077.23c.052.102.463.612 1.235 1.531l4.322 5.127a14.58 14.58 0 0 1 2.856 5.969c.154.714.412 2.908.772 6.581l.077 3.29-.077-.153-.231-.765-1.158-4.362c-.103-.306-.437-.842-1.003-1.607-.926-1.582-1.981-2.704-3.164-3.367-1.132-.663-2.65-.995-4.553-.995a13 13 0 0 0-2.624-.153l-.617.076-.309.306c-.052.102-.052.179 0 .23l.154.306c.514.545 1.148.964 1.852 1.225 1.492.918 2.521 1.479 3.087 1.683l2.856.765c.875.357 1.338.587 1.389.689 1.183.918 2.238 2.525 3.164 4.821a6.6 6.6 0 0 0 .695 1.301l.386 1.301.077.153.232.076h.077l.232-.076.077-.076-.309-6.964c.031.004.064.002.094-.008s.058-.027.08-.049.039-.049.049-.079a.2.2 0 0 0 .008-.093c.154-2.143.18-3.775.077-4.897a25.95 25.95 0 0 0-.772-5.051c-.463-1.428-.978-2.423-1.544-2.985zm13.046 7.576c.103-.102.103-.23 0-.383 0-.051-.154-.23-.463-.536-.566-.459-1.261-.612-2.084-.459-.875.255-1.801.765-2.778 1.531-1.492 1.02-2.521 2.168-3.087 3.444-.412.765-.849 2.219-1.312 4.362a12.83 12.83 0 0 1-.463 1.225 3.9 3.9 0 0 0-.231 1.224c-.006.042-.002.084.011.124a.27.27 0 0 0 .066.106c.03.03.067.052.107.065s.083.017.125.011l.077-.076-.154.765-.309.689-.077.612c.103.204.206.255.309.153.154 0 .231-.102.232-.306-.052-.051-.026-.179.077-.383l.232-.689c.206-1.173.514-2.041.926-2.602.72-1.122 2.727-3.061 6.02-5.816 1.595-1.429 2.521-2.449 2.778-3.061z"/></g><g class="C"><path d="M94.026 72.511c.004-.156-.049-.308-.15-.428a.39.39 0 0 0-.271-.101c-.104-.001-.206.031-.291.091a1.33 1.33 0 0 0-.392.457c-.628 1.029-1.094 2.147-1.381 3.315a18.2 18.2 0 0 0-.286 2.008l-.281 3.032-.097 3.046.053 1.393.053 1.393-.082 3.339-.145 3.339c-.023.169.018.34.116.48.074.073.172.116.276.12.109.002.218-.017.32-.058.252-.104.466-.284.611-.514.15-.233.252-.492.3-.764a4.34 4.34 0 0 0 .063-.812l-.005-.822.058-.903c.032-.3.046-.602.044-.903-.007-.267-.03-.533-.068-.798l-.112-.802a13.19 13.19 0 0 1-.078-1.672l.058-1.677.291-5.91.058-.918c.03-.305.079-.609.145-.908.055-.224.305-.891.751-1.999.323-.804.47-1.48.441-2.028z"/><path d="M101.08 62.94l-.693-.687c-.514-.304-1.183-.33-2.006-.077-.462.154-1.26.716-2.394 1.687-1.437 1.428-2.26 4.004-2.466 7.726-.052.461-.181 1.15-.388 2.066a.21.21 0 0 0 .008.093c.01.03.027.057.05.08s.05.039.08.049a.2.2 0 0 0 .094.008l.155.154h.233l.15-.308.233-.918c.31-.817.984-2.244 2.021-4.281s2.222-3.377 3.547-4.022 1.787-1.164 1.376-1.571zm-2.547-4.896a3.54 3.54 0 0 0-1.851-1.912c-1.031-.509-1.854-.407-2.471.307-.617.612-1.105 1.529-1.463 2.753l-.567 3.301a35.46 35.46 0 0 0-.591 4.886c-.103 1.989-.053 3.24.15 3.752.103.304.155 1.451.155 3.44l.155.922.155.226.155.077h.233l.228-.533.543-5.05c1.389-5.41 2.084-9.339 2.084-11.786a6.22 6.22 0 0 1 1.851.456l1.003.307c0 .102.155.154.465.154H99l.078-.231-.155-.533-.388-.538z"/></g><path d="M95.446 58.544v-.115a6.22 6.22 0 0 1 1.851.456l1.003.307c0 .102.155.154.465.154h.233l.078-.231-.155-.533-.388-.538a3.54 3.54 0 0 0-1.851-1.912c-1.031-.509-1.854-.407-2.471.307-.617.612-1.105 1.529-1.463 2.753l-.078 1.071.005.038 1.303-1.494c.103-.304.59-.397 1.459-.279z" class="B"/><path d="M93.157 86.508c-.012.009-.022.02-.028.034s-.01.028-.01.043.004.029.01.043.016.025.028.034l-.077.153c0 .561.334.995 1.003 1.301.412.255.772.23 1.081-.076.978-.969 1.852-2.5 2.624-4.591.309-.612.463-1.122.463-1.531a.93.93 0 0 0-.046-.368c-.04-.118-.103-.228-.186-.321-.103-.102-.283-.127-.54-.076l-.849.383c-.823.459-1.672 1.556-2.547 3.29l-.617 1.072c0 .102-.103.255-.309.459v.153z" class="D"/><path d="M96.781 84.388a20 20 0 0 0-2.547 2.372l-.849 1.301c-.103.102-.103.153 0 .153v.153l-.077.23-.231 1.377c-.013.15.016.301.085.436s.172.249.301.329c.257.102.592.051 1.003-.153 1.338-.612 2.495-2.143 3.473-4.591l.617-1.99-.077-.306-.463-.076-1.235.765z" class="B"/><path d="M93.462 82.486l-.617 1.531c-.669 1.888-1.029 3.112-1.081 3.673 0 1.122.437 1.811 1.312 2.066h.077l.154.076c.031.004.064.002.094-.008s.058-.027.08-.049.039-.049.049-.079.013-.062.008-.093l.231-.612c.154-.204.283-.587.386-1.148l.617-4.515.077-1.301-.154-.536-.309-.076-.232.153a3.01 3.01 0 0 0-.695.918z" class="C"/><path d="M90.562 75.129c.105-.072.176-.183.199-.308a.4.4 0 0 0-.048-.279c-.046-.092-.112-.172-.194-.236-.171-.13-.381-.2-.596-.197-.219-.008-.436.047-.625.159s-.347.26-.465.442a1.79 1.79 0 0 0-.262.591 3.47 3.47 0 0 0-.024 1.288c.087.576.241 1.141.46 1.682a2.98 2.98 0 0 0 .46.778l-.14-.778c-.053-.355-.068-.714-.044-1.071a2.72 2.72 0 0 1 .271-1.028 2.01 2.01 0 0 1 .674-.807l.334-.236z" class="B"/><path d="M90.646 91.61a.94.94 0 0 0 .019.183l.034.226c.007.039.022.076.044.108s.052.059.087.079c.081.035.189.007.325-.086a3.19 3.19 0 0 0 .388-.317l.349-.327.334-.264a2.19 2.19 0 0 0 .199-.207l.484-.548c.004.025.016.049.034.067a.36.36 0 0 0 .053.063.26.26 0 0 1 .053.187 1.48 1.48 0 0 1-.029.211c-.029.218-.035.439-.019.658-.004.042.002.085.017.125s.039.076.07.106a.14.14 0 0 0 .107.024c.039-.002.077-.017.106-.043a.63.63 0 0 0 .141-.183l.136-.236c.066-.118.126-.24.179-.365.05-.156.083-.317.097-.481.037-.183.044-.372.019-.557-.008-.094-.039-.185-.09-.265a.58.58 0 0 0-.205-.192c-.085-.038-.174-.064-.266-.077a1.33 1.33 0 0 0-.329-.038.44.44 0 0 0-.3.115.49.49 0 0 0-.102.163c-.027.058-.052.117-.073.178a1.64 1.64 0 0 1-.441.596c-.194.161-.398.31-.611.447l-.591.394c-.136.086-.208.171-.218.254z" class="C"/><path d="M86.787 84.83c-.214.108-.442.184-.678.226l1.42 2.417 1.861 2.965c.57.815 1.23 1.564 1.967 2.234a27.99 27.99 0 0 0-.8-3.94l-1.115-3.315c-.059-.191-.136-.375-.228-.552a1.15 1.15 0 0 0-.392-.433c-.208-.119-.45-.166-.688-.135-.244.029-.482.099-.703.207l-.644.327z" class="E"/><path d="M83.381 90.288c.129.038.271-.026.426-.192l1.027-1.206.993-1.244c.808-.983 1.559-1.709 2.253-2.177a5.08 5.08 0 0 0 .683-.5 1 1 0 0 0 .249-.308.99.99 0 0 0 .109-.379l-1.744-.745c-.366.003-.728.077-1.066.216-.653.26-1.278.756-1.875 1.489-.538.662-.94 1.423-1.182 2.239-.253.8-.288 1.652-.102 2.47.045.192.121.304.228.336z" class="B"/><path d="M115.72 73.204c-.049-.15-.16-.421-.335-.812a6.02 6.02 0 0 0-.576-1.043c-.045-.075-.106-.138-.179-.186a.57.57 0 0 0-.243-.088c-.079.001-.156.028-.218.077s-.118.104-.155.173a1.13 1.13 0 0 0-.107.457 9.18 9.18 0 0 0 .054 1.845l.131.865.363 1.879a8.61 8.61 0 0 0 .639 1.787c.158.337.384.638.664.884.333.24.718.4 1.124.466a.66.66 0 0 0 .025.221c.015.037.04.069.072.091.014.012.03.021.048.027s.036.008.054.007c.033-.004.065-.019.09-.041s.042-.052.051-.084c.023-.071.03-.147.019-.221-.055-.599-.153-1.264-.296-1.994l-.44-1.975a6.75 6.75 0 0 0-.243-.836c-.029-.077-.082-.199-.16-.365l-.16-.37c-.032-.09-.069-.216-.111-.38l-.111-.384z" class="D"/><g class="C"><path d="M117.08 57.648a.35.35 0 0 0-.118.072c-.034.031-.062.069-.081.111a1.26 1.26 0 0 0-.102.279l-.732 3.258a22.9 22.9 0 0 0-.402 3.301 22.84 22.84 0 0 0 .126 3.224l.436 3.21.611 3.997.291 1.725a14.13 14.13 0 0 0 .431 1.682c.19.564.522 1.401.993 2.513.368.99.528 1.848.48 2.575-.011.101-.015.202-.015.303a.64.64 0 0 0 .068.288.36.36 0 0 0 .228.192c.045.019.095.024.143.013s.091-.035.123-.071c.039-.053.065-.113.078-.177a.45.45 0 0 0-.005-.193l-1.865-21.015-.262-2.657-.426-2.628zm2.18 25.263a1.73 1.73 0 0 0-.014-.26l-.063-.264a.53.53 0 0 1 .004-.26c.026.019.039.07.039.154.009.091.032.18.068.264s.064.171.087.26a1.64 1.64 0 0 1 .01.336 3.63 3.63 0 0 0 .024.634.62.62 0 0 1-.014.231l-.059-.024a1.79 1.79 0 0 0-.029-.615l-.038-.197a1.61 1.61 0 0 1-.015-.259zm-9.78-8.215a12.69 12.69 0 0 0 .461 1.831c.41 1.188 1.18 2.5 2.311 3.935l1.483 1.797 1.449 1.811c1.547 2.075 2.708 4.406 3.43 6.885l.378-.283a8.75 8.75 0 0 0-.392-2.993c-.312-.959-.679-1.899-1.1-2.815l-3.959-8.288c-1.648-2.979-3.421-5.44-5.32-7.385.403.83.725 2.039.964 3.627l.295 1.879zm6.21.964a17.68 17.68 0 0 0-.892-1.734c-.746-1.249-1.623-2.202-2.631-2.859.17 1.23.628 2.403 1.336 3.427a8.01 8.01 0 0 0 2.744 2.469l-.557-1.302z"/></g><g class="B"><path d="M116.92 65.034l-1.467-1.531c-.411-.663-1.106-1.224-2.083-1.684-.206-.102-1.287-.434-3.242-.995l-.54-.077-.154.077c-.103.102-.129.178-.078.23l.078.23c.051.102.463.612 1.235 1.531l4.321 5.127c1.399 1.748 2.375 3.789 2.856 5.969.154.714.412 2.908.772 6.581l.077 3.291-.077-.153-.232-.765-1.157-4.362c-.103-.306-.438-.842-1.004-1.607-.926-1.582-1.981-2.704-3.164-3.367-1.132-.663-2.65-.995-4.553-.995a12.95 12.95 0 0 0-2.624-.153l-.618.076-.308.306c-.052.102-.052.178 0 .23l.154.306c.513.545 1.148.964 1.852 1.224 1.492.918 2.521 1.48 3.087 1.683l2.856.765c.874.357 1.337.587 1.389.689 1.183.918 2.238 2.525 3.164 4.821a6.58 6.58 0 0 0 .695 1.301l.386 1.301.077.153.231.076h.077l.232-.076.077-.076-.309-6.964c.032.004.064.002.094-.008s.058-.027.08-.049.04-.049.05-.079a.21.21 0 0 0 .008-.093c.154-2.143.18-3.775.077-4.897a25.92 25.92 0 0 0-.772-5.051c-.463-1.429-.977-2.423-1.543-2.985zm13.04 7.576c.103-.102.103-.23 0-.383 0-.051-.154-.23-.463-.536-.566-.459-1.261-.612-2.084-.459-.875.255-1.801.765-2.778 1.531-1.492 1.02-2.521 2.168-3.087 3.444-.412.765-.849 2.219-1.312 4.362a12.71 12.71 0 0 1-.463 1.224 3.88 3.88 0 0 0-.232 1.225c-.006.042-.002.084.011.124s.036.076.066.106.067.052.107.065.083.017.125.011l.077-.077-.154.765-.309.689-.077.612c.103.204.206.255.308.153.155 0 .232-.102.232-.306-.051-.051-.026-.179.077-.383l.232-.689c.206-1.173.514-2.041.926-2.602.72-1.122 2.727-3.061 6.02-5.816 1.594-1.429 2.521-2.449 2.778-3.061z"/></g><g class="C"><path d="M121.66 72.008c.004-.156-.049-.308-.15-.428a.39.39 0 0 0-.272-.101c-.104-.001-.206.031-.29.091-.165.12-.299.277-.393.456a11.77 11.77 0 0 0-1.381 3.315 18.37 18.37 0 0 0-.286 2.008l-.281 3.032-.097 3.046.054 1.393.053 1.393-.082 3.339-.146 3.339a.68.68 0 0 0 .116.481.42.42 0 0 0 .277.12.82.82 0 0 0 .319-.058c.253-.104.466-.284.611-.514s.252-.492.3-.764a4.25 4.25 0 0 0 .063-.812l-.004-.822.058-.903c.032-.3.046-.602.043-.903a7.1 7.1 0 0 0-.067-.797l-.112-.802c-.061-.555-.087-1.114-.077-1.672l.058-1.677.29-5.91.059-.918a7.53 7.53 0 0 1 .145-.908c.055-.224.305-.891.751-1.999.323-.804.47-1.48.441-2.028z"/><path d="M128.71 62.438l-.693-.687c-.514-.304-1.183-.33-2.006-.077-.462.154-1.26.716-2.394 1.686-1.438 1.429-2.26 4.004-2.467 7.726-.051.461-.18 1.15-.387 2.066-.005.031-.002.063.008.093s.027.057.05.08a.21.21 0 0 0 .08.049c.031.01.063.013.094.008l.155.154h.233l.15-.308.233-.918c.31-.817.984-2.244 2.02-4.281s2.222-3.377 3.547-4.022 1.788-1.164 1.377-1.571zm-2.55-4.896a3.54 3.54 0 0 0-1.851-1.912c-1.031-.509-1.854-.407-2.471.307-.617.612-1.105 1.529-1.464 2.753l-.567 3.301c-.31 1.613-.507 3.246-.591 4.886-.103 1.989-.053 3.24.15 3.752.104.304.155 1.451.155 3.44l.156.922.155.226.155.077h.232l.228-.533.543-5.05c1.389-5.41 2.083-9.339 2.083-11.786a6.22 6.22 0 0 1 1.851.456l1.003.307c0 .102.155.154.465.154h.233l.078-.231-.156-.533-.387-.538z"/></g><path d="M123.08 58.041v-.115a6.22 6.22 0 0 1 1.851.456l1.003.307c0 .102.155.154.465.154h.233l.078-.231-.156-.533-.387-.538c-.343-.852-1.007-1.538-1.851-1.912-1.031-.509-1.854-.407-2.471.307-.617.612-1.105 1.529-1.464 2.753l-.077 1.072.005.038 1.303-1.494c.103-.304.59-.397 1.459-.279z" class="B"/><path d="M120.79 86.006c-.012.009-.022.02-.028.034s-.01.028-.01.043.003.029.01.043.016.025.028.034l-.077.153c0 .561.334.995 1.003 1.301.412.255.772.23 1.081-.076.977-.969 1.852-2.5 2.624-4.591.308-.612.463-1.122.463-1.531.009-.124-.006-.249-.046-.368s-.103-.227-.186-.321c-.103-.102-.283-.128-.54-.077l-.849.383c-.823.459-1.672 1.556-2.547 3.29l-.617 1.071c0 .102-.103.255-.309.459v.153z" class="D"/><path d="M124.41 83.885a19.99 19.99 0 0 0-2.546 2.372l-.849 1.301c-.103.102-.103.153 0 .153v.153l-.077.23-.232 1.377c-.013.15.016.301.085.436s.172.249.301.329c.257.102.592.051 1.003-.153 1.338-.612 2.495-2.143 3.473-4.591l.617-1.99-.077-.306-.463-.076-1.235.765z" class="B"/><path d="M121.09 81.984l-.617 1.53c-.669 1.888-1.029 3.112-1.081 3.673 0 1.122.438 1.811 1.312 2.066h.078l.154.077a.21.21 0 0 0 .094-.008c.03-.01.057-.027.08-.049s.039-.049.049-.079.013-.062.009-.093l.231-.612c.154-.204.283-.587.386-1.148l.617-4.515.078-1.301-.155-.536-.309-.076-.231.153c-.289.259-.525.571-.695.918z" class="C"/><path d="M118.19 74.627c.105-.072.177-.183.199-.308.018-.096.001-.195-.048-.279a.71.71 0 0 0-.194-.235c-.171-.13-.381-.2-.596-.197a1.14 1.14 0 0 0-.625.159 1.37 1.37 0 0 0-.465.442 1.77 1.77 0 0 0-.262.591c-.088.424-.097.861-.024 1.288.086.576.241 1.141.46 1.682.113.281.268.544.46.778l-.14-.778c-.054-.355-.068-.714-.044-1.071a2.71 2.71 0 0 1 .272-1.028c.148-.323.38-.602.673-.807l.334-.236z" class="B"/><path d="M118.28 91.107c.001.061.007.123.02.183l.034.226c.006.039.021.076.044.108s.052.059.086.079c.081.035.189.006.325-.087s.267-.201.388-.317l.349-.327.334-.264c.071-.064.137-.133.199-.207l.484-.548c.005.025.016.049.034.067a.35.35 0 0 0 .053.062.26.26 0 0 1 .054.187 1.67 1.67 0 0 1-.029.211 3.22 3.22 0 0 0-.02.658c-.003.043.003.085.018.125s.039.076.069.106a.15.15 0 0 0 .051.023c.019.004.037.005.056.001a.18.18 0 0 0 .107-.043.64.64 0 0 0 .14-.183l.136-.235c.066-.119.126-.24.179-.365a2.13 2.13 0 0 0 .097-.481c.038-.183.044-.372.019-.557a.56.56 0 0 0-.09-.265c-.052-.08-.122-.145-.205-.192a.99.99 0 0 0-.267-.077c-.107-.026-.218-.039-.329-.038s-.219.04-.301.115c-.044.047-.079.103-.101.163a1.65 1.65 0 0 0-.073.178c-.099.229-.25.433-.441.596a6.29 6.29 0 0 1-.61.447l-.592.394c-.135.086-.208.171-.218.254z" class="C"/><path d="M114.42 84.328a2.45 2.45 0 0 1-.679.226l1.42 2.417 1.861 2.965c.57.815 1.23 1.564 1.967 2.234-.172-1.331-.439-2.647-.8-3.94l-1.114-3.315c-.059-.19-.136-.375-.228-.552a1.15 1.15 0 0 0-.392-.432c-.208-.119-.45-.166-.688-.135-.245.029-.482.099-.703.207l-.644.327z" class="E"/><path d="M111.01 89.786c.13.038.272-.026.427-.192l1.027-1.206.993-1.244c.808-.983 1.559-1.709 2.254-2.177.241-.147.47-.314.683-.5.103-.085.187-.19.249-.308a.99.99 0 0 0 .109-.379l-1.744-.745c-.366.003-.728.077-1.066.216-.653.259-1.278.756-1.875 1.489a6.47 6.47 0 0 0-1.183 2.239c-.252.8-.287 1.652-.101 2.469.045.192.121.304.227.336z" class="B"/><path d="M57.696 72.199c-.048-.15-.16-.421-.334-.812a5.97 5.97 0 0 0-.577-1.043.57.57 0 0 0-.179-.186c-.073-.047-.156-.078-.243-.088-.079.001-.156.028-.218.077s-.118.104-.155.173a1.12 1.12 0 0 0-.106.457c-.044.615-.026 1.233.053 1.845l.131.865.363 1.879a8.61 8.61 0 0 0 .639 1.787 2.71 2.71 0 0 0 .664.884 2.64 2.64 0 0 0 1.124.466c-.004.075.004.149.024.221.015.037.04.069.073.091a.14.14 0 0 0 .047.027c.017.006.036.008.054.007.033-.004.065-.019.09-.041s.043-.051.051-.084a.49.49 0 0 0 .019-.221 20.17 20.17 0 0 0-.296-1.994l-.441-1.975a6.7 6.7 0 0 0-.242-.836 6 6 0 0 0-.16-.365l-.16-.37a4.47 4.47 0 0 1-.111-.38l-.111-.384z" class="D"/><g class="C"><path d="M59.055 56.643a.35.35 0 0 0-.118.072c-.034.031-.062.069-.081.111a1.26 1.26 0 0 0-.102.279l-.732 3.258a22.75 22.75 0 0 0-.402 3.301 22.75 22.75 0 0 0 .126 3.224l.436 3.21.611 3.997.291 1.725a14.11 14.11 0 0 0 .431 1.682c.191.564.522 1.401.993 2.513.368.99.528 1.848.48 2.575a2.66 2.66 0 0 0-.014.303c-.001.1.023.199.068.288a.35.35 0 0 0 .092.121c.039.033.086.057.136.071.045.019.095.024.143.013a.24.24 0 0 0 .124-.071.45.45 0 0 0 .077-.177c.013-.064.011-.13-.005-.193L59.744 61.93l-.262-2.657-.426-2.628zm2.181 25.263c.002-.087-.003-.174-.014-.26l-.063-.264a.53.53 0 0 1 .005-.26c.026.019.039.07.039.154a.9.9 0 0 0 .068.264c.035.084.064.171.087.26a1.61 1.61 0 0 1 .01.336 3.73 3.73 0 0 0 .024.634.63.63 0 0 1-.014.231l-.058-.024a1.79 1.79 0 0 0-.029-.615l-.039-.197a1.72 1.72 0 0 1-.015-.259zm-9.78-8.215a12.73 12.73 0 0 0 .46 1.831c.41 1.188 1.181 2.5 2.311 3.935l1.483 1.797 1.449 1.811c1.547 2.075 2.709 4.406 3.431 6.885l.378-.284c.044-1.013-.089-2.025-.392-2.993a25.8 25.8 0 0 0-1.1-2.815l-3.959-8.288c-1.648-2.979-3.421-5.44-5.32-7.385.404.83.725 2.039.964 3.627l.296 1.879zm6.204.964a17.4 17.4 0 0 0-.892-1.734c-.746-1.249-1.623-2.202-2.631-2.859a7.93 7.93 0 0 0 1.336 3.427 8.02 8.02 0 0 0 2.744 2.469l-.557-1.302z"/></g><g class="B"><path d="M58.887 64.029l-1.466-1.531c-.412-.663-1.106-1.224-2.084-1.684-.206-.102-1.286-.434-3.241-.995l-.54-.077-.154.077c-.103.102-.129.178-.077.23l.077.23c.051.102.463.612 1.235 1.531l4.322 5.127a14.58 14.58 0 0 1 2.855 5.969c.154.714.412 2.908.772 6.581l.077 3.29-.077-.153-.232-.765-1.158-4.362c-.103-.306-.437-.842-1.003-1.607-.926-1.582-1.981-2.704-3.164-3.367-1.132-.663-2.65-.995-4.553-.995-.867-.14-1.746-.191-2.624-.153l-.617.076-.309.306c-.051.102-.051.179 0 .23l.154.306a4.86 4.86 0 0 0 1.852 1.224c1.492.918 2.521 1.48 3.087 1.684l2.855.765c.875.357 1.338.587 1.389.689 1.183.918 2.238 2.525 3.164 4.821.182.458.415.894.695 1.301l.386 1.301.077.153.232.076h.077l.232-.076.077-.076-.309-6.964c.032.004.063.002.094-.008s.057-.027.08-.049.039-.049.049-.079a.2.2 0 0 0 .008-.093c.154-2.143.18-3.775.077-4.897a25.92 25.92 0 0 0-.772-5.051c-.463-1.429-.978-2.423-1.544-2.985zm13.043 7.576c.103-.102.103-.23 0-.383 0-.051-.154-.23-.463-.536-.566-.459-1.26-.612-2.084-.459-.875.255-1.801.765-2.778 1.531-1.492 1.02-2.521 2.168-3.087 3.444-.412.765-.849 2.219-1.312 4.362a12.71 12.71 0 0 1-.463 1.224 3.9 3.9 0 0 0-.231 1.225c-.006.042-.002.084.011.124a.27.27 0 0 0 .066.106c.03.03.066.052.107.065a.28.28 0 0 0 .125.011l.077-.076-.154.765-.309.689-.077.612c.103.204.206.255.309.153.154 0 .232-.102.232-.306-.051-.051-.026-.179.077-.383l.231-.689c.206-1.173.514-2.041.926-2.602.72-1.122 2.727-3.061 6.02-5.816 1.595-1.429 2.521-2.449 2.778-3.061z"/></g><g class="C"><path d="M63.63 71.003c.004-.156-.049-.308-.15-.428a.39.39 0 0 0-.271-.101c-.104-.001-.206.031-.291.091a1.33 1.33 0 0 0-.392.456c-.628 1.029-1.094 2.147-1.381 3.315a18.2 18.2 0 0 0-.286 2.008l-.281 3.032-.097 3.046.053 1.393.053 1.393-.082 3.339-.145 3.339c-.023.169.018.34.116.481.074.073.172.116.276.12.109.002.218-.017.32-.058.252-.105.466-.284.611-.514.15-.233.252-.492.3-.764a4.34 4.34 0 0 0 .063-.812l-.005-.822.058-.903c.032-.3.046-.602.044-.903a7.05 7.05 0 0 0-.068-.797l-.111-.802a13.19 13.19 0 0 1-.078-1.672l.058-1.677.291-5.91.058-.918c.03-.305.078-.609.145-.908.055-.224.305-.891.751-1.999.323-.804.47-1.48.441-2.028z"/><path d="M70.68 61.433l-.693-.687c-.514-.304-1.182-.33-2.006-.077-.462.154-1.26.716-2.394 1.686-1.437 1.429-2.26 4.004-2.466 7.726-.052.461-.181 1.15-.388 2.066-.005.031-.002.063.008.093s.027.057.05.08.05.039.08.049a.2.2 0 0 0 .094.008l.155.154h.233l.15-.308.233-.918c.31-.817.984-2.244 2.021-4.281s2.222-3.377 3.547-4.022 1.787-1.164 1.376-1.571zm-2.544-4.896a3.54 3.54 0 0 0-1.851-1.912c-1.03-.509-1.854-.407-2.471.307-.617.612-1.105 1.529-1.463 2.753l-.567 3.301a35.46 35.46 0 0 0-.591 4.886c-.103 1.989-.053 3.24.15 3.752.103.304.155 1.451.155 3.44l.155.922.155.226.155.077h.233l.228-.533.543-5.05c1.389-5.41 2.084-9.339 2.084-11.786a6.22 6.22 0 0 1 1.851.456l1.003.307c0 .102.155.154.465.154h.233l.078-.231-.155-.533-.388-.538z"/></g><path d="M65.05 57.036v-.115a6.22 6.22 0 0 1 1.851.456l1.003.307c0 .102.155.154.465.154h.233l.078-.231-.155-.533-.388-.538a3.54 3.54 0 0 0-1.851-1.912c-1.031-.509-1.854-.407-2.471.307-.617.612-1.105 1.529-1.463 2.753l-.078 1.072.005.038 1.303-1.494c.103-.304.59-.397 1.459-.279z" class="B"/><path d="M62.761 85.001c-.012.009-.022.02-.028.034s-.01.028-.01.043.004.029.01.043.016.025.028.034l-.077.153c0 .561.334.995 1.003 1.301.412.255.772.23 1.08-.077.978-.969 1.852-2.5 2.624-4.591.309-.612.463-1.122.463-1.531a.93.93 0 0 0-.046-.368c-.04-.118-.103-.228-.186-.321-.103-.102-.283-.128-.54-.076l-.849.383c-.823.459-1.672 1.556-2.547 3.29l-.617 1.071c0 .102-.103.255-.309.459v.153z" class="D"/><path d="M66.384 82.88c-.917.716-1.769 1.51-2.547 2.372l-.849 1.301c-.103.102-.103.153 0 .153v.153l-.077.23-.231 1.377c-.013.15.016.301.084.436s.172.249.301.329c.257.102.592.051 1.003-.153 1.338-.612 2.495-2.143 3.473-4.591l.617-1.99-.077-.306-.463-.077-1.235.765z" class="B"/><path d="M63.066 80.979l-.617 1.53c-.669 1.888-1.029 3.112-1.08 3.673 0 1.122.437 1.811 1.312 2.066h.077l.154.077c.031.004.063.002.094-.008s.057-.027.08-.049.039-.049.05-.079.013-.062.008-.093l.232-.612c.154-.204.283-.587.386-1.148l.617-4.515.077-1.301-.154-.536-.309-.077-.231.153c-.289.259-.525.571-.695.918z" class="C"/><path d="M60.165 73.622c.105-.072.176-.183.199-.308a.4.4 0 0 0-.048-.279c-.046-.092-.112-.172-.194-.235-.171-.13-.381-.2-.596-.197-.219-.008-.437.047-.625.159a1.38 1.38 0 0 0-.465.442 1.79 1.79 0 0 0-.262.591 3.47 3.47 0 0 0-.024 1.288c.087.576.241 1.141.46 1.682.113.281.268.543.46.778l-.141-.778c-.053-.355-.068-.714-.044-1.072s.114-.706.271-1.028a2.01 2.01 0 0 1 .673-.807l.334-.236z" class="B"/><path d="M60.25 90.102a.94.94 0 0 0 .019.183l.034.226c.007.039.022.076.044.108s.052.059.087.079c.081.035.189.006.325-.087s.267-.201.388-.317l.349-.327.334-.264a2.2 2.2 0 0 0 .199-.207l.484-.548c.005.025.016.049.034.067a.36.36 0 0 0 .053.063.26.26 0 0 1 .053.187 1.49 1.49 0 0 1-.029.211c-.029.218-.035.439-.02.658-.004.042.002.085.017.125s.039.076.07.106c.015.011.033.019.051.023a.14.14 0 0 0 .056.001c.039-.002.077-.017.106-.043a.63.63 0 0 0 .141-.183l.136-.235c.066-.119.126-.24.179-.365.05-.156.083-.317.097-.481.038-.183.044-.372.019-.557-.008-.094-.039-.185-.09-.265a.58.58 0 0 0-.205-.192c-.085-.038-.174-.064-.267-.077-.108-.026-.218-.039-.33-.038a.44.44 0 0 0-.3.115c-.044.047-.079.103-.102.163a1.78 1.78 0 0 0-.073.178 1.64 1.64 0 0 1-.441.596c-.194.161-.398.31-.611.447l-.591.394c-.136.086-.208.171-.218.254z" class="C"/><path d="M56.39 83.323c-.214.108-.442.184-.678.226l1.42 2.417 1.861 2.965c.57.815 1.23 1.564 1.967 2.234a27.99 27.99 0 0 0-.8-3.94l-1.114-3.315c-.059-.19-.136-.375-.228-.552a1.15 1.15 0 0 0-.392-.432c-.208-.119-.45-.166-.688-.135-.244.029-.482.099-.703.207l-.645.327z" class="E"/><path d="M52.984 88.781c.129.038.271-.026.426-.192l1.027-1.206.993-1.244c.808-.983 1.559-1.709 2.253-2.177.241-.147.47-.314.683-.5a1 1 0 0 0 .249-.308.99.99 0 0 0 .109-.379l-1.744-.745c-.366.003-.728.077-1.066.216-.653.259-1.278.756-1.875 1.489a6.47 6.47 0 0 0-1.182 2.239c-.253.8-.288 1.652-.102 2.47.045.192.121.304.228.336z" class="B"/><path d="M139.38 74.193c.108.621.262 1.232.46 1.831.411 1.188 1.181 2.5 2.312 3.935l1.482 1.797 1.449 1.811c1.547 2.075 2.709 4.406 3.431 6.885l.378-.283c.043-1.013-.09-2.025-.393-2.993a25.67 25.67 0 0 0-1.1-2.815l-3.958-8.288c-1.648-2.979-3.421-5.44-5.321-7.385.404.83.725 2.039.964 3.627l.296 1.879z" class="C"/><g class="B"><path d="M146.81 64.531l-1.466-1.53c-.412-.663-1.106-1.224-2.084-1.684-.206-.102-1.286-.434-3.241-.995l-.54-.077-.155.077c-.103.102-.128.179-.077.23l.077.23c.052.102.463.612 1.235 1.53l4.322 5.127c1.398 1.748 2.375 3.789 2.855 5.969.155.714.412 2.908.772 6.581l.077 3.29-.077-.153-.231-.765-1.158-4.362c-.103-.306-.437-.842-1.003-1.607-.926-1.582-1.981-2.704-3.164-3.367-1.132-.663-2.65-.995-4.554-.995a12.99 12.99 0 0 0-2.624-.153l-.617.076-.309.306c-.051.102-.051.179 0 .23l.155.306a4.86 4.86 0 0 0 1.852 1.225c1.492.918 2.521 1.479 3.087 1.683l2.855.765c.875.357 1.338.587 1.389.689 1.184.918 2.239 2.525 3.165 4.821.182.458.415.894.694 1.301l.386 1.301.077.153.232.077h.077l.232-.077.077-.076-.309-6.964c.031.004.064.002.094-.008s.057-.027.08-.049.039-.049.049-.079a.21.21 0 0 0 .009-.093c.154-2.143.18-3.775.077-4.897-.091-1.704-.349-3.396-.772-5.051-.463-1.428-.978-2.423-1.544-2.985zm-5.9 24.752c.129.038.271-.026.426-.192l1.028-1.206.993-1.244c.808-.983 1.559-1.709 2.253-2.177a5.02 5.02 0 0 0 .683-.5.99.99 0 0 0 .359-.687l-1.744-.745c-.366.003-.728.077-1.066.216-.653.26-1.278.756-1.876 1.489a6.47 6.47 0 0 0-1.182 2.239 4.72 4.72 0 0 0-.102 2.47c.045.192.121.304.228.336z"/></g><path d="M70.508 88.025c-.049-.15-.16-.421-.334-.812a5.97 5.97 0 0 0-.577-1.043.57.57 0 0 0-.422-.274c-.079.001-.156.028-.218.077s-.118.104-.155.173a1.12 1.12 0 0 0-.106.457 9.15 9.15 0 0 0 .053 1.845l.131.865.364 1.879c.146.617.361 1.216.639 1.787.158.337.384.638.664.884a2.64 2.64 0 0 0 1.124.466c-.004.075.004.149.024.221.015.037.04.069.073.091a.14.14 0 0 0 .102.034c.033-.004.064-.019.09-.041s.043-.052.051-.084a.49.49 0 0 0 .019-.221 20.14 20.14 0 0 0-.296-1.994l-.441-1.975a6.68 6.68 0 0 0-.242-.836c-.029-.077-.082-.199-.16-.365l-.16-.37c-.032-.09-.07-.216-.112-.38l-.111-.384z" class="D"/><g class="C"><path d="M71.867 72.468a.34.34 0 0 0-.118.072.35.35 0 0 0-.081.111 1.26 1.26 0 0 0-.102.279l-.732 3.257a22.75 22.75 0 0 0-.402 3.301c-.034 1.076.008 2.153.126 3.224l.436 3.21.611 3.997.291 1.725c.109.569.253 1.13.431 1.682.191.564.522 1.401.993 2.513.368.99.528 1.848.48 2.575-.01.101-.015.202-.014.303a.65.65 0 0 0 .068.288.35.35 0 0 0 .092.121c.039.033.086.057.135.071.045.019.095.024.142.013s.091-.035.124-.071a.45.45 0 0 0 .073-.37l-1.865-21.015-.261-2.657-.427-2.628zm2.18 25.263c.002-.087-.003-.174-.014-.26l-.063-.264a.53.53 0 0 1 .005-.26c.026.019.039.07.039.154a.9.9 0 0 0 .068.264 1.95 1.95 0 0 1 .087.26 1.61 1.61 0 0 1 .01.336 3.73 3.73 0 0 0 .024.634c.009.077.004.155-.015.231l-.058-.024c.025-.205.016-.413-.029-.615l-.039-.197a1.72 1.72 0 0 1-.015-.259zm-9.779-8.215c.108.621.262 1.233.46 1.831.41 1.188 1.181 2.5 2.311 3.935l1.483 1.797 1.449 1.811c1.547 2.075 2.709 4.406 3.431 6.885l.378-.283a8.76 8.76 0 0 0-.392-2.994 25.91 25.91 0 0 0-1.1-2.815l-3.959-8.288c-1.647-2.979-3.421-5.44-5.32-7.385.404.83.725 2.039.964 3.627l.296 1.879zm6.204.965a17.57 17.57 0 0 0-.892-1.734c-.746-1.249-1.623-2.202-2.631-2.859a7.93 7.93 0 0 0 1.336 3.427 8.02 8.02 0 0 0 2.744 2.469l-.557-1.302z"/></g><g class="B"><path d="M71.699 79.855l-1.466-1.531c-.412-.663-1.106-1.224-2.084-1.683-.206-.102-1.286-.434-3.241-.995l-.54-.077-.154.077c-.103.102-.129.178-.077.23l.077.23c.051.102.463.612 1.235 1.531l4.322 5.127a14.58 14.58 0 0 1 2.856 5.969c.154.714.412 2.908.772 6.581l.077 3.291-.077-.153-.231-.765-1.158-4.362c-.103-.306-.437-.842-1.003-1.607-.926-1.582-1.981-2.704-3.164-3.367-1.132-.663-2.65-.995-4.553-.995-.867-.14-1.746-.191-2.624-.153l-.617.076-.309.306c-.051.102-.051.178 0 .23l.154.306a4.86 4.86 0 0 0 1.852 1.224c1.492.918 2.521 1.48 3.087 1.683l2.856.765c.875.357 1.338.587 1.389.689 1.183.918 2.238 2.525 3.164 4.821.182.458.415.894.695 1.301l.386 1.301.077.153.232.077h.077l.232-.077.077-.076-.309-6.964c.031.004.064.002.094-.008s.058-.027.08-.049.039-.049.049-.079.013-.062.008-.093c.154-2.143.18-3.775.077-4.897-.091-1.704-.349-3.396-.772-5.051-.463-1.429-.978-2.423-1.544-2.985zm13.042 7.575c.103-.102.103-.23 0-.383 0-.051-.154-.23-.463-.536-.566-.459-1.26-.612-2.084-.459-.875.255-1.801.765-2.778 1.531-1.492 1.02-2.521 2.168-3.087 3.444-.412.765-.849 2.219-1.312 4.362a12.71 12.71 0 0 1-.463 1.224 3.91 3.91 0 0 0-.231 1.225c-.006.042-.002.084.011.124a.27.27 0 0 0 .066.106c.03.03.067.052.107.065s.083.017.125.011l.077-.077-.154.765-.309.689-.077.613c.103.204.206.255.309.153.154 0 .232-.102.232-.306-.052-.051-.026-.179.077-.383l.231-.689c.206-1.173.514-2.041.926-2.602.72-1.122 2.727-3.061 6.02-5.816 1.595-1.429 2.521-2.449 2.778-3.061z"/></g><g class="C"><path d="M76.441 86.829c.004-.156-.049-.308-.15-.428a.39.39 0 0 0-.271-.101c-.104-.001-.206.031-.291.091a1.33 1.33 0 0 0-.392.456 11.76 11.76 0 0 0-1.381 3.315c-.133.664-.228 1.334-.286 2.008l-.281 3.032-.097 3.046.053 1.393.053 1.393-.082 3.339-.145 3.34c-.023.168.018.34.116.48.073.073.172.116.276.12.109.002.218-.017.32-.058.252-.104.466-.284.611-.514.15-.232.252-.492.3-.764a4.33 4.33 0 0 0 .063-.812l-.005-.821.058-.903c.032-.3.046-.602.044-.904-.008-.267-.03-.533-.068-.797l-.111-.803c-.061-.555-.087-1.113-.078-1.672l.058-1.676.291-5.91.058-.918a7.57 7.57 0 0 1 .145-.908c.055-.224.305-.891.751-1.999.323-.804.47-1.48.441-2.028z"/><path d="M83.492 77.258l-.693-.687c-.514-.304-1.182-.33-2.006-.077-.462.154-1.26.716-2.394 1.686-1.437 1.429-2.26 4.004-2.466 7.726-.052.461-.181 1.15-.388 2.066a.21.21 0 0 0 .008.093c.01.03.027.057.05.08s.05.039.08.049a.2.2 0 0 0 .094.008l.155.154h.233l.15-.308.233-.918c.31-.817.984-2.244 2.021-4.281s2.222-3.377 3.547-4.022 1.787-1.165 1.376-1.571zm-2.544-4.896a3.54 3.54 0 0 0-1.851-1.912c-1.031-.509-1.854-.407-2.471.308-.617.612-1.105 1.529-1.463 2.753l-.567 3.301a35.46 35.46 0 0 0-.591 4.886c-.103 1.989-.053 3.24.15 3.752.103.304.155 1.451.155 3.44l.155.922.155.226.155.077h.233l.228-.533.543-5.05c1.389-5.41 2.084-9.339 2.084-11.786a6.22 6.22 0 0 1 1.851.456l1.003.308c0 .103.155.154.465.154h.233l.078-.231-.155-.533-.388-.538z"/></g><path d="M77.861 72.862v-.115a6.22 6.22 0 0 1 1.851.456l1.003.308c0 .103.155.154.465.154h.233l.078-.231-.155-.533-.388-.538a3.54 3.54 0 0 0-1.851-1.912c-1.03-.509-1.854-.407-2.471.308-.617.612-1.105 1.529-1.463 2.753l-.078 1.072.005.038 1.303-1.494c.103-.304.59-.397 1.459-.279z" class="B"/><path d="M75.572 100.83c-.012.008-.022.02-.028.033s-.01.028-.01.043.004.03.01.043a.1.1 0 0 0 .028.034l-.077.153c0 .561.334.994 1.003 1.301.412.255.772.229 1.081-.077.978-.969 1.852-2.5 2.624-4.591.309-.612.463-1.122.463-1.531.01-.124-.006-.249-.046-.368s-.103-.227-.186-.321c-.103-.102-.283-.128-.54-.077l-.849.383c-.823.459-1.672 1.556-2.547 3.29l-.617 1.071c0 .102-.103.256-.309.46v.153z" class="D"/><path d="M79.196 98.706c-.917.716-1.769 1.51-2.547 2.372l-.849 1.301c-.103.102-.103.153 0 .153v.153l-.077.23-.231 1.377c-.013.151.016.302.085.437s.172.249.301.329c.257.102.592.051 1.003-.153 1.338-.613 2.495-2.143 3.473-4.592l.617-1.99-.077-.306-.463-.076-1.235.765z" class="B"/><path d="M75.878 96.804l-.617 1.53c-.669 1.887-1.029 3.112-1.081 3.673 0 1.122.437 1.811 1.312 2.066h.077l.154.077c.031.004.064.001.094-.009a.21.21 0 0 0 .08-.049c.022-.022.039-.049.049-.079s.013-.062.008-.093l.231-.612c.154-.204.283-.587.386-1.148l.617-4.515.077-1.301-.154-.536-.309-.076-.231.153c-.289.259-.525.571-.695.918z" class="C"/><path d="M72.977 89.448a.48.48 0 0 0 .199-.308.4.4 0 0 0-.049-.279c-.046-.092-.112-.172-.194-.235-.171-.13-.381-.2-.596-.197-.219-.008-.436.047-.625.159a1.38 1.38 0 0 0-.465.442 1.79 1.79 0 0 0-.262.591 3.47 3.47 0 0 0-.024 1.288c.087.576.241 1.141.46 1.682.113.281.268.544.46.778l-.141-.778a4.95 4.95 0 0 1-.044-1.071c.022-.357.114-.706.271-1.028a2.01 2.01 0 0 1 .674-.807l.334-.236z" class="B"/><path d="M73.062 105.93a.94.94 0 0 0 .019.182l.034.226c.007.039.022.076.044.108s.052.06.087.08c.081.035.189.006.325-.087s.267-.201.388-.317l.349-.327.334-.264c.071-.064.137-.133.199-.207l.484-.547c.005.025.016.048.034.067s.033.044.053.063c.041.053.061.12.053.187s-.014.142-.029.211c-.029.219-.035.439-.019.659-.004.042.002.085.017.125s.039.076.07.105c.015.011.032.019.051.023s.037.005.056.001c.039-.002.077-.017.107-.043.058-.052.105-.114.141-.183l.136-.235c.066-.119.126-.24.179-.365.05-.156.083-.317.097-.481.037-.183.044-.371.019-.557a.58.58 0 0 0-.296-.456.99.99 0 0 0-.266-.077c-.108-.027-.219-.04-.329-.039s-.219.041-.3.116a.48.48 0 0 0-.102.163 1.7 1.7 0 0 0-.073.178c-.099.229-.25.433-.441.596a6.18 6.18 0 0 1-.611.446l-.591.394c-.136.087-.208.172-.218.255z" class="C"/><path d="M69.202 99.148a2.44 2.44 0 0 1-.678.226l1.42 2.417 1.861 2.964a13.35 13.35 0 0 0 1.967 2.234 27.97 27.97 0 0 0-.8-3.939l-1.114-3.315c-.059-.19-.136-.375-.228-.552a1.15 1.15 0 0 0-.392-.432c-.208-.119-.45-.166-.688-.135-.244.029-.482.099-.703.207l-.644.327z" class="E"/><path d="M65.796 104.61c.129.039.271-.025.426-.192l1.027-1.206.993-1.244c.808-.983 1.559-1.709 2.253-2.177.241-.147.47-.314.683-.5a1 1 0 0 0 .249-.308c.062-.118.099-.247.109-.379l-1.744-.745c-.366.003-.728.077-1.066.216-.653.259-1.278.756-1.875 1.489-.538.662-.94 1.424-1.182 2.239a4.72 4.72 0 0 0-.102 2.47c.045.192.121.304.228.336z" class="B"/><path d="M99.899 91.04a9.71 9.71 0 0 0-.334-.812 5.97 5.97 0 0 0-.577-1.043c-.044-.075-.106-.138-.179-.186s-.156-.078-.243-.088c-.079.001-.156.028-.218.077a.5.5 0 0 0-.155.173 1.12 1.12 0 0 0-.106.456 9.15 9.15 0 0 0 .053 1.845l.131.865.364 1.879c.146.617.361 1.216.639 1.787a2.71 2.71 0 0 0 .664.884c.333.24.718.4 1.124.466-.004.075.004.149.024.221a.21.21 0 0 0 .073.091c.014.012.03.021.048.027s.036.008.054.007c.033-.004.064-.019.089-.041s.043-.051.051-.084c.024-.071.03-.147.02-.221-.055-.599-.154-1.264-.296-1.994l-.441-1.975a6.58 6.58 0 0 0-.242-.836 5.75 5.75 0 0 0-.16-.365l-.16-.37a4.62 4.62 0 0 1-.111-.379l-.112-.384z" class="D"/><g class="C"><path d="M101.26 75.483c-.043.016-.083.04-.117.072a.33.33 0 0 0-.081.111 1.26 1.26 0 0 0-.102.279l-.732 3.258c-.214 1.089-.349 2.192-.402 3.301-.034 1.076.008 2.154.126 3.224l.436 3.21.611 3.997.29 1.725c.109.569.254 1.13.432 1.682.19.564.521 1.401.993 2.513.368.99.528 1.849.48 2.576-.011.1-.016.201-.015.302s.023.199.068.289a.35.35 0 0 0 .092.121.37.37 0 0 0 .136.071c.045.019.095.024.142.013s.091-.035.124-.071a.43.43 0 0 0 .077-.177.45.45 0 0 0-.004-.193l-1.866-21.015-.261-2.657-.427-2.628zm2.181 25.263c.002-.087-.003-.174-.015-.26l-.063-.264a.53.53 0 0 1 .005-.26c.026.019.039.071.039.154.009.091.032.18.068.264s.064.171.087.26a1.64 1.64 0 0 1 .01.336c-.011.212-.003.424.024.634a.64.64 0 0 1-.015.231l-.058-.024a1.79 1.79 0 0 0-.029-.615l-.039-.197a1.73 1.73 0 0 1-.014-.259z"/><path d="M93.659 92.531a12.84 12.84 0 0 0 .46 1.831c.41 1.188 1.181 2.5 2.311 3.935l1.483 1.796 1.449 1.812c1.547 2.074 2.709 4.406 3.431 6.885l.378-.284a8.75 8.75 0 0 0-.392-2.993c-.312-.959-.679-1.899-1.1-2.816L97.72 94.41c-1.647-2.979-3.421-5.44-5.32-7.385.404.83.725 2.039.964 3.627l.296 1.879zm6.205.965c-.265-.594-.562-1.173-.891-1.734-.746-1.249-1.623-2.202-2.631-2.859a7.93 7.93 0 0 0 1.336 3.427 8.01 8.01 0 0 0 2.744 2.469l-.558-1.302z"/></g><g class="B"><path d="M101.09 82.869l-1.466-1.53c-.412-.663-1.106-1.224-2.084-1.684-.206-.102-1.286-.434-3.241-.995l-.54-.077-.154.076c-.103.102-.129.179-.077.23l.077.23c.051.102.463.612 1.235 1.531l4.322 5.127a14.59 14.59 0 0 1 2.856 5.969c.154.714.411 2.908.771 6.581l.078 3.291-.078-.153-.231-.766-1.158-4.361c-.103-.306-.437-.842-1.003-1.607-.926-1.582-1.981-2.704-3.164-3.367-1.132-.663-2.65-.995-4.553-.995a12.99 12.99 0 0 0-2.624-.153l-.617.076-.309.306c-.051.102-.051.179 0 .23l.154.306c.513.545 1.148.964 1.852 1.225 1.492.918 2.521 1.479 3.087 1.683l2.856.765c.875.357 1.338.587 1.389.689 1.183.918 2.238 2.525 3.164 4.821.182.458.415.894.695 1.301l.385 1.301.078.153.231.076h.077l.232-.076.077-.077-.309-6.963c.032.004.064.002.094-.008s.057-.027.08-.049.039-.049.049-.079a.21.21 0 0 0 .009-.093c.154-2.143.18-3.775.077-4.897a25.92 25.92 0 0 0-.772-5.051c-.463-1.428-.978-2.423-1.544-2.985zm13.04 7.576c.103-.102.103-.23 0-.383 0-.051-.155-.23-.463-.536-.566-.459-1.261-.612-2.084-.459-.875.255-1.801.765-2.778 1.531-1.493 1.02-2.522 2.168-3.087 3.444-.412.765-.849 2.219-1.313 4.362a12.49 12.49 0 0 1-.463 1.225 3.91 3.91 0 0 0-.231 1.225.27.27 0 0 0 .011.123.28.28 0 0 0 .066.106c.03.03.067.052.107.066s.083.017.125.011l.077-.077-.155.765-.308.689-.077.612c.102.204.205.255.308.153.155 0 .232-.102.232-.306-.052-.051-.026-.178.077-.382l.231-.689c.206-1.174.515-2.041.927-2.602.72-1.122 2.727-3.061 6.019-5.816 1.595-1.429 2.521-2.449 2.779-3.061z"/></g><g class="C"><path d="M105.83 89.844c.004-.156-.049-.308-.151-.428-.073-.067-.171-.103-.271-.101a.5.5 0 0 0-.291.091 1.33 1.33 0 0 0-.392.457 11.74 11.74 0 0 0-1.381 3.315c-.133.664-.228 1.334-.286 2.008l-.281 3.032-.097 3.046.053 1.393.054 1.394-.083 3.339-.145 3.339a.68.68 0 0 0 .116.481c.074.073.172.116.276.12a.83.83 0 0 0 .32-.058 1.31 1.31 0 0 0 .611-.514c.15-.233.252-.492.3-.764a4.25 4.25 0 0 0 .063-.812l-.005-.821.059-.904c.031-.3.046-.601.043-.903a6.89 6.89 0 0 0-.068-.798l-.111-.802a13.34 13.34 0 0 1-.078-1.672l.058-1.677.291-5.909.058-.918c.03-.305.079-.609.146-.908.055-.224.305-.89.751-1.999.323-.804.47-1.48.441-2.028z"/><path d="M112.88 80.273l-.693-.687c-.513-.304-1.182-.33-2.006-.077-.462.154-1.26.716-2.393 1.686-1.438 1.428-2.26 4.004-2.467 7.726-.051.461-.181 1.15-.387 2.066-.005.031-.002.063.008.093s.027.057.05.08.05.039.08.049a.2.2 0 0 0 .094.008l.155.154h.233l.15-.308.233-.918c.31-.817.984-2.244 2.02-4.281s2.222-3.377 3.547-4.022 1.788-1.164 1.376-1.571zm-2.54-4.896a3.54 3.54 0 0 0-1.851-1.912c-1.031-.509-1.855-.407-2.472.308-.617.612-1.104 1.529-1.463 2.753l-.567 3.301c-.31 1.613-.507 3.246-.591 4.886-.103 1.989-.053 3.24.15 3.752.104.304.155 1.451.155 3.44l.155.922.155.226.155.077h.233l.228-.533.542-5.05c1.389-5.41 2.084-9.338 2.084-11.786a6.22 6.22 0 0 1 1.851.456l1.003.308c0 .103.155.154.465.154h.233l.077-.231-.155-.533-.387-.538z"/></g><path d="M107.25 75.877v-.115c.637.056 1.262.21 1.851.457l1.003.308c0 .103.155.154.465.154h.233l.077-.231-.155-.533-.387-.538c-.343-.852-1.007-1.538-1.851-1.912-1.031-.509-1.855-.407-2.472.308-.617.612-1.104 1.529-1.463 2.753l-.077 1.071.004.038 1.304-1.494c.103-.304.589-.397 1.458-.279z" class="B"/><path d="M104.96 103.84c-.012.009-.022.021-.029.034s-.01.028-.01.043a.1.1 0 0 0 .01.042c.007.014.017.025.029.034l-.077.153c0 .561.334.995 1.003 1.301.412.255.772.23 1.08-.076.978-.97 1.853-2.5 2.624-4.592.309-.612.463-1.122.463-1.53.01-.124-.005-.249-.045-.368s-.103-.228-.186-.321c-.103-.102-.283-.127-.54-.076l-.849.383c-.824.459-1.672 1.556-2.547 3.291l-.617 1.071c0 .102-.103.255-.309.459v.153z" class="D"/><path d="M108.59 101.72c-.917.716-1.769 1.509-2.547 2.372l-.848 1.301c-.103.102-.103.153 0 .153v.153l-.078.23-.231 1.377c-.013.15.016.301.084.436s.173.249.302.329c.257.102.591.051 1.003-.153 1.338-.612 2.495-2.142 3.473-4.591l.617-1.99-.077-.306-.463-.076-1.235.765z" class="B"/><path d="M105.27 99.819l-.617 1.53c-.669 1.888-1.029 3.112-1.081 3.674 0 1.122.438 1.811 1.312 2.066h.077l.155.076c.031.005.063.002.093-.008a.2.2 0 0 0 .08-.049c.023-.022.04-.05.05-.08a.19.19 0 0 0 .008-.092l.232-.613c.154-.204.283-.586.386-1.147l.617-4.515.077-1.301-.154-.536-.309-.076-.231.153a3.01 3.01 0 0 0-.695.918z" class="C"/><path d="M102.37 92.462a.48.48 0 0 0 .199-.308.4.4 0 0 0-.049-.279c-.046-.092-.112-.172-.193-.236-.171-.13-.381-.2-.596-.197a1.14 1.14 0 0 0-.625.159c-.188.109-.348.26-.466.442s-.211.38-.261.591c-.089.424-.097.861-.025 1.288a7.44 7.44 0 0 0 .461 1.682c.113.281.268.543.46.778l-.14-.778c-.054-.355-.068-.714-.044-1.071a2.73 2.73 0 0 1 .271-1.028c.149-.323.381-.602.674-.807l.334-.236z" class="B"/><path d="M102.45 108.94c.001.062.007.123.019.183l.034.226c.007.039.022.076.045.108a.26.26 0 0 0 .086.079c.081.035.189.007.325-.086s.267-.202.388-.317l.348-.327.335-.264c.07-.065.137-.134.198-.207l.485-.548c.004.026.016.049.034.068s.033.043.053.062a.26.26 0 0 1 .053.188c-.004.071-.014.141-.029.211a3.29 3.29 0 0 0-.019.658.28.28 0 0 0 .017.125c.016.04.039.076.07.106.015.011.033.019.051.023a.15.15 0 0 0 .056.001c.039-.002.077-.017.106-.043.058-.052.106-.114.141-.183l.136-.235c.066-.119.125-.241.179-.366.05-.156.083-.317.097-.48a1.68 1.68 0 0 0 .019-.557.58.58 0 0 0-.09-.265.59.59 0 0 0-.205-.192c-.085-.038-.175-.064-.267-.077a1.35 1.35 0 0 0-.329-.038.44.44 0 0 0-.301.115.51.51 0 0 0-.102.164l-.072.177c-.1.23-.25.433-.441.596a6.25 6.25 0 0 1-.611.447l-.591.394c-.135.086-.208.171-.218.254z" class="C"/><path d="M98.593 102.16c-.214.108-.442.184-.678.226l1.42 2.417 1.861 2.964a13.35 13.35 0 0 0 1.967 2.234c-.172-1.33-.439-2.647-.8-3.94l-1.114-3.315a3.45 3.45 0 0 0-.228-.552 1.15 1.15 0 0 0-.392-.433c-.209-.119-.45-.166-.689-.134a2.21 2.21 0 0 0-.703.206l-.644.327z" class="E"/><path d="M95.187 107.62c.129.038.271-.026.426-.192l1.027-1.206.993-1.244c.808-.984 1.559-1.709 2.253-2.177a5.02 5.02 0 0 0 .683-.5c.102-.085.187-.189.249-.307a.99.99 0 0 0 .109-.38l-1.744-.744c-.366.003-.728.076-1.066.216-.653.259-1.278.756-1.875 1.489-.538.662-.94 1.423-1.182 2.239a4.72 4.72 0 0 0-.102 2.47c.045.192.121.304.228.336z" class="B"/><path d="M126.78 90.286a9.68 9.68 0 0 0-.334-.812c-.157-.366-.35-.715-.577-1.043a.56.56 0 0 0-.178-.186.58.58 0 0 0-.243-.088c-.08.001-.156.028-.218.077s-.118.104-.155.173a1.11 1.11 0 0 0-.107.457 9.25 9.25 0 0 0 .053 1.845l.131.865.364 1.879c.146.617.361 1.217.639 1.787.158.337.384.638.664.884.333.24.718.4 1.124.466-.004.075.004.149.024.221.015.037.04.069.073.091.014.012.03.021.048.027s.035.008.054.007c.033-.004.064-.019.089-.041s.043-.051.051-.084c.024-.071.03-.147.02-.221-.055-.599-.154-1.264-.296-1.994l-.441-1.975a6.58 6.58 0 0 0-.242-.836c-.029-.077-.082-.199-.16-.365l-.16-.37c-.032-.09-.069-.216-.111-.38l-.112-.384z" class="D"/><g class="C"><path d="M128.14 74.73a.36.36 0 0 0-.118.072c-.035.032-.061.069-.08.111a1.26 1.26 0 0 0-.102.279l-.732 3.257a22.76 22.76 0 0 0-.402 3.301 22.84 22.84 0 0 0 .126 3.224l.436 3.21.611 3.997.29 1.725a13.97 13.97 0 0 0 .432 1.682c.19.564.521 1.401.993 2.513.368.99.528 1.848.48 2.575a2.56 2.56 0 0 0-.015.303.64.64 0 0 0 .068.288c.021.047.053.088.092.122s.086.057.136.07a.23.23 0 0 0 .142.014c.048-.01.091-.035.124-.071.038-.053.065-.113.077-.177a.45.45 0 0 0-.004-.193l-1.866-21.015-.261-2.657-.427-2.628zm2.181 25.263c.002-.087-.003-.174-.015-.259l-.063-.264a.53.53 0 0 1 .005-.26c.026.019.039.07.039.154.009.091.032.18.068.264a1.97 1.97 0 0 1 .087.259 1.65 1.65 0 0 1 .01.337c-.011.211-.003.424.024.634.009.077.004.155-.015.231l-.058-.025a1.79 1.79 0 0 0-.029-.615l-.039-.197c-.011-.085-.016-.172-.014-.259zm-9.781-8.215a12.82 12.82 0 0 0 .46 1.831c.411 1.188 1.181 2.5 2.312 3.935l1.483 1.797 1.448 1.811c1.547 2.075 2.709 4.406 3.431 6.885l.378-.283c.043-1.013-.089-2.025-.393-2.993-.311-.959-.678-1.899-1.1-2.816l-3.958-8.288c-1.648-2.979-3.421-5.44-5.321-7.385.404.83.726 2.039.965 3.627l.295 1.879zm6.2.964c-.264-.594-.562-1.173-.891-1.734-.746-1.249-1.623-2.202-2.631-2.859a7.92 7.92 0 0 0 1.336 3.427 8.02 8.02 0 0 0 2.744 2.469l-.558-1.302z"/></g><g class="B"><path d="M127.97 82.116l-1.466-1.531c-.412-.663-1.106-1.224-2.084-1.683-.206-.102-1.286-.434-3.241-.995l-.54-.076-.155.076c-.103.102-.128.178-.077.23l.077.23c.052.102.463.612 1.235 1.531l4.322 5.127a14.59 14.59 0 0 1 2.856 5.969c.154.714.411 2.908.771 6.581l.078 3.29-.078-.153-.231-.765-1.158-4.362c-.103-.306-.437-.842-1.003-1.607-.926-1.582-1.981-2.704-3.164-3.367-1.132-.663-2.65-.995-4.554-.995a12.99 12.99 0 0 0-2.624-.153l-.617.076-.309.306c-.051.102-.051.179 0 .23l.155.306c.513.545 1.147.964 1.852 1.224 1.492.918 2.521 1.48 3.087 1.684l2.855.765c.875.357 1.338.587 1.39.689 1.183.918 2.238 2.525 3.164 4.821.182.457.415.894.694 1.3l.386 1.301.077.153.232.077h.077l.232-.077.077-.076-.309-6.964c.032.004.064.002.094-.008s.057-.027.08-.049.039-.049.049-.079a.21.21 0 0 0 .009-.093c.154-2.143.18-3.775.077-4.897a25.98 25.98 0 0 0-.772-5.051c-.463-1.428-.978-2.423-1.544-2.985zm13.04 7.576c.102-.102.102-.23 0-.383 0-.051-.155-.23-.463-.536-.566-.459-1.261-.612-2.084-.459-.875.255-1.801.765-2.779 1.531-1.492 1.02-2.521 2.168-3.087 3.444-.411.765-.849 2.219-1.312 4.362a12.5 12.5 0 0 1-.463 1.225 3.91 3.91 0 0 0-.231 1.224c-.006.042-.002.084.011.124s.036.076.066.106.066.052.107.065a.28.28 0 0 0 .125.011l.077-.076-.155.765-.308.689-.078.612c.103.204.206.255.309.153.155 0 .232-.102.232-.306-.052-.051-.026-.179.077-.383l.231-.689c.206-1.173.515-2.04.927-2.601.72-1.122 2.726-3.061 6.019-5.816 1.595-1.429 2.521-2.449 2.779-3.061z"/></g><g class="C"><path d="M132.71 89.09c.004-.156-.049-.308-.151-.428a.39.39 0 0 0-.271-.101.5.5 0 0 0-.291.091 1.33 1.33 0 0 0-.392.457 11.74 11.74 0 0 0-1.381 3.315 18.13 18.13 0 0 0-.286 2.008l-.281 3.032-.097 3.046.053 1.393.054 1.393-.083 3.34-.145 3.339c-.023.169.018.34.116.48.074.073.172.116.276.12a.83.83 0 0 0 .32-.057c.253-.105.466-.284.611-.514.15-.233.252-.493.3-.764a4.25 4.25 0 0 0 .063-.812l-.005-.822.058-.903a7.79 7.79 0 0 0 .044-.903 6.87 6.87 0 0 0-.068-.798l-.111-.802c-.062-.556-.087-1.114-.078-1.672l.058-1.677.291-5.91.058-.918c.03-.305.079-.609.146-.908.055-.224.305-.891.751-1.999.323-.804.47-1.48.441-2.028z"/><path d="M139.76 79.52l-.693-.687c-.513-.304-1.182-.33-2.006-.077-.462.154-1.26.716-2.393 1.686-1.438 1.428-2.26 4.004-2.467 7.726-.051.461-.181 1.15-.387 2.066-.005.031-.002.063.008.093s.027.057.05.08.05.039.08.049a.2.2 0 0 0 .094.008l.155.154h.233l.15-.308.233-.918c.31-.817.983-2.244 2.02-4.281s2.222-3.377 3.547-4.022 1.787-1.165 1.376-1.571zm-2.54-4.896a3.54 3.54 0 0 0-1.851-1.912c-1.031-.509-1.855-.407-2.472.308-.617.612-1.104 1.529-1.463 2.753l-.567 3.301a35.37 35.37 0 0 0-.591 4.886c-.103 1.989-.053 3.24.15 3.752.103.304.155 1.451.155 3.44l.155.922.155.226.155.077h.233l.228-.533.542-5.05c1.389-5.41 2.084-9.339 2.084-11.786.637.056 1.261.21 1.851.456l1.003.308c0 .103.155.154.465.154h.233l.077-.231-.155-.533-.387-.538z"/></g><path d="M134.13 75.123v-.115c.637.056 1.262.21 1.851.457l1.003.308c0 .103.155.154.465.154h.233l.077-.231-.155-.533-.387-.538c-.343-.852-1.007-1.538-1.851-1.912-1.031-.509-1.855-.407-2.472.308-.617.612-1.104 1.529-1.463 2.753l-.078 1.071.005.038 1.304-1.494c.103-.304.589-.397 1.458-.279z" class="B"/><path d="M131.84 103.09c-.012.009-.022.02-.029.034a.1.1 0 0 0-.01.042c0 .015.004.03.01.043s.017.025.029.034l-.077.153c0 .561.334.995 1.003 1.301.411.255.772.229 1.08-.077.978-.969 1.853-2.5 2.624-4.591.309-.612.463-1.123.463-1.531.01-.124-.006-.249-.045-.368s-.103-.228-.186-.321c-.103-.102-.283-.127-.54-.076l-.849.383c-.824.459-1.673 1.556-2.547 3.29l-.618 1.072c0 .102-.102.255-.308.459v.153z" class="D"/><path d="M135.47 100.97c-.917.716-1.769 1.51-2.547 2.373l-.849 1.301c-.102.102-.102.153 0 .153v.153l-.077.229-.231 1.378c-.013.15.016.301.084.436s.173.249.302.329c.257.102.591.051 1.003-.153 1.337-.612 2.495-2.143 3.473-4.592l.617-1.989-.077-.306-.463-.077-1.235.765z" class="B"/><path d="M132.15 99.066l-.617 1.531c-.669 1.888-1.029 3.112-1.081 3.673 0 1.122.438 1.811 1.312 2.066h.077l.155.077a.21.21 0 0 0 .093-.009c.031-.01.058-.026.08-.049s.04-.049.05-.079.013-.062.008-.093l.232-.612c.154-.204.283-.587.386-1.148l.617-4.515.077-1.301-.154-.536-.309-.077-.231.153a3.01 3.01 0 0 0-.695.918z" class="C"/><path d="M129.25 91.709a.48.48 0 0 0 .199-.308.4.4 0 0 0-.049-.279c-.046-.092-.112-.172-.194-.235a.96.96 0 0 0-.595-.197c-.22-.008-.437.047-.626.159a1.39 1.39 0 0 0-.465.442c-.122.18-.211.38-.261.591-.089.424-.097.861-.025 1.288a7.44 7.44 0 0 0 .461 1.682c.112.281.268.543.46.778l-.14-.778c-.054-.355-.068-.714-.044-1.071s.114-.706.271-1.028c.149-.323.381-.602.674-.807l.334-.236z" class="B"/><path d="M129.33 108.19c.001.061.007.123.019.183l.034.225c.007.039.022.076.045.109s.052.059.086.079c.081.035.189.006.325-.087s.267-.201.387-.317l.349-.326.335-.265a2.14 2.14 0 0 0 .198-.206l.485-.548c.004.025.016.049.034.067.015.023.033.044.053.063a.26.26 0 0 1 .053.187c-.004.071-.014.142-.029.212a3.29 3.29 0 0 0-.019.658c-.004.042.002.085.017.125s.039.076.07.105c.015.011.033.019.051.023s.037.005.056.001c.039-.002.077-.017.106-.043.058-.052.106-.113.141-.182l.135-.236c.067-.118.126-.24.18-.365.05-.156.083-.317.097-.48.037-.184.044-.372.019-.558a.58.58 0 0 0-.295-.456c-.085-.038-.175-.064-.267-.077a1.35 1.35 0 0 0-.329-.038.44.44 0 0 0-.301.115c-.044.047-.079.103-.102.163a1.95 1.95 0 0 0-.072.178 1.65 1.65 0 0 1-.441.596 6.25 6.25 0 0 1-.611.447l-.591.394c-.136.086-.208.171-.218.254z" class="C"/><path d="M125.47 101.41c-.213.108-.442.184-.678.225l1.42 2.417 1.861 2.965a13.39 13.39 0 0 0 1.967 2.234c-.172-1.331-.439-2.647-.8-3.94l-1.114-3.315a3.42 3.42 0 0 0-.228-.553 1.14 1.14 0 0 0-.393-.432 1.1 1.1 0 0 0-.688-.135c-.244.03-.481.1-.702.207l-.645.327z" class="E"/><path d="M122.07 106.87c.129.038.272-.026.427-.193l1.027-1.206.993-1.244c.808-.983 1.559-1.709 2.253-2.176.242-.148.47-.315.684-.5a1.02 1.02 0 0 0 .249-.308 1.01 1.01 0 0 0 .109-.379l-1.744-.745c-.366.004-.728.077-1.066.216-.653.26-1.278.756-1.875 1.49a6.45 6.45 0 0 0-1.183 2.239c-.253.8-.288 1.652-.102 2.469.046.192.122.305.228.337z" class="B"/><path d="M79.776 33.452l-.374.24c-.297.205-.566.448-.8.723l4.453 69.127.088 1.372.434 6.752.094 1.47 1.064 16.502c.069 14.24-9.894 15.907-6.147 19.072 1.065.899 2.47 1.247 3.933 1.284.141.006.285.005.428.004 3.571-.047 7.34-1.771 7.34-1.771l-.008-.752-.006-.411-.226-17.697-.081-1.487-.077-1.352-.643-11.71-.043-.763-.933-16.87-.047-.87-.334-6.049-.14-2.534-.666-12.084-.037-.648-.848-15.39-.06-1.097-.906-16.432-.027-.438-.4-7.277c-.172-.151-.338-.291-.502-.414-.116-.087-.23-.165-.346-.239-1.761-1.155-3.23-.799-4.183-.26z" fill="#c46b17"/><g fill="#9f4207"><path d="M85.379 116.08a41.56 41.56 0 0 1-1.805-4.414l.094 1.47 1.346 3.111c.935 2.055 1.902 4.183 2.33 6.392.951 4.904-.686 9.582-2.42 14.528-1.051 3.012-2.142 6.124-2.58 9.278-.144 1.05-.245 2.363.174 3.552.141.006.285.005.428.004-.451-1.141-.349-2.461-.206-3.503.432-3.109 1.517-6.203 2.563-9.2 1.673-4.779 3.406-9.722 2.434-14.735-.437-2.256-1.415-4.405-2.359-6.483zm-1.42-82.368a33.65 33.65 0 0 0-1.325 6.785l-.029.467-.036 1.35a41.72 41.72 0 0 0 .515 5.446c.264 1.678.433 3.369.504 5.066.053 2.461-.32 4.952-.679 7.359l-.566 4.395a37.29 37.29 0 0 0 3.556 19.48l.237.479c.358.688.668 1.399.929 2.129 1.263 3.831-.326 7.576-2.009 11.543-.781 1.732-1.45 3.513-2.002 5.33l.088 1.372c.448-2.219 1.375-4.406 2.282-6.544 1.128-2.654 2.284-5.37 2.468-8.104.061-.847.013-1.699-.14-2.534a8.56 8.56 0 0 0-.305-1.191 17.51 17.51 0 0 0-.949-2.173l-.236-.484c-2.889-5.987-4.104-12.644-3.518-19.266.129-1.459.35-2.941.564-4.374.36-2.423.734-4.928.68-7.426-.069-1.712-.239-3.418-.507-5.111a40.73 40.73 0 0 1-.507-5.393 22.17 22.17 0 0 1 .023-1.135c.008-.145.013-.295.027-.447.184-2.3.614-4.574 1.282-6.782a7.38 7.38 0 0 0-.346-.237zm6.008 94.168l-.077-1.352-.445 1.753-.324 1.259a63.33 63.33 0 0 0-1.917 15.664c-.043.484.071.968.325 1.383.361.475.968.607 1.558.7l1.192.189-.006-.411-1.124-.176c-.51-.08-1.028-.187-1.299-.547a1.87 1.87 0 0 1-.241-1.138c-.017-5.248.622-10.477 1.903-15.567l.322-1.255.132-.502zm-1.743-31.564l-1.523 3.66c-1.119 3.109-2.005 7.596.075 11.334.433.735.918 1.439 1.45 2.107.346.454.701.919 1.022 1.403l-.043-.763a25.07 25.07 0 0 0-.658-.885 17.7 17.7 0 0 1-1.423-2.056c-2.003-3.608-1.134-7.975-.044-11.004.355-.982.764-1.964 1.194-2.925l-.049-.871zM86.14 58.512l-.912 2.895c-1.162 4.077-1.863 9.773 1.417 13.743.14.171.291.336.443.497L87.051 75c-.032-.031-.062-.07-.093-.105-3.17-3.835-2.48-9.391-1.342-13.379a70.89 70.89 0 0 1 .586-1.906l-.061-1.098z"/><path d="M79.776 33.452l-.375.24c.282 2.63.769 5.564 2.925 7.087l.279.185.391.217a13.98 13.98 0 0 0 1.604.663l.634.237-.027-.438-.471-.177a11.41 11.41 0 0 1-1.713-.731 4.09 4.09 0 0 1-.389-.236l-.073-.048c-2.021-1.427-2.486-4.257-2.762-6.801l-.022-.197z"/></g><path d="M64.048 17.548l-5.894 18.777 2.324.704c21.203 6.151 24.44-.63 24.44-.63 2.307-7.308-12.799-15.138-18.637-17.855-1.371-.64-2.233-.996-2.233-.996z" fill="#5b3d39"/><path d="M64.048 17.547l-5.894 18.777 2.324.704 5.802-18.485-2.232-.996z" fill="#d3a479"/><path d="M107.81 79.14s-2.729 7.2-3.966 20.81-.333 30.115-.333 30.115l27.267 3.481s-.761-23.94-.382-32.718-1.788-24.259-5.083-29.506c-5.32-3.535-14.141-.303-17.503 7.817z" fill="#fff"/><g class="F"><path d="M118.03 61.963v4.521h-4.406l-.412-4.52h4.818z"/><path d="M118.03 61.964v4.52h5.11l-1.336-9.533-3.774 5.012z"/></g><g class="G"><path d="M118.03 61.963v4.521h-4.406l-.412-4.52h4.818z" opacity=".51"/><path d="M118.03 61.964v4.52h5.11l-1.336-9.533-3.774 5.012z" opacity=".51"/></g><g class="F"><path d="M107.67 50.311s-.266 1.69-.736 2.311-1.134.698-1.318.997-.479.847.291 1.594 1.979.462 1.979.462.625-4.858-.216-5.364z"/><path d="M108.28 43.646c1.306-4.632 6.909-5.253 8.53-5.34 3.979-.222 9.774.927 11.522 5.41 1.474 3.766 2.192 9.441-4.467 15.286s-15.532 5.428-15.532 5.428-1.481-.271-1.587-5.409c-.077-3.685.842-5.34.926-8.545.074-2.759-.258-3.754.608-6.83z"/></g><path d="M105.6 53.795c-.013.266.246.494.579.51s.611-.187.623-.453-.247-.493-.578-.51-.611.187-.624.453z" fill="#ffc7ab"/><path d="M105.62 53.625c-.131.165-.222.358-.267.564a1.37 1.37 0 0 0 .009.624c.164.725.753 1.156 2.034 1.256.403-.473.087-.504.087-.504s-2.64-.361-1.863-1.941zm12.69-1.454s.338-1.629 1.521-1.71 2.098 1.225 1.96 2.659-1.019 3.545-2.129 4.175-1.773-.559-1.773-.559l.421-4.564z" class="G"/><path d="M118.31 52.17s.753-1.907 1.935-1.329 1.683 1.935.816 4.138-2.47 3.434-3.435 1.268.684-4.078.684-4.078z" class="F"/><g class="G"><path d="M120.79 53.705s.608-1.44-.368-1.963-1.726 1.572-1.276 3.988c-.093-1.56.236-3.048.703-3.627s1.306.033.941 1.602z"/><path d="M120.22 54.275c.113-.425.078-.876-.101-1.278-.302-.641-.626-.423-.626-.423l-.092.237s.704-.271.819 1.464z"/></g><g fill="#755142"><path d="M109.81 40.994a7.94 7.94 0 0 1 2.421-.344c1.304.031 3.459.799 4.419 4.203s-.578 7.233-.544 7.521 1.76.461 1.76.461.252-1.978 1.468-2.525 2.79.798 2.709 2.509-1.116 4.593-2.785 4.847c.847 1.925 3.53 2.62 3.53 2.62s3.694-2.164 6.195-4.216c2.583-2.118 3.155-4.167 3.243-5.562.026-.411 1.357-3.323.598-6.092s-2.303-3.582-2.303-3.582-.916-4.615-7.365-5.944c-5.072-1.043-7.865 1.1-8.281 1.175s-5.635 2.229-5.065 4.929z"/><path d="M113.5 38.198s1.855-4.194 7.058-4.388 5.234.637 7.646 1.301 3.67-.919 3.67-.919.13 2.659-2.611 2.791c.997.603 2.316-.507 2.316-.507s-.711 1.172-1.377 1.458-1.079.264-1.079.264l1.221.237-.467.358.775 2.475-17.152-3.069z"/></g><path d="M125.32 71.323c.181.214-3.864-1.255-8.369-.367s-9.136 8.184-9.136 8.184 1.29-3.392 2.822-6.597 3.124-4.588 2.991-6.059h9.516s.966 3.397 2.176 4.84z" class="F"/><path d="M125.56 71.724s-3.263-.847-6.578-.752-5.219 1.872-6.345 2.966-3.141 3.376-5.068 5.913l-.237.747 5.273-6.092c1.665-1.7 3.323-2.828 6.901-3.045s6.366.853 6.366.853l-.312-.589z" fill="#f95c46"/><g class="F"><path d="M115.49 24.423l-.048-1.889s1.15-.997 1.423-2.184.337-2.497.584-3.357.559-1.321.16-1.404-.877.421-1.046.952-.465 1.828-.695 1.834-.327-.882-.158-1.85.579-3.557.484-4.318-.991-.648-1.21 1.302-.456 3.845-.704 3.85-.308-.809-.414-1.988-.077-3.321-.299-3.842-1.192-.37-1.032 1.443.128 4.34-.009 4.197-.512-3.639-.684-4.416-1.169-.879-.992.824l.352 4.096c-.132.075-.293-.319-.467-1.096l-.654-2.472c-.178-.249-.728-.037-.549.976l.732 4.034.636 2.51c.124.415.576.876.584 1.236l.042 1.658 3.964-.095zm-7.701 26.341s-.094 14.013 2.442 24.941 5.899 13.898 10.512 12.534 5.631-6.135 4.08-12.536-6.037-25.125-7.429-27.532-9.199-3.05-9.605 2.592z"/><path d="M115.45 22.535l2.448 26.806c.392 3.926-9.105 6.55-10.101 1.423s3.676-28.646 3.676-28.646l3.977.417z"/><path d="M110.79 137.89l-.338 1.859s-1.329.742-1.838 1.849-.839 2.376-1.256 3.168-.816 1.179-.443 1.341.945-.234 1.218-.719.828-1.695 1.054-1.654.141.931-.222 1.843-1.291 3.365-1.353 4.129.837.836 1.449-1.028 1.23-3.671 1.474-3.626.136.856 0 2.031-.601 3.266-.491 3.823 1.093.604 1.305-1.202.759-4.275.865-4.108-.241 3.667-.231 4.463.965 1.099 1.139-.605l.491-4.081c.144-.047.221.372.233 1.168l.137 2.553c.123.281.704.185.736-.844l.106-4.098-.111-2.587c-.038-.432-.386-.974-.32-1.329l.297-1.631-3.901-.715zm12.908-24.219s2.948-13.7 2.693-24.915-2.942-14.809-7.737-14.413-6.763 4.858-6.549 11.441.79 25.828 1.662 28.468 8.384 4.86 9.931-.581z" fill-opacity=".5"/><path d="M110.46 139.75l3.068-26.742c.416-3.924 10.248-4.557 10.178.664s-9.437 27.296-9.437 27.296l-3.809-1.218z" fill-opacity=".5"/></g><mask id="A" x="9.275" y="17.567" width="52" height="89" fill="#000" maskUnits="userSpaceOnUse"><path fill="#fff" d="M9.275 17.567h52v89h-52z"/><path d="M60.249 105.07a43.62 43.62 0 0 1-18.346-1.118c-5.966-1.672-11.508-4.597-16.256-8.579s-8.592-8.93-11.277-14.514-4.149-11.677-4.295-17.871a43.61 43.61 0 0 1 3.45-18.054 43.6 43.6 0 0 1 10.582-15.028c4.555-4.2 9.953-7.382 15.834-9.333s12.111-2.625 18.273-1.98l-.304 2.899a40.69 40.69 0 0 0-17.052 1.847c-5.488 1.82-10.525 4.789-14.776 8.709a40.69 40.69 0 0 0-13.094 30.871 40.69 40.69 0 0 0 4.008 16.677 40.7 40.7 0 0 0 10.523 13.544c4.43 3.716 9.601 6.444 15.169 8.004s11.404 1.916 17.12 1.044l.44 2.882z"/></mask><path d="M60.249 105.07a43.62 43.62 0 0 1-18.346-1.118c-5.966-1.672-11.508-4.597-16.256-8.579s-8.592-8.93-11.277-14.514-4.149-11.677-4.295-17.871a43.61 43.61 0 0 1 3.45-18.054 43.6 43.6 0 0 1 10.582-15.028c4.555-4.2 9.953-7.382 15.834-9.333s12.111-2.625 18.273-1.98l-.304 2.899a40.69 40.69 0 0 0-17.052 1.847c-5.488 1.82-10.525 4.789-14.776 8.709a40.69 40.69 0 0 0-13.094 30.871 40.69 40.69 0 0 0 4.008 16.677 40.7 40.7 0 0 0 10.523 13.544c4.43 3.716 9.601 6.444 15.169 8.004s11.404 1.916 17.12 1.044l.44 2.882z" fill="#7f2221"/><path d="M60.249 105.07a43.62 43.62 0 0 1-18.346-1.118c-5.966-1.672-11.508-4.597-16.256-8.579s-8.592-8.93-11.277-14.514-4.149-11.677-4.295-17.871a43.61 43.61 0 0 1 3.45-18.054 43.6 43.6 0 0 1 10.582-15.028c4.555-4.2 9.953-7.382 15.834-9.333s12.111-2.625 18.273-1.98l-.304 2.899a40.69 40.69 0 0 0-17.052 1.847c-5.488 1.82-10.525 4.789-14.776 8.709a40.69 40.69 0 0 0-13.094 30.871 40.69 40.69 0 0 0 4.008 16.677 40.7 40.7 0 0 0 10.523 13.544c4.43 3.716 9.601 6.444 15.169 8.004s11.404 1.916 17.12 1.044l.44 2.882z" mask="url(#A)" stroke="#7f2221" class="H"/><mask id="B" fill="#fff"><path d="M31.095 99.269c-6.26-3.788-11.467-9.09-15.14-15.419s-5.695-13.479-5.879-20.794 1.476-14.558 4.826-21.063a43.61 43.61 0 0 1 14.346-16.16l1.528 2.261a40.88 40.88 0 0 0-13.448 15.148c-3.141 6.098-4.697 12.888-4.524 19.745a40.88 40.88 0 0 0 5.511 19.493c3.443 5.932 8.324 10.903 14.192 14.454l-1.413 2.335z"/></mask><path d="M31.095 99.269c-6.26-3.788-11.467-9.09-15.14-15.419s-5.695-13.479-5.879-20.794 1.476-14.558 4.826-21.063a43.61 43.61 0 0 1 14.346-16.16l1.528 2.261a40.88 40.88 0 0 0-13.448 15.148c-3.141 6.098-4.697 12.888-4.524 19.745a40.88 40.88 0 0 0 5.511 19.493c3.443 5.932 8.324 10.903 14.192 14.454l-1.413 2.335z" fill="#ffedca" mask="url(#B)" stroke="#b2828b" class="H"/><path d="M31.095 99.269a43.61 43.61 0 0 1-13.772-13.215c-3.558-5.368-5.884-11.457-6.809-17.83s-.427-12.872 1.458-19.03a43.61 43.61 0 0 1 9.446-16.585l2.018 1.837a40.88 40.88 0 0 0-8.855 15.546c-1.767 5.772-2.234 11.865-1.367 17.839a40.87 40.87 0 0 0 6.383 16.714 40.88 40.88 0 0 0 12.91 12.388l-1.413 2.335z" fill="#ff4343"/></g><defs><clipPath id="C"><path d="M0 11.845C0 5.56 5.095.464 11.381.464h130.62v127.46H11.381C5.096 127.924 0 122.829 0 116.543v-104.7z" fill="#fff"/></clipPath><path id="D" d="M7.42 92.742a17.59 17.59 0 0 0-.892-1.734c-.746-1.249-1.623-2.202-2.631-2.859a7.93 7.93 0 0 0 1.336 3.427c.708 1.023 1.648 1.869 2.744 2.469l-.557-1.302z"/><path id="E" d="M20.44 79.52l-.693-.687c-.514-.304-1.182-.33-2.006-.077-.462.154-1.26.716-2.394 1.686-1.437 1.428-2.26 4.004-2.466 7.726-.052.461-.181 1.15-.388 2.066-.005.031-.002.063.008.093s.027.057.05.08.05.039.08.049.063.013.094.008l.155.154h.233l.15-.308.233-.918c.31-.817.984-2.244 2.021-4.281s2.221-3.377 3.547-4.022 1.787-1.165 1.376-1.571z"/><path id="F" d="M41.081 90.23c-.265-.594-.562-1.173-.892-1.734-.746-1.249-1.623-2.202-2.631-2.859a7.93 7.93 0 0 0 1.336 3.427c.708 1.023 1.648 1.869 2.744 2.469l-.557-1.302z"/></defs></svg>