<svg width="56" height="56" viewBox="0 0 56 56" fill="none" xmlns="http://www.w3.org/2000/svg">
<g clip-path="url(#clip0_73_6335)">
<rect width="56" height="56" rx="8.35821" fill="url(#paint0_linear_73_6335)"/>
<path d="M45.0346 11.6611C45.0555 11.6338 45.0745 11.605 45.0912 11.5749C45.5465 10.7396 43.8539 10.3431 43.3431 10.337C42.6679 10.3354 42.0032 10.5046 41.411 10.8288C40.8187 11.153 40.318 11.6218 39.9555 12.1914C39.4173 13.0573 39.2301 14.1074 38.6755 14.9635C37.7151 16.4468 35.6214 17.0685 34.0072 16.3507C34.9895 15.9188 35.5075 14.8234 35.7201 13.7714C35.9328 12.7195 35.9287 11.6213 36.2733 10.6045C36.9446 8.62652 38.9768 7.23793 41.0654 7.18523C43.1539 7.13253 45.1895 8.33931 46.2768 10.1227C46.5025 10.4922 46.7251 10.9135 47.1299 11.0668C47.3148 11.1233 47.507 11.1528 47.7004 11.1543C50.2068 11.3482 52.3493 13.4242 52.9585 15.8622C53.4229 17.7221 53.0728 19.709 52.2142 21.4017C51.3412 23.1226 49.722 23.9001 47.7812 23.9195C46.1796 23.9342 44.6378 23.3123 43.4948 22.1904C42.3518 21.0685 41.7013 19.5385 41.6862 17.937C41.6653 15.6943 42.6295 13.3454 44.5287 12.0738C44.7136 11.951 44.9068 11.833 45.0346 11.6611Z" fill="#D2663A"/>
<path d="M41.0572 29.5638C40.7114 29.215 37.0231 30.1663 36.3738 31.7894C35.8869 33.5748 38.1008 33.6339 36.2115 33.9031C35.8869 36.0096 35.3846 35.3808 35.3846 35.3808L35.7642 38.1993L35.3367 39.797C36.2355 39.9014 37.1436 39.8982 38.0417 39.7877L33.6634 39.1133L37.6733 38.6218C38.2176 38.5544 38.817 38.3462 39.3562 38.3512C40.2187 38.3589 41.1462 38.7728 42.0273 38.8509C42.192 38.8659 42.3687 38.8745 42.5067 38.7817C42.6447 38.6889 42.7215 38.4928 42.7631 38.3104C43.0541 37.0454 42.5144 35.7296 41.9741 34.5441C41.2859 33.0426 42.1746 30.6943 41.0572 29.5638Z" fill="#FDB082"/>
<path fill-rule="evenodd" clip-rule="evenodd" d="M32.1539 41.9732C32.6704 42.8377 35.2233 44.243 35.7249 44.7745C37.9103 43.8528 40.0518 35.4175 40.9189 32.7768C38.9197 32.088 38.3095 33.1311 36.3741 31.7893C34.8859 35.3146 32.9463 38.1821 32.1539 41.9732Z" fill="#FDB082"/>
<path d="M50.1335 32.9633C50.1335 32.9633 55.0641 42.3236 56.3241 45.6549C57.5841 48.9862 61.4551 61.0662 61.4551 61.0662L64.1243 60.0818L62.3124 45.347C62.1937 44.3797 61.9681 43.4285 61.6399 42.5108L57.9146 32.091C57.5674 31.1197 56.4943 30.6183 55.5264 30.9751L50.1335 32.9633Z" fill="#FDB082"/>
<path d="M45.2767 28.1339C45.4575 28.0303 45.6127 27.8876 45.731 27.7161C46.0376 27.2486 46.0708 26.6316 46.0738 26.0896C46.075 25.7948 46.0589 25.4995 46.0439 25.2047C46.0328 25.0032 46.077 24.6844 46.0158 24.5024C45.9256 24.237 45.7314 24.006 45.5572 23.7914C43.2808 21.0148 42.6149 14.8799 47.6733 14.6801C48.5367 14.6459 49.3947 14.993 50.04 15.5651C51.1895 16.5838 51.7105 18.4152 51.6501 19.9142C51.5977 20.9841 51.2426 22.0172 50.6261 22.8932C50.3287 23.3173 49.9031 23.6372 49.62 24.0702C49.3233 24.5239 49.3889 24.8901 49.4045 25.3897C49.433 26.3239 49.2195 27.3806 50.105 27.9852C50.5909 28.318 51.1466 28.34 51.7041 28.4588C52.2706 28.5769 52.822 28.758 53.3482 28.9988C53.8572 29.2386 54.1522 29.4619 54.3519 30.005C54.5944 30.6668 54.6641 31.4224 54.7164 32.1197C54.7447 32.4924 54.7703 32.8697 54.7023 33.2385C54.5911 33.8779 54.2057 34.4439 53.7501 34.9091C52.5826 36.1005 50.9184 36.7214 49.2555 36.8605C47.5926 36.9996 45.9228 36.6917 44.3182 36.241C43.8201 36.1008 43.3152 35.9433 42.8953 35.6407C42.4754 35.338 42.1771 34.9283 41.9181 34.4968C41.9162 34.2863 41.5704 33.859 41.4773 33.6534C41.339 33.3464 41.2197 33.0312 41.1201 32.7096C40.9941 32.302 40.908 31.8716 40.7216 31.4894C40.5499 31.138 40.4741 30.7474 40.502 30.3572C40.5013 30.2506 40.5261 30.1453 40.5742 30.05C40.6498 29.9417 40.7529 29.8555 40.873 29.8005C41.7197 29.3196 42.5558 28.8717 43.5064 28.668C44.0948 28.5427 44.7519 28.4519 45.2767 28.1339Z" fill="#FDB082"/>
<path d="M49.314 16.9811C48.3984 16.3296 47.5033 15.606 47.1427 14.5588C46.8961 15.2583 46.5664 15.7014 45.9789 16.1641C45.3756 16.6392 44.7824 17.1474 44.3559 17.7864C43.9295 18.4253 43.6836 19.2167 43.8362 19.9696C43.3929 19.5633 43.1647 18.9681 43.0998 18.3678C42.9825 17.2687 43.2744 16.1931 43.6748 15.1851C44.0753 14.1771 44.5918 13.1427 45.5297 12.6225C46.2369 12.2304 47.1043 12.1929 47.8865 12.399C48.6686 12.6052 49.3748 13.0351 50.0109 13.535C50.839 14.1845 51.5836 14.9805 51.9894 15.9514C52.126 16.2799 52.521 16.5814 52.5465 16.9145C52.6328 18.1159 52.3921 19.3183 51.85 20.3939C52.0408 19.4571 51.4026 18.5428 50.6552 17.9474C50.2478 17.6236 49.7779 17.3108 49.314 16.9811Z" fill="#D2663A"/>
<path d="M19.7235 42.9418C19.679 42.9428 19.6373 42.9419 19.5912 42.9409C19.1364 42.9265 18.6638 43.0164 18.2158 42.9114C17.6375 42.776 17.1034 42.4952 16.664 42.0956C16.5466 41.9871 16.4163 41.8631 16.2602 41.8698C16.1916 41.8788 16.1267 41.9065 16.0726 41.9498C16.0186 41.9931 15.9775 42.0504 15.9537 42.1155C15.8058 42.4561 15.9908 42.6183 16.1091 42.9255C16.1337 42.9756 16.139 43.0331 16.124 43.0869C16.1038 43.1283 16.0706 43.1618 16.0294 43.1825C15.66 43.4062 15.1997 43.3534 14.7709 43.3461C14.3421 43.3387 13.8513 43.4194 13.6223 43.7951C13.4398 44.0915 13.486 44.4984 13.6696 44.7982C13.8532 45.098 14.1448 45.3082 14.4515 45.4641C15.2238 45.8519 16.0459 45.8995 16.8617 45.8271C17.4436 45.772 18.0427 45.6749 18.6347 45.6366C18.9219 45.6152 19.2103 45.6157 19.4974 45.6381C19.7814 45.6633 20.0644 45.7388 20.3509 45.7044C20.6375 45.67 20.8179 45.3882 20.9496 45.1255C21.2303 44.5709 21.2044 43.8741 21.1151 43.2753C21.1103 43.2056 21.0889 43.138 21.0527 43.0782C20.9882 43.0064 20.8992 42.9613 20.8032 42.9516C20.4464 42.879 20.0815 42.938 19.7235 42.9418Z" fill="#FDB082"/>
<path fill-rule="evenodd" clip-rule="evenodd" d="M35.8865 44.7748C30.8357 46.7824 22.8682 46.3105 20.3042 45.7486L20.4665 42.9893C21.4988 42.7909 31.9834 40.8023 34.2416 40.5545C36.4203 40.7143 36.6487 43.6097 35.8865 44.7748Z" fill="#FDB082"/>
<path d="M16.1332 49.0933C15.8946 49.2323 15.8137 49.5384 15.9527 49.777L18.2168 53.6659C18.3557 53.9046 18.6618 53.9854 18.9005 53.8464C19.1391 53.7075 19.2199 53.4014 19.081 53.1628L17.0684 49.706L20.5253 47.6934C20.7639 47.5545 20.8447 47.2484 20.7058 47.0097C20.5668 46.7711 20.2608 46.6902 20.0221 46.8292L16.1332 49.0933ZM16.2571 50.0089C20.6572 51.1707 24.0988 51.8978 27.435 51.9657C30.7828 52.0339 33.9981 51.4384 37.9568 49.9952L37.6143 49.0557C33.7449 50.4663 30.6538 51.0311 27.4553 50.9659C24.2452 50.9006 20.9004 50.2007 16.5124 49.042L16.2571 50.0089Z" fill="#AFB1B6"/>
<path d="M43.4288 27.9087C43.4288 27.9087 38.1281 28.462 36.9082 30.6256C38.5384 33.3425 39.6251 35.516 39.6251 38.2329C39.6251 48.6503 37.8138 55.9833 37.4516 63.2283L53.753 64.3151L58.6434 58.8813C58.6434 58.8813 55.3831 45.2968 56.4699 36.6028C56.7053 34.7194 58.1 31.169 58.1 31.169C57.5566 30.0822 54.8397 27.9087 51.5794 27.9087C48.1018 31.821 44.6966 29.5388 43.4288 27.9087Z" fill="white"/>
</g>
<defs>
<linearGradient id="paint0_linear_73_6335" x1="0" y1="0" x2="59.5" y2="60" gradientUnits="userSpaceOnUse">
<stop stop-color="#DEE6E8"/>
<stop offset="1" stop-color="#E4EAEB"/>
</linearGradient>
<clipPath id="clip0_73_6335">
<rect width="56" height="56" rx="8.35821" fill="white"/>
</clipPath>
</defs>
</svg>
