<svg width="119" height="148" viewBox="0 0 119 148" fill="none" xmlns="http://www.w3.org/2000/svg">
<rect x="0.5" y="0.5" width="118" height="147" rx="20.5" fill="#312921" fill-opacity="0.65"/>
<rect x="0.5" y="0.5" width="118" height="147" rx="20.5" stroke="white"/>
<path d="M56.8736 70.3622C56.8736 70.3622 59.2377 76.6104 60.3099 88.4213C61.3821 100.232 60.5979 114.555 60.5979 114.555L36.9724 117.576C36.9724 117.576 37.6318 96.8015 37.3036 89.1836C36.9753 81.5657 38.8528 68.1321 41.7075 63.5787C46.3178 60.5113 53.9603 63.3153 56.8736 70.3622Z" fill="white"/>
<path d="M48.0196 55.456V59.3789H51.837L52.1941 55.456H48.0196Z" fill="#FDB082"/>
<path d="M48.0195 55.4562V59.3791H43.5926L44.7502 51.1066L48.0195 55.4562Z" fill="#FDB082"/>
<path opacity="0.51" d="M48.0196 55.456V59.3789H51.837L52.1941 55.456H48.0196Z" fill="#E98146"/>
<path opacity="0.51" d="M48.0195 55.4562V59.3791H43.5926L44.7502 51.1066L48.0195 55.4562Z" fill="#E98146"/>
<path d="M56.9935 45.3446C56.9935 45.3446 57.2239 46.8115 57.6309 47.3498C58.0379 47.8881 58.6138 47.9554 58.7731 48.2149C58.9325 48.4744 59.1878 48.9503 58.5207 49.5982C57.8536 50.246 56.8064 49.999 56.8064 49.999C56.8064 49.999 56.264 45.7829 56.9935 45.3446Z" fill="#FDB082"/>
<path d="M56.4714 39.5608C55.3397 35.5408 50.4856 35.0025 49.0803 34.9266C45.6334 34.7343 40.6123 35.7311 39.0976 39.6213C37.82 42.8896 37.198 47.8141 42.9678 52.8866C48.7376 57.9592 56.4253 57.5968 56.4253 57.5968C56.4253 57.5968 57.7087 57.3613 57.8008 52.903C57.867 49.7049 57.0713 48.2688 56.9983 45.4879C56.934 43.0934 57.222 42.2302 56.4714 39.5608Z" fill="#FDB082"/>
<path d="M58.7884 48.3679C58.7999 48.5986 58.5753 48.7966 58.2874 48.81C57.9994 48.8235 57.7575 48.6476 57.7469 48.4169C57.7364 48.1862 57.961 47.9891 58.248 47.9747C58.535 47.9603 58.7778 48.1372 58.7884 48.3679Z" fill="#FFC7AB"/>
<path d="M58.7731 48.2199C58.8866 48.3633 58.9657 48.5308 59.0045 48.7096C59.0433 48.8884 59.0406 49.0737 58.9968 49.2513C58.8547 49.8809 58.3441 50.2548 57.2344 50.3413C56.885 49.9309 57.1586 49.904 57.1586 49.904C57.1586 49.904 59.446 49.5906 58.7731 48.2199ZM47.7777 46.9577C47.7777 46.9577 47.485 45.5437 46.4598 45.4736C45.4347 45.4034 44.6418 46.5367 44.7618 47.7806C44.8818 49.0244 45.6449 50.8566 46.6067 51.4035C47.5685 51.9505 48.1425 50.9181 48.1425 50.9181L47.7777 46.9577Z" fill="#E98146"/>
<path d="M47.7778 46.9577C47.7778 46.9577 47.1251 45.3024 46.1009 45.8042C45.0767 46.306 44.6428 47.4835 45.3944 49.3954C46.146 51.3074 47.534 52.3753 48.37 50.4961C49.2061 48.6168 47.7778 46.9577 47.7778 46.9577Z" fill="#FDB082"/>
<path d="M45.6258 48.2898C45.6258 48.2898 45.0988 47.0402 45.9445 46.5865C46.7901 46.1328 47.4399 47.9505 47.0502 50.047C47.1309 48.6935 46.8458 47.4016 46.4417 46.8998C46.0376 46.3981 45.31 46.9287 45.6258 48.2898Z" fill="#E98146"/>
<path d="M46.1182 48.7841C46.0199 48.4152 46.0507 48.0237 46.2055 47.6748C46.4676 47.1182 46.7479 47.3076 46.7479 47.3076L46.8275 47.5133C46.8275 47.5133 46.218 47.2778 46.1182 48.7841Z" fill="#E98146"/>
<path d="M55.1429 37.2595C54.4634 37.052 53.7559 36.9512 53.0456 36.9606C51.9158 36.9875 50.0479 37.6536 49.2166 40.6075C48.3854 43.5615 49.7177 46.8845 49.6879 47.1345C49.6582 47.3844 48.1627 47.5343 48.1627 47.5343C48.1627 47.5343 47.9448 45.8175 46.8908 45.3436C45.8369 44.8697 44.4739 46.0357 44.5439 47.5209C44.614 49.006 45.5105 51.5062 46.9571 51.7273C46.2228 53.398 43.8979 54.0007 43.8979 54.0007C43.8979 54.0007 40.6977 52.1224 38.5303 50.3422C36.2928 48.5042 35.7966 46.7259 35.7207 45.5157C35.6977 45.1591 34.5449 42.6319 35.2024 40.2288C35.8599 37.8257 37.198 37.1201 37.198 37.1201C37.198 37.1201 37.9918 33.1155 43.5793 31.962C47.9736 31.0565 50.3944 32.9166 50.7544 32.9819C51.1143 33.0473 55.6372 34.916 55.1429 37.2595Z" fill="#D2663A"/>
<path d="M51.9427 34.8324C51.9427 34.8324 50.3349 31.193 45.8273 31.0248C41.3198 30.8566 41.2919 31.5775 39.2023 32.1543C37.1126 32.7311 36.0222 31.3565 36.0222 31.3565C36.0222 31.3565 35.9099 33.6635 38.2846 33.7788C37.4207 34.3017 36.2775 33.3386 36.2775 33.3386C36.2775 33.3386 36.8938 34.3556 37.4707 34.6036C38.0475 34.8516 38.4056 34.8324 38.4056 34.8324L37.3478 35.0381L37.7529 35.3485L37.0809 37.496L51.9427 34.8324Z" fill="#D2663A"/>
<path d="M41.7056 63.5787C41.5491 63.7642 45.0537 62.4896 48.9575 63.2605C52.8613 64.0314 56.8736 70.3622 56.8736 70.3622C56.8736 70.3622 55.7553 67.4189 54.4278 64.637C53.1003 61.8552 51.721 60.6555 51.8362 59.379H43.5918C43.5918 59.379 42.7548 62.3271 41.7056 63.5787Z" fill="#FDB082"/>
<path d="M41.4983 63.9267C41.4983 63.9267 44.3252 63.1914 47.1981 63.274C50.071 63.3567 51.7201 64.8986 52.6953 65.8483C53.6706 66.798 55.4166 68.7782 57.0868 70.9794C57.1827 71.2736 57.2922 71.6273 57.2922 71.6273C57.2922 71.6273 54.1659 67.816 52.7232 66.3404C51.2805 64.8649 49.8435 63.8864 46.7441 63.698C43.6446 63.5095 41.2277 64.4381 41.2277 64.4381L41.4983 63.9267Z" fill="#F95C46"/>
<path d="M72.8434 32.0016C72.4408 31.9042 72.0354 32.1515 71.938 32.5541L70.3499 39.1147C70.2525 39.5172 70.4998 39.9226 70.9024 40.0201C71.305 40.1175 71.7104 39.8702 71.8078 39.4676L73.2194 33.636L79.051 35.0476C79.4536 35.145 79.859 34.8977 79.9564 34.4951C80.0539 34.0925 79.8065 33.6871 79.4039 33.5897L72.8434 32.0016ZM73.2799 117.921C73.442 117.691 73.6027 117.461 73.7621 117.229L72.5268 116.378C72.3705 116.605 72.2129 116.831 72.0539 117.057L73.2799 117.921ZM74.7021 115.833C75.0111 115.363 75.3146 114.89 75.6125 114.415L74.3414 113.618C74.0492 114.084 73.7517 114.548 73.4487 115.009L74.7021 115.833ZM76.4908 112.977C76.7786 112.495 77.0608 112.009 77.3373 111.521L76.032 110.782C75.761 111.26 75.4845 111.736 75.2024 112.209L76.4908 112.977ZM78.151 110.045C78.4168 109.55 78.6768 109.052 78.9309 108.552L77.5935 107.873C77.3445 108.363 77.0898 108.851 76.8294 109.336L78.151 110.045ZM79.6768 107.04C79.9197 106.534 80.1567 106.024 80.3877 105.512L79.0204 104.895C78.7942 105.397 78.5621 105.896 78.3241 106.392L79.6768 107.04ZM81.0628 103.968C81.282 103.451 81.495 102.931 81.7019 102.408L80.3073 101.856C80.1048 102.367 79.8961 102.877 79.6816 103.383L81.0628 103.968ZM82.3041 100.834C82.4987 100.307 82.687 99.7773 82.869 99.2455L81.4499 98.7597C81.2717 99.2803 81.0873 99.7986 80.8969 100.315L82.3041 100.834ZM83.3959 97.6443C83.5651 97.1087 83.728 96.5708 83.8846 96.0307L82.4438 95.6132C82.2907 96.1417 82.1312 96.6682 81.9656 97.1925L83.3959 97.6443ZM84.3344 94.4057C84.4777 93.8628 84.6146 93.3178 84.7449 92.7708L83.2858 92.423C83.1582 92.9583 83.0243 93.4916 82.8841 94.0229L84.3344 94.4057ZM85.1162 91.1256C85.2332 90.5766 85.3436 90.0256 85.4475 89.4727L83.9733 89.1957C83.8716 89.7367 83.7636 90.2759 83.6491 90.8131L85.1162 91.1256ZM85.7388 87.8124C85.8292 87.258 85.9131 86.7017 85.9903 86.1437L84.5044 85.9381C84.4289 86.4842 84.3468 87.0285 84.2584 87.571L85.7388 87.8124ZM86.2011 84.4724C86.2646 83.9149 86.3215 83.3557 86.3718 82.7949L84.8778 82.6609C84.8286 83.2098 84.7729 83.7571 84.7107 84.3026L86.2011 84.4724ZM86.5023 81.1132C86.5389 80.5541 86.569 79.9934 86.5924 79.4312L85.0937 79.3687C85.0708 79.919 85.0414 80.4678 85.0055 81.0151L86.5023 81.1132ZM86.6427 77.7447C86.6527 77.1846 86.6562 76.623 86.653 76.0601L85.153 76.0685C85.1561 76.6197 85.1528 77.1695 85.1429 77.7178L86.6427 77.7447ZM86.6238 74.3753C86.6075 73.8144 86.5846 73.2523 86.5552 72.6889L85.0572 72.7673C85.0861 73.3191 85.1085 73.8696 85.1244 74.4188L86.6238 74.3753ZM86.4479 71.0098C86.4057 70.4509 86.357 69.8908 86.3018 69.3295L84.809 69.4765C84.8631 70.0264 84.9108 70.5751 84.9521 71.1226L86.4479 71.0098ZM86.1179 67.6554C86.0505 67.1 85.9767 66.5436 85.8964 65.9861L84.4118 66.1999C84.4904 66.7463 84.5628 67.2917 84.6288 67.836L86.1179 67.6554ZM85.6374 64.3186C85.5457 63.7679 85.4476 63.2163 85.3431 62.6638L83.8692 62.9424C83.9717 63.4843 84.0679 64.0252 84.1578 64.5652L85.6374 64.3186ZM85.0118 61.0097C84.8962 60.4633 84.7745 59.9162 84.6464 59.3683L83.1858 59.7097C83.3114 60.2473 83.4309 60.7841 83.5443 61.32L85.0118 61.0097ZM84.2459 57.7325C84.1073 57.1907 83.9625 56.6483 83.8115 56.1051L82.3663 56.5069C82.5145 57.0401 82.6567 57.5726 82.7927 58.1044L84.2459 57.7325ZM83.3448 54.4901C83.1839 53.9537 83.017 53.4166 82.8439 52.879L81.4161 53.3386C81.5861 53.8667 81.75 54.3942 81.908 54.921L83.3448 54.4901ZM82.3142 51.2868C82.1322 50.7571 81.9442 50.2269 81.7503 49.6963L80.3414 50.211C80.532 50.7327 80.7167 51.2538 80.8956 51.7743L82.3142 51.2868ZM81.1599 48.1265C80.9581 47.6049 80.7505 47.0829 80.537 46.5605L79.1484 47.1278C79.3584 47.6416 79.5625 48.155 79.761 48.6678L81.1599 48.1265ZM79.888 45.0125C79.6674 44.4993 79.4411 43.9859 79.2092 43.4721L77.842 44.0892C78.0703 44.5949 78.2929 45.1001 78.51 45.605L79.888 45.0125ZM78.5046 41.9473C78.2662 41.4429 78.0222 40.9382 77.7728 40.4333L76.428 41.0977C76.6736 41.5949 76.9138 42.0918 77.1485 42.5884L78.5046 41.9473ZM77.0158 38.9331C76.7604 38.4376 76.4998 37.9418 76.2337 37.4459L74.9119 38.1549C75.174 38.6436 75.4308 39.132 75.6824 39.6202L77.0158 38.9331ZM75.4273 35.9716C75.156 35.4849 74.8795 34.9981 74.5978 34.5112L73.2994 35.2625C73.5772 35.7425 73.8498 36.2224 74.1172 36.702L75.4273 35.9716ZM73.7451 33.0638C73.6004 32.8225 73.4544 32.5812 73.3071 32.3399L72.0267 33.1213C72.172 33.3593 72.3159 33.5973 72.4586 33.8352L73.7451 33.0638Z" fill="white"/>
</svg>
