<svg width="56" height="56" viewBox="0 0 56 56" fill="none" xmlns="http://www.w3.org/2000/svg">
<g clip-path="url(#clip0_73_5971)">
<rect width="56" height="56" rx="8.35821" fill="url(#paint0_linear_73_5971)"/>
<path d="M28.4174 11.7881C28.4387 11.7604 28.4579 11.7311 28.4749 11.7005C28.9378 10.8513 27.2171 10.4483 26.6979 10.442C26.0115 10.4404 25.3358 10.6124 24.7337 10.942C24.1316 11.2716 23.6226 11.7481 23.2541 12.3272C22.707 13.2075 22.5167 14.275 21.9529 15.1453C20.9765 16.6532 18.8482 17.2852 17.2072 16.5555C18.2058 16.1164 18.7324 15.0028 18.9485 13.9334C19.1647 12.864 19.1605 11.7477 19.5109 10.714C20.1933 8.70321 22.2592 7.29158 24.3824 7.23801C26.5056 7.18444 28.5749 8.41123 29.6803 10.2242C29.9097 10.5998 30.1359 11.0282 30.5475 11.1839C30.7355 11.2414 30.9308 11.2714 31.1275 11.2729C33.6754 11.47 35.8534 13.5804 36.4727 16.0589C36.9448 17.9496 36.589 19.9694 35.7161 21.6902C34.8286 23.4397 33.1826 24.2301 31.2095 24.2497C29.5815 24.2648 28.0141 23.6325 26.8521 22.492C25.6902 21.3515 25.0288 19.7962 25.0135 18.1681C24.9923 15.8882 25.9725 13.5003 27.9031 12.2077C28.0911 12.0828 28.2875 11.9629 28.4174 11.7881Z" fill="#D2663A"/>
<path d="M25.0277 29.2837C24.6761 28.9292 20.9266 29.8962 20.2666 31.5462C19.7716 33.3613 22.0222 33.4214 20.1016 33.695C19.7716 35.8364 19.261 35.1972 19.261 35.1972L19.6469 38.0624L19.2123 39.6867C20.1261 39.7928 21.0492 39.7896 21.9622 39.6772L17.5113 38.9916L21.5877 38.492C22.141 38.4234 22.7503 38.2118 23.2984 38.2169C24.1753 38.2247 25.1181 38.6455 26.0138 38.7249C26.1813 38.7401 26.361 38.7488 26.5012 38.6545C26.6415 38.5602 26.7196 38.3608 26.7618 38.1754C27.0576 36.8895 26.509 35.5519 25.9598 34.3467C25.2602 32.8202 26.1636 30.4331 25.0277 29.2837Z" fill="#FDB082"/>
<path fill-rule="evenodd" clip-rule="evenodd" d="M15.9763 41.8991C16.5014 42.778 18.8821 45.0316 19.392 45.572C21.6137 44.635 24.0052 35.2348 24.8867 32.5503C22.8543 31.8501 22.234 32.9104 20.2665 31.5464C18.7536 35.1301 16.7819 38.0452 15.9763 41.8991Z" fill="#FDB082"/>
<path d="M33.1119 32.5556C33.1119 32.5556 36.859 42.6366 37.6938 46.1598C38.5285 49.6829 40.8518 62.3673 40.8518 62.3673L43.6714 61.7239L43.7711 46.6322C43.7778 45.6415 43.6748 44.6531 43.4638 43.685L41.0569 32.6311C40.8412 31.6407 39.859 31.0166 38.8708 31.242L33.1119 32.5556Z" fill="#FDB082"/>
<path d="M28.6632 28.534C28.8469 28.4288 29.0047 28.2836 29.125 28.1093C29.4366 27.6341 29.4704 27.0068 29.4735 26.4558C29.4747 26.1561 29.4583 25.856 29.4431 25.5563C29.4318 25.3514 29.4767 25.0273 29.4145 24.8423C29.3228 24.5725 29.1254 24.3376 28.9484 24.1196C26.6341 21.2969 25.9572 15.0603 31.0996 14.8571C31.9772 14.8224 32.8495 15.1753 33.5055 15.7568C34.674 16.7924 35.2037 18.6542 35.1422 20.178C35.089 21.2657 34.728 22.3159 34.1013 23.2064C33.799 23.6376 33.3662 23.9628 33.0785 24.403C32.7769 24.8642 32.8435 25.2365 32.8594 25.7443C32.8883 26.694 32.6713 27.7683 33.5716 28.3828C34.0655 28.7212 34.6304 28.7435 35.1972 28.8643C35.773 28.9844 36.3336 29.1685 36.8685 29.4133C37.386 29.6571 37.6858 29.884 37.8888 30.4362C38.1354 31.109 38.2062 31.8771 38.2594 32.586C38.2882 32.9648 38.3142 33.3484 38.2451 33.7233C38.1321 34.3733 37.7402 34.9487 37.2771 35.4216C36.0902 36.6328 34.3984 37.2639 32.7079 37.4053C31.0174 37.5467 29.32 37.2337 27.6888 36.7755C27.1824 36.633 26.6692 36.4729 26.2423 36.1653C25.8155 35.8576 25.5122 35.4411 25.2489 35.0025C25.2469 34.7885 24.8954 34.3541 24.8008 34.1451C24.6602 33.833 24.5389 33.5126 24.4376 33.1856C24.3096 32.7712 24.222 32.3337 24.0325 31.9452C23.858 31.5879 23.781 31.1909 23.8093 30.7943C23.8086 30.6858 23.8338 30.5788 23.8827 30.4819C23.9595 30.3718 24.0644 30.2842 24.1864 30.2283C25.0472 29.7394 25.8972 29.2841 26.8635 29.077C27.4617 28.9496 28.1296 28.8573 28.6632 28.534Z" fill="#FDB082"/>
<path d="M26.9707 28.2734C26.9707 28.2734 21.9948 28.7921 20.8496 30.82C22.3799 33.3665 22.7844 35.4011 22.7844 37.9476C22.7844 47.7117 21.6998 54.5875 21.3597 61.3782L36.6625 62.3968L41.2533 57.3038C41.2533 57.3038 38.1927 44.5712 39.2129 36.4223C39.4339 34.6571 40.7432 31.3293 40.7432 31.3293C40.2331 30.3107 37.6826 28.2734 34.6221 28.2734C31.3575 31.9404 28.1609 29.8014 26.9707 28.2734Z" fill="white"/>
<path d="M32.7681 17.1964C31.8373 16.5342 30.9274 15.7986 30.5608 14.734C30.3101 15.4451 29.975 15.8956 29.3777 16.3659C28.7644 16.8489 28.1614 17.3655 27.7278 18.0151C27.2943 18.6646 27.0443 19.4691 27.1995 20.2345C26.7488 19.8214 26.5169 19.2164 26.4509 18.6061C26.3316 17.4889 26.6283 16.3953 27.0354 15.3706C27.4425 14.3459 27.9676 13.2944 28.9211 12.7656C29.64 12.367 30.5218 12.3288 31.3169 12.5384C32.112 12.748 32.8299 13.1851 33.4765 13.6932C34.3184 14.3535 35.0754 15.1627 35.4879 16.1496C35.6267 16.4836 36.0283 16.7901 36.0542 17.1288C36.1419 18.3501 35.8972 19.5724 35.3462 20.6659C35.5402 19.7135 34.8913 18.784 34.1315 18.1788C33.7174 17.8496 33.2397 17.5316 32.7681 17.1964Z" fill="#D2663A"/>
<path d="M30.9561 42.8837C31.0012 42.8847 31.0437 42.8838 31.0905 42.8828C31.5528 42.8681 32.0333 42.9596 32.4887 42.8528C33.0766 42.7151 33.6196 42.4297 34.0662 42.0234C34.1856 41.9132 34.3181 41.7871 34.4767 41.7939C34.5465 41.8031 34.6125 41.8312 34.6674 41.8753C34.7224 41.9193 34.7642 41.9776 34.7883 42.0437C34.9387 42.3899 34.7507 42.5548 34.6303 42.8671C34.6054 42.9181 34.6 42.9765 34.6152 43.0312C34.6358 43.0733 34.6695 43.1074 34.7113 43.1284C35.0869 43.3559 35.5549 43.3022 35.9907 43.2947C36.4266 43.2872 36.9256 43.3692 37.1584 43.7512C37.3439 44.0524 37.2969 44.4662 37.1103 44.7709C36.9237 45.0757 36.6272 45.2893 36.3154 45.4479C35.5303 45.8421 34.6946 45.8904 33.8653 45.8169C33.2737 45.7609 32.6647 45.6621 32.0629 45.6231C31.771 45.6015 31.4778 45.602 31.1859 45.6247C30.8972 45.6503 30.6095 45.7271 30.3182 45.6921C30.0269 45.6571 29.8435 45.3707 29.7096 45.1036C29.4243 44.5398 29.4506 43.8315 29.5413 43.2228C29.5462 43.1519 29.568 43.0832 29.6048 43.0223C29.6703 42.9494 29.7608 42.9035 29.8584 42.8936C30.2212 42.8199 30.5921 42.8799 30.9561 42.8837Z" fill="#FDB082"/>
<path fill-rule="evenodd" clip-rule="evenodd" d="M15.8109 44.747C20.9454 46.7879 29.5204 46.0884 32.127 45.5171L31.7718 43.058C30.7224 42.8564 20.2516 40.7087 17.956 40.4569C15.7412 40.6193 15.036 43.5626 15.8109 44.747Z" fill="#FDB082"/>
<path d="M20.8749 48.8307C21.0576 48.6237 21.0379 48.3077 20.8309 48.1249L17.4571 45.1471C17.2501 44.9643 16.9341 44.984 16.7514 45.1911C16.5686 45.3981 16.5883 45.7141 16.7954 45.8968L19.7943 48.5438L17.1473 51.5427C16.9645 51.7497 16.9842 52.0657 17.1913 52.2484C17.3983 52.4312 17.7143 52.4115 17.897 52.2045L20.8749 48.8307ZM7.02566 43.1579C8.12733 46.4629 12.1535 49.521 20.5311 48.9988L20.4689 48.0008C12.3219 48.5086 8.87267 45.5367 7.97434 42.8417L7.02566 43.1579Z" fill="#AFB1B6"/>
</g>
<defs>
<linearGradient id="paint0_linear_73_5971" x1="0" y1="0" x2="59.5" y2="60" gradientUnits="userSpaceOnUse">
<stop stop-color="#DEE6E8"/>
<stop offset="1" stop-color="#E4EAEB"/>
</linearGradient>
<clipPath id="clip0_73_5971">
<rect width="56" height="56" rx="8.35821" fill="white"/>
</clipPath>
</defs>
</svg>
