<svg width="78" height="212" viewBox="0 0 78 212" fill="none" xmlns="http://www.w3.org/2000/svg">
<path d="M37.9906 103.266C37.9906 103.266 42.0968 114.102 43.959 134.587C45.8212 155.071 44.4591 179.911 44.4591 179.911L3.42578 185.151C3.42578 185.151 4.57111 149.121 4.00094 135.909C3.43078 122.697 6.69171 99.3982 11.6498 91.501C19.6571 86.1812 32.9308 91.0442 37.9906 103.266Z" fill="white"/>
<path d="M22.6133 77.4136V84.2172H29.2435L29.8637 77.4136H22.6133Z" fill="#FDB082"/>
<path d="M22.6127 77.4139V84.2175H14.9238L16.9344 69.8701L22.6127 77.4139Z" fill="#FDB082"/>
<path opacity="0.51" d="M22.6133 77.4136V84.2172H29.2435L29.8637 77.4136H22.6133Z" fill="#E98146"/>
<path opacity="0.51" d="M22.6127 77.4139V84.2175H14.9238L16.9344 69.8701L22.6127 77.4139Z" fill="#E98146"/>
<path d="M38.1989 59.877C38.1989 59.877 38.599 62.421 39.3059 63.3546C40.0128 64.2882 41.013 64.4049 41.2898 64.855C41.5665 65.3052 42.01 66.1304 40.8513 67.254C39.6927 68.3777 37.8738 67.9492 37.8738 67.9492C37.8738 67.9492 36.9319 60.6372 38.1989 59.877Z" fill="#FDB082"/>
<path d="M37.292 49.8458C35.3264 42.8738 26.8957 41.9402 24.455 41.8085C18.4683 41.4751 9.7475 43.2039 7.11676 49.9508C4.89779 55.6191 3.81749 64.1599 13.8387 72.9574C23.8598 81.7549 37.212 81.1264 37.212 81.1264C37.212 81.1264 39.4409 80.7179 39.601 72.9857C39.716 67.4391 38.334 64.9484 38.2072 60.1254C38.0956 55.9725 38.5957 54.4755 37.292 49.8458Z" fill="#FDB082"/>
<path d="M41.3163 65.1203C41.3363 65.5204 40.9462 65.8638 40.4461 65.8872C39.9459 65.9105 39.5258 65.6054 39.5075 65.2053C39.4891 64.8052 39.8792 64.4634 40.3777 64.4384C40.8762 64.4134 41.298 64.7202 41.3163 65.1203Z" fill="#FFC7AB"/>
<path d="M41.2897 64.8636C41.4868 65.1123 41.6243 65.4028 41.6916 65.7129C41.759 66.023 41.7544 66.3444 41.6782 66.6524C41.4314 67.7444 40.5445 68.3929 38.6173 68.543C38.0105 67.8311 38.4856 67.7844 38.4856 67.7844C38.4856 67.7844 42.4584 67.2409 41.2897 64.8636ZM22.1926 62.6746C22.1926 62.6746 21.6842 60.2223 19.9037 60.1006C18.1232 59.9789 16.7461 61.9444 16.9545 64.1017C17.1629 66.259 18.4883 69.4366 20.1587 70.3852C21.8292 71.3338 22.8262 69.5433 22.8262 69.5433L22.1926 62.6746Z" fill="#E98146"/>
<path d="M22.1924 62.6746C22.1924 62.6746 21.0587 59.8038 19.2799 60.674C17.501 61.5443 16.7475 63.5865 18.0529 66.9025C19.3582 70.2184 21.7689 72.0706 23.221 68.8113C24.6731 65.5521 22.1924 62.6746 22.1924 62.6746Z" fill="#FDB082"/>
<path d="M18.4546 64.9849C18.4546 64.9849 17.5393 62.8176 19.0081 62.0308C20.4768 61.2439 21.6055 64.3964 20.9286 68.0325C21.0687 65.6851 20.5735 63.4445 19.8717 62.5742C19.1698 61.704 17.9061 62.6243 18.4546 64.9849Z" fill="#E98146"/>
<path d="M19.3099 65.8421C19.1392 65.2023 19.1927 64.5234 19.4616 63.9182C19.9167 62.953 20.4036 63.2814 20.4036 63.2814L20.5419 63.6382C20.5419 63.6382 19.4833 63.2297 19.3099 65.8421Z" fill="#E98146"/>
<path d="M34.9847 45.8546C33.8045 45.4948 32.5757 45.3199 31.342 45.3362C29.3798 45.3828 26.1355 46.5382 24.6918 51.6613C23.2481 56.7844 25.562 62.5477 25.5104 62.9812C25.4587 63.4146 22.8613 63.6747 22.8613 63.6747C22.8613 63.6747 22.4828 60.6972 20.6523 59.8753C18.8218 59.0534 16.4545 61.0756 16.5762 63.6514C16.6979 66.2271 18.255 70.5633 20.7674 70.9468C19.492 73.8442 15.4542 74.8895 15.4542 74.8895C15.4542 74.8895 9.89593 71.632 6.13153 68.5444C2.24543 65.3568 1.38352 62.2726 1.25181 60.1737C1.2118 59.5552 -0.790433 55.1723 0.351558 51.0044C1.49355 46.8366 3.81754 45.6129 3.81754 45.6129C3.81754 45.6129 5.19627 38.6676 14.9007 36.667C22.5329 35.0966 26.7374 38.3225 27.3626 38.4359C27.9877 38.5492 35.8433 41.7901 34.9847 45.8546Z" fill="#D2663A"/>
<path d="M29.4261 41.6451C29.4261 41.6451 26.6336 35.3333 18.8047 35.0416C10.9758 34.7498 10.9275 36.0002 7.29813 37.0005C3.66876 38.0008 1.77489 35.6168 1.77489 35.6168C1.77489 35.6168 1.57984 39.6179 5.70434 39.8179C4.20392 40.7249 2.21835 39.0544 2.21835 39.0544C2.21835 39.0544 3.28866 40.8182 4.29061 41.2484C5.29256 41.6785 5.9144 41.6451 5.9144 41.6451L4.07721 42.0019L4.78075 42.5404L3.61375 46.2648L29.4261 41.6451Z" fill="#D2663A"/>
<path d="M11.6465 91.501C11.3747 91.8228 17.4614 89.6122 24.2417 90.9492C31.022 92.2862 37.9906 103.266 37.9906 103.266C37.9906 103.266 36.0484 98.1612 33.7427 93.3365C31.4371 88.5118 29.0414 86.4312 29.2415 84.2173H14.9224C14.9224 84.2173 13.4686 89.3304 11.6465 91.501Z" fill="#FDB082"/>
<path d="M11.2865 92.1047C11.2865 92.1047 16.1963 90.8293 21.186 90.9727C26.1758 91.116 29.0399 93.7901 30.7337 95.4373C32.4275 97.0844 35.4601 100.519 38.3609 104.336C38.5276 104.847 38.7177 105.46 38.7177 105.46C38.7177 105.46 33.2878 98.8499 30.7821 96.2908C28.2764 93.7318 25.7807 92.0346 20.3975 91.7079C15.0143 91.3811 10.8164 92.9916 10.8164 92.9916L11.2865 92.1047Z" fill="#F95C46"/>
<path d="M26.4285 20.9138L26.5008 18.0715C26.5008 18.0715 24.7699 16.5702 24.3602 14.7837C23.9504 12.9973 23.8518 11.0252 23.481 9.73048C23.1103 8.43575 22.64 7.74184 23.2396 7.61804C23.8392 7.49425 24.5601 8.25224 24.8145 9.05105C25.0688 9.84985 25.5139 11.802 25.8594 11.811C26.2049 11.8199 26.3521 10.4831 26.0983 9.02711C25.8446 7.57112 25.2271 3.67411 25.3701 2.5289C25.5132 1.38369 26.8605 1.55349 27.1897 4.48795C27.5188 7.42241 27.877 10.2744 28.25 10.2822C28.623 10.29 28.7131 9.06396 28.8728 7.29046C29.0325 5.51696 28.9885 2.29275 29.3223 1.50739C29.6561 0.722029 31.1171 0.951249 30.8763 3.67852C30.6355 6.40579 30.6832 10.2097 30.8896 9.99555C31.0959 9.78137 31.66 4.5194 31.919 3.34894C32.178 2.17848 33.6776 2.02578 33.4113 4.58938C33.145 7.15296 32.6844 10.6416 32.8823 10.7544C33.0802 10.8671 33.3229 10.2739 33.5852 9.10414C33.8474 7.93435 34.3019 5.75904 34.5691 5.38382C34.8362 5.0086 35.6639 5.32734 35.3956 6.85346C35.1272 8.37959 34.4158 12.378 34.2935 12.9247C34.1712 13.4714 33.5249 16.0768 33.3369 16.7018C33.1489 17.3268 32.47 18.0198 32.4575 18.5622L32.3945 21.0574L26.4285 20.9138ZM38.0178 60.5581C38.0178 60.5581 38.1588 81.6486 34.3433 98.096C30.5278 114.543 25.466 119.014 18.5233 116.961C11.5807 114.908 10.0493 107.728 12.3835 98.0935C14.7177 88.4592 21.4694 60.2789 23.5636 56.6569C25.6577 53.0349 37.4066 52.0663 38.0178 60.5581Z" fill="#FDB082"/>
<path d="M26.5011 18.0717C26.5011 18.0717 23.4078 52.507 22.818 58.4159C22.2283 64.3247 36.5193 68.2737 38.0181 60.5583C39.5169 52.8429 32.4862 17.4444 32.4862 17.4444L26.5011 18.0717Z" fill="#FDB082"/>
<path d="M33.5017 191.686L34.0102 194.483C34.0102 194.483 36.0108 195.6 36.776 197.266C37.5412 198.931 38.0397 200.842 38.6665 202.034C39.2934 203.226 39.8952 203.809 39.3334 204.053C38.7716 204.296 37.9113 203.701 37.4995 202.971C37.0878 202.24 36.2542 200.42 35.9141 200.482C35.574 200.543 35.7024 201.882 36.2475 203.256C36.7927 204.629 38.1914 208.319 38.2848 209.469C38.3781 210.619 37.0244 210.728 36.1042 207.922C35.1839 205.116 34.252 202.397 33.8852 202.465C33.5184 202.534 33.6801 203.753 33.8852 205.521C34.0902 207.29 34.7904 210.438 34.6237 211.275C34.457 212.112 32.9799 212.185 32.6598 209.466C32.3397 206.747 31.5178 203.032 31.3595 203.284C31.2011 203.536 31.7212 208.802 31.7062 210.001C31.6912 211.2 30.2542 211.655 29.9924 209.091C29.7307 206.527 29.4706 203.017 29.2539 202.947C29.0371 202.877 28.9204 203.507 28.9021 204.706C28.8838 205.905 28.8821 208.127 28.697 208.549C28.512 208.971 27.6367 208.827 27.5884 207.279C27.54 205.73 27.4217 201.67 27.43 201.11C27.4384 200.55 27.5401 197.868 27.5967 197.217C27.6534 196.567 28.1769 195.75 28.0785 195.217L27.6317 192.761L33.5017 191.686ZM14.0762 155.235C14.0762 155.235 9.63997 134.616 10.0234 117.736C10.4069 100.857 14.4513 95.4484 21.6667 96.0436C28.8821 96.6388 31.8446 103.356 31.5229 113.263C31.2011 123.171 30.3342 152.136 29.0221 156.109C27.7101 160.082 16.4052 163.424 14.0762 155.235Z" fill="#FDB082" fill-opacity="0.5"/>
<path d="M34.0098 194.483C34.0098 194.483 30.0203 160.14 29.3935 154.235C28.7666 148.33 13.9707 147.376 14.0758 155.235C14.1808 163.094 28.2781 196.317 28.2781 196.317L34.0098 194.483Z" fill="#FDB082" fill-opacity="0.5"/>
<path d="M56.1825 42.2725C55.7807 42.1718 55.3733 42.4158 55.2725 42.8175L53.6302 49.3647C53.5294 49.7664 53.7734 50.1738 54.1752 50.2746C54.577 50.3754 54.9844 50.1314 55.0851 49.7296L56.545 43.9099L62.3647 45.3698C62.7664 45.4705 63.1738 45.2265 63.2746 44.8248C63.3754 44.423 63.1314 44.0156 62.7296 43.9148L56.1825 42.2725ZM56.6167 180.427C56.906 180.009 57.1926 179.589 57.4764 179.168L56.2327 178.33C55.9522 178.746 55.6691 179.16 55.3832 179.573L56.6167 180.427ZM59.1472 176.624C59.6947 175.767 60.2311 174.905 60.7564 174.037L59.4731 173.261C58.9543 174.118 58.4243 174.97 57.8834 175.816L59.1472 176.624ZM62.301 171.412C62.8052 170.53 63.298 169.643 63.7793 168.75L62.4589 168.038C61.9836 168.92 61.4968 169.797 60.9988 170.668L62.301 171.412ZM65.1903 166.051C65.6495 165.145 66.097 164.233 66.5326 163.316L65.1778 162.672C64.7477 163.578 64.3058 164.478 63.8523 165.373L65.1903 166.051ZM67.8043 160.548C68.2164 159.62 68.6164 158.687 69.0042 157.748L67.618 157.176C67.2351 158.102 66.8402 159.023 66.4334 159.94L67.8043 160.548ZM70.1312 154.918C70.4944 153.97 70.8453 153.017 71.1837 152.059L69.7694 151.56C69.4354 152.505 69.089 153.446 68.7305 154.381L70.1312 154.918ZM72.1609 149.174C72.4738 148.208 72.7741 147.238 73.0617 146.263L71.623 145.838C71.3392 146.8 71.0428 147.758 70.7339 148.711L72.1609 149.174ZM73.8848 143.33C74.146 142.35 74.3944 141.365 74.6299 140.376L73.1707 140.029C72.9383 141.005 72.6931 141.976 72.4354 142.944L73.8848 143.33ZM75.2963 137.402C75.5049 136.41 75.7005 135.413 75.883 134.413L74.4074 134.144C74.2272 135.131 74.0342 136.114 73.8284 137.094L75.2963 137.402ZM76.3898 131.409C76.5452 130.407 76.6876 129.401 76.8167 128.392L75.3288 128.202C75.2014 129.198 75.0609 130.191 74.9075 131.18L76.3898 131.409ZM77.1634 125.364C77.2652 124.356 77.3539 123.345 77.4294 122.331L75.9336 122.22C75.8591 123.221 75.7715 124.219 75.671 125.213L77.1634 125.364ZM77.6156 119.29C77.6643 118.277 77.6998 117.261 77.722 116.242L76.2223 116.209C76.2004 117.215 76.1654 118.218 76.1173 119.218L77.6156 119.29ZM77.7488 113.199C77.7445 112.187 77.7273 111.172 77.6968 110.154L76.1974 110.199C76.2275 111.204 76.2446 112.206 76.2488 113.206L77.7488 113.199ZM77.5664 107.108C77.5102 106.098 77.4411 105.086 77.3589 104.072L75.8638 104.193C75.945 105.195 76.0133 106.194 76.0687 107.191L77.5664 107.108ZM77.075 101.041C76.968 100.034 76.848 99.0241 76.7151 98.0126L75.2279 98.2081C75.3592 99.2073 75.4777 100.204 75.5834 101.199L77.075 101.041ZM76.2816 95.0012C76.1255 94.0029 75.9567 93.0026 75.7751 92.0005L74.2991 92.268C74.4786 93.2582 74.6454 94.2466 74.7997 95.233L76.2816 95.0012ZM75.1955 89.0061C74.9919 88.0177 74.7759 87.0277 74.5474 86.036L73.0857 86.3729C73.3116 87.3532 73.5251 88.3318 73.7263 89.3086L75.1955 89.0061ZM73.8297 83.0787C73.5796 82.0975 73.3172 81.1148 73.0423 80.1308L71.5976 80.5343C71.8694 81.5074 72.1289 82.479 72.3762 83.4492L73.8297 83.0787ZM72.1932 77.2163C71.8999 76.2495 71.5945 75.2816 71.2771 74.3125L69.8516 74.7794C70.1657 75.7381 70.4677 76.6956 70.7578 77.6518L72.1932 77.2163ZM70.2979 71.4286C69.9637 70.478 69.6179 69.5265 69.2603 68.574L67.856 69.1012C68.2099 70.0439 68.5521 70.9855 68.8828 71.9261L70.2979 71.4286ZM68.1588 65.7305C67.7854 64.7953 67.4006 63.8592 67.0043 62.9224L65.6228 63.5068C66.0151 64.4343 66.3961 65.361 66.7658 66.2868L68.1588 65.7305ZM65.7912 60.1326C65.3793 59.2104 64.9563 58.2876 64.522 57.3642L63.1646 58.0025C63.5948 58.9171 64.0137 59.8311 64.4216 60.7443L65.7912 60.1326ZM63.2044 54.6304C62.7564 53.7231 62.2976 52.8154 61.8278 51.9072L60.4955 52.5964C60.961 53.4963 61.4156 54.3957 61.8594 55.2945L63.2044 54.6304ZM60.4111 49.2287C59.9309 48.3404 59.4402 47.4518 58.9389 46.5629L57.6324 47.2997C58.1293 48.1808 58.6157 49.0616 59.0916 49.942L60.4111 49.2287ZM57.4241 43.931C57.1665 43.4923 56.9063 43.0535 56.6434 42.6146L55.3566 43.3854C55.6172 43.8205 55.8752 44.2556 56.1307 44.6906L57.4241 43.931Z" fill="white"/>
</svg>
