<svg width="56" height="56" viewBox="0 0 56 56" fill="none" xmlns="http://www.w3.org/2000/svg">
<rect width="56" height="56" rx="8.35821" fill="url(#paint0_linear_73_5833)"/>
<path d="M32.4242 23.6229C32.4242 23.6229 33.5343 26.579 34.0378 32.1669C34.5412 37.7548 34.173 44.531 34.173 44.531L23.0791 45.9604C23.0791 45.9604 23.3888 36.1317 23.2346 32.5275C23.0805 28.9234 23.9621 22.5678 25.3026 20.4135C27.4674 18.9623 31.0562 20.2889 32.4242 23.6229Z" fill="white"/>
<path d="M28.2666 16.5706V18.4265H30.0592L30.2268 16.5706H28.2666Z" fill="#FDB082"/>
<path d="M28.2663 16.5706V18.4266H26.1875L26.7311 14.5127L28.2663 16.5706Z" fill="#FDB082"/>
<path opacity="0.51" d="M28.2666 16.5706V18.4265H30.0592L30.2268 16.5706H28.2666Z" fill="#E98146"/>
<path opacity="0.51" d="M28.2663 16.5706V18.4266H26.1875L26.7311 14.5127L28.2663 16.5706Z" fill="#E98146"/>
<path d="M32.4807 11.7866C32.4807 11.7866 32.5889 12.4806 32.78 12.7353C32.9711 12.99 33.2415 13.0218 33.3163 13.1446C33.3912 13.2674 33.5111 13.4925 33.1978 13.799C32.8845 14.1056 32.3928 13.9887 32.3928 13.9887C32.3928 13.9887 32.1381 11.994 32.4807 11.7866Z" fill="#FDB082"/>
<path d="M32.2352 9.05031C31.7037 7.14841 29.4244 6.89373 28.7645 6.8578C27.1459 6.76685 24.7881 7.23846 24.0769 9.07896C23.477 10.6252 23.1849 12.9551 25.8942 15.355C28.6036 17.7548 32.2135 17.5834 32.2135 17.5834C32.2135 17.5834 32.8161 17.472 32.8594 15.3627C32.8905 13.8496 32.5169 13.1702 32.4826 11.8545C32.4524 10.7216 32.5876 10.3132 32.2352 9.05031Z" fill="#FDB082"/>
<path d="M33.3232 13.2169C33.3286 13.3261 33.2231 13.4197 33.0879 13.4261C32.9527 13.4325 32.8391 13.3493 32.8342 13.2401C32.8292 13.131 32.9347 13.0377 33.0694 13.0309C33.2042 13.0241 33.3182 13.1078 33.3232 13.2169Z" fill="#FFC7AB"/>
<path d="M33.3164 13.147C33.3697 13.2148 33.4069 13.2941 33.4251 13.3787C33.4433 13.4632 33.4421 13.5509 33.4215 13.635C33.3548 13.9328 33.115 14.1097 32.5939 14.1507C32.4299 13.9565 32.5583 13.9437 32.5583 13.9437C32.5583 13.9437 33.6324 13.7955 33.3164 13.147ZM28.1533 12.5498C28.1533 12.5498 28.0158 11.8809 27.5344 11.8477C27.0531 11.8145 26.6808 12.3506 26.7371 12.9391C26.7934 13.5276 27.1518 14.3944 27.6034 14.6532C28.055 14.912 28.3246 14.4235 28.3246 14.4235L28.1533 12.5498Z" fill="#E98146"/>
<path d="M28.1526 12.5498C28.1526 12.5498 27.8461 11.7666 27.3652 12.004C26.8843 12.2414 26.6805 12.7985 27.0335 13.7031C27.3864 14.6077 28.0381 15.1129 28.4307 14.2238C28.8233 13.3347 28.1526 12.5498 28.1526 12.5498Z" fill="#FDB082"/>
<path d="M27.1426 13.1801C27.1426 13.1801 26.8951 12.5889 27.2922 12.3742C27.6893 12.1596 27.9945 13.0196 27.8115 14.0114C27.8493 13.3711 27.7155 12.7599 27.5257 12.5225C27.3359 12.2851 26.9943 12.5361 27.1426 13.1801Z" fill="#E98146"/>
<path d="M27.3732 13.4139C27.327 13.2394 27.3415 13.0542 27.4142 12.8891C27.5372 12.6258 27.6689 12.7154 27.6689 12.7154L27.7063 12.8127C27.7063 12.8127 27.42 12.7013 27.3732 13.4139Z" fill="#E98146"/>
<path d="M31.6119 7.96155C31.2928 7.8634 30.9606 7.81569 30.627 7.82012C30.0965 7.83285 29.2194 8.14801 28.8291 9.54556C28.4387 10.9431 29.0644 12.5153 29.0504 12.6335C29.0364 12.7518 28.3342 12.8227 28.3342 12.8227C28.3342 12.8227 28.2319 12.0105 27.7369 11.7863C27.242 11.5621 26.602 12.1137 26.6349 12.8164C26.6678 13.519 27.0888 14.7019 27.768 14.8065C27.4232 15.5969 26.3316 15.882 26.3316 15.882C26.3316 15.882 24.8288 14.9934 23.8111 14.1511C22.7604 13.2816 22.5274 12.4402 22.4918 11.8677C22.4809 11.699 21.9396 10.5033 22.2484 9.36638C22.5571 8.22942 23.1854 7.89561 23.1854 7.89561C23.1854 7.89561 23.5582 6.00099 26.1819 5.45525C28.2454 5.02684 29.3821 5.90685 29.5511 5.93777C29.7202 5.9687 31.844 6.85279 31.6119 7.96155Z" fill="#D2663A"/>
<path d="M30.1091 6.81314C30.1091 6.81314 29.3541 5.09133 27.2374 5.01174C25.1208 4.93216 25.1077 5.27324 24.1265 5.54611C23.1452 5.81898 22.6332 5.16864 22.6332 5.16864C22.6332 5.16864 22.5805 6.26012 23.6956 6.3147C23.2899 6.5621 22.7531 6.10641 22.7531 6.10641C22.7531 6.10641 23.0425 6.58757 23.3134 6.7049C23.5843 6.82223 23.7524 6.81314 23.7524 6.81314L23.2557 6.91046L23.4459 7.05736L23.1304 8.07334L30.1091 6.81314Z" fill="#D2663A"/>
<path d="M25.3012 20.4135C25.2277 20.5012 26.8734 19.8982 28.7065 20.2629C30.5396 20.6277 32.4237 23.6229 32.4237 23.6229C32.4237 23.6229 31.8986 22.2303 31.2752 20.9142C30.6519 19.598 30.0041 19.0305 30.0582 18.4265H26.1869C26.1869 18.4265 25.7938 19.8213 25.3012 20.4135Z" fill="#FDB082"/>
<path d="M25.2043 20.578C25.2043 20.578 26.5317 20.2301 27.8807 20.2692C29.2298 20.3083 30.0041 21.0378 30.4621 21.4871C30.92 21.9364 31.7399 22.8733 32.5242 23.9147C32.5692 24.0539 32.6206 24.2212 32.6206 24.2212C32.6206 24.2212 31.1526 22.418 30.4751 21.7199C29.7977 21.0218 29.1229 20.5589 27.6675 20.4697C26.2121 20.3806 25.0771 20.8199 25.0771 20.8199L25.2043 20.578Z" fill="#F95C46"/>
<path d="M22.7155 47.5089L22.5775 48.2719C22.5775 48.2719 22.9772 48.7495 23.012 49.2482C23.0468 49.747 22.9909 50.2826 23.0358 50.6472C23.0808 51.0118 23.1774 51.2186 23.0121 51.2267C22.8468 51.2348 22.6858 51.0002 22.6513 50.7742C22.6167 50.5482 22.5793 50.0033 22.4874 49.9863C22.3955 49.9693 22.3003 50.3234 22.3073 50.7265C22.3143 51.1296 22.3165 52.206 22.2305 52.5086C22.1445 52.8112 21.7916 52.7087 21.8263 51.9039C21.8609 51.0992 21.8843 50.3154 21.785 50.2976C21.6857 50.2798 21.6104 50.6064 21.4937 51.0777C21.377 51.5489 21.2541 52.4198 21.1321 52.6174C21.0102 52.815 20.6295 52.6917 20.8077 51.9668C20.9859 51.2418 21.132 50.2146 21.0679 50.2636C21.0039 50.3127 20.6335 51.7071 20.5154 52.0117C20.3974 52.3162 19.9904 52.2942 20.1686 51.6145C20.3468 50.9347 20.6155 50.0139 20.5673 49.9752C20.5191 49.9364 20.4296 50.0861 20.3107 50.3903C20.1918 50.6945 19.9795 51.2617 19.8925 51.3516C19.8055 51.4414 19.5977 51.3207 19.7331 50.9206C19.8685 50.5206 20.2255 49.473 20.281 49.3308C20.3365 49.1886 20.6179 48.5136 20.6942 48.3531C20.7705 48.1925 20.9809 48.0344 21.0068 47.8887L21.1279 47.2189L22.7155 47.5089ZM21.2752 36.3358C21.2752 36.3358 22.1183 30.6455 23.8243 26.3734C25.5303 22.1013 27.069 21.1097 28.8378 21.9556C30.6066 22.8015 30.7159 24.801 29.69 27.2993C28.6642 29.7976 25.6839 37.1082 24.9733 37.9962C24.2627 38.8842 21.0839 38.6502 21.2752 36.3358Z" fill="#FDB082"/>
<path d="M22.5766 48.2719C22.5766 48.2719 24.8409 39.1213 25.2452 37.5536C25.6494 35.9859 21.9969 34.3194 21.2744 36.3357C20.5519 38.352 20.9517 48.1888 20.9517 48.1888L22.5766 48.2719Z" fill="#FDB082"/>
<path d="M31.2106 47.7429L31.3481 48.5061C31.3481 48.5061 31.889 48.8108 32.0959 49.2651C32.3028 49.7194 32.4375 50.2406 32.607 50.5658C32.7765 50.8909 32.9392 51.0501 32.7873 51.1165C32.6354 51.1829 32.4028 51.0206 32.2915 50.8214C32.1802 50.6222 31.9548 50.1255 31.8628 50.1424C31.7709 50.1592 31.8056 50.5244 31.953 50.8991C32.1004 51.2739 32.4785 52.2803 32.5038 52.5941C32.529 52.9079 32.163 52.9375 31.9142 52.1721C31.6654 51.4067 31.4135 50.6649 31.3143 50.6836C31.2151 50.7022 31.2589 51.0346 31.3143 51.5172C31.3697 51.9997 31.5591 52.8583 31.514 53.0866C31.4689 53.3149 31.0696 53.3349 30.983 52.5932C30.8965 51.8514 30.6743 50.8382 30.6314 50.9069C30.5886 50.9755 30.7293 52.4122 30.7252 52.7392C30.7211 53.0662 30.3326 53.1903 30.2618 52.4909C30.1911 51.7914 30.1208 50.8341 30.0622 50.815C30.0036 50.7959 29.972 50.9678 29.9671 51.2948C29.9621 51.6218 29.9617 52.228 29.9116 52.3431C29.8616 52.4581 29.625 52.419 29.6119 51.9965C29.5988 51.574 29.5668 50.4666 29.5691 50.3138C29.5713 50.161 29.5988 49.4293 29.6141 49.2519C29.6295 49.0745 29.771 48.8517 29.7444 48.7062L29.6236 48.0363L31.2106 47.7429ZM25.9587 37.7996C25.9587 37.7996 24.7593 32.1748 24.863 27.5701C24.9666 22.9655 26.0601 21.4902 28.0109 21.6525C29.9617 21.8149 30.7626 23.6472 30.6756 26.35C30.5886 29.0527 30.3542 36.9541 29.9995 38.0379C29.6448 39.1216 26.5884 40.0335 25.9587 37.7996Z" fill="#FDB082" fill-opacity="0.5"/>
<path d="M31.3486 48.5061C31.3486 48.5061 30.27 39.1375 30.1006 37.5267C29.9311 35.9159 25.9308 35.6557 25.9592 37.7996C25.9876 39.9434 29.799 49.0063 29.799 49.0063L31.3486 48.5061Z" fill="#FDB082" fill-opacity="0.5"/>
<path d="M14.8586 45.5205C14.5937 45.5985 14.4423 45.8766 14.5204 46.1414L15.7929 50.4578C15.871 50.7226 16.149 50.8741 16.4139 50.796C16.6788 50.7179 16.8302 50.4399 16.7521 50.175L15.621 46.3383L19.4577 45.2071C19.7226 45.1291 19.874 44.851 19.7959 44.5862C19.7178 44.3213 19.4398 44.1699 19.1749 44.248L14.8586 45.5205ZM14.7609 46.4392C21.4874 50.1026 27.5767 49.5079 32.6857 47.4643L32.3143 46.5359C27.4233 48.4922 21.6532 49.0542 15.2391 45.561L14.7609 46.4392Z" fill="#AFB1B6"/>
<defs>
<linearGradient id="paint0_linear_73_5833" x1="0" y1="0" x2="59.5" y2="60" gradientUnits="userSpaceOnUse">
<stop stop-color="#DEE6E8"/>
<stop offset="1" stop-color="#E4EAEB"/>
</linearGradient>
</defs>
</svg>
