<svg width="56" height="56" viewBox="0 0 56 56" fill="none" xmlns="http://www.w3.org/2000/svg">
<rect width="56" height="56" rx="8.35821" fill="url(#paint0_linear_73_5511)"/>
<path d="M27.9468 28.6445C27.9468 28.6445 28.9348 31.2556 29.3829 36.1915C29.8309 41.1275 29.5032 47.113 29.5032 47.113L19.6299 48.3756C19.6299 48.3756 19.9055 39.6937 19.7683 36.5101C19.6311 33.3265 20.4157 27.7125 21.6087 25.8095C23.5354 24.5277 26.7293 25.6995 27.9468 28.6445Z" fill="white"/>
<path d="M24.2471 22.415V24.0545H25.8424L25.9916 22.415H24.2471Z" fill="#FDB082"/>
<path d="M24.2466 22.4149V24.0544H22.3965L22.8803 20.5972L24.2466 22.4149Z" fill="#FDB082"/>
<path opacity="0.51" d="M24.2471 22.415V24.0545H25.8424L25.9916 22.415H24.2471Z" fill="#E98146"/>
<path opacity="0.51" d="M24.2466 22.4149V24.0544H22.3965L22.8803 20.5972L24.2466 22.4149Z" fill="#E98146"/>
<path d="M27.9971 18.1892C27.9971 18.1892 28.0934 18.8022 28.2635 19.0272C28.4336 19.2522 28.6743 19.2803 28.7408 19.3887C28.8074 19.4972 28.9141 19.6961 28.6353 19.9668C28.3566 20.2376 27.9189 20.1343 27.9189 20.1343C27.9189 20.1343 27.6923 18.3724 27.9971 18.1892Z" fill="#FDB082"/>
<path d="M27.7786 15.7723C27.3056 14.0923 25.277 13.8673 24.6898 13.8356C23.2493 13.7552 21.1509 14.1718 20.5179 15.7976C19.984 17.1634 19.724 19.2214 22.1353 21.3413C24.5466 23.4611 27.7593 23.3097 27.7593 23.3097C27.7593 23.3097 28.2956 23.2113 28.3342 21.3481C28.3618 20.0116 28.0293 19.4114 27.9988 18.2492C27.9719 17.2486 28.0923 16.8878 27.7786 15.7723Z" fill="#FDB082"/>
<path d="M28.7469 19.4527C28.7517 19.5491 28.6579 19.6319 28.5375 19.6375C28.4172 19.6431 28.3161 19.5696 28.3117 19.4732C28.3073 19.3768 28.4011 19.2945 28.5211 19.2884C28.641 19.2824 28.7425 19.3563 28.7469 19.4527Z" fill="#FFC7AB"/>
<path d="M28.7404 19.3909C28.7878 19.4509 28.8209 19.5209 28.8371 19.5956C28.8533 19.6703 28.8522 19.7478 28.8339 19.822C28.7745 20.0851 28.5611 20.2414 28.0974 20.2775C27.9513 20.106 28.0657 20.0948 28.0657 20.0948C28.0657 20.0948 29.0216 19.9638 28.7404 19.3909ZM24.1453 18.8635C24.1453 18.8635 24.023 18.2726 23.5945 18.2432C23.1661 18.2139 22.8348 18.6875 22.8849 19.2074C22.9351 19.7272 23.254 20.4929 23.6559 20.7214C24.0579 20.95 24.2977 20.5186 24.2977 20.5186L24.1453 18.8635Z" fill="#E98146"/>
<path d="M24.1457 18.8634C24.1457 18.8634 23.8729 18.1717 23.4449 18.3814C23.0168 18.5911 22.8355 19.0832 23.1496 19.8822C23.4637 20.6812 24.0438 21.1275 24.3932 20.3422C24.7426 19.5568 24.1457 18.8634 24.1457 18.8634Z" fill="#FDB082"/>
<path d="M23.2465 19.4201C23.2465 19.4201 23.0263 18.8979 23.3797 18.7083C23.7331 18.5186 24.0047 19.2783 23.8418 20.1544C23.8755 19.5888 23.7564 19.0489 23.5875 18.8392C23.4186 18.6295 23.1145 18.8513 23.2465 19.4201Z" fill="#E98146"/>
<path d="M23.4523 19.6266C23.4112 19.4724 23.4241 19.3088 23.4888 19.163C23.5983 18.9304 23.7154 19.0096 23.7154 19.0096L23.7487 19.0955C23.7487 19.0955 23.494 18.9971 23.4523 19.6266Z" fill="#E98146"/>
<path d="M27.2236 14.8105C26.9396 14.7237 26.644 14.6816 26.3471 14.6855C25.875 14.6968 25.0943 14.9752 24.7469 16.2096C24.3996 17.4441 24.9563 18.8329 24.9439 18.9373C24.9315 19.0417 24.3065 19.1044 24.3065 19.1044C24.3065 19.1044 24.2154 18.3869 23.775 18.1889C23.3345 17.9909 22.7649 18.4781 22.7942 19.0988C22.8235 19.7194 23.1981 20.7643 23.8027 20.8567C23.4958 21.5549 22.5242 21.8068 22.5242 21.8068C22.5242 21.8068 21.1868 21.0218 20.281 20.2778C19.346 19.5097 19.1386 18.7666 19.1069 18.2608C19.0972 18.1118 18.6155 17.0557 18.8903 16.0514C19.165 15.0471 19.7242 14.7522 19.7242 14.7522C19.7242 14.7522 20.056 13.0786 22.391 12.5966C24.2275 12.2182 25.2391 12.9955 25.3896 13.0228C25.54 13.0501 27.4302 13.8311 27.2236 14.8105Z" fill="#D2663A"/>
<path d="M25.8861 13.7962C25.8861 13.7962 25.2142 12.2753 23.3304 12.205C21.4467 12.1347 21.435 12.4359 20.5618 12.677C19.6885 12.918 19.2328 12.3435 19.2328 12.3435C19.2328 12.3435 19.1858 13.3077 20.1783 13.3559C19.8172 13.5744 19.3395 13.1719 19.3395 13.1719C19.3395 13.1719 19.597 13.5969 19.8381 13.7006C20.0792 13.8042 20.2288 13.7962 20.2288 13.7962L19.7868 13.8821L19.956 14.0119L19.6752 14.9093L25.8861 13.7962Z" fill="#D2663A"/>
<path d="M21.6076 25.8095C21.5422 25.8871 23.0068 25.3544 24.6382 25.6766C26.2697 25.9988 27.9464 28.6445 27.9464 28.6445C27.9464 28.6445 27.4791 27.4144 26.9243 26.2518C26.3695 25.0893 25.7931 24.5879 25.8412 24.0544H22.3958C22.3958 24.0544 22.046 25.2865 21.6076 25.8095Z" fill="#FDB082"/>
<path d="M21.5213 25.9549C21.5213 25.9549 22.7027 25.6476 23.9033 25.6822C25.1039 25.7167 25.7931 26.3611 26.2007 26.758C26.6082 27.1549 27.3379 27.9824 28.0359 28.9023C28.076 29.0252 28.1217 29.1731 28.1217 29.1731C28.1217 29.1731 26.8152 27.5803 26.2123 26.9636C25.6094 26.347 25.0089 25.938 23.7136 25.8593C22.4183 25.7806 21.4082 26.1686 21.4082 26.1686L21.5213 25.9549Z" fill="#F95C46"/>
<path d="M25.1644 8.8005L25.1818 8.1156C25.1818 8.1156 24.7653 7.75385 24.6668 7.32338C24.5682 6.89291 24.5444 6.41772 24.4552 6.10574C24.366 5.79375 24.2529 5.62655 24.3971 5.59672C24.5414 5.56689 24.7149 5.74954 24.7761 5.94202C24.8373 6.1345 24.9444 6.6049 25.0275 6.60705C25.1106 6.6092 25.146 6.28709 25.085 5.93625C25.0239 5.58541 24.8754 4.64638 24.9098 4.37043C24.9442 4.09447 25.2684 4.13539 25.3476 4.84248C25.4268 5.54958 25.513 6.23679 25.6027 6.23868C25.6925 6.24057 25.7141 5.94513 25.7526 5.51778C25.791 5.09044 25.7804 4.31352 25.8607 4.12428C25.941 3.93504 26.2926 3.99027 26.2347 4.64744C26.1767 5.30461 26.1882 6.22122 26.2378 6.16961C26.2875 6.118 26.4232 4.85006 26.4855 4.56803C26.5479 4.28599 26.9087 4.24919 26.8446 4.86692C26.7805 5.48465 26.6697 6.32529 26.7173 6.35245C26.765 6.37961 26.8234 6.23668 26.8865 5.95481C26.9496 5.67294 27.0589 5.14877 27.1232 5.05835C27.1875 4.96794 27.3866 5.04474 27.3221 5.41248C27.2575 5.78022 27.0863 6.74369 27.0569 6.87542C27.0275 7.00716 26.872 7.63496 26.8267 7.78556C26.7815 7.93616 26.6181 8.10316 26.6151 8.23384L26.6 8.8351L25.1644 8.8005ZM27.953 18.3533C27.953 18.3533 27.9869 23.4353 27.0689 27.3985C26.1508 31.3617 24.9328 32.4389 23.2623 31.9442C21.5918 31.4494 21.2233 29.7194 21.785 27.3979C22.3466 25.0764 23.9712 18.286 24.4751 17.4132C24.979 16.5405 27.806 16.3071 27.953 18.3533Z" fill="#FDB082"/>
<path d="M25.1817 8.11559C25.1817 8.11559 24.4374 16.4132 24.2955 17.837C24.1536 19.2608 27.5923 20.2124 27.9529 18.3533C28.3136 16.4942 26.6219 7.96445 26.6219 7.96445L25.1817 8.11559Z" fill="#FDB082"/>
<path d="M26.8663 49.9502L26.9887 50.6243C26.9887 50.6243 27.47 50.8935 27.6542 51.2948C27.8383 51.6961 27.9582 52.1565 28.1091 52.4437C28.2599 52.7309 28.4047 52.8715 28.2695 52.9302C28.1343 52.9888 27.9274 52.8454 27.8283 52.6695C27.7292 52.4935 27.5286 52.0548 27.4468 52.0697C27.3649 52.0846 27.3958 52.4071 27.527 52.7381C27.6582 53.0692 27.9947 53.9582 28.0172 54.2353C28.0397 54.5125 27.7139 54.5386 27.4925 53.8626C27.2711 53.1865 27.0468 52.5313 26.9586 52.5477C26.8703 52.5642 26.9093 52.8579 26.9586 53.2841C27.0079 53.7103 27.1764 54.4687 27.1363 54.6704C27.0962 54.8721 26.7408 54.8897 26.6638 54.2345C26.5867 53.5793 26.389 52.6843 26.3509 52.745C26.3128 52.8056 26.4379 54.0747 26.4343 54.3635C26.4307 54.6523 26.0849 54.762 26.0219 54.1442C25.9589 53.5263 25.8964 52.6807 25.8442 52.6638C25.7921 52.647 25.764 52.7988 25.7596 53.0876C25.7552 53.3765 25.7548 53.912 25.7102 54.0136C25.6657 54.1152 25.4551 54.0807 25.4435 53.7075C25.4318 53.3343 25.4034 52.3561 25.4054 52.2211C25.4074 52.0862 25.4318 51.4398 25.4455 51.2831C25.4591 51.1265 25.5851 50.9296 25.5614 50.8011L25.4539 50.2093L26.8663 49.9502ZM22.1922 41.1671C22.1922 41.1671 21.1248 36.1986 21.217 32.1312C21.3093 28.0638 22.2825 26.7606 24.0186 26.9041C25.7548 27.0475 26.4676 28.666 26.3902 31.0534C26.3128 33.4408 26.1042 40.4203 25.7885 41.3776C25.4728 42.3349 22.7526 43.1403 22.1922 41.1671Z" fill="#FDB082" fill-opacity="0.5"/>
<path d="M26.9893 50.6242C26.9893 50.6242 26.0293 42.3488 25.8785 40.9259C25.7277 39.5031 22.1675 39.2733 22.1928 41.167C22.2181 43.0607 25.6101 51.0661 25.6101 51.0661L26.9893 50.6242Z" fill="#FDB082" fill-opacity="0.5"/>
<path d="M34.6647 12.4317C34.3963 12.3667 34.1261 12.5316 34.0611 12.8L33.0024 17.1737C32.9374 17.4421 33.1023 17.7123 33.3707 17.7773C33.6391 17.8423 33.9094 17.6774 33.9743 17.409L34.9154 13.5212L38.8031 14.4623C39.0715 14.5273 39.3417 14.3624 39.4067 14.094C39.4717 13.8256 39.3068 13.5554 39.0384 13.4904L34.6647 12.4317ZM34.9557 48.6272C41.9012 38.775 42.9796 25.7766 34.9739 12.6572L34.1203 13.1781C41.9273 25.9719 40.8445 38.5384 34.1384 48.051L34.9557 48.6272Z" fill="#AFB1B6"/>
<defs>
<linearGradient id="paint0_linear_73_5511" x1="0" y1="0" x2="59.5" y2="60" gradientUnits="userSpaceOnUse">
<stop stop-color="#DEE6E8"/>
<stop offset="1" stop-color="#E4EAEB"/>
</linearGradient>
</defs>
</svg>
