<svg width="119" height="148" viewBox="0 0 119 148" fill="none" xmlns="http://www.w3.org/2000/svg">
<rect x="0.5" y="0.5" width="118" height="147" rx="20.5" fill="#312921" fill-opacity="0.65"/>
<rect x="0.5" y="0.5" width="118" height="147" rx="20.5" stroke="white"/>
<path d="M69.7498 62.129C69.7498 62.129 72.2612 68.8164 73.4002 81.4575C74.5392 94.0986 73.7061 109.428 73.7061 109.428L48.6092 112.662C48.6092 112.662 49.3097 90.4267 48.961 82.2733C48.6123 74.1199 50.6067 59.7422 53.6392 54.8686C58.5366 51.5857 66.6551 54.5867 69.7498 62.129Z" fill="white"/>
<path d="M60.3445 46.175V50.3737H64.3997L64.779 46.175H60.3445Z" fill="#FDB082"/>
<path d="M60.3445 46.1753V50.3739H55.6418L56.8715 41.5199L60.3445 46.1753Z" fill="#FDB082"/>
<path opacity="0.51" d="M60.3445 46.175V50.3737H64.3997L64.779 46.175H60.3445Z" fill="#E98146"/>
<path opacity="0.51" d="M60.3445 46.1753V50.3739H55.6418L56.8715 41.5199L60.3445 46.1753Z" fill="#E98146"/>
<path d="M69.8773 35.3529C69.8773 35.3529 70.122 36.9229 70.5544 37.499C70.9867 38.0752 71.5985 38.1472 71.7677 38.425C71.937 38.7027 72.2082 39.212 71.4996 39.9054C70.7909 40.5989 69.6785 40.3344 69.6785 40.3344C69.6785 40.3344 69.1024 35.822 69.8773 35.3529Z" fill="#FDB082"/>
<path d="M69.3226 29.1625C68.1204 24.86 62.964 24.2838 61.4712 24.2026C57.8096 23.9968 52.4758 25.0637 50.8668 29.2273C49.5096 32.7253 48.8488 37.996 54.978 43.425C61.1072 48.8541 69.2737 48.4663 69.2737 48.4663C69.2737 48.4663 70.6369 48.2142 70.7348 43.4425C70.8052 40.0196 69.9599 38.4826 69.8824 35.5062C69.8141 32.9434 70.12 32.0195 69.3226 29.1625Z" fill="#FDB082"/>
<path d="M71.784 38.5887C71.7963 38.8356 71.5577 39.0475 71.2518 39.0619C70.9459 39.0763 70.6889 38.888 70.6777 38.6411C70.6665 38.3942 70.9051 38.1833 71.21 38.1679C71.5149 38.1524 71.7728 38.3417 71.784 38.5887Z" fill="#FFC7AB"/>
<path d="M71.7677 38.4302C71.8883 38.5837 71.9724 38.763 72.0136 38.9544C72.0547 39.1457 72.0519 39.3441 72.0053 39.5342C71.8544 40.208 71.312 40.6083 70.1332 40.7009C69.7621 40.2615 70.0527 40.2327 70.0527 40.2327C70.0527 40.2327 72.4825 39.8973 71.7677 38.4302ZM60.0875 37.0794C60.0875 37.0794 59.7765 35.566 58.6875 35.4909C57.5985 35.4158 56.7563 36.6288 56.8838 37.9601C57.0112 39.2914 57.8219 41.2523 58.8436 41.8377C59.8653 42.4231 60.475 41.3181 60.475 41.3181L60.0875 37.0794Z" fill="#E98146"/>
<path d="M60.0875 37.0794C60.0875 37.0794 59.3942 35.3077 58.3062 35.8448C57.2182 36.3818 56.7573 37.6421 57.5557 39.6885C58.3541 41.7348 59.8285 42.8778 60.7167 40.8665C61.6048 38.8551 60.0875 37.0794 60.0875 37.0794Z" fill="#FDB082"/>
<path d="M57.8015 38.5051C57.8015 38.5051 57.2417 37.1676 58.14 36.682C59.0383 36.1964 59.7286 38.1419 59.3146 40.3858C59.4003 38.9372 59.0974 37.5545 58.6682 37.0174C58.2389 36.4804 57.466 37.0483 57.8015 38.5051Z" fill="#E98146"/>
<path d="M58.3245 39.0341C58.2201 38.6393 58.2529 38.2203 58.4173 37.8468C58.6957 37.2512 58.9934 37.4538 58.9934 37.4538L59.0781 37.674C59.0781 37.674 58.4306 37.4219 58.3245 39.0341Z" fill="#E98146"/>
<path d="M67.9114 26.6995C67.1896 26.4774 66.438 26.3695 65.6834 26.3795C64.4833 26.4083 62.499 27.1213 61.616 30.2829C60.733 33.4444 62.1483 37.0011 62.1167 37.2686C62.0851 37.5361 60.4964 37.6965 60.4964 37.6965C60.4964 37.6965 60.265 35.8591 59.1454 35.3519C58.0258 34.8447 56.5779 36.0926 56.6523 37.6821C56.7267 39.2717 57.6791 41.9476 59.2157 42.1843C58.4357 43.9724 55.9661 44.6174 55.9661 44.6174C55.9661 44.6174 52.5665 42.6071 50.2641 40.7017C47.8873 38.7346 47.3601 36.8313 47.2796 35.536C47.2551 35.1543 46.0305 32.4496 46.729 29.8775C47.4274 27.3055 48.8488 26.5503 48.8488 26.5503C48.8488 26.5503 49.6921 22.2642 55.6275 21.0297C60.2955 20.0605 62.8671 22.0513 63.2495 22.1212C63.6319 22.1912 68.4365 24.1912 67.9114 26.6995Z" fill="#D2663A"/>
<path d="M64.5118 24.1017C64.5118 24.1017 62.8039 20.2066 58.0156 20.0266C53.2272 19.8465 53.1977 20.6181 50.9779 21.2354C48.7581 21.8527 47.5997 20.3815 47.5997 20.3815C47.5997 20.3815 47.4804 22.8507 50.0031 22.9741C49.0854 23.5338 47.871 22.5029 47.871 22.5029C47.871 22.5029 48.5256 23.5914 49.1384 23.8569C49.7512 24.1223 50.1316 24.1017 50.1316 24.1017L49.0079 24.3219L49.4382 24.6542L48.7244 26.9526L64.5118 24.1017Z" fill="#D2663A"/>
<path d="M53.6371 54.8687C53.4709 55.0672 57.1937 53.703 61.3407 54.5281C65.4876 55.3532 69.7498 62.129 69.7498 62.129C69.7498 62.129 68.5619 58.9788 67.1517 56.0014C65.7415 53.024 64.2763 51.74 64.3986 50.3737H55.6408C55.6408 50.3737 54.7516 53.5291 53.6371 54.8687Z" fill="#FDB082"/>
<path d="M53.4169 55.2412C53.4169 55.2412 56.4198 54.4541 59.4716 54.5426C62.5235 54.6311 64.2753 56.2813 65.3112 57.2978C66.3472 58.3143 68.202 60.4336 69.9762 62.7896C70.0782 63.1044 70.1944 63.4831 70.1944 63.4831C70.1944 63.4831 66.8734 59.4038 65.3408 57.8245C63.8083 56.2453 62.2818 55.198 58.9893 54.9963C55.6969 54.7947 53.1294 55.7885 53.1294 55.7885L53.4169 55.2412Z" fill="#F95C46"/>
<path d="M44.5148 130.966C44.1107 131.057 43.8565 131.458 43.9471 131.862L45.424 138.449C45.5146 138.853 45.9157 139.107 46.3199 139.016C46.7241 138.926 46.9783 138.525 46.8877 138.121L45.5749 132.266L51.4295 130.953C51.8337 130.863 52.0878 130.461 51.9972 130.057C51.9066 129.653 51.5055 129.399 51.1013 129.489L44.5148 130.966ZM44.2775 132.332C44.5362 132.496 44.7919 132.656 45.0446 132.813L45.8366 131.539C45.5878 131.385 45.3358 131.227 45.0804 131.065L44.2775 132.332ZM46.5959 133.754C47.1356 134.072 47.6629 134.372 48.1793 134.653L48.8959 133.335C48.3969 133.064 47.8848 132.773 47.3575 132.462L46.5959 133.754ZM49.8079 135.49C50.3816 135.766 50.9443 136.015 51.4985 136.235L52.0516 134.841C51.5345 134.635 51.0044 134.401 50.4581 134.138L49.8079 135.49ZM53.2662 136.842C53.887 137.02 54.5012 137.157 55.1125 137.249L55.335 135.765C54.7943 135.684 54.244 135.562 53.6797 135.4L53.2662 136.842ZM57.0193 137.385C57.6568 137.378 58.2923 137.318 58.9301 137.203L58.6621 135.727C58.1081 135.827 57.5572 135.879 57.0043 135.885L57.0193 137.385ZM60.7753 136.712C61.3514 136.511 61.9303 136.264 62.5154 135.971L61.843 134.63C61.3109 134.897 60.7913 135.118 60.2807 135.296L60.7753 136.712ZM64.1398 135.048C64.64 134.732 65.1471 134.382 65.663 133.999L64.7684 132.795C64.2796 133.158 63.8034 133.486 63.3378 133.78L64.1398 135.048ZM67.1058 132.859C67.336 132.667 67.5683 132.468 67.8028 132.263L66.8151 131.134C66.5889 131.332 66.3654 131.523 66.1444 131.707L67.1058 132.859Z" fill="white"/>
</svg>
