<svg width="72" height="190" viewBox="0 0 72 190" fill="none" xmlns="http://www.w3.org/2000/svg">
<path d="M64.9906 68.2675C64.9906 68.2675 69.0968 79.1039 70.959 99.588C72.8212 120.072 71.4591 144.913 71.4591 144.913L30.4258 150.152C30.4258 150.152 31.5711 114.122 31.0009 100.91C30.4308 87.698 33.6917 64.3997 38.6498 56.5025C46.6571 51.1826 59.9308 56.0457 64.9906 68.2675Z" fill="white"/>
<path d="M49.6133 42.415V49.2186H56.2435L56.8637 42.415H49.6133Z" fill="#FDB082"/>
<path d="M49.6127 42.4154V49.219H41.9238L43.9344 34.8716L49.6127 42.4154Z" fill="#FDB082"/>
<path opacity="0.51" d="M49.6133 42.415V49.2186H56.2435L56.8637 42.415H49.6133Z" fill="#E98146"/>
<path opacity="0.51" d="M49.6127 42.4154V49.219H41.9238L43.9344 34.8716L49.6127 42.4154Z" fill="#E98146"/>
<path d="M65.1989 24.8784C65.1989 24.8784 65.599 27.4225 66.3059 28.3561C67.0128 29.2897 68.013 29.4064 68.2898 29.8565C68.5665 30.3066 69.01 31.1319 67.8513 32.2555C66.6927 33.3792 64.8738 32.9507 64.8738 32.9507C64.8738 32.9507 63.9319 25.6386 65.1989 24.8784Z" fill="#FDB082"/>
<path d="M64.292 14.8473C62.3264 7.87529 53.8957 6.94169 51.455 6.80999C45.4683 6.47656 36.7475 8.20538 34.1168 14.9523C31.8978 20.6206 30.8175 29.1613 40.8387 37.9588C50.8598 46.7563 64.212 46.1278 64.212 46.1278C64.212 46.1278 66.4409 45.7194 66.601 37.9872C66.716 32.4406 65.334 29.9499 65.2072 25.1269C65.0956 20.974 65.5957 19.4769 64.292 14.8473Z" fill="#FDB082"/>
<path d="M68.3163 30.1218C68.3363 30.5219 67.9462 30.8653 67.4461 30.8886C66.9459 30.912 66.5258 30.6069 66.5075 30.2068C66.4891 29.8067 66.8792 29.4649 67.3777 29.4399C67.8762 29.4149 68.298 29.7216 68.3163 30.1218Z" fill="#FFC7AB"/>
<path d="M68.2897 29.8651C68.4868 30.1138 68.6243 30.4043 68.6916 30.7144C68.759 31.0245 68.7544 31.3459 68.6782 31.6539C68.4314 32.7459 67.5445 33.3944 65.6173 33.5444C65.0105 32.8326 65.4856 32.7859 65.4856 32.7859C65.4856 32.7859 69.4584 32.2424 68.2897 29.8651ZM49.1926 27.6761C49.1926 27.6761 48.6842 25.2238 46.9037 25.102C45.1232 24.9803 43.7461 26.9459 43.9545 29.1032C44.1629 31.2605 45.4883 34.438 47.1587 35.3866C48.8292 36.3352 49.8262 34.5447 49.8262 34.5447L49.1926 27.6761Z" fill="#E98146"/>
<path d="M49.1934 27.6761C49.1934 27.6761 48.0597 24.8053 46.2809 25.6755C44.502 26.5458 43.7485 28.588 45.0538 31.9039C46.3592 35.2199 48.7699 37.0721 50.222 33.8128C51.6741 30.5536 49.1934 27.6761 49.1934 27.6761Z" fill="#FDB082"/>
<path d="M45.4556 29.9864C45.4556 29.9864 44.5403 27.8191 46.0091 27.0322C47.4778 26.2453 48.6065 29.3979 47.9296 33.0339C48.0697 30.6866 47.5745 28.446 46.8726 27.5757C46.1708 26.7055 44.9071 27.6257 45.4556 29.9864Z" fill="#E98146"/>
<path d="M46.3109 30.8436C46.1401 30.2038 46.1937 29.5248 46.4626 28.9197C46.9177 27.9544 47.4045 28.2829 47.4045 28.2829L47.5429 28.6396C47.5429 28.6396 46.4843 28.2312 46.3109 30.8436Z" fill="#E98146"/>
<path d="M61.9847 10.8561C60.8045 10.4963 59.5757 10.3214 58.342 10.3376C56.3798 10.3843 53.1355 11.5396 51.6918 16.6627C50.2481 21.7859 52.562 27.5492 52.5104 27.9826C52.4587 28.4161 49.8613 28.6762 49.8613 28.6762C49.8613 28.6762 49.4828 25.6986 47.6523 24.8767C45.8218 24.0548 43.4545 26.0771 43.5762 28.6528C43.6979 31.2285 45.255 35.5648 47.7674 35.9482C46.492 38.8457 42.4542 39.891 42.4542 39.891C42.4542 39.891 36.8959 36.6334 33.1315 33.5459C29.2454 30.3583 28.3835 27.2741 28.2518 25.1752C28.2118 24.5567 26.2096 20.1737 27.3516 16.0059C28.4935 11.838 30.8175 10.6144 30.8175 10.6144C30.8175 10.6144 32.1963 3.66906 41.9007 1.66849C49.5329 0.0980449 53.7374 3.32396 54.3626 3.43733C54.9877 3.55069 62.8433 6.79161 61.9847 10.8561Z" fill="#D2663A"/>
<path d="M56.4271 6.6466C56.4271 6.6466 53.6346 0.334804 45.8057 0.0430547C37.9768 -0.248695 37.9285 1.00166 34.2991 2.00194C30.6697 3.00223 28.7759 0.618218 28.7759 0.618218C28.7759 0.618218 28.5808 4.61935 32.7053 4.81941C31.2049 5.72634 29.2193 4.05586 29.2193 4.05586C29.2193 4.05586 30.2896 5.81969 31.2916 6.24982C32.2935 6.67994 32.9154 6.6466 32.9154 6.6466L31.0782 7.00336L31.7817 7.54185L30.6147 11.2662L56.4271 6.6466Z" fill="#D2663A"/>
<path d="M38.6465 56.5025C38.3747 56.8242 44.4614 54.6136 51.2417 55.9507C58.022 57.2877 64.9906 68.2675 64.9906 68.2675C64.9906 68.2675 63.0484 63.1627 60.7427 58.338C58.4371 53.5133 56.0414 51.4327 56.2415 49.2188H41.9224C41.9224 49.2188 40.4686 54.3319 38.6465 56.5025Z" fill="#FDB082"/>
<path d="M38.2865 57.1061C38.2865 57.1061 43.1963 55.8308 48.186 55.9741C53.1758 56.1175 56.0399 58.7916 57.7337 60.4387C59.4275 62.0859 62.4601 65.5202 65.3609 69.3379C65.5276 69.8481 65.7177 70.4616 65.7177 70.4616C65.7177 70.4616 60.2878 63.8514 57.7821 61.2923C55.2764 58.7333 52.7807 57.0361 47.3975 56.7093C42.0143 56.3826 37.8164 57.993 37.8164 57.993L38.2865 57.1061Z" fill="#F95C46"/>
<path d="M29.08 155.829L28.5696 158.626C28.5696 158.626 30.0479 160.376 30.1768 162.205C30.3057 164.033 30.0986 165.997 30.2649 167.333C30.4312 168.67 30.7887 169.428 30.1771 169.457C29.5656 169.487 28.9704 168.627 28.8425 167.798C28.7146 166.97 28.5764 164.972 28.2364 164.91C27.8964 164.848 27.5446 166.146 27.5704 167.624C27.5962 169.102 27.6044 173.047 27.2862 174.157C26.968 175.266 25.663 174.89 25.791 171.94C25.9191 168.99 26.0057 166.117 25.6383 166.051C25.271 165.986 24.9927 167.184 24.5609 168.911C24.1292 170.639 23.6747 173.831 23.2237 174.555C22.7726 175.28 21.3645 174.828 22.0236 172.17C22.6827 169.513 23.2232 165.747 22.9862 165.927C22.7492 166.107 21.3792 171.218 20.9426 172.335C20.5059 173.451 19.0007 173.37 19.6597 170.879C20.3188 168.387 21.3127 165.011 21.1345 164.869C20.9564 164.728 20.625 165.276 20.1853 166.391C19.7455 167.507 18.9604 169.586 18.6386 169.915C18.3167 170.245 17.5482 169.802 18.049 168.335C18.5498 166.869 19.8702 163.028 20.0755 162.507C20.2808 161.986 21.3217 159.512 21.604 158.923C21.8863 158.335 22.6641 157.755 22.7602 157.221L23.2079 154.765L29.08 155.829ZM23.7529 114.87C23.7529 114.87 26.8711 94.011 33.1811 78.3502C39.4912 62.6895 45.1827 59.0545 51.7249 62.1554C58.2671 65.2562 58.6713 72.5863 54.877 81.7444C51.0828 90.9026 40.0596 117.702 37.4312 120.957C34.8027 124.212 23.0453 123.354 23.7529 114.87Z" fill="#FDB082" fill-opacity="0.5"/>
<path d="M28.5699 158.626C28.5699 158.626 36.9447 125.081 38.44 119.335C39.9353 113.588 26.4257 107.479 23.7532 114.87C21.0808 122.261 22.5598 158.321 22.5598 158.321L28.5699 158.626Z" fill="#FDB082" fill-opacity="0.5"/>
<path d="M60.5017 156.687L61.0102 159.485C61.0102 159.485 63.0108 160.602 63.776 162.267C64.5412 163.933 65.0397 165.843 65.6665 167.035C66.2934 168.227 66.8952 168.811 66.3334 169.054C65.7716 169.297 64.9113 168.702 64.4995 167.972C64.0878 167.242 63.2542 165.421 62.9141 165.483C62.574 165.545 62.7024 166.883 63.2475 168.257C63.7927 169.631 65.1914 173.32 65.2848 174.471C65.3781 175.621 64.0244 175.729 63.1042 172.923C62.1839 170.118 61.252 167.399 60.8852 167.467C60.5184 167.535 60.6801 168.754 60.8852 170.523C61.0902 172.292 61.7904 175.439 61.6237 176.276C61.457 177.113 59.9799 177.186 59.6598 174.467C59.3397 171.748 58.5178 168.034 58.3595 168.286C58.2011 168.537 58.7212 173.804 58.7062 175.002C58.6912 176.201 57.2542 176.656 56.9924 174.092C56.7307 171.528 56.4706 168.019 56.2539 167.949C56.0371 167.879 55.9204 168.509 55.9021 169.708C55.8838 170.906 55.8821 173.129 55.697 173.55C55.512 173.972 54.6367 173.829 54.5884 172.28C54.54 170.731 54.4217 166.672 54.43 166.112C54.4384 165.551 54.5401 162.869 54.5967 162.219C54.6534 161.569 55.1769 160.752 55.0785 160.218L54.6317 157.763L60.5017 156.687ZM41.0762 120.237C41.0762 120.237 36.64 99.6177 37.0234 82.7379C37.4069 65.8581 41.4513 60.4499 48.6667 61.0451C55.8821 61.6402 58.8446 68.3571 58.5229 78.265C58.2011 88.1728 57.3342 117.138 56.0221 121.11C54.7101 125.083 43.4052 128.426 41.0762 120.237Z" fill="#FDB082"/>
<path d="M61.0098 159.485C61.0098 159.485 57.0203 125.142 56.3935 119.237C55.7666 113.332 40.9707 112.378 41.0758 120.237C41.1808 128.096 55.2781 161.318 55.2781 161.318L61.0098 159.485Z" fill="#FDB082"/>
<path d="M23.8329 180.269C23.4291 180.361 23.1766 180.763 23.2688 181.167L24.7723 187.747C24.8645 188.151 25.2667 188.404 25.6705 188.312C26.0743 188.219 26.3269 187.817 26.2346 187.413L24.8982 181.564L30.7475 180.228C31.1513 180.135 31.4039 179.733 31.3116 179.33C31.2193 178.926 30.8172 178.673 30.4134 178.765L23.8329 180.269ZM23.6011 181.635C24.0234 181.9 24.4407 182.16 24.853 182.414L25.6398 181.137C25.2314 180.885 24.8179 180.628 24.3989 180.365L23.6011 181.635ZM27.3815 183.934C28.2605 184.447 29.1183 184.931 29.9575 185.383L30.6691 184.063C29.8472 183.62 29.0045 183.145 28.1381 182.639L27.3815 183.934ZM32.5998 186.729C33.5289 187.172 34.4384 187.57 35.3325 187.922L35.8812 186.526C35.024 186.189 34.1469 185.804 33.2451 185.375L32.5998 186.729ZM38.1761 188.89C39.1718 189.173 40.1543 189.389 41.1299 189.534L41.3504 188.05C40.4448 187.916 39.5257 187.714 38.586 187.447L38.1761 188.89ZM44.1662 189.749C45.1798 189.739 46.1901 189.646 47.2044 189.464L46.9395 187.987C46.0082 188.154 45.0817 188.24 44.1518 188.249L44.1662 189.749ZM50.1461 188.691C51.067 188.373 51.9945 187.981 52.9342 187.515L52.2673 186.171C51.3805 186.612 50.5121 186.977 49.6563 187.273L50.1461 188.691ZM55.5511 186.043C56.359 185.537 57.1794 184.976 58.0155 184.361L57.1263 183.153C56.3174 183.748 55.5279 184.287 54.7546 184.772L55.5511 186.043ZM60.3577 182.527C60.7319 182.218 61.1097 181.898 61.4913 181.567L60.5087 180.433C60.1353 180.757 59.7663 181.07 59.4014 181.372L60.3577 182.527Z" fill="white"/>
</svg>
