<!-- sample rectangle -->
<svg width="896" height="414" viewBox="0 0 896 414" fill="none" xmlns="http://www.w3.org/2000/svg">
<path d="M275.141 220.608C222.318 194.602 129.651 190.801 77.5232 219.774C54.3449 232.684 33.809 247.866 9.8426 259.965C-22.2825 276.19 -35.3782 308.199 -30.0472 343.407C-26.9877 363.688 -18.4581 382.161 -0.587629 393.217C11.5578 400.726 45.6299 412.826 56.6164 399.475C66.8844 447.709 131.019 465.927 165.23 428.355C159.088 435.1 192.279 444 195.872 444.302C211.192 445.6 230.291 444.302 242.39 433.941C256.923 421.541 257.41 406.66 263.065 390.459C282.327 395.813 304.786 385.823 317.766 370.711C363.288 317.609 332.554 248.839 275.141 220.608Z" fill="#61630D"/>
<path d="M257.155 341.599C256.054 330.482 252.215 319.811 245.983 310.54C226.397 282.448 188.199 269.283 155.008 271.971C117.482 275.008 86.4001 299.785 76.7579 336.106C70.8475 358.45 81.0459 400.402 100.214 414.309C121.77 430.001 151.67 423.581 166.713 402.187C162.216 408.608 192.209 418.412 195.894 419.154C207.368 421.587 216.477 420.73 226.652 414.24C249.274 399.753 260.26 369.135 257.155 341.599Z" fill="#5B7119"/>
<path d="M369.245 227.121C358.675 203.943 338.163 177.496 310.951 173.626C291.69 170.891 263.459 174.159 244.406 177.496C196.103 185.957 155.773 226.171 154.173 276.329C153.038 311.931 164.488 355.135 191.537 380.307C214.367 401.538 254.118 390.018 270.714 366.121C277.667 355.946 286.382 336.129 278.641 325.838C311.693 343.685 348.894 351.334 368.897 309.613C380.463 285.554 380.138 251.111 369.245 227.121Z" fill="#2D3C01"/>
<path d="M176.842 397.204C182.253 388.723 188.329 380.686 195.014 373.168C200.829 366.589 207.021 360.351 213.556 354.486C212.964 352.514 211.987 350.679 210.682 349.086C203.126 353.583 196.961 361.069 190.285 366.817C182.312 373.771 174.246 380.423 166.296 387.33C158.346 394.237 153.131 396.068 152.737 406.568C152.203 421.17 150.21 438.299 157.766 451.696C155.448 447.779 159.899 434.892 161.034 430.697C163.095 423.173 166.044 415.921 169.819 409.095C172.114 404.899 174.431 400.982 176.842 397.204Z" fill="#825931"/>
<path d="M144.555 206.887C138.111 221.327 138.644 237.436 139.247 252.896C139.618 262.167 136.929 268.842 126.012 263.279C118.016 259.2 109.787 252.548 105.43 244.505C99.079 250.763 116.695 264.902 120.287 269.236C132.039 283.375 140.568 294.223 141.959 313.09C143.141 329.314 140.383 345.539 140.383 361.764C140.383 400.534 140.383 439.311 140.383 478.096C140.383 502.549 139.989 526.77 138.83 550.922C138.111 566.289 132.873 585.504 135.539 600.848C153.015 607.106 180.783 603.166 198.931 602.123C173.435 550.204 167.571 490.612 161.846 433.779C158.866 406.063 157.318 378.212 157.21 350.337C157.21 336.592 158.531 323.52 157.581 309.752C157.581 308.709 157.442 307.666 157.326 306.6C155.611 288.219 152.273 269.514 151.277 251.32C150.419 237.899 154.29 218.175 144.555 206.887Z" fill="#825931"/>
<path d="M120.31 269.237C132.062 283.376 140.591 294.223 141.982 313.091C143.164 329.315 140.406 345.54 140.406 361.765V408.863C146.942 410.277 153.386 412.294 159.945 413.823C158.184 392.708 157.025 371.245 157.094 350.384C157.094 336.64 158.415 323.567 157.465 309.799C157.465 308.756 157.326 307.713 157.21 306.647C155.495 288.267 152.157 269.562 151.161 251.367C150.419 237.807 154.29 218.083 144.578 206.795C138.134 221.235 138.667 237.344 139.27 252.804C139.641 262.075 136.952 268.751 126.035 263.188C118.039 259.108 109.81 252.456 105.453 244.413C99.1021 250.764 116.741 264.903 120.31 269.237Z" fill="#825931"/>
<path d="M120.31 269.237C132.062 283.376 140.591 294.223 141.982 313.091C143.164 329.315 140.406 345.54 140.406 361.765V382.231C146.247 383.321 152.157 384.549 158.045 385.963C157.419 374.026 157.048 362.113 157.094 350.384C157.094 336.64 158.415 323.567 157.465 309.799C157.465 308.756 157.326 307.713 157.21 306.647C155.495 288.267 152.157 269.562 151.161 251.367C150.419 237.807 154.29 218.083 144.578 206.795C138.134 221.235 138.667 237.344 139.27 252.804C139.641 262.075 136.952 268.751 126.035 263.188C118.039 259.108 109.81 252.456 105.453 244.413C99.1021 250.764 116.741 264.903 120.31 269.237Z" fill="#603813"/>
<path d="M131.297 331.609C136.911 309.071 135.487 285.354 127.217 263.65C120.449 246.498 119.8 228.882 115.188 211.174C90.1319 114.683 -60.0171 122.703 -77.1923 219.147C-81.1094 240.958 -78.8611 265.087 -68.4772 284.904C-55.8219 309.079 -37.7196 312.116 -13.197 318.026C-12.9285 329.84 -10.2466 341.474 -5.31636 352.214C11.6733 389.971 79.0294 404.388 108.049 373.816C117.784 363.316 128.052 345.515 131.297 331.609Z" fill="#819D2E"/>
<path d="M344.073 121.544C325.229 106.293 289.233 93.9619 267.585 110.488C281.306 66.2175 233.976 20.9735 194.11 15.1789C162.216 10.5432 104.155 18.4702 98.7077 58.9627C75.1353 38.2876 47.0896 38.1022 23.4941 49.6914C23.8467 46.9084 24.0248 44.1061 24.0272 41.3008C24.0272 37.291 24.0272 26.2349 19.3916 24.033C11.3255 20.139 8.52094 48.6483 8.08056 52.7277C5.76273 47.698 2.91179 42.7611 -2.79007 41.2545C-7.42573 40.0028 -13.7302 41.6253 -14.1938 47.2576C-14.4951 50.8503 -9.88263 57.0852 -7.75023 59.658C-5.57562 62.3323 -3.02228 64.6749 -0.170929 66.6115C-20.0116 86.3131 -31.4848 115.077 -24.879 143.332C-69.5667 161.457 -89.5464 213.377 -58.4875 254.819C-35.9118 284.951 16.6102 288.567 43.3811 261.216C29.4741 292.391 53.3709 345.887 83.2709 359.84C117.528 375.833 159.157 357.198 184.096 333.162C193.785 323.891 201.017 313.368 203.682 303.03C228.993 313.252 251.314 318.536 278.525 311.119C321.451 299.53 356.219 260.127 370.195 219.449C381.483 186.745 371.539 143.749 344.073 121.544ZM98.7077 58.9627C98.7077 58.9627 98.6613 59.0322 98.7077 59.0322V58.9627Z" fill="#739A20"/>
<path opacity="0.1" d="M344.073 121.544C325.229 106.293 289.233 93.9619 267.585 110.488C281.306 66.2175 233.976 20.9735 194.11 15.1789C162.216 10.5432 104.155 18.4702 98.7077 58.9627C75.1353 38.2876 47.0896 38.1022 23.4941 49.6914C23.8467 46.9084 24.0248 44.1061 24.0272 41.3008C24.0272 37.291 24.0272 26.2349 19.3916 24.033C11.3255 20.139 8.52094 48.6483 8.08056 52.7277C5.76273 47.698 2.91179 42.7611 -2.79007 41.2545C-7.42573 40.0028 -13.7302 41.6253 -14.1938 47.2576C-14.4951 50.8503 -9.88263 57.0852 -7.75023 59.658C-5.57562 62.3323 -3.02228 64.6749 -0.170929 66.6115C-20.0116 86.3131 -31.4848 115.077 -24.879 143.332C-69.5667 161.457 -89.5464 213.377 -58.4875 254.819C-35.9118 284.951 16.6102 288.567 43.3811 261.216C29.4741 292.391 53.3709 345.887 83.2709 359.84C117.528 375.833 159.157 357.198 184.096 333.162C193.785 323.891 201.017 313.368 203.682 303.03C228.993 313.252 251.314 318.536 278.525 311.119C321.451 299.53 356.219 260.127 370.195 219.449C381.483 186.745 371.539 143.749 344.073 121.544ZM342.196 198.936C331.858 263.65 248.857 296.587 194.063 262.352C187.883 271.535 179.665 279.166 170.05 284.65C143.303 299.947 105.522 301.083 79.6551 282.911C64.6187 272.782 53.0057 258.332 46.3479 241.469C33.5998 244.644 19.9247 246.939 7.40839 245.293C-5.73371 243.555 -19.2235 241.144 -28.7266 230.737C-39.2495 219.148 -45.3222 202.251 -39.829 186.698C-35.1933 173.348 -26.4551 158.606 -12.8726 152.673C-10.3694 151.583 -7.8893 150.61 -5.40923 149.683C-7.9015 138.835 -7.949 127.568 -5.54829 116.7C0.0608597 91.2037 17.885 68.0254 42.6858 59.0322C61.2284 52.3337 88.9033 57.7342 102.045 73.1246C118.062 38.9598 145.203 20.2781 184.212 26.6058C199.139 28.9236 213.602 37.8473 224.913 48.5093C238.658 61.4659 245.519 78.3397 251.615 95.8162C253.284 100.591 254.535 114.985 258.058 118.253C262.88 122.703 279.29 119.829 286.174 121.59C309.839 127.594 329.054 148.802 339.252 170.473C343.063 179.452 344.088 189.368 342.196 198.936Z" fill="black"/>
<path opacity="0.3" d="M198.212 34.5103C153.246 17.961 118.873 53.3774 109.347 94.1481C94.165 68.0493 40.8086 71.5724 21.2693 87.5191C1.72996 103.466 -5.61755 157.17 15.0111 174.322C43.9608 198.358 77.1753 180.51 100.261 157.564C109.37 189.55 167.107 194.649 192.024 183.779C225.354 169.176 229.897 131.117 209.732 104.092C239.122 92.3865 220.44 42.6922 198.212 34.5103ZM63.9405 129.541C43.2423 142.034 23.7262 118.81 44.0535 103.466C64.914 87.7045 89.8538 113.108 64.52 129.17L63.9405 129.541Z" fill="#BCD84D"/>
<path opacity="0.3" d="M264.201 219.032C282.744 230.622 308.031 230.274 321.869 208.533C342.474 176.083 319.087 142.382 282.674 143.633C261.165 144.421 246.4 150.587 242.367 173.765C239.029 193.119 249.413 209.831 264.201 219.032Z" fill="#B3C31A"/>
<path d="M96.4831 14.2513C84.7317 2.82437 57.4972 24.3107 73.3048 35.6217C83.5959 42.9692 105.754 30.0589 98.8009 17.334C98.1876 16.1958 97.4062 15.1565 96.4831 14.2513Z" fill="#98B936"/>
<path d="M300.961 431.764C295.538 409.767 266.194 428.125 278.687 444.257C287.425 455.544 304.322 445.392 300.961 431.764Z" fill="#7F8211"/>
<path d="M315.68 78.8964C310.257 56.9002 280.913 75.2574 293.406 91.3895C302.167 102.677 319.041 92.5252 315.68 78.8964Z" fill="#AECC44"/>
<path d="M272.816 198.388C333.103 168.707 438.865 164.368 498.359 197.435C524.813 212.17 548.25 229.497 575.604 243.306C612.268 261.823 627.214 298.356 621.13 338.539C617.638 361.686 607.903 382.769 587.508 395.388C573.646 403.959 534.759 417.767 522.22 402.53C510.501 457.58 437.304 478.373 398.259 435.491C405.269 443.189 367.387 453.347 363.287 453.691C345.801 455.173 324.003 453.691 310.195 441.867C293.608 427.714 293.053 410.731 286.598 392.24C264.615 398.35 238.982 386.949 224.168 369.701C172.213 309.096 207.29 230.608 272.816 198.388Z" fill="#2D3C01"/>
<path d="M293.344 336.476C294.6 323.788 298.981 311.609 306.095 301.028C328.448 268.966 372.043 253.941 409.925 257.009C452.753 260.475 488.227 288.753 499.232 330.206C505.978 355.707 494.338 403.588 472.461 419.461C447.859 437.37 413.734 430.042 396.566 405.625C401.698 412.953 367.467 424.143 363.261 424.989C350.166 427.767 339.77 426.788 328.157 419.381C302.338 402.848 289.799 367.903 293.344 336.476Z" fill="#5B7119"/>
<path d="M165.414 205.822C177.477 179.368 200.888 149.185 231.945 144.767C253.928 141.645 286.148 145.375 307.893 149.185C363.022 158.84 409.052 204.737 410.877 261.983C412.173 302.615 399.105 351.925 368.234 380.654C342.177 404.885 296.809 391.738 277.868 364.464C269.932 352.851 259.986 330.233 268.821 318.488C231.098 338.857 188.64 347.587 165.811 299.97C152.611 272.511 152.981 233.201 165.414 205.822Z" fill="#61630D"/>
<path d="M385.005 399.939C378.83 390.26 371.895 381.087 364.266 372.507C357.628 364.998 350.562 357.879 343.103 351.185C343.779 348.934 344.894 346.839 346.383 345.021C355.007 350.153 362.044 358.698 369.662 365.258C378.762 373.195 387.968 380.787 397.042 388.67C406.115 396.553 412.067 398.643 412.517 410.626C413.126 427.292 415.401 446.841 406.777 462.132C409.422 457.661 404.343 442.953 403.047 438.165C400.695 429.578 397.329 421.301 393.021 413.51C390.402 408.722 387.757 404.251 385.005 399.939Z" fill="#825931"/>
<path d="M421.855 182.729C429.209 199.209 428.601 217.594 427.913 235.239C427.49 245.82 430.558 253.439 443.018 247.09C452.144 242.434 461.535 234.842 466.509 225.663C473.757 232.805 453.652 248.942 449.552 253.889C436.14 270.025 426.405 282.406 424.818 303.939C423.469 322.456 426.617 340.974 426.617 359.491C426.617 403.739 426.617 447.996 426.617 492.262C426.617 520.171 427.066 547.814 428.389 575.379C429.209 592.918 435.188 614.848 432.145 632.36C412.199 639.503 380.508 635.006 359.795 633.815C388.894 574.559 395.586 506.547 402.121 441.683C405.522 410.051 407.288 378.264 407.411 346.45C407.411 330.763 405.903 315.843 406.988 300.13C406.988 298.939 407.147 297.749 407.279 296.532C409.237 275.554 413.046 254.206 414.183 233.44C415.162 218.123 410.744 195.611 421.855 182.729Z" fill="#825931"/>
<path d="M449.526 253.889C436.114 270.026 426.379 282.406 424.792 303.939C423.443 322.457 426.591 340.974 426.591 359.492V413.245C419.131 414.859 411.777 417.161 404.29 418.907C406.301 394.807 407.623 370.311 407.544 346.503C407.544 330.816 406.036 315.896 407.121 300.183C407.121 298.992 407.28 297.802 407.412 296.585C409.369 275.607 413.179 254.259 414.316 233.493C415.163 218.018 410.745 195.506 421.829 182.623C429.183 199.104 428.575 217.489 427.887 235.133C427.464 245.715 430.532 253.334 442.992 246.985C452.118 242.329 461.509 234.737 466.483 225.557C473.731 232.806 453.6 248.942 449.526 253.889Z" fill="#825931"/>
<path d="M449.526 253.889C436.114 270.026 426.379 282.406 424.792 303.939C423.443 322.457 426.591 340.974 426.591 359.492V382.85C419.924 384.094 413.179 385.496 406.46 387.109C407.174 373.486 407.597 359.889 407.544 346.503C407.544 330.816 406.036 315.896 407.121 300.183C407.121 298.992 407.28 297.802 407.412 296.585C409.369 275.607 413.179 254.259 414.316 233.493C415.163 218.018 410.745 195.506 421.829 182.623C429.183 199.104 428.575 217.489 427.887 235.133C427.464 245.715 430.532 253.333 442.992 246.985C452.118 242.329 461.509 234.737 466.483 225.557C473.731 232.805 453.6 248.942 449.526 253.889Z" fill="#603813"/>
<path d="M436.987 325.073C430.579 299.35 432.204 272.282 441.643 247.511C449.367 227.935 450.108 207.831 455.372 187.62C483.968 77.4939 655.335 86.6468 674.937 196.72C679.407 221.613 676.841 249.151 664.99 271.769C650.547 299.36 629.886 302.826 601.898 309.571C601.592 323.055 598.531 336.333 592.904 348.59C573.514 391.683 496.64 408.137 463.52 373.245C452.409 361.262 440.69 340.945 436.987 325.073Z" fill="#819D2E"/>
<path d="M194.143 85.326C215.649 67.9195 256.732 53.8462 281.439 72.7076C265.779 22.1812 319.797 -29.4562 365.297 -36.0696C401.697 -41.3603 467.964 -32.3132 474.18 13.9013C501.084 -9.69534 533.092 -9.90697 560.022 3.31983C559.62 0.143585 559.417 -3.05474 559.414 -6.25637C559.414 -10.8328 559.414 -23.4512 564.704 -25.9643C573.91 -30.4085 577.111 2.12941 577.614 6.78524C580.259 1.04482 583.513 -4.58979 590.021 -6.30928C595.311 -7.73777 602.507 -5.88602 603.036 0.542198C603.38 4.64251 598.115 11.7585 595.682 14.6949C593.2 17.7471 590.286 20.4206 587.031 22.6309C609.676 45.1165 622.77 77.9454 615.231 110.192C666.233 130.879 689.036 190.135 653.589 237.434C627.823 271.824 567.879 275.951 537.325 244.735C553.197 280.315 525.923 341.37 491.798 357.295C452.7 375.548 405.189 354.28 376.725 326.847C365.668 316.266 357.414 304.256 354.372 292.458C325.485 304.124 300.01 310.155 268.953 301.69C219.961 288.463 180.281 243.492 164.329 197.066C151.446 159.74 162.795 110.668 194.143 85.326ZM474.18 13.9013C474.18 13.9013 474.233 13.9806 474.18 13.9806V13.9013Z" fill="#739A20"/>
<path opacity="0.1" d="M194.143 85.326C215.649 67.9195 256.732 53.8462 281.439 72.7076C265.779 22.1812 319.797 -29.4562 365.297 -36.0696C401.697 -41.3603 467.964 -32.3132 474.18 13.9013C501.084 -9.69534 533.092 -9.90697 560.022 3.31983C559.62 0.143585 559.417 -3.05474 559.414 -6.25637C559.414 -10.8328 559.414 -23.4512 564.704 -25.9643C573.91 -30.4085 577.111 2.12941 577.614 6.78524C580.259 1.04482 583.513 -4.58979 590.021 -6.30928C595.311 -7.73777 602.507 -5.88602 603.036 0.542198C603.38 4.64251 598.115 11.7585 595.682 14.6949C593.2 17.7471 590.286 20.4206 587.031 22.6309C609.676 45.1165 622.77 77.9454 615.231 110.192C666.233 130.879 689.036 190.135 653.589 237.434C627.823 271.824 567.879 275.951 537.325 244.735C553.197 280.315 525.923 341.37 491.798 357.295C452.7 375.548 405.189 354.28 376.725 326.847C365.668 316.266 357.414 304.256 354.372 292.458C325.485 304.124 300.01 310.155 268.953 301.69C219.961 288.463 180.281 243.492 164.329 197.066C151.446 159.74 162.795 110.668 194.143 85.326ZM196.285 173.655C208.084 247.513 302.814 285.103 365.35 246.032C372.403 256.512 381.783 265.221 392.756 271.48C423.284 288.939 466.403 290.235 495.925 269.496C513.086 257.935 526.34 241.443 533.939 222.197C548.488 225.821 564.096 228.44 578.381 226.562C593.38 224.578 608.776 221.827 619.622 209.949C631.632 196.722 638.563 177.437 632.293 159.687C627.003 144.45 617.03 127.625 601.528 120.853C598.671 119.61 595.84 118.499 593.01 117.441C595.854 105.06 595.908 92.2014 593.169 79.7971C586.767 50.6982 566.424 24.2446 538.119 13.9806C516.956 6.33553 485.37 12.4992 470.371 30.0644C452.092 -8.92819 421.114 -30.2498 376.593 -23.0279C359.557 -20.3826 343.05 -10.198 330.14 1.9707C314.453 16.7583 306.623 36.0165 299.666 55.9625C297.761 61.4119 296.333 77.8396 292.312 81.5695C286.809 86.6486 268.08 83.3684 260.224 85.3789C233.214 92.2303 211.284 116.435 199.645 141.17C195.296 151.417 194.125 162.734 196.285 173.655Z" fill="black"/>
<path opacity="0.3" d="M360.615 -14.0076C411.935 -32.8955 451.166 7.52558 462.038 54.0574C479.365 24.2707 540.261 28.2916 562.562 46.4917C584.862 64.6918 593.248 125.985 569.704 145.56C536.664 172.993 498.756 152.624 472.408 126.434C462.012 162.94 396.116 168.76 367.678 156.353C329.638 139.688 324.453 96.2509 347.468 65.406C313.924 52.047 335.246 -4.66953 360.615 -14.0076ZM513.861 94.4521C537.484 108.711 559.758 82.2041 536.558 64.6918C512.75 46.7033 484.286 75.6965 513.199 94.0288L513.861 94.4521Z" fill="#BCD84D"/>
<path opacity="0.3" d="M285.302 196.589C264.139 209.816 235.278 209.419 219.485 184.606C195.968 147.571 222.66 109.107 264.218 110.536C288.767 111.435 305.618 118.472 310.221 144.925C314.03 167.014 302.179 186.087 285.302 196.589Z" fill="#B3C31A"/>
<path d="M633.061 74.003C639.51 73.0756 646.065 74.7192 651.314 78.5795C676.63 99.5572 629.489 126.699 625.733 83.8702C625.526 82.7365 625.555 81.5724 625.817 80.4501C626.078 79.3279 626.568 78.2714 627.255 77.3462C627.942 76.421 628.812 75.6469 629.811 75.0718C630.809 74.4967 631.916 74.1329 633.061 74.003Z" fill="#98B936"/>
<path d="M226.548 36.6515C232.738 11.5471 266.229 32.4983 251.97 50.91C241.971 63.7929 222.712 52.2062 226.548 36.6515Z" fill="#AECC44"/>
<path d="M898.172 447.712C894.403 443.766 889.74 440.786 884.576 439.023C883.576 438.673 882.545 438.421 881.496 438.272C890.535 419.268 890.109 392.451 884.801 373.372C883.638 369.188 882.148 365.103 880.344 361.153C854.028 303.088 796.389 256.816 729.736 268.51C668.616 279.176 580.38 320.866 575.773 392.151C574.045 418.842 590.495 454.147 611.353 470.597C622.846 479.661 635.791 484.819 650.588 483.117C662.457 481.815 689.899 471.298 688.497 459.23C695.032 489.126 719.645 506.052 749.717 504.3C776.008 502.847 817.747 484.97 823.431 456.05C822.054 463.036 848.945 464.488 852.726 463.561C858.724 462.117 864.256 459.17 868.801 454.998C868.801 459.23 868.451 463.486 868.801 467.718C869.152 471.949 869.928 482.29 874.51 484.068C882.673 487.223 883.224 459.455 883.324 455.399C885.828 460.081 889.108 464.638 894.716 465.665C899.374 466.516 905.258 464.463 905.283 458.979C905.358 455.724 900.425 450.041 898.172 447.712Z" fill="#2D3C01"/>
<path d="M811.137 487.449C798.092 499.968 787.325 513.84 787.576 537.251C787.576 536.274 772.377 521.852 771.401 514.566C770.174 505.377 773.905 492.156 778.286 484.119C785.573 470.648 799.494 462.085 810.837 452.319C823.857 441.077 827.763 429.785 832.746 413.484C835.976 402.918 846.417 389.798 852.426 404.47C857.609 417.115 849.171 445.058 841.76 455.75C832.921 468.369 821.328 477.584 811.137 487.449Z" fill="#825931"/>
<path d="M681.311 618.852C673.794 624.105 664.816 626.864 655.646 626.74C646.858 626.74 638.119 624.486 638.119 615.297C638.119 602.026 667.915 608.862 674.35 593.363C693.257 548.508 703.152 500.37 703.47 451.694C703.392 415.334 697.283 379.239 685.392 344.878C685.392 342.149 687.12 340.772 688.071 340.772C712.86 340.772 713.786 401.616 739.777 401.616C766.919 401.616 765.066 339.245 782.793 339.245C783.695 339.245 784.446 339.495 784.446 340.472C781.07 366.107 779.356 391.934 779.313 417.791C779.313 454.874 784.07 579.742 828.439 599.147C832.32 600.85 836.802 605.031 836.802 609.939C836.736 612.042 835.846 614.035 834.323 615.487C832.801 616.939 830.768 617.735 828.664 617.701C813.065 617.701 787.701 610.965 767.094 610.965C752.071 610.965 737.548 614.345 725.329 625.813C723.47 627.697 720.94 628.768 718.293 628.793C708.278 628.793 700.916 615.472 697.211 615.472C693.505 615.472 688.021 618.978 682.913 618.978C682.377 618.974 681.841 618.932 681.311 618.852Z" fill="#992108"/>
<path d="M828.439 599.221C784.07 579.816 779.313 454.948 779.313 417.865C779.356 392.009 781.071 366.181 784.446 340.546C784.446 339.569 783.695 339.319 782.793 339.319C765.066 339.319 766.919 401.69 739.777 401.69C713.787 401.69 712.86 340.846 688.072 340.846C687.12 340.846 685.393 342.223 685.393 344.953C697.283 379.313 703.392 415.408 703.471 451.768C703.408 478.589 700.308 505.317 694.231 531.441L695.233 532.393C707.17 544.277 715.8 559.069 720.272 575.309C721.423 583.922 722.6 592.536 723.752 601.149V603.478C723.744 611.931 722.641 620.347 720.472 628.516C722.261 628.045 723.899 627.123 725.229 625.837C737.448 614.37 751.87 610.989 766.994 610.989C787.601 610.989 812.965 617.725 828.564 617.725C830.668 617.759 832.701 616.964 834.224 615.511C835.746 614.059 836.636 612.066 836.702 609.963C836.802 605.105 832.32 600.924 828.439 599.221Z" fill="#872108"/>
<path d="M828.439 599.221C784.07 579.816 779.313 454.948 779.313 417.865C779.356 392.009 781.071 366.181 784.446 340.546C784.446 339.569 783.695 339.319 782.793 339.319C765.066 339.319 766.919 401.69 739.777 401.69C713.787 401.69 712.86 340.846 688.072 340.846C687.12 340.846 685.393 342.223 685.393 344.953C697.283 379.313 703.392 415.408 703.471 451.768C703.408 478.589 700.308 505.317 694.231 531.441L695.233 532.393C707.17 544.277 715.8 559.069 720.272 575.309C721.423 583.922 722.6 592.536 723.752 601.149V603.478C723.744 611.931 722.641 620.347 720.472 628.516C722.261 628.045 723.899 627.123 725.229 625.837C737.448 614.37 751.87 610.989 766.994 610.989C787.601 610.989 812.965 617.725 828.564 617.725C830.668 617.759 832.701 616.964 834.224 615.511C835.746 614.059 836.636 612.066 836.702 609.963C836.802 605.105 832.32 600.924 828.439 599.221Z" fill="#603813"/>
<path d="M718.544 439.123C738.904 440.789 759.36 440.914 779.739 439.499C779.438 430.785 779.313 423.374 779.313 417.865C779.356 392.009 781.071 366.181 784.446 340.546C784.446 339.569 783.695 339.319 782.793 339.319C765.066 339.319 766.919 401.69 739.777 401.69C713.787 401.69 712.86 340.846 688.072 340.846C687.12 340.846 685.393 342.223 685.393 344.953C695.538 374.328 701.44 405.001 702.92 436.044C708.203 437.17 713.361 438.222 718.544 439.123Z" fill="#825931"/>
<path d="M662.958 442.404C635.966 431.537 631.885 417.841 615.86 396.808C602.088 378.805 602.94 405.421 603.941 414.886C606.195 435.843 614.458 445.959 630.933 458.303C660.253 480.262 714.337 497.99 730.137 533.419C737.223 549.219 738.6 565.669 738.575 582.721C738.575 596.868 737.072 617.475 752.471 624.686C774.23 634.902 788.978 620.229 793.284 599.296C798.292 574.783 788.277 554.828 778.837 532.894C763.188 496.638 730.788 467.793 694.156 453.696C684.191 449.74 673.299 446.56 662.958 442.404Z" fill="#603813"/>
<path d="M657.95 475.079C671.557 467.626 685.741 461.279 700.366 456.1C698.312 455.223 696.259 454.347 694.156 453.596C684.14 449.715 673.299 446.535 662.958 442.379C635.966 431.537 631.885 417.841 615.86 396.808C602.088 378.805 602.94 405.421 603.941 414.886C606.195 435.843 614.458 445.959 630.933 458.303C639.57 464.468 648.595 470.071 657.95 475.079Z" fill="#825931"/>
<path d="M630.933 458.303C632.886 459.755 634.964 461.183 637.118 462.635C639.154 461.4 641.207 460.198 643.277 459.029C651.941 454.147 660.804 449.414 669.818 445.008C667.515 444.156 665.236 443.305 662.958 442.504C635.966 431.537 631.885 417.841 615.86 396.808C602.088 378.805 602.94 405.421 603.941 414.886C606.195 435.843 614.357 446.084 630.933 458.303Z" fill="#603813"/>
<path d="M937.032 189.413C852.451 103.455 745.635 230.076 768.846 320.24C777.134 352.415 789.103 389.548 818.323 407.701C846.607 424.85 880.378 430.538 912.719 423.6C946.922 415.738 961.294 388.972 963.097 356.221C964.449 331.858 956.512 298.206 928.944 291.947C962.696 264.98 967.404 220.411 937.032 189.413Z" fill="url(#paint0_radial_683_8318)"/>
<path d="M937.032 189.413C852.451 103.455 745.635 230.076 768.846 320.24C777.134 352.415 789.103 389.548 818.323 407.701C846.607 424.85 880.378 430.538 912.719 423.6C946.922 415.738 961.294 388.972 963.097 356.221C964.449 331.858 956.512 298.206 928.944 291.947C962.696 264.98 967.404 220.411 937.032 189.413Z" fill="#61630D"/>
<path d="M557.469 170.158C504.187 185.682 479.524 241.117 495.824 286.888C502.13 304.24 513.715 319.178 528.95 329.604C505.288 333.936 505.814 368.189 512.625 393.629C509.768 392.71 506.858 391.966 503.911 391.4C500.105 390.749 489.564 388.696 486.66 392.677C481.502 399.713 508.168 407.475 512.049 408.627C506.866 409.904 501.633 411.807 499.179 416.965C497.151 421.221 497.576 427.456 502.885 428.908C506.24 429.81 512.9 426.53 515.855 424.977C518.767 423.374 521.432 421.359 523.767 418.993C545.801 448.639 595.127 454.823 626.426 440.025C669.893 419.569 707.376 376.752 720.697 330.681C746.412 242.244 646.908 144.067 557.469 170.158Z" fill="#819D2E"/>
<path d="M943.917 138.934C931.623 113.069 890.86 81.1196 862.867 74.0587C844.989 69.5267 822.179 65.4955 804.652 75.8365C804.826 73.1434 804.826 70.442 804.652 67.7489C802.548 30.9169 767.094 13.0643 732.039 13.4148C730.186 13.4148 728.309 13.4148 726.381 13.5651C728.347 11.1714 730.17 8.66309 731.839 6.05343C733.842 2.72328 739.551 -6.46595 736.847 -10.4972C732.139 -17.8836 715.263 4.20057 712.785 7.40553C713.486 2.12235 713.611 -3.43626 709.68 -7.61773C706.425 -11.048 700.465 -12.9009 697.16 -8.49408C695.082 -5.6647 695.708 1.82188 696.134 5.02685C696.691 9.20621 698.015 13.2467 700.04 16.9453C673.424 22.6291 647.458 35.9998 639.321 62.591C589.243 17.3459 530.402 71.2043 559.798 127.416C520.737 143.742 509.545 185.005 509.545 225.343C509.545 266.557 535.911 311.827 579.653 317.285C576.041 327.51 574.072 338.243 573.819 349.084C573.819 393.829 631.233 418.767 656.447 375.175C653.418 380.408 700.115 401.541 705.248 403.744C723.476 411.581 740.027 415.387 760.333 411.882C796.714 405.597 830.041 381.009 834.097 342.474C833.847 344.978 855.706 341.873 857.934 341.448C888.832 335.664 907.536 305.542 892.988 275.596C946.872 265.205 963.448 179.948 943.917 138.934Z" fill="#98B936"/>
<path opacity="0.1" d="M943.917 138.934C931.623 113.069 890.86 81.1196 862.867 74.0587C844.989 69.5267 822.179 65.4955 804.652 75.8365C804.826 73.1434 804.826 70.442 804.652 67.7489C802.548 30.9169 767.094 13.0643 732.039 13.4148C730.186 13.4148 728.309 13.4148 726.381 13.5651C728.347 11.1714 730.17 8.66309 731.839 6.05343C733.842 2.72328 739.551 -6.46595 736.847 -10.4972C732.139 -17.8836 715.263 4.20057 712.785 7.40553C713.486 2.12235 713.611 -3.43626 709.68 -7.61773C706.425 -11.048 700.465 -12.9009 697.16 -8.49408C695.082 -5.6647 695.708 1.82188 696.134 5.02685C696.691 9.20621 698.015 13.2467 700.04 16.9453C673.424 22.6291 647.458 35.9998 639.321 62.591C589.243 17.3459 530.402 71.2043 559.798 127.416C520.737 143.742 509.545 185.005 509.545 225.343C509.545 266.557 535.911 311.827 579.653 317.285C576.041 327.51 574.072 338.243 573.819 349.084C573.819 393.829 631.233 418.767 656.447 375.175C653.418 380.408 700.115 401.541 705.248 403.744C723.476 411.581 740.027 415.387 760.333 411.882C796.714 405.597 830.041 381.034 834.097 342.474C833.847 344.978 855.706 341.873 857.934 341.448C888.832 335.664 907.536 305.542 892.988 275.596C946.872 265.205 963.448 179.948 943.917 138.934ZM891.336 235.333C884.267 243.327 874.872 248.905 864.469 251.283C864.1 254.701 863.327 258.063 862.166 261.299C856.482 276.973 844.288 290.594 827.387 294.275C820.542 295.781 813.473 295.977 806.555 294.85C806.129 295.527 805.728 296.203 805.278 296.854C793.741 314.365 776.327 327.179 756.177 332.985C736.321 338.293 716.115 335.989 699.664 322.969C698.913 322.368 698.212 321.717 697.511 321.091C691.99 325.387 685.908 328.909 679.433 331.557C670.574 335.057 661.04 336.518 651.54 335.833C642.039 335.149 632.814 332.335 624.548 327.601C609.525 318.587 597.782 301.861 599.084 283.808C595.099 283.436 591.137 282.851 587.215 282.056C562.026 276.823 535.385 259.295 529.826 232.479C526.548 217.037 528.623 200.939 535.708 186.832C542.793 172.726 554.467 161.45 568.812 154.859C575.423 151.865 582.244 149.355 589.218 147.347C586.588 140.216 585.79 132.538 586.897 125.019C588.004 117.499 590.98 110.377 595.553 104.306C604.542 92.4121 617.537 81.7706 632.711 79.2668C635.409 78.8343 638.141 78.6499 640.873 78.7159C653.106 63.0338 670.071 51.7152 689.248 46.441C718.869 37.6273 754.925 44.9887 776.558 67.9743C785.773 77.5203 792.048 89.5147 794.636 102.528C808.434 97.9439 823.002 96.1315 837.503 97.1945C870.053 100.174 903.079 120.556 910.766 154.558C916.85 181.926 910.466 214.176 891.386 235.333H891.336Z" fill="black"/>
<path opacity="0.3" d="M780.74 90.7606C772.102 85.3523 737.799 81.1708 736.697 98.4475C741.955 14.768 606.495 101.853 661.931 132.801C648.661 126.491 638.194 148.876 635.966 159.818C631.885 179.273 642.276 198.202 657.074 209.945C678.256 226.721 698.613 225.369 719.671 210.371C730.087 202.859 749.266 188.387 742.932 173.914C765.466 183.93 795.513 172.137 803.751 146.923C809.51 128.82 796.965 100.901 780.74 90.7606ZM693.63 129.195C693.532 130.69 693.123 132.149 692.428 133.477L692.128 134.028C691.898 135.075 691.367 136.032 690.601 136.782C690.051 137.348 689.393 137.797 688.666 138.102C687.939 138.408 687.158 138.563 686.369 138.56C684.826 138.667 683.282 138.362 681.896 137.676C680.51 136.989 679.331 135.946 678.482 134.654C677.815 133.472 677.494 132.128 677.555 130.773C677.393 130.297 677.309 129.798 677.305 129.295C677.314 127.903 677.841 126.565 678.782 125.539C679.427 124.464 680.365 123.596 681.486 123.036C682.622 122.366 683.901 121.98 685.217 121.909C686.345 121.908 687.452 122.211 688.422 122.785C688.639 122.933 688.864 123.067 689.098 123.186L690.576 124.012C691.497 124.529 692.265 125.281 692.802 126.192C693.338 127.102 693.624 128.138 693.63 129.195ZM698.338 100.901L695.834 103.405C695.287 103.921 694.692 104.382 694.056 104.782C693.502 105.614 692.76 106.304 691.89 106.796C691.02 107.287 690.046 107.567 689.048 107.612C688.016 107.602 687.004 107.316 686.119 106.785C685.114 106.595 684.162 106.19 683.328 105.598C682.494 105.006 681.798 104.241 681.286 103.355C680.791 102.454 680.478 101.463 680.366 100.44C680.255 99.4178 680.346 98.3832 680.635 97.3959C680.716 96.655 680.876 95.9249 681.111 95.2175C681.111 95.0172 681.286 94.842 681.361 94.6667C682.363 90.0846 686.895 87.9563 691.552 88.0314C692.726 88.0521 693.872 88.3976 694.862 89.0296C695.852 89.6616 696.648 90.5554 697.161 91.612C697.926 92.0827 698.576 92.719 699.062 93.4741C699.549 94.2291 699.86 95.0837 699.973 95.9749C700.086 96.8661 699.998 97.7713 699.715 98.6239C699.432 99.4764 698.961 100.255 698.338 100.901ZM724.753 119.38C724.112 120.155 723.351 120.822 722.5 121.358C721.403 122.112 720.1 122.505 718.769 122.485C717.169 122.377 715.66 121.703 714.513 120.582C714.017 120.138 713.624 119.591 713.361 118.979C712.34 118.473 711.513 117.647 711.007 116.626C710.433 115.637 710.131 114.514 710.131 113.371C710.131 112.227 710.433 111.104 711.007 110.116C711.705 109.048 712.672 108.185 713.812 107.612C714.588 107.261 715.364 106.961 716.14 106.66L716.716 106.435H716.916C717.572 106.155 718.282 106.026 718.995 106.059H719.42C720.203 106.095 720.982 106.195 721.749 106.36C723.325 106.801 724.67 107.832 725.505 109.239C725.851 109.842 726.081 110.504 726.181 111.192C726.883 112.198 727.259 113.396 727.257 114.623C727.244 115.557 727.01 116.474 726.575 117.301C726.14 118.128 725.516 118.84 724.753 119.38Z" fill="#BCD84D"/>
<path opacity="0.3" d="M563.203 249.931C623.296 322.744 667.815 153.181 582.984 162.095C541.094 166.502 542.521 224.892 563.203 249.931Z" fill="#BCD84D"/>
<path opacity="0.3" d="M818.273 188.911C827.988 214.351 864.995 216.704 888.507 192.742C938.584 141.688 831.994 96.5932 817.322 162.696C815.064 171.339 815.395 180.454 818.273 188.911Z" fill="#BCD84D"/>
<path d="M543.873 122.234C548.756 113.471 541.369 98.2722 529 100.626C510.547 104.131 518.384 130.472 535.085 127.918C536.893 127.728 538.631 127.115 540.158 126.127C541.685 125.139 542.958 123.806 543.873 122.234Z" fill="#AECC44"/>
<path d="M837.328 55.4794C842.811 45.6142 834.623 28.5127 820.602 31.1918C799.819 35.1229 808.658 64.7438 827.437 61.8643C829.474 61.6595 831.432 60.9738 833.152 59.8638C834.871 58.7537 836.303 57.251 837.328 55.4794Z" fill="#819D2E"/>
<defs>
<radialGradient id="paint0_radial_683_8318" cx="0" cy="0" r="1" gradientUnits="userSpaceOnUse" gradientTransform="translate(855.506 200.761) scale(244.486 244.486)">
<stop stop-color="#B2B506"/>
<stop offset="1" stop-color="#808204"/>
</radialGradient>
</defs>
</svg>
