<svg width="307" height="211" viewBox="0 0 307 211" fill="none" xmlns="http://www.w3.org/2000/svg">
<path d="M73.5 23.4999C73.5 23.4999 65.4565 22.4014 60.5 23.4999C45 46.5 37.5 58.4999 37.5 58.4999C37.6667 60.3333 38 65.2999 38 70.4999C42.4 62.4999 63.5 35.8333 73.5 23.4999Z" fill="#654F20"/>
<path d="M256 23.4883C256 23.4883 241.957 25.4015 237 26.5C258 51 269.5 65 269.5 65C272 62 273.5 61 273.5 55.0001C269.5 46 261 35.0001 256 23.4883Z" fill="#654F20"/>
<path d="M32.5 145.5V128L0 194.5H15.5L32.5 145.5Z" fill="#654F20"/>
<path d="M274 145.5V128L306.5 194.5H291L274 145.5Z" fill="#654F20"/>
<path d="M27 29.5V16H147H285C285.5 23 285.5 27 285 30.5C267.8 26.5 104.167 27.8333 27 29.5Z" fill="#9E7337"/>
<path fill-rule="evenodd" clip-rule="evenodd" d="M121.629 7.01808C121.086 5.45256 119.377 4.62321 117.812 5.16569C116.246 5.70817 115.417 7.41704 115.959 8.98257L125.853 37.5354C126.396 39.1009 128.105 39.9303 129.67 39.3878C131.236 38.8453 132.065 37.1364 131.523 35.5709L121.629 7.01808ZM131.523 7.01808C130.98 5.45256 129.271 4.62321 127.706 5.16569C126.14 5.70817 125.311 7.41704 125.853 8.98257L135.747 37.5354C136.29 39.1009 137.999 39.9303 139.564 39.3878C140.436 39.0855 141.08 38.4212 141.385 37.6213C141.869 39.099 143.419 39.9757 144.953 39.5976C146.562 39.2013 147.545 37.5758 147.148 35.9671L140.081 7.28266C139.685 5.67392 138.06 4.69108 136.451 5.08743C134.842 5.48379 133.859 7.10925 134.256 8.71799L139.53 30.1278L131.523 7.01808ZM149.033 7.28266C148.637 5.67392 147.011 4.69108 145.402 5.08743C143.794 5.48379 142.811 7.10925 143.207 8.71799L150.274 37.4024C150.671 39.0112 152.296 39.994 153.905 39.5976C155.514 39.2013 156.496 37.5758 156.1 35.9671L149.033 7.28266ZM162.595 5.04C164.23 4.77146 165.773 5.87915 166.041 7.51409L170.753 36.1985C171.021 37.8335 169.914 39.3765 168.279 39.6451C166.644 39.9136 165.101 38.8059 164.832 37.171L160.121 8.48656C159.852 6.85162 160.96 5.30853 162.595 5.04ZM178.311 7.65766C178.122 6.01165 176.634 4.83071 174.988 5.01996C173.342 5.20921 172.161 6.69699 172.35 8.343L175.648 37.0274C175.838 38.6734 177.325 39.8544 178.971 39.6651C180.617 39.4759 181.798 37.9881 181.609 36.3421L178.311 7.65766Z" fill="#ED801C"/>
<path d="M37.5 0.5H28C28 16.5 29.5 53.1 29.5 71.5C29.5 89.9 31.8333 158.833 33 191H43.5C41.9 173.8 38.5 53.3333 37.5 0.5Z" fill="#896831"/>
<path d="M279.172 1H269.672C269.672 17 267.172 55.1 267.172 73.5C267.172 91.9 262.005 159.333 263.172 191.5H273.672C272.072 174.3 280.172 53.8333 279.172 1Z" fill="#896831"/>
<path d="M251 161.5C258 172.5 261 179 267.5 192.85C246.385 203.643 204.376 211 156 211C104.346 211 59.9514 202.613 40.5 190.61C50.5 175 57.5 165.5 61.5 160C86 157 86.4121 155.5 156 155.5C225.588 155.5 226.5 158.5 251 161.5Z" fill="#A29C87"/>
<ellipse cx="156" cy="161.5" rx="95" ry="13.5" fill="#BEBDAA"/>
<ellipse cx="156" cy="162.5" rx="69" ry="8.5" fill="#A19B89"/>
<path d="M80.5 169L76.4375 182M70.5 201L76.4375 182M107 172.5L105.5 187.5M104 207.5L105.5 187.5M133 174L132 189.5M130.5 209.5L132 189.5M159.5 174V189.5M161.5 210.5L159.5 189.5M181.5 174L183.5 187.5M186.5 210.5L183.5 187.5M205.5 172.5L209.5 185M216.5 206L209.5 185M230 169L235 182M243 202.5L235 182M235 182L257.5 174M209.5 185L183.5 187.5M159.5 189.5H132M105.5 187.5L76.4375 182M61.5 162.5L42.5 192" stroke="#555040" stroke-width="2"/>
<ellipse cx="156" cy="165" rx="49" ry="4" fill="#76705F"/>
</svg>
