<svg xmlns="http://www.w3.org/2000/svg" fill="none" viewBox="0 0 142 128" xmlns:v="https://vecta.io/nano"><style><![CDATA[.B{stroke-linecap:round}.C{fill:#8edeff}.D{stroke-width:1.741}.E{fill:#ed801c}.F{stroke-linejoin:round}.G{fill-rule:evenodd}]]></style><g clip-path="url(#A)"><path d="M0 11.633C0 5.348 5.095.252 11.381.252h130.62v127.47H11.381C5.096 127.722 0 122.626 0 116.341v-104.7z" fill="#ffe6b5"/><path d="M24.159 65.43c-41.921 2.321-46.562 3.916-68.901 3.916l20.796 84.089h308.53l8.361-28.628c-7.878 0-7.764-32.559-24.805-37.039-25.885-6.805-80.963 9.903-107.63 0C110.901 69.346 81.39 62.261 24.16 65.43z" fill="#bb8542"/><path d="m96.137 101.97c66.351 2.205 146.28 12.196 121.68 54.404l-223.48 21.181c-42.623-5.755-117.57-64.014-73.952-53.098 62.609 15.668 92.809-25.243 175.75-22.487z" class="C"/><path d="M140.8 98.866l-.481-.116c.108.098.185.207.17.327 0 .018-.011.032-.015.047l.952.343-.198.837-1.723-.742.259-.118c-.274-.04-.564-.097-.746-.19-.96-.452-.969-.706-.109-.956-.137-.096-.194-.203-.046-.305.182-.128.654-.206 1-.16.373.049.903.246 1.087.427.16.149-.063.352-.15.606zm-22.55-10.369l.201.317c-.721.085-1.203.061-1.418-.309-.109-.192-.144-.368.031-.505-.146-.238-.09-.491.193-.782l1.9.213c.099.529-.142.885-.907 1.066zm10.089.5c-.356-.031-.688-.121-1.012-.21.045.048.139.076.158.128.071.019.129.024.199.043.274.084.623.304.64.44.05.251-.275.378-.834.275l-.413-.073c-.177.027-.392.041-.67.017l-.607-.085-.209.289-.518-.318c.284.348.514.742-.627.867l-1.6-1.148c.844-.121 1.434-.099 1.828.038l-.274-.166c.09-.064.209-.104.306-.15-.063-.091-.129-.177-.171-.291l1.808-.169c.026.001.046.01.07.008l-.784-.3c.716-.171 1.334-.315 1.979-.109.544.179 1.164.502.731.917zm-1.757-2.54l1.348.548-.446.65c-1.502-.634-1.516-.651-.902-1.199zm15.762 8.958c-.89-.228-1.961-.315-2.159-1.026l1.31-.186c1.301.501 1.306.508.849 1.212zm-20.353-9.648l-1.404-.725c-.126-.087.052-.287.084-.443.239.046.517.071.719.155.641.261.809.59.601 1.013zm13.997 5.686c-.215.131-.334.28-.573.336-.493.123-.939-.098-1.252-.326-.179-.121-.162-.308-.233-.466.388.011.779-.021 1.156.049.284.055.544.236.902.407zm4.734 5.252c-.251.157-1.525-.063-2.133-.434.045-.129-.006-.382.195-.519.15-.107.434-.134.75-.108-1.499-.357-1.603-.541-.722-1.185 1.482.466 1.706.75 1.057 1.248.238.053.47.127.648.238.425.275.528.552.205.759zm-4.366 2.643c.35.124.571.359.881.57-1.288.151-1.28.153-2.418-.625.408-.282 1.034-.128 1.537.055zm-38.921-15.76c-.444-.383-1.129-.72-.802-1.388l1.422-.211.473 1.05-.723.491c-.06.036-.187.035-.37.058zm11.082 2.797c.183-.093.363-.118.539-.169-.954-.329-.955-.561-.107-1.102l.473.255c.297-.082.574-.004 1.215.254l1.426.553c-.005.014-.002.026-.006.039.583.274.273.639.176 1.019l-.448-.173c-.785.137-1.126-.26-1.587-.489-.015-.005-.035-.015-.049-.019l-.26.25-1.372-.418zm7.249 4.729l-1.137-.568.116-.186 1.938.046-.917.708zm-4.137-1.395c-.183-.123-.268-.336-.217-.486.029-.081.431-.153.666-.149.274-.001.554.083 1.154.196-.371.264-.53.466-.82.554-.166.055-.626-.022-.783-.115zm5.81-5.945c-.96-.157-1.533-.501-2.039-1.012 1.118-.204 1.913.216 2.039 1.012zm-5.01.892c.003.017.019.022.02.022.003-.009-.01-.013-.02-.022zm-1.033-1.222l-.015.016c.012.009.023.017.028.025.007-.02-.009-.025-.013-.041zm-1.677 1.046c.124-.032.235-.033.357-.049l-.519-.105c-.356-.079-.718-.209-1.083-.248-1.3-.14-1.56-.425-.889-1.147l.924.433.748-.043-.895-.326c-.488-.196-.223-.805.323-.741.787.085 1.631.265 2.32.526.266.103.388.227.445.357.087-.107.427-.19.764-.328.312.37.595.631.713.897.047.129-.177.37-.364.384-.086.006-.203-.013-.32-.022.082.064.193.132.252.203.046.053.045.114.036.175.999-.239 1.133-.212 2.07.163-.874.663-1.373.675-2.084.111l-.457.644c-1.173.035-1.832-.272-2.341-.886zm11.372 5.852c.072.159-.12.33-.197.497-.265-.056-.615-.076-.795-.175-.221-.126-.43-.285-.641-.423a2.03 2.03 0 0 1-.575.008c.011-.212-.691-.492.11-.628.111-.02.347.062.521.152.883.034 1.403.22 1.577.57zm-5.648-1.488c-.866-.28-1.987-.323-1.834-1.068.461-.057.715-.082 1.001-.066-.197-.087-.371-.214-.567-.341-.569-.387-.373-.666.08-.945 1.046.244 1.344.36 1.398.79.049.018.091.017.134.039.22.11.257.33.465.625l-.482.01.751.187-.946.767zm-71.49-3.58c.628.433.016.632-.196 1.083l-.961-.913c.25-.426.691-.486 1.157-.17zm-2.035 3.482c-.371.27-.707.514-1.178-.068.67-.675.68-.673 1.178.068zm15.14.337l-1.718.057.134-1.098 1.584 1.041zM38.571 86.61c-.187.447-.355.846-1.258.394.148-.638.51-.808 1.258-.394zm-17.733-.061c-.54-.238-.52-.436-.121-.743.545-.421 1.118-.345 1.888.164-.097.104-.177.162-.263.248.04.037.083.058.129.11-.452.347-.692.451-.964.348-.205.016-.41-.014-.669-.126zm-26.213-3.113c-.336-.616.808-1.402 1.733-1.162.27.072.5.321.844.558l-1.613.905c-.313.141-.773.056-.964-.301zm31.542 3.293c.025.305-.165.522-.662.431-.572-.108-.716-.35-.645-1.153.788-.074 1.259.143 1.306.721zm-42.497-4.414l1.332-.406c1.209-.407 1.345-.367 2.369.645-.035.055-.093.079-.138.129.059.027.127.039.18.073l-.46.189c-.399.319-.894.511-1.485.601l-.473.205-.115-.123-1.321.092c-1.034-.984-1.018-1.061.112-1.405zm6.677-.494c.107.282-.31.56-.528.936-1.714-.941-1.728-.94-1.208-1.668.733.059 1.535.178 1.736.732zm25.302 4.437l-1.194.729c-1.082-.197-1.046-.702-1.011-1.292.73.172 1.461-.286 2.205.563zm4.875-7.144c-.168-.154-.268-.438-.167-.564.082-.13.482-.247.678-.186.371.118.741.298 1.118.473-.227-.669-.087-.726 1.205-.916l.559.883c-.428.268-.789.542-1.422.371-.871.549-1.317.536-1.969-.061zm6.41-.582c-.131-.156.072-.588.301-.643.449-.1.688-.744 1.427-.228.235.163.504.546.415.649-.214.262-.644.411-1.061.663-.423-.163-.93-.248-1.082-.442zm-6.63 2.482l.557-.829c.864.327.966.667.695.982-.258.299-.682.262-1.253-.153zm-17.547.175l1.692.783-1.567.615-.869-1.003.744-.395zm36.399-2.246l2.075-.221.314 1.037c-1.135.178-1.792-.048-2.389-.816zM5.362 81.494c-.478-.397-.097-.828 1.018-1.103-.196-.113-.354-.263-.435-.481-.231-.626.032-.85 1.296-1.063l1.222.887-.666.51c-.134.093-.299.173-.478.222-.075.027-.153.023-.223.037.119.043.253.089.336.162.384.328-.212 1.07-.963 1.145-.303.031-.888-.136-1.108-.316zm-4.606.349c-.293.194-.733.314-1.117-.023-.255-.224-.392-.609-.28-.811.116-.221.546-.431.92-.42.314.003.717.314 1.231.57-.353.327-.522.526-.754.684zm25.459-.76c.94-.641 1.034-.647 1.628-.043.517-.18 1.024-.357 1.826.164-.153.811-.817 1.041-1.893.976l-.555-.779c-.302 0-.636-.108-1.007-.319zm-30.692-1.975c.585-.082 1.158.06 1.57.442.309.294-.21 1-1.011 1.132-.268-.128-.79-.289-1.06-.532-.461-.404-.152-.948.501-1.041zM26.3 75.973c-.345.165-.771.242-1.059-.093-.187-.215-.264-.576-.127-.759.189-.238.635-.365.978-.536.805.925.821 1.087.208 1.388zm2.045.051c-.392.395-.874.12-1.55-.119l.266-1.02c.387.09.828.122 1.134.287.491.254.435.582.15.852zm1.802.211c-.343.533-.995.138-1.677-.031.153-.48.338-.867 1.087-.631.279.087.665.536.589.662zm4.08-2.778c.739-1.07.995-1.102 2.097-.362-.745.863-.785.88-2.097.362zm7.813-1.623c.628.061 1.029.692.964 1.545l-1.798.075.217.409 1.818.088c.492.449.38.85.017 1.091-.572.4-1.303.064-2.088-.107l-.153-.733-2.223-.06c.025-.688.489-.958 1.138-1.131.08-1.008.652-1.324 2.107-1.177zm-6.431 2.64l.613-.085c.01-.018.017-.039.025-.057.108-.116.575-.168.789-.09a.56.56 0 0 1 .256.241l.273.167c.831.578.786.876-.077 1.2-.659.25-1.347.302-2.16.043l-.307-.361c-.57-.71-.474-.909.589-1.058zm40.408 11.487l.316-.109 1.004.845.45-.164.231.172-.868 1.21-.819-.706-.219.087-.094-1.335zm-35.965-8.817c-.404.343-.833.194-1.412-.181l1.157-.928c.82.487.607.807.255 1.109zm-32.28-2.839c1.372.665 1.447 1.085.274 1.497-.554.194-1.133.298-1.917-.03-.006-.787.234-1.422 1.643-1.467zm4.018-.282c2.283-.29 2.28-.368 3.121.7-.714.396-1.568.5-2.656.349l-.465-1.049zm24.925 2.415l.232.838c-1.246-.267-.666-.558-.232-.838zm-38.261 1.933c.409.697-.204.788-.741.915-.188.036-.407.033-.633.058l-.892-.992 2.266.019zm-21.463 12.301c-.813.366-1.188 1.086-2.79.418-.038-.81-.04-.814 1.313-1.635l1.476 1.217zm-17.175 7.757c.061.068.009.15-.008.29-1.03.008-2.058.218-3.432-.5l.067-1.106 2.535.469.837.848zm7.221-8.904c.045-.01.065-.026.11-.036l1.343.811c-.237.814-1.102 1.021-2.607.897-.118-.333-.114-.611-.036-.848-.771-.106-1.604-.309-2.298-.992 1.036-.08 1.817-.236 2.641-.175.26.022.554.174.848.342zm9.037-4.747c.411.135.803.394 1.224.463-.288 1.124-.271 1.121-1.938 1.122-.117-.094-.11-.168-.196-.258l-.063.022c-1.063-1.239-.822-1.603.869-1.589l.105.24zm-6.327 8.654c-.561-.685-.522-1.135.07-1.531l1.241.932-1.311.599zm-.921-9.503c.154-.127.265-.294.485-.365.7-.235 1.445-.097 2.331.362l-1.872.398c-.21.017-.619-.252-.945-.394zm5.161-2.581l1.398-.493 1.32.798c-1.6.533-1.652.532-2.718-.305zm-7.683 4.13c-.571.528-1.472.653-2.726.61-.162-.908.951-1.125 2.726-.61zm25.838-5.615c.215-.004.408.019.456.062.123.111.201.241.291.373l.194.115c-.022.02-.045.032-.067.046l.432.737-1.705.032c-.039-.063-.089-.114-.144-.179-.433.065-.923.054-1.568-.153l-.408-.993c1.307-.362 1.723-.435 2.518-.04zm-12.433 2.232c-.305.583-1.069.865-2.155 1.216-.255-.614-.46-1.14.079-1.42.474-.236 1.262-.407 2.076.204zm34.265-.877c.207.977.219.973-1.418.722-.005-.921.007-.924 1.418-.722zm-3.496 1.086l.027.918c-.347-.126-.779-.211-.828-.314-.196-.456.182-.606.801-.604zm-41.018 6.441c-.818-.303-.916-.803-.423-1.306l1.815.063c.541.436 1.037.891.281 1.18-.408.15-1.235.223-1.672.063zm25.077-11.303c-.51.438-.757 1.108-2.239.7l-.304-1.042c1.111-.512 1.12-.511 2.543.343zm-8.036 1.973c.212.428-.299.565-.809.603-.276.029-.668-.124-1.006-.198.06-.254.031-.546.222-.749.146-.152.555-.192.946-.304.254.247.555.443.647.648zm-9.578 9.418c-1.129.331-2.072.127-3.114-.624l.874-1.112c1.372.395 2.178.895 2.24 1.736zM.234 76.118c.237-.243.324-.556.517-.902l1.38.621c-.063.339-.074.556-.154.753-.158.461-.902.714-1.439.483-.696-.306-.634-.617-.303-.955zm17.858-.413c1.054.158 1.68.371 1.869.601a1.07 1.07 0 0 1 .317-.288c.197-.126.713-.162.949-.057s.435.46.406.653c-.069.463-.503.697-1.255.615-.312-.199-.448-.387-.482-.564a1.64 1.64 0 0 1-1.043.519c-.657.044-.94-.464-.762-1.48zM3.25 78.992c-.552-.147-1.165-.496-1.11-.985 1.187-.308 1.408-.301 2.173.223.249-.596.631-.771 1.223-.54.554.225.95.524.726.946-.238.492-.634.513-1.816.069-.261.303-.68.423-1.196.288zm22.547 2.697l.082.268-1.573.508-.303-.231.315-.941 1.479.396zm-7.355.389l-.159.014c-.184-.812-.06-1.246 1.1-1.158.016.07.057.156.095.238.035-.013.058-.028.097-.034.271-.042.739.001.956.137.227.143.357.474.347.69-.023.521-.654.853-1.302.763-.708-.101-.932-.19-1.134-.65zm-41.354 13.526c.837.45.335.701.184 1.027l.073.02c-.461.722-.985.93-1.737.657-.392-.145-.895-.528-.907-.725.003-.186.508-.386.879-.369.026.001.063.021.09.014.143-.305.256-.551.463-.709.124-.086.725-.031.954.084zM3.624 83.986l.563-1.08c.937 1.08.87 1.161-.563 1.08zm-25.647 9.898c-.315.027-.811-.076-1.129-.224-.174-.082-.228-.406-.162-.559.07-.186.324-.306.715-.621.497.447.899.711 1.024.969.082.153-.201.401-.449.435zm-1.547 8.641c-.334.176-.568.497-1 .484-.504-.008-1.166-.295-1.779-.468.095-.273.077-.757.331-.752.752.012 1.681-.035 2.447.736zm111.6-17.012c.005-.728.025-.766.432-.868.523-.134.944-.001 1.175.277.122.155.207.44.074.544-.464.352-1.045.266-1.681.047zm4.726 1.06c-.815-.192-1.68-.234-1.808-.935.881-.415 1.618-.285 2.448.195l-.64.74zM74.788 83.21c.582-.111.707-.66 1.284-.386.688.33.089.673-.171 1.149l-1.113-.763zm31.621 6.507c-.246-.098-.367-.219-.354-.38.016-.178.293-.441.542-.479.244-.031.727.131.873.281.013.011.008.03.022.038l1.136.064c.17.034.358.272.321.377.031-.02.035-.043.084-.064.253-.105.804-.077 1.168-.006.283.05.473.253.784.428-.753.496-1.265.558-1.791.221-.205-.133-.399-.302-.358-.455-.164.149-.404.173-.673.157l.248.316c-1.022-.075-1.801.306-2.488-.146.144-.141.306-.258.486-.352zm-23.216-4.768c-.572-.126-.872-.367-.733-.632s.868-.457 1.392-.296c.188.058.353.34.299.487-.103.296-.336.579-.957.441zm-26.882-6.643l2.297-.201-.082.591c.489 0 .924.058.917.519.007.108-.402.282-.617.267-.315-.013-.503-.089-.593-.218-.849.084-1.274-.327-1.922-.959zm-4.762-2.127c.739.29 1.056.588.722.992-.415.5-1.079.516-2.21.229l1.489-1.221zm-2.471.133c.518 1.066.299 1.218-1.459 1.162-.337-.831-.346-.837 1.459-1.162zm22.56 5.975c.037-.157.357-.381.563-.384.582-.009 1.138.368 1.105.66-.029.284-.447.439-1.043.406-.663-.035-.707-.369-.625-.682zm-26.549-6.013l.441-.984 1.59-.1c1.223-.078 1.228-.073 1.699.913l-1.874.292c-.255.038-.512.125-.767.179.363.712.14.877-1.208.899.121-.385.078-.816.444-1.008-.105-.048-.206-.085-.325-.192zm4.776 3.214c1.225-.393 1.233-.39 1.987-.206.026.353.234.758-.429.895-.754.153-1.08-.292-1.558-.689zm13.201-2.049c.137-.053.265-.076.395-.094-.022-.329.522-.804.946-.765.465.043.815.237.873.579.038.281.048.562.068.848-.021.005-.037.003-.059.002a.77.77 0 0 1-.006.411c-.028.099-.622.174-.918.12-.769-.129-1.212-.5-1.298-1.1zm58.594 12.176c-.148.06-.314.113-.451.156-.28-.018-.494-.092-.723-.151-.137.009-.307-.002-.598-.043l.105-.084c-.29-.119-.544-.259-.77-.429-.643-.505-.54-.731.507-.886l.727-.064 1.159.562c.902.449.903.618.044.938zm-61.72-16.882c-1.179.633-2.44.865-3.938.594-.124.693-.687 1.063-1.902 1.081l-1.017-.797c.6-.792.962-.935 2.034-.614l-.066-.61.554-.033c.8-.055 1.608.165 2.435-.077.505-.156 1.435-.202 1.9.456zm-18.241 2.442c.595-.088.824.297.918.588.008.035-.066.104-.123.162.257-.109.628-.097 1.291-.024.236.473.242.854-.477 1.082-.526.159-.983.425-1.497-.125.186-.428.334-.658.513-.811-.092.055-.19.108-.262.104-.31-.018-.636-.241-1.146-.451.364-.255.523-.49.783-.524zm30.417-1.164c-.875.433-1.509.567-2.159.45.294.674-.041.82-1.552.771-.059-.688-.026-.822.765-1.003l-.427-.188c-.353-.194-.375-.582.036-.641.706-.101 1.475-.197 2.205-.122.369.041.706.441 1.132.734zm52.106 13.742l-1.021-.095-.267.068c.016.19-.15.384-.043.57-.427-.003-.736.005-.983-.006-.019.06-.022.116-.035.179-1.02-.043-1.086-.337-1.128-.62l-.286-.231c.068-.061.178-.064.251-.115l-.056-.022a5.5 5.5 0 0 1 .76-.314c-.015-.006-.042-.01-.053-.021-.325-.227.004-.336.346-.415.172-.047.296-.123.507-.216l.791.238c.85-.046 1.07.162 1.217 1zm-76.603-6.205c.538-.04 1.06.547 1.198 1.239-.861.293-1.32-.391-2.256-.644.456-.272.717-.57 1.057-.595zm6.035-.751c-.246-.097-.511-.256-.916-.563 1.053-.932 1.384-.875 2.159.302-.378.222-.625.323-.875.331l.048 1.019-1.624-.748 1.209-.341zm28.552 7.601c.474-.273.958-.397 1.46-.329l.76-.274.446.632c.039.073.014.169.025.281-.105.042-.205.055-.305.077-.074.13-.214.251-.478.347-1.024.375-1.53.192-1.908-.734zm-25.533-5.712c-.106-.331.265-.501.636-.442.35.05.751.204.967.404.146.131.017.428.013.768-.448-.056-.795-.03-1.033-.149-.253-.124-.507-.359-.583-.581zm-12.648 1.068c.242-.46.655-.582 1.148-.28.163.101.105.434.178.823l-1.325-.543zm26.505 1.669l1.723-.392c.221.502.194.858-.401 1.05-.513.166-.993-.078-1.322-.657zm53.78 5.705c-.316.265-.911.294-1.456.081-.862-.345-1.287-.904-.913-1.22.293-.242.985-.233 1.683.027.626.229 1.003.848.686 1.112zM64.34 85.044c.076-.276.266-.544.502-.756.131-.113.517-.199.673-.13.227.086.352.333.548.544-.271.261-.468.508-.74.689-.155.106-.497.175-.656.115-.174-.07-.366-.327-.328-.462zm17.925-4.507c.048-.175.168-.385.381-.629 1.045.336 1.135.493.818.957-.192.279-.51.272-.817.206l-.75.029c-.052-.053-.095-.113-.144-.172l.513-.39zm16.334 4.13l.476-.966 2.047.819c-1.032.347-1.671.596-2.524.147zm-19.238-3.787l.627.955-1.393.059c-.147-.506-.445-.974.766-1.013zm7.914.895c-.869-.149-.658-.544-.495-.934.702.018 1.249.138 1.147.62-.026.126-.477.341-.652.314zm4.889 1.139a.87.87 0 0 1 .61-.557c.698-.136 1.433-.072 1.972.368-.408.47-1.023.656-1.802.55a2.21 2.21 0 0 1-.474-.146l.589.682-1.484.141c-.201-.474-.157-.792.635-.982-.021-.019-.05-.041-.046-.056zm-11.1.666l-1.48.403c.035-.499-.321-.976.508-1.085.695-.094.492.435.972.683zm54.373 15.41c-.495-.246-1.109-.428-1.174-.601-.069-.186.391-.365.592-.531 1.126.347 1.068.675.582 1.132zm-21.074-9.055l.799-.656 1.857.795c-.928.367-1.66.329-2.656-.139zM66.268 76.036c-.507.092-1.15-.005-1.698-.113-.091-.017-.173-.089-.254-.164-.237.054-.512.049-.826-.045-.221-.064-.432-.154-.679-.237.024-.159-.006-.308.082-.402.373-.391.868-.423 1.624-.079.017.007.02.006.024.002.549-.097 1.145-.114 1.861-.173.016.18.043.251.028.308-.074.309.593.767-.163.902zm17.45.891c.617-.156 1.3-.229 2.001-.328.039-.166.438-.339.707-.35.816-.014 1.546.173 1.977.757-.24.069-.53.101-.54.167-.081.505-.642.392-1.116.259-.245-.067-.482-.16-.669-.267-.141.211-.515.303-.787.367l.056 1.104-2.131.157.077-.723c-.231.44-.312.687-.488.908-.21.26-.576.427-1.069.296-.186-.052-.464-.242-.433-.319.099-.281.219-.594.515-.779.201-.131.707-.073 1.478-.115l.04-.413.639-.111c-.075-.014-.166-.01-.234-.028-.439-.103-.483-.463-.024-.582zm-2.699-1.197l.867-.121.135.949c-1.353.401-2.118.273-2.843-.562l.039-.005a3.55 3.55 0 0 1-.942-.536l.679-.821 2.064 1.097zm-22.923-1.789l2.043-.305a3.18 3.18 0 0 1 .127.499c.661.014.846.296 1.166 1.166-1.325.13-1.681.088-1.929-.54l-.537-.046c-.136-.025-.322-.069-.395-.141-.164-.165-.269-.352-.474-.633zm-4.083.823c-1.095.498-1.607.348-2.081-.643.906-.146 1.664-.044 2.081.643zm23.894 6.398c1.08.375.543.713.112 1.139l-1.23-.436 1.118-.703zm-10.096-4.965c-.259-.257-.363-.493.058-.667a1 1 0 0 1 1.136.243c.192.212.206.481.294.721-.77.23-1.021.169-1.488-.297zm18.023 6.768l-.309-.335c.552-.062.907-.153 1.206-.1.133.02.291.374.193.486-.029.025-.1.043-.147.068.096.126.157.282.232.444-.686.168-1.254.313-1.54-.145-.051-.08.152-.295.365-.419zm18.678.257c.744-.411 1.499-.264 2.248.129-.948.619-1.5.584-2.248-.129zm-1.974 4.124l.756.472-.63.043c-1.222.278-1.486.226-2.006-.392 1.062-.56 1.498-.617 1.88-.123zM65.057 79.41c.711.456.537.796.057 1.228l-1.241-.572 1.184-.656zm5.65 1.764c.203.117.343.56.214.645-.525.363-.95.067-1.475-.284.39-.328.689-.686 1.261-.361zm-8.291-.176c1.042-.248 1.786-.159 2.338.505-.536.677-1.346.474-2.203.442l-.135-.947zm34.531 6.427c.32-.104.776-.117 1.14-.07.381.056.645.287.371.522-.188.151-.559.276-.865.306-.292.029-.609-.076-1.07-.147.175-.272.213-.542.423-.611zM61.934 76.049c-.007.466.347.889-.421.908-.197.004-.604-.272-.643-.44-.124-.509.495-.39 1.064-.468zm3.948 6.64c-.054-.137.185-.403.387-.518a1.09 1.09 0 0 1 1.218.047c.303.212.3.256-.126.979-.701.052-1.273-.026-1.48-.508zm3.968-3.438c.192-.492.75-.45 1.389-.26-.061.327-.113.66-.52.746.218.079.45.204.78.359-.452.196-.703.395-.928.375-.215-.018-.552-.248-.581-.407-.012-.086.118-.229.251-.323-.173-.031-.442-.359-.392-.49zm4.076-2.284c-.124.156-.627.26-.956.234-.401-.033-.787-.213-1.23-.349l.204-.977c.66.184 1.203.268 1.607.469.254.127.484.493.375.623zm-3.472-.375c.612.137 1.192.353 1.056.889-.854.202-.84.202-2.502-.505.255-.575.874-.51 1.446-.384zm7.067.409c.16.261.087.589.013.874-.023.084-.388.171-.585.163-.531-.024-.767-.283-.807-.588-.012-.111.003-.222.015-.351l-.516 1.015-1.821-.782.707-1.038.872.272c.234.094.44.231.769.421l.067-.538c.671.275 1.172.368 1.285.55zm-9.557.182c.228.425.082.719-.56.876-.626-.749-.563-.868.56-.876zm9.656 1.019c.404-.474.972-.491 1.588-.468l.269-.544c.819.259 1.735.341 1.869 1.09-.58.285-1.035.192-1.473.046l-.052.36c-.774-.074-1.615.213-2.2-.484zm-2.921 1.071c-.162-.118-.052-.388-.067-.592.309.022.766-.019.891.091.248.222.305.525.441.802l-.235.117-.204-.068c.024.509-.172.808-.579.797-.367-.004-.725-.079-.73-.436-.016-.404.089-.571.654-.632-.057-.027-.132-.048-.171-.078zm-28.346-5.855c-1.264.564-1.717.416-2.144-.769 1.16-.069 1.168-.065 2.144.769zm-18.561-.851c.616.123 1.279.342 1.494.993-.634.363-1.353.329-2.047-.023-.278-.149-.562-.569-.47-.742s.7-.295 1.022-.228zM8.878 77.088c.069-.118.191-.216.371-.287.33-.124.848-.062 1.268-.082l.749.905c-.813.502-1.708.576-2.231.198a.6.6 0 0 1-.229-.31c-.051.036-.082.074-.158.1-.529.2-1.458.058-1.812-.282-.469-.452-.16-.79 1.169-1.182.487.442.745.727.872.94zm15.455-3.28l-1.073.347.93.025.116.804c-.549.317-1.059.726-2.073.183-.103-.289-.136-.484-.106-.641l-.1.028-.261-1.439c1.811-.117 1.814-.11 2.567.692zm-11.126 3.672c-.573.088-1.132-.081-1.394-.501-.249-.403.176-.569.637-.674 1.018-.245 1.417-.088 1.945.878l-1.189.298zm-12.832.251c1.157.125 1.078.78 1.481 1.461l-2.034.043c-.369-1.162-.205-1.585.553-1.504zm35.983-5.948c.134.183.198.326.322.44.25.225.48.487.054.612-.232.07-.641-.022-.939-.113-.666-.189-.896-.538-.762-1.028l1.325.089zm-18.594 3.145c.456 1.285.263 1.409-1.587 1.041-.331-.962.019-1.189 1.587-1.041zm13.794-2.613c.561.282 1.026.638 1.493.942a1.4 1.4 0 0 1-.934.52c.581.261.983.628 1.189 1.15l-1.448.353-.032-.628-1.537-.334c-.546-.119-.751-.41-.575-.677.084-.138.435-.222.715-.223-.43-.236-.551-.537-.299-.927.24-.363.82-.471 1.428-.176zM88.77 87.666c.18-.012.495.155.552.282.108.232.132.506.056.75-.04.12-.366.299-.567.313a.77.77 0 0 1-.551-.252c-.15-.218-.192-.478-.31-.764.31-.131.558-.303.82-.328zm-52.857-9.074l-.227.803-.322-.08c-.068-.486-.069-.487.549-.723zm12.132-.219c.383.542.231 1.008-.271 1.305-.691.412-1.246-.337-2.036-.218.429-.938 1.438-.919 2.307-1.088zm-16.277 1.558c-.081-1.103-.07-1.112 1.086-1.063.312 1.014.22 1.109-1.085 1.063zm13.396-.224c.366.046.866.195 1.029.405.272.354-.153.554-.528.672-.661.205-1.081-.038-1.452-.861.375-.097.67-.26.952-.216zm-11.158 1.765c.563.62.366.914-.303 1.014-.352.055-.848.055-.921-.328-.115-.615.556-.645 1.225-.686zm-20.888-2.8c.171-.492.848-.482 1.605-.47.916.941.821 1.277-.401 1.405-.322.035-.841-.095-1.124-.267-.176-.104-.152-.462-.081-.668zm4.3.749c-.391.055-1.121.037-1.309-.131-.698-.616.187-.862.385-1.26.819-.005 1.547.121 1.8.72.184.458-.419.599-.876.67zm-6.249-.839c.498-.03.991.059 1.212.488.162.312-.392.762-1.213.859-.167-.085-.537-.212-.717-.402-.325-.327.13-.906.718-.944zm20.786-.583c-.36-.331-.188-.565.292-.798.013-.415.596-.884 1.205-.896.754-.017 1.365.254 1.479.648.123.407-.305.79-.953.962l.295.13c-1.117.359-1.921.316-2.318-.046zm4.998-.306c.118-.1.626-.105.751-.013.613.455-.154.511-.264.767-.66-.192-.832-.466-.486-.755zm14.102 1.14l-1.091.064-.171-.935c1.007-.117 1.335.2 1.262.871zm-27.958-1.477c-.177-.1-.313-.335-.289-.481.021-.136.237-.284.432-.314.772-.137 1.112.046 1.773.916-.662.355-1.3.235-1.916-.121zm20.116 4.475l-2.341-.445c.427-.862 1.523-.103 2.092-.747l.249 1.192zm39.174 4.032l1.391.774c-.636.427-1.233.528-1.621.256-.45-.311-.267-.643.23-1.031zM48.494 72.012c.769-.036 1.627.088 2.376.276.522.132.397.871-.154.908-.909.056-1.835.019-2.698.024.02.046.069.095.063.13a1.31 1.31 0 0 1-.62.72c-.16.089-.693-.03-.946-.157-.151-.076-.208-.426-.088-.544.251-.251.658-.43 1.152-.713a2.69 2.69 0 0 0 .263.297c-.238-.566-.04-.92.652-.942zm3.064 2.452c.164.995-.23 1.217-1.448.902-.349-.086-.733-.067-1.099-.107l-1.317-.196.881-1.411 1.918.938 1.065-.127zm2.534 1.675l1.462-.192.216 1.033c-1.12.12-1.113.125-1.678-.84zm4.156.139l.585-.276.65 1.224c-.908.41-.998.412-2.151-.252-.032.002-.062.017-.098.022-.42.015-1.029-.09-1.289-.299-.208-.169-.019-.571.006-1.011l2.296.591zm7.143-3.198c.298.152.431.442.626.672l-.218.164c-.358-.1-.767-.164-1.067-.317-.178-.089-.198-.325-.286-.491.328-.019.762-.128.945-.028zm-3.657 1.444c.183-.952 1.644-.576 2.508-1.015.24 1.257-.263 1.415-2.508 1.015zm14.779.746c.351.254.099.568-.361.53-.488-.044-1.09-.218-1.425-.456-.013-.011-.036-.027-.05-.038-.168.429-.81.489-1.408.459-.496-.021-1.07-.091-.846-.594.032-.065-.212-.188-.378-.322.712-.42 1.469-.363 2.183-.097-.003-.151.083-.33.466-.525l1.82 1.042zm38.709 10.842c-.341-.162-.684-.408-.669-.581.024-.315.467-.434 1.126-.397.375-.368.857-.537 1.32-.421.575.148.929.309 1.183.493l.185-.097c.947.496 1.731.901 1.282 1.631l-1.338-.434c-.065.104-.088.199-.182.319l-.823-.323-.258.252c-.707-.111-1.425-.134-1.826-.442zm-29.44-7.341c.478-.057 1.024.027 1.727.069l-.368.906c-.48-.016-.935.029-1.318-.058-.307-.073-.713-.311-.738-.479-.022-.153.399-.408.696-.438zm4.212.98c-1.938.114-1.925.125-2.601-.303.175-.498.833-.517 1.483-.454.597.061 1.206.194 1.118.757zm7.882 1.887c-.016.041-.014.078-.065.13-.124.121-.659.228-.843.168-.705-.241-.143-.482.107-.866l.551.224c.85-.652 1.145-.656 2.314-.106-.796.75-1.087.835-2.064.449zm-1.68-.799c.028.102-.074.215-.136.352-.274-.002-.519.006-.756-.005-.177-.009-.283-.064-.42-.1.144.215.191.487.044.633-.276.275-.62.441-1.199.221-.246-.093-.531-.147-.913-.253l.535-.686c.216-.243.599-.293 1.005-.233-.049-.066-.134-.111-.151-.191-.017-.097.334-.27.558-.286.874-.056 1.306.115 1.434.549zm-6.633-.69c.215-.179.384-.407.68-.529.362-.151.851-.178 1.168.126.282.276.054.444-.322.581.735.266.688.408-.216.816-.376-.233-.453-.453-.29-.673-.357.062-.612-.026-1.02-.32zm38.038 10.648c.804.091.809.416.732.801-.712-.113-1.501-.057-1.586-.54-.011-.111.56-.295.854-.261zm8.564 5.377c.164.1.292.203.323.3.047.134-.189.249-.342.419l-2.112-.699c-.359-.135-.475-.349-.071-.456.385-.111 1.071.002 1.641.2-.286-.195-.522-.431-.563-.631-.071-.309.677-.287 2.109.079-.208.587-.556.837-.985.787zm-.727-1.106c-.733-.209-1.041-.518-.914-.848.061-.144.393-.309.656-.298.081.001.197.048.305.086-.175-.146-.304-.308-.334-.517l1.18-.245c1.176.577 1.499.769 1.349 1.154.114.097.188.191.153.216-.093.062-.234.104-.371.154-.028.036-.034.058-.06.096-.039-.009-.074-.02-.103-.031l-.81.238-.302-.259c-.08.135-.314.229-.749.253zm-28.683-8.146l-.288.291.129.081-.275.072-.206.215-.273-.098c-.353.07-.7.085-1.076-.111-.562-.29-.159-.544.048-.803.431.038.636.069.882.174.262-.063.605-.015 1.059.18zm-9.2-1.349c-.206-.046-.492-.297-.433-.379.285-.434.817-.271 1.338-.106-.002.453-.29.64-.905.485zm41.019 12.368c-.25.039-.927-.21-1.27-.385-.397-.207-.909-.509-.542-.745.466-.307 1.191-.133 1.952.167.026.332.747.81-.14.963zM108.88 86.984c.736.381 1.698.671 1.642 1.49-.686-.323-1.587.079-2.043-.432-.323-.37-.234-.763.401-1.058zm-79.021-2.657l.874 1.281-2.607-.707c.4-.575.966-.63 1.733-.573zm-4.195 1.093c.144-.071.338-.25.495-.21.494.128 1.022.281 1.446.525.577.333.481.69.082 1.041-.643-.484-1.66-.499-2.023-1.356zm8.616.798c-.334-.028-.696-.287-1.31-.567.462-.233.675-.411.92-.439l.169-.257.811.438.192.063c.104.043.214.413.152.448-.277.149-.608.336-.933.312zm-3.687-2.21l-1.378-.507c.814-.405.82-.402 1.378.507zm23.497-.034l.95-.127c1.009.673.995.672.519 1.427l-2.273.059-.336-1.248 1.14-.112zm15.188 1.907c.86-.152 1.446.13 1.837.666-.458.408-.83.624-1.178.663-.059.088-.141.174-.212.19-.507.103-1.031.164-1.432-.219.076-.108.109-.205.186-.272l.333-.229c-.291-.342-.135-.694.466-.799zm-8.325.484c.313.091.663.333.762.57.069.154-.205.518-.439.607-.358.138-.812.123-1.445.203l.284-.987c.096-.379.477-.5.838-.392zm-5.574-.493c.462-.194 1.052-.454 1.482-.054.408.371-.01.723-.418 1.069l-1.65-.457c.278-.278.389-.475.586-.558zm-17.376-3.372c.52.028 1.205.605 1.21 1.086.003.135-.26.328-.448.343-.693.06-1.506-.323-1.587-.709-.075-.363.354-.743.824-.721zm53.767-4.833c.048.063.075.135.075.195.013.059.035.106-.018.16-.058.115-.155.246-.297.424-.255-.07-.405-.135-.588-.2-1.124.069-1.789-.19-2.535-1.079.551-.122 1.073-.362 1.434-.279.311.071.602.175.89.291l.175-.119c.492.29.734.457.864.606zm8.786 3.213c-.243-.046-.514-.091-.722-.178-.556-.231-.511-.449.219-1.049l.256.124c.739-.286 1.485-.002 1.838.258.544.389 1.255.502 1.886.716.012-.032.006-.06.02-.091 2.098.028 2.375.16 2.555 1.157l-1.356.302c-.451-.153-.732-.319-.947-.502-1.289-.089-2.241-.392-3.001-.859l-.302.131c-.109.037-.301.014-.446-.009zm-5.082-.986c-.145.143-.54.317-.775.287-.572-.074-1.216-.188-1.635-.41-.631-.342.244-.523.346-.805.021-.056.081-.103.198-.254l.557.24c-.031-.047-.056-.099-.084-.145.306-.133.59-.34.942-.374.22-.026.554.199.842.31-.173.11-.318.303-.527.321-.328.032-.685-.022-1.038-.05l.931.41c.189.1.34.366.243.47zm2.62-.015c-2.303-.348-2.68-.631-1.765-1.598.557.629 2.109.769 1.765 1.598zm-83.739 5.108c-.072-1.087 1.065-.766 2.128-.78.135.337.404.676.347.923-.097.416-.709.306-1.207.206-.422-.081-.846-.228-1.268-.348zm10.076-1.506c.367.957.013 1.171-1.904 1.011.452-.997.613-.928 1.904-1.011zm81.088 1.335c-.103-.41.343-.543 1.186-.55l.769 1.385c-1.211-.118-1.825-.317-1.955-.835zm-3.18-1.178l.743-.754 1.267.587c-1.033.59-1.026.591-2.01.167zm-3.082-.293l.116-.142c-.208-.076-.378-.207-.645-.458l1.265-.798 1.175 1.188-.687.085 1.767.147c-.215.357-.252.732-.536.8-.351.09-.97 0-1.351-.137-.437-.156-.734-.454-1.103-.686z" fill="#dda750"/><path d="M73.795 99.764V66.221" stroke="#ffc167" class="B D F"/><g fill="#654f20"><path d="M49.398 24.814s-2.334-.319-3.771 0l-6.672 10.154.145 3.481c1.276-2.321 7.398-10.057 10.299-13.635zm52.942-.004l-5.512.874 9.429 11.169c.725-.87 1.16-1.16 1.16-2.901-1.16-2.611-3.626-5.802-5.077-9.142zM37.504 60.207V55.13l-9.428 19.292h4.497l4.932-14.215zm70.056 0V55.13l9.428 19.292h-4.497l-4.931-14.215z"/></g><path d="M35.908 26.555v-3.916h74.848c.145 2.031.145 3.191 0 4.207-4.99-1.16-52.461-.774-74.848-.29z" fill="#9e7337"/><path d="M63.361 20.032a.87.87 0 1 0-1.645.57l2.87 8.283a.87.87 0 1 0 1.645-.57l-2.87-8.283zm2.87 0a.87.87 0 1 0-1.645.57l2.87 8.283a.87.87 0 0 0 1.636.025.87.87 0 0 0 1.035.574.87.87 0 0 0 .637-1.053l-2.05-8.322a.87.87 0 1 0-1.69.416l1.531 6.215-2.324-6.708zm5.08.077a.87.87 0 1 0-1.69.416l2.05 8.322a.87.87 0 1 0 1.69-.416l-2.05-8.322zm3.934-.651a.87.87 0 0 1 1 .718l1.367 8.322a.87.87 0 1 1-1.718.282l-1.367-8.322a.87.87 0 0 1 .718-1zm4.56.759a.87.87 0 1 0-1.729.199l.957 8.322a.87.87 0 1 0 1.729-.199l-.957-8.322z" class="E G"/><g fill="#896831"><path d="M38.954 18.142h-2.756c0 4.642.435 15.26.435 20.598s.677 25.336 1.015 34.668h3.046c-.464-4.99-1.45-39.938-1.741-55.266zm70.116.145h-2.757c0 4.642-.725 15.695-.725 21.033s-1.499 24.901-1.16 34.233h3.046c-.464-4.99 1.886-39.938 1.596-55.266z"/></g><path d="M100.89 64.849c2.031 3.191 2.901 5.077 4.787 9.095-6.126 3.131-18.313 5.266-32.347 5.266-14.985 0-27.864-2.433-33.508-5.915 2.901-4.528 4.932-7.285 6.092-8.88 7.108-.87 7.227-1.305 27.415-1.305s20.453.87 27.56 1.741z" fill="#a29c87"/><ellipse cx="73.332" cy="64.849" rx="27.56" ry="3.917" fill="#bebdaa"/><ellipse cx="73.332" cy="65.139" rx="20.018" ry="2.466" fill="#a19b89"/><path d="M51.428 67.025l-1.178 3.771m-1.722 5.512l1.722-5.512m8.866-2.756l-.435 4.352m-.435 5.802l.435-5.802m7.978-3.916l-.29 4.497m-.435 5.802l.435-5.802m7.978-4.497v4.497m.58 6.092l-.58-6.092m6.382-4.497l.58 3.916m.87 6.672l-.87-6.672m6.382-4.352l1.16 3.626m2.031 6.092l-2.031-6.092m5.947-4.642l1.451 3.771m2.321 5.947l-2.321-5.947 6.528-2.321m-13.926 3.191l-7.543.725m-6.963.58h-7.978m-7.688-.58l-8.431-1.596m-4.334-5.657l-5.512 8.558" stroke="#555040" stroke-width=".58"/><ellipse cx="73.332" cy="65.864" rx="14.215" ry="1.16" fill="#76705f"/><path d="m73.912 20.898v44.967" stroke="#ed801c" class="B D F"/><path d="M65.698 123.21c7.586 3.066 14.687 1.049 17.27-1.291l1.695-12.711-21.465.656 2.501 13.346z" class="C"/><path d="M82.968 121.92l2.26-16.947H62.309l3.389 18.238c7.586 3.066 14.687 1.049 17.27-1.291z" class="E"/><g stroke="#cfcfd1" stroke-width=".87" class="B"><path d="M66.666 121.81c2.552 1.195 9.127 2.728 15.01-.701M64.568 109.06c3.43 1.195 12.268 2.727 20.175-.702"/></g><path d="M85.227 104.97c0 1.871-5.13 3.389-11.459 3.389s-11.459-1.518-11.459-3.389v-2.341h22.919v2.341z" fill="#c24a24"/><ellipse cx="73.768" cy="102.71" rx="11.459" ry="3.389" class="E"/><ellipse cx="73.768" cy="102.71" rx="9.684" ry="2.26" fill="#414042"/><path d="M82.01 103.9c-1.706.644-4.76 1.073-8.242 1.073-3.594 0-6.731-.457-8.402-1.135 3.344-1.017 10.806-2.28 16.644.062z" class="C G"/><path d="M62.632 102.64c.323-3.82 3.051-11.508 11.379-11.701s10.948 7.72 11.217 11.701" stroke="#414042" class="B D"/><path d="M9.18 72.304s3.796 10.017 5.517 28.953.462 41.898.462 41.898l-37.932 4.844s1.059-33.307.532-45.52 2.487-33.75 7.071-41.051c7.402-4.918 19.672-.422 24.35 10.876z" fill="#fff"/><g fill="#fdb082"><path d="M-5.035 48.406v6.289h6.129l.573-6.289h-6.702z"/><path d="M-5.035 48.406v6.289h6.129l.573-6.289h-6.702zM9.373 32.195s.37 2.352 1.023 3.215 1.578.971 1.834 1.387.666 1.179-.405 2.218-2.752.643-2.752.643-.871-6.759.301-7.462z"/><path d="M8.534 22.922c-1.817-6.445-9.61-7.308-11.867-7.43-5.534-.308-13.596 1.29-16.028 7.527-2.051 5.24-3.05 13.135 6.214 21.267s21.606 7.551 21.606 7.551 2.061-.378 2.208-7.525c.106-5.127-1.171-7.43-1.288-11.888-.103-3.839.359-5.223-.846-9.502z"/></g><path d="M12.255 37.042c.018.37-.342.687-.804.709s-.851-.26-.868-.63.344-.686.805-.709.851.26.868.63z" fill="#ffc7ab"/><path d="M12.23 36.804a1.92 1.92 0 0 1 .359 1.654c-.228 1.01-1.048 1.609-2.829 1.748-.561-.658-.122-.701-.122-.701s3.672-.502 2.592-2.7zm-17.653-2.023s-.47-2.267-2.116-2.379-2.919 1.705-2.726 3.699 1.418 4.932 2.962 5.809 2.466-.778 2.466-.778l-.586-6.349z" fill="#e98146"/><g fill="#755142"><path d="M6.402 19.232a11.05 11.05 0 0 0-3.367-.479c-1.814.043-4.813 1.111-6.147 5.847s.804 10.064.757 10.464-2.449.641-2.449.641-.35-2.752-2.042-3.512-3.881 1.11-3.768 3.491 1.552 6.389 3.874 6.744c-1.179 2.678-4.911 3.645-4.911 3.645s-5.138-3.011-8.618-5.865c-3.592-2.947-4.389-5.798-4.511-7.738-.037-.572-1.888-4.623-.832-8.476s3.204-4.984 3.204-4.984 1.274-6.42 10.245-8.27c7.055-1.452 10.942 1.53 11.52 1.635s7.84 3.101 7.046 6.858z"/><path d="M1.264 15.341s-2.581-5.835-9.818-6.104-7.282.886-10.637 1.811-5.106-1.279-5.106-1.279-.18 3.699 3.632 3.884c-1.387.838-3.222-.706-3.222-.706s.989 1.63 1.916 2.028 1.501.367 1.501.367l-1.698.33.65.498-1.079 3.443 23.861-4.27z"/></g><g fill="#fdb082"><path d="M-15.173 61.428c-.251.297 5.375-1.746 11.643-.51S9.18 72.304 9.18 72.304s-1.795-4.719-3.927-9.179-4.346-6.383-4.161-8.43h-13.237s-1.344 4.727-3.028 6.733zm31.042 53.682S1.598 101.826-7.042 88.828s-8.435-19.238-2.65-22.604 11.584.158 16.582 7.839 19.664 30.096 20.772 33.802-5.694 12.22-11.792 7.245z"/><path d="M56.572 88.432l-.087-.325c-.273-1.123-.807-2.231-.86-3.389a8.63 8.63 0 0 1 .895-4.27c.179-.35.386-.74.265-1.119a1.02 1.02 0 0 0-.318-.414c-.14-.108-.304-.176-.475-.197-.912-.168-1.173.378-1.826.844-.103.089-.236.135-.375.129a.55.55 0 0 1-.292-.177c-.783-.778-.969-1.937-1.241-2.992s-.797-2.213-1.847-2.56c-.83-.278-1.769.068-2.359.689s-.894 1.456-1.059 2.297c-.402 2.115.041 4.158.765 6.117l1.653 4.238c.245.692.439 1.399.58 2.116.132.711.143 1.448.419 2.131s1.069.964 1.785 1.137c1.512.371 3.156-.09 4.523-.651a1.02 1.02 0 0 0 .428-.266.96.96 0 0 0 .133-.684c-.068-.916-.456-1.777-.707-2.653z" fill-opacity=".5"/><path d="M51.458 92.413l.273.197c.922.698 2.035 1.219 2.808 2.084a8.63 8.63 0 0 1 2.004 3.876c.082.384.168.818.501 1.035a1.02 1.02 0 0 0 .508.12c.176-.005.347-.056.493-.148.813-.446.671-1.034.882-1.807.024-.134.098-.254.209-.337a.55.55 0 0 1 .338-.047c1.099.108 1.975.889 2.852 1.535s2.016 1.212 3.049.817c.819-.309 1.328-1.17 1.394-2.025s-.227-1.694-.631-2.45c-1.025-1.893-2.658-3.197-4.457-4.258l-3.959-2.241a15.01 15.01 0 0 1-1.786-1.274c-.551-.467-1.026-1.032-1.671-1.387s-1.438-.072-2.102.246c-1.407.667-2.389 2.063-3.094 3.362a1.02 1.02 0 0 0-.164.476.96.96 0 0 0 .329.614c.632.667 1.476 1.09 2.224 1.61z"/><path d="M52.548 86.797l-34.303 15.025c-5.046 2.16-1.865 15.492 5.05 13.261s32.432-23.721 32.432-23.721l-3.179-4.565z"/></g></g><defs><clipPath id="A"><path d="M0 11.633C0 5.348 5.095.252 11.381.252h130.62v127.47H11.381C5.096 127.722 0 122.626 0 116.341v-104.7z" fill="#fff"/></clipPath></defs></svg>