<?xml version="1.0" encoding="UTF-8"?>
<svg width="142" height="128" fill="none" viewBox="0 0 142 128" xmlns="http://www.w3.org/2000/svg">
 <g clip-path="url(#clip0_54_11056)">
  <path d="m0 11.633c0-6.2854 5.0953-11.381 11.381-11.381h130.62v127.47h-130.62c-6.2854 0-11.381-5.096-11.381-11.381v-104.7z" fill="#FFE6B5"/>
  <path d="m24.159 65.43c-41.921 2.3209-46.562 3.9164-68.901 3.9164l20.796 84.089h308.53l8.361-28.628c-7.878 0-7.764-32.559-24.805-37.039-25.885-6.8049-80.963 9.9025-107.63 0-49.609-18.422-79.12-25.507-136.35-22.338z" fill="#BB8542"/>
  <path d="m96.137 101.97c66.351 2.205 146.28 12.196 121.68 54.404l-223.48 21.181c-42.623-5.755-117.57-64.014-73.952-53.098 62.609 15.668 92.809-25.243 175.75-22.487z" fill="#8EDEFF"/>
  <path d="m140.8 98.866c-0.195-0.048-0.331-0.0806-0.481-0.1156 0.108 0.0984 0.185 0.2068 0.17 0.3266 0 0.0179-0.011 0.0319-0.015 0.0468 0.341 0.1236 0.633 0.2282 0.952 0.343-0.054 0.2652-0.114 0.5062-0.198 0.8372-0.655-0.289-1.168-0.5061-1.723-0.7417 0.099-0.046 0.166-0.0795 0.259-0.1182-0.274-0.0404-0.564-0.0967-0.746-0.1896-0.96-0.4518-0.969-0.7062-0.109-0.9561-0.137-0.0956-0.194-0.2029-0.046-0.3047 0.182-0.1281 0.654-0.206 1-0.1605 0.373 0.0491 0.903 0.2462 1.087 0.4272 0.16 0.1486-0.063 0.3519-0.15 0.6056zm-22.55-10.369c0.067 0.1034 0.133 0.2157 0.201 0.3169-0.721 0.0854-1.203 0.0615-1.418-0.3094-0.109-0.1915-0.144-0.3677 0.031-0.5055-0.146-0.2379-0.09-0.4914 0.193-0.7816 0.581 0.0602 1.224 0.1302 1.9 0.2134 0.099 0.5289-0.142 0.8855-0.907 1.0662zm10.089 0.5002c-0.356-0.0308-0.688-0.1207-1.012-0.2103 0.045 0.0479 0.139 0.0759 0.158 0.1283 0.071 0.0193 0.129 0.0242 0.199 0.0425 0.274 0.0838 0.623 0.3039 0.64 0.4398 0.05 0.2509-0.275 0.3782-0.834 0.2748-0.139-0.0245-0.275-0.0492-0.413-0.0735-0.177 0.0272-0.392 0.041-0.67 0.0166-0.216-0.0238-0.415-0.0506-0.607-0.0855-0.057 0.0818-0.12 0.1703-0.209 0.2891-0.192-0.1188-0.357-0.2152-0.518-0.3182 0.284 0.3481 0.514 0.7418-0.627 0.8674-0.538-0.3928-1.04-0.7592-1.6-1.148 0.844-0.1211 1.434-0.0991 1.828 0.0381-0.09-0.0535-0.173-0.1076-0.274-0.1657 0.09-0.064 0.209-0.1036 0.306-0.1503-0.063-0.091-0.129-0.1765-0.171-0.2911 0.57-0.0633 1.171-0.1614 1.808-0.1693 0.026 0.0012 0.046 0.0099 0.07 8e-3 -0.256-0.0966-0.495-0.1786-0.784-0.3005 0.716-0.1715 1.334-0.3153 1.979-0.1093 0.544 0.1787 1.164 0.5024 0.731 0.9171zm-1.757-2.5395c0.432 0.1714 0.851 0.3451 1.348 0.5484-0.136 0.2024-0.266 0.3885-0.446 0.6505-1.502-0.6337-1.516-0.6508-0.902-1.1989zm15.762 8.9576c-0.89-0.2277-1.961-0.3149-2.159-1.0264 0.412-0.0586 0.815-0.1172 1.31-0.1859 1.301 0.5009 1.306 0.5083 0.849 1.2123zm-20.353-9.6484c-0.513-0.2593-1.012-0.4707-1.404-0.7252-0.126-0.087 0.052-0.2873 0.084-0.4432 0.239 0.0462 0.517 0.0711 0.719 0.1551 0.641 0.2606 0.809 0.5899 0.601 1.0133zm13.997 5.686c-0.215 0.131-0.334 0.2802-0.573 0.3357-0.493 0.1234-0.939-0.0981-1.252-0.3256-0.179-0.1213-0.162-0.3078-0.233-0.4659 0.388 0.0106 0.779-0.0211 1.156 0.0487 0.284 0.0551 0.544 0.2356 0.902 0.4071zm4.734 5.2517c-0.251 0.1569-1.525-0.0633-2.133-0.434 0.045-0.1291-6e-3 -0.3817 0.195-0.5186 0.15-0.1069 0.434-0.1339 0.75-0.1075-1.499-0.3573-1.603-0.5411-0.722-1.1854 1.482 0.466 1.706 0.7499 1.057 1.2484 0.238 0.053 0.47 0.1275 0.648 0.2378 0.425 0.2745 0.528 0.5518 0.205 0.7593zm-4.366 2.6433c0.35 0.1238 0.571 0.3594 0.881 0.5698-1.288 0.1514-1.28 0.1534-2.418-0.6251 0.408-0.282 1.034-0.1276 1.537 0.0553zm-38.921-15.76c-0.4435-0.3835-1.1293-0.7196-0.8019-1.3879 0.3987-0.065 0.8934-0.1318 1.4218-0.2112 0.181 0.4022 0.3159 0.7085 0.4729 1.0499-0.2228 0.1528-0.4713 0.3297-0.7226 0.4913-0.0604 0.0362-0.1867 0.0351-0.3702 0.0579zm11.082 2.7969c0.183-0.0926 0.363-0.1185 0.539-0.1686-0.954-0.329-0.955-0.5611-0.107-1.1023 0.209 0.1082 0.318 0.1732 0.473 0.2546 0.297-0.0819 0.574-0.0036 1.215 0.2538 0.478 0.1824 0.953 0.3663 1.426 0.5528-5e-3 0.0141-2e-3 0.0259-6e-3 0.0389 0.583 0.2737 0.273 0.6387 0.176 1.0193-0.195-0.0664-0.308-0.1148-0.448-0.1727-0.785 0.1367-1.126-0.2597-1.587-0.4892-0.015-0.0049-0.035-0.0149-0.049-0.0195-0.086 0.0789-0.161 0.1553-0.26 0.2504-0.488-0.1491-0.865-0.2601-1.372-0.4175zm7.249 4.7288c-0.409-0.2073-0.768-0.3881-1.137-0.5682 0.04-0.0633 0.081-0.1235 0.116-0.1859 0.585 0.0106 1.171 0.027 1.938 0.0461-0.36 0.2811-0.573 0.4457-0.917 0.708zm-4.137-1.395c-0.183-0.1227-0.268-0.3362-0.217-0.4859 0.029-0.0805 0.431-0.1531 0.666-0.1487 0.274-0.0015 0.554 0.0831 1.154 0.1957-0.371 0.2636-0.53 0.4657-0.82 0.5542-0.166 0.0548-0.626-0.0222-0.783-0.1153zm5.81-5.9451c-0.96-0.1568-1.533-0.5014-2.039-1.0118 1.118-0.2036 1.913 0.2158 2.039 1.0118zm-5.01 0.8925s4e-3 0.0074 0 0.0111c3e-3 0.0057 0.019 0.0112 0.02 0.0112 3e-3 -0.0087-0.01-0.0126-0.02-0.0223zm-1.033-1.2223c-4e-3 0.0044-0.01 0.0111-0.015 0.0159 0.012 0.0093 0.023 0.0175 0.028 0.0252 7e-3 -0.0196-9e-3 -0.0251-0.013-0.0411zm-1.677 1.0465c0.124-0.0319 0.235-0.0328 0.357-0.0488-0.192-0.0343-0.356-0.0677-0.519-0.1054-0.356-0.0788-0.718-0.2093-1.083-0.2476-1.3-0.1398-1.56-0.4253-0.889-1.1467 0.374 0.176 0.745 0.3398 0.924 0.4333 0.266-0.0174 0.507-0.0339 0.748-0.0433-0.296-0.1066-0.608-0.2095-0.895-0.3264-0.488-0.196-0.223-0.8049 0.323-0.7406 0.787 0.0854 1.631 0.2646 2.32 0.5261 0.266 0.103 0.388 0.227 0.445 0.3572 0.087-0.1069 0.427-0.1902 0.764-0.3275 0.312 0.3704 0.595 0.6308 0.713 0.8969 0.047 0.1295-0.177 0.3701-0.364 0.3844-0.086 0.0062-0.203-0.0127-0.32-0.0216 0.082 0.0645 0.193 0.1324 0.252 0.2034 0.046 0.0526 0.045 0.1135 0.036 0.1754 0.999-0.2389 1.133-0.212 2.07 0.1627-0.874 0.6632-1.373 0.675-2.084 0.1108-0.156 0.2185-0.303 0.4307-0.457 0.6441-1.173 0.0346-1.832-0.2723-2.341-0.8864zm11.372 5.8515c0.072 0.1592-0.12 0.3298-0.197 0.4966-0.265-0.0561-0.615-0.0763-0.795-0.1754-0.221-0.1264-0.43-0.2851-0.641-0.4229-0.144 0.0253-0.32 0.0343-0.575 0.0076 0.011-0.2122-0.691-0.4915 0.11-0.6276 0.111-0.0196 0.347 0.0619 0.521 0.1516 0.883 0.0337 1.403 0.2197 1.577 0.5701zm-5.648-1.4884c-0.866-0.2801-1.987-0.3232-1.834-1.0676 0.461-0.0574 0.715-0.0819 1.001-0.0663-0.197-0.0867-0.371-0.2144-0.567-0.3406-0.569-0.3874-0.373-0.6664 0.08-0.9446 1.046 0.2438 1.344 0.36 1.398 0.7899 0.049 0.0184 0.091 0.0169 0.134 0.0387 0.22 0.1103 0.257 0.3297 0.465 0.6253-0.184 0.0013-0.327 0.0048-0.482 0.0105 0.216 0.0531 0.434 0.1076 0.751 0.1873-0.343 0.2784-0.624 0.5034-0.946 0.7674zm-71.49-3.5802c0.6281 0.4326 0.0156 0.6325-0.1955 1.0829-0.4261-0.4088-0.6875-0.6567-0.961-0.9131 0.2497-0.426 0.6912-0.4859 1.1565-0.1698zm-2.0345 3.4817c-0.3708 0.27-0.7074 0.5138-1.1775-0.068 0.6696-0.6751 0.6801-0.6726 1.1775 0.068zm15.14 0.3369c-0.7533 0.0169-1.2203 0.0341-1.7184 0.0566 0.0438-0.3548 0.0713-0.6065 0.1344-1.0977 0.5642 0.3675 0.9621 0.624 1.584 1.0411zm-18.487-2.4816c-0.1875 0.4474-0.3553 0.8455-1.2584 0.3936 0.1484-0.6378 0.5098-0.8075 1.2584-0.3936zm-17.733-0.061c-0.5404-0.2379-0.5203-0.4364-0.121-0.7435 0.545-0.4211 1.1182-0.3448 1.8877 0.1636-0.0972 0.1036-0.1773 0.1616-0.263 0.248 0.04 0.0366 0.0834 0.0584 0.129 0.1102-0.4521 0.3466-0.6924 0.4512-0.9642 0.3481-0.2053 0.0164-0.4096-0.0139-0.6685-0.1264zm-26.213-3.113c-0.33571-0.6164 0.80777-1.4024 1.7327-1.162 0.26999 0.0717 0.49981 0.3207 0.84435 0.5578-0.58485 0.3247-1.0487 0.6538-1.6131 0.905-0.31286 0.1415-0.77302 0.0563-0.9639-0.3008zm31.542 3.2933c0.0248 0.3047-0.1653 0.5223-0.6619 0.4315-0.5718-0.1079-0.7164-0.3504-0.6446-1.1529 0.7882-0.0741 1.2593 0.143 1.3065 0.7214zm-42.497-4.4143c0.4462-0.1339 0.9049-0.2561 1.3319-0.4062 1.2092-0.4074 1.3447-0.3673 2.3693 0.6447-0.0347 0.0552-0.0926 0.0794-0.1383 0.1294 0.0591 0.027 0.1272 0.0386 0.1804 0.073-0.1666 0.0666-0.3078 0.1302-0.4604 0.1888-0.3986 0.3186-0.894 0.5109-1.4848 0.6014-0.1539 0.0694-0.3118 0.1401-0.4735 0.2047-0.0488-0.0527-0.0729-0.0766-0.1154-0.1228-0.4279 0.0402-0.8715 0.0708-1.3208 0.092-1.0341-0.9844-1.018-1.0605 0.1116-1.405zm6.6766-0.4937c0.1069 0.2825-0.31032 0.5599-0.52759 0.936-1.7139-0.9406-1.7279-0.9401-1.2082-1.6677 0.7326 0.0593 1.5353 0.1782 1.7358 0.7317zm25.302 4.4369c-0.4235 0.2506-0.8087 0.4896-1.1942 0.7286-1.0815-0.1968-1.0455-0.7017-1.0105-1.2916 0.7296 0.1723 1.4608-0.286 2.2047 0.563zm4.875-7.1435c-0.1682-0.1544-0.2676-0.4376-0.1672-0.5636 0.082-0.1303 0.4817-0.2469 0.6778-0.1863 0.3706 0.1184 0.7408 0.2984 1.1176 0.4731-0.2267-0.6693-0.0866-0.7264 1.2047-0.9159 0.2181 0.335 0.385 0.6019 0.5589 0.8829-0.4283 0.2676-0.7886 0.5416-1.4224 0.3706-0.8708 0.5487-1.317 0.5358-1.9694-0.0608zm6.4103-0.5821c-0.1309-0.1556 0.0715-0.5882 0.3013-0.6427 0.4488-0.0996 0.6884-0.7438 1.427-0.2275 0.2352 0.1635 0.5036 0.5455 0.4147 0.6489-0.2141 0.2624-0.6439 0.4112-1.0606 0.6634-0.4227-0.1631-0.9298-0.2478-1.0824-0.4421zm-6.6304 2.482c0.1686-0.2462 0.3459-0.526 0.557-0.8292 0.8637 0.3267 0.9665 0.6668 0.6955 0.9824-0.258 0.2991-0.6817 0.2624-1.2525-0.1532zm-17.547 0.1748c0.53759 0.2405 1.0221 0.4696 1.6924 0.783-0.60433 0.2275-1.0637 0.4149-1.5675 0.6153-0.35628-0.4115-0.60466-0.6996-0.86864-1.003 0.27157-0.1429 0.49657-0.2635 0.74378-0.3953zm36.399-2.2461c0.7185-0.0773 1.3146-0.148 2.0745-0.2211 0.1161 0.3822 0.216 0.7012 0.3144 1.0375-1.1354 0.1777-1.7919-0.0476-2.3889-0.8164zm-33.794 2.5509c-0.47805-0.3966-0.09661-0.8275 1.0178-1.1026-0.19576-0.1133-0.3544-0.2633-0.43468-0.4809-0.23097-0.6262 0.03242-0.8502 1.296-1.0631 0.39616 0.2887 0.79399 0.5738 1.2222 0.8873-0.22064 0.1745-0.43129 0.3473-0.66631 0.5105-0.13416 0.0927-0.29888 0.1729-0.47759 0.2217-0.07473 0.0273-0.15268 0.0232-0.2225 0.0367 0.11874 0.0428 0.25337 0.0891 0.33584 0.1615 0.38388 0.3278-0.21244 1.0695-0.96259 1.1448-0.30304 0.0308-0.8883-0.1357-1.1082-0.3159zm-4.6059 0.3487c-0.29276 0.1943-0.73261 0.314-1.1172-0.0231-0.2548-0.2242-0.39211-0.6089-0.27963-0.8105 0.11613-0.2208 0.54569-0.4308 0.91974-0.42 0.31424 0.0028 0.71729 0.3142 1.231 0.5696-0.35347 0.3267-0.52197 0.5263-0.75395 0.684zm25.459-0.7604c0.9398-0.6407 1.0342-0.6472 1.6284-0.0425 0.5174-0.1804 1.0241-0.3573 1.8264 0.1644-0.1532 0.8106-0.8166 1.0409-1.8926 0.9758-0.1759-0.2448-0.36-0.4989-0.555-0.7788-0.3023 4e-4 -0.6356-0.1075-1.0072-0.3189zm-30.692-1.9747c0.58531-0.0821 1.1579 0.0597 1.5698 0.4415 0.3092 0.2938-0.21017 1.0003-1.0107 1.1317-0.26799-0.1283-0.78956-0.2888-1.0604-0.532-0.46146-0.4044-0.15167-0.9478 0.50138-1.0412zm30.777-3.1353c-0.3451 0.1648-0.7713 0.2418-1.059-0.0926-0.1874-0.2149-0.2644-0.5759-0.1265-0.7591 0.1894-0.2379 0.6351-0.3647 0.9778-0.5359 0.805 0.9249 0.8213 1.0866 0.2077 1.3876zm2.0448 0.0511c-0.3917 0.3946-0.8741 0.1203-1.5497-0.119 0.085-0.3315 0.1767-0.6779 0.2657-1.0202 0.3865 0.0895 0.8283 0.1216 1.1338 0.287 0.4911 0.2543 0.4346 0.5823 0.1502 0.8522zm1.8021 0.211c-0.3431 0.5334-0.9951 0.1381-1.6765-0.0312 0.1534-0.48 0.3381-0.8672 1.0875-0.6311 0.2787 0.0872 0.6654 0.536 0.589 0.6623zm4.0802-2.7776c0.7385-1.0705 0.9949-1.1022 2.0972-0.3623-0.7445 0.8632-0.7852 0.8804-2.0972 0.3623zm7.8125-1.6227c0.6283 0.0605 1.0294 0.6916 0.9644 1.545-0.5895 0.0228-1.1945 0.0522-1.7984 0.0748 0.0708 0.138 0.1443 0.2627 0.2167 0.4092 0.5647 0.0254 1.2034 0.0575 1.8184 0.0876 0.4924 0.4488 0.3803 0.8503 0.0167 1.091-0.5719 0.3995-1.3032 0.0642-2.0876-0.1066-0.0607-0.3064-0.1053-0.508-0.1525-0.7331-0.7371-0.0245-1.4425-0.0443-2.2226-0.06 0.025-0.6884 0.4895-0.9584 1.1377-1.1312 0.0797-1.008 0.6519-1.324 2.1072-1.1767zm-6.4309 2.6396c0.199-0.0294 0.4131-0.0612 0.6128-0.0845 0.0098-0.0179 0.0166-0.0389 0.0253-0.0571 0.1082-0.1163 0.5752-0.1678 0.7891-0.0895 0.0925 0.0312 0.1918 0.1335 0.2557 0.2409 0.0907 0.052 0.1898 0.1063 0.2726 0.1669 0.8307 0.5779 0.7857 0.8765-0.0771 1.2-0.6591 0.2501-1.3466 0.3025-2.1602 0.0431-0.096-0.1106-0.2107-0.2338-0.3073-0.3613-0.5702-0.7095-0.4745-0.9087 0.5891-1.0585zm40.408 11.487c0.1034-0.0362 0.2073-0.0705 0.3157-0.109 0.3118 0.2633 0.6282 0.529 1.0042 0.845 0.1498-0.0557 0.3013-0.1125 0.4498-0.1642 0.0772 0.0565 0.1537 0.1097 0.2308 0.1723-0.2594 0.3525-0.513 0.7041-0.8682 1.21-0.3329-0.2841-0.5519-0.4797-0.819-0.7063-0.0749 0.033-0.1344 0.0555-0.219 0.0871-0.0404-0.5496-0.0632-0.9412-0.0943-1.3349zm-35.965-8.8167c-0.4039 0.3427-0.8332 0.1938-1.4117-0.1811 0.3682-0.3068 0.7482-0.6029 1.1569-0.9276 0.8197 0.487 0.6066 0.8074 0.2548 1.1087zm-32.28-2.8387c1.372 0.665 1.4467 1.0845 0.27421 1.4971-0.55385 0.1939-1.1334 0.298-1.9171-0.0301-0.00628-0.7872 0.23403-1.4221 1.6429-1.467zm4.0179-0.2822c2.2834-0.2896 2.2799-0.368 3.1211 0.7001-0.7137 0.3961-1.5683 0.5004-2.6561 0.3486-0.1605-0.3577-0.3029-0.6738-0.465-1.0487zm24.925 2.4152c0.0743 0.2615 0.1429 0.525 0.2322 0.8376-1.2465-0.2671-0.6662-0.5575-0.2322-0.8376zm-38.261 1.9333c0.40877 0.6967-0.20419 0.788-0.74134 0.9147-0.1881 0.0362-0.40733 0.033-0.63277 0.0576-0.25424-0.2808-0.46281-0.5161-0.89228-0.9915 0.95168 0.0081 1.6175 0.015 2.2664 0.0192zm-21.463 12.301c-0.8132 0.3662-1.1876 1.0859-2.7896 0.4184-0.0382-0.8098-0.0395-0.8144 1.3133-1.6355 0.5338 0.4423 0.9725 0.7995 1.4763 1.2171zm-17.175 7.7573c0.0612 0.0677 0.0088 0.1501-0.0079 0.2901-1.0297 0.0085-2.0582 0.2177-3.432-0.5 0.0086-0.313 0.0443-0.6929 0.0674-1.1065 0.9669 0.1803 1.715 0.3172 2.5354 0.4685 0.2612 0.264 0.5661 0.5591 0.8371 0.8479zm7.2214-8.9045c0.0452-0.0102 0.0651-0.0259 0.1103-0.0364 0.4544 0.2727 0.8997 0.5419 1.3426 0.8115-0.2371 0.8135-1.1021 1.0213-2.6071 0.8975-0.1176-0.3327-0.1139-0.6105-0.036-0.8482-0.7708-0.1064-1.6036-0.3092-2.2985-0.9921 1.0362-0.0801 1.8169-0.2356 2.641-0.1747 0.2604 0.0215 0.5539 0.1737 0.8477 0.3424zm9.037-4.7474c0.4112 0.1346 0.8028 0.3941 1.2241 0.4631-0.2881 1.1241-0.2713 1.1214-1.9381 1.1218-0.1173-0.0935-0.1105-0.1682-0.1961-0.2577-0.0213 0.0072-0.0422 0.0147-0.0634 0.0222-1.0629-1.2392-0.8223-1.6032 0.8687-1.589 0.0477 0.1033 0.0692 0.1563 0.1048 0.2396zm-6.3267 8.6538c-0.5615-0.6854-0.5217-1.1353 0.0696-1.5311 0.3724 0.2741 0.724 0.5397 1.2413 0.9318-0.4604 0.21-0.8156 0.3813-1.3109 0.5993zm-0.9208-9.5029c0.1538-0.1267 0.2653-0.2939 0.4852-0.3653 0.7002-0.2347 1.4451-0.0973 2.3312 0.3616-0.6605 0.146-1.2306 0.3261-1.8715 0.3976-0.2096 0.0172-0.6187-0.2525-0.9449-0.3939zm5.1614-2.5811c0.4371-0.1577 0.8779-0.3115 1.3977-0.4931 0.4137 0.2448 0.7896 0.4766 1.3199 0.7976-1.6001 0.5326-1.6517 0.5322-2.7176-0.3045zm-7.6833 4.1303c-0.571 0.5281-1.4716 0.6525-2.7257 0.6097-0.1621-0.908 0.9507-1.1254 2.7257-0.6097zm25.838-5.6148c0.21502-0.0041 0.40767 0.019 0.45578 0.0621 0.12287 0.1108 0.20088 0.2414 0.29147 0.373 0.07262 0.0469 0.11735 0.0643 0.19403 0.1147-0.02227 0.0198-0.04515 0.0324-0.06657 0.0457 0.13003 0.2144 0.255 0.4594 0.43203 0.7371-0.75741 0.0099-1.1918 0.0174-1.7048 0.0325-0.03946-0.0628-0.08894-0.1144-0.14388-0.1788-0.43346 0.0654-0.923 0.0539-1.5678-0.1535-0.13708-0.3249-0.27148-0.6556-0.40818-0.9931 1.3072-0.362 1.7228-0.4354 2.5179-0.0397zm-12.433 2.2323c-0.3055 0.5831-1.0694 0.8652-2.155 1.216-0.2549-0.6136-0.4599-1.14 0.0792-1.42 0.4742-0.2356 1.2615-0.4074 2.0758 0.204zm34.265-0.8767c0.2075 0.9766 0.2189 0.9726-1.4175 0.7216-0.0048-0.921 0.0066-0.9235 1.4175-0.7216zm-3.4961 1.0861c0.0068 0.29 0.0152 0.5541 0.0273 0.9177-0.3468-0.1264-0.77935-0.2107-0.82808-0.314-0.19606-0.4555 0.18248-0.6064 0.80078-0.6037zm-41.018 6.4412c-0.8181-0.3032-0.9156-0.8029-0.4233-1.306 0.6033 0.014 1.1724 0.0349 1.8153 0.0626 0.5407 0.4357 1.0373 0.8915 0.2805 1.1801-0.4083 0.1495-1.2346 0.2227-1.6725 0.0633zm25.077-11.303c-0.50958 0.4381-0.75728 1.1083-2.2395 0.6997-0.09377-0.3282-0.18804-0.6503-0.30373-1.0422 1.1106-0.5118 1.12-0.5107 2.5432 0.3425zm-8.0358 1.9732c0.212 0.4283-0.2986 0.5648-0.8087 0.6035-0.2759 0.0289-0.6684-0.1242-1.0063-0.1975 0.0602-0.2536 0.0307-0.546 0.2221-0.7493 0.1461-0.1522 0.5546-0.1917 0.9456-0.3044 0.2541 0.2467 0.5546 0.4431 0.6473 0.6477zm-9.5784 9.4184c-1.129 0.3308-2.072 0.1268-3.1135-0.6238 0.2568-0.3431 0.5561-0.7224 0.8737-1.1124 1.3721 0.3953 2.1782 0.8949 2.2398 1.7362zm23.311-12.717c0.2373-0.2428 0.32371-0.556 0.51656-0.9023 0.50301 0.2256 0.90489 0.4099 1.3802 0.6214-0.06292 0.3393-0.07448 0.5557-0.15413 0.7527-0.15808 0.4607-0.90243 0.7142-1.4393 0.4833-0.69584-0.306-0.6341-0.617-0.30326-0.9551zm17.858-0.4133c1.054 0.1582 1.6803 0.3713 1.8693 0.6009 0.0756-0.1047 0.1767-0.2017 0.3175-0.2878 0.1972-0.1265 0.7131-0.1625 0.9487-0.0574 0.2337 0.1002 0.4351 0.4598 0.4059 0.6535-0.0691 0.4631-0.5029 0.6966-1.2545 0.6153-0.312-0.1992-0.4479-0.3873-0.482-0.5638-0.2265 0.2546-0.6265 0.4887-1.0429 0.5195-0.6569 0.0441-0.9401-0.4642-0.762-1.4802zm-14.842 3.2875c-0.55229-0.1466-1.1646-0.4959-1.1101-0.9854 1.1865-0.3077 1.4083-0.3014 2.173 0.223 0.24883-0.5958 0.63118-0.7713 1.223-0.5401 0.55393 0.2253 0.95008 0.5244 0.72645 0.9459-0.23768 0.4922-0.63358 0.5133-1.8162 0.0689-0.26104 0.3031-0.68044 0.4229-1.1961 0.2877zm22.547 2.6966c0.0271 0.0886 0.0522 0.172 0.0824 0.268-0.524 0.1649-1.0532 0.3365-1.573 0.5077-0.1008-0.0728-0.1937-0.1456-0.3031-0.231 0.0911-0.2801 0.1891-0.5608 0.3148-0.9406 0.5134 0.1336 0.9979 0.2677 1.4789 0.3959zm-7.3547 0.3895c-0.0576 0.0056-0.106 0.0044-0.1591 0.0138-0.1836-0.812-0.0601-1.2458 1.1002-1.1582 0.0156 0.0697 0.0573 0.1564 0.0946 0.2382 0.035-0.0134 0.0575-0.0281 0.0971-0.0345 0.2714-0.0423 0.7388 0.0011 0.9565 0.1373 0.2268 0.1426 0.3566 0.4739 0.3472 0.6899-0.023 0.5213-0.6542 0.8533-1.3025 0.7631-0.7081-0.101-0.9317-0.1904-1.134-0.6496zm-41.354 13.526c0.8374 0.4502 0.3354 0.7014 0.1842 1.0269 0.0264 0.0067 0.0445 0.0136 0.0734 0.0201-0.4614 0.7216-0.9853 0.9299-1.7371 0.6573-0.3919-0.1452-0.8949-0.5277-0.9067-0.7247 0.0025-0.1864 0.5081-0.3858 0.8788-0.3688 0.0259 9e-4 0.0631 0.0211 0.0901 0.0141 0.1427-0.3048 0.2558-0.5509 0.463-0.7092 0.1236-0.0859 0.7251-0.031 0.9543 0.0843zm26.535-11.618c0.16547-0.3292 0.30984-0.6047 0.56281-1.0798 0.93657 1.0802 0.8705 1.1609-0.56281 1.0798zm-25.647 9.8977c-0.3151 0.0266-0.8113-0.076-1.1292-0.2244-0.1738-0.0818-0.228-0.406-0.1615-0.5588 0.0703-0.1862 0.324-0.3063 0.7152-0.6214 0.4973 0.4468 0.8987 0.7107 1.0245 0.9693 0.0824 0.153-0.2014 0.4007-0.449 0.4353zm-1.5468 8.641c-0.3335 0.176-0.5681 0.497-0.9996 0.484-0.5042-8e-3 -1.1657-0.295-1.7788-0.468 0.095-0.273 0.0769-0.757 0.331-0.752 0.7524 0.012 1.6807-0.035 2.4474 0.736zm111.6-17.012c0.0054-0.7282 0.0249-0.7665 0.4324-0.8675 0.5233-0.1341 0.9442-6e-4 1.175 0.2766 0.1223 0.1552 0.2067 0.4404 0.0736 0.5442-0.4637 0.352-1.0448 0.2663-1.681 0.0467zm4.7257 1.0602c-0.8149-0.1919-1.6802-0.2338-1.8083-0.9348 0.8811-0.4151 1.6175-0.2854 2.4481 0.1948-0.2211 0.2534-0.4118 0.4753-0.6398 0.74zm-17.968-3.3636c0.5815-0.1107 0.7075-0.6596 1.2835-0.386 0.688 0.3296 0.0891 0.6727-0.1706 1.1491-0.3963-0.2708-0.68-0.4692-1.1129-0.7631zm31.621 6.507c-0.246-0.0979-0.367-0.2192-0.354-0.3801 0.016-0.1783 0.293-0.4411 0.542-0.479 0.244-0.0306 0.727 0.1308 0.873 0.2813 0.013 0.011 8e-3 0.0298 0.022 0.0379 0.468 0.0065 0.841 0.0098 1.136 0.0637 0.17 0.0343 0.358 0.2715 0.321 0.3766 0.031-0.0204 0.035-0.0434 0.084-0.0641 0.253-0.1051 0.804-0.0767 1.168-0.0062 0.283 0.0498 0.473 0.2528 0.784 0.4284-0.753 0.496-1.265 0.5584-1.791 0.2214-0.205-0.1334-0.399-0.3022-0.358-0.4552-0.164 0.149-0.404 0.173-0.673 0.1568 0.072 0.0993 0.146 0.1978 0.248 0.3161-1.022-0.0749-1.801 0.3062-2.488-0.1459 0.144-0.1407 0.306-0.2577 0.486-0.3517zm-23.216-4.7677c-0.5724-0.1258-0.8719-0.3666-0.7333-0.6325 0.1354-0.2652 0.8676-0.4569 1.3917-0.2962 0.1881 0.0584 0.3534 0.3397 0.2989 0.4874-0.1031 0.2955-0.3361 0.5786-0.9573 0.4413zm-26.882-6.6432c0.8552-0.0867 1.4467-0.1358 2.2968-0.2008-0.031 0.2246-0.0622 0.4098-0.0822 0.5914 0.4885 4e-4 0.9244 0.0582 0.9169 0.5188 7e-3 0.1079-0.4023 0.2822-0.6166 0.2673-0.3149-0.0135-0.5026-0.0894-0.5927-0.2175-0.8492 0.0844-1.274-0.3273-1.9222-0.9592zm-4.7621-2.1269c0.7394 0.2905 1.0556 0.5885 0.7217 0.9923-0.415 0.5001-1.0786 0.5161-2.2102 0.229 0.5958-0.5049 1.0497-0.8738 1.4885-1.2213zm-2.4709 0.133c0.5183 1.0659 0.299 1.2182-1.4587 1.1619-0.3374-0.8314-0.3455-0.8372 1.4587-1.1619zm22.56 5.9747c0.0365-0.1568 0.3566-0.3809 0.5627-0.3844 0.5824-9e-3 1.138 0.3678 1.1046 0.6602-0.0293 0.2844-0.4471 0.4389-1.0425 0.4063-0.6635-0.0352-0.7073-0.369-0.6248-0.6821zm-26.549-6.013c0.1431-0.3145 0.2826-0.6242 0.441-0.9836 0.526-0.0324 1.0607-0.0652 1.5899-0.1002 1.2234-0.0776 1.2279-0.0731 1.6986 0.9135-0.6893 0.1019-1.2835 0.1986-1.8745 0.2917-0.2547 0.0385-0.5117 0.1254-0.7666 0.179 0.3626 0.7119 0.1402 0.8768-1.2081 0.8989 0.1212-0.3854 0.0784-0.816 0.4444-1.0077-0.1046-0.048-0.2059-0.0854-0.3247-0.1916zm4.7758 3.2138c1.2248-0.3926 1.2328-0.3903 1.9872-0.2056 0.0258 0.3534 0.2337 0.7583-0.4293 0.895-0.7536 0.1531-1.0802-0.2921-1.5579-0.6894zm13.201-2.0485c0.1366-0.0527 0.2649-0.0757 0.3945-0.0942-0.0221-0.3292 0.5224-0.8036 0.9462-0.7648 0.4645 0.0428 0.8151 0.2374 0.8731 0.5794 0.0383 0.281 0.048 0.5622 0.0679 0.8478-0.0206 0.0046-0.0372 0.0027-0.0595 0.0017 0.0342 0.1382 0.0341 0.2933-0.0056 0.4107-0.0278 0.0992-0.6219 0.1741-0.9182 0.1198-0.7687-0.1294-1.2121-0.5-1.2984-1.1004zm58.594 12.176c-0.148 0.0599-0.314 0.1129-0.451 0.1556-0.28-0.018-0.494-0.0923-0.723-0.1514-0.137 0.0086-0.307-0.0023-0.598-0.0425 0.039-0.0318 0.071-0.0562 0.105-0.0835-0.29-0.1193-0.544-0.2586-0.77-0.4288-0.643-0.5046-0.54-0.7306 0.507-0.8856 0.229-0.0283 0.49-0.0419 0.727-0.0637 0.415 0.2028 0.787 0.3774 1.159 0.562 0.902 0.4491 0.903 0.6185 0.044 0.9379zm-61.72-16.882c-1.1793 0.6332-2.4404 0.8653-3.9383 0.5944-0.1236 0.6932-0.6865 1.0626-1.9023 1.0805-0.3612-0.2839-0.699-0.546-1.0168-0.797 0.5996-0.7919 0.9615-0.9352 2.0341-0.6138-0.02-0.1856-0.0378-0.3695-0.0662-0.6096 0.2606-0.0144 0.407-0.0241 0.5544-0.0334 0.7999-0.0555 1.6083 0.1646 2.4352-0.0774 0.5046-0.1563 1.4347-0.2019 1.8999 0.4563zm-18.241 2.4415c0.5951-0.0882 0.8243 0.2969 0.9182 0.5878 8e-3 0.0349-0.0664 0.1044-0.1235 0.1619 0.2573-0.1088 0.6278-0.0965 1.2912-0.0243 0.2361 0.4726 0.242 0.854-0.4774 1.0822-0.5256 0.1589-0.983 0.4247-1.4972-0.1247 0.1858-0.4281 0.3338-0.6582 0.5133-0.8113-0.0918 0.0548-0.1903 0.1083-0.2619 0.1036-0.3097-0.018-0.6358-0.2414-1.1458-0.451 0.3641-0.2554 0.5235-0.4899 0.7831-0.5242zm30.417-1.1643c-0.8752 0.4331-1.5089 0.5667-2.1585 0.4497 0.2936 0.6742-0.0406 0.8197-1.5521 0.7713-0.0591-0.6879-0.0265-0.822 0.7649-1.0033-0.141-0.0625-0.2716-0.1078-0.4275-0.188-0.3535-0.1942-0.3747-0.5819 0.0364-0.6415 0.7062-0.1006 1.475-0.1969 2.2048-0.1224 0.369 0.041 0.7056 0.4414 1.132 0.7342zm52.106 13.742c-0.477-0.0245-0.792-0.0487-1.021-0.0946-0.106 0.0287-0.174 0.0486-0.267 0.0676 0.016 0.1904-0.15 0.3842-0.043 0.5697-0.427-0.0029-0.736 0.0049-0.983-6e-3 -0.019 0.0598-0.022 0.1162-0.035 0.1786-1.02-0.043-1.086-0.3367-1.128-0.62-0.09-0.069-0.167-0.1308-0.286-0.2306 0.068-0.0608 0.178-0.0642 0.251-0.1151-0.019-0.0076-0.037-0.0145-0.056-0.0217 0.289-0.1407 0.534-0.2437 0.76-0.3142-0.015-0.0063-0.042-0.01-0.053-0.0207-0.325-0.2274 4e-3 -0.3359 0.346-0.4153 0.172-0.0475 0.296-0.1231 0.507-0.2156 0.26 0.077 0.523 0.1547 0.791 0.2379 0.85-0.0464 1.07 0.1624 1.217 1zm-76.603-6.2052c0.538-0.0404 1.0595 0.5468 1.1981 1.2388-0.8606 0.2933-1.3203-0.3913-2.2556-0.6439 0.4557-0.2719 0.7166-0.5696 1.0575-0.5949zm6.0351-0.7512c-0.2464-0.0968-0.5112-0.2561-0.9155-0.5628 1.0535-0.9316 1.3843-0.8749 2.1588 0.3019-0.3778 0.2222-0.6247 0.3231-0.8754 0.3314 0.0109 0.3292 0.0261 0.6042 0.048 1.0194-0.5907-0.2709-0.9967-0.4598-1.6245-0.7484 0.4395-0.1298 0.7999-0.2342 1.2086-0.3415zm28.552 7.6011c0.474-0.2728 0.9579-0.3966 1.4605-0.3286 0.2444-0.0973 0.4833-0.1807 0.7601-0.2744 0.2044 0.2806 0.3413 0.454 0.4456 0.6317 0.0391 0.0732 0.0137 0.1693 0.0255 0.2811-0.1051 0.0423-0.2051 0.055-0.3051 0.0767-0.0744 0.1301-0.2137 0.2514-0.4782 0.3475-1.0239 0.3752-1.5297 0.1924-1.9084-0.734zm-25.533-5.7122c-0.1057-0.3307 0.2653-0.5014 0.6356-0.4421 0.3496 0.0499 0.7505 0.2038 0.9668 0.4045 0.1461 0.1308 0.0165 0.4283 0.0132 0.7677-0.4481-0.0556-0.7947-0.03-1.033-0.149-0.2531-0.1239-0.5069-0.3595-0.5826-0.5811zm-12.648 1.0678c0.2424-0.4605 0.6553-0.5818 1.1477-0.2802 0.1634 0.1011 0.1053 0.4345 0.1778 0.8232-0.5854-0.2446-0.9433-0.391-1.3255-0.543zm26.505 1.6695c0.5625-0.1283 1.1186-0.2567 1.7229-0.3925 0.2213 0.5019 0.1944 0.8575-0.4011 1.0496-0.5128 0.1659-0.9928-0.078-1.3218-0.6571zm53.78 5.7049c-0.316 0.2653-0.911 0.2936-1.456 0.0813-0.862-0.3451-1.287-0.9041-0.913-1.2204 0.293-0.2415 0.985-0.2327 1.683 0.0274 0.626 0.2289 1.003 0.8482 0.686 1.1117zm-59.969-6.0828c0.0762-0.2756 0.2657-0.5444 0.5022-0.7564 0.1306-0.113 0.5167-0.199 0.673-0.1299 0.2274 0.0857 0.3521 0.3329 0.548 0.5444-0.2711 0.2608-0.4681 0.5076-0.7398 0.6893-0.1548 0.106-0.4971 0.1747-0.6555 0.1146-0.1742-0.07-0.3659-0.3267-0.3279-0.462zm17.925-4.5071c0.0478-0.1746 0.1675-0.3851 0.3811-0.6293 1.0454 0.3356 1.1355 0.4933 0.8176 0.9571-0.1923 0.2786-0.5096 0.2723-0.8174 0.2055-0.2462 0.0153-0.5094 0.0164-0.7503 0.0287-0.0517-0.0534-0.0954-0.1132-0.1444-0.1717 0.1715-0.1248 0.3366-0.2667 0.5134-0.3903zm16.334 4.1296c0.1325-0.2768 0.277-0.5584 0.4763-0.9661 0.7555 0.2986 1.2855 0.5111 2.0475 0.8191-1.032 0.3468-1.6714 0.596-2.5238 0.147zm-19.238-3.7874c0.188 0.2826 0.3821 0.5686 0.6267 0.9547-0.6025 0.0196-0.9861 0.0421-1.3926 0.0586-0.1472-0.5058-0.4452-0.9742 0.7659-1.0133zm7.9142 0.8946c-0.8693-0.1486-0.6581-0.5445-0.495-0.9342 0.7017 0.0181 1.2494 0.1376 1.1466 0.6201-0.0258 0.1263-0.4774 0.3407-0.6516 0.3141zm4.8895 1.1394c0.0541-0.2107 0.3159-0.5017 0.6103-0.5566 0.6985-0.1365 1.4334-0.0715 1.9725 0.3685-0.4078 0.4701-1.0228 0.6557-1.8015 0.5496-0.1391-0.0217-0.3197-0.0804-0.474-0.1456 0.1722 0.2 0.3516 0.4017 0.5886 0.6819-0.6768 0.0602-1.0665 0.0948-1.4845 0.1407-0.2013-0.4743-0.1567-0.7922 0.635-0.9824-0.0207-0.019-0.0498-0.0413-0.0464-0.0561zm-11.1 0.6663c-0.5752 0.1553-0.9537 0.2557-1.4801 0.4028 0.0352-0.4985-0.3212-0.9764 0.5081-1.0855 0.6953-0.0945 0.4919 0.4352 0.972 0.6827zm54.373 15.41c-0.495-0.2463-1.109-0.4283-1.174-0.6013-0.069-0.1861 0.391-0.3645 0.592-0.5312 1.126 0.3467 1.068 0.6747 0.582 1.1325zm-21.074-9.0546c0.259-0.2181 0.5-0.412 0.799-0.6562 0.675 0.2845 1.22 0.5151 1.857 0.7948-0.928 0.3666-1.66 0.3294-2.656-0.1386zm-48.096-13.899c-0.5065 0.0916-1.1499-0.0048-1.6976-0.1128-0.0907-0.0173-0.1734-0.089-0.2538-0.164-0.2367 0.054-0.5119 0.0485-0.8257-0.0447-0.2213-0.064-0.4324-0.1542-0.6791-0.2367 0.0243-0.1585-0.0063-0.3079 0.0823-0.4019 0.3728-0.3915 0.8683-0.4229 1.624-0.0788 0.0037 0.0052 7e-3 0.0058 7e-3 0.0058 0.0097 8e-4 0.0133 6e-4 0.0174-0.0038 0.5493-0.0974 1.1451-0.1136 1.8606-0.1733 0.0156 0.18 0.0428 0.2515 0.0282 0.3082-0.0736 0.3089 0.593 0.7667-0.1633 0.902zm17.45 0.8912c0.6168-0.1563 1.3004-0.2289 2.0013-0.3275-0.0034-0.0042-0.0051-0.011-0.0025-0.0189 0.0416-0.1466 0.4405-0.3201 0.7099-0.3308 0.8164-0.0141 1.5458 0.1733 1.9772 0.7574-0.2401 0.0685-0.5301 0.101-0.5397 0.1666-0.0805 0.5054-0.6424 0.3922-1.1161 0.2591-0.2447-0.0672-0.4821-0.1601-0.6694-0.2672-0.1405 0.2108-0.5153 0.3029-0.7874 0.3671 0.0223 0.4195 0.0453 0.7852 0.0559 1.1044-0.8559 0.0552-1.4131 0.0984-2.1309 0.1571 0.0283-0.2524 0.0563-0.4823 0.0767-0.7231-0.2313 0.44-0.3117 0.6868-0.4881 0.9078-0.2105 0.2602-0.576 0.4265-1.0685 0.2958-0.1861-0.0516-0.4638-0.2416-0.4327-0.319 0.0993-0.2814 0.2194-0.594 0.515-0.7794 0.2014-0.1309 0.7065-0.0727 1.4775-0.115 0.0114-0.1365 0.0249-0.2889 0.0403-0.413 0.2648-0.0471 0.4584-0.0821 0.6395-0.1112-0.0754-0.0139-0.1664-0.0101-0.2344-0.0278-0.4392-0.1027-0.4828-0.4634-0.0236-0.5824zm-2.6989-1.1969c0.2798-0.0408 0.5803-0.0827 0.8673-0.1212 0.0538 0.3553 0.093 0.6499 0.1352 0.9487-1.3525 0.4008-2.1176 0.2727-2.8431-0.5621 0.0189-0.0025 0.0247-2e-3 0.0393-5e-3 -0.2991-0.1133-0.6069-0.2754-0.9415-0.5358 0.2158-0.2629 0.4226-0.5168 0.6793-0.8212 0.692 0.3627 1.3516 0.7098 2.0635 1.0966zm-22.923-1.7891c0.7354-0.116 1.3806-0.2106 2.0429-0.305 0.0639 0.1999 0.1076 0.3642 0.1266 0.499 0.661 0.0145 0.8464 0.2955 1.1665 1.1662-1.3246 0.1301-1.6807 0.0882-1.929-0.5402-0.1789-0.0114-0.3573-0.0146-0.5373-0.046-0.1364-0.0247-0.3219-0.0692-0.3954-0.1405-0.1642-0.1652-0.2685-0.3519-0.4743-0.6335zm-4.0829 0.8233c-1.0949 0.4984-1.6072 0.3476-2.0806-0.6432 0.9059-0.1462 1.6636-0.0436 2.0806 0.6432zm23.894 6.3984c1.0798 0.3753 0.5431 0.7126 0.1124 1.1387-0.3594-0.1252-0.6984-0.2443-1.2304-0.4356 0.4432-0.284 0.788-0.4982 1.118-0.7031zm-10.096-4.965c-0.2588-0.2573-0.3626-0.4934 0.0578-0.6673 0.467-0.1949 0.8905-0.0195 1.1358 0.2429 0.1916 0.2119 0.2063 0.4808 0.2941 0.7211-0.7703 0.2296-1.0212 0.1687-1.4877-0.2967zm18.023 6.7681c-0.0873-0.0976-0.1781-0.2063-0.3091-0.3347 0.5515-0.0616 0.907-0.1534 1.2058-0.0999 0.1326 0.0198 0.2911 0.3744 0.1928 0.4863-0.0289 0.025-0.1001 0.0425-0.1469 0.0682 0.0958 0.1256 0.1571 0.2819 0.2323 0.4441-0.6864 0.168-1.2541 0.3133-1.5395-0.1452-0.0512-0.0799 0.1516-0.295 0.3646-0.4188zm18.678 0.2574c0.744-0.4111 1.499-0.2644 2.248 0.1287-0.948 0.6191-1.5 0.5843-2.248-0.1287zm-1.974 4.1242c0.246 0.1506 0.482 0.2983 0.756 0.4723-0.24 0.0166-0.428 0.028-0.63 0.0428-1.222 0.2775-1.486 0.2257-2.006-0.392 1.062-0.56 1.498-0.6172 1.88-0.1231zm-37.481-7.937c0.7114 0.456 0.537 0.7955 0.057 1.228-0.3483-0.1679-0.6699-0.3127-1.2408-0.5721 0.4939-0.2803 0.8276-0.4606 1.1838-0.6559zm5.6505 1.7643c0.203 0.1169 0.3431 0.56 0.214 0.6447-0.5254 0.3627-0.9502 0.067-1.475-0.2836 0.3896-0.3283 0.6889-0.6857 1.261-0.3611zm-8.2908-0.1763c1.0425-0.2483 1.7862-0.1585 2.3376 0.5054-0.5358 0.6773-1.3458 0.4737-2.2025 0.4416-0.0527-0.3429-0.0874-0.6219-0.1351-0.947zm34.531 6.427c0.3195-0.1038 0.7763-0.1173 1.1398-0.0696 0.3806 0.056 0.6453 0.287 0.3712 0.5221-0.1878 0.1512-0.5586 0.2761-0.8645 0.3056-0.2917 0.029-0.6094-0.0758-1.0698-0.1473 0.1746-0.2719 0.213-0.5416 0.4233-0.6108zm-35.014-11.376c-0.0066 0.4663 0.3472 0.8887-0.4206 0.9083-0.1971 4e-3 -0.6036-0.2719-0.6431-0.4404-0.124-0.5091 0.4955-0.39 1.0637-0.4679zm3.9484 6.6404c-0.0542-0.1371 0.1848-0.4026 0.3874-0.5181 0.3783-0.2194 0.8226-0.2311 1.218 0.0469 0.3032 0.2124 0.3 0.2559-0.1259 0.9788-0.7011 0.0518-1.2729-0.0257-1.4795-0.5076zm3.9678-3.4376c0.1921-0.4917 0.7501-0.4496 1.3893-0.2595-0.0605 0.327-0.1132 0.6602-0.5198 0.7459 0.2175 0.0792 0.4499 0.2045 0.7798 0.359-0.452 0.1958-0.7033 0.3947-0.9278 0.3752-0.2154-0.0177-0.5522-0.2483-0.5806-0.4071-0.0123-0.086 0.1176-0.2294 0.251-0.3232-0.1731-0.0306-0.4419-0.3588-0.3919-0.4903zm4.076-2.2841c-0.1241 0.1559-0.6273 0.2599-0.9563 0.2339-0.4006-0.0328-0.7873-0.2129-1.2299-0.3489 0.064-0.2888 0.1102-0.5304 0.2035-0.9768 0.66 0.1836 1.2034 0.2678 1.6073 0.4692 0.2539 0.1267 0.4835 0.4925 0.3754 0.6226zm-3.4715-0.3753c0.6115 0.1366 1.1924 0.3531 1.0559 0.8891-0.8544 0.2024-0.8397 0.2019-2.5019-0.5054 0.2546-0.5749 0.8744-0.5102 1.446-0.3837zm7.0666 0.4086c0.1603 0.2607 0.0867 0.5889 0.0133 0.8744-0.023 0.0836-0.3875 0.1713-0.5854 0.1635-0.5305-0.0241-0.7668-0.2832-0.8067-0.5878-0.0124-0.1113 0.0028-0.2222 0.0148-0.3512-0.1607 0.3208-0.3448 0.671-0.5162 1.0151-0.6095-0.267-1.0877-0.4699-1.8211-0.7818 0.2052-0.2997 0.4409-0.6428 0.707-1.0378 0.3584 0.107 0.6362 0.1665 0.8722 0.272 0.2335 0.0944 0.4404 0.2306 0.7694 0.421 0.0153-0.1478 0.0441-0.3132 0.0672-0.5379 0.6707 0.2753 1.1724 0.3681 1.2855 0.5505zm-9.5573 0.1819c0.2284 0.4253 0.0825 0.7194-0.5601 0.8755-0.6258-0.7494-0.5631-0.868 0.5601-0.8755zm9.6564 1.0195c0.4043-0.4743 0.9718-0.4913 1.5876-0.4684 0.0903-0.1812 0.173-0.352 0.2686-0.5441 0.8193 0.2591 1.7349 0.3415 1.8686 1.0904-0.5798 0.285-1.0355 0.1922-1.4731 0.046-0.0231 0.1197-0.0326 0.2297-0.0521 0.3601-0.7736-0.0737-1.6154 0.2135-2.1996-0.484zm-2.9214 1.0707c-0.1618-0.1184-0.0521-0.388-0.0673-0.592 0.3092 0.0223 0.766-0.0192 0.891 0.0908 0.248 0.2225 0.305 0.5254 0.4407 0.8016-0.0821 0.0412-0.1526 0.0773-0.2351 0.1174-0.0647-0.0239-0.1289-0.0464-0.2035-0.0682 0.0239 0.509-0.1716 0.8084-0.5787 0.7973-0.3666-0.0038-0.7253-0.0786-0.7304-0.4363-0.0165-0.4043 0.0894-0.5706 0.6539-0.6323-0.0566-0.0274-0.1319-0.0484-0.1706-0.0783zm-28.346-5.8548c-1.2641 0.5637-1.7174 0.4159-2.1444-0.7692 1.1602-0.069 1.1683-0.0653 2.1444 0.7692zm-18.561-0.8511c0.6164 0.1228 1.2791 0.3418 1.4945 0.9925-0.6338 0.3629-1.3529 0.3289-2.0468-0.0231-0.2776-0.1491-0.5617-0.5685-0.4698-0.7419 0.0907-0.1686 0.7003-0.2949 1.0221-0.2275zm-18.914 4.5207c0.06944-0.1185 0.19054-0.2155 0.37132-0.2872 0.32963-0.1235 0.84808-0.0622 1.2685-0.0824 0.3056 0.3675 0.5375 0.6458 0.7491 0.9054-0.8126 0.5023-1.7077 0.5757-2.231 0.1975-0.12323-0.09-0.18948-0.1916-0.22871-0.3103-0.05113 0.0358-0.08172 0.0741-0.15756 0.1004-0.52927 0.1995-1.4579 0.058-1.8125-0.282-0.46884-0.4521-0.16025-0.7905 1.169-1.1816 0.48678 0.4418 0.74477 0.7274 0.87187 0.9402zm15.455-3.2796c-0.3444 0.1085-0.6948 0.2245-1.0735 0.3472 0.2654 0.0026 0.5312 5e-3 0.9296 0.0253 0.0442 0.303 0.076 0.5194 0.1163 0.8042-0.5489 0.3174-1.0591 0.7258-2.073 0.1831-0.1028-0.2888-0.136-0.4836-0.1056-0.6405-0.0355 0.0088-0.065 0.0177-0.0998 0.0282-0.1129-0.6045-0.181-0.9988-0.2607-1.4395 1.8109-0.1172 1.8137-0.1104 2.5667 0.692zm-11.126 3.672c-0.5726 0.0881-1.1321-0.0811-1.3936-0.5013-0.2491-0.4027 0.1758-0.5693 0.6373-0.6743 1.018-0.245 1.4168-0.0882 1.9449 0.8778-0.4492 0.1093-0.8014 0.2339-1.1886 0.2978zm-12.832 0.2505c1.1569 0.1253 1.0776 0.7798 1.4811 1.4606-0.77617 0.0173-1.3983 0.0309-2.034 0.0434-0.36884-1.1624-0.20516-1.5851 0.55288-1.504zm35.983-5.9484c0.1343 0.1834 0.1984 0.3256 0.3218 0.4403 0.2502 0.2254 0.4804 0.4868 0.0544 0.6115-0.2318 0.0696-0.6409-0.0224-0.9392-0.1131-0.6656-0.1885-0.896-0.5378-0.7619-1.0279 0.449 0.0315 0.8989 0.0601 1.3249 0.0892zm-18.594 3.1447c0.4563 1.2851 0.2633 1.4093-1.5873 1.0409-0.3314-0.962 0.0187-1.1894 1.5873-1.0409zm13.794-2.6127c0.5605 0.2816 1.0261 0.6382 1.4927 0.9421-0.2765 0.3337-0.5926 0.4736-0.9342 0.5204 0.5813 0.2606 0.9834 0.6283 1.1886 1.15-0.4985 0.1143-0.8943 0.2117-1.4475 0.3526-0.018-0.2749-0.024-0.4585-0.032-0.6284-0.5085-0.1151-1.0205-0.2257-1.5367-0.3337-0.5459-0.1188-0.751-0.4102-0.5745-0.6771 0.0842-0.1383 0.4353-0.2224 0.7153-0.2234-0.4302-0.2357-0.5514-0.5375-0.2994-0.9266 0.24-0.3633 0.8198-0.471 1.4277-0.1759zm57.212 15.351c0.1803-0.0119 0.4945 0.1549 0.5522 0.2816 0.1084 0.2316 0.1325 0.5056 0.056 0.75-0.0397 0.12-0.3663 0.2985-0.5666 0.3126-0.1867 0.015-0.4614-0.1289-0.5513-0.2519-0.1495-0.2184-0.1925-0.4777-0.3103-0.7642 0.3096-0.1314 0.5576-0.3033 0.82-0.3281zm-52.857-9.074c-0.0741 0.2659-0.1592 0.5343-0.2274 0.8029-0.11-0.0278-0.2116-0.0522-0.3219-0.08-0.0684-0.4863-0.0695-0.4873 0.5493-0.7229zm12.132-0.2188c0.3831 0.5421 0.2313 1.0084-0.2706 1.3055-0.6905 0.4124-1.2456-0.3373-2.0362-0.2177 0.4286-0.9376 1.438-0.9193 2.3068-1.0878zm-16.277 1.5584c-0.081-1.1028-0.0699-1.1125 1.0855-1.0631 0.3121 1.0136 0.22 1.1088-1.0855 1.0631zm13.396-0.2241c0.366 0.0459 0.8656 0.1949 1.0285 0.4046 0.2718 0.354-0.1534 0.5538-0.5284 0.672-0.6611 0.2048-1.0811-0.038-1.4516-0.8611 0.375-0.0971 0.6703-0.2602 0.9515-0.2155zm-11.158 1.7647c0.5628 0.6198 0.366 0.9139-0.3033 1.0139-0.3524 0.0548-0.848 0.0546-0.9214-0.3276-0.1152-0.6152 0.5558-0.6454 1.2247-0.6863zm-20.888-2.8c0.1706-0.4924 0.8477-0.4816 1.6051-0.4701 0.916 0.9405 0.8207 1.2773-0.4006 1.4053-0.3219 0.0351-0.841-0.095-1.1238-0.2669-0.176-0.1036-0.1525-0.4619-0.0807-0.6683zm4.3001 0.7485c-0.3908 0.0553-1.1212 0.0368-1.3095-0.1309-0.6979-0.6158 0.1869-0.862 0.3852-1.2596 0.8192-0.0053 1.5473 0.1208 1.7999 0.7201 0.1843 0.4584-0.4194 0.5992-0.8756 0.6704zm-6.2487-0.8387c0.4978-0.03 0.9914 0.0587 1.2124 0.4882 0.1621 0.3118-0.3919 0.7619-1.2134 0.8586-0.1672-0.0849-0.537-0.2123-0.7168-0.4024-0.3246-0.3267 0.1303-0.9059 0.7178-0.9444zm20.786-0.5829c-0.36-0.3312-0.1876-0.5654 0.2924-0.7983 0.0127-0.4146 0.5961-0.8842 1.2054-0.8959 0.7539-0.0166 1.365 0.2536 1.4786 0.6485 0.1227 0.4067-0.3049 0.7901-0.9531 0.9621 0.1041 0.0444 0.1811 0.0816 0.2949 0.1296-1.1172 0.3594-1.9209 0.3158-2.3182-0.046zm4.9979-0.3056c0.1182-0.0997 0.6262-0.1046 0.7505-0.0125 0.6131 0.4546-0.1545 0.5111-0.264 0.7675-0.6604-0.1923-0.8323-0.4658-0.4865-0.755zm14.102 1.14c-0.3325 0.02-0.6882 0.0412-1.0909 0.064-0.0664-0.3653-0.1191-0.6483-0.1713-0.9353 1.0069-0.117 1.3352 0.1999 1.2622 0.8713zm-27.958-1.4766c-0.1766-0.1003-0.3134-0.3349-0.2887-0.4805 0.0208-0.1365 0.2373-0.2837 0.4321-0.314 0.7721-0.1369 1.1122 0.0455 1.7729 0.9156-0.6616 0.3549-1.2997 0.2353-1.9163-0.1211zm20.116 4.4749c-0.8274-0.1578-1.5321-0.2952-2.3406-0.445 0.4269-0.8624 1.5231-0.103 2.092-0.7473 0.1157 0.5588 0.1705 0.8177 0.2486 1.1923zm39.174 4.032c0.4906 0.2712 0.9383 0.5166 1.3915 0.7744-0.6362 0.4271-1.2334 0.5279-1.6211 0.2564-0.4503-0.3105-0.2667-0.6432 0.2296-1.0308zm-33.893-13.852c0.7694-0.0362 1.6272 0.0877 2.3756 0.2762 0.5217 0.1321 0.3965 0.8705-0.1538 0.9084-0.9089 0.0564-1.8354 0.0195-2.6977 0.0237 0.0198 0.0459 0.0689 0.0951 0.0629 0.13-0.0865 0.2688-0.3129 0.5586-0.6201 0.7196-0.1597 0.0894-0.6928-0.0299-0.946-0.1569-0.1514-0.0762-0.2076-0.4264-0.0883-0.5437 0.2507-0.2508 0.6584-0.4297 1.1521-0.7125 0.0842 0.1118 0.1743 0.209 0.2634 0.2969-0.2382-0.5664-0.0399-0.9201 0.6519-0.9417zm3.0641 2.4519c0.1637 0.995-0.23 1.2167-1.4476 0.9024-0.3493-0.0861-0.7335-0.0668-1.0989-0.1072-0.3442-0.0409-0.6824-0.1041-1.3174-0.1958 0.3082-0.5158 0.5501-0.8956 0.8806-1.4111 0.6719 0.3284 1.2418 0.604 1.9179 0.9383 0.2163-0.0301 0.6314-0.0766 1.0654-0.1266zm2.5335 1.6748c0.4773-0.0612 0.9423-0.1295 1.4615-0.1925 0.0942 0.4442 0.1525 0.7431 0.2163 1.0326-1.1205 0.1198-1.1128 0.1246-1.6778-0.8401zm4.1557 0.1386c0.1905-0.0915 0.3684-0.1732 0.5847-0.2756 0.2765 0.5089 0.4696 0.8774 0.6504 1.2244-0.9076 0.4096-0.9975 0.4116-2.1507-0.252-0.0318 0.0022-0.0618 0.0175-0.0978 0.0224-0.4205 0.0148-1.0291-0.0897-1.2891-0.2986-0.2081-0.1694-0.0193-0.5707 0.0064-1.0112 0.8938 0.2229 1.6133 0.4124 2.2961 0.5906zm7.1434-3.1979c0.2978 0.1521 0.4308 0.4424 0.6256 0.6721-0.0723 0.0566-0.1466 0.1068-0.2175 0.1641-0.3584-0.1002-0.7666-0.1639-1.0666-0.317-0.1785-0.0888-0.198-0.3249-0.2862-0.491 0.3278-0.0195 0.7616-0.1279 0.9447-0.0282zm-3.6567 1.4439c0.1832-0.9521 1.6442-0.5764 2.5081-1.0149 0.2401 1.2568-0.2626 1.4152-2.5081 1.0149zm14.779 0.7455c0.3506 0.2545 0.0985 0.5684-0.3608 0.5297-0.4881-0.0441-1.0898-0.2183-1.425-0.4561-0.013-0.0114-0.0361-0.0271-0.0505-0.0377-0.1685 0.4289-0.8097 0.4893-1.4082 0.459-0.4957-0.0209-1.0704-0.091-0.8463-0.5935 0.0325-0.0652-0.2124-0.188-0.378-0.3223 0.7118-0.4197 1.4686-0.363 2.1828-0.0966-0.0031-0.1515 0.0833-0.3296 0.4664-0.5245 0.6406 0.3571 1.2975 0.6659 1.8196 1.042zm38.709 10.842c-0.341-0.162-0.684-0.4082-0.669-0.581 0.024-0.315 0.467-0.4342 1.126-0.397 0.375-0.3676 0.857-0.5365 1.32-0.4206 0.575 0.1483 0.929 0.3092 1.183 0.4928 0.057-0.0299 0.115-0.0656 0.185-0.0974 0.947 0.4956 1.731 0.9007 1.282 1.6312-0.467-0.1577-0.899-0.2955-1.338-0.4344-0.065 0.1043-0.088 0.1986-0.182 0.3194-0.278-0.1101-0.551-0.2164-0.823-0.3228-0.078 0.0758-0.155 0.1547-0.258 0.2521-0.707-0.1114-1.425-0.1344-1.826-0.4423zm-29.44-7.3413c0.4778-0.0572 1.0237 0.0268 1.7273 0.0685-0.1637 0.4112-0.2562 0.6322-0.3676 0.9065-0.4797-0.0164-0.9354 0.0294-1.3178-0.0578-0.3073-0.0733-0.7128-0.3112-0.7376-0.4794-0.0218-0.153 0.399-0.4078 0.6957-0.4378zm4.2119 0.9797c-1.9383 0.114-1.925 0.1247-2.6014-0.3028 0.1751-0.4979 0.8329-0.5166 1.4831-0.4537 0.5974 0.0612 1.2058 0.1936 1.1183 0.7565zm7.882 1.8867c-0.0165 0.0407-0.0142 0.0779-0.0654 0.1305-0.1239 0.1215-0.6585 0.2283-0.8431 0.1684-0.7047-0.2409-0.1431-0.4816 0.1069-0.866 0.1902 0.0884 0.3797 0.1553 0.5514 0.2243 0.8504-0.6516 1.1454-0.6557 2.3144-0.1058-0.7965 0.7497-1.0869 0.8345-2.0642 0.4486zm-1.6803-0.7991c0.0275 0.1022-0.0737 0.2149-0.1357 0.3521-0.2744-2e-3 -0.519 0.0061-0.7557-0.0048-0.1771-0.0086-0.283-0.0644-0.4202-0.1005 0.1437 0.2154 0.1907 0.4871 0.0436 0.6326-0.2756 0.2746-0.6203 0.4405-1.1991 0.2208-0.246-0.0926-0.5315-0.1473-0.9135-0.2531 0.1795-0.2344 0.3393-0.4666 0.5348-0.6855 0.2161-0.2435 0.5992-0.2932 1.0054-0.2334-0.0485-0.0657-0.134-0.1107-0.1511-0.1911-0.0166-0.0969 0.3343-0.2698 0.5579-0.2858 0.8738-0.0562 1.306 0.1145 1.4336 0.5487zm-6.6327-0.6901c0.2148-0.1786 0.3841-0.4073 0.6797-0.5292 0.3623-0.1512 0.8509-0.1777 1.1684 0.1256 0.2816 0.2762 0.0536 0.4435-0.3222 0.5808 0.7346 0.2656 0.6879 0.4076-0.2161 0.816-0.3763-0.2332-0.4528-0.453-0.29-0.6729-0.3568 0.0617-0.612-0.0262-1.0198-0.3203zm38.038 10.648c0.804 0.0912 0.809 0.4164 0.732 0.8013-0.712-0.1127-1.501-0.0569-1.586-0.5405-0.011-0.1107 0.56-0.2952 0.854-0.2608zm8.564 5.3767c0.164 0.1 0.292 0.2027 0.323 0.3002 0.047 0.1342-0.189 0.2487-0.342 0.4195-0.759-0.2548-1.467-0.4547-2.112-0.6987-0.359-0.1353-0.475-0.3487-0.071-0.4561 0.385-0.1107 1.071 0.0025 1.641 0.1997-0.286-0.1951-0.522-0.431-0.563-0.6309-0.071-0.3089 0.677-0.287 2.109 0.0793-0.208 0.5865-0.556 0.8374-0.985 0.787zm-0.727-1.1064c-0.733-0.2094-1.041-0.5177-0.914-0.8484 0.061-0.144 0.393-0.3088 0.656-0.2978 0.081 0.0015 0.197 0.0477 0.305 0.0859-0.175-0.1462-0.304-0.3081-0.334-0.517 0.384-0.0816 0.778-0.1621 1.18-0.2447 1.176 0.5768 1.499 0.7692 1.349 1.1544 0.114 0.0968 0.188 0.1906 0.153 0.2162-0.093 0.062-0.234 0.104-0.371 0.1536-0.028 0.0357-0.034 0.0577-0.06 0.0959-0.039-0.0087-0.074-0.0204-0.103-0.0305-0.233 0.0732-0.511 0.143-0.81 0.2378-0.115-0.1064-0.202-0.1758-0.302-0.2587-0.08 0.1346-0.314 0.229-0.749 0.2533zm-28.683-8.1458c-0.091 0.0877-0.195 0.2012-0.288 0.2908 0.05 0.0301 0.075 0.0454 0.129 0.0812-0.1 0.0249-0.188 0.0466-0.275 0.0721-0.067 0.0736-0.128 0.1334-0.206 0.2145-0.103-0.0373-0.178-0.0644-0.273-0.0977-0.353 0.0699-0.7 0.085-1.076-0.1113-0.562-0.2905-0.159-0.5441 0.048-0.8031 0.431 0.0382 0.636 0.0692 0.882 0.1735 0.262-0.0631 0.605-0.015 1.059 0.18zm-9.2001-1.3487c-0.2063-0.0463-0.4915-0.2973-0.433-0.3792 0.2853-0.4344 0.8166-0.2707 1.3376-0.1055-0.0016 0.4533-0.29 0.6398-0.9046 0.4847zm41.019 12.368c-0.25 0.039-0.927-0.2096-1.27-0.3845-0.397-0.207-0.909-0.5086-0.542-0.7448 0.466-0.3073 1.191-0.1331 1.952 0.1668 0.026 0.3319 0.747 0.8098-0.14 0.9625zm-29.694-10.954c0.736 0.3813 1.698 0.6707 1.642 1.4895-0.686-0.3229-1.587 0.0789-2.043-0.4317-0.323-0.3704-0.234-0.7629 0.401-1.0578zm-79.021-2.6569c0.2311 0.3378 0.4732 0.6842 0.8743 1.2809-1.0342-0.2894-1.7364-0.4788-2.6075-0.7075 0.3998-0.5748 0.9663-0.6297 1.7332-0.5734zm-4.1955 1.0934c0.1443-0.0709 0.3378-0.2499 0.4948-0.2101 0.4943 0.1277 1.0221 0.2812 1.4461 0.5253 0.5767 0.333 0.481 0.6899 0.0821 1.0411-0.6435-0.4841-1.6603-0.4985-2.023-1.3563zm8.6163 0.7977c-0.3345-0.0282-0.6962-0.2866-1.3098-0.5665 0.4622-0.233 0.6752-0.4108 0.9198-0.4386 0.0558-0.0875 0.1101-0.1668 0.1687-0.2566 0.3407 0.1782 0.5782 0.314 0.8109 0.4382 0.066 0.0218 0.133 0.0406 0.1919 0.0633 0.104 0.043 0.2136 0.4132 0.1517 0.4483-0.2768 0.1493-0.6082 0.3359-0.9332 0.3119zm-3.6869-2.2101c-0.5089-0.1867-0.8463-0.3112-1.3777-0.5065 0.8145-0.4049 0.82-0.4022 1.3777 0.5065zm23.497-0.0345c0.3141-0.0319 0.6242-0.0863 0.9503-0.1269 1.0086 0.6732 0.9945 0.6716 0.5185 1.4274-0.7237 0.0195-1.4426 0.036-2.2727 0.0592-0.1164-0.4331-0.2197-0.8111-0.3359-1.2478 0.4718-0.0466 0.8061-0.0753 1.1398-0.1119zm15.188 1.9073c0.8601-0.1518 1.4458 0.1297 1.8368 0.6659-0.4579 0.4084-0.8299 0.6239-1.1785 0.6632-0.0587 0.0876-0.1411 0.1739-0.2115 0.1903-0.5075 0.1031-1.0308 0.1637-1.432-0.2194 0.0762-0.1083 0.1091-0.2051 0.1861-0.2715 0.103-0.072 0.2102-0.1452 0.3332-0.2293-0.2908-0.3418-0.1351-0.6937 0.4659-0.7992zm-8.3251 0.4841c0.3126 0.091 0.6634 0.3333 0.7619 0.5696 0.0685 0.1542-0.2045 0.5176-0.4388 0.607-0.3578 0.138-0.812 0.1228-1.4454 0.2034 0.1322-0.452 0.2145-0.7164 0.2841-0.9875 0.0956-0.3787 0.477-0.5001 0.8382-0.3925zm-5.574-0.4925c0.462-0.1943 1.0516-0.4543 1.482-0.0542 0.4084 0.3711-0.0102 0.7226-0.4179 1.0691-0.4622-0.1335-0.9535-0.2678-1.6496-0.4574 0.2777-0.2782 0.3886-0.4748 0.5855-0.5575zm-17.376-3.3718c0.5198 0.0276 1.2053 0.6049 1.2104 1.0862 0.0028 0.1353-0.2602 0.3278-0.4483 0.3432-0.6933 0.0597-1.5058-0.3226-1.5865-0.7085-0.0753-0.3632 0.3542-0.7434 0.8244-0.7209zm53.767-4.8334c0.048 0.0632 0.0752 0.135 0.0748 0.1952 0.0128 0.0587 0.0352 0.1059-0.0182 0.1601-0.0577 0.1155-0.1554 0.2464-0.297 0.4236-0.2546-0.0704-0.4052-0.1347-0.5879-0.1997-1.124 0.0687-1.7888-0.1903-2.5349-1.079 0.551-0.1217 1.0732-0.3618 1.4343-0.2793 0.3112 0.071 0.6023 0.1749 0.8896 0.2915 0.0657-0.0399 0.0955-0.071 0.1753-0.1186 0.4923 0.2898 0.734 0.457 0.864 0.6062zm8.786 3.2127c-0.243-0.0457-0.514-0.0915-0.7218-0.1783-0.5563-0.2313-0.5111-0.4489 0.2188-1.0494 0.086 0.0383 0.174 0.0876 0.256 0.1242 0.739-0.2859 1.485-0.0017 1.838 0.2581 0.544 0.3886 1.255 0.5021 1.886 0.7158 0.012-0.032 6e-3 -0.0604 0.02-0.0906 2.098 0.0277 2.375 0.1604 2.555 1.1574-0.421 0.0915-0.874 0.1959-1.356 0.3021-0.451-0.1525-0.732-0.3191-0.947-0.5016-1.289-0.0886-2.241-0.3919-3.001-0.8591-0.102 0.0476-0.195 0.092-0.302 0.1308-0.109 0.0367-0.301 0.0143-0.446-0.0094zm-5.0824-0.9856c-0.145 0.1433-0.5403 0.3171-0.7755 0.2872-0.5724-0.0742-1.2157-0.1878-1.635-0.4102-0.6311-0.3416 0.2437-0.5229 0.3456-0.8055 0.021-0.0559 0.0811-0.1031 0.1981-0.2544 0.2149 0.0955 0.3647 0.1652 0.5573 0.2403-0.0306-0.047-0.0561-0.0991-0.0838-0.1455 0.306-0.1327 0.59-0.3399 0.9425-0.3735 0.2196-0.0258 0.5537 0.1992 0.8419 0.31-0.1734 0.1102-0.3184 0.3033-0.5269 0.3212-0.3284 0.0324-0.6853-0.0216-1.0381-0.0499 0.3147 0.1296 0.6668 0.2658 0.9311 0.4104 0.1885 0.1003 0.34 0.3659 0.2428 0.4699zm2.6199-0.0152c-2.3035-0.3482-2.6798-0.6312-1.7653-1.5984 0.5567 0.6289 2.1087 0.7694 1.7653 1.5984zm-83.739 5.1078c-0.0718-1.0866 1.0652-0.7664 2.1281-0.78 0.1353 0.3371 0.4044 0.6757 0.3473 0.9227-0.0968 0.4161-0.7092 0.306-1.2072 0.2057-0.4217-0.0812-0.8456-0.2282-1.2682-0.3484zm10.076-1.5056c0.3672 0.9569 0.0127 1.1708-1.9045 1.011 0.4523-0.9968 0.6128-0.9279 1.9045-1.011zm81.088 1.3351c-0.103-0.4096 0.343-0.5431 1.186-0.5503 0.226 0.4039 0.465 0.8249 0.769 1.3848-1.211-0.1178-1.825-0.3166-1.955-0.8345zm-3.18-1.1782c0.208-0.216 0.422-0.4287 0.743-0.7536 0.457 0.21 0.853 0.3949 1.267 0.5866-1.033 0.5898-1.026 0.5906-2.01 0.167zm-3.0824-0.2934c0.0386-0.0447 0.0756-0.0947 0.1156-0.1416-0.2078-0.076-0.3779-0.2066-0.6448-0.4579 0.3593-0.2309 0.7357-0.4656 1.265-0.798 0.4656 0.4701 0.8086 0.817 1.1746 1.1884-0.296 0.0371-0.482 0.0585-0.687 0.0849 0.538 0.0414 1.098 0.0884 1.767 0.1474-0.215 0.3567-0.252 0.7316-0.536 0.7998-0.351 0.0898-0.97-3e-4 -1.351-0.1369-0.4368-0.1563-0.734-0.4542-1.1034-0.6861z" fill="#DDA750"/>
  <path d="m73.795 99.764v-33.543" stroke="#FFC167" stroke-linecap="round" stroke-linejoin="round" stroke-width="1.7406"/>
  <path d="m49.398 24.814s-2.3335-0.3187-3.7714 0c-4.4967 6.6725-6.6725 10.154-6.6725 10.154 0.0484 0.5319 0.1451 1.9728 0.1451 3.4813 1.2764-2.3208 7.3977-10.057 10.299-13.635z" fill="#654F20"/>
  <path d="m102.34 24.81s-4.074 0.5551-5.5119 0.8738c6.0919 7.1076 9.4289 11.169 9.4289 11.169 0.725-0.8704 1.16-1.1605 1.16-2.9011-1.16-2.611-3.626-5.8022-5.077-9.1419z" fill="#654F20"/>
  <path d="m37.504 60.207v-5.0769l-9.4285 19.292h4.4967l4.9318-14.215z" fill="#654F20"/>
  <path d="m107.56 60.207v-5.0769l9.428 19.292h-4.497l-4.931-14.215z" fill="#654F20"/>
  <path d="m35.908 26.555v-3.9165h74.848c0.145 2.0307 0.145 3.1912 0 4.2066-4.99-1.1605-52.461-0.7737-74.848-0.2901z" fill="#9E7337"/>
  <path d="m63.361 20.032c-0.1574-0.4542-0.6532-0.6948-1.1073-0.5374-0.4542 0.1574-0.6948 0.6531-0.5374 1.1073l2.8703 8.2834c0.1574 0.4542 0.6531 0.6948 1.1073 0.5374 0.4542-0.1573 0.6948-0.6531 0.5374-1.1073l-2.8703-8.2834zm2.8703 0c-0.1573-0.4542-0.6531-0.6948-1.1073-0.5374s-0.6948 0.6531-0.5374 1.1073l2.8703 8.2834c0.1574 0.4542 0.6532 0.6948 1.1074 0.5374 0.2532-0.0877 0.44-0.2806 0.5285-0.5129 0.1402 0.429 0.5899 0.6835 1.0352 0.5738 0.4667-0.115 0.7519-0.5865 0.6369-1.0533l-2.0503-8.3216c-0.1149-0.4667-0.5865-0.7518-1.0532-0.6368s-0.7519 0.5865-0.6369 1.0532l1.5311 6.2145-2.3243-6.7076zm5.0802 0.0767c-0.115-0.4667-0.5866-0.7518-1.0533-0.6368s-0.7518 0.5865-0.6369 1.0532l2.0503 8.3216c0.115 0.4668 0.5865 0.7519 1.0532 0.6369 0.4668-0.115 0.7519-0.5865 0.6369-1.0533l-2.0502-8.3216zm3.9342-0.6506c0.4744-0.0779 0.922 0.2435 0.9999 0.7178l1.3668 8.3216c0.0779 0.4743-0.2434 0.922-0.7177 0.9999s-0.922-0.2435-0.9999-0.7178l-1.3668-8.3216c-0.0779-0.4743 0.2434-0.922 0.7177-0.9999zm4.5596 0.7594c-0.0549-0.4775-0.4865-0.8201-0.964-0.7652-0.4776 0.0549-0.8202 0.4865-0.7653 0.9641l0.9568 8.3216c0.0549 0.4775 0.4865 0.8201 0.9641 0.7652 0.4775-0.0549 0.8201-0.4865 0.7652-0.9641l-0.9568-8.3216z" clip-rule="evenodd" fill="#ED801C" fill-rule="evenodd"/>
  <path d="m38.954 18.142h-2.7561c0 4.6417 0.4352 15.26 0.4352 20.598s0.6769 25.336 1.0154 34.668h3.0461c-0.4641-4.9899-1.4505-39.938-1.7406-55.266z" fill="#896831"/>
  <path d="m109.07 18.287h-2.757c0 4.6418-0.725 15.695-0.725 21.033s-1.499 24.901-1.16 34.233h3.046c-0.464-4.9899 1.886-39.938 1.596-55.266z" fill="#896831"/>
  <path d="m100.89 64.849c2.031 3.1912 2.901 5.0769 4.787 9.0949-6.1257 3.1312-18.313 5.2655-32.347 5.2655-14.985 0-27.864-2.4333-33.508-5.9155 2.9011-4.5285 4.9319-7.2846 6.0923-8.8802 7.1077-0.8702 7.2272-1.3054 27.415-1.3054s20.453 0.8703 27.56 1.7407z" fill="#A29C87"/>
  <ellipse cx="73.332" cy="64.849" rx="27.56" ry="3.9165" fill="#BEBDAA"/>
  <ellipse cx="73.332" cy="65.139" rx="20.018" ry="2.4659" fill="#A19B89"/>
  <path d="m51.428 67.025-1.1785 3.7714m-1.7225 5.5121 1.7225-5.5121m8.8664-2.756-0.4351 4.3516m-0.4352 5.8022 0.4352-5.8022m7.978-3.9165-0.2901 4.4967m-0.4352 5.8022 0.4352-5.8022m7.978-4.4967v4.4967m0.5802 6.0923-0.5802-6.0923m6.3824-4.4967 0.5802 3.9165m0.8703 6.6725-0.8703-6.6725m6.3824-4.3516 1.1604 3.6263m2.0308 6.0923-2.0308-6.0923m5.9472-4.6417 1.4506 3.7714m2.3209 5.9472-2.3209-5.9472 6.5277-2.3209m-13.926 3.1912-7.5428 0.7253m-6.9626 0.5802h-7.978m-7.6879-0.5802-8.4313-1.5956m-4.3335-5.6571-5.5121 8.5582" stroke="#555040" stroke-width=".58022"/>
  <ellipse cx="73.332" cy="65.864" rx="14.215" ry="1.1604" fill="#76705F"/>
  <path d="m73.912 20.898v44.967" stroke="#ED801C" stroke-linecap="round" stroke-linejoin="round" stroke-width="1.7406"/>
  <path d="m65.698 123.21c7.5857 3.066 14.687 1.049 17.27-1.291l1.6947-12.711-21.465 0.656c0.7871 4.327 1.5579 8.514 2.5008 13.346z" fill="#8EDEFF"/>
  <path d="m82.968 121.92 2.2596-16.947h-22.919c1.1298 6.214 2.0982 11.62 3.3894 18.238 7.5857 3.066 14.687 1.049 17.27-1.291z" fill="#ED801C"/>
  <path d="m66.666 121.81c2.5522 1.195 9.1274 2.728 15.01-0.701" stroke="#CFCFD1" stroke-linecap="round" stroke-width=".87033"/>
  <path d="m64.568 109.06c3.4304 1.195 12.268 2.727 20.175-0.702" stroke="#CFCFD1" stroke-linecap="round" stroke-width=".87033"/>
  <path d="m85.227 104.97c0 1.871-5.1305 3.389-11.459 3.389s-11.459-1.518-11.459-3.389v-2.341h22.919v2.341z" fill="#C24A24"/>
  <ellipse cx="73.768" cy="102.71" rx="11.459" ry="3.3894" fill="#ED801C"/>
  <ellipse cx="73.768" cy="102.71" rx="9.6839" ry="2.2596" fill="#414042"/>
  <path d="m82.01 103.9c-1.7063 0.644-4.7597 1.073-8.2424 1.073-3.5939 0-6.7306-0.457-8.4017-1.135 3.3437-1.017 10.806-2.28 16.644 0.062z" clip-rule="evenodd" fill="#8EDEFF" fill-rule="evenodd"/>
  <path d="m62.632 102.64c0.3228-3.8197 3.0505-11.508 11.379-11.701 8.3282-0.1936 10.948 7.7203 11.217 11.701" stroke="#414042" stroke-linecap="round" stroke-width="1.7406"/>
  <path d="m9.1795 72.304s3.7958 10.017 5.5172 28.953c1.7214 18.936 0.4623 41.898 0.4623 41.898l-37.932 4.844s1.0588-33.307 0.5317-45.52c-0.527-12.213 2.4874-33.75 7.0707-41.051 7.4019-4.9177 19.672-0.4223 24.35 10.876z" fill="#fff"/>
  <path d="m-5.0352 48.406v6.2893h6.129l0.5733-6.2893h-6.7023z" fill="#FDB082"/>
  <path d="m-5.0352 48.406v6.2893h6.129l0.5733-6.2893h-6.7023z" fill="#FDB082"/>
  <path d="m9.3725 32.195s0.36986 2.3518 1.0233 3.2148c0.6534 0.863 1.5781 0.9709 1.8339 1.387 0.2559 0.4161 0.6658 1.1789-0.4053 2.2177-1.071 1.0387-2.7524 0.6426-2.7524 0.6426s-0.87073-6.7593 0.30052-7.4621z" fill="#FDB082"/>
  <path d="m8.534 22.922c-1.817-6.4449-9.6104-7.308-11.867-7.4297-5.5342-0.3082-13.596 1.2899-16.028 7.5268-2.0512 5.2398-3.0499 13.135 6.2138 21.267 9.2636 8.1325 21.606 7.5515 21.606 7.5515s2.0605-0.3776 2.2084-7.5253c0.1064-5.1273-1.1712-7.4297-1.2883-11.888-0.10325-3.8389 0.35908-5.2228-0.84607-9.5025z" fill="#FDB082"/>
  <path d="m12.255 37.042c0.0185 0.3699-0.3421 0.6873-0.8044 0.7089-0.4624 0.0216-0.8507-0.2604-0.8677-0.6303-0.0169-0.3699 0.3437-0.6858 0.8045-0.7089s0.8507 0.2604 0.8676 0.6303z" fill="#FFC7AB"/>
  <path d="m12.23 36.804c0.1822 0.2299 0.3093 0.4985 0.3715 0.7851 0.0623 0.2867 0.058 0.5838-0.0124 0.8685-0.2281 1.0095-1.048 1.609-2.8295 1.7477-0.56096-0.6581-0.12174-0.7012-0.12174-0.7012s3.6724-0.5025 2.5921-2.7001zm-17.653-2.0235s-0.47004-2.267-2.116-2.3795-2.9189 1.7045-2.7262 3.6987c0.1926 1.9942 1.4178 4.9316 2.962 5.8085s2.4658-0.7783 2.4658-0.7783l-0.58563-6.3494z" fill="#E98146"/>
  <path d="m6.4016 19.232c-1.091-0.3326-2.2269-0.4943-3.3673-0.4793-1.8139 0.0431-4.8129 1.1111-6.1475 5.847-1.3346 4.7358 0.80447 10.064 0.75669 10.464-0.04777 0.4007-2.4488 0.6411-2.4488 0.6411s-0.34983-2.7525-2.042-3.5122c-1.6921-0.7598-3.8806 1.1096-3.7681 3.4906s1.552 6.3895 3.8744 6.7439c-1.179 2.6785-4.9115 3.6448-4.9115 3.6448s-5.1381-3.0114-8.6179-5.8655c-3.5924-2.9466-4.3891-5.7977-4.5109-7.738-0.037-0.5717-1.8879-4.6233-0.8322-8.4761s3.204-4.984 3.204-4.984 1.2745-6.4203 10.245-8.2696c7.0552-1.4517 10.942 1.5303 11.52 1.6351 0.57792 0.1048 7.8397 3.1007 7.046 6.858z" fill="#755142"/>
  <path d="m1.2635 15.341s-2.5814-5.8346-9.8184-6.1043c-7.2371-0.2697-7.2818 0.88612-10.637 1.8108s-5.1057-1.2791-5.1057-1.2791-0.1803 3.6986 3.6324 3.8836c-1.387 0.8383-3.2224-0.7059-3.2224-0.7059s0.9894 1.6305 1.9156 2.0282c0.9262 0.3976 1.501 0.3667 1.501 0.3667l-1.6983 0.3298 0.6503 0.4978-1.0787 3.4429 23.861-4.2705z" fill="#755142"/>
  <path d="m-15.173 61.428c-0.2512 0.2974 5.3754-1.7461 11.643-0.5102 6.2677 1.236 12.71 11.386 12.71 11.386s-1.7954-4.7189-3.9268-9.1789c-2.1314-4.46-4.3459-6.3833-4.161-8.4299h-13.237s-1.3438 4.7266-3.0283 6.7332z" fill="#FDB082"/>
  <path d="m15.869 115.11s-14.271-13.284-22.911-26.282c-8.6395-12.999-8.4347-19.238-2.6503-22.604 5.7845-3.3661 11.584 0.1584 16.582 7.8392 4.9978 7.6808 19.664 30.096 20.772 33.802s-5.694 12.22-11.792 7.245z" fill="#FDB082"/>
  <path d="m56.572 88.432c-0.0324-0.1084-0.0585-0.2113-0.0873-0.3247-0.2732-1.1234-0.8073-2.2308-0.8598-3.3892-0.0684-1.4951 0.2398-2.9651 0.8953-4.2705 0.179-0.3498 0.3865-0.7403 0.2651-1.119-0.068-0.1632-0.1779-0.3065-0.3177-0.4142-0.1398-0.1078-0.3043-0.176-0.4754-0.1971-0.912-0.1681-1.1735 0.3781-1.8258 0.8437-0.103 0.0889-0.2364 0.1346-0.3748 0.1286-0.1122-0.0259-0.2147-0.0882-0.2918-0.1772-0.7833-0.778-0.9687-1.9368-1.2411-2.9923-0.2724-1.0554-0.7968-2.2129-1.8474-2.5598-0.8299-0.278-1.7688 0.0676-2.3593 0.6889-0.5906 0.6214-0.8942 1.4564-1.0587 2.2974-0.402 2.115 0.0406 4.1578 0.7648 6.1165 0.5249 1.3954 1.1617 2.8088 1.6534 4.2383 0.2451 0.6919 0.439 1.3993 0.5799 2.1161 0.132 0.7107 0.1433 1.4477 0.4192 2.1306s1.0695 0.9643 1.785 1.1373c1.5118 0.3714 3.1555-0.09 4.5225-0.6508 0.163-0.0517 0.3096-0.1428 0.4278-0.2656 0.1275-0.1992 0.1749-0.4431 0.133-0.6841-0.0683-0.9163-0.4558-1.7772-0.7069-2.6529z" fill="#FDB082" fill-opacity=".5"/>
  <path d="m51.458 92.413c0.0937 0.0635 0.1788 0.1268 0.2729 0.1965 0.9215 0.6982 2.0351 1.2192 2.8077 2.0839 0.9976 1.1157 1.6874 2.4498 2.0041 3.8759 0.0821 0.3842 0.168 0.818 0.5014 1.0349 0.1558 0.0835 0.3315 0.1252 0.508 0.1203 0.1765-0.0048 0.347-0.0558 0.493-0.1476 0.8131-0.4459 0.6708-1.0344 0.8822-1.8074 0.0237-0.134 0.0982-0.2538 0.2093-0.3365 0.1034-0.0508 0.2221-0.0673 0.3381-0.047 1.0987 0.1082 1.9746 0.8892 2.8525 1.5353 0.878 0.646 2.0158 1.2117 3.0493 0.817 0.8189-0.3087 1.3284-1.1698 1.3935-2.0245 0.0652-0.8547-0.227-1.6939-0.6308-2.4497-1.0247-1.8934-2.6583-3.1972-4.4571-4.258-1.2885-0.7499-2.6751-1.4432-3.9593-2.2406-0.6272-0.3816-1.2244-0.8074-1.7864-1.274-0.5514-0.4674-1.0257-1.0316-1.6711-1.3867-0.6453-0.355-1.4382-0.0717-2.1021 0.2462-1.4065 0.6673-2.3891 2.0634-3.0945 3.3617-0.0936 0.1431-0.1498 0.3063-0.1637 0.4762 0.027 0.2349 0.1443 0.454 0.329 0.6143 0.6319 0.6671 1.4761 1.0896 2.224 1.6098z" fill="#FDB082"/>
  <path d="m52.548 86.797s-29.257 12.865-34.303 15.025c-5.0465 2.16-1.8648 15.492 5.0499 13.261 6.9147-2.23 32.432-23.721 32.432-23.721l-3.1791-4.565z" fill="#FDB082"/>
 </g>
 <defs>
  <clipPath id="clip0_54_11056">
   <path d="m0 11.633c0-6.2854 5.0953-11.381 11.381-11.381h130.62v127.47h-130.62c-6.2854 0-11.381-5.096-11.381-11.381v-104.7z" fill="#fff"/>
  </clipPath>
 </defs>
</svg>
